<?xml version="1.0" encoding="UTF-8" standalone="no"?>
<!-- Created with Inkscape (http://www.inkscape.org/) -->

<svg
   width="240mm"
   height="120mm"
   viewBox="0 0 240 120"
   version="1.1"
   id="svg8"
   inkscape:version="1.2.1 (9c6d41e410, 2022-07-14, custom)"
   sodipodi:docname="diagrammes-non-linéaires.svg"
   xmlns:inkscape="http://www.inkscape.org/namespaces/inkscape"
   xmlns:sodipodi="http://sodipodi.sourceforge.net/DTD/sodipodi-0.dtd"
   xmlns="http://www.w3.org/2000/svg"
   xmlns:svg="http://www.w3.org/2000/svg"
   xmlns:rdf="http://www.w3.org/1999/02/22-rdf-syntax-ns#"
   xmlns:cc="http://creativecommons.org/ns#"
   xmlns:dc="http://purl.org/dc/elements/1.1/">
  <defs
     id="defs2">
    <marker
       style="overflow:visible"
       id="marker2413"
       refX="0"
       refY="0"
       orient="auto-start-reverse"
       inkscape:stockid="Arrow3"
       markerWidth="4.2071066"
       markerHeight="7"
       viewBox="0 0 4.2071068 7"
       inkscape:isstock="true"
       inkscape:collect="always"
       preserveAspectRatio="xMidYMid">
      <path
         style="fill:none;stroke:context-stroke;stroke-width:1;stroke-linecap:round"
         d="M 3,-3 0,0 3,3"
         id="path2411"
         transform="rotate(180,0.125,0)"
         sodipodi:nodetypes="ccc" />
    </marker>
    <marker
       style="overflow:visible"
       id="Arrow3"
       refX="0"
       refY="0"
       orient="auto-start-reverse"
       inkscape:stockid="Arrow3"
       markerWidth="4.2071066"
       markerHeight="7"
       viewBox="0 0 4.2071068 7"
       inkscape:isstock="true"
       inkscape:collect="always"
       preserveAspectRatio="xMidYMid">
      <path
         style="fill:none;stroke:context-stroke;stroke-width:1;stroke-linecap:round"
         d="M 3,-3 0,0 3,3"
         id="arrow3"
         transform="rotate(180,0.125,0)"
         sodipodi:nodetypes="ccc" />
    </marker>
    <inkscape:path-effect
       effect="spiro"
       id="path-effect543"
       is_visible="true"
       lpeversion="1" />
    <inkscape:path-effect
       effect="spiro"
       id="path-effect423"
       is_visible="true"
       lpeversion="1" />
    <inkscape:path-effect
       effect="spiro"
       id="path-effect423-3"
       is_visible="true"
       lpeversion="1" />
    <inkscape:path-effect
       effect="spiro"
       id="path-effect423-3-7"
       is_visible="true"
       lpeversion="1" />
    <inkscape:path-effect
       effect="spiro"
       id="path-effect423-35"
       is_visible="true"
       lpeversion="1" />
    <inkscape:path-effect
       effect="spiro"
       id="path-effect423-3-6"
       is_visible="true"
       lpeversion="1" />
    <inkscape:path-effect
       effect="spiro"
       id="path-effect423-3-7-2"
       is_visible="true"
       lpeversion="1" />
    <inkscape:path-effect
       effect="spiro"
       id="path-effect423-3-6-3"
       is_visible="true"
       lpeversion="1" />
    <inkscape:path-effect
       effect="spiro"
       id="path-effect423-3-6-0"
       is_visible="true"
       lpeversion="1" />
    <inkscape:path-effect
       effect="spiro"
       id="path-effect423-6"
       is_visible="true"
       lpeversion="1" />
    <inkscape:path-effect
       effect="spiro"
       id="path-effect423-3-1"
       is_visible="true"
       lpeversion="1" />
    <inkscape:path-effect
       effect="spiro"
       id="path-effect423-3-7-8"
       is_visible="true"
       lpeversion="1" />
  </defs>
  <sodipodi:namedview
     id="base"
     pagecolor="#ffffff"
     bordercolor="#666666"
     borderopacity="1.0"
     inkscape:pageopacity="0.0"
     inkscape:pageshadow="2"
     inkscape:zoom="1.3431257"
     inkscape:cx="648.11508"
     inkscape:cy="94.927826"
     inkscape:document-units="mm"
     inkscape:current-layer="layer1"
     showgrid="false"
     showborder="true"
     width="200mm"
     showguides="true"
     inkscape:guide-bbox="true"
     inkscape:window-width="1920"
     inkscape:window-height="1200"
     inkscape:window-x="0"
     inkscape:window-y="0"
     inkscape:window-maximized="1"
     inkscape:showpageshadow="2"
     inkscape:pagecheckerboard="0"
     inkscape:deskcolor="#d1d1d1">
    <inkscape:grid
       type="xygrid"
       id="grid815"
       units="mm"
       spacingx="10"
       spacingy="10"
       empspacing="4"
       dotted="false" />
  </sodipodi:namedview>
  <metadata
     id="metadata5">
    <rdf:RDF>
      <cc:Work
         rdf:about="">
        <dc:format>image/svg+xml</dc:format>
        <dc:type
           rdf:resource="http://purl.org/dc/dcmitype/StillImage" />
        <dc:title />
      </cc:Work>
    </rdf:RDF>
  </metadata>
  <g
     inkscape:label="Layer 1"
     inkscape:groupmode="layer"
     id="layer1"
     transform="translate(0,-177)">
    <path
       style="fill:none;stroke:#28170b;stroke-width:0.139389"
       d="m 23.212195,228.78628 c 1.412055,-0.47261 3.015294,-0.34151 4.331816,0.35421 0.503349,0.266 0.971774,0.61716 1.303208,1.08005 0.331434,0.46289 0.515991,1.04613 0.431103,1.60908 -0.04244,0.28147 -0.151764,0.55391 -0.324173,0.78041 -0.17241,0.2265 -0.408492,0.4058 -0.676636,0.50134 -0.268144,0.0955 -0.567733,0.10541 -0.838595,0.0179 -0.270862,-0.0875 -0.510453,-0.27374 -0.653473,-0.51986 -0.113418,-0.19518 -0.164908,-0.42211 -0.173053,-0.6477 -0.0081,-0.22559 0.02548,-0.45082 0.07324,-0.67145 0.172416,-0.7965 0.534317,-1.55348 1.059867,-2.17633 0.52555,-0.62285 1.215108,-1.10906 1.984381,-1.37806 0.941327,-0.32916 1.999119,-0.3241 2.930418,0.0325 0.931299,0.35655 1.726452,1.06533 2.169946,1.9585 0.13323,0.26832 0.236766,0.55906 0.236598,0.85864 -8.4e-5,0.14979 -0.02662,0.30033 -0.08563,0.43801 -0.059,0.13767 -0.151122,0.26214 -0.270744,0.35229 -0.125886,0.0949 -0.28047,0.14998 -0.437715,0.161 -0.157246,0.011 -0.316715,-0.0215 -0.459263,-0.0888 -0.285096,-0.13458 -0.494057,-0.40538 -0.587867,-0.70636 -0.09381,-0.30099 -0.07943,-0.62891 0.0035,-0.93306 0.08296,-0.30416 0.231782,-0.58677 0.403352,-0.85126 0.676311,-1.04259 1.728147,-1.82954 2.909553,-2.21512 1.181407,-0.38558 2.483933,-0.37295 3.668023,0.004 0.570196,0.18167 1.119857,0.44951 1.571222,0.84245 0.451365,0.39293 0.800146,0.91782 0.921879,1.50374 0.06087,0.29297 0.06448,0.59861 0.0019,0.89121 -0.06256,0.29261 -0.191934,0.57174 -0.381609,0.80316 -0.189675,0.23142 -0.439997,0.41413 -0.721297,0.51612 -0.2813,0.10199 -0.593088,0.12189 -0.883078,0.0482 -0.248055,-0.0631 -0.477663,-0.19351 -0.664208,-0.36876 -0.186545,-0.17524 -0.330258,-0.39455 -0.423737,-0.63282 -0.113836,-0.29016 -0.153382,-0.60767 -0.126128,-0.91816 0.02725,-0.3105 0.120431,-0.61389 0.261455,-0.89185 0.282047,-0.55592 0.749141,-1.0019 1.272017,-1.34131 0.527596,-0.34247 1.119681,-0.58632 1.736717,-0.70843 0.958141,-0.18961 1.973586,-0.0794 2.86822,0.31256 0.894634,0.39194 1.664334,1.06398 2.172259,1.89825 0.181706,0.29845 0.331585,0.61983 0.405357,0.96137 0.07377,0.34154 0.06849,0.70501 -0.05186,1.03305 -0.120342,0.32803 -0.362003,0.6171 -0.680381,0.76106 -0.159189,0.072 -0.335508,0.10713 -0.509912,0.0968 -0.174404,-0.0103 -0.346513,-0.0665 -0.490701,-0.16515 -0.170388,-0.11658 -0.298617,-0.29034 -0.37185,-0.48337 -0.07323,-0.19302 -0.0928,-0.40448 -0.06914,-0.60957 0.04734,-0.41018 0.261838,-0.78408 0.520836,-1.10565 0.632438,-0.78524 1.563665,-1.32363 2.559738,-1.47991 0.996072,-0.15627 2.047435,0.0711 2.889964,0.62489"
       id="path421"
       inkscape:path-effect="#path-effect423"
       inkscape:original-d="m 23.212195,228.78628 c 1.279493,-1.15992 3.524771,-1.89038 4.331816,0.35421 0.294029,0.81777 0.922769,4.49766 -0.758566,3.46889 -0.266205,-0.16288 -0.146856,-1.07372 -0.09981,-1.31915 0.360418,-1.88031 1.502957,-3.21145 3.044248,-3.55439 1.8058,-0.4018 4.833727,-1.21765 5.100364,1.99095 0.03553,0.4275 0.170756,1.29341 -0.119774,1.64894 -0.933564,1.14245 -2.186107,-1.02667 -1.077962,-2.41845 1.441578,-1.81056 4.513816,-4.01477 6.577576,-2.21081 0.878606,0.768 1.645217,3.7984 0.509036,4.60483 -0.461388,0.32748 -0.951261,-0.60432 -1.087945,-1.00158 -0.427913,-1.24369 0.614254,-2.55989 1.407344,-3.15132 0.514534,-0.3837 1.14214,-0.61394 1.736717,-0.70843 1.120407,-0.17807 5.040479,0.1616 5.040479,2.21081 0,0.54862 -0.507942,3.43936 -1.327493,2.68717 -0.513365,-0.47118 -0.182145,-1.68248 0.07985,-2.19859 1.056054,-2.08038 4.028479,-2.37222 5.449702,-0.85502" />
    <path
       style="fill:none;stroke:#28170b;stroke-width:0.139389"
       d="m 68.151553,257.2475 c -1.364706,-1.10932 -2.176302,-2.86821 -2.13475,-4.62642 0.01009,-0.42696 0.06913,-0.8583 0.23557,-1.25161 0.166437,-0.39331 0.448032,-0.74766 0.826198,-0.94612 0.189083,-0.0992 0.400196,-0.15812 0.613676,-0.16308 0.213481,-0.005 0.429018,0.0448 0.614919,0.14989 0.185902,0.10506 0.341058,0.26601 0.432221,0.45911 0.09116,0.1931 0.116608,0.41786 0.0634,0.62466 -0.05097,0.19811 -0.171354,0.37428 -0.323071,0.51149 -0.151717,0.13721 -0.333837,0.23742 -0.52335,0.31442 -0.694915,0.28234 -1.491864,0.2548 -2.203318,0.0172 -0.711454,-0.23761 -1.34381,-0.67316 -1.895162,-1.18172 -0.859796,-0.79307 -1.551442,-1.79419 -1.85584,-2.92359 -0.304398,-1.12941 -0.194849,-2.3906 0.417549,-3.38718 0.131397,-0.21383 0.287187,-0.4171 0.488785,-0.56659 0.201599,-0.14948 0.453787,-0.24159 0.703409,-0.21559 0.166109,0.0173 0.325756,0.0867 0.454836,0.19262 0.12908,0.10597 0.227606,0.24781 0.286351,0.40414 0.11749,0.31267 0.07066,0.6748 -0.09227,0.96638 -0.162925,0.29158 -0.433475,0.51478 -0.736963,0.65428 -0.303489,0.1395 -0.638922,0.19939 -0.972682,0.21242 -0.686279,0.0268 -1.375075,-0.14192 -1.986825,-0.4541 -0.61175,-0.31219 -1.147338,-0.76511 -1.582906,-1.29612 -0.871136,-1.06204 -1.330853,-2.41048 -1.549505,-3.76657 -0.07697,-0.47739 -0.126287,-0.96303 -0.08085,-1.44445 0.04543,-0.48142 0.190116,-0.96112 0.472715,-1.35351 0.282599,-0.39238 0.712084,-0.69027 1.190882,-0.75798 0.239398,-0.0339 0.487744,-0.01 0.713496,0.0767 0.225753,0.0866 0.428024,0.23639 0.57027,0.4319 0.17517,0.24076 0.254833,0.54623 0.234251,0.84326 -0.02058,0.29703 -0.138798,0.58436 -0.321561,0.81941 -0.329168,0.42334 -0.859803,0.66727 -1.395055,0.70005 -0.535253,0.0328 -1.07146,-0.13277 -1.529933,-0.41093 -0.572644,-0.34743 -1.026027,-0.85921 -1.436855,-1.38821 -0.705933,-0.909 -1.322658,-1.91199 -1.613339,-3.0256 -0.29068,-1.11361 -0.226967,-2.35342 0.358101,-3.34454 0.147155,-0.24928 0.326839,-0.48202 0.549981,-0.66642 0.223142,-0.18441 0.491695,-0.31908 0.778213,-0.36037 0.286519,-0.0413 0.590841,0.0156 0.828926,0.18024 0.119042,0.0823 0.220533,0.19057 0.292,0.31643 0.07147,0.12587 0.112529,0.26933 0.114981,0.41405 0.003,0.17732 -0.05212,0.35369 -0.146799,0.50366 -0.09468,0.14996 -0.227836,0.27396 -0.378772,0.36708 -0.301871,0.18624 -0.665573,0.24717 -1.020208,0.25387 -1.225253,0.0231 -2.444738,-0.59726 -3.147433,-1.60125 -0.702695,-1.004 -0.868045,-2.3622 -0.426759,-3.50546"
       id="path421-6"
       inkscape:path-effect="#path-effect423-3"
       inkscape:original-d="m 68.151553,257.2475 c -1.49442,-0.6727 -3.225345,-2.56915 -2.13475,-4.62642 0.397332,-0.74951 2.566287,-3.41185 2.785983,-1.12715 0.03478,0.36174 -0.652947,0.73938 -0.846421,0.82591 -1.482291,0.6629 -3.01854,0.22428 -4.09848,-1.16452 -1.26527,-1.62714 -3.483954,-4.2775 -1.438291,-6.31077 0.272558,-0.27091 0.789906,-0.88436 1.192194,-0.78218 1.292684,0.32835 0.498083,2.80001 -1.060724,2.42984 -2.027834,-0.48154 -5.219294,-2.41549 -5.119236,-5.51679 0.0426,-1.32031 1.692209,-3.76735 2.86651,-3.04735 0.476886,0.29235 0.109084,1.30486 -0.08731,1.66267 -0.614848,1.12019 -2.085812,0.77606 -2.924988,0.28912 -0.544443,-0.31591 -1.046079,-0.83173 -1.436855,-1.38821 -0.73638,-1.04864 -2.655161,-5.24581 -1.255238,-6.37014 0.374794,-0.30102 2.628298,-1.36738 2.564101,-0.11607 -0.04019,0.78377 -1.049452,1.10948 -1.545779,1.12461 -2.00064,0.0609 -3.830894,-2.82015 -3.574192,-5.10671" />
    <path
       style="fill:none;stroke:#28170b;stroke-width:0.139389"
       d="m 75.626861,208.13223 c -0.328744,0.73495 -0.855245,1.38032 -1.509212,1.84995 -0.653967,0.46963 -1.433735,0.76233 -2.2352,0.83901 -0.588558,0.0563 -1.197976,-0.006 -1.734594,-0.25376 -0.536617,-0.24822 -0.993801,-0.69566 -1.183279,-1.25572 -0.09474,-0.28003 -0.121382,-0.58412 -0.06688,-0.87467 0.0545,-0.29056 0.191207,-0.56662 0.396525,-0.77931 0.205319,-0.21269 0.479449,-0.36001 0.771751,-0.4042 0.292302,-0.0442 0.601016,0.0169 0.849318,0.17736 0.175907,0.11366 0.318943,0.27358 0.430198,0.45102 0.111256,0.17743 0.191928,0.37245 0.258634,0.57097 0.281216,0.83693 0.317738,1.7484 0.149759,2.61518 -0.167979,0.86678 -0.536426,1.68924 -1.033141,2.41917 -0.563275,0.82774 -1.312655,1.5543 -2.234174,1.94577 -0.460759,0.19573 -0.96042,0.30483 -1.460981,0.29785 -0.500561,-0.007 -1.001584,-0.13183 -1.436971,-0.37891 -0.256724,-0.14569 -0.495435,-0.33968 -0.636617,-0.59891 -0.07059,-0.12961 -0.115375,-0.27424 -0.122023,-0.42168 -0.0066,-0.14744 0.02573,-0.29757 0.0998,-0.42523 0.06533,-0.11261 0.162167,-0.20615 0.275108,-0.27091 0.11294,-0.0648 0.241613,-0.10095 0.371587,-0.10844 0.259947,-0.015 0.519365,0.0857 0.721064,0.25038 0.201698,0.16467 0.348605,0.38957 0.447448,0.63045 0.09884,0.24089 0.151801,0.49822 0.187625,0.75612 0.19628,1.41303 -0.129301,2.89965 -0.932821,4.07844 -0.80352,1.17879 -2.084265,2.0312 -3.489498,2.27719 -0.512211,0.0897 -1.043183,0.10062 -1.549113,-0.0195 -0.505931,-0.12014 -0.986192,-0.37691 -1.330586,-0.76652 -0.344394,-0.3896 -0.543039,-0.91673 -0.49256,-1.43427 0.02524,-0.25877 0.111702,-0.51213 0.255389,-0.72882 0.143687,-0.21669 0.344876,-0.39587 0.579541,-0.50782 0.2136,-0.1019 0.453499,-0.14746 0.689718,-0.13301 0.23622,0.0144 0.468304,0.0887 0.670159,0.21221 0.280446,0.17164 0.499035,0.43616 0.636207,0.73498 0.137173,0.29882 0.195174,0.63072 0.191208,0.9595 -0.0079,0.65756 -0.256332,1.28781 -0.542636,1.87982 -0.305386,0.63146 -0.66044,1.24307 -1.110335,1.78122 -0.620141,0.74179 -1.42594,1.33861 -2.340642,1.65189 -0.914702,0.31329 -1.938786,0.33214 -2.843023,-0.0102 -0.373841,-0.14153 -0.728578,-0.34541 -1.010166,-0.62913 -0.281587,-0.28372 -0.486775,-0.65114 -0.53972,-1.04735 -0.05295,-0.39621 0.05628,-0.81939 0.325069,-1.11526 0.134393,-0.14794 0.306295,-0.26242 0.496322,-0.32436 0.190026,-0.0619 0.397865,-0.0706 0.591091,-0.0195 0.183531,0.0485 0.351437,0.14986 0.487329,0.28242 0.135892,0.13256 0.240338,0.29567 0.313673,0.47077 0.146669,0.3502 0.168483,0.74074 0.143482,1.11959 -0.07198,1.0907 -0.527716,2.15228 -1.268894,2.95569 -0.741178,0.80342 -1.762648,1.34309 -2.844026,1.50258"
       id="path421-6-5"
       inkscape:path-effect="#path-effect423-3-7"
       inkscape:original-d="m 75.626861,208.13223 c -0.524787,1.83979 -2.045487,3.98928 -3.744412,2.68896 -0.618964,-0.47375 -2.830147,-3.08354 -0.967156,-3.3903 0.294965,-0.0486 0.61492,0.78669 0.688832,1.02199 0.566216,1.80277 0.233358,3.68984 -0.883382,5.03435 -1.308392,1.57523 -3.436948,4.33408 -5.132126,1.86471 -0.225861,-0.32901 -0.73565,-0.95187 -0.658844,-1.44582 0.246799,-1.58721 2.279379,-0.65595 2.002832,1.2576 -0.359759,2.4893 -1.886847,6.42657 -4.422319,6.35563 -1.079428,-0.0302 -3.106086,-2.00809 -2.537329,-3.45695 0.230935,-0.58838 1.064278,-0.15514 1.359877,0.0792 0.92542,0.73374 0.668684,2.53937 0.284779,3.5743 -0.249066,0.67143 -0.66217,1.29381 -1.110335,1.78122 -0.844532,0.91847 -4.241823,3.33602 -5.183665,1.64171 -0.252162,-0.45361 -1.160812,-3.19336 -0.137404,-3.13558 0.641018,0.0362 0.923891,1.26572 0.944484,1.87278 0.08301,2.44703 -2.2405,4.73441 -4.11292,4.45827" />
    <ellipse
       style="fill:#ff6600;stroke:none;stroke-width:0.139389"
       id="path721"
       cx="52.011566"
       cy="228.43289"
       rx="0.58888561"
       ry="0.73897129" />
    <text
       xml:space="preserve"
       style="font-size:3.175px;fill:#ff6600;stroke:#28170b;stroke-width:0.3"
       x="46.648972"
       y="223.62471"
       id="text881"><tspan
         sodipodi:role="line"
         id="tspan879"
         style="stroke-width:0.3;stroke:#28170b"
         x="46.648972"
         y="223.62471">$g$</tspan></text>
    <path
       style="fill:none;stroke:#28170b;stroke-width:0.139389"
       d="m 218.89726,232.73772 c -1.41205,-0.4726 -3.01529,-0.3415 -4.33181,0.35421 -0.50335,0.266 -0.97178,0.61716 -1.30322,1.08005 -0.33143,0.46289 -0.51599,1.04614 -0.43111,1.60909 0.0425,0.28147 0.15177,0.5539 0.32418,0.78041 0.17241,0.2265 0.40849,0.4058 0.67664,0.50134 0.26814,0.0955 0.56774,0.10541 0.8386,0.0179 0.27086,-0.0875 0.51045,-0.27375 0.65347,-0.51987 0.11342,-0.19518 0.1649,-0.42211 0.17305,-0.6477 0.008,-0.22559 -0.0255,-0.45082 -0.0733,-0.67145 -0.17242,-0.7965 -0.53432,-1.55348 -1.05987,-2.17633 -0.52555,-0.62285 -1.21511,-1.10906 -1.98438,-1.37806 -0.94133,-0.32917 -1.99912,-0.3241 -2.93042,0.0325 -0.93129,0.35655 -1.72645,1.06533 -2.16994,1.9585 -0.13323,0.26832 -0.23677,0.55906 -0.2366,0.85864 8e-5,0.14978 0.0266,0.30033 0.0856,0.43801 0.059,0.13767 0.15112,0.26214 0.27074,0.35229 0.12589,0.0949 0.28047,0.14998 0.43772,0.16101 0.15724,0.011 0.31671,-0.0215 0.45926,-0.0888 0.2851,-0.13458 0.49406,-0.40538 0.58787,-0.70636 0.0938,-0.30098 0.0794,-0.62891 -0.004,-0.93306 -0.083,-0.30415 -0.23178,-0.58677 -0.40335,-0.85126 -0.67631,-1.04259 -1.72815,-1.82955 -2.90955,-2.21513 -1.18141,-0.38558 -2.48394,-0.37294 -3.66803,0.004 -0.5702,0.18167 -1.11985,0.44951 -1.57122,0.84244 -0.45136,0.39294 -0.80014,0.91783 -0.92188,1.50375 -0.0609,0.29296 -0.0645,0.5986 -0.002,0.89121 0.0626,0.2926 0.19194,0.57173 0.38161,0.80315 0.18967,0.23142 0.43999,0.41413 0.72129,0.51612 0.2813,0.10199 0.59309,0.1219 0.88308,0.0482 0.24806,-0.0631 0.47766,-0.19351 0.66421,-0.36876 0.18655,-0.17524 0.33026,-0.39455 0.42374,-0.63282 0.11384,-0.29016 0.15338,-0.60767 0.12613,-0.91816 -0.0273,-0.3105 -0.12044,-0.61389 -0.26146,-0.89185 -0.28205,-0.55592 -0.74914,-1.0019 -1.27202,-1.34131 -0.52759,-0.34247 -1.11968,-0.58632 -1.73671,-0.70843 -0.95814,-0.18961 -1.97359,-0.0794 -2.86822,0.31255 -0.89464,0.39194 -1.66434,1.06399 -2.17226,1.89826 -0.1817,0.29845 -0.33158,0.61983 -0.40535,0.96136 -0.0738,0.34154 -0.0685,0.70501 0.0519,1.03304 0.12034,0.32804 0.362,0.6171 0.68037,0.76106 0.15919,0.072 0.33551,0.10714 0.50991,0.0968 0.1744,-0.0103 0.34651,-0.0665 0.4907,-0.16514 0.17039,-0.11658 0.29862,-0.29033 0.37186,-0.48336 0.0732,-0.19302 0.0928,-0.40448 0.0692,-0.60957 -0.0473,-0.41018 -0.26182,-0.78408 -0.52081,-1.10566 -0.63242,-0.78526 -1.56365,-1.32366 -2.55973,-1.47994 -0.99608,-0.15627 -2.04745,0.0711 -2.88997,0.62492"
       id="path421-7"
       inkscape:path-effect="#path-effect423-6"
       inkscape:original-d="m 218.89726,232.73772 c -1.27949,-1.15992 -3.52477,-1.89038 -4.33181,0.35421 -0.29403,0.81777 -0.92277,4.49766 0.75856,3.46889 0.26621,-0.16288 0.14686,-1.07372 0.0998,-1.31915 -0.36042,-1.88031 -1.50296,-3.21145 -3.04425,-3.55439 -1.8058,-0.4018 -4.83372,-1.21765 -5.10036,1.99095 -0.0355,0.4275 -0.17076,1.29341 0.11977,1.64894 0.93357,1.14245 2.18611,-1.02667 1.07797,-2.41845 -1.44158,-1.81056 -4.51382,-4.01477 -6.57758,-2.21081 -0.87861,0.768 -1.64522,3.7984 -0.50904,4.60483 0.46139,0.32748 0.95126,-0.60432 1.08795,-1.00158 0.42791,-1.24369 -0.61426,-2.55989 -1.40735,-3.15132 -0.51453,-0.3837 -1.14214,-0.61394 -1.73671,-0.70843 -1.12041,-0.17807 -5.04048,0.1616 -5.04048,2.21081 0,0.54862 0.50794,3.43936 1.32749,2.68717 0.51337,-0.47118 0.18215,-1.68248 -0.0798,-2.19859 -1.05605,-2.08038 -4.02848,-2.37222 -5.4497,-0.85502" />
    <path
       style="fill:none;stroke:#28170b;stroke-width:0.139389"
       d="m 83.869629,233.5589 c 1.412054,-0.4726 3.015286,-0.3415 4.331807,0.35421 0.503353,0.266 0.971781,0.61716 1.303218,1.08005 0.331437,0.46289 0.515997,1.04614 0.43111,1.60908 -0.04244,0.28148 -0.151765,0.55391 -0.324175,0.78042 -0.172411,0.2265 -0.408494,0.4058 -0.676639,0.50134 -0.268145,0.0955 -0.567737,0.10541 -0.838599,0.0179 -0.270863,-0.0875 -0.510453,-0.27375 -0.653472,-0.51987 -0.113416,-0.19518 -0.164904,-0.42211 -0.173047,-0.6477 -0.0081,-0.22559 0.02549,-0.45082 0.07325,-0.67145 0.172421,-0.7965 0.534321,-1.55348 1.05987,-2.17633 0.525549,-0.62285 1.215105,-1.10906 1.984377,-1.37806 0.941326,-0.32917 1.999118,-0.3241 2.930416,0.0324 0.931298,0.35655 1.726449,1.06533 2.169944,1.9585 0.13323,0.26832 0.236766,0.55906 0.236599,0.85864 -8.3e-5,0.14978 -0.02662,0.30033 -0.08563,0.43801 -0.059,0.13767 -0.151122,0.26214 -0.270743,0.35229 -0.125886,0.0949 -0.280469,0.14998 -0.437715,0.16101 -0.157246,0.011 -0.316716,-0.0215 -0.459265,-0.0888 -0.285096,-0.13458 -0.494058,-0.40538 -0.58787,-0.70636 -0.09381,-0.30098 -0.07943,-0.62891 0.0035,-0.93306 0.08295,-0.30415 0.231781,-0.58677 0.403351,-0.85126 0.676311,-1.04259 1.728148,-1.82955 2.909557,-2.21513 1.181408,-0.38558 2.483936,-0.37294 3.668027,0.004 0.5702,0.18167 1.11986,0.44951 1.57122,0.84245 0.45137,0.39293 0.80015,0.91782 0.92188,1.50375 0.0609,0.29296 0.0645,0.5986 0.002,0.89121 -0.0626,0.2926 -0.19194,0.57173 -0.38161,0.80315 -0.18968,0.23142 -0.44,0.41413 -0.7213,0.51612 -0.2813,0.10199 -0.59309,0.12189 -0.88308,0.0481 -0.24805,-0.0631 -0.47766,-0.19351 -0.6642,-0.36876 -0.18655,-0.17524 -0.33026,-0.39455 -0.42374,-0.63282 -0.11384,-0.29016 -0.15338,-0.60767 -0.12613,-0.91816 0.0272,-0.3105 0.12043,-0.61389 0.26146,-0.89185 0.28204,-0.55592 0.74913,-1.0019 1.27201,-1.34131 0.5276,-0.34247 1.11968,-0.58632 1.73672,-0.70843 0.95814,-0.18961 1.97359,-0.0794 2.86822,0.31256 0.89464,0.39193 1.66434,1.06398 2.17226,1.89825 0.1817,0.29845 0.33158,0.61983 0.40535,0.96136 0.0738,0.34154 0.0685,0.70501 -0.0519,1.03305 -0.12034,0.32803 -0.362,0.61709 -0.68037,0.76106 -0.15919,0.072 -0.33551,0.10713 -0.50991,0.0968 -0.1744,-0.0103 -0.34651,-0.0665 -0.4907,-0.16514 -0.17039,-0.11658 -0.29862,-0.29033 -0.37186,-0.48336 -0.0732,-0.19302 -0.0928,-0.40448 -0.0691,-0.60957 0.0473,-0.41018 0.26182,-0.78408 0.52081,-1.10566 0.63242,-0.78526 1.56365,-1.32366 2.55973,-1.47994 0.99608,-0.15628 2.04745,0.0711 2.88997,0.62492"
       id="path421-9"
       inkscape:path-effect="#path-effect423-35"
       inkscape:original-d="m 83.869629,233.5589 c 1.27949,-1.15992 3.52477,-1.89038 4.331807,0.35421 0.29403,0.81777 0.92277,4.49766 -0.758557,3.46889 -0.26621,-0.16288 -0.14686,-1.07372 -0.0998,-1.31915 0.360417,-1.88031 1.502947,-3.21145 3.044247,-3.55439 1.8058,-0.4018 4.83372,-1.21765 5.10036,1.99095 0.0355,0.4275 0.17076,1.29341 -0.11977,1.64894 -0.93357,1.14245 -2.18611,-1.02667 -1.07797,-2.41845 1.44158,-1.81056 4.51382,-4.01477 6.577584,-2.21081 0.8786,0.768 1.64522,3.7984 0.50903,4.60483 -0.46138,0.32748 -0.95126,-0.60432 -1.08794,-1.00158 -0.427914,-1.24369 0.61425,-2.55989 1.40734,-3.15132 0.51454,-0.3837 1.14214,-0.61394 1.73672,-0.70843 1.12041,-0.17807 5.04048,0.1616 5.04048,2.21081 0,0.54862 -0.50794,3.43936 -1.32749,2.68717 -0.51337,-0.47118 -0.18215,-1.68248 0.0798,-2.19859 1.05605,-2.08038 4.02848,-2.37222 5.4497,-0.85502" />
    <path
       style="fill:none;stroke:#28170b;stroke-width:0.139389"
       d="m 111.90111,266.53246 c -0.65043,-1.63401 -0.5012,-3.56536 0.39252,-5.08005 0.21703,-0.36783 0.47893,-0.7156 0.81605,-0.97781 0.33711,-0.2622 0.75577,-0.43423 1.1827,-0.42306 0.21347,0.006 0.4265,0.0571 0.61529,0.1569 0.1888,0.0998 0.35269,0.24836 0.46375,0.43075 0.11105,0.18239 0.16802,0.39856 0.15343,0.6116 -0.0146,0.21304 -0.10198,0.42168 -0.24929,0.57627 -0.14111,0.14809 -0.33213,0.24319 -0.5315,0.28898 -0.19936,0.0458 -0.40723,0.0445 -0.61023,0.0193 -0.74437,-0.0924 -1.42669,-0.50511 -1.93193,-1.05951 -0.50524,-0.55439 -0.84489,-1.24302 -1.07822,-1.95589 -0.36386,-1.11167 -0.47945,-2.32298 -0.19442,-3.45742 0.28504,-1.13444 0.99574,-2.18207 2.01639,-2.75345 0.21899,-0.1226 0.45414,-0.22409 0.70304,-0.25627 0.2489,-0.0322 0.51398,0.0104 0.71923,0.15482 0.13658,0.0961 0.24214,0.23451 0.30315,0.38997 0.061,0.15547 0.0778,0.32735 0.0529,0.49248 -0.0499,0.33026 -0.2674,0.62357 -0.55183,0.79867 -0.28444,0.1751 -0.62948,0.23802 -0.96247,0.2118 -0.33298,-0.0262 -0.65502,-0.13752 -0.95276,-0.28891 -0.61221,-0.31129 -1.13126,-0.79449 -1.51309,-1.36537 -0.38182,-0.57089 -0.62852,-1.22749 -0.74982,-1.9035 -0.24259,-1.35201 0.0137,-2.75343 0.48413,-4.04396 0.16562,-0.45431 0.3594,-0.90233 0.63384,-1.30046 0.27445,-0.39813 0.6347,-0.74636 1.07277,-0.9511 0.43807,-0.20474 0.95829,-0.25536 1.40931,-0.081 0.22551,0.0872 0.43063,0.22924 0.5855,0.41491 0.15487,0.18566 0.25839,0.41511 0.28723,0.65516 0.0355,0.29562 -0.0439,0.60114 -0.20673,0.85042 -0.16282,0.24928 -0.40615,0.44247 -0.68033,0.55855 -0.49383,0.20906 -1.07605,0.16324 -1.55932,-0.0692 -0.48327,-0.23242 -0.87066,-0.63844 -1.13526,-1.10487 -0.3305,-0.58258 -0.47672,-1.25048 -0.5774,-1.91266 -0.17299,-1.13785 -0.22227,-2.31425 0.067,-3.42821 0.28931,-1.11396 0.94956,-2.16527 1.94368,-2.74522 0.25004,-0.14587 0.52041,-0.26142 0.80515,-0.31359 0.28473,-0.0522 0.58487,-0.0388 0.85514,0.0649 0.27027,0.10369 0.50822,0.30174 0.63577,0.5616 0.0638,0.12993 0.0996,0.27392 0.10061,0.41865 0.001,0.14474 -0.0331,0.29001 -0.10154,0.41755 -0.0838,0.15627 -0.21799,0.28337 -0.37378,0.36811 -0.15579,0.0847 -0.33252,0.12807 -0.5097,0.13576 -0.35436,0.0154 -0.7016,-0.1088 -1.01447,-0.2759 -1.08096,-0.57732 -1.84304,-1.71367 -1.96688,-2.93287 -0.12385,-1.2192 0.39417,-2.48557 1.33697,-3.26846"
       id="path421-6-1"
       inkscape:path-effect="#path-effect423-3-6"
       inkscape:original-d="m 111.90111,266.53246 c -0.9766,-1.31608 -1.56287,-3.81586 0.39252,-5.08005 0.71241,-0.46056 3.90432,-1.72709 2.98193,0.37465 -0.14604,0.33277 -0.93063,0.32706 -1.14173,0.30825 -1.61735,-0.14415 -2.74463,-1.27628 -3.01015,-3.0154 -0.31109,-2.03757 -0.95553,-5.43341 1.82197,-6.21087 0.37006,-0.10359 1.12089,-0.38684 1.42227,-0.10145 0.96841,0.91707 -0.93068,2.68738 -2.11102,1.60401 -1.53551,-1.40933 -3.37858,-4.65412 -1.77878,-7.31283 0.68107,-1.13188 3.31459,-2.46372 3.98865,-1.26246 0.27377,0.48779 -0.54112,1.19236 -0.88706,1.40897 -1.08307,0.6781 -2.19943,-0.33969 -2.69458,-1.17405 -0.32125,-0.54131 -0.50763,-1.23627 -0.5774,-1.91266 -0.13148,-1.27461 0.24026,-5.87458 2.01073,-6.17343 0.47401,-0.08 2.96141,0.088 2.29513,1.14912 -0.41733,0.66465 -1.45727,0.45681 -1.89795,0.22797 -1.77631,-0.92251 -1.96913,-4.3303 -0.62991,-6.20133" />
    <path
       style="fill:none;stroke:#28170b;stroke-width:0.139389"
       d="m 113.4425,199.83395 c 0.65043,1.63401 0.5012,3.56536 -0.39252,5.08005 -0.21703,0.36783 -0.47893,0.7156 -0.81605,0.97781 -0.33711,0.2622 -0.75577,0.43423 -1.1827,0.42306 -0.21347,-0.006 -0.4265,-0.0571 -0.61529,-0.1569 -0.1888,-0.0998 -0.35269,-0.24836 -0.46375,-0.43075 -0.11105,-0.18239 -0.16802,-0.39856 -0.15343,-0.6116 0.0146,-0.21304 0.10198,-0.42168 0.24929,-0.57627 0.14111,-0.14809 0.33213,-0.24319 0.5315,-0.28898 0.19936,-0.0458 0.40723,-0.0445 0.61023,-0.0193 0.74437,0.0924 1.42669,0.50511 1.93193,1.05951 0.50524,0.55439 0.84489,1.24302 1.07822,1.95589 0.36386,1.11167 0.47945,2.32298 0.19442,3.45742 -0.28504,1.13444 -0.99574,2.18207 -2.01639,2.75345 -0.21899,0.1226 -0.45414,0.22409 -0.70304,0.25627 -0.2489,0.0322 -0.51398,-0.0104 -0.71923,-0.15482 -0.13658,-0.0961 -0.24214,-0.23451 -0.30315,-0.38997 -0.061,-0.15547 -0.0778,-0.32735 -0.0529,-0.49248 0.0499,-0.33026 0.2674,-0.62357 0.55183,-0.79867 0.28444,-0.1751 0.62948,-0.23802 0.96247,-0.2118 0.33298,0.0262 0.65502,0.13752 0.95276,0.28891 0.61221,0.31129 1.13126,0.79449 1.51309,1.36537 0.38182,0.57089 0.62852,1.22749 0.74982,1.9035 0.24259,1.35201 -0.0137,2.75343 -0.48413,4.04396 -0.16562,0.45431 -0.3594,0.90233 -0.63384,1.30046 -0.27445,0.39813 -0.6347,0.74636 -1.07277,0.9511 -0.43807,0.20474 -0.95829,0.25536 -1.40931,0.081 -0.22551,-0.0872 -0.43063,-0.22924 -0.5855,-0.41491 -0.15487,-0.18566 -0.25839,-0.41511 -0.28723,-0.65516 -0.0355,-0.29562 0.0439,-0.60114 0.20673,-0.85042 0.16282,-0.24928 0.40615,-0.44247 0.68033,-0.55855 0.49383,-0.20906 1.07605,-0.16324 1.55932,0.0692 0.48327,0.23242 0.87066,0.63844 1.13526,1.10487 0.3305,0.58258 0.47672,1.25048 0.5774,1.91266 0.17299,1.13785 0.22227,2.31425 -0.0671,3.42821 -0.28931,1.11396 -0.94956,2.16527 -1.94368,2.74522 -0.25004,0.14587 -0.52041,0.26142 -0.80515,0.31359 -0.28473,0.0522 -0.58487,0.0388 -0.85514,-0.0649 -0.27027,-0.10369 -0.50822,-0.30174 -0.63577,-0.5616 -0.0638,-0.12993 -0.0996,-0.27392 -0.10061,-0.41865 -0.001,-0.14474 0.0331,-0.29001 0.10154,-0.41755 0.0838,-0.15627 0.21799,-0.28337 0.37378,-0.36811 0.15579,-0.0847 0.33252,-0.12807 0.5097,-0.13576 0.35436,-0.0154 0.7016,0.1088 1.01447,0.2759 1.08096,0.57732 1.84304,1.71367 1.96688,2.93287 0.12385,1.2192 -0.39417,2.48557 -1.33697,3.26846"
       id="path421-6-1-62"
       inkscape:path-effect="#path-effect423-3-6-0"
       inkscape:original-d="m 113.4425,199.83395 c 0.9766,1.31608 1.56287,3.81586 -0.39252,5.08005 -0.71241,0.46056 -3.90432,1.72709 -2.98193,-0.37465 0.14604,-0.33277 0.93063,-0.32706 1.14173,-0.30825 1.61735,0.14415 2.74463,1.27628 3.01015,3.0154 0.31109,2.03757 0.95553,5.43341 -1.82197,6.21087 -0.37006,0.10359 -1.12089,0.38684 -1.42227,0.10145 -0.96841,-0.91707 0.93068,-2.68738 2.11102,-1.60401 1.53551,1.40933 3.37858,4.65412 1.77878,7.31283 -0.68107,1.13188 -3.31459,2.46372 -3.98865,1.26246 -0.27377,-0.48779 0.54112,-1.19236 0.88706,-1.40897 1.08307,-0.6781 2.19943,0.33969 2.69458,1.17405 0.32125,0.54131 0.50763,1.23627 0.5774,1.91266 0.13148,1.27461 -0.24026,5.87458 -2.01073,6.17343 -0.47401,0.08 -2.96141,-0.088 -2.29513,-1.14912 0.41733,-0.66465 1.45727,-0.45681 1.89795,-0.22797 1.77631,0.9225 1.96913,4.33029 0.62991,6.20133" />
    <path
       style="fill:none;stroke:#28170b;stroke-width:0.139389"
       d="m 145.7777,234.03072 c -1.64053,0.6338 -3.57027,0.46496 -5.07581,-0.4441 -0.3656,-0.22075 -0.7107,-0.48618 -0.96946,-0.82594 -0.25877,-0.33976 -0.42654,-0.76014 -0.41103,-1.18694 0.008,-0.21339 0.0614,-0.42589 0.16314,-0.61366 0.10169,-0.18777 0.25193,-0.35015 0.43543,-0.45935 0.18351,-0.10919 0.40025,-0.16396 0.61314,-0.14721 0.21288,0.0168 0.42061,0.10626 0.5737,0.25513 0.14665,0.14261 0.2398,0.33458 0.28357,0.5344 0.0438,0.19982 0.0403,0.40767 0.0131,0.6104 -0.1,0.74339 -0.51957,1.42149 -1.07907,1.92107 -0.5595,0.49958 -1.25155,0.83223 -1.96675,1.0583 -1.11531,0.35255 -2.32773,0.45583 -3.45921,0.15928 -1.13149,-0.29655 -2.17184,-1.01785 -2.73283,-2.04425 -0.12037,-0.22023 -0.21946,-0.45639 -0.24912,-0.7056 -0.0297,-0.24922 0.0156,-0.51386 0.16212,-0.71763 0.0975,-0.1356 0.23696,-0.23974 0.39303,-0.29917 0.15608,-0.0594 0.32812,-0.0745 0.49299,-0.0479 0.32974,0.0533 0.62082,0.27372 0.79303,0.55992 0.1722,0.2862 0.23161,0.63187 0.20201,0.96457 -0.0296,0.3327 -0.14417,0.6536 -0.29858,0.94978 -0.31749,0.60901 -0.80594,1.12313 -1.38068,1.49914 -0.57473,0.376 -1.23381,0.61602 -1.91101,0.73044 -1.35441,0.22885 -2.75315,-0.0416 -4.03883,-0.52518 -0.4526,-0.17022 -0.89863,-0.36854 -1.29395,-0.64702 -0.39532,-0.27847 -0.73987,-0.64224 -0.94015,-1.08237 -0.20029,-0.44013 -0.24561,-0.96083 -0.0667,-1.41005 0.0895,-0.22461 0.2336,-0.42828 0.42083,-0.58126 0.18722,-0.15298 0.41771,-0.25416 0.65804,-0.28056 0.29596,-0.0325 0.60067,0.05 0.84828,0.21535 0.24761,0.16534 0.43832,0.41062 0.55161,0.68597 0.20404,0.49592 0.15231,1.07765 -0.085,1.55854 -0.23732,0.48089 -0.64726,0.86413 -1.11635,1.12398 -0.5859,0.32456 -1.25526,0.464 -1.91843,0.55794 -1.13954,0.16143 -2.31638,0.19875 -3.42735,-0.10187 -1.11096,-0.30061 -2.15551,-0.9715 -2.72533,-1.97146 -0.14332,-0.25151 -0.25612,-0.52304 -0.3054,-0.80829 -0.0493,-0.28525 -0.0328,-0.58523 0.0736,-0.85444 0.10643,-0.2692 0.30689,-0.50513 0.56803,-0.63003 0.13057,-0.0625 0.27492,-0.0968 0.41966,-0.0964 0.14473,4.5e-4 0.28965,0.036 0.41649,0.10577 0.15541,0.0854 0.28114,0.22086 0.3643,0.3775 0.0832,0.15664 0.12469,0.3338 0.13057,0.51105 0.0118,0.35451 -0.11592,0.70046 -0.28619,1.01162 -0.58827,1.07504 -1.7323,1.82554 -2.9527,1.93699 -1.22039,0.11145 -2.48144,-0.41941 -3.25471,-1.37011"
       id="path421-6-1-6"
       inkscape:path-effect="#path-effect423-3-6-3"
       inkscape:original-d="m 145.7777,234.03072 c -1.32594,0.96318 -3.83154,1.52403 -5.07581,-0.4441 -0.4533,-0.71705 -1.68734,-3.92166 0.40492,-2.97797 0.33127,0.14941 0.3176,0.9339 0.29664,1.1448 -0.16057,1.6158 -1.30409,2.73152 -3.04582,2.97937 -2.04062,0.29037 -5.44283,0.90029 -6.19204,-1.88497 -0.0998,-0.37109 -0.37544,-1.12476 -0.087,-1.42323 0.92686,-0.95904 2.67779,0.95793 1.58248,2.12721 -1.42485,1.52111 -4.68819,3.33113 -7.33052,1.7044 -1.1249,-0.69253 -2.42992,-3.33944 -1.22188,-4.00126 0.49055,-0.2688 1.18681,0.5532 1.39989,0.90132 0.66706,1.08991 -0.36201,2.19587 -1.20136,2.68252 -0.54454,0.31573 -1.24136,0.49504 -1.91843,0.55794 -1.27587,0.11853 -5.87183,-0.29992 -6.15268,-2.07333 -0.0752,-0.4748 0.11807,-2.96037 1.17237,-2.28334 0.66038,0.42406 0.44199,1.46183 0.20868,1.90017 -0.9405,1.76684 -4.35008,1.92504 -6.20741,0.56688" />
    <ellipse
       style="fill:#ff6600;stroke:none;stroke-width:0.139389"
       id="path721-7"
       cx="112.66898"
       cy="233.20552"
       rx="0.58888561"
       ry="0.73897129" />
    <text
       xml:space="preserve"
       style="font-size:3.175px;fill:#ff6600;stroke:#28170b;stroke-width:0.3"
       x="100.0481"
       y="227.46785"
       id="text881-0"><tspan
         sodipodi:role="line"
         id="tspan879-9"
         style="stroke-width:0.3;stroke:#28170b"
         x="100.0481"
         y="227.46785">$g^2$</tspan></text>
    <path
       style="fill:none;stroke:#28170b;stroke-width:0.3;marker-mid:url(#marker2413)"
       d="M 190.09788,232.43641 181.0014,216.68085 172.68274,202.2725"
       id="path2381" />
    <path
       style="fill:none;stroke:#28170b;stroke-width:0.3;marker-mid:url(#Arrow3)"
       d="m 172.59728,262.54472 8.83748,-14.73335 8.66312,-15.37496"
       id="path2383" />
    <ellipse
       style="fill:#ff6600;stroke:none;stroke-width:0.139389"
       id="path721-0"
       cx="-190.0529"
       cy="232.36278"
       rx="0.58888561"
       ry="0.73897129"
       transform="scale(-1,1)" />
  </g>
</svg>
