<?xml version="1.0" encoding="UTF-8" standalone="no"?>
<!-- Created with Inkscape (http://www.inkscape.org/) -->

<svg
   width="240mm"
   height="120mm"
   viewBox="0 0 240 120"
   version="1.1"
   id="svg8"
   inkscape:version="1.2.1 (9c6d41e410, 2022-07-14, custom)"
   sodipodi:docname="diagramme.svg"
   xmlns:inkscape="http://www.inkscape.org/namespaces/inkscape"
   xmlns:sodipodi="http://sodipodi.sourceforge.net/DTD/sodipodi-0.dtd"
   xmlns="http://www.w3.org/2000/svg"
   xmlns:svg="http://www.w3.org/2000/svg"
   xmlns:rdf="http://www.w3.org/1999/02/22-rdf-syntax-ns#"
   xmlns:cc="http://creativecommons.org/ns#"
   xmlns:dc="http://purl.org/dc/elements/1.1/">
  <defs
     id="defs2">
    <inkscape:path-effect
       effect="bspline"
       id="path-effect1505"
       is_visible="true"
       lpeversion="1"
       weight="33.333333"
       steps="2"
       helper_size="0"
       apply_no_weight="true"
       apply_with_weight="true"
       only_selected="false" />
    <inkscape:path-effect
       effect="bspline"
       id="path-effect1495"
       is_visible="true"
       lpeversion="1"
       weight="33.333333"
       steps="2"
       helper_size="0"
       apply_no_weight="true"
       apply_with_weight="true"
       only_selected="false" />
    <inkscape:path-effect
       effect="bspline"
       id="path-effect1453"
       is_visible="true"
       lpeversion="1"
       weight="33.333333"
       steps="2"
       helper_size="0"
       apply_no_weight="true"
       apply_with_weight="true"
       only_selected="false" />
    <inkscape:path-effect
       effect="bspline"
       id="path-effect1411"
       is_visible="true"
       lpeversion="1"
       weight="33.333333"
       steps="2"
       helper_size="0"
       apply_no_weight="true"
       apply_with_weight="true"
       only_selected="false" />
    <inkscape:path-effect
       effect="bspline"
       id="path-effect1401"
       is_visible="true"
       lpeversion="1"
       weight="33.333333"
       steps="2"
       helper_size="0"
       apply_no_weight="true"
       apply_with_weight="true"
       only_selected="false" />
    <inkscape:path-effect
       effect="bspline"
       id="path-effect1391"
       is_visible="true"
       lpeversion="1"
       weight="33.333333"
       steps="2"
       helper_size="0"
       apply_no_weight="true"
       apply_with_weight="true"
       only_selected="false" />
    <inkscape:path-effect
       effect="bspline"
       id="path-effect1381"
       is_visible="true"
       lpeversion="1"
       weight="33.333333"
       steps="2"
       helper_size="0"
       apply_no_weight="true"
       apply_with_weight="true"
       only_selected="false" />
    <marker
       style="overflow:visible"
       id="Arrow3"
       refX="0"
       refY="0"
       orient="auto-start-reverse"
       inkscape:stockid="Arrow3"
       markerWidth="4.2071066"
       markerHeight="7"
       viewBox="0 0 4.2071068 7"
       inkscape:isstock="true"
       inkscape:collect="always"
       preserveAspectRatio="xMidYMid">
      <path
         style="fill:none;stroke:context-stroke;stroke-width:1;stroke-linecap:round"
         d="M 3,-3 0,0 3,3"
         id="arrow3"
         transform="rotate(180,0.125,0)"
         sodipodi:nodetypes="ccc" />
    </marker>
  </defs>
  <sodipodi:namedview
     id="base"
     pagecolor="#ffffff"
     bordercolor="#666666"
     borderopacity="1.0"
     inkscape:pageopacity="0.0"
     inkscape:pageshadow="2"
     inkscape:zoom="1.406257"
     inkscape:cx="457.59771"
     inkscape:cy="260.62092"
     inkscape:document-units="mm"
     inkscape:current-layer="layer1"
     showgrid="false"
     showborder="true"
     width="200mm"
     showguides="true"
     inkscape:guide-bbox="true"
     inkscape:window-width="1920"
     inkscape:window-height="1200"
     inkscape:window-x="0"
     inkscape:window-y="0"
     inkscape:window-maximized="1"
     inkscape:showpageshadow="2"
     inkscape:pagecheckerboard="0"
     inkscape:deskcolor="#d1d1d1">
    <inkscape:grid
       type="xygrid"
       id="grid815"
       units="mm"
       spacingx="10"
       spacingy="10"
       empspacing="4"
       dotted="false" />
  </sodipodi:namedview>
  <metadata
     id="metadata5">
    <rdf:RDF>
      <cc:Work
         rdf:about="">
        <dc:format>image/svg+xml</dc:format>
        <dc:type
           rdf:resource="http://purl.org/dc/dcmitype/StillImage" />
        <dc:title />
      </cc:Work>
    </rdf:RDF>
  </metadata>
  <g
     inkscape:label="Layer 1"
     inkscape:groupmode="layer"
     id="layer1"
     transform="translate(0,-177)">
    <path
       style="fill:none;stroke:#000000;stroke-width:0.186;marker-mid:url(#Arrow3);stroke-linejoin:miter"
       d="M 38.51593,292.75443 70.731895,236.95474 41.362582,186.08559"
       id="path789" />
    <path
       style="fill:none;stroke:#000000;stroke-width:0.186;marker-mid:url(#Arrow3);stroke-linejoin:miter"
       d="m 70.731895,236.95474 h 71.967165 l 28.29199,-49.00317"
       id="path791" />
    <path
       style="fill:none;stroke:#000000;stroke-width:0.20652;marker-mid:url(#Arrow3);stroke-linejoin:miter"
       d="m 142.70589,236.95857 28.28014,55.78901"
       id="path793" />
    <text
       xml:space="preserve"
       style="font-size:3.175px;fill:none;stroke:#000000;stroke-width:0.186"
       x="38.435387"
       y="267.28"
       id="text1072"><tspan
         sodipodi:role="line"
         id="tspan1070"
         style="stroke-width:0.186"
         x="38.435387"
         y="267.28">$p_1$</tspan></text>
    <text
       xml:space="preserve"
       style="font-size:3.175px;fill:none;stroke:#000000;stroke-width:0.186"
       x="58.869888"
       y="204.91541"
       id="text1076"><tspan
         sodipodi:role="line"
         id="tspan1074"
         style="stroke-width:0.186"
         x="58.869888"
         y="204.91541">$p_3$</tspan></text>
    <path
       style="fill:none;stroke:#000000;stroke-width:0.186;stroke-linejoin:miter"
       d="m 56.047237,211.52016 c -0.123263,-0.32591 -0.247733,-0.65501 -0.247733,-0.65501 0,0 0.12447,0.3291 0.139565,0.85936 0.01509,0.53026 -0.07769,1.2626 -0.103856,1.73608 -0.02616,0.47348 0.01344,0.68735 0.06099,0.93687 0.04754,0.24952 0.102994,0.53468 0.138622,0.72083 0.03563,0.18615 0.05147,0.27326 0.055,0.34415 0.0035,0.0709 -0.0044,0.12634 -0.0082,0.1701 -0.0038,0.0438 -0.0038,0.0755 -0.0038,0.11906 0,0.0436 0,0.099 0,0.14654 0,0.0475 0,0.0872 -0.0041,0.15043 -0.0041,0.0632 -0.01199,0.15034 -0.02742,0.20043 -0.01543,0.0501 -0.03918,0.0659 -0.06325,0.0859 -0.02407,0.02 -0.04786,0.0438 -0.07583,0.10799 -0.02798,0.0642 -0.05966,0.16718 -0.07939,0.24268 -0.01973,0.0755 -0.02764,0.123 -0.03565,0.15837 -0.008,0.0354 -0.01593,0.0591 -0.02377,0.0951 -0.0078,0.0359 -0.01575,0.0834 -0.03156,0.12217 -0.01581,0.0387 -0.03957,0.0704 -0.05131,0.0993 -0.01173,0.0288 -0.01173,0.0526 -0.01173,0.0764 0,0.0238 0,0.0476 -0.02615,0.0506 -0.02615,0.003 -0.08162,-0.0128 -0.12916,-0.0248 -0.04754,-0.012 -0.0872,-0.02 -0.187125,-0.0242 -0.09993,-0.004 -0.259762,-0.004 -0.422245,-0.004"
       id="path1379"
       inkscape:path-effect="#path-effect1381"
       inkscape:original-d="m 54.909171,217.23425 c 0.162483,0.003 0.322318,0.003 0.479509,0 0.04225,0.0106 0.08186,0.0188 0.118822,0.0238 0.0581,0.0184 0.113551,0.0343 0.166351,0.0475 0.0026,-0.0211 0.0026,-0.0449 0,-0.0713 0.0026,-0.0211 0.0026,-0.0449 0,-0.0713 0.02641,-0.0291 0.05018,-0.0608 0.07129,-0.0951 0.01056,-0.0449 0.01846,-0.0924 0.02376,-0.14258 0.01056,-0.0211 0.01846,-0.0449 0.02376,-0.0713 0.01056,-0.0449 0.01846,-0.0924 0.02376,-0.14258 0.03433,-0.10033 0.06601,-0.20331 0.09505,-0.30893 0.02641,-0.0211 0.05019,-0.0449 0.0713,-0.0713 0.02641,-0.0132 0.05018,-0.029 0.07129,-0.0475 0.01056,-0.0845 0.01846,-0.1716 0.02376,-0.2614 0.0026,-0.0369 0.0026,-0.0766 0,-0.11882 0.0026,-0.0528 0.0026,-0.10824 0,-0.16634 0.0026,-0.0291 0.0026,-0.0608 0,-0.0951 0.01056,-0.0528 0.01846,-0.10825 0.02376,-0.16635 -0.0132,-0.0845 -0.02904,-0.17159 -0.04753,-0.26139 -0.05281,-0.28252 -0.108252,-0.56768 -0.166352,-0.85549 -0.03696,-0.21122 -0.07657,-0.42509 -0.118821,-0.64161 0.09543,-0.72968 0.188217,-1.46202 0.278357,-2.197 -0.121825,-0.32645 -0.246295,-0.65555 -0.373412,-0.9873 0.127117,0.33175 0.251587,0.66085 0.373412,0.9873 0.4406,-0.0888 0.878554,-0.18029 1.313862,-0.2744 0.271974,-0.005 0.541303,-0.0132 0.807985,-0.0238 0.406641,-0.0132 0.810636,-0.029 1.211985,-0.0475 0.248213,0.003 0.49378,0.003 0.736701,0 0.327425,0.003 0.652204,0.003 0.974337,0 0.145232,0.003 0.287818,0.003 0.427758,0 0.248211,-0.005 0.493776,-0.0132 0.736696,-0.0238 0.105625,-0.0211 0.208604,-0.0449 0.308937,-0.0713 0.0581,-0.029 0.113547,-0.0607 0.166351,-0.095 0.186939,0.0977 0.371231,0.19275 0.552878,0.28516" />
    <path
       style="fill:none;stroke:#000000;stroke-width:0.186;stroke-linejoin:miter"
       d="m 59.118264,256.80032 c -0.497312,0.21332 -0.995898,0.42719 -1.3004,0.55 -0.304502,0.12281 -0.415403,0.15451 -0.625451,0.22579 -0.210048,0.0713 -0.518982,0.18218 -0.911161,0.33268 -0.392178,0.1505 -0.867467,0.34061 -1.192828,0.5111 -0.325361,0.17049 -0.499632,0.32099 -0.606856,0.4243 -0.107225,0.10332 -0.14683,0.15876 -0.176702,0.18282 -0.02987,0.024 -0.05372,0.0161 -0.08701,0.0314 -0.03329,0.0153 -0.0729,0.0549 0.04259,0.0747 0.115493,0.0198 0.383415,0.0198 0.648695,0.0198"
       id="path1389"
       inkscape:path-effect="#path-effect1391"
       inkscape:original-d="m 54.909138,259.15291 c -0.26528,0.003 -0.533202,0.003 -0.80377,0 0.04225,-0.0369 0.08186,-0.0765 0.118821,-0.11881 0.02642,0.0106 0.05019,0.0188 0.0713,0.0238 0.04225,-0.0528 0.08186,-0.10824 0.118822,-0.16634 0.176919,-0.14786 0.351192,-0.29836 0.522819,-0.45151 0.477933,-0.18746 0.95322,-0.37757 1.425861,-0.57032 0.311581,-0.10826 0.620519,-0.21915 0.926811,-0.3327 0.113546,-0.0291 0.224447,-0.0608 0.332703,-0.0951 0.501232,-0.21122 0.999818,-0.42509 1.495759,-0.64161 0.3675,0.5096 0.732353,1.01655 1.094561,1.52086 0.08186,0.24028 0.161074,0.47792 0.237642,0.71291 0.145234,0.3987 0.287822,0.79476 0.427764,1.18817 0.129388,0.35118 0.256131,0.69971 0.380227,1.04559 0.02641,0.0264 0.05018,0.0502 0.0713,0.0713 0.02641,0.0264 0.05017,0.0502 0.07129,0.0713" />
    <path
       style="fill:none;stroke:#000000;stroke-width:0.186;stroke-linejoin:miter"
       d="m 106.71548,236.95474 c -0.10088,-0.46324 -0.20244,-0.92956 -0.29621,-1.23794 -0.0938,-0.30839 -0.18091,-0.45889 -0.27599,-0.62523 -0.0951,-0.16635 -0.19805,-0.34853 -0.40793,-0.70499 -0.20988,-0.35647 -0.52674,-0.88719 -0.8037,-1.29131 -0.27697,-0.40411 -0.51462,-0.68135 -0.65721,-0.8477 -0.14258,-0.16634 -0.19011,-0.22179 -0.22543,-0.25783 -0.0353,-0.036 -0.0591,-0.0519 -0.0765,0.0157 -0.0174,0.0676 -0.0254,0.21806 -0.0332,0.36607"
       id="path1399"
       inkscape:path-effect="#path-effect1401"
       inkscape:original-d="m 106.71548,236.95474 c -0.0989,-0.46367 -0.20046,-0.92999 -0.30466,-1.39895 -0.0845,-0.14786 -0.17163,-0.29836 -0.26141,-0.45151 -0.10034,-0.17955 -0.20331,-0.36173 -0.30894,-0.54657 -0.31421,-0.52807 -0.63107,-1.05879 -0.95057,-1.59215 -0.235,-0.27459 -0.47265,-0.55183 -0.71294,-0.83171 -0.0449,-0.0528 -0.0924,-0.10826 -0.14258,-0.16635 -0.0211,-0.0132 -0.0449,-0.029 -0.0713,-0.0475 -0.005,0.15315 -0.0132,0.30364 -0.0238,0.4515" />
    <path
       style="fill:none;stroke:#000000;stroke-width:0.186;stroke-linejoin:miter"
       d="m 106.71548,236.95474 c 0.0581,0.15472 0.11494,0.30625 0.10293,0.44816 -0.012,0.14192 -0.0912,0.27656 -0.24962,0.52997 -0.15841,0.25341 -0.39606,0.62571 -0.81181,1.15619 -0.41575,0.53048 -1.00985,1.21962 -1.35023,1.59961 -0.34039,0.37998 -0.42754,0.45129 -0.50673,0.51464 -0.0792,0.0634 -0.15045,0.11879 -0.19816,0.15853 -0.0477,0.0397 -0.0715,0.0635 -0.0939,0.0754 -0.0224,0.0119 -0.0462,0.0119 -0.006,0.0767 0.0398,0.0648 0.14351,0.19154 0.24485,0.3154"
       id="path1409"
       inkscape:path-effect="#path-effect1411"
       inkscape:original-d="m 106.71548,236.95474 c 0.0595,0.15418 0.11639,0.30571 0.17062,0.45459 -0.0766,0.13731 -0.15578,0.27197 -0.23764,0.40398 -0.235,0.37494 -0.47265,0.74724 -0.71294,1.11689 -0.59146,0.69178 -1.18556,1.38092 -1.78232,2.06741 -0.0845,0.0739 -0.17163,0.14523 -0.26141,0.21387 -0.0687,0.0581 -0.13994,0.11355 -0.21388,0.16635 -0.0211,0.0264 -0.0449,0.0502 -0.0713,0.0713 -0.0211,0.003 -0.0449,0.003 -0.0713,0 0.10634,0.12938 0.21003,0.25612 0.31108,0.38021" />
    <path
       style="fill:none;stroke:#000000;stroke-width:0.186;stroke-linejoin:miter"
       d="m 156.84505,212.45316 c -0.51467,0.0646 -1.03164,0.12947 -1.39709,0.17774 -0.36544,0.0483 -0.57932,0.08 -1.03095,0.16707 -0.45162,0.0871 -1.14078,0.22967 -1.57239,0.3129 -0.4316,0.0832 -0.60589,0.107 -0.74086,0.13462 -0.13498,0.0276 -0.23004,0.0593 -0.33339,0.10687 -0.10335,0.0476 -0.21426,0.11093 -0.27826,0.15505 -0.064,0.0441 -0.0798,0.0679 -0.0991,0.0872 -0.0193,0.0193 -0.0431,0.0351 -0.0668,0.051 -0.0238,0.0158 -0.0475,0.0317 -0.0708,0.0435 -0.0233,0.0118 -0.0471,0.0198 -0.0713,0.0317 -0.0243,0.0119 -0.048,0.0278 -0.0708,0.0359 -0.0227,0.008 -0.0465,0.008 -0.0703,0.008 -0.0238,0 -0.0476,0 -0.0729,0.0202 -0.0253,0.0202 -0.0491,0.0599 -0.0648,0.11763 -0.0157,0.0578 -0.0237,0.13223 -0.0314,0.20433"
       id="path1451"
       inkscape:path-effect="#path-effect1453"
       inkscape:original-d="m 150.87395,214.10688 c 0.0106,-0.0718 0.0188,-0.14621 0.0238,-0.22331 0.0264,-0.0369 0.0502,-0.0766 0.0713,-0.11882 0.0264,0.003 0.0502,0.003 0.0713,0 0.0264,0.003 0.0502,0.003 0.0713,0 0.0264,-0.0132 0.0502,-0.029 0.0713,-0.0475 0.0264,-0.005 0.0502,-0.0133 0.0713,-0.0238 0.0264,-0.0132 0.0502,-0.029 0.0713,-0.0475 0.0264,-0.0132 0.0502,-0.029 0.0713,-0.0475 0.0185,-0.0211 0.0343,-0.0449 0.0475,-0.0713 0.11355,-0.0607 0.22445,-0.12411 0.33271,-0.19011 0.0977,-0.0291 0.19277,-0.0608 0.28517,-0.0951 0.17691,-0.0211 0.35119,-0.0449 0.52281,-0.0713 0.69182,-0.13994 1.38098,-0.28251 2.06751,-0.42774 0.21652,-0.0291 0.4304,-0.0608 0.64163,-0.0951 0.5196,-0.0622 1.03656,-0.12714 1.55087,-0.19464 0.23823,0.59825 0.47381,1.19384 0.70675,1.7868 0.0977,0.21651 0.19276,0.43039 0.28517,0.64161 0.16108,0.43039 0.31951,0.85813 0.4753,1.28323 0.0343,0.0581 0.066,0.11354 0.0951,0.16634 0.0502,0.0422 0.0977,0.0819 0.14258,0.11882 0.0581,0.10562 0.11355,0.2086 0.16635,0.30892 0.0343,0.0502 0.066,0.0977 0.0951,0.14258 0.0264,0.0185 0.0502,0.0343 0.0713,0.0475 0.003,0.0898 0.003,0.1769 0,0.26139 0.003,0.0596 0.003,0.11664 0,0.17099" />
    <path
       style="fill:none;stroke:#000000;stroke-width:0.186;stroke-linejoin:miter"
       d="m 158.97581,269.72764 c 0.98553,0 1.96841,0 2.72939,0.0558 0.76098,0.0558 1.29964,0.16666 1.71948,0.2538 0.41984,0.0872 0.72085,0.15051 0.93076,0.19407 0.20991,0.0435 0.32875,0.0673 0.42779,0.0871 0.099,0.0198 0.1782,0.0356 0.26138,0.0514 0.0832,0.0158 0.17027,0.0316 0.22947,0.0393 0.0592,0.008 0.0909,0.008 0.11866,0.008 0.0277,0 0.0515,0 0.0621,0.0132 0.0106,0.0132 0.0106,0.037 0.0238,0.0607 0.0132,0.0238 0.037,0.0476 0.0768,0.079 0.0398,0.0314 0.0953,0.0711 0.13494,0.0943 0.0397,0.0232 0.0635,0.0312 0.1028,0.0346 0.0393,0.003 0.0948,0.003 0.13728,0.1 0.0425,0.0966 0.0741,0.28667 0.10532,0.47377"
       id="path1493"
       inkscape:path-effect="#path-effect1495"
       inkscape:original-d="m 158.97581,269.72764 c 0.98553,0.003 1.96841,0.003 2.94865,0 0.54131,0.11354 1.07996,0.22444 1.61598,0.33269 0.30366,0.066 0.60467,0.12938 0.90304,0.19011 0.12147,0.0264 0.2403,0.0502 0.35648,0.0713 0.0819,0.0185 0.16107,0.0343 0.23764,0.0475 0.0898,0.0185 0.1769,0.0343 0.26139,0.0475 0.0343,0.003 0.066,0.003 0.0951,0 0.0264,0.003 0.0502,0.003 0.0713,0 0.003,0.0264 0.003,0.0502 0,0.0713 0.0264,0.0264 0.0502,0.0502 0.0713,0.0713 0.0581,0.0422 0.11355,0.0819 0.16635,0.11882 0.0264,0.0106 0.0502,0.0185 0.0713,0.0238 0.0581,0.003 0.11355,0.003 0.16636,0 0.0343,0.19275 0.066,0.38286 0.095,0.57032" />
    <path
       style="fill:none;stroke:#000000;stroke-width:0.186;stroke-linejoin:miter"
       d="m 158.97581,269.72764 c 0.009,0.69182 0.0171,1.38096 0.0334,1.83654 0.0163,0.45557 0.0401,0.67736 0.0678,0.91502 0.0278,0.23765 0.0595,0.49112 0.10706,0.808 0.0476,0.31688 0.11098,0.69711 0.15039,1.07324 0.0394,0.37613 0.0552,0.74842 0.0591,1.00968 0.004,0.26127 -0.004,0.41178 -0.024,0.56999 -0.0199,0.1582 -0.0516,0.32454 -0.0794,0.43908 -0.0278,0.11454 -0.0516,0.17794 -0.0549,0.24606 -0.003,0.0681 0.0125,0.13945 -0.0264,0.17356 -0.0389,0.0341 -0.13464,0.0341 -0.23296,0.0341"
       id="path1503"
       inkscape:path-effect="#path-effect1505"
       inkscape:original-d="m 158.97581,269.72764 c 0.0112,0.69179 0.0197,1.38093 0.0256,2.06742 0.0264,0.22444 0.0502,0.44623 0.0713,0.66538 0.0343,0.25613 0.066,0.5096 0.0951,0.76043 0.066,0.38286 0.12939,0.76308 0.19012,1.14065 0.0185,0.37494 0.0343,0.74723 0.0475,1.11688 -0.005,0.15315 -0.0132,0.30365 -0.0238,0.4515 -0.029,0.16899 -0.0607,0.33533 -0.095,0.49903 -0.0211,0.066 -0.0449,0.12939 -0.0713,0.19011 0.0185,0.0739 0.0343,0.14523 0.0475,0.21387 -0.093,0.003 -0.18871,0.003 -0.28703,0" />
    <text
       xml:space="preserve"
       style="font-size:3.175px;fill:none;stroke:#000000;stroke-width:0.186;stroke-linejoin:miter"
       x="102.39464"
       y="226.07416"
       id="text1515"><tspan
         sodipodi:role="line"
         id="tspan1513"
         style="stroke-width:0.186"
         x="102.39464"
         y="226.07416">$q$</tspan></text>
    <text
       xml:space="preserve"
       style="font-size:3.175px;fill:none;stroke:#000000;stroke-width:0.186;stroke-linejoin:miter"
       x="151.7533"
       y="205.7704"
       id="text1519"><tspan
         sodipodi:role="line"
         id="tspan1517"
         style="stroke-width:0.186"
         x="151.7533"
         y="205.7704">$p_4$</tspan></text>
    <text
       xml:space="preserve"
       style="font-size:3.175px;fill:none;stroke:#000000;stroke-width:0.186;stroke-linejoin:miter"
       x="163.75432"
       y="266.45609"
       id="text1523"><tspan
         sodipodi:role="line"
         id="tspan1521"
         style="stroke-width:0.186"
         x="163.75432"
         y="266.45609">$p_5$</tspan></text>
    <text
       xml:space="preserve"
       style="font-size:3.175px;fill:none;stroke:#000000;stroke-width:0.186;stroke-linejoin:miter"
       x="151.85713"
       y="237.78673"
       id="text1527"><tspan
         sodipodi:role="line"
         id="tspan1525"
         style="stroke-width:0.186"
         x="151.85713"
         y="237.78673">$-ig(2\pi)^4 \delta(p_2 + q -p_4)$</tspan></text>
    <text
       xml:space="preserve"
       style="font-size:3.175px;fill:none;stroke:#000000;stroke-width:0.186;stroke-linejoin:miter"
       x="18.486177"
       y="237.78673"
       id="text1527-3"><tspan
         sodipodi:role="line"
         id="tspan1525-6"
         style="stroke-width:0.186"
         x="18.486177"
         y="237.78673">$-ig(2\pi)^4 \delta(p_1 - q -p_3)$</tspan></text>
    <text
       xml:space="preserve"
       style="font-size:3.175px;fill:none;stroke:#000000;stroke-width:0.186;stroke-linejoin:miter"
       x="98.446518"
       y="249.89581"
       id="text1644"><tspan
         sodipodi:role="line"
         id="tspan1642"
         style="stroke-width:0.186"
         x="98.446518"
         y="249.89581">$\frac{-1}{q^2-m^2}$</tspan></text>
  </g>
</svg>
