<?xml version="1.0" encoding="UTF-8" standalone="no"?>
<!-- Created with Inkscape (http://www.inkscape.org/) -->

<svg
   width="240mm"
   height="120mm"
   viewBox="0 0 240 120"
   version="1.1"
   id="svg8"
   inkscape:version="1.2.1 (9c6d41e410, 2022-07-14, custom)"
   sodipodi:docname="diffusion-par-un-potentiel-fixe.svg"
   xmlns:inkscape="http://www.inkscape.org/namespaces/inkscape"
   xmlns:sodipodi="http://sodipodi.sourceforge.net/DTD/sodipodi-0.dtd"
   xmlns="http://www.w3.org/2000/svg"
   xmlns:svg="http://www.w3.org/2000/svg"
   xmlns:rdf="http://www.w3.org/1999/02/22-rdf-syntax-ns#"
   xmlns:cc="http://creativecommons.org/ns#"
   xmlns:dc="http://purl.org/dc/elements/1.1/">
  <defs
     id="defs2">
    <marker
       style="overflow:visible"
       id="Arrow1"
       refX="0"
       refY="0"
       orient="auto-start-reverse"
       inkscape:stockid="Arrow1"
       markerWidth="4.0606604"
       markerHeight="6.7071066"
       viewBox="0 0 4.0606602 6.7071068"
       inkscape:isstock="true"
       inkscape:collect="always"
       preserveAspectRatio="xMidYMid">
      <path
         style="fill:none;stroke:context-stroke;stroke-width:1;stroke-linecap:butt"
         d="M 3,-3 0,0 3,3"
         id="path5057"
         transform="rotate(180,0.125,0)"
         sodipodi:nodetypes="ccc" />
    </marker>
    <marker
       style="overflow:visible"
       id="Arrow3"
       refX="0"
       refY="0"
       orient="auto-start-reverse"
       inkscape:stockid="Arrow3"
       markerWidth="4.2071066"
       markerHeight="7"
       viewBox="0 0 4.2071068 7"
       inkscape:isstock="true"
       inkscape:collect="always"
       preserveAspectRatio="xMidYMid">
      <path
         style="fill:none;stroke:context-stroke;stroke-width:1;stroke-linecap:round"
         d="M 3,-3 0,0 3,3"
         id="arrow3"
         transform="rotate(180,0.125,0)"
         sodipodi:nodetypes="ccc" />
    </marker>
    <inkscape:path-effect
       effect="bspline"
       id="path-effect918"
       is_visible="true"
       lpeversion="1"
       weight="33.333333"
       steps="2"
       helper_size="0"
       apply_no_weight="true"
       apply_with_weight="true"
       only_selected="false" />
    <inkscape:path-effect
       effect="bspline"
       id="path-effect914"
       is_visible="true"
       lpeversion="1"
       weight="33.333333"
       steps="2"
       helper_size="0"
       apply_no_weight="true"
       apply_with_weight="true"
       only_selected="false" />
    <inkscape:path-effect
       effect="bspline"
       id="path-effect750"
       is_visible="true"
       lpeversion="1"
       weight="33.333333"
       steps="2"
       helper_size="0"
       apply_no_weight="true"
       apply_with_weight="true"
       only_selected="false" />
  </defs>
  <sodipodi:namedview
     id="base"
     pagecolor="#ffffff"
     bordercolor="#666666"
     borderopacity="1.0"
     inkscape:pageopacity="0.0"
     inkscape:pageshadow="2"
     inkscape:zoom="1.406257"
     inkscape:cx="450.48664"
     inkscape:cy="208.71007"
     inkscape:document-units="mm"
     inkscape:current-layer="layer1"
     showgrid="false"
     showborder="true"
     width="200mm"
     showguides="true"
     inkscape:guide-bbox="true"
     inkscape:window-width="1920"
     inkscape:window-height="1200"
     inkscape:window-x="0"
     inkscape:window-y="0"
     inkscape:window-maximized="1"
     inkscape:showpageshadow="2"
     inkscape:pagecheckerboard="0"
     inkscape:deskcolor="#d1d1d1">
    <inkscape:grid
       type="xygrid"
       id="grid815"
       units="mm"
       spacingx="10"
       spacingy="10"
       empspacing="4"
       dotted="false" />
  </sodipodi:namedview>
  <metadata
     id="metadata5">
    <rdf:RDF>
      <cc:Work
         rdf:about="">
        <dc:format>image/svg+xml</dc:format>
        <dc:type
           rdf:resource="http://purl.org/dc/dcmitype/StillImage" />
        <dc:title />
      </cc:Work>
    </rdf:RDF>
  </metadata>
  <g
     inkscape:label="Layer 1"
     inkscape:groupmode="layer"
     id="layer1"
     transform="translate(0,-177)">
    <path
       style="fill:none;stroke-width:0.361;stroke-dasharray:none;stroke:#000000;stroke-dashoffset:0"
       d="m 102.27146,226.89135 c 1.18795,-3.43701 3.56439,-10.31257 6.3978,-13.87796 2.8334,-3.56538 6.12081,-3.81886 9.61842,-3.65615 3.4976,0.16271 7.20485,0.74095 10.46844,1.16067 3.26358,0.41972 6.08362,0.68112 8.74916,0.88305 2.66553,0.20194 5.17663,0.34452 7.909,-0.0162 2.73238,-0.36075 5.68709,-1.22415 7.65612,-1.61985 1.96903,-0.39571 2.9513,-0.32442 3.87424,0.0211 0.92294,0.34554 1.78638,0.96339 2.97776,3.01153 1.19138,2.04814 2.7123,5.52553 3.31739,8.04388 0.6051,2.51835 0.29616,4.07882 -0.0127,6.30085 -0.30886,2.22203 -0.61779,5.10533 -0.40311,7.41081 0.21469,2.30549 0.95138,4.0323 1.08124,6.53489 0.12987,2.5026 -0.34541,5.78196 -2.01633,8.33124 -1.67093,2.54929 -4.53851,4.37116 -6.67708,5.61473 -2.13857,1.24357 -3.54859,1.90894 -5.19178,2.38827 -1.64319,0.47933 -3.52057,0.77241 -5.14857,1.08524 -1.628,0.31282 -3.00634,0.64552 -4.80437,0.98619 -1.79803,0.34067 -4.01604,0.6892 -7.82602,0.85176 -3.80999,0.16256 -9.21244,0.13879 -12.57173,-1.2894 -3.35929,-1.42818 -4.67425,-4.26395 -5.16232,-6.82298 -0.48808,-2.55902 -0.14746,-4.84031 -2.03513,-6.176 -1.88767,-1.33568 -6.00683,-1.72381 -8.68499,-3.26698 -2.67816,-1.54317 -3.91391,-4.24428 -4.136376,-5.9569 -0.222466,-1.71263 0.569686,-2.43345 0.977546,-3.35096 0.40786,-0.9175 0.43163,-2.03438 0.44354,-2.59411 0.0119,-0.55974 0.0119,-0.55973 1.19986,-3.99673 z"
       id="path748"
       inkscape:path-effect="#path-effect750"
       inkscape:original-d="m 101.08351,230.32835 c 2.37908,-6.87291 4.75552,-13.74847 7.12932,-20.62668 3.29005,-0.25083 6.57746,-0.50431 9.86222,-0.76043 3.70989,0.58089 7.41714,1.15913 11.12175,1.73473 2.82268,0.26405 5.64272,0.52544 8.46012,0.78419 2.51375,0.14523 5.02485,0.28781 7.53331,0.42774 2.95735,-0.86075 5.91206,-1.72416 8.86413,-2.59021 0.9849,0.0739 1.96716,0.14522 2.94678,0.21387 0.86608,0.6205 1.72952,1.23835 2.59032,1.85355 1.52357,3.48003 3.04449,6.95742 4.56277,10.43216 -0.30629,1.56311 -0.61523,3.12358 -0.92682,4.6814 -0.30629,2.88595 -0.61523,5.76925 -0.92681,8.6499 0.73934,1.72946 1.47603,3.45627 2.21008,5.18044 -0.47263,3.282 -0.94792,6.56136 -1.42584,9.83807 -2.86493,1.82451 -5.73251,3.64638 -8.60273,5.4656 -1.40738,0.66802 -2.8174,1.3334 -4.23007,1.99613 -1.87474,0.29573 -3.75212,0.58881 -5.63216,0.87924 -1.37568,0.33534 -2.75402,0.66803 -4.135,0.99808 -2.21536,0.35117 -4.43337,0.69971 -6.65403,1.04559 -5.39979,-0.0211 -10.80224,-0.0449 -16.20732,-0.0713 -1.31232,-2.83313 -2.62729,-5.6689 -3.94489,-8.50732 0.34326,-2.27865 0.68389,-4.55994 1.02186,-6.84388 -4.11651,-0.38549 -8.23567,-0.77363 -12.35748,-1.16441 -1.2331,-2.69847 -2.468853,-5.39958 -3.707249,-8.10334 0.794793,-0.71818 1.586939,-1.43901 2.376439,-2.16248 0.0264,-1.11424 0.0502,-2.23112 0.0713,-3.35065 z" />
    <text
       xml:space="preserve"
       style="font-size:3.175px;fill:none;stroke:#000000;stroke-width:0.361;stroke-dasharray:none;stroke-dashoffset:0"
       x="127.20058"
       y="231.6591"
       id="text806"><tspan
         sodipodi:role="line"
         id="tspan804"
         style="stroke-width:0.361"
         x="127.20058"
         y="231.6591">$V$</tspan></text>
    <path
       style="fill:none;stroke:#000000;stroke-width:0.361;stroke-dasharray:none;stroke-dashoffset:0;marker-mid:url(#Arrow3)"
       d="m 26.391998,234.86856 c 0,0 0,0 6.083941,0 6.083941,0 18.25107,0 31.686025,0 13.434956,0 28.136904,0 35.828655,0 7.691751,0 8.372981,0 9.053961,0"
       id="path912"
       inkscape:path-effect="#path-effect914"
       inkscape:original-d="m 26.391998,234.86856 c 2.65e-4,2.6e-4 2.65e-4,2.6e-4 0,0 12.167882,2.6e-4 24.335011,2.6e-4 36.502119,0 14.702803,2.6e-4 29.404751,2.6e-4 44.106733,0 0.68152,2.6e-4 1.36275,2.6e-4 2.04373,0" />
    <path
       style="fill:none;stroke:#000000;stroke-width:0.361;stroke-dasharray:none;stroke-dashoffset:0;marker-mid:url(#Arrow1)"
       d="m 143.90696,221.98738 c 7.8619,-7.86191 15.7238,-15.72381 22.45104,-22.45104 6.72722,-6.72722 12.31955,-12.31955 17.912,-17.912"
       id="path916"
       inkscape:path-effect="#path-effect918"
       inkscape:original-d="m 143.90696,221.98738 c 7.86217,-7.86164 15.72407,-15.72354 23.58571,-23.58571 5.59282,-5.59229 11.18515,-11.18462 16.77733,-16.77733" />
    <text
       xml:space="preserve"
       style="font-size:3.175px;fill:none;stroke:#000000;stroke-width:0.361;stroke-dasharray:none;stroke-dashoffset:0"
       x="38.820778"
       y="229.0656"
       id="text1385"><tspan
         sodipodi:role="line"
         id="tspan1383"
         style="stroke-width:0.361"
         x="38.820778"
         y="229.0656">$i=1</tspan></text>
    <text
       xml:space="preserve"
       style="font-size:3.175px;fill:none;stroke:#000000;stroke-width:0.361;stroke-dasharray:none;stroke-dashoffset:0"
       x="188.15366"
       y="195.63435"
       id="text1389"><tspan
         sodipodi:role="line"
         id="tspan1387"
         style="stroke-width:0.361"
         x="188.15366"
         y="195.63435">$f=2$</tspan></text>
  </g>
</svg>
