<?xml version="1.0" encoding="UTF-8" standalone="no"?>
<!-- Created with Inkscape (http://www.inkscape.org/) -->

<svg
   width="240mm"
   height="120mm"
   viewBox="0 0 240 120"
   version="1.1"
   id="svg8"
   inkscape:version="1.2.1 (9c6d41e410, 2022-07-14, custom)"
   sodipodi:docname="graphique.svg"
   xmlns:inkscape="http://www.inkscape.org/namespaces/inkscape"
   xmlns:sodipodi="http://sodipodi.sourceforge.net/DTD/sodipodi-0.dtd"
   xmlns="http://www.w3.org/2000/svg"
   xmlns:svg="http://www.w3.org/2000/svg"
   xmlns:rdf="http://www.w3.org/1999/02/22-rdf-syntax-ns#"
   xmlns:cc="http://creativecommons.org/ns#"
   xmlns:dc="http://purl.org/dc/elements/1.1/">
  <defs
     id="defs2">
    <marker
       style="overflow:visible"
       id="marker1469"
       refX="0"
       refY="0"
       orient="auto-start-reverse"
       inkscape:stockid="Arrow1"
       markerWidth="4.0606604"
       markerHeight="6.7071066"
       viewBox="0 0 4.0606602 6.7071068"
       inkscape:isstock="true"
       inkscape:collect="always"
       preserveAspectRatio="xMidYMid">
      <path
         style="fill:none;stroke:context-stroke;stroke-width:1;stroke-linecap:butt"
         d="M 3,-3 0,0 3,3"
         id="path1467"
         transform="rotate(180,0.125,0)"
         sodipodi:nodetypes="ccc" />
    </marker>
    <marker
       style="overflow:visible"
       id="marker1405"
       refX="0"
       refY="0"
       orient="auto-start-reverse"
       inkscape:stockid="Arrow1"
       markerWidth="4.0606604"
       markerHeight="6.7071066"
       viewBox="0 0 4.0606602 6.7071068"
       inkscape:isstock="true"
       inkscape:collect="always"
       preserveAspectRatio="xMidYMid">
      <path
         style="fill:none;stroke:context-stroke;stroke-width:1;stroke-linecap:butt"
         d="M 3,-3 0,0 3,3"
         id="path1403"
         transform="rotate(180,0.125,0)"
         sodipodi:nodetypes="ccc" />
    </marker>
    <marker
       style="overflow:visible"
       id="marker1228"
       refX="0"
       refY="0"
       orient="auto-start-reverse"
       inkscape:stockid="Arrow1"
       markerWidth="4.0606604"
       markerHeight="6.7071066"
       viewBox="0 0 4.0606602 6.7071068"
       inkscape:isstock="true"
       inkscape:collect="always"
       preserveAspectRatio="xMidYMid">
      <path
         style="fill:none;stroke:context-stroke;stroke-width:1;stroke-linecap:butt"
         d="M 3,-3 0,0 3,3"
         id="path1226"
         transform="rotate(180,0.125,0)"
         sodipodi:nodetypes="ccc" />
    </marker>
    <marker
       style="overflow:visible"
       id="Arrow1"
       refX="0"
       refY="0"
       orient="auto-start-reverse"
       inkscape:stockid="Arrow1"
       markerWidth="4.0606604"
       markerHeight="6.7071066"
       viewBox="0 0 4.0606602 6.7071068"
       inkscape:isstock="true"
       inkscape:collect="always"
       preserveAspectRatio="xMidYMid">
      <path
         style="fill:none;stroke:context-stroke;stroke-width:1;stroke-linecap:butt"
         d="M 3,-3 0,0 3,3"
         id="path5057"
         transform="rotate(180,0.125,0)"
         sodipodi:nodetypes="ccc" />
    </marker>
  </defs>
  <sodipodi:namedview
     id="base"
     pagecolor="#ffffff"
     bordercolor="#666666"
     borderopacity="1.0"
     inkscape:pageopacity="0.0"
     inkscape:pageshadow="2"
     inkscape:zoom="1.406257"
     inkscape:cx="457.59772"
     inkscape:cy="213.68783"
     inkscape:document-units="mm"
     inkscape:current-layer="layer1"
     showgrid="false"
     showborder="true"
     width="200mm"
     showguides="true"
     inkscape:guide-bbox="true"
     inkscape:window-width="1920"
     inkscape:window-height="1200"
     inkscape:window-x="0"
     inkscape:window-y="0"
     inkscape:window-maximized="1"
     inkscape:showpageshadow="2"
     inkscape:pagecheckerboard="0"
     inkscape:deskcolor="#d1d1d1">
    <inkscape:grid
       type="xygrid"
       id="grid815"
       units="mm"
       spacingx="10"
       spacingy="10"
       empspacing="4"
       dotted="false" />
  </sodipodi:namedview>
  <metadata
     id="metadata5">
    <rdf:RDF>
      <cc:Work
         rdf:about="">
        <dc:format>image/svg+xml</dc:format>
        <dc:type
           rdf:resource="http://purl.org/dc/dcmitype/StillImage" />
        <dc:title />
      </cc:Work>
    </rdf:RDF>
  </metadata>
  <g
     inkscape:label="Layer 1"
     inkscape:groupmode="layer"
     id="layer1"
     transform="translate(0,-177)">
    <path
       style="fill:none;stroke:#000000;stroke-width:0.287366;marker-start:url(#Arrow1);marker-end:url(#marker1228)"
       d="m 24.020291,191.15147 v 87.40834 H 215.80532"
       id="path235" />
    <text
       xml:space="preserve"
       style="font-size:3.175px;fill:none;stroke:#000000;stroke-width:0.3"
       x="112.04919"
       y="286.08575"
       id="text399"><tspan
         sodipodi:role="line"
         id="tspan397"
         style="stroke-width:0.3"
         x="112.04919"
         y="286.08575">$\ln E$</tspan></text>
    <text
       xml:space="preserve"
       style="font-size:3.175px;fill:none;stroke:#000000;stroke-width:0.3"
       x="6.5045891"
       y="202.00423"
       id="text453"><tspan
         sodipodi:role="line"
         id="tspan451"
         style="stroke-width:0.3"
         x="6.5045891"
         y="202.00423">$\ln R$</tspan></text>
    <path
       style="fill:none;stroke:#000000;stroke-width:0.3"
       d="m 50.42809,278.55981 c 0.277252,-0.90537 0.499198,-1.82956 0.831758,-2.71611 0.372385,-0.99271 1.477587,-2.37396 1.924915,-3.27936 1.941806,-3.93024 3.939021,-7.97853 5.323223,-12.14313 3.101489,-9.33131 4.5631,-19.04593 7.652139,-28.39733 0.186,-0.56307 3.864007,-12.84346 3.113141,-13.09367 -0.07717,-0.0257 1.172202,-0.6995 1.402101,0.40398 0.421828,2.02471 0.847558,4.15219 1.116917,6.20226 0.604912,4.60395 0.521251,10.08296 2.091267,14.44819 0.893024,2.48295 2.196727,4.79033 3.041843,7.29538 0.530781,1.57332 1.786784,2.99125 1.996215,2.85162 2.264047,-1.50949 2.986506,-11.72869 3.659719,-14.35314 0.815115,-3.17765 1.035286,-4.09607 2.019975,-6.60624 0.902769,-2.30133 1.865146,-4.43308 2.328907,-6.86763 0.02418,-0.12699 0.272738,-3.94474 0,-3.94474 -0.09642,0 -0.04711,1.20269 -0.04753,1.2357 -0.02614,2.04003 -0.326319,4.09148 -0.237644,6.13098 0.261178,6.0069 0.120481,18.59825 6.392619,22.36141 2.234486,1.34065 8.081815,1.05767 9.743405,-0.64162 0.88351,-0.90356 1.60868,-2.20376 2.16257,-3.32688 0.72224,-1.46449 0.57161,-3.92724 1.61597,-5.18043 0.88022,-1.05623 7.85636,-1.29827 9.71965,-1.25946 0.68618,0.0143 14.67087,1.10862 14.68639,1.09311 1.05876,-1.05877 0.23195,-9.13457 1.49716,-9.31527 1.0978,-0.1568 2.70489,0.82949 3.92113,0.92677 2.827,0.22611 5.67818,-0.0464 8.50765,0.0951 3.28945,0.16444 6.63651,0.58362 9.93352,0.30892 1.86896,-0.15572 0.83726,-2.29403 1.33081,-3.4457 0.0826,-0.1927 1.47346,0.0238 1.71103,0.0238 0.90708,0 2.24876,-0.45915 3.32702,-0.64161 5.24589,-0.88771 10.06606,0.39679 15.23297,0.52279 3.60919,0.088 7.30689,-0.0942 10.90786,0.19011 3.86593,0.30519 7.61784,-0.0951 11.45445,-0.0951 1.20012,0 2.38753,-0.06 3.58841,0 0.58568,0.0293 2.16122,-0.3788 1.75858,0.0475 -0.17651,0.18689 -0.80443,0.5799 -1.04563,0.73667"
       id="path1343" />
    <path
       style="fill:none;stroke:#4d4d4d;stroke-width:0.3;stroke-dasharray:0.90000004, 0.90000004;stroke-dashoffset:0"
       d="m 77.115516,263.79562 h 55.870094 v -9.90935 h 25.54674 V 249.894 h 47.74267"
       id="path1399" />
    <path
       style="fill:none;stroke:#000000;stroke-width:0.3;marker-end:url(#marker1405);marker-start:url(#marker1469)"
       d="m 203.30447,232.04764 -0.54657,12.66592"
       id="path1401" />
    <text
       xml:space="preserve"
       style="font-size:3.175px;fill:none;stroke:#000000;stroke-width:0.3"
       x="208.39006"
       y="238.3806"
       id="text1559"><tspan
         sodipodi:role="line"
         id="tspan1557"
         style="stroke-width:0.3"
         x="208.39006"
         y="238.3806">$\times 3$</tspan></text>
  </g>
</svg>
