<?xml version="1.0" encoding="UTF-8" standalone="no"?>
<!-- Created with Inkscape (http://www.inkscape.org/) -->

<svg
   width="240mm"
   height="120mm"
   viewBox="0 0 240 120"
   version="1.1"
   id="svg8"
   inkscape:version="1.2.1 (9c6d41e410, 2022-07-14)"
   sodipodi:docname="huite.svg"
   xmlns:inkscape="http://www.inkscape.org/namespaces/inkscape"
   xmlns:sodipodi="http://sodipodi.sourceforge.net/DTD/sodipodi-0.dtd"
   xmlns="http://www.w3.org/2000/svg"
   xmlns:svg="http://www.w3.org/2000/svg"
   xmlns:rdf="http://www.w3.org/1999/02/22-rdf-syntax-ns#"
   xmlns:cc="http://creativecommons.org/ns#"
   xmlns:dc="http://purl.org/dc/elements/1.1/">
  <defs
     id="defs2" />
  <sodipodi:namedview
     id="base"
     pagecolor="#ffffff"
     bordercolor="#666666"
     borderopacity="1.0"
     inkscape:pageopacity="0.0"
     inkscape:pageshadow="2"
     inkscape:zoom="0.99437388"
     inkscape:cx="285.60686"
     inkscape:cy="183.53258"
     inkscape:document-units="mm"
     inkscape:current-layer="layer1"
     showgrid="false"
     showborder="true"
     width="200mm"
     showguides="true"
     inkscape:guide-bbox="true"
     inkscape:window-width="1920"
     inkscape:window-height="1200"
     inkscape:window-x="0"
     inkscape:window-y="0"
     inkscape:window-maximized="1"
     inkscape:showpageshadow="2"
     inkscape:pagecheckerboard="0"
     inkscape:deskcolor="#d1d1d1">
    <inkscape:grid
       type="xygrid"
       id="grid815"
       units="mm"
       spacingx="10"
       spacingy="10"
       empspacing="4"
       dotted="false" />
  </sodipodi:namedview>
  <metadata
     id="metadata5">
    <rdf:RDF>
      <cc:Work
         rdf:about="">
        <dc:format>image/svg+xml</dc:format>
        <dc:type
           rdf:resource="http://purl.org/dc/dcmitype/StillImage" />
        <dc:title />
      </cc:Work>
    </rdf:RDF>
  </metadata>
  <g
     inkscape:label="Layer 1"
     inkscape:groupmode="layer"
     id="layer1"
     transform="translate(0,-177)">
    <path
       style="fill:#ff00ff;stroke-width:0.264583"
       id="path107"
       d="m 18.290997,202.644 c 1.653154,4.52697 2.345025,9.33949 3.096045,14.07831 0.862146,6.09993 0.253152,1.68005 1.024264,7.55887 0.302205,2.30396 0.419626,3.7224 1.000021,5.93409 0.198491,0.75639 0.485539,1.48672 0.728308,2.23007 0,0 0.0716,0.0357 0.0716,0.0357 v 0 c 0.127955,-0.55982 0.3335,-1.10742 0.383865,-1.67947 0.160018,-1.81751 -0.170342,-3.86839 -0.393637,-5.63755 -0.228732,-1.81223 -0.785646,-5.80178 -1.02943,-7.56612 -0.693358,-4.69043 -1.256278,-9.45857 -2.757098,-13.97594 0,0 -2.123935,-0.97795 -2.123935,-0.97795 z" />
    <path
       style="fill:#ff00ff;stroke-width:0.264583"
       id="path109"
       d="m 18.535567,213.62335 c 1.541173,-0.62299 3.160778,-1.01701 4.758539,-1.46143 0.535358,-0.14891 1.096014,-0.22989 1.603218,-0.45688 0.356844,-0.1597 0.634068,-0.45753 0.951102,-0.68629 0.222033,-0.17962 0.444065,-0.35924 0.666099,-0.53885 0,0 -0.06578,-0.0455 -0.06578,-0.0455 v 0 c -0.498484,-0.0112 -0.996968,-0.0223 -1.495452,-0.0335 -0.639319,0.007 -1.282668,-0.0507 -1.917958,0.0213 -0.579266,0.0657 -1.138667,0.25121 -1.705031,0.38939 -1.649575,0.40245 -3.310768,0.81698 -4.900552,1.41803 0,0 2.105819,1.39373 2.105819,1.39373 z" />
    <path
       style="fill:#ff00ff;stroke-width:0.264583"
       id="path111"
       d="m 35.329831,221.85499 c 1.889029,-0.20787 4.008887,-0.39436 5.792118,-1.06543 0.418274,-0.15741 0.804021,-0.39048 1.206031,-0.58572 0.618292,-0.53931 1.106996,-0.73692 1.199989,-1.62341 0.191455,-1.82512 -2.6054,-3.0176 -3.65679,-3.42358 -0.315876,-0.12198 -0.66447,0.13077 -0.996704,0.19616 -0.260197,0.25915 -0.597747,0.45897 -0.780587,0.77745 -0.626536,1.09133 -0.545648,2.88887 0.246848,3.88664 0.895974,1.12804 1.606897,1.25323 2.836153,1.75926 0,0 -0.0629,-0.0494 -0.0629,-0.0494 v 0 c -0.222904,-0.082 -0.497475,-0.0815 -0.668711,-0.24606 -0.142819,-0.13728 -0.118046,-0.3782 -0.177377,-0.5672 -0.116361,-0.37069 -0.285609,-0.72867 -0.349699,-1.11187 -0.12319,-0.73654 -0.112446,-1.69624 0.285154,-2.37326 0.161457,-0.27491 0.4675,-0.43362 0.701249,-0.65044 0.282136,-0.0355 0.93708,0.16304 0.846405,-0.10647 -0.142946,-0.42488 -0.680164,-0.72462 -1.12839,-0.73167 -0.324633,-0.005 0.485786,0.4449 0.651389,0.72416 0.144655,0.24394 0.259159,0.52694 0.25868,0.81055 -0.0013,0.81043 -0.51458,1.02595 -1.054166,1.50352 -0.407797,0.17673 -0.803222,0.3853 -1.223391,0.53017 -1.864622,0.64293 -3.869092,0.81303 -5.818748,0.98841 0,0 1.893443,1.35823 1.893443,1.35823 z" />
    <path
       style="fill:#ff00ff;stroke-width:0.264583"
       id="path113"
       d="m 50.773149,212.32024 c -1.061143,0.57215 -2.040149,1.33398 -2.77641,2.29774 -0.184867,0.24199 -0.391454,0.4817 -0.494189,0.76837 -0.0872,0.24332 -0.03885,0.51547 -0.05827,0.77321 0.120827,0.22759 0.194291,0.48756 0.362482,0.68277 0.194561,0.22582 0.447103,0.3996 0.702489,0.55331 1.040064,0.62598 2.115331,1.19155 3.176379,1.78126 0.340834,0.18943 1.393018,0.69635 1.029174,0.55611 -1.383184,-0.53315 -1.946746,-1.26616 -0.681721,0.027 0.979551,1.88525 -0.08007,-0.30984 0.638824,1.70621 0.510862,1.43265 0.5472,0.56219 0.39421,1.56387 0,0 0.06816,0.0419 0.06816,0.0419 v 0 c 0.24054,-0.0735 1.560994,-0.46798 1.634278,-0.53969 0.533781,-0.52234 0.02998,-1.23857 -0.160417,-1.69597 -1.5181,-1.68548 -0.535673,-0.74624 -3.94725,-2.7553 -0.323924,-0.19075 -1.2637,-0.79152 -0.997537,-0.52606 0.353401,0.35247 0.845523,0.53065 1.26824,0.79605 0.240324,0.15089 -0.506579,-0.26672 -0.721063,-0.45251 -0.173747,-0.1505 -0.284478,-0.36114 -0.426715,-0.54172 -0.01106,-0.21999 -0.09771,-0.44938 -0.03316,-0.65999 0.08517,-0.27787 0.287403,-0.5071 0.462079,-0.73939 0.706609,-0.93968 1.657262,-1.68335 2.707811,-2.19792 0,0 -2.14739,-1.43924 -2.14739,-1.43924 z" />
    <path
       style="fill:#ff00ff;stroke-width:0.264583"
       id="path115"
       d="m 57.633975,207.71724 c 0.390411,1.2652 0.748972,2.53911 1.113065,3.81204 0.199028,0.69584 0.311671,1.42312 0.601811,2.08616 3.997645,9.13562 -0.517475,-2.60774 2.042721,4.20864 0,0 0.07213,0.0346 0.07213,0.0346 v 0 c -0.179819,-2.06304 -0.249767,-1.0241 0.246719,-3.11412 -0.01492,-0.69022 -0.296707,-1.34857 -0.4572,-2.02004 -0.298762,-1.24995 -0.639009,-2.49018 -0.957242,-3.73524 0,0 -2.661999,-1.27205 -2.661999,-1.27205 z" />
    <path
       style="fill:#ff00ff;stroke-width:0.264583"
       id="path117"
       d="m 57.393292,214.25488 c 3.077212,-1.72787 5.900224,-3.86277 8.618201,-6.10296 0.715743,-1.51793 0.371105,-0.84567 1.00969,-2.02902 0,0 -0.06801,-0.0421 -0.06801,-0.0421 v 0 c -1.494676,0.72387 -0.597038,0.36553 -2.750984,0.91628 -0.588603,0.33778 -1.185431,0.66162 -1.765803,1.01335 -2.501164,1.51584 -4.884232,3.22145 -7.389225,4.73098 0,0 2.346135,1.5135 2.346135,1.5135 z" />
    <path
       style="fill:#ff00ff;stroke-width:0.264583"
       id="path119"
       d="m 20.9187,243.71088 c 2.028342,-0.89143 3.260349,-1.40922 5.417046,-2.51728 2.894616,-1.48718 9.366607,-5.08069 11.994785,-6.53818 15.835894,-8.78197 -2.106454,1.12439 13.066482,-7.24304 10.632289,-5.63928 1.02085,-0.58223 10.633596,-5.53621 1.289833,-0.66472 2.661449,-1.19585 3.857194,-2.01787 0.775816,-0.53334 1.327626,-1.33521 1.991437,-2.00281 0,0 -0.06688,-0.0439 -0.06688,-0.0439 v 0 c -1.221947,0.29965 -2.481112,0.47544 -3.665842,0.89895 -1.41079,0.50431 -2.740822,1.21289 -4.086193,1.87216 -3.616593,1.77224 -6.991168,3.67697 -10.529867,5.61335 -10.111528,5.68042 -20.177937,11.56996 -30.934722,15.96587 0,0 2.32296,1.54896 2.32296,1.54896 z" />
  </g>
</svg>
