<?xml version="1.0" encoding="UTF-8" standalone="no"?>
<!-- Created with Inkscape (http://www.inkscape.org/) -->

<svg
   width="210mm"
   height="297mm"
   viewBox="0 0 210 297"
   version="1.1"
   id="svg5"
   inkscape:version="1.1.1 (3bf5ae0d25, 2021-09-20)"
   sodipodi:docname="E0.1.svg"
   xmlns:inkscape="http://www.inkscape.org/namespaces/inkscape"
   xmlns:sodipodi="http://sodipodi.sourceforge.net/DTD/sodipodi-0.dtd"
   xmlns="http://www.w3.org/2000/svg"
   xmlns:svg="http://www.w3.org/2000/svg">
  <sodipodi:namedview
     id="namedview7"
     pagecolor="#ffffff"
     bordercolor="#666666"
     borderopacity="1.0"
     inkscape:pageshadow="2"
     inkscape:pageopacity="0.0"
     inkscape:pagecheckerboard="0"
     inkscape:document-units="mm"
     showgrid="false"
     inkscape:zoom="1.5387265"
     inkscape:cx="251.83163"
     inkscape:cy="767.19288"
     inkscape:window-width="918"
     inkscape:window-height="981"
     inkscape:window-x="1912"
     inkscape:window-y="0"
     inkscape:window-maximized="0"
     inkscape:current-layer="layer1" />
  <defs
     id="defs2" />
  <g
     inkscape:label="Layer 1"
     inkscape:groupmode="layer"
     id="layer1">
    <path
       style="fill:none;stroke:#000000;stroke-width:0.264583px;stroke-linecap:butt;stroke-linejoin:miter;stroke-opacity:1"
       d="m 38.613405,40.031101 c -0.05709,9.919581 -2.84901,19.736673 -2.063266,29.688951 0.168206,2.130507 0.434988,4.300516 0.742776,6.416444 0.114781,0.78908 0.568666,2.411368 0.16506,3.218538"
       id="path42" />
    <path
       style="fill:none;stroke:#000000;stroke-width:0.264583px;stroke-linecap:butt;stroke-linejoin:miter;stroke-opacity:1"
       d="m 33.805995,40.505628 c 1.840163,-1.708134 3.07381,-1.878494 5.715246,-1.629899 0.799282,0.07522 1.793822,0.19241 2.496552,0.63958 0.967756,0.615815 1.32978,2.164275 1.815674,3.136013"
       id="path44" />
    <path
       style="fill:none;stroke:#000000;stroke-width:0.264583px;stroke-linecap:butt;stroke-linejoin:miter;stroke-opacity:1"
       d="m 24.541933,36.069823 c 0.608192,3.931583 -0.515817,7.840204 -0.515817,11.760043"
       id="path46" />
    <path
       style="fill:none;stroke:#000000;stroke-width:0.264583px;stroke-linecap:butt;stroke-linejoin:miter;stroke-opacity:1"
       d="m 24.541933,36.069823 c 3.062011,0.668657 6.181655,0.247581 9.264062,0.247581"
       id="path48" />
    <path
       style="fill:none;stroke:#000000;stroke-width:0.264583px;stroke-linecap:butt;stroke-linejoin:miter;stroke-opacity:1"
       d="m 25.449769,43.311534 c 1.753861,-0.283416 3.507413,-0.412633 5.28196,-0.412633"
       id="path50" />
    <path
       style="fill:none;stroke:#000000;stroke-width:0.264583px;stroke-linecap:butt;stroke-linejoin:miter;stroke-opacity:1"
       d="m 24.026116,47.829866 c 1.632301,-0.963062 2.526454,-0.838422 4.229696,-0.412633"
       id="path52" />
    <path
       style="fill:none;stroke:#000000;stroke-width:0.264583px;stroke-linecap:butt;stroke-linejoin:miter;stroke-opacity:1"
       d="m 51.797672,42.568793 c 3.271287,-0.230552 6.567715,0.0588 9.841777,-0.165052 3.568486,-0.243985 7.193116,-0.475488 10.770248,-0.577686 3.296838,-0.09419 6.668839,-0.06503 9.944939,-0.474527 2.206871,-0.275847 4.327274,-0.802773 6.375492,-1.48548 0.751504,-0.250489 2.372794,-0.05415 3.074266,0.165053 0.653446,0.204192 1.477115,-0.07741 2.145797,0.0619 0.924999,0.192699 1.871731,0.341016 2.826673,0.412631 0.735222,0.05514 4.322526,-0.125859 4.807406,0.165055"
       id="path54" />
    <path
       style="fill:none;stroke:#000000;stroke-width:0.264583px;stroke-linecap:butt;stroke-linejoin:miter;stroke-opacity:1"
       d="m 101.58427,40.670686 c 0.24759,0.08253 0.52771,0.09973 0.74278,0.247576 0.88854,0.610838 1.69848,4.354528 2.31085,5.426125"
       id="path56" />
    <path
       style="fill:none;stroke:#000000;stroke-width:0.264583px;stroke-linecap:butt;stroke-linejoin:miter;stroke-opacity:1"
       d="m 104.6379,46.344387 c 0.96974,-0.268211 1.91858,-0.628642 2.90921,-0.804635 1.03888,-0.184563 2.5794,0.186156 3.63135,0.247581 2.70944,0.158208 5.41363,0.308946 8.12926,0.247579 3.50561,-0.07922 7.09116,-0.04101 10.58456,-0.330105 1.91254,-0.158271 3.81908,-0.476808 5.73588,-0.577689 1.3943,-0.07338 2.81165,0 4.20906,0"
       id="path58" />
    <path
       style="fill:none;stroke:#000000;stroke-width:0.264583px;stroke-linecap:butt;stroke-linejoin:miter;stroke-opacity:1"
       d="m 104.6379,46.344387 c -0.44016,0.192561 -0.96745,0.251822 -1.32048,0.577686 -0.11787,0.108797 0.1844,0.2652 0.24759,0.412634 0.10281,0.239871 0.16506,0.495159 0.24759,0.74274 0.3397,1.019048 0.66611,2.00604 0.90784,3.053485 0.3071,1.330698 0.57828,3.226173 1.42365,4.353277 0.0889,0.118515 0.27182,-0.11907 0.41265,-0.165052 0.72687,-0.237334 1.01831,-0.357722 1.81568,-0.557054 2.8167,-0.704141 5.79936,-1.065236 8.68635,-1.320427 3.30711,-0.292327 6.62475,-0.504314 9.94494,-0.577686 2.61707,-0.05783 5.12237,-0.07449 7.71661,-0.49516 2.46662,-0.399973 4.86438,-0.906089 7.36586,-1.072845 0.73506,-0.049 3.44632,-0.370705 4.06463,0.247578"
       id="path60" />
    <path
       style="fill:none;stroke:#000000;stroke-width:0.264583px;stroke-linecap:butt;stroke-linejoin:miter;stroke-opacity:1"
       d="m 55.59408,80.592932 c 0.946745,-0.255231 1.942613,-0.201986 2.909205,-0.08253 7.659819,0.946674 15.392037,1.052217 23.108576,1.052217 3.678502,0 7.349048,-0.544439 11.017839,-0.742741 3.798467,-0.205312 7.56681,0.09755 11.34796,0.412633"
       id="path62" />
    <path
       style="fill:none;stroke:#000000;stroke-width:0.264583px;stroke-linecap:butt;stroke-linejoin:miter;stroke-opacity:1"
       d="m 103.97766,81.232509 c 1.25962,-0.42736 3.65651,0.307213 4.88994,-0.30947 0.38514,0.405756 0.80326,0.782583 1.15543,1.217269 0.29998,0.370272 0.49584,1.053369 0.74278,1.485479 0.50524,0.884134 2.33149,2.660872 2.33149,3.631171 10.25035,-1.308365 20.64734,-0.990319 30.96961,-0.990319"
       id="path64" />
    <path
       style="fill:none;stroke:#000000;stroke-width:0.264583px;stroke-linecap:butt;stroke-linejoin:miter;stroke-opacity:1"
       d="m 129.83038,70.132685 c -1.29344,2.180582 -1.56552,4.853557 -0.41265,7.159183"
       id="path66" />
    <path
       style="fill:none;stroke:#000000;stroke-width:0.264583px;stroke-linecap:butt;stroke-linejoin:miter;stroke-opacity:1"
       d="m 136.37093,69.802578 c -0.42568,0.0822 -1.45598,0.08138 -1.75377,0.577686 -0.44997,0.749903 0.41088,1.829265 0.7634,2.393272 1.49846,2.397409 2.1416,3.167417 -0.66024,4.84844"
       id="path68" />
    <path
       style="fill:none;stroke:#000000;stroke-width:0.264583px;stroke-linecap:butt;stroke-linejoin:miter;stroke-opacity:1"
       d="m 139.69279,71.535636 c 0.13132,1.009422 0.0324,1.999747 0.41265,2.950326"
       id="path70" />
    <path
       style="fill:none;stroke:#000000;stroke-width:0.264583px;stroke-linecap:butt;stroke-linejoin:miter;stroke-opacity:1"
       d="m 134.72032,77.621976 c 1.15543,0.275087 2.28773,0.677952 3.46629,0.825264 0.226,0.02825 1.43997,-0.802595 1.8363,-0.990319 1.39765,-0.662012 2.78013,-1.354551 4.2297,-1.898111"
       id="path72" />
    <path
       style="fill:none;stroke:#000000;stroke-width:0.264583px;stroke-linecap:butt;stroke-linejoin:miter;stroke-opacity:1"
       d="m 136.53599,81.480093 c 0.41266,0 0.82531,0 1.23796,0 0.25717,0 1.22358,-0.03502 1.42365,0.165055 0.097,0.09701 -0.35994,0.663691 -0.41265,0.742738 -0.87987,1.319747 -0.72766,2.493722 1.05227,2.72338"
       id="path74" />
    <path
       style="fill:none;stroke:#000000;stroke-width:0.264583px;stroke-linecap:butt;stroke-linejoin:miter;stroke-opacity:1"
       d="m 108.53748,60.827808 c 0.70256,-0.803008 5.81877,-2.34383 6.04537,-0.474527 0.1121,0.924792 -0.89025,1.859891 -1.48555,2.455166 -0.88488,0.884833 -0.39569,0.775904 0.99036,1.237898 1.31177,0.437235 0.47989,0.229579 1.73315,0.577689 0.70431,0.195633 1.19516,0.252764 1.91883,0.165052"
       id="path76" />
    <path
       style="fill:none;stroke:#000000;stroke-width:0.264583px;stroke-linecap:butt;stroke-linejoin:miter;stroke-opacity:1"
       d="m 123.61995,57.134743 c -0.41584,0.775809 -3.21788,1.632342 -2.82667,2.805904 0.56202,1.685983 3.63989,0.925436 3.40438,3.280434 -0.0599,0.5989 -0.21518,1.084651 -0.57771,1.568005 -0.42986,0.573119 -1.00789,1.240555 -1.58872,1.650532"
       id="path78" />
    <path
       style="fill:none;stroke:#000000;stroke-width:0.264583px;stroke-linecap:butt;stroke-linejoin:miter;stroke-opacity:1"
       d="m 128.92254,58.125063 c 0.53335,1.00512 0.41097,2.159177 0.66025,3.218537"
       id="path80" />
    <path
       style="fill:none;stroke:#000000;stroke-width:0.264583px;stroke-linecap:butt;stroke-linejoin:miter;stroke-opacity:1"
       d="m 128.09724,65.614351 c 2.4331,-1.614157 4.81055,-3.263839 7.36586,-4.683384"
       id="path82" />
    <path
       style="fill:none;stroke:#000000;stroke-width:0.264583px;stroke-linecap:butt;stroke-linejoin:miter;stroke-opacity:1"
       d="m 129.58279,61.3436 c -1.32005,4.25368 2.83713,1.729166 3.65198,3.032853 0.52409,0.838504 -2.48405,2.125059 0,2.125059 0.30261,0 0.60538,0.0099 0.90784,0 0.33059,-0.01077 0.6624,-0.01894 0.99036,-0.06189 0.7276,-0.09528 1.39141,-0.407916 2.06327,-0.680844"
       id="path84" />
    <path
       style="fill:none;stroke:#000000;stroke-width:0.264583px;stroke-linecap:butt;stroke-linejoin:miter;stroke-opacity:1"
       d="m 108.62001,31.716546 c 1.11809,-0.403829 2.31466,-0.576472 3.48692,-0.742741 1.19341,-0.16927 2.42334,-0.302485 3.63135,-0.247579 0.54425,0.02474 1.8176,-0.01871 2.24895,0.412634 0.26072,0.260707 -0.24242,1.035632 -0.33012,1.155372 -1.50287,2.051891 -4.11183,3.14194 -5.90094,4.930965 -1.0887,1.088644 -0.48859,1.841331 0.99037,2.063165 0.54761,0.08214 1.77742,0.06189 2.33149,0.06189"
       id="path86" />
    <path
       style="fill:none;stroke:#000000;stroke-width:0.264583px;stroke-linecap:butt;stroke-linejoin:miter;stroke-opacity:1"
       d="m 124.36273,34.027289 c -0.78362,0.04285 -2.58837,1.122363 -1.83631,2.125062 0.94983,1.266376 3.31315,1.421424 1.011,3.032853 -0.57799,0.404572 -1.14425,0.707493 -1.83631,0.845897"
       id="path88" />
    <path
       style="fill:none;stroke:#000000;stroke-width:0.264583px;stroke-linecap:butt;stroke-linejoin:miter;stroke-opacity:1"
       d="m 129.0876,32.129177 c 1.29205,-0.359678 3.72927,0.560234 2.82668,2.290114 -0.49752,0.953524 -1.34349,1.296077 -1.91884,2.063165 -0.46406,0.618715 -0.56051,1.664248 -0.74277,2.393273"
       id="path90" />
    <path
       style="fill:none;stroke:#000000;stroke-width:0.264583px;stroke-linecap:butt;stroke-linejoin:miter;stroke-opacity:1"
       d="m 129.0876,42.981427 c 0.7978,-0.254198 1.64343,-0.458764 2.47592,-0.577686 0.11575,-0.01654 0.35076,0.116919 0.35076,0 0,-0.09354 -0.18137,0.04779 -0.26823,0.08253 -0.32743,0.130969 -0.6725,0.171183 -0.99036,0.330108"
       id="path92" />
    <path
       style="fill:none;stroke:#000000;stroke-width:0.264583px;stroke-linecap:butt;stroke-linejoin:miter;stroke-opacity:1"
       d="M 7.3938306,43.675186 C 7.067796,48.501929 7.73773,53.30762 7.73773,58.118948 c 0,2.743401 -0.1119034,0.360278 0.343899,3.095094 0.037691,0.226144 -0.2292662,0.687797 0,0.687797 0.3625014,0 -0.2092695,-0.695124 -0.343899,-1.031698"
       id="path94" />
    <path
       style="fill:none;stroke:#000000;stroke-width:0.264583px;stroke-linecap:butt;stroke-linejoin:miter;stroke-opacity:1"
       d="m 7.73773,53.132413 c 0.2292659,0.05732 0.6304817,0.401214 0.6877981,0.171947 0.057316,-0.229264 -0.8188862,0.02469 -0.6877981,-0.171947 0.3836103,-0.575416 1.2166414,-0.24333 1.7194953,-0.343901 1.3714317,-0.274285 2.7382057,-0.818067 4.1267897,-1.031697 0.975926,-0.150143 2.098562,0 3.095092,0"
       id="path96" />
    <path
       style="fill:none;stroke:#000000;stroke-width:0.264583px;stroke-linecap:butt;stroke-linejoin:miter;stroke-opacity:1"
       d="m 18.570552,45.050784 c 0,1.834128 0,3.668257 0,5.502386 0,0.906862 0.127247,2.48463 0,3.43899 -0.119118,0.893379 -0.360833,2.223183 -0.687799,3.095091 -0.395164,1.053772 -0.343899,0.313655 -0.343899,1.031697 0,0.820711 0.223954,3.738857 0,4.298739 -0.26337,0.658426 -0.530966,0.313663 -0.687798,0"
       id="path98" />
    <path
       style="fill:none;stroke:#000000;stroke-width:0.264583px;stroke-linecap:butt;stroke-linejoin:miter;stroke-opacity:1"
       d="m 44.022814,107.16517 c -0.235307,-1.88236 -0.06938,-3.78668 0,-5.67371 0.09915,-2.696727 -0.08496,-5.379068 -0.103164,-8.066975 1.565931,-0.424448 5.50752,-1.65967 6.292962,0.74274 0.203168,0.621426 0.05387,1.279659 -0.30949,1.815585 -0.630817,0.93041 -1.60295,1.559898 -2.661613,1.877481 -0.431428,0.129422 -0.990367,0.07474 -0.990367,0.08253 0,0.140274 0.277888,0.0436 0.412653,0.08253 0.194328,0.05614 0.387223,0.117656 0.577714,0.185685 0.79333,0.283318 1.825426,0.666398 2.145797,1.547374 0.258693,0.711377 -0.03753,1.672387 -0.330123,2.310747 -0.941389,2.05384 -2.570907,3.43373 -4.621715,4.27075 -0.816447,0.33323 -1.589229,0.4955 -2.33149,0.99032"
       id="path100" />
    <path
       style="fill:none;stroke:#000000;stroke-width:0.264583px;stroke-linecap:butt;stroke-linejoin:miter;stroke-opacity:1"
       d="m 55.10255,100.00598 c 3.53717,0.20589 7.395911,1.06971 10.852777,-0.08252"
       id="path102" />
    <path
       style="fill:none;stroke:#000000;stroke-width:0.264583px;stroke-linecap:butt;stroke-linejoin:miter;stroke-opacity:1"
       d="m 54.689898,104.44179 c 2.045748,0.0562 4.085214,-0.0799 6.127898,-0.16505"
       id="path104" />
    <path
       style="fill:none;stroke:#000000;stroke-width:0.264583px;stroke-linecap:butt;stroke-linejoin:miter;stroke-opacity:1"
       d="m 80.129964,91.526372 c -2.023049,0.822235 -3.749847,2.198243 -5.220063,3.796223 -1.357815,1.475817 -2.86267,3.622839 -2.744144,5.756235 0.166833,3.00281 3.608019,2.09175 5.302594,1.07284 1.710184,-1.02829 5.210571,-4.681179 4.312224,-7.076653 -0.647957,-1.727804 -5.186143,-0.01696 -6.21043,0.495159"
       id="path106" />
    <path
       style="fill:none;stroke:#000000;stroke-width:0.264583px;stroke-linecap:butt;stroke-linejoin:miter;stroke-opacity:1"
       d="m 17.81934,126.66208 c 1.500819,-0.0271 3.063294,-0.22045 4.58045,-0.0825 1.643407,0.1494 3.245083,0.71963 4.869306,0.99032 3.20013,0.53333 6.551287,0.47818 9.779881,0.24758 0.915072,-0.0654 1.7624,0.0917 2.661613,0.16505 1.192344,0.0973 2.433243,0 3.631348,0 0.769059,0 5.69682,-0.21552 5.962837,-0.0825 0.998972,0.49946 0.955144,3.98898 1.072896,4.93096 0.405054,3.24025 1.003398,6.09754 4.064635,7.8194 2.329101,1.31005 5.198134,1.29197 7.778512,1.40295 2.902096,0.12482 5.799463,0.20894 8.70698,0.0825 2.963293,-0.12883 5.902817,-0.41264 8.872042,-0.41264 2.263767,0 4.51857,0.24759 6.788145,0.24759 2.245204,0 4.467024,-0.24759 6.705613,-0.24759 0.347882,0 5.81646,0.0926 6.21043,-0.0825 0.189312,-0.0841 1.685792,-2.03025 2.001372,-2.31075 2.80886,-2.49664 5.10347,-5.70063 8.10863,-7.98445 1.8595,-1.41315 3.89545,-1.8677 6.1279,-2.45516 4.63389,-1.21939 9.37093,-2.06317 14.17463,-2.06317"
       id="path108" />
    <path
       style="fill:none;stroke:#000000;stroke-width:0.264583px;stroke-linecap:butt;stroke-linejoin:miter;stroke-opacity:1"
       d="m 98.781885,141.80571 c 2.861015,1.03435 4.502205,3.83262 6.932575,5.50866 1.35804,0.93653 2.98598,1.38537 4.31222,2.39327 0.54765,0.41619 0.91088,0.92654 1.42366,1.38232 1.39567,1.24053 3.55922,2.76098 5.30259,3.38359 3.53127,1.26111 7.63803,0.44525 11.26543,0.0825 2.91423,-0.29141 5.88625,-0.21865 8.76888,-0.74273"
       id="path110" />
    <path
       style="fill:none;stroke:#000000;stroke-width:0.264583px;stroke-linecap:butt;stroke-linejoin:miter;stroke-opacity:1"
       d="m 53.78206,128.23008 c 0.385143,0.0275 0.770287,0.055 1.15543,0.0825"
       id="path112" />
    <path
       style="fill:none;stroke:#000000;stroke-width:0.264583px;stroke-linecap:butt;stroke-linejoin:miter;stroke-opacity:1"
       d="m 61.581204,125.58923 c 1.594207,0.80563 3.160085,2.42258 5.03437,1.48548 1.302057,-0.651 2.245638,-1.77213 3.65198,-2.22822"
       id="path114" />
    <path
       style="fill:none;stroke:#000000;stroke-width:0.264583px;stroke-linecap:butt;stroke-linejoin:miter;stroke-opacity:1"
       d="m 77.715942,127.9825 c 1.77545,0.98993 3.65755,1.28372 5.550186,0.49516"
       id="path116" />
    <path
       style="fill:none;stroke:#000000;stroke-width:0.264583px;stroke-linecap:butt;stroke-linejoin:miter;stroke-opacity:1"
       d="m 86.587985,129.79809 c 2.363123,0.23685 4.690372,-0.55198 6.953205,-1.15537"
       id="path118" />
    <path
       style="fill:none;stroke:#000000;stroke-width:0.264583px;stroke-linecap:butt;stroke-linejoin:miter;stroke-opacity:1"
       d="m 100.2468,127.89998 c 2.48055,0.34339 4.63874,1.82724 7.05637,2.31074"
       id="path120" />
    <path
       style="fill:none;stroke:#000000;stroke-width:0.264583px;stroke-linecap:butt;stroke-linejoin:miter;stroke-opacity:1"
       d="m 68.177314,91.087185 c -0.843005,1.067755 -1.913345,2.453034 -2.806041,3.445486 -2.434429,2.706471 -5.095568,5.22038 -7.469021,7.984449 -2.354426,2.74192 -4.534016,5.74895 -6.458021,8.80972 -1.700406,2.70506 -2.629871,5.51976 -3.899572,8.37645"
       id="path122" />
    <path
       style="fill:none;stroke:#000000;stroke-width:0.264583px;stroke-linecap:butt;stroke-linejoin:miter;stroke-opacity:1"
       d="m 21.106466,178.77848 c 2.891231,0.99757 5.953162,0.8474 8.954574,0.99032 3.385259,0.16119 6.732188,1.02122 10.110001,1.29979 0.685427,0.0565 1.376061,-0.0275 2.063266,0 6.440376,0.2576 12.869839,-0.43701 19.312168,-0.22695 2.383602,0.0777 4.815152,0.3525 7.200796,0.22695 1.156981,-0.0609 2.301124,-0.25643 3.466285,-0.16505 1.392775,0.10923 2.988146,0.3901 4.394756,0.16505 1.169461,-0.1871 2.192848,-0.392 3.404388,-0.392 1.404984,-0.20994 2.727704,-0.51827 4.147166,-0.66021"
       id="path124" />
    <path
       style="fill:none;stroke:#000000;stroke-width:0.264583px;stroke-linecap:butt;stroke-linejoin:miter;stroke-opacity:1"
       d="m 34.208204,168.97844 c 6.88218,0.27086 11.096204,-1.64943 14.401593,-7.98445 0.229439,-0.43973 2.260346,-4.61769 1.072899,-5.01349 -0.647327,-0.21577 -1.636988,1.17272 -1.898206,1.48548 -2.20904,2.64491 -5.753147,9.63134 -4.394755,13.16299 1.006917,2.61786 4.213021,1.97741 6.045369,3.46612"
       id="path126" />
    <path
       style="fill:none;stroke:#000000;stroke-width:0.264583px;stroke-linecap:butt;stroke-linejoin:miter;stroke-opacity:1"
       d="m 55.480473,162.97463 c 1.147522,0.5085 2.53591,0.51484 3.65198,1.07284"
       id="path128" />
    <path
       style="fill:none;stroke:#000000;stroke-width:0.264583px;stroke-linecap:butt;stroke-linejoin:miter;stroke-opacity:1"
       d="m 56.986656,167.82307 c 1.596295,0.4276 3.250716,0.24438 4.869307,0.0825"
       id="path130" />
    <path
       style="fill:none;stroke:#000000;stroke-width:0.264583px;stroke-linecap:butt;stroke-linejoin:miter;stroke-opacity:1"
       d="m 69.737639,156.39313 c -0.965788,3.44496 -1.016252,7.04965 -1.671246,10.54278"
       id="path132" />
    <path
       style="fill:none;stroke:#000000;stroke-width:0.264583px;stroke-linecap:butt;stroke-linejoin:miter;stroke-opacity:1"
       d="m 84.159864,180.01638 c 0.59503,-0.37703 1.287878,-0.5625 1.898206,-0.9078 2.905596,-1.64387 5.397814,-4.12684 7.943572,-6.25139 2.170311,-1.81122 4.479872,-3.48736 6.788148,-5.11665 1.43643,-1.0139 2.79253,-2.39415 4.41538,-3.11538 0.85178,-0.5521 1.56056,-1.6055 2.47593,-2.06316 0.088,-0.044 0.24208,0.044 0.33012,0 0.68331,-0.34164 1.29993,-1.36177 1.81567,-1.87748"
       id="path134" />
    <path
       style="fill:none;stroke:#000000;stroke-width:0.264583px;stroke-linecap:butt;stroke-linejoin:miter;stroke-opacity:1"
       d="m 84.304295,155.23776 c 0.648917,-0.28691 3.910949,-1.87497 4.662979,-1.07285 0.703065,0.7499 0.557081,2.03478 0.557081,2.97096 0,0.0909 -0.122883,0.8456 0.185695,0.74274 1.032552,-0.34417 3.948313,-3.68415 4.724879,-3.13601 0.86038,0.6073 -0.492527,4.20365 -0.845939,5.03412 -0.191919,0.45099 -0.415589,0.96969 -0.412652,0.96969 0.27233,0 0.375427,-0.39535 0.577712,-0.57768 0.257313,-0.23194 1.835676,-1.47973 2.083898,-1.65054 3.82156,-2.62976 3.212153,0.65619 2.971104,3.54865"
       id="path136" />
    <path
       style="fill:none;stroke:#000000;stroke-width:0.264583px;stroke-linecap:butt;stroke-linejoin:miter;stroke-opacity:1"
       d="m 104.60683,155.15523 c 1.4875,0.4507 3.02234,0.49516 4.55982,0.49516"
       id="path138" />
    <path
       style="fill:none;stroke:#000000;stroke-width:0.264583px;stroke-linecap:butt;stroke-linejoin:miter;stroke-opacity:1"
       d="m 103.78152,160.91146 c 2.01819,-0.40908 4.02964,-0.22695 6.04537,-0.22694"
       id="path140" />
    <path
       style="fill:none;stroke:#000000;stroke-width:0.264583px;stroke-linecap:butt;stroke-linejoin:miter;stroke-opacity:1"
       d="m 116.05795,154.82513 c 0.23945,2.16141 -1.16468,4.01469 -1.42365,6.08633"
       id="path142" />
    <path
       style="fill:none;stroke:#000000;stroke-width:0.264583px;stroke-linecap:butt;stroke-linejoin:miter;stroke-opacity:1"
       d="m 84.159864,180.01638 c 0.04814,0.48828 -0.14913,1.0717 0.144431,1.46484 0.2023,0.27093 0.673105,0.0701 1.010999,0.0825 1.978967,0.0726 4.014343,-0.26946 5.962838,-0.57769 1.929363,-0.30519 3.847441,-0.73238 5.797778,-0.88716 3.39011,-0.26904 6.80374,0.11681 10.19253,-0.0825 2.93027,-0.17236 5.9277,-0.93581 8.87204,-0.74274 1.26185,0.0827 2.45871,0.41263 3.71388,0.41263"
       id="path144" />
    <path
       style="fill:none;stroke:#000000;stroke-width:0.264583px;stroke-linecap:butt;stroke-linejoin:miter;stroke-opacity:1"
       d="m 128.04553,172.03193 c -0.29574,-0.13755 -0.56329,-0.37453 -0.88721,-0.41264 -0.51402,-0.0605 -2.25891,1.41191 -2.57908,1.79496 -0.58592,0.70098 -0.97727,1.66755 -1.15543,2.55832 -0.15486,0.77426 -0.0912,1.59081 0.24759,2.31075 0.30091,0.6394 0.86361,1.28001 1.56808,1.48548 2.61561,0.76285 3.57351,-2.52446 3.73452,-4.45644 0.0237,-0.28413 0.16186,-1.28934 -0.16507,-1.48548 -0.0973,-0.0584 -0.22008,-0.055 -0.33012,-0.0825"
       id="path146" />
    <path
       style="fill:none;stroke:#000000;stroke-width:0.264583px;stroke-linecap:butt;stroke-linejoin:miter;stroke-opacity:1"
       d="m 84.159864,180.01638 c -0.275103,0.73586 -0.73256,1.42747 -0.825304,2.20758 -0.05769,0.48522 1.374788,1.99926 1.650611,2.39328 1.941978,2.77411 4.279321,4.91 6.788145,7.15918 2.181907,1.9561 4.338224,3.91574 6.623081,5.75623 3.157083,2.54308 6.376433,5.23158 10.110003,6.9116 1.14851,0.51681 2.38587,0.82263 3.56945,1.2379 0.93327,0.32745 2.50341,1.46485 3.46629,1.46485"
       id="path148" />
    <path
       style="fill:none;stroke:#000000;stroke-width:0.264583px;stroke-linecap:butt;stroke-linejoin:miter;stroke-opacity:1"
       d="m 89.854478,215.15208 c 1.483344,-0.9649 3.387145,-0.26953 3.734512,1.54738 0.20125,1.05264 -5.3e-4,2.16889 -0.165061,3.21853 -0.05664,0.36107 -0.09152,1.07443 -0.08253,1.07285 0.118001,-0.0208 3.714665,-4.06992 4.312224,-4.62149 0.116972,-0.10797 0.933595,-1.07094 1.237959,-0.80464 0.528219,0.46217 -0.332452,2.57298 -0.495184,3.11539 -0.0075,0.0249 -0.191283,0.55705 -0.16506,0.55705 1.025395,0 6.210432,-6.33977 6.210432,-1.71243 0,1.14765 -0.27688,2.23152 -0.41266,3.36296 -0.10155,0.84621 -0.16506,1.70647 -0.16506,2.55833"
       id="path150" />
    <path
       style="fill:none;stroke:#000000;stroke-width:0.264583px;stroke-linecap:butt;stroke-linejoin:miter;stroke-opacity:1"
       d="m 111.74573,216.94704 c 1.81033,-0.45595 3.68574,-0.66022 5.55018,-0.66022"
       id="path152" />
    <path
       style="fill:none;stroke:#000000;stroke-width:0.264583px;stroke-linecap:butt;stroke-linejoin:miter;stroke-opacity:1"
       d="m 110.42524,221.13526 c 1.91154,-0.15843 3.80917,-0.19717 5.71524,0"
       id="path154" />
    <path
       style="fill:none;stroke:#000000;stroke-width:0.264583px;stroke-linecap:butt;stroke-linejoin:miter;stroke-opacity:1"
       d="m 121.27801,220.33063 c 1.71306,0.0402 3.30468,-0.45788 4.86931,-1.09348"
       id="path156" />
    <path
       style="fill:none;stroke:#000000;stroke-width:0.264583px;stroke-linecap:butt;stroke-linejoin:miter;stroke-opacity:1"
       d="m 130.78967,213.7285 c -1.6155,3.08113 -2.96612,6.57411 -2.64098,10.13014 0.006,0.0632 0.64809,4.03047 0.66024,4.1057"
       id="path158" />
  </g>
</svg>
