<?xml version="1.0" encoding="UTF-8" standalone="no"?>
<!-- Created with Inkscape (http://www.inkscape.org/) -->

<svg
   width="240mm"
   height="120mm"
   viewBox="0 0 240 120"
   version="1.1"
   id="svg8"
   inkscape:version="1.1.1 (3bf5ae0d25, 2021-09-20, custom)"
   sodipodi:docname="champignon.svg"
   xmlns:inkscape="http://www.inkscape.org/namespaces/inkscape"
   xmlns:sodipodi="http://sodipodi.sourceforge.net/DTD/sodipodi-0.dtd"
   xmlns="http://www.w3.org/2000/svg"
   xmlns:svg="http://www.w3.org/2000/svg"
   xmlns:rdf="http://www.w3.org/1999/02/22-rdf-syntax-ns#"
   xmlns:cc="http://creativecommons.org/ns#"
   xmlns:dc="http://purl.org/dc/elements/1.1/">
  <defs
     id="defs2" />
  <sodipodi:namedview
     id="base"
     pagecolor="#ffffff"
     bordercolor="#666666"
     borderopacity="1.0"
     inkscape:pageopacity="0.0"
     inkscape:pageshadow="2"
     inkscape:zoom="1.9855887"
     inkscape:cx="122.88547"
     inkscape:cy="235.95017"
     inkscape:document-units="mm"
     inkscape:current-layer="layer1"
     showgrid="false"
     showborder="true"
     width="200mm"
     showguides="true"
     inkscape:guide-bbox="true"
     inkscape:window-width="1920"
     inkscape:window-height="1127"
     inkscape:window-x="0"
     inkscape:window-y="0"
     inkscape:window-maximized="1"
     inkscape:pagecheckerboard="0"
     inkscape:lockguides="true">
    <inkscape:grid
       type="xygrid"
       id="grid815"
       units="mm"
       spacingx="10"
       spacingy="10"
       empspacing="4"
       dotted="false" />
  </sodipodi:namedview>
  <metadata
     id="metadata5">
    <rdf:RDF>
      <cc:Work
         rdf:about="">
        <dc:format>image/svg+xml</dc:format>
        <dc:type
           rdf:resource="http://purl.org/dc/dcmitype/StillImage" />
        <dc:title />
      </cc:Work>
    </rdf:RDF>
  </metadata>
  <g
     inkscape:label="Layer 1"
     inkscape:groupmode="layer"
     id="layer1"
     transform="translate(0,-177)">
    <path
       style="fill:#000000;stroke-width:0.264583"
       id="path257"
       d="m 23.609444,222.8245 c -0.909126,2.24698 -1.590514,4.57397 -2.285354,6.89318 -1.164268,3.95347 -2.322365,7.90872 -3.539128,11.84641 -0.663597,2.15804 -1.308155,4.32182 -1.999328,6.47127 -0.108316,0.40719 -0.287616,0.79325 -0.391998,1.20105 -0.0074,0.0454 -0.131066,0.40481 -0.120289,0.41606 0.07128,0.0744 0.42993,-0.0712 0.536078,-0.1032 0,0 0.07272,-0.0334 0.07272,-0.0334 v 0 c 0.179492,-0.10892 0.519515,-0.28306 0.680409,-0.46715 0.09924,-0.11355 0.08677,-0.30908 0.147722,-0.43951 0.1096,-0.37632 0.17536,-0.76436 0.273286,-1.14377 0.496818,-2.11906 1.055203,-4.22262 1.667572,-6.31138 1.151371,-3.95327 2.303381,-7.90687 3.525812,-11.83885 0.784003,-2.39835 1.555199,-4.82654 2.720877,-7.07288 0,0 -1.288379,0.58212 -1.288379,0.58212 z" />
    <path
       style="fill:#000000;stroke-width:0.264583"
       id="path259"
       d="m 15.709099,249.13746 c 1.534966,0.29851 3.086384,0.392 4.647204,0.27987 0.633898,-0.0455 1.264834,-0.1257 1.897251,-0.18854 0.71115,-0.0828 1.422047,-0.1679 2.133451,-0.24853 2.626485,-0.29769 5.251268,-0.54918 7.891987,-0.68462 2.63871,-0.13533 3.536891,-0.12856 6.18945,-0.17518 6.293475,-0.0294 12.583599,0.22169 18.87092,0.46847 3.326619,0.12857 6.65258,0.27243 9.980559,0.36276 1.303724,0.0354 2.607855,0.0547 3.911539,0.0915 2.934452,0.0828 4.727609,0.16376 7.674213,0.28202 7.365693,0.26027 14.6958,1.05463 22.034527,1.69042 1.0978,0.0866 2.19635,0.16396 3.29338,0.25975 2.55548,0.22315 4.37438,0.40678 6.91785,0.75394 3.06085,0.41778 6.10309,0.96787 9.14794,1.48605 1.7273,0.26766 2.67128,0.42551 4.35163,0.64619 0.5022,0.0659 1.00327,0.14889 1.50881,0.18018 0.41726,0.0258 0.8362,0.001 1.25413,-0.009 0.27881,-0.007 0.56999,0.043 0.83562,-0.0419 0.28055,-0.0897 0.50072,-0.31031 0.75108,-0.46547 0,0 0.0625,-0.0499 0.0625,-0.0499 v 0 c 0.045,-0.0557 0.19703,-0.13108 0.13512,-0.16714 -0.17881,-0.10414 -0.40901,-0.0649 -0.61097,-0.10998 -0.3059,-0.0683 -0.60287,-0.17671 -0.91175,-0.22993 -0.49594,-0.0855 -0.99887,-0.12364 -1.49833,-0.1853 -2.8507,-0.35191 -1.27265,-0.14895 -4.44408,-0.57515 -3.10396,-0.45939 -6.20335,-0.96511 -9.31421,-1.37612 -2.70521,-0.35742 -4.2424,-0.52119 -6.96275,-0.73126 -1.1159,-0.0862 -2.23374,-0.14511 -3.35062,-0.21766 -3.961185,-0.27724 -2.93453,-0.19334 -6.938682,-0.5228 -1.204946,-0.0991 -2.408756,-0.2124 -3.614343,-0.30344 -3.915542,-0.29568 -7.838175,-0.49291 -11.76052,-0.67035 -7.204469,-0.23877 -14.410928,-0.41746 -21.613833,-0.70209 -6.363338,-0.20966 -12.729998,-0.33457 -19.09709,-0.31036 -3.896868,0.0648 -7.793488,0.16897 -11.677918,0.51042 -0.755544,0.0664 -1.50858,0.15882 -2.263064,0.23636 -0.692368,0.0712 -1.384991,0.13982 -2.077486,0.20972 -0.603167,0.0439 -1.205449,0.10242 -1.809501,0.13173 -1.536414,0.0746 -3.06249,-0.033 -4.574453,-0.31082 0,0 -0.969591,0.68632 -0.969591,0.68632 z" />
    <path
       style="fill:#000000;stroke-width:0.264583"
       id="path261"
       d="m 23.404745,222.38736 c 2.122255,0.0256 4.243993,-0.0172 6.365084,-0.0834 2.631493,-0.11551 5.265711,-0.18605 7.895365,-0.3416 1.198173,-0.0709 4.419433,-0.30363 5.559531,-0.38466 5.046054,-0.36415 10.105908,-0.65666 15.167496,-0.54447 1.012047,0.0224 2.023136,0.0769 3.034702,0.11528 5.69101,0.32129 11.346595,1.06085 16.999569,1.76607 3.94876,0.42629 7.870367,1.08105 11.817561,1.51788 0.898906,0.0995 1.800379,0.17416 2.700568,0.26125 5.870501,0.51146 11.765789,0.55758 17.654039,0.55491 5.29956,0.0243 10.57941,-0.4508 15.85576,-0.88142 2.81438,-0.19921 5.61327,-0.55834 8.42032,-0.83384 0.90947,-0.0801 1.82012,-0.1586 2.73233,-0.20117 0.12062,-0.008 0.2402,-0.0119 0.35996,0.005 0.35571,0.0279 0.71585,0.0132 1.07309,0.0215 0.4922,0.022 0.98337,0.0614 1.47376,0.10814 0.24801,0.0236 0.46257,0.0609 0.71163,0.0368 0.11373,-0.011 0.22449,-0.0427 0.33674,-0.0641 0.58275,-0.25785 0.31732,-0.15857 0.78916,-0.31623 0,0 0.0676,-0.0429 0.0676,-0.0429 v 0 c 0.21037,-0.30887 0.0979,-0.14433 0.33761,-0.49346 -0.0352,-0.0337 -0.0604,-0.0827 -0.10545,-0.10122 -0.14643,-0.0603 -0.53686,-0.0678 -0.65771,-0.0759 -0.48983,-0.0328 -0.97913,-0.0722 -1.46808,-0.11614 -0.32456,-0.0342 -0.649,-0.07 -0.97559,-0.0742 -0.13772,-0.0177 -0.2735,-0.0463 -0.41281,-0.0178 -0.97568,0.10711 -1.94967,0.22865 -2.92512,0.33795 -2.892,0.33703 -5.774,0.75906 -8.67428,1.02509 -5.35946,0.54895 -10.729,1.09144 -16.12316,1.09099 -5.86671,-0.001 -11.742389,-0.0736 -17.590147,-0.58804 -0.892106,-0.0917 -1.785106,-0.17515 -2.676318,-0.27521 -3.957881,-0.4444 -7.8887,-1.1068 -11.85336,-1.49412 -2.710209,-0.26988 -5.419312,-0.5498 -8.128812,-0.82668 -1.480722,-0.15132 -4.628571,-0.4784 -6.108303,-0.59417 -0.996514,-0.078 -1.995144,-0.12603 -2.992715,-0.18904 -2.607575,-0.0922 -3.504848,-0.15199 -6.118321,-0.13164 -4.035888,0.0314 -8.064941,0.3148 -12.091788,0.55673 -4.399952,0.26002 -8.802746,0.45642 -13.209657,0.55078 -2.060077,0.0457 -4.127092,0.11297 -6.184361,-0.037 0,0 -1.055853,0.75985 -1.055853,0.75985 z" />
    <path
       style="fill:#000000;stroke-width:0.264583"
       id="path263"
       d="m 142.92714,222.31449 c -0.96808,1.18015 -1.79058,2.46904 -2.58719,3.76813 -1.55384,2.7482 -2.81763,5.64615 -4.10264,8.52594 -1.51811,3.49384 -3.19073,6.91562 -4.95681,10.28982 -1.19511,2.26432 -2.43059,4.50791 -3.7486,6.70315 -0.69681,1.0986 -1.33779,2.23098 -2.0257,3.33495 -0.0368,0.20294 -0.27045,0.3227 -0.32221,0.5199 -0.009,0.0349 0.018,0.099 0.0537,0.0939 0.19026,-0.0271 0.36524,-0.11976 0.54786,-0.17964 0,0 0.073,-0.0328 0.073,-0.0328 v 0 c 0.70287,-0.38053 0.83703,-0.40147 1.17551,-1.07953 0.60593,-1.08104 1.20147,-2.16792 1.81718,-3.2435 1.2339,-2.18394 2.45528,-4.37528 3.56202,-6.62743 1.708,-3.39403 3.35677,-6.81592 4.91935,-10.2797 1.31873,-2.90304 2.6045,-5.83417 4.2481,-8.57276 0.83142,-1.32534 1.68418,-2.6451 2.73789,-3.80833 0,0 -1.39141,0.58791 -1.39141,0.58791 z" />
    <path
       style="fill:#000000;stroke-width:0.264583"
       id="path265"
       d="m 29.604134,228.93351 c 1.63514,-0.002 3.227633,-0.41819 4.82642,-0.70645 0.507741,-0.0915 1.017498,-0.17153 1.526246,-0.25729 1.365592,-0.20229 2.745523,-0.28384 4.125196,-0.26281 0.315579,0.005 0.630788,0.0239 0.946063,0.0386 0.244797,0.0114 0.489368,0.0524 0.734112,0.0398 0.256638,-0.0131 0.508048,-0.0777 0.762072,-0.11649 0.220506,-0.0518 0.44101,-0.10355 0.661516,-0.15532 0,0 0.06533,-0.0462 0.06533,-0.0462 v 0 c -0.02966,-0.0847 -0.05931,-0.16948 -0.08897,-0.25422 -0.107524,-0.0678 -0.198242,-0.17693 -0.322577,-0.2033 -0.205582,-0.0436 -1.700565,-0.0203 -1.776196,-0.0188 -1.408528,0.0295 -2.817191,0.10957 -4.213304,0.307 -0.504918,0.082 -1.010381,0.16077 -1.514758,0.24606 -1.501945,0.25398 -3.017211,0.6217 -4.551037,0.5342 0,0 -1.180113,0.85512 -1.180113,0.85512 z" />
    <path
       style="fill:#000000;stroke-width:0.264583"
       id="path267"
       d="m 45.096728,226.59272 c 0.588114,0.35749 1.229416,0.6335 1.794341,1.02957 0.251563,0.17637 0.407501,0.33999 0.623655,0.54771 0.05751,0.0743 0.160096,0.12974 0.172532,0.22287 0.02765,0.20708 -0.366517,0.69767 -0.423368,0.76481 -0.395406,0.46692 -0.893839,0.82022 -1.280887,1.29085 0,0 0.0746,-0.0289 0.0746,-0.0289 v 0 c 0.393951,-0.20718 0.805839,-0.38336 1.181854,-0.62155 0.41688,-0.26407 1.040072,-0.82475 1.360863,-1.22599 0.190482,-0.23825 0.465098,-0.58843 0.340691,-0.9387 -0.03634,-0.10231 -0.155617,-0.15144 -0.233426,-0.22716 -0.288745,-0.13477 -0.586145,-0.25146 -0.869566,-0.39709 -0.600766,-0.3087 -1.167466,-0.69036 -1.730833,-1.06066 0,0 -1.01046,0.64422 -1.01046,0.64422 z" />
    <path
       style="fill:#000000;stroke-width:0.264583"
       id="path269"
       d="m 26.659247,241.38215 c 2.748542,0.13846 5.499595,-0.14742 8.235257,-0.38353 2.222656,-0.19235 1.129276,-0.0692 3.280637,-0.36499 0,0 0.06454,-0.0473 0.06454,-0.0473 v 0 c -1.668571,-0.16425 -0.759946,-0.12904 -2.727571,-0.0435 -2.590421,0.16141 -5.2032,0.37915 -7.792222,0.0842 0,0 -1.060638,0.75507 -1.060638,0.75507 z" />
    <path
       style="fill:#000000;stroke-width:0.264583"
       id="path271"
       d="m 39.805506,236.88135 c 0.704149,0.44696 1.534486,0.63071 2.306019,0.92343 0.224448,0.0852 0.45662,0.15904 0.662379,0.28271 0.163351,0.0982 0.287808,0.24991 0.431712,0.37487 0.05488,0.14425 0.155917,0.27866 0.164648,0.43275 0.02228,0.39284 -0.257966,0.70416 -0.420187,1.02174 -0.496647,0.9723 0.09085,0.0526 -0.627333,1.08443 0,0 0.07378,-0.0309 0.07378,-0.0309 v 0 c 0.270748,-0.24912 0.540453,-0.49939 0.812244,-0.74737 0.456679,-0.41668 1.618493,-1.2288 1.426051,-2.05296 -0.03991,-0.17093 -0.20066,-0.28805 -0.300987,-0.43208 -0.200618,-0.0984 -0.394563,-0.21177 -0.601851,-0.29521 -0.23713,-0.0954 -0.487463,-0.15446 -0.72827,-0.24022 -0.737185,-0.26252 -1.497272,-0.53709 -2.145266,-0.98319 0,0 -1.052936,0.66203 -1.052936,0.66203 z" />
    <path
       style="fill:#000000;stroke-width:0.264583"
       id="path273"
       d="m 69.882852,231.4681 c 2.934267,-0.0782 5.85823,0.1915 8.783151,0.3775 2.779181,-0.0825 1.415457,-0.0318 4.091252,-0.14988 0,0 0.06475,-0.047 0.06475,-0.047 v 0 c -2.253122,-0.14695 -1.134737,-0.0215 -3.355297,-0.37513 -2.77872,-0.27198 -5.558012,-0.54229 -8.346279,-0.69416 0,0 -1.237578,0.88865 -1.237578,0.88865 z" />
    <path
       style="fill:#000000;stroke-width:0.264583"
       id="path275"
       d="m 87.905655,227.95777 c 1.035132,0.64523 2.102895,1.27161 2.916558,2.20134 0.230476,0.26335 0.465926,0.53318 0.619439,0.84767 0.142349,0.29163 0.168791,0.6267 0.253188,0.94005 -0.0259,0.45851 -0.01228,1.17452 -0.224877,1.62145 -0.117793,0.24761 -0.323189,0.44306 -0.48478,0.66459 0,0 0.07386,-0.0307 0.07386,-0.0307 v 0 c 0.596283,-0.5248 1.508434,-1.19914 1.832533,-1.98112 0.123589,-0.29819 0.03402,-0.64468 0.05104,-0.96703 -0.142841,-0.29693 -0.240406,-0.62027 -0.428519,-0.8908 -0.206537,-0.29702 -0.480608,-0.54193 -0.741802,-0.79225 -0.871794,-0.8355 -1.879179,-1.51533 -2.805904,-2.2852 0,0 -1.06073,0.67205 -1.06073,0.67205 z" />
    <path
       style="fill:#000000;stroke-width:0.264583"
       id="path277"
       d="m 62.184475,241.73376 c 2.281687,-0.23907 4.566433,-0.43492 6.861281,-0.48431 0.721595,-0.0155 1.4435,-0.009 2.165249,-0.0131 2.956727,-0.0795 1.508525,-0.0109 4.344921,-0.19919 0,0 0.06478,-0.0469 0.06478,-0.0469 v 0 c -2.285846,-0.25649 -1.090739,-0.13646 -3.586096,-0.35234 -2.89488,-0.0138 -5.792107,0.0159 -8.680654,0.2274 0,0 -1.169479,0.86849 -1.169479,0.86849 z" />
    <path
       style="fill:#000000;stroke-width:0.264583"
       id="path279"
       d="m 78.142932,235.48559 c 0.0502,0.0783 0.09157,0.16308 0.150588,0.23501 0.73007,0.88976 1.975329,1.19859 3.009588,1.55558 0.967488,0.33755 1.982501,0.54264 2.89061,1.03588 0.397353,0.21582 0.856435,0.46226 0.952941,0.9656 0.04065,0.212 -0.05225,0.42856 -0.07837,0.64284 -0.481238,1.06841 -1.419098,1.77897 -2.237981,2.57177 -0.225332,0.21815 -0.439915,0.44715 -0.659871,0.67072 0,0 0.07434,-0.0296 0.07434,-0.0296 v 0 c 1.340191,-0.86363 1.854954,-1.1111 2.999546,-2.14444 0.350618,-0.31654 0.698344,-0.64307 0.986386,-1.01746 0.202554,-0.26328 0.314507,-0.5852 0.471762,-0.8778 -0.01315,-0.23849 0.05338,-0.4954 -0.03943,-0.71549 -0.19081,-0.45246 -0.858055,-0.73526 -1.246325,-0.88845 -0.315344,-0.12442 -0.646451,-0.20442 -0.96914,-0.3083 -0.881332,-0.28374 -1.138544,-0.37168 -2.019247,-0.66463 -1.05723,-0.40034 -2.312929,-0.76514 -2.951165,-1.7777 0,0 -1.334228,0.74643 -1.334228,0.74643 z" />
    <path
       style="fill:#000000;stroke-width:0.264583"
       id="path281"
       d="m 101.421,236.01564 c 1.22822,-0.39241 2.49403,-0.72795 3.78374,-0.83519 0.41604,-0.0346 0.83433,-0.0319 1.2515,-0.0478 1.43389,0.0706 1.30618,0.0379 2.75233,0.21817 0.4725,0.0589 0.9399,0.16093 1.41451,0.19933 0.76403,0.0618 2.4434,0.0514 3.22678,0.0533 0,0 0.0653,-0.0462 0.0653,-0.0462 v 0 c -0.37231,-0.10602 -0.74732,-0.20295 -1.11691,-0.31806 -0.39337,-0.12251 -0.77158,-0.29489 -1.17134,-0.39458 -0.44892,-0.11196 -0.90989,-0.16929 -1.36735,-0.23853 -1.30645,-0.19775 -1.40975,-0.17921 -2.7112,-0.27045 -0.40621,0.002 -0.81301,-0.0158 -1.21864,0.006 -1.22692,0.0663 -2.42933,0.3698 -3.61479,0.67071 0,0 -1.29391,1.00323 -1.29391,1.00323 z" />
    <path
       style="fill:#000000;stroke-width:0.264583"
       id="path283"
       d="m 114.22401,232.84173 c 0.72171,0.36887 1.4564,0.71494 2.15044,1.13579 0.63825,0.38703 1.17658,0.70871 1.62801,1.31749 0.16008,0.21589 0.23982,0.48106 0.35974,0.72159 -0.0175,0.23196 0.01,0.47176 -0.0524,0.69588 -0.11273,0.40556 -0.48898,0.87796 -0.72382,1.21097 0,0 0.0741,-0.0302 0.0741,-0.0302 v 0 c 0.67569,-0.4938 1.67008,-1.02285 2.04042,-1.87665 0.10668,-0.24596 0.0381,-0.53484 0.0571,-0.80226 -0.14806,-0.24402 -0.25251,-0.52057 -0.44419,-0.73206 -0.23579,-0.26016 -0.53472,-0.45636 -0.8193,-0.66202 -0.92604,-0.66924 -1.95955,-1.17994 -2.88029,-1.8571 0,0 -1.38985,0.87854 -1.38985,0.87854 z" />
    <path
       style="fill:#000000;stroke-width:0.264583"
       id="path285"
       d="m 100.52947,244.11672 c 3.11583,0.14221 6.20527,0.59301 9.30151,0.94485 2.47654,0.085 1.25329,0.0761 3.6697,0.0316 0,0 0.0653,-0.0462 0.0653,-0.0462 v 0 c -1.62748,-0.59005 -0.75506,-0.32301 -2.62668,-0.76963 -2.96869,-0.412 -5.94143,-0.79474 -8.90701,-1.22915 0,0 -1.50285,1.06853 -1.50285,1.06853 z" />
    <path
       style="fill:#000000;stroke-width:0.264583"
       id="path287"
       d="m 115.39553,243.55 c 0.93599,0.40454 1.86395,0.84661 2.73986,1.37087 0.77491,0.46382 1.33493,0.7843 1.84358,1.54718 0.18419,0.27624 0.26645,0.60823 0.39968,0.91234 -0.0174,0.31311 0.0197,0.6341 -0.0523,0.93931 -0.0224,0.0952 -0.51199,1.17282 -0.61545,1.40224 0,0 0.074,-0.0303 0.074,-0.0303 v 0 c 1.00293,-0.7169 1.89382,-1.01111 2.2484,-2.23723 0.0938,-0.32446 -0.008,-0.67547 -0.0113,-1.0132 -0.18088,-0.30001 -0.30807,-0.63983 -0.54263,-0.90002 -0.27397,-0.3039 -0.62607,-0.52838 -0.9592,-0.76593 -0.35086,-0.25019 -0.72458,-0.4667 -1.08991,-0.69524 -0.83257,-0.52084 -1.68053,-1.01618 -2.51698,-1.53061 0,0 -1.51776,1.00055 -1.51776,1.00055 z" />
    <path
       style="fill:none;stroke:#000000;stroke-width:0.264583px;stroke-linecap:butt;stroke-linejoin:miter;stroke-opacity:1"
       d="m 85.590651,202.37971 c -0.340997,0.9205 -0.698142,2.00108 -1.334169,2.77843"
       id="path322" />
    <path
       style="fill:none;stroke:#000000;stroke-width:0.264583px;stroke-linecap:butt;stroke-linejoin:miter;stroke-opacity:1"
       d="m 81.156081,210.20532 c -0.701087,0.86646 -1.085781,1.88294 -1.566455,2.86938"
       id="path324" />
    <path
       style="fill:none;stroke:#000000;stroke-width:0.264583px;stroke-linecap:butt;stroke-linejoin:miter;stroke-opacity:1"
       d="m 79.589624,213.0747 c -0.754769,1.59387 -1.575335,3.15171 -2.185218,4.8071"
       id="path326" />
    <path
       style="fill:none;stroke:#000000;stroke-width:0.264583px;stroke-linecap:butt;stroke-linejoin:miter;stroke-opacity:1"
       d="m 75.71919,221.51926 c -0.840099,0.79155 -1.450144,1.74734 -2.028203,2.73343"
       id="path328" />
    <path
       style="fill:none;stroke:#000000;stroke-width:0.264583px;stroke-linecap:butt;stroke-linejoin:miter;stroke-opacity:1"
       d="m 71.120428,230.57943 c -1.000689,-0.83165 -0.571744,-0.92823 -1.241571,-0.12959 -0.143123,0.17065 -0.438473,0.28221 -0.437597,0.50493 7.94e-4,0.2257 0.294394,0.34221 0.44159,0.51331"
       id="path330" />
    <path
       style="fill:none;stroke:#000000;stroke-width:0.264583px;stroke-linecap:butt;stroke-linejoin:miter;stroke-opacity:1"
       d="m 69.882852,231.4681 c -0.429421,0.79848 -0.85884,1.59696 -1.288258,2.39543"
       id="path332" />
    <path
       style="fill:none;stroke:#000000;stroke-width:0.264583px;stroke-linecap:butt;stroke-linejoin:miter;stroke-opacity:1"
       d="m 67.109408,237.26055 c 0.0074,0.8873 0.239744,1.75177 0.403863,2.61924"
       id="path334" />
    <path
       style="fill:none;stroke:#000000;stroke-width:0.264583px;stroke-linecap:butt;stroke-linejoin:miter;stroke-opacity:1"
       d="m 69.820511,245.14005 c 0.724937,0.68991 1.247902,1.35702 1.717204,2.22857"
       id="path336" />
    <path
       style="fill:none;stroke:#000000;stroke-width:0.264583px;stroke-linecap:butt;stroke-linejoin:miter;stroke-opacity:1"
       d="m 73.42275,251.61276 c 0.04521,1.26171 -0.09056,0.60894 0.518522,1.93185"
       id="path338" />
    <path
       style="fill:none;stroke:#000000;stroke-width:0.264583px;stroke-linecap:butt;stroke-linejoin:miter;stroke-opacity:1"
       d="m 73.813283,258.93261 c 0.01998,0.66919 0.343606,1.13 0.764807,1.60737"
       id="path340" />
    <path
       style="fill:none;stroke:#000000;stroke-width:0.264583px;stroke-linecap:butt;stroke-linejoin:miter;stroke-opacity:1"
       d="m 78.882789,260.94951 c 1.406774,-2.04456 0.807424,-1.17196 1.799146,-2.61705"
       id="path342" />
    <path
       style="fill:none;stroke:#000000;stroke-width:0.264583px;stroke-linecap:butt;stroke-linejoin:miter;stroke-opacity:1"
       d="m 83.088495,255.38717 c 0.705696,-1.1172 0.283212,-0.52057 1.313225,-1.75659"
       id="path344" />
    <path
       style="fill:none;stroke:#000000;stroke-width:0.264583px;stroke-linecap:butt;stroke-linejoin:miter;stroke-opacity:1"
       d="m 84.40172,253.63058 c 1.588743,-0.45779 2.214284,-2.22716 3.591311,-2.99217"
       id="path346" />
    <path
       style="fill:none;stroke:#000000;stroke-width:0.264583px;stroke-linecap:butt;stroke-linejoin:miter;stroke-opacity:1"
       d="m 98.997269,223.54947 c -0.07609,-0.33032 -0.152191,-0.66064 -0.228285,-0.99096"
       id="path348" />
    <path
       style="fill:none;stroke:#000000;stroke-width:0.264583px;stroke-linecap:butt;stroke-linejoin:miter;stroke-opacity:1"
       d="m 98.231617,219.87317 c -0.357052,-0.50372 -0.714105,-1.00743 -1.071155,-1.51114"
       id="path350" />
    <path
       style="fill:none;stroke:#000000;stroke-width:0.264583px;stroke-linecap:butt;stroke-linejoin:miter;stroke-opacity:1"
       d="m 95.140774,216.27502 c -1.208101,-0.66176 -1.891475,-1.40386 -2.469859,-2.62046"
       id="path352" />
    <path
       style="fill:none;stroke:#000000;stroke-width:0.264583px;stroke-linecap:butt;stroke-linejoin:miter;stroke-opacity:1"
       d="m 90.872957,209.80523 c -0.380479,-0.5955 -0.657103,-1.14818 -0.92737,-1.80454"
       id="path354" />
    <path
       style="fill:none;stroke:#000000;stroke-width:0.264583px;stroke-linecap:butt;stroke-linejoin:miter;stroke-opacity:1"
       d="m 88.453726,204.63062 c -1.241684,-1.63512 -0.51504,-1.14591 -2.863077,-2.25091"
       id="path356" />
    <path
       style="fill:none;stroke:#000000;stroke-width:0.264583px;stroke-linecap:butt;stroke-linejoin:miter;stroke-opacity:1"
       d="m 73.813283,258.93261 c -1.134462,1.32623 0.827931,5.51863 1.563245,6.94025"
       id="path358" />
    <path
       style="fill:none;stroke:#000000;stroke-width:0.264583px;stroke-linecap:butt;stroke-linejoin:miter;stroke-opacity:1"
       d="m 55.717386,183.9745 c 1.237383,-0.48556 2.18457,-0.8322 3.584014,-0.79517 0.671436,0.0178 2.043634,0.39915 2.62559,0.70688 4.023416,2.12757 4.972992,5.4343 6.277859,9.54302 0.372891,1.17414 1.002242,3.55739 1.666232,4.96505 0.07569,0.16046 0.249026,0.60661 0.302956,0.4376 0.0893,-0.27986 -0.110956,-0.57696 -0.166434,-0.86544"
       id="path360" />
    <path
       style="fill:none;stroke:#000000;stroke-width:0.264583px;stroke-linecap:butt;stroke-linejoin:miter;stroke-opacity:1"
       d="m 65.414961,198.7008 c 0.618887,3.85719 5.310941,8.62673 9.206399,5.59693 0.922462,-0.71747 1.327401,-2.54695 1.464273,-3.45029 0.296074,-1.95409 0.440947,-5.01086 -0.824709,-6.78278 -0.382871,-0.53602 -0.953738,-0.90885 -1.43061,-1.36328"
       id="path362" />
    <path
       style="fill:none;stroke:#000000;stroke-width:0.264583px;stroke-linecap:butt;stroke-linejoin:miter;stroke-opacity:1"
       d="m 18.399248,186.57751 c -0.386573,0.0381 -1.660444,0.0331 -2.096138,0.43653 -0.824053,0.76301 -0.998692,2.19746 -0.420767,3.16417 0.706733,1.18218 2.292621,-2.02154 2.440451,-2.55827 0.09252,-0.3359 -0.02629,-0.70951 0.07645,-1.04243 0.174366,-0.565 -0.04768,0.98535 -0.08066,1.96154 -0.04197,1.24229 -0.356339,4.23663 1.64941,2.92855"
       id="path364" />
    <path
       style="fill:none;stroke:#000000;stroke-width:0.264583px;stroke-linecap:butt;stroke-linejoin:miter;stroke-opacity:1"
       d="m 26.115976,187.23504 c -0.027,-0.20116 0.120169,-0.63048 -0.08099,-0.60349 -0.201161,0.027 0.0695,0.40085 0.08099,0.60349 0.02728,0.48119 0.02948,0.96354 0.03518,1.44548 0.006,0.51049 0,1.02106 0,1.53159 0,1.81103 1.051883,-2.8278 2.107861,-2.24883 0.383781,0.21042 0.373483,2.66741 0.38654,3.06237 0.0087,0.26378 -0.211772,0.69401 0.03366,0.79104 0.226693,0.0896 0.244266,-0.42192 0.366401,-0.63288"
       id="path366" />
    <path
       style="fill:none;stroke:#000000;stroke-width:0.264583px;stroke-linecap:butt;stroke-linejoin:miter;stroke-opacity:1"
       d="m 33.741251,184.16541 c -0.281577,2.27095 -0.577445,5.22392 0.452141,7.38605"
       id="path368" />
    <path
       style="fill:none;stroke:#000000;stroke-width:0.264583px;stroke-linecap:butt;stroke-linejoin:miter;stroke-opacity:1"
       d="m 30.685007,186.26938 c 1.767935,0.29633 3.443967,0.30807 5.232654,0.216"
       id="path370" />
    <path
       style="fill:none;stroke:#000000;stroke-width:0.264583px;stroke-linecap:butt;stroke-linejoin:miter;stroke-opacity:1"
       d="m 40.907628,185.54472 c -0.24955,1.92987 -0.583377,3.84638 -0.784423,5.78277 -0.02668,0.25693 -0.291444,0.79082 -0.03366,0.77421 0.277389,-0.0179 0.179236,-0.52624 0.268854,-0.78936"
       id="path372" />
    <path
       style="fill:none;stroke:#000000;stroke-width:0.264583px;stroke-linecap:butt;stroke-linejoin:miter;stroke-opacity:1"
       d="m 40.907628,185.54472 c -1.61358,-4.87408 -0.333084,-1.12809 0,0"
       id="path374" />
    <path
       style="fill:none;stroke:#000000;stroke-width:0.264583px;stroke-linecap:butt;stroke-linejoin:miter;stroke-opacity:1"
       d="m 46.679992,188.88401 c -0.251436,-0.0639 -0.495149,-0.18002 -0.754313,-0.19162 -1.669003,-0.0747 -3.338743,2.75693 -2.029294,3.48441 0.963917,0.5355 2.486544,-0.27788 2.87805,-0.13465 0.944698,0.34562 -1.450432,3.40226 -2.187993,3.71958 -0.175294,0.0754 -0.381494,-0.0112 -0.57224,-0.0168"
       id="path376" />
    <path
       style="fill:none;stroke:#000000;stroke-width:0.264583px;stroke-linecap:butt;stroke-linejoin:miter;stroke-opacity:1"
       d="m 50.18637,188.36958 c 0.792374,0.73443 1.619237,1.37814 2.238735,2.29142 0.232497,0.34276 0.367932,0.74311 0.52175,1.12766 0.06014,0.15034 -0.02844,0.40178 0.117816,0.47126 0.12114,0.0575 0.01971,-0.2675 0.02956,-0.40125"
       id="path378" />
    <path
       style="fill:none;stroke:#000000;stroke-width:0.264583px;stroke-linecap:butt;stroke-linejoin:miter;stroke-opacity:1"
       d="m 56.300713,187.82255 c -1.561846,3.87396 -3.848248,7.3956 -5.805646,11.06484 -0.04259,0.0798 0.0766,-0.0837 0.493699,-0.64798"
       id="path380" />
    <path
       style="fill:none;stroke:#000000;stroke-width:0.264583px;stroke-linecap:butt;stroke-linejoin:miter;stroke-opacity:1"
       d="m 58.523652,189.47274 c 0.01244,0.27535 0.100714,2.08285 0.09081,2.40977 -0.01654,0.54536 -0.06804,1.08925 -0.117813,1.63258 -0.0176,0.192 -0.03795,0.38506 -0.08415,0.57225 -0.01847,0.0749 -0.02021,-0.15692 0,-0.23133 0.08959,-0.32987 0.205695,-0.65233 0.326795,-0.97198 0.229203,-0.60499 0.452872,-1.21335 0.723718,-1.80088 0.09512,-0.20633 0.158726,-0.48939 0.370273,-0.57224 0.840269,-0.32912 0.385242,3.13206 0.353568,3.30802 -0.03332,0.18512 -0.123028,0.35603 -0.168304,0.53858 -0.06974,0.28117 0.285324,-0.50607 0.458785,-0.73809 0.128278,-0.17158 0.851768,-1.12141 1.14449,-1.21181 1.169789,-0.36126 1.241282,1.77527 1.19498,2.42363"
       id="path382" />
  </g>
</svg>
