<?xml version="1.0" encoding="UTF-8" standalone="no"?>
<!-- Created with Inkscape (http://www.inkscape.org/) -->

<svg
   width="240mm"
   height="120mm"
   viewBox="0 0 240 120"
   version="1.1"
   id="svg8"
   inkscape:version="1.1.1 (3bf5ae0d25, 2021-09-20, custom)"
   sodipodi:docname="soleno.svg"
   xmlns:inkscape="http://www.inkscape.org/namespaces/inkscape"
   xmlns:sodipodi="http://sodipodi.sourceforge.net/DTD/sodipodi-0.dtd"
   xmlns="http://www.w3.org/2000/svg"
   xmlns:svg="http://www.w3.org/2000/svg"
   xmlns:rdf="http://www.w3.org/1999/02/22-rdf-syntax-ns#"
   xmlns:cc="http://creativecommons.org/ns#"
   xmlns:dc="http://purl.org/dc/elements/1.1/">
  <defs
     id="defs2" />
  <sodipodi:namedview
     id="base"
     pagecolor="#ffffff"
     bordercolor="#666666"
     borderopacity="1.0"
     inkscape:pageopacity="0.0"
     inkscape:pageshadow="2"
     inkscape:zoom="0.99437388"
     inkscape:cx="284.6012"
     inkscape:cy="179.50994"
     inkscape:document-units="mm"
     inkscape:current-layer="layer1"
     showgrid="false"
     showborder="true"
     width="200mm"
     showguides="true"
     inkscape:guide-bbox="true"
     inkscape:window-width="1920"
     inkscape:window-height="1127"
     inkscape:window-x="0"
     inkscape:window-y="0"
     inkscape:window-maximized="1"
     inkscape:pagecheckerboard="0">
    <inkscape:grid
       type="xygrid"
       id="grid815"
       units="mm"
       spacingx="10"
       spacingy="10"
       empspacing="4"
       dotted="false" />
  </sodipodi:namedview>
  <metadata
     id="metadata5">
    <rdf:RDF>
      <cc:Work
         rdf:about="">
        <dc:format>image/svg+xml</dc:format>
        <dc:type
           rdf:resource="http://purl.org/dc/dcmitype/StillImage" />
        <dc:title />
      </cc:Work>
    </rdf:RDF>
  </metadata>
  <g
     inkscape:label="Layer 1"
     inkscape:groupmode="layer"
     id="layer1"
     transform="translate(0,-177)">
    <path
       style="fill:#000000;stroke-width:0.264583"
       id="path41"
       d="m 16.222294,284.73922 c 1.185636,0.418 2.401031,0.65776 3.653695,0.72905 1.480738,-0.0877 2.992983,-0.26909 4.415049,-0.71501 0.984326,-0.30866 1.335069,-0.53258 2.242082,-0.99259 0.349001,-0.27363 0.721148,-0.52008 1.047004,-0.82091 1.39728,-1.28998 2.674271,-3.31521 3.538993,-5.00457 0.206959,-0.40432 0.375509,-0.82718 0.563263,-1.24077 0.81357,-1.99942 0.74072,-3.63816 -0.376312,-5.50539 -0.195582,-0.32693 -0.43676,-0.62434 -0.65514,-0.93651 -1.489252,-1.62709 -3.069074,-3.3878 -5.15603,-4.26066 -0.253644,-0.10609 -0.523086,-0.16953 -0.784629,-0.25429 -1.920362,-0.32143 -3.641932,0.55627 -5.23923,1.51592 -1.112989,0.70945 -2.048145,1.62688 -2.441286,2.91825 -0.07279,0.23911 -0.108596,0.48795 -0.162894,0.73192 -0.01584,0.25273 -0.06496,0.50556 -0.04753,0.75818 0.113718,1.64853 1.70235,3.07409 3.157462,3.63757 0.4209,0.16298 0.865903,0.25514 1.298854,0.38271 2.941221,0.67363 5.977772,0.80176 8.933049,0.12527 0.583248,-0.13352 1.148932,-0.33462 1.723395,-0.50193 0.516496,-0.23472 1.055315,-0.4255 1.549488,-0.70416 2.139757,-1.20659 3.443012,-3.25599 4.26825,-5.51671 0.2247,-0.61556 0.376023,-1.25547 0.564036,-1.88321 0.670134,-3.422 0.65726,-7.03538 -0.584541,-10.33774 -0.238342,-0.63383 -0.564261,-1.23119 -0.846394,-1.84678 -0.342114,-0.56429 -0.656622,-1.14627 -1.026343,-1.69287 -0.617373,-0.91274 -1.579877,-2.09484 -2.367976,-2.87433 -1.422368,-1.40683 -2.287611,-2.28829 -3.885644,-3.2589 -0.495808,-0.30114 -1.026874,-0.53997 -1.540311,-0.80996 -2.044444,-0.89728 -4.208056,-1.33985 -6.429383,-0.92416 -1.354083,0.25339 -1.680345,0.49078 -2.912674,1.05197 -0.420714,0.29512 -0.865951,0.55806 -1.262142,0.88537 -1.388239,1.14688 -2.66119,2.836 -2.866598,4.68092 -0.0436,0.3916 0.02466,0.78766 0.03699,1.18149 0.164899,0.39382 0.271266,0.81764 0.494698,1.18146 0.250584,0.40803 0.567861,0.77699 0.912313,1.1096 0.696269,0.67235 1.40895,1.33732 2.199702,1.89549 0.513472,0.36244 1.108215,0.59641 1.684826,0.84648 1.581471,0.68589 2.369816,0.85009 4.032647,1.32385 2.569211,0.52745 5.283585,1.23153 7.905463,0.58646 1.631328,-0.40136 1.965621,-0.76315 3.378641,-1.63787 2.190465,-2.00874 3.633764,-4.21772 4.147662,-7.19133 0.327326,-1.89405 0.14538,-2.42007 -0.04321,-4.31107 -0.223094,-0.7542 -0.395576,-1.52525 -0.669283,-2.26259 -1.177316,-3.17157 -3.159841,-6.08702 -5.384818,-8.6135 -0.520888,-0.59147 -1.095737,-1.13314 -1.643605,-1.69971 -2.2313,-2.11164 -4.630084,-4.37488 -7.778057,-4.94443 -1.685254,-0.3049 -2.102302,-0.11984 -3.777749,0.0961 -0.60329,0.19947 -1.234129,0.32958 -1.809872,0.59841 -1.985135,0.92691 -4.268671,2.99957 -4.495566,5.32036 -0.05204,0.53231 0.109209,1.0641 0.163814,1.59616 1.371627,1.82619 1.477166,2.2838 3.965997,3.54261 0.775415,0.39219 1.657934,0.54744 2.516859,0.67909 2.08134,0.319 3.725188,0.19608 5.730851,-0.49654 0.95353,-0.32929 1.817125,-0.87674 2.725685,-1.31511 0.789705,-0.62011 1.647288,-1.16238 2.369111,-1.86034 2.14312,-2.07225 3.4974,-4.71641 4.200282,-7.58841 0.56234,-2.29773 0.514003,-3.43468 0.637495,-5.77161 -0.04554,-0.93218 -0.03503,-1.8688 -0.13661,-2.79655 -0.378761,-3.45913 -1.444747,-7.022 -3.273684,-10.00012 -0.396179,-0.64511 -0.882528,-1.2303 -1.32379,-1.84546 -0.896347,-0.86913 -1.736529,-1.80022 -2.689042,-2.6074 -1.911969,-1.62025 -5.291164,-3.10448 -7.842741,-2.94124 -0.679107,0.0435 -1.331231,0.28305 -1.996846,0.42458 -0.623252,0.31013 -1.291431,0.54289 -1.869758,0.9304 -2.392985,1.60343 -4.272025,4.62097 -4.084988,7.56651 0.05013,0.78944 0.345624,1.54384 0.518437,2.31576 0.427656,0.71441 0.718711,1.53096 1.282969,2.14324 0.895901,0.97214 1.920742,1.84347 3.039765,2.54739 2.332259,1.46709 6.508147,2.09507 9.174715,1.4491 1.072758,-0.25987 2.035079,-0.85547 3.052619,-1.28321 0.902399,-0.63385 1.901825,-1.14824 2.707193,-1.90155 3.513971,-3.28682 5.496483,-8.66529 5.889051,-13.36853 0.09933,-1.19006 0.0077,-2.3884 0.01151,-3.58259 -0.143528,-1.08045 -0.217389,-2.17246 -0.430585,-3.24134 -0.502791,-2.52082 -1.47169,-5.13565 -3.083174,-7.17326 -1.22613,-1.55036 -2.886922,-2.62275 -4.429485,-3.81652 -0.680831,-0.2379 -1.339382,-0.55318 -2.042488,-0.7137 -3.128001,-0.71411 -6.561862,0.1423 -9.335493,1.63845 -0.686881,0.37051 -1.306199,0.85451 -1.959299,1.28177 -1.246333,1.25058 -1.989865,1.6447 -2.429273,3.4384 -0.660216,2.69507 1.220969,4.98438 3.430116,6.29514 0.839391,0.49803 1.873835,0.547 2.810753,0.82051 1.149131,0.0111 2.30512,0.15904 3.447393,0.0332 3.952803,-0.4355 7.856064,-2.241 10.812761,-4.89091 2.652776,-2.37753 2.907226,-3.38041 4.591712,-6.37237 0.328578,-1.06808 0.774401,-2.10692 0.985734,-3.20422 0.475893,-2.47096 0.0936,-5.10989 -1.359477,-7.20616 -0.93935,-1.35515 -2.765547,-2.51926 -3.973629,-3.43845 -1.972815,-0.62218 -1.025459,-0.57637 -2.829256,-0.30255 0,0 0.05113,0.0615 0.05113,0.0615 v 0 c 2.495018,0.81634 1.291323,0.3655 3.615526,1.3406 1.128032,0.0298 0.852395,-0.11181 1.980763,1.44425 1.51283,2.08625 1.99448,4.73898 1.578978,7.25383 -0.182703,1.10582 -0.607499,2.15774 -0.911249,3.2366 -1.603716,2.94861 -1.909903,4.06633 -4.468765,6.42414 -2.909173,2.6806 -6.803117,4.49248 -10.750352,4.85872 -1.152998,0.10698 -2.314731,-0.0736 -3.472096,-0.11039 -0.347311,-0.11315 -3.110741,-0.6984 -3.753841,-1.58514 -1.30562,-1.80025 -1.308225,-3.83074 -0.0047,-5.64042 0.422276,-0.58624 1.036728,-1.00657 1.555091,-1.50985 0.652128,-0.41729 1.26899,-0.89566 1.956383,-1.25188 2.743642,-1.42182 6.329919,-2.17521 9.375987,-1.42797 0.697786,0.17117 1.34828,0.49696 2.02242,0.74544 1.33064,0.20634 0.925848,-8.9e-4 2.30084,1.68465 1.666632,2.04306 2.705875,4.68273 3.259683,7.23368 0.23323,1.0743 0.32232,2.1749 0.483481,3.26235 0.02207,2.97819 0.203353,4.38781 -0.486982,7.34942 -0.803611,3.44757 -2.620258,7.164 -5.244549,9.59973 -0.802164,0.74452 -1.792539,1.25616 -2.68881,1.88424 -1.011489,0.41578 -1.971323,0.99101 -3.034466,1.24736 -1.888655,0.4554 -4.382313,0.26189 -6.22859,-0.26315 -0.9888,-0.2812 -1.923729,-0.73471 -2.843921,-1.19301 -0.513344,-0.25568 -1.057339,-0.51406 -1.440441,-0.94082 -0.548657,-0.61118 -0.859427,-1.39988 -1.289141,-2.09981 -0.177562,-0.75906 -0.478259,-1.49953 -0.532687,-2.27717 -0.205995,-2.94314 1.659495,-5.84888 4.089268,-7.38049 0.583231,-0.36764 1.250835,-0.58024 1.876252,-0.87037 0.673055,-0.11237 1.33717,-0.31443 2.019164,-0.33713 3.042838,-0.10126 6.142092,1.63621 8.395191,3.5262 0.452707,0.61527 0.950966,1.19948 1.358122,1.84579 1.876113,2.97807 2.951906,6.52272 3.370511,9.99923 0.112583,0.93499 0.123045,1.87947 0.184566,2.8192 -0.08835,2.39156 -0.01389,3.44055 -0.559118,5.79549 -0.663178,2.86443 -1.970587,5.51849 -4.081131,7.60324 -0.707692,0.69905 -1.553832,1.2424 -2.330749,1.8636 -2.291558,1.10122 -3.010105,1.7088 -5.599444,1.91431 -2.310293,0.18337 -3.180216,-0.27306 -5.322088,-0.89853 -0.361409,-0.10554 -0.78791,-0.0848 -1.084006,-0.31738 -0.481248,-0.37798 -0.764039,-0.95609 -1.146058,-1.43414 -0.06727,-0.51985 -0.241756,-1.03689 -0.201819,-1.55955 0.183765,-2.40499 2.417643,-4.27397 4.464942,-5.16451 0.576745,-0.25088 1.198904,-0.38069 1.798357,-0.57103 1.659617,-0.19576 2.074631,-0.3751 3.738844,-0.0522 2.231285,0.43297 3.990844,1.77331 5.803337,3.04821 0.559914,0.57042 1.147459,1.11498 1.679737,1.71127 2.237451,2.50652 4.220109,5.40999 5.410171,8.56863 0.274552,0.72872 0.450352,1.49091 0.675531,2.23636 0.211426,1.86016 0.404781,2.43302 0.106442,4.30337 -0.46337,2.90494 -1.917756,5.1873 -4.07456,7.12761 -1.382225,0.86207 -1.721979,1.22611 -3.319039,1.62527 -2.586204,0.64637 -5.279321,-0.0121 -7.812424,-0.55453 -1.658613,-0.49697 -2.49558,-0.68371 -4.066991,-1.40477 -0.585612,-0.26871 -1.122113,-0.63614 -1.705205,-0.91028 -0.102875,-0.0484 -0.25239,0.0255 -0.337345,-0.05 -0.928156,-0.82522 -0.929902,-1.11148 -1.410067,-2.17781 -0.01972,-0.38255 -0.09682,-0.76645 -0.05917,-1.14765 0.178146,-1.80363 1.490762,-3.45134 2.846666,-4.55393 0.392244,-0.31896 0.833965,-0.57173 1.250948,-0.85759 1.198198,-0.53837 1.557567,-0.78647 2.872562,-1.02327 2.198175,-0.39584 4.344339,0.082 6.357633,0.97516 2.595612,1.38968 0.481081,0.17832 2.979396,1.841 0.104843,0.0698 0.247324,0.0815 0.33797,0.16889 1.374654,1.32591 2.497887,2.89666 3.443264,4.54813 0.283194,0.60781 0.608468,1.19773 0.84958,1.82342 1.267222,3.28848 1.369584,6.89833 0.696201,10.32428 -0.180078,0.62732 -0.321694,1.26699 -0.54024,1.88197 -0.595894,1.67681 -1.498507,3.34331 -2.838564,4.54845 -0.975471,0.87726 -1.66044,1.10001 -2.829827,1.65959 -0.560869,0.17518 -1.112014,0.38523 -1.68261,0.52553 -2.953376,0.72614 -6.013063,0.56307 -8.933899,-0.22315 -0.447263,-0.15921 -0.908148,-0.28438 -1.341789,-0.47764 -0.329931,-0.14704 -0.58547,-0.46978 -0.939942,-0.53924 -0.18065,-0.0354 0.379408,0.60657 0.353462,0.42432 -0.03656,-0.25683 -0.295184,-0.43221 -0.389019,-0.67407 -0.227437,-0.58623 -0.144055,-0.84308 -0.103368,-1.44663 0.05131,-0.23572 0.08464,-0.47609 0.153925,-0.70716 0.377487,-1.25905 1.287589,-2.15005 2.368265,-2.8449 1.569374,-0.95251 3.270435,-1.7826 5.154988,-1.40244 0.891659,0.31024 1.543386,0.6252 2.324756,1.17214 0.286422,0.20049 0.524785,0.47308 0.834332,0.63561 0.121235,0.0637 -0.346353,-0.42269 -0.247785,-0.32764 0.277635,0.26772 0.524875,0.56527 0.787315,0.84791 0.223772,0.30719 0.469408,0.59959 0.671312,0.92158 1.144098,1.82454 1.251296,3.43575 0.506626,5.43822 -1.14364,2.69551 -2.52182,5.37219 -5.004143,7.0718 -0.913951,0.46908 -1.2123,0.66668 -2.201977,0.99105 -1.415719,0.464 -2.920181,0.63684 -4.402887,0.66469 -1.201162,-0.0744 -2.387892,-0.26167 -3.535823,-0.63489 0,0 0.776214,0.96535 0.776214,0.96535 z" />
    <path
       style="fill:#000000;stroke-width:0.264583"
       id="path43"
       d="m 63.15753,204.62022 c -1.41361,3.04243 -1.860425,6.42158 -2.364393,9.70472 -0.12043,1.0725 -0.267745,2.14233 -0.361291,3.2175 -0.21367,2.45583 -0.361918,5.91545 -0.455017,8.33549 -0.185304,4.81681 -0.301676,9.63684 -0.436647,14.45524 -0.104299,4.99959 -0.300178,9.99579 -0.49316,14.99219 0.04473,0.0272 -0.110879,1.31155 -0.04149,1.36908 0.412681,0.34214 0.840536,0.66555 1.260803,0.99833 2.712691,0.0158 5.434277,0.007 8.149558,0.014 4.628433,-0.0136 9.256784,0.14712 13.88459,0.048 3.353827,-0.0904 6.62958,-0.84959 9.902936,-1.5131 1.339501,-0.23003 2.662949,-0.63942 4.025696,-0.71292 0.619924,-0.0288 1.239174,0.0116 1.854372,0.0856 0.860928,0.06 1.725322,0.0301 2.587563,0.0187 1.20491,-0.0272 2.40499,-0.15233 3.60564,-0.24932 0.20455,-0.0243 1.58773,-0.0399 1.62588,-0.23704 0.16174,-0.83598 -0.26978,-0.22067 -0.0646,-0.49363 0,0 -0.0496,-0.0627 -0.0496,-0.0627 v 0 c -0.17105,-0.12159 -0.92608,-0.65874 -0.94257,-0.66721 -0.54683,-0.28078 -1.26389,0.031 -1.83274,0.006 -1.20027,0.10967 -2.40287,0.21012 -3.608769,0.22367 -0.853832,0.009 -1.707449,0.0205 -2.561175,-0.005 -0.591505,0.0238 -1.186103,-0.0437 -1.774441,0.0527 -1.312738,0.23747 -2.60251,0.58617 -3.90408,0.87577 -3.223694,0.75442 -6.468036,1.51069 -9.79456,1.59333 -4.603893,0.10878 -9.210281,0.0753 -13.814833,0.0265 -2.089615,-0.0385 -2.770716,-0.0438 -4.800097,-0.1079 -0.57876,-0.0183 -1.157404,-0.0405 -1.735934,-0.065 -0.593336,-0.0252 -1.187056,-0.11764 -1.779783,-0.0808 -0.07179,0.004 -0.135091,0.0494 -0.202639,0.0742 0.386649,0.38636 0.769064,0.777 1.159944,1.15908 0.03897,0.0381 -0.02946,-0.10542 -0.0356,-0.15957 -0.04908,-0.43307 -0.05826,-0.87015 -0.07635,-1.30503 -0.179536,-5.16134 -0.222081,-10.32517 -0.09079,-15.48907 0.198242,-8.6078 0.338153,-17.25258 1.479137,-25.79777 0.559496,-3.23383 1.110673,-6.51544 2.553227,-9.4966 0,0 -0.86871,-0.80808 -0.86871,-0.80808 z" />
    <path
       style="fill:#000000;stroke-width:0.264583"
       id="path45"
       d="m 102.78862,246.42206 c 2.01089,2.09265 4.27706,3.90793 6.40539,5.87559 0.30109,0.30123 0.60218,0.60247 0.90327,0.90371 -0.1225,-0.0585 -0.38488,-0.31006 -0.36751,-0.17543 0.0449,0.34824 0.36602,0.60797 0.46673,0.94435 0.10442,0.34871 0.18786,0.72208 0.14029,1.08297 -0.16609,1.26001 -0.92579,2.28088 -1.53672,3.34226 -1.70242,2.62118 -0.87537,1.31223 -2.48294,3.92571 0,0 0.0567,0.0564 0.0567,0.0564 v 0 c 2.49168,-1.74635 1.34174,-0.74535 3.43981,-3.01449 0.66474,-1.00527 1.52971,-2.03881 1.75354,-3.28267 0.35287,-1.96105 -2.09464,-3.76453 -3.25033,-4.97944 -1.06789,-0.9758 -2.153,-1.9289 -3.23883,-2.88456 -0.32963,-0.2901 -0.63306,-0.61205 -0.98468,-0.87507 -0.15245,-0.11403 0.30508,0.25036 0.3822,0.42442 0.0689,0.15552 -0.23741,-0.2437 -0.35612,-0.36555 0,0 -1.33084,-0.9782 -1.33084,-0.9782 z" />
    <path
       style="fill:#000000;stroke-width:0.264583"
       id="path47"
       d="m 58.704627,206.12971 c 1.71526,-1.57278 3.361079,-3.21321 5.108739,-4.75182 0.909043,-0.63418 1.625026,-1.52159 2.535264,-2.15316 0.181153,-0.1257 0.383654,-0.21835 0.566135,-0.34211 0.106531,0.0154 0.135487,-0.14997 0.228105,-0.16466 0.01992,-0.003 0.05737,0.0566 0.042,0.0436 -0.277333,-0.23571 -0.492506,-0.5708 -0.828093,-0.7117 -0.154424,-0.0648 0.148193,0.30055 0.214837,0.45421 0.105391,0.243 0.200726,0.49024 0.301087,0.73536 1.037813,2.437 1.517362,5.06815 2.445946,7.54093 0.20124,0.53589 0.451972,1.05187 0.677958,1.5778 0.153699,0.39568 0.307396,0.79136 0.461095,1.18704 0,0 0.0624,0.0501 0.0624,0.0501 v 0 c -0.07828,-0.33508 -0.156562,-0.67016 -0.234841,-1.00525 -0.05942,-0.39179 -0.0913,-0.78875 -0.17824,-1.17536 -0.119224,-0.53017 -0.289279,-1.04763 -0.439126,-1.56997 -0.560734,-1.95461 -1.113774,-3.91619 -1.811602,-5.82717 -0.227552,-0.59956 -0.943377,-2.97638 -1.858137,-2.0695 -0.62126,0.61562 0.36245,-0.37551 -0.424878,0.49246 -0.74213,0.81815 -1.652173,1.47879 -2.369762,2.32221 -1.687227,1.60776 -3.438591,3.14276 -5.314982,4.52815 0,0 0.816099,0.8389 0.816099,0.8389 z" />
    <path
       style="fill:#000000;stroke-width:0.264583"
       id="path49"
       d="m 59.780579,255.14361 c -2.14957,3.17198 -4.317941,6.33089 -6.431153,9.52728 -2.022239,3.06394 -4.12992,6.08298 -6.554073,8.84496 -0.483975,0.4042 -0.832474,1.01416 -1.375939,1.35447 -0.0033,-10e-4 -0.0067,-0.002 -0.01,-0.003 0.147571,0.17542 0.29514,0.35084 0.442711,0.52626 0,0 0.05846,0.0546 0.05846,0.0546 v 0 c 0.483741,0.46543 0.306769,0.59861 0.501751,0.43561 0.462717,-0.46516 0.821304,-1.0273 1.234485,-1.53322 2.234623,-2.93193 4.351964,-5.94955 6.378956,-9.02892 2.150404,-3.14267 4.296338,-6.2981 6.725576,-9.2354 0,0 -0.970759,-0.94256 -0.970759,-0.94256 z" />
    <path
       style="fill:#000000;stroke-width:0.264583"
       id="path51"
       d="m 42.23518,276.1291 c -0.700034,1.54224 -1.394473,3.08774 -2.155187,4.60124 -0.0673,0.14856 -0.743588,1.33477 -0.612264,1.46238 1.166148,1.13318 0.79271,0.99411 1.970928,0.74056 1.152748,-0.32752 1.504887,-0.41814 2.697274,-0.80046 0.493072,-0.15809 1.001459,-0.279 1.47342,-0.49199 0.398841,-0.17999 0.748678,-0.45316 1.123018,-0.67975 0,0 -0.05361,-0.0594 -0.05361,-0.0594 v 0 c -0.548032,0.0344 -1.101185,0.0209 -1.644095,0.10322 -1.476208,0.22377 -2.873607,0.85449 -4.353295,1.07047 -1.066419,0.12282 -1.061323,-0.12448 -0.293703,0.87508 0.03801,0.0495 -0.07325,-0.11297 -0.06651,-0.17501 0.04615,-0.42488 0.503201,-0.87058 0.569579,-1.28722 0.701538,-1.52223 1.434513,-3.03701 2.252223,-4.4996 0,0 -0.90778,-0.85955 -0.90778,-0.85955 z" />
    <path
       style="fill:#000000;stroke-width:0.264583"
       id="path53"
       d="m 54.189656,277.24954 c 0.701243,1.5924 1.580573,3.09683 2.42783,4.61376 0,0 0.06311,0.0492 0.06311,0.0492 v 0 c -0.493638,-1.26814 -0.906986,-2.56163 -1.421731,-3.82163 0,0 -1.069207,-0.8413 -1.069207,-0.8413 z" />
    <path
       style="fill:#000000;stroke-width:0.264583"
       id="path55"
       d="m 55.839132,284.73476 c 0.736407,-0.76451 1.321549,-1.65688 2.02666,-2.44721 0.467749,-0.52428 0.980681,-1.00643 1.47102,-1.50964 0,0 -0.05611,-0.057 -0.05611,-0.057 v 0 c -0.582718,0.41049 -1.167286,0.81837 -1.748157,1.23146 -1.854314,1.31875 -1.138193,0.69763 -2.459953,2.02923 0,0 0.766543,0.75317 0.766543,0.75317 z" />
    <path
       style="fill:#000000;stroke-width:0.264583"
       id="path57"
       d="m 56.445517,280.06241 c 1.020495,1.62338 2.148319,3.17147 3.352363,4.66256 0.951275,1.04638 0.443365,0.53818 1.528824,1.51949 0,0 -0.04708,-0.0647 -0.04708,-0.0647 v 0 c -0.334346,-0.45127 -0.114075,-0.16098 -0.677625,-0.85784 -1.188225,-1.4527 -2.305806,-2.96104 -3.263106,-4.57811 0,0 -0.893376,-0.68142 -0.893376,-0.68142 z" />
    <path
       style="fill:#000000;stroke-width:0.264583"
       id="path59"
       d="m 117.27908,247.28697 c 0.56335,1.78916 1.12204,3.62202 2.08302,5.24858 0.43768,0.74083 1.47877,2.125 2.03537,2.88061 0,0 0.064,0.048 0.064,0.048 v 0 c -0.29334,-0.4006 -0.62619,-0.77506 -0.88001,-1.20179 -0.22554,-0.37918 -0.37497,-0.79887 -0.55072,-1.20355 -0.69141,-1.59204 -1.31847,-3.2234 -1.70873,-4.91801 0,0 -1.04293,-0.85385 -1.04293,-0.85385 z" />
    <path
       style="fill:#000000;stroke-width:0.264583"
       id="path61"
       d="m 126.10971,250.17264 c -1.1346,1.23683 -2.20178,2.53504 -3.278,3.8223 -0.58936,0.70494 -1.21659,1.38025 -1.7637,2.11846 -0.59943,0.8088 -1.11395,1.67722 -1.67092,2.51583 0,0 0.0569,0.0563 0.0569,0.0563 v 0 c 0.76548,-0.63271 1.57093,-1.21994 2.29643,-1.89812 0.66918,-0.62553 1.25707,-1.33276 1.87919,-2.00511 1.13594,-1.22767 2.23908,-2.48553 3.38795,-3.70126 0,0 -0.90781,-0.90837 -0.90781,-0.90837 z" />
    <path
       style="fill:#000000;stroke-width:0.264583"
       id="path63"
       d="m 68.063585,191.61467 c 1.972596,-0.17394 3.955471,-0.41738 5.939907,-0.37419 0.605274,0.0132 1.219456,0.005 1.811472,0.13162 0.483801,0.10351 0.918835,0.36724 1.378254,0.55085 -0.06711,-1.2e-4 -0.191992,-0.0668 -0.201329,-3.7e-4 -0.05208,0.37068 0.123222,0.75633 0.04372,1.12212 -0.385127,1.772 -2.326182,3.25954 -3.610752,4.39751 -0.309558,0.33185 -1.128964,0.98531 -1.010936,1.61636 0.06774,0.36218 0.31964,0.68637 0.594201,0.93209 1.854113,1.65936 1.807922,1.44163 3.813977,1.97811 0,0 -0.04966,-0.0627 -0.04966,-0.0627 v 0 c -0.694655,-0.33703 -1.371774,-0.7129 -2.083966,-1.0111 -0.716709,-0.30008 -0.974826,0.17345 -1.307254,-0.96789 -0.199937,-0.68645 0.499486,-1.26765 0.837229,-1.68127 1.194282,-1.0489 3.359899,-2.80102 3.810286,-4.354 0.109418,-0.37729 0.217948,-0.83387 0.02878,-1.17816 -0.39365,-0.71645 -1.110192,-1.20022 -1.665285,-1.80033 -0.459748,-0.16442 -0.899634,-0.40172 -1.379241,-0.49326 -0.594538,-0.11347 -1.207035,-0.10039 -1.812108,-0.11584 -2.040792,-0.0521 -4.079359,0.13349 -6.118444,0.16883 0,0 0.981151,1.14164 0.981151,1.14164 z" />
    <path
       style="fill:#000000;stroke-width:0.264583"
       id="path65"
       d="m 14.532485,215.07944 c 1.275074,-1.00492 2.958968,-1.29427 4.510518,-1.61555 1.344344,-0.22458 2.714231,-0.38588 4.079356,-0.32069 0.186244,0.024 0.381655,-0.009 0.56498,0.042 0.05174,0.0145 0.132523,0.11653 0.147558,0.0649 0.0073,-0.0251 -0.02764,-0.0444 -0.04146,-0.0665 -0.135398,-0.0757 -0.270796,-0.15136 -0.406194,-0.22705 0,0 0.05934,0.0537 0.05934,0.0537 v 0 c -0.09608,-0.21116 -0.192154,-0.42232 -0.28823,-0.63348 -0.199209,-0.17912 -0.496868,-0.0603 -0.751881,-0.0678 -1.327703,0.13822 -2.66953,0.17021 -3.978156,0.46431 -1.589092,0.33036 -3.283176,0.61082 -4.638602,1.56038 0,0 0.742768,0.74575 0.742768,0.74575 z" />
    <path
       style="fill:#000000;stroke-width:0.264583"
       id="path67"
       d="m 25.172199,206.03537 c -0.23587,0.53123 -0.600122,0.99995 -1.020292,1.39751 -0.641366,0.23169 0.290101,0.91527 0.774245,0.82085 0.07399,-7.9e-4 0.148045,-0.006 0.221954,-0.002 0.228766,0.0106 0.335521,0.0156 0.533992,0.16014 0.101716,0.0741 0.394722,0.24355 0.270458,0.26337 -0.394826,0.063 -0.596222,-0.86049 -0.210804,0.25827 0.217618,1.06384 -0.09836,2.09852 -0.451565,3.09454 -0.09084,0.25617 -0.238229,0.49634 -0.284386,0.76419 -0.05626,0.32649 -0.01237,0.66249 -0.01855,0.99374 0,0 0.05872,0.0543 0.05872,0.0543 v 0 c 0.19785,-0.15401 0.438903,-0.26467 0.593549,-0.46202 0.164223,-0.20956 0.23722,-0.47737 0.336245,-0.72452 0.396025,-0.9884 0.677474,-2.05799 0.512167,-3.12519 -0.323937,-0.9138 -0.118459,-0.53796 -1.073106,-1.586 -0.308786,-0.339 -0.686546,-0.43579 -1.128169,-0.40616 -0.06203,0.014 -0.217755,-0.013 -0.186076,0.0421 0.741916,1.29145 0.646135,0.98604 0.700998,0.4657 0.12125,-0.61358 0.297555,-1.23159 0.621571,-1.77119 0,0 -0.250946,-0.23722 -0.250946,-0.23722 z" />
    <path
       style="fill:#000000;stroke-width:0.264583"
       id="path69"
       d="m 21.983672,216.53793 c -0.106692,1.64504 -0.348082,3.27291 -0.576392,4.90407 -0.03034,0.1145 -0.04606,0.23391 -0.09102,0.34351 -0.01141,0.0278 -0.04809,0.0362 -0.07213,0.0542 0.205058,0.13704 0.368679,0.4195 0.615175,0.41113 0.144768,-0.005 -0.04946,-0.2857 -0.06379,-0.42984 -0.05153,-0.51842 -0.05877,-0.98854 -0.07709,-1.51111 0.01093,-1.14577 -0.08127,-2.30258 0.02273,-3.44599 0.0357,-0.17509 0.07861,-0.35908 0.172584,-0.5144 0.01852,-0.0306 0.03226,-0.0803 0.06793,-0.0831 0.03452,-0.003 0.104399,0.09 0.07475,0.0721 -0.141431,-0.0853 -0.274575,-0.18364 -0.411863,-0.27547 0.107347,0.32014 0.126624,0.65559 0.137062,0.98994 0.0027,0.0869 0.0069,0.17399 0.0038,0.26092 -0.0013,0.0359 -0.04364,0.0824 -0.01687,0.10631 0.171678,0.15315 0.380581,0.25859 0.57087,0.38789 -0.08086,-0.26479 -0.02779,-0.66321 -0.540304,-0.58901 -0.108237,0.0157 0.07274,0.20646 0.116025,0.30689 0.06126,0.14214 0.131593,0.28019 0.19739,0.42029 0.557459,0.82438 0.318054,0.41706 0.732594,1.21338 0,0 0.06316,0.0491 0.06316,0.0491 v 0 c -0.298879,-0.63323 -0.22625,-0.33677 -0.292828,-0.86761 -0.05075,-0.12635 -0.104217,-0.25165 -0.152247,-0.37906 -0.03763,-0.0998 -0.03919,-0.21823 -0.104669,-0.30246 -0.820809,-1.05596 -0.638875,-0.82969 -0.628084,-0.34632 0.209698,0.20684 0.396521,0.43978 0.629092,0.62052 0.03396,0.0264 0.004,-0.086 0.0034,-0.12899 -0.0012,-0.0905 -7.94e-4,-0.18129 -0.0086,-0.2715 -0.03002,-0.34623 -0.09902,-0.68949 -0.156521,-1.0317 -0.195469,-0.24383 -0.371367,-0.50474 -0.586408,-0.73151 -0.20194,-0.21295 -0.582013,0.36887 -0.513594,0.53583 -0.07018,1.15891 -0.01201,2.32096 0.0043,3.48063 0.0031,0.13362 5.55e-4,1.80849 0.06069,1.90422 0.188646,0.30031 0.454678,0.54961 0.72695,0.77686 0.132887,0.11092 0.0095,-1.08733 0.109071,-0.50768 0.177247,-1.61845 0.209713,-3.25978 0.635363,-4.843 0,0 -0.650529,-0.57912 -0.650529,-0.57912 z" />
  </g>
</svg>
