<?xml version="1.0" encoding="UTF-8" standalone="no"?>
<!-- Created with Inkscape (http://www.inkscape.org/) -->

<svg
   width="240mm"
   height="120mm"
   viewBox="0 0 240 120"
   version="1.1"
   id="svg8"
   inkscape:version="1.1.2 (0a00cf5339, 2022-02-04)"
   sodipodi:docname="matrice-de-wsf.svg"
   xmlns:inkscape="http://www.inkscape.org/namespaces/inkscape"
   xmlns:sodipodi="http://sodipodi.sourceforge.net/DTD/sodipodi-0.dtd"
   xmlns="http://www.w3.org/2000/svg"
   xmlns:svg="http://www.w3.org/2000/svg"
   xmlns:rdf="http://www.w3.org/1999/02/22-rdf-syntax-ns#"
   xmlns:cc="http://creativecommons.org/ns#"
   xmlns:dc="http://purl.org/dc/elements/1.1/">
  <defs
     id="defs2" />
  <sodipodi:namedview
     id="base"
     pagecolor="#ffffff"
     bordercolor="#666666"
     borderopacity="1.0"
     inkscape:pageopacity="0.0"
     inkscape:pageshadow="2"
     inkscape:zoom="1.6076602"
     inkscape:cx="441.3246"
     inkscape:cy="228.59308"
     inkscape:document-units="mm"
     inkscape:current-layer="layer1"
     showgrid="false"
     showborder="true"
     width="200mm"
     showguides="true"
     inkscape:guide-bbox="true"
     inkscape:window-width="1920"
     inkscape:window-height="1127"
     inkscape:window-x="0"
     inkscape:window-y="0"
     inkscape:window-maximized="1"
     inkscape:pagecheckerboard="0"
     inkscape:snap-global="false">
    <inkscape:grid
       type="xygrid"
       id="grid815"
       units="mm"
       spacingx="10"
       spacingy="10"
       empspacing="4"
       dotted="false" />
  </sodipodi:namedview>
  <metadata
     id="metadata5">
    <rdf:RDF>
      <cc:Work
         rdf:about="">
        <dc:format>image/svg+xml</dc:format>
        <dc:type
           rdf:resource="http://purl.org/dc/dcmitype/StillImage" />
      </cc:Work>
    </rdf:RDF>
  </metadata>
  <g
     inkscape:label="Layer 1"
     inkscape:groupmode="layer"
     id="layer1"
     transform="translate(0,-177)">
    <path
       style="fill:none;stroke:#000000;stroke-width:0.264583px;stroke-linecap:butt;stroke-linejoin:miter;stroke-opacity:1"
       d="m 20.651286,212.56598 c 0.01451,0.36085 -0.01706,0.72652 0.04353,1.08253 0.193973,1.13984 0.594383,2.23588 0.831491,3.36753 0.652845,3.11584 0.277377,2.00568 1.22645,5.50863 0.129139,0.47664 0.404815,1.83076 0.572648,1.36632 0.155604,-0.43058 0.09347,-0.91438 0.207876,-1.3577 0.446905,-1.73176 1.055569,-3.47898 1.725343,-5.13445 0.104597,-0.25854 0.243199,-0.50212 0.374169,-0.74834 0.0651,-0.12238 0.06472,-0.43815 0.186389,-0.37174 0.236955,0.12932 0.405967,5.24591 0.557923,5.57741 0.311688,0.67996 1.136928,-0.3691 1.796834,-1.18302 3.76864,-4.6482 -1.744684,1.83016 2.037151,-2.66077 0.809278,-0.96101 1.746359,-1.83418 2.411325,-2.91021 0.390197,-0.63141 0.718087,-1.28742 1.122508,-1.91243"
       id="path924" />
    <path
       style="fill:none;stroke:#000000;stroke-width:0.264583px;stroke-linecap:butt;stroke-linejoin:miter;stroke-opacity:1"
       d="m 36.544162,219.32136 c -1.207764,0.18154 -2.433206,0.27013 -3.623291,0.54463 -0.162671,0.0375 -0.689272,0.55374 -0.684938,0.56021 0.06048,0.0902 0.203978,0.0763 0.309547,0.10184 0.406855,0.0985 0.830506,0.13431 1.22645,0.27023 0.203385,0.0698 3.382674,1.44951 2.955964,2.00115 -0.308954,0.39941 -2.513126,0.94766 -2.676329,0.21316"
       id="path926" />
    <path
       style="fill:none;stroke:#000000;stroke-width:0.264583px;stroke-linecap:butt;stroke-linejoin:miter;stroke-opacity:1"
       d="m 39.050698,223.75789 c -0.503809,-1.12116 -0.309729,-5.10173 0.697844,-5.89455 0.386225,-0.3039 1.790398,-0.0489 2.313053,-0.0489"
       id="path928" />
    <path
       style="fill:none;stroke:#000000;stroke-width:0.264583px;stroke-linecap:butt;stroke-linejoin:miter;stroke-opacity:1"
       d="m 39.424541,221.24575 c 0.812601,0.10615 1.533702,-0.25393 2.329487,-0.25393"
       id="path930" />
    <path
       style="fill:none;stroke:#000000;stroke-width:0.264583px;stroke-linecap:butt;stroke-linejoin:miter;stroke-opacity:1"
       d="m 50.955429,217.55699 c 1.751941,0.21908 5.377317,-2.47173 6.785803,-1.41538"
       id="path932" />
    <path
       style="fill:none;stroke:#000000;stroke-width:0.264583px;stroke-linecap:butt;stroke-linejoin:miter;stroke-opacity:1"
       d="m 53.35053,221.47343 c 6.146908,-1.00516 3.735612,-0.92241 7.179132,-0.92241"
       id="path934" />
    <path
       style="fill:none;stroke:#000000;stroke-width:0.264583px;stroke-linecap:butt;stroke-linejoin:miter;stroke-opacity:1"
       d="m 96.139232,202.3261 c -3.505991,0.9141 -4.471236,4.94234 -5.479336,7.96662 -1.266822,3.80044 -1.809263,7.53514 -1.766919,11.55771 0.01582,1.50359 -0.02048,2.52104 0.3326,3.99116 0.534225,2.22432 1.436388,4.31228 1.933212,6.54799 0.68149,3.0667 1.077651,6.16008 2.016366,9.16718 0.148791,0.47663 1.023977,3.22338 1.309592,3.97037 0.416716,1.08987 1.10453,2.09238 1.495785,3.17095"
       id="path936" />
    <path
       style="fill:none;stroke:#000000;stroke-width:0.264583px;stroke-linecap:butt;stroke-linejoin:miter;stroke-opacity:1"
       d="m 101.33394,208.06093 c 2.55515,-2.4885 2.07954,0.36783 1.40623,2.0001 -0.42164,1.02217 -1.19253,1.56326 -1.63984,2.47133 -0.0155,0.0314 0.0699,0 0.10489,0 0.23917,0 0.47834,0 0.71752,0 0.99377,0 1.91949,-0.15111 2.80628,0.3326"
       id="path938" />
    <path
       style="fill:none;stroke:#000000;stroke-width:0.264583px;stroke-linecap:butt;stroke-linejoin:miter;stroke-opacity:1"
       d="m 107.09811,210.26756 c 0.50249,-0.0272 3.16475,2.08171 3.10396,2.27794 -0.0331,0.10686 -0.13736,0.17661 -0.20604,0.26491"
       id="path940" />
    <path
       style="fill:none;stroke:#000000;stroke-width:0.264583px;stroke-linecap:butt;stroke-linejoin:miter;stroke-opacity:1"
       d="m 106.52678,213.78563 c 1.96564,-1.41303 3.46809,-2.92186 4.85592,-4.81435"
       id="path942" />
    <path
       style="fill:none;stroke:#000000;stroke-width:0.264583px;stroke-linecap:butt;stroke-linejoin:miter;stroke-opacity:1"
       d="m 112.40127,208.46745 c 0.74515,0.28107 1.58828,0.37905 2.23545,0.84319 1.13332,0.81279 -2.82024,4.01699 -0.91482,4.55219 0.45802,0.12865 0.92167,0.24538 1.39275,0.31181 1.17087,0.16512 2.37426,0.15923 3.55462,0.22866"
       id="path944" />
    <path
       style="fill:none;stroke:#000000;stroke-width:0.264583px;stroke-linecap:butt;stroke-linejoin:miter;stroke-opacity:1"
       d="m 130.23548,225.60905 c -0.30134,0.57413 -0.68627,1.11163 -0.90402,1.72239 -0.72895,2.0446 -1.18953,10.01522 1.72533,10.85094 0.61949,0.17762 1.34247,0.23673 1.93324,-0.0208 0.53302,-0.23234 1.91185,-1.68124 1.43432,-2.59841 -0.94136,-1.80803 -3.34583,-1.74765 -5.03052,-1.89164 -0.15189,-0.013 -0.44336,-0.1518 -0.45733,0 -0.0131,0.14197 0.70328,0.67472 0.81105,0.75981"
       id="path946" />
    <path
       style="fill:none;stroke:#000000;stroke-width:0.264583px;stroke-linecap:butt;stroke-linejoin:miter;stroke-opacity:1"
       d="m 139.94028,232.24693 c 1.44584,2.00044 2.89169,4.00088 4.33753,6.00133 -10e-4,0.0346 -0.003,0.0693 -0.004,0.10394"
       id="path948" />
    <path
       style="fill:none;stroke:#000000;stroke-width:0.264583px;stroke-linecap:butt;stroke-linejoin:miter;stroke-opacity:1"
       d="m 139.78932,237.6881 c 1.94082,-2.64919 2.9192,-3.79355 5.46834,-5.00543"
       id="path950" />
    <path
       style="fill:none;stroke:#000000;stroke-width:0.264583px;stroke-linecap:butt;stroke-linejoin:miter;stroke-opacity:1"
       d="m 149.31287,228.66223 c -0.48478,1.74635 -1.0664,3.46867 -1.45435,5.23904 -0.18183,0.82974 -0.30425,1.68839 -0.24946,2.53605 0.0643,0.99538 0.20751,2.01524 0.60284,2.931 1.01894,2.36034 4.76727,0.28038 4.84342,-1.87085 0.0388,-1.09481 -2.55715,-1.33595 -2.63997,-1.35117 -0.75829,-0.13936 -2.69691,-0.10393 -3.45069,-0.10393"
       id="path952" />
    <path
       style="fill:none;stroke:#000000;stroke-width:0.264583px;stroke-linecap:butt;stroke-linejoin:miter;stroke-opacity:1"
       d="m 142.68185,209.01032 c -1.43978,2.49386 -3.44363,4.73832 -4.31933,7.48157 -0.1867,0.58485 1.11759,0.73123 1.72534,0.64441 2.16079,-0.30868 6.07772,-6.00513 4.46926,-7.91995 -0.52464,-0.62458 -1.56597,0.45732 -2.34895,0.68598"
       id="path954" />
    <path
       style="fill:none;stroke:#000000;stroke-width:0.264583px;stroke-linecap:butt;stroke-linejoin:miter;stroke-opacity:1"
       d="m 109.93982,233.26156 c -1.57295,0.89693 -3.48414,1.36636 -4.71887,2.69079 -0.63933,0.68578 -0.59994,6.77546 1.7877,5.61257 2.53492,-1.23463 6.62276,-6.66139 4.90579,-9.66608 -0.56574,-0.99006 -2.42222,-0.97466 -3.38831,-1.01858"
       id="path956" />
    <path
       style="fill:none;stroke:#000000;stroke-width:0.264583px;stroke-linecap:butt;stroke-linejoin:miter;stroke-opacity:1"
       d="m 103.45032,191.29704 c 1.33383,-0.53816 2.38196,-1.41286 3.32301,-2.51075 0.85051,-0.99227 1.94313,-2.5059 2.34897,-3.82486 0.28939,-0.94053 -0.81067,-1.09672 -1.27406,-0.50398 -1.02759,1.31445 -1.57554,6.59411 -0.4784,7.55691 0.89788,0.78794 2.89307,0.35237 3.84565,0.22866"
       id="path958" />
    <path
       style="fill:none;stroke:#000000;stroke-width:0.264583px;stroke-linecap:butt;stroke-linejoin:miter;stroke-opacity:1"
       d="m 112.76607,187.9987 c 1.22073,-0.13815 2.44145,-0.27631 3.66218,-0.41446"
       id="path960" />
    <path
       style="fill:none;stroke:#000000;stroke-width:0.264583px;stroke-linecap:butt;stroke-linejoin:miter;stroke-opacity:1"
       d="m 113.6347,190.90008 c 0.86179,-0.0373 1.72358,-0.0747 2.58537,-0.11203"
       id="path962" />
    <path
       style="fill:none;stroke:#000000;stroke-width:0.264583px;stroke-linecap:butt;stroke-linejoin:miter;stroke-opacity:1"
       d="m 120.82538,186.27539 c -0.74421,1.56568 -2.02262,2.97625 -2.23264,4.69704 -0.073,0.59823 1.19766,-0.24934 1.72535,-0.54047 2.16548,-1.19475 4.06302,-5.00973 0.10393,-5.00973"
       id="path966" />
    <path
       style="fill:none;stroke:#000000;stroke-width:0.264583px;stroke-linecap:butt;stroke-linejoin:miter;stroke-opacity:1"
       d="m 134.68005,195.15645 c 1.35287,-1.47427 2.77019,-2.8919 4.05861,-4.42282 1.12405,-1.3356 1.95541,-3.57442 2.0995,-5.32154 0.0896,-1.0862 -0.7117,-1.12082 -1.30571,-0.32369 -0.64495,0.86549 -0.95373,2.38232 -1.10173,3.30517 -0.0645,0.40208 -0.39141,2.50741 0.14551,3.18045 0.54581,0.68419 2.14219,1.34673 3.05572,1.24724 0.41175,-0.0448 0.78992,-0.24944 1.18488,-0.37417"
       id="path968" />
    <path
       style="fill:none;stroke:#000000;stroke-width:0.264583px;stroke-linecap:butt;stroke-linejoin:miter;stroke-opacity:1"
       d="m 145.02176,189.46224 c 2.92929,-1.10894 1.82041,-1.29394 3.23918,-0.93923"
       id="path970" />
    <path
       style="fill:none;stroke:#000000;stroke-width:0.264583px;stroke-linecap:butt;stroke-linejoin:miter;stroke-opacity:1"
       d="m 146.08896,191.23225 c 0.95353,-0.14313 1.90705,-0.28626 2.86058,-0.4294"
       id="path972" />
    <path
       style="fill:none;stroke:#000000;stroke-width:0.264583px;stroke-linecap:butt;stroke-linejoin:miter;stroke-opacity:1"
       d="m 151.55115,184.59892 c 0.60547,2.4303 1.24483,5.04752 1.24483,7.57323"
       id="path974" />
    <path
       style="fill:none;stroke:#000000;stroke-width:0.264583px;stroke-linecap:butt;stroke-linejoin:miter;stroke-opacity:1"
       d="m 41.749628,215.18434 c 2.05492,2.71519 2.005372,6.27759 1.714373,9.53921 -0.154422,1.73082 0.04739,4.74665 -2.203448,5.19681"
       id="path976" />
    <path
       style="fill:none;stroke:#000000;stroke-width:0.264583px;stroke-linecap:butt;stroke-linejoin:miter;stroke-opacity:1"
       d="m 18.33201,211.69736 c -1.393364,4.50217 -2.531834,12.69982 1.383859,16.2655 0.804849,0.73291 2.355867,1.14136 3.429897,1.4759"
       id="path978" />
    <path
       style="fill:none;stroke:#000000;stroke-width:0.264583px;stroke-linecap:butt;stroke-linejoin:miter;stroke-opacity:1"
       d="m 49.484475,225.87113 c -0.359537,0.0675 -0.744945,0.0524 -1.078608,0.20237 -0.949418,0.42666 -3.237664,3.37203 -2.575809,4.57163 0.437534,0.79302 2.719901,-0.84137 3.168039,-0.74487 0.185587,0.04 -0.231346,0.30163 -0.359108,0.44204 -0.352801,0.38775 -1.276522,1.20799 -0.727565,1.80849 0.726805,0.79505 2.660666,0.69244 3.237159,0.62827"
       id="path980" />
    <path
       style="fill:none;stroke:#000000;stroke-width:0.264583px;stroke-linecap:butt;stroke-linejoin:miter;stroke-opacity:1"
       d="m 59.705274,230.129 c 0.7626,0.16692 3.383817,-1.26549 3.563249,-0.0992"
       id="path986" />
    <path
       style="fill:none;stroke:#000000;stroke-width:0.264583px;stroke-linecap:butt;stroke-linejoin:miter;stroke-opacity:1"
       d="m 59.151927,233.56205 c 2.536888,-0.69155 1.118454,-0.34555 4.268867,-0.98072"
       id="path988" />
    <path
       style="fill:none;stroke:#000000;stroke-width:0.264583px;stroke-linecap:butt;stroke-linejoin:miter;stroke-opacity:1"
       d="m 63.485434,229.66799 c -0.920583,0.65212 1.499822,-0.58157 1.660723,-0.0516 0.4542,1.49598 -0.660683,2.56226 -0.790598,3.94585 -0.07251,0.77225 3.694191,-0.1003 3.873155,-0.1114 0.335474,-0.0208 0.665197,0.097 0.997797,0.14552"
       id="path990" />
    <path
       style="fill:none;stroke:#000000;stroke-width:0.264583px;stroke-linecap:butt;stroke-linejoin:miter;stroke-opacity:1"
       d="m 68.871771,226.86087 c 0.04929,1.62585 0.03973,3.47249 0.852276,4.93507"
       id="path1025" />
    <path
       style="fill:none;stroke:#000000;stroke-width:0.264583px;stroke-linecap:butt;stroke-linejoin:miter;stroke-opacity:1"
       d="m 67.899149,225.71797 c 2.504163,-2.696 4.954342,-0.0492 2.323209,1.63466 -0.396907,0.25401 -0.904124,0.26673 -1.351169,0.41575"
       id="path1027" />
    <path
       style="fill:none;stroke:#000000;stroke-width:0.264583px;stroke-linecap:butt;stroke-linejoin:miter;stroke-opacity:1"
       d="m 89.090763,252.75973 c 0.970736,0.65362 1.941471,1.30724 2.912206,1.96086"
       id="path1029" />
    <path
       style="fill:none;stroke:#000000;stroke-width:0.264583px;stroke-linecap:butt;stroke-linejoin:miter;stroke-opacity:1"
       d="m 159.73166,204.0023 c 3.73211,-0.16314 5.59667,6.46799 6.35577,9.10414 1.28797,4.47276 1.68576,9.14854 1.75902,13.78195 0.0593,3.75218 0.27777,7.55384 -0.24946,11.28749 -0.53101,3.76039 -1.44046,7.41997 -2.43211,11.07961 -0.39767,1.46759 -1.97816,7.79866 -3.38832,8.58514 -0.16021,0.0894 -0.36028,-0.0693 -0.54042,-0.10393"
       id="path1064" />
    <path
       style="fill:none;stroke:#000000;stroke-width:0.264583px;stroke-linecap:butt;stroke-linejoin:miter;stroke-opacity:1"
       d="m 50.996161,230.2872 c 2.105682,-0.57063 2.289369,-0.88167 2.434627,1.7813 0.04339,0.79538 0.183362,1.90936 -0.04158,2.70233 -0.01553,0.0548 -0.04883,-0.1053 -0.05399,-0.16198 -0.02498,-0.27426 -0.0367,-0.55 -0.03597,-0.8254 0.0021,-0.78708 -0.146494,-2.33007 0.642808,-2.82661 0.838261,-0.52733 1.592366,2.51696 1.743866,3.07751"
       id="path1635" />
  </g>
</svg>
