<?xml version="1.0" encoding="UTF-8" standalone="no"?>
<!-- Created with Inkscape (http://www.inkscape.org/) -->

<svg
   width="240mm"
   height="120mm"
   viewBox="0 0 240 120"
   version="1.1"
   id="svg8"
   inkscape:version="1.1.2 (0a00cf5339, 2022-02-04, custom)"
   sodipodi:docname="molécule-avec-des-éléctrons-confinées.svg"
   xmlns:inkscape="http://www.inkscape.org/namespaces/inkscape"
   xmlns:sodipodi="http://sodipodi.sourceforge.net/DTD/sodipodi-0.dtd"
   xmlns="http://www.w3.org/2000/svg"
   xmlns:svg="http://www.w3.org/2000/svg"
   xmlns:rdf="http://www.w3.org/1999/02/22-rdf-syntax-ns#"
   xmlns:cc="http://creativecommons.org/ns#"
   xmlns:dc="http://purl.org/dc/elements/1.1/">
  <defs
     id="defs2">
    <marker
       style="overflow:visible"
       id="Arrow1Lstart"
       refX="0.0"
       refY="0.0"
       orient="auto"
       inkscape:stockid="Arrow1Lstart"
       inkscape:isstock="true">
      <path
         transform="scale(0.8) translate(12.5,0)"
         style="fill-rule:evenodd;fill:context-stroke;stroke:context-stroke;stroke-width:1.0pt"
         d="M 0.0,0.0 L 5.0,-5.0 L -12.5,0.0 L 5.0,5.0 L 0.0,0.0 z "
         id="path990" />
    </marker>
    <marker
       style="overflow:visible;"
       id="Arrow1Lend"
       refX="0.0"
       refY="0.0"
       orient="auto"
       inkscape:stockid="Arrow1Lend"
       inkscape:isstock="true">
      <path
         transform="scale(0.8) rotate(180) translate(12.5,0)"
         style="fill-rule:evenodd;fill:context-stroke;stroke:context-stroke;stroke-width:1.0pt;"
         d="M 0.0,0.0 L 5.0,-5.0 L -12.5,0.0 L 5.0,5.0 L 0.0,0.0 z "
         id="path993" />
    </marker>
  </defs>
  <sodipodi:namedview
     id="base"
     pagecolor="#ffffff"
     bordercolor="#666666"
     borderopacity="1.0"
     inkscape:pageopacity="0.0"
     inkscape:pageshadow="2"
     inkscape:zoom="0.99437388"
     inkscape:cx="489.25259"
     inkscape:cy="280.07574"
     inkscape:document-units="mm"
     inkscape:current-layer="layer1"
     showgrid="false"
     showborder="true"
     width="200mm"
     showguides="true"
     inkscape:guide-bbox="true"
     inkscape:window-width="1920"
     inkscape:window-height="1127"
     inkscape:window-x="0"
     inkscape:window-y="0"
     inkscape:window-maximized="1"
     inkscape:pagecheckerboard="0">
    <inkscape:grid
       type="xygrid"
       id="grid815"
       units="mm"
       spacingx="10"
       spacingy="10"
       empspacing="4"
       dotted="false" />
  </sodipodi:namedview>
  <metadata
     id="metadata5">
    <rdf:RDF>
      <cc:Work
         rdf:about="">
        <dc:format>image/svg+xml</dc:format>
        <dc:type
           rdf:resource="http://purl.org/dc/dcmitype/StillImage" />
      </cc:Work>
    </rdf:RDF>
  </metadata>
  <g
     inkscape:label="Layer 1"
     inkscape:groupmode="layer"
     id="layer1"
     transform="translate(0,-177)">
    <path
       style="fill:none;stroke:#000000;stroke-width:0.264583px;stroke-linecap:butt;stroke-linejoin:miter;stroke-opacity:1;marker-end:url(#Arrow1Lend)"
       d="M 16.374923,235.95843 H 202.48315"
       id="path988" />
    <text
       xml:space="preserve"
       style="font-size:4.23333px;line-height:1.25;font-family:sans-serif;stroke-width:0.264583"
       x="205.80017"
       y="242.41289"
       id="text4450"><tspan
         sodipodi:role="line"
         id="tspan4448"
         style="stroke-width:0.264583"
         x="205.80017"
         y="242.41289">$z$</tspan></text>
    <path
       style="fill:none;stroke:#000000;stroke-width:0.264583px;stroke-linecap:butt;stroke-linejoin:miter;stroke-opacity:1;marker-end:url(#Arrow1Lend);marker-start:url(#Arrow1Lstart)"
       d="M 76.083969,249.74882 H 153.1534"
       id="path15115" />
    <text
       xml:space="preserve"
       style="font-size:4.23333px;line-height:1.25;font-family:sans-serif;stroke-width:0.264583"
       x="103.69549"
       y="259.33646"
       id="text18977"><tspan
         sodipodi:role="line"
         id="tspan18975"
         style="stroke-width:0.264583"
         x="103.69549"
         y="259.33646">$\sim a$</tspan></text>
    <path
       style="fill:#000000;stroke:none;stroke-width:0.264999"
       id="path23668"
       d="m 65.413106,234.30283 c 0.694642,0.198 1.324557,0.61406 1.739321,1.21585 0.110878,0.16088 0.174617,0.35007 0.275717,0.51726 0.09457,0.1564 0.20693,0.30134 0.310395,0.452 0.04934,0.14863 0.09869,0.29726 0.14803,0.44589 0,0 0.07043,-0.0379 0.07043,-0.0379 v 0 c -0.02283,-0.16353 -0.04565,-0.32706 -0.06848,-0.49058 -0.01474,-0.2024 0.0097,-0.41155 -0.04418,-0.6072 -0.258448,-0.93837 -1.23194,-1.4125 -2.044369,-1.76286 0,0 -0.386874,0.26757 -0.386874,0.26757 z" />
    <path
       style="fill:#000000;stroke:none;stroke-width:0.264999"
       id="path23670"
       d="m 75.26194,235.09028 c -0.370073,0.49177 -0.508323,1.0537 -0.647427,1.63961 0,0 0.07294,-0.0329 0.07294,-0.0329 v 0 c 0.512048,-0.69461 1.010528,-1.40452 1.599422,-2.03799 0,0 -1.024938,0.43123 -1.024938,0.43123 z" />
    <path
       style="fill:#000000;stroke:none;stroke-width:0.264999"
       id="path23672"
       d="m 80.188524,239.14177 c 0.841719,0.45651 1.904021,0.17327 2.802853,0.39671 0.304615,0.0757 0.557509,0.28859 0.836263,0.43288 0,0 0.06694,-0.0438 0.06694,-0.0438 v 0 c -0.273262,-0.14835 -0.573413,-0.25537 -0.819782,-0.44505 -0.239456,-0.18437 -0.347525,-0.52946 -0.618837,-0.66257 -1.16282,-0.5705 -1.896517,0.14249 -2.994827,0.61119 0,0 0.727393,-0.28935 0.727393,-0.28935 z" />
    <path
       style="fill:#000000;stroke:none;stroke-width:0.264999"
       id="path23674"
       d="m 84.352819,222.06834 c -1.067331,2.16075 -1.622594,4.50154 -2.218425,6.82117 0,0 0.07246,-0.0339 0.07246,-0.0339 v 0 c 1.088425,-2.49208 2.2068,-4.97558 3.47363,-7.38282 0,0 -1.327669,0.59554 -1.327669,0.59554 z" />
    <path
       style="fill:#000000;stroke:none;stroke-width:0.264999"
       id="path23676"
       d="m 75.311539,242.37155 c -0.433152,0.92867 -0.09301,0.1145 -0.446149,1.31689 -0.09854,0.33551 -0.216109,0.66513 -0.324164,0.9977 0,0 0.07276,-0.0333 0.07276,-0.0333 v 0 c 0.542956,-0.96859 1.100135,-1.91676 1.827231,-2.76333 0,0 -1.129673,0.48201 -1.129673,0.48201 z" />
    <path
       style="fill:#000000;stroke:none;stroke-width:0.264999"
       id="path23678"
       d="m 76.238181,242.90012 c -0.592794,1.01996 -0.04432,-0.0913 -0.320373,1.10384 -0.06699,0.29004 -0.199533,0.56093 -0.2993,0.8414 0,0 0.0728,-0.0332 0.0728,-0.0332 v 0 c 0.178816,-0.31575 0.326348,-0.65139 0.536454,-0.94725 0.365633,-0.51485 0.85929,-0.93001 1.204661,-1.46207 0,0 -1.194242,0.49725 -1.194242,0.49725 z" />
    <path
       style="fill:#000000;stroke:none;stroke-width:0.264999"
       id="path23680"
       d="m 91.939429,228.68727 c 0.100139,1.51642 0.518292,2.97511 0.852961,4.45133 0,0 0.07098,-0.0369 0.07098,-0.0369 v 0 c 0.02657,-0.60933 0.03902,-1.21945 0.07972,-1.82801 0.07086,-1.0597 0.230934,-2.1019 0.101915,-3.16583 0,0 -1.105572,0.57942 -1.105572,0.57942 z" />
    <path
       style="fill:#000000;stroke:none;stroke-width:0.264999"
       id="path23682"
       d="m 80.798299,233.33779 c -0.0066,-0.21458 -0.191694,-0.3654 -0.235136,-0.56458 -0.01294,-0.0593 0.02217,-0.11937 0.03326,-0.17905 -0.405175,0.35065 -1.031174,0.54882 -1.215522,1.05195 -0.09902,0.27025 0.407741,0.40651 0.603993,0.61705 0.30403,0.32616 0.597712,0.66182 0.89657,0.99273 1.78849,1.26216 0.934939,0.61459 2.566053,1.9356 0,0 0.06839,-0.0415 0.06839,-0.0415 v 0 c -1.081976,-1.63689 -0.597786,-0.76963 -1.440309,-2.60858 -0.257244,-0.35743 -0.512445,-0.71634 -0.771732,-1.0723 -0.168576,-0.23142 -0.225581,-0.68335 -0.511823,-0.6898 -0.585226,-0.0132 -1.089858,0.42763 -1.634786,0.64145 0.05824,0.0264 0.12373,0.0407 0.174725,0.0793 0.169559,0.12832 0.277278,0.32899 0.475512,0.42524 0,0 0.990807,-0.58745 0.990807,-0.58745 z" />
    <path
       style="fill:#000000;stroke:none;stroke-width:0.264999"
       id="path23684"
       d="m 71.795843,226.17025 c 0.64594,0.19459 1.335458,0.2197 1.977305,0.42617 0.439314,0.14132 0.845804,0.36945 1.268704,0.55417 0,0 0.06709,-0.0436 0.06709,-0.0436 v 0 c -0.327091,-0.24765 -0.679363,-0.46516 -0.981276,-0.74295 -1.405975,-1.29366 0.06085,-0.30293 -1.121849,-1.04481 0,0 -1.209974,0.851 -1.209974,0.851 z" />
    <path
       style="fill:#000000;stroke:none;stroke-width:0.264999"
       id="path23686"
       d="m 141.90556,221.04144 c 1.13685,0.33323 2.38162,0.48025 3.46512,0.96712 0.64467,0.28969 1.21056,0.7298 1.81584,1.0947 0,0 0.0673,-0.0433 0.0673,-0.0433 v 0 c -0.57317,-0.38595 -1.18276,-0.72268 -1.71951,-1.15787 -0.39636,-0.32136 -0.67821,-0.76679 -1.06493,-1.09969 -0.41341,-0.35588 -0.77644,-0.47582 -1.24597,-0.67063 0,0 -1.31783,0.90965 -1.31783,0.90965 z" />
    <path
       style="fill:#000000;stroke:none;stroke-width:0.264999"
       id="path23688"
       d="m 167.22309,232.55751 c -0.0588,0.26071 -0.20877,0.87412 -0.19378,1.09419 0.0187,0.27439 0.22393,0.52775 0.19632,0.80139 -0.0419,0.41551 -0.26474,0.79217 -0.39711,1.18826 0,0 0.0724,-0.034 0.0724,-0.034 v 0 c 0.13231,-0.3962 0.21674,-0.81177 0.39695,-1.18861 0.21481,-0.44923 0.55995,-0.82728 0.78051,-1.27371 0.11139,-0.22545 0.22766,-0.84073 0.28951,-1.14064 0,0 -1.14481,0.55312 -1.14481,0.55312 z" />
    <path
       style="fill:#000000;stroke:none;stroke-width:0.264999"
       id="path23690"
       d="m 149.89026,237.13675 c 0.31279,0.85858 0.0716,0.41433 0.83604,1.2652 0,0 0.0708,-0.0373 0.0708,-0.0373 v 0 c 0.41714,-1.43958 0.30129,-0.79613 0.43641,-1.91225 0,0 -1.3432,0.68439 -1.3432,0.68439 z" />
    <path
       style="fill:#000000;stroke:none;stroke-width:0.264999"
       id="path23692"
       d="m 144.88591,238.6334 c -0.31246,0.48151 -0.18624,1.07978 -0.37442,1.59111 -0.15905,0.43216 -0.42416,0.81751 -0.63625,1.22627 0,0 0.0729,-0.0329 0.0729,-0.0329 v 0 c 0.21208,-0.40876 0.38637,-0.83946 0.63624,-1.22627 0.47631,-0.73737 1.12469,-1.35393 1.56083,-2.12111 0,0 -1.25934,0.56287 -1.25934,0.56287 z" />
    <path
       style="fill:#000000;stroke:none;stroke-width:0.264999"
       id="path23694"
       d="m 146.44101,229.36568 c 0.0777,0.43332 0.15157,1.12549 0.45411,1.47202 0.21255,0.24345 0.5451,0.34734 0.81765,0.521 0,0 0.0693,-0.0399 0.0693,-0.0399 v 0 c -0.01,-0.86284 -0.0535,-1.71877 -0.12971,-2.57849 0,0 -1.21138,0.62538 -1.21138,0.62538 z" />
    <path
       style="fill:#000000;stroke:none;stroke-width:0.264999"
       id="path23696"
       d="m 159.51782,231.84498 c 0.63732,0.27621 0.3732,0.0686 0.79218,0.62306 0,0 0.0705,-0.0378 0.0705,-0.0378 v 0 c 0.1154,-0.85716 -0.004,-0.43844 0.37334,-1.2521 0,0 -1.236,0.66689 -1.236,0.66689 z" />
    <path
       style="fill:#000000;stroke:none;stroke-width:0.264999"
       id="path23698"
       d="m 151.31588,246.19804 c 0.0755,0.11398 0.15101,0.22796 0.22652,0.34194 0,0 0.0713,-0.0363 0.0713,-0.0363 v 0 c 0.0755,-0.19092 0.15102,-0.38185 0.22653,-0.57277 0,0 -0.52433,0.26715 -0.52433,0.26715 z" />
    <path
       style="fill:#000000;stroke:none;stroke-width:0.264999"
       id="path23700"
       d="m 143.74328,237.65188 c 0.64624,1.19184 0.25386,0.57038 1.22428,1.83374 0,0 0.0702,-0.0383 0.0702,-0.0383 v 0 c 0.0718,-1.81755 0.0584,-0.98012 0.0574,-2.51193 0,0 -1.35194,0.71651 -1.35194,0.71651 z" />
    <path
       style="fill:#000000;stroke:none;stroke-width:0.264999"
       id="path23702"
       d="m 122.41284,233.67426 c 0.30729,0.1347 0.61458,0.26939 0.92186,0.40408 0,0 0.0693,-0.04 0.0693,-0.04 v 0 c 0.0393,-0.32284 0.0787,-0.64568 0.11806,-0.96853 0,0 -1.10918,0.60449 -1.10918,0.60449 z" />
    <path
       style="fill:#000000;stroke:none;stroke-width:0.264999"
       id="path23704"
       d="m 125.81517,221.40356 c 0.20885,0.8952 0.11805,0.39988 0.24153,1.49132 0,0 0.0718,-0.0352 0.0718,-0.0352 v 0 c 0.52457,-1.43885 0.23917,-0.7721 0.83457,-2.00938 0,0 -1.14793,0.55328 -1.14793,0.55328 z" />
    <path
       style="fill:#000000;stroke:none;stroke-width:0.264999"
       id="path23706"
       d="m 106.58735,232.09263 c 0.009,1.29164 0.50841,2.35599 1.05797,3.49407 0,0 0.0706,-0.0376 0.0706,-0.0376 v 0 c 0.061,-1.35325 0.10589,-2.70324 0.0749,-4.05652 0,0 -1.20345,0.60008 -1.20345,0.60008 z" />
    <path
       style="fill:#000000;stroke:none;stroke-width:0.264999"
       id="path23708"
       d="m 104.7189,229.48196 c 0.0674,0.52834 0.13486,1.05668 0.20229,1.58503 0.17379,0.79078 0.39907,1.57199 0.52137,2.37235 0.14776,0.96698 0.19161,1.947 0.28741,2.9205 0,0 0.071,-0.0369 0.071,-0.0369 v 0 c -0.0558,-0.99414 -0.17581,-1.98674 -0.16739,-2.9824 0.0127,-1.49794 0.3236,-2.98271 0.30753,-4.48344 0,0 -1.22221,0.62482 -1.22221,0.62482 z" />
    <path
       style="fill:#000000;stroke:none;stroke-width:0.264999"
       id="path23710"
       d="m 93.80507,226.40001 c -0.681668,-0.81988 -1.240711,-1.7289 -1.792328,-2.63777 -0.391779,-0.45851 -0.163949,-0.24175 -0.697407,-0.63533 0,0 -0.06948,0.0397 -0.06948,0.0397 v 0 c 0.02304,0.68435 -0.04518,0.3717 0.170125,0.94483 0.617722,0.87045 1.351372,1.65795 1.910252,2.57136 0,0 0.478835,-0.28275 0.478835,-0.28275 z" />
    <path
       style="fill:#000000;stroke:none;stroke-width:0.264999"
       id="path23712"
       d="m 89.937652,230.53475 c 0.350333,0.63392 0.734912,1.37586 1.186633,1.92738 0.406114,0.49583 0.884991,0.92732 1.327488,1.39098 0,0 0.06919,-0.0402 0.06919,-0.0402 v 0 c -0.45185,-1.31974 -0.928547,-2.6112 -1.490977,-3.88714 0,0 -1.09233,0.60895 -1.09233,0.60895 z" />
    <path
       style="fill:#000000;stroke:none;stroke-width:0.264999"
       id="path23714"
       d="m 103.63872,240.38717 c -0.0412,0.14546 -0.21772,0.65568 -0.13936,0.82361 0.0553,0.11856 0.21484,0.14937 0.32225,0.22405 0,0 0.0727,-0.0334 0.0727,-0.0334 v 0 c 0.64194,-0.63651 0.9088,-0.82792 1.1501,-1.67306 0,0 -1.40568,0.65881 -1.40568,0.65881 z" />
    <path
       style="fill:#000000;stroke:none;stroke-width:0.264999"
       id="path23716"
       d="m 104.45778,242.13728 c 0.2902,1.11921 0.0421,0.57055 0.81773,1.61074 0,0 0.0708,-0.0372 0.0708,-0.0372 v 0 c 0.43318,-1.63266 0.27341,-0.86768 0.51299,-2.28767 0,0 -1.40155,0.71412 -1.40155,0.71412 z" />
    <path
       style="fill:#000000;stroke:none;stroke-width:0.264999"
       id="path23718"
       d="m 148.98199,235.28033 c 0.96253,2.6592 -0.51849,-1.32529 0.92423,2.09345 0.19261,0.4564 0.33135,0.93372 0.49703,1.40057 0,0 0.0708,-0.0372 0.0708,-0.0372 v 0 c 0.0341,-0.57253 0.055,-1.146 0.10231,-1.71759 0.18964,-2.28981 0.22692,-0.88149 0.10203,-2.66695 0,0 -1.69641,0.92773 -1.69641,0.92773 z" />
    <path
       style="fill:#000000;stroke:none;stroke-width:0.264999"
       id="path23720"
       d="m 138.38809,219.79339 c 0.022,0.925 0.0293,2.19287 0.19417,3.03866 0.13909,0.71384 0.50226,1.37433 0.6189,2.09218 0.12117,0.74583 0.0594,1.51006 0.089,2.26509 0,0 0.0711,-0.0366 0.0711,-0.0366 v 0 c -0.0297,-0.75501 -0.14579,-1.51159 -0.089,-2.26505 0.0672,-0.89203 0.35678,-1.75543 0.45893,-2.64414 0.122,-1.06148 0.0224,-2.1399 0.16018,-3.2014 0,0 -1.50333,0.75126 -1.50333,0.75126 z" />
    <path
       style="fill:#000000;stroke:none;stroke-width:0.264999"
       id="path23722"
       d="m 144.63965,232.16448 c 0.43975,1.54472 -0.23173,-0.39033 0.88139,1.26771 0.17051,0.25397 0.20396,0.5768 0.30594,0.8652 0,0 0.0705,-0.0378 0.0705,-0.0378 v 0 c -0.0279,-0.328 -0.12096,-0.65691 -0.0838,-0.984 0.28617,-2.5211 0.42847,-0.1468 0.26427,-1.87498 0,0 -1.43826,0.76386 -1.43826,0.76386 z" />
    <path
       style="fill:#000000;stroke:none;stroke-width:0.264999"
       id="path23724"
       d="m 155.46254,235.73203 c 0.18154,0.65854 -0.0264,0.37232 0.95829,0.45619 0,0 0.0702,-0.0385 0.0702,-0.0385 v 0 c 0.65719,-0.94221 0.57874,-0.4882 0.56689,-1.26062 0,0 -1.59533,0.84288 -1.59533,0.84288 z" />
    <path
       style="fill:#000000;stroke:none;stroke-width:0.264999"
       id="path23726"
       d="m 151.91893,216.412 c 0.11476,1.36937 0.77687,2.61164 1.31342,3.85152 0,0 0.0706,-0.0376 0.0706,-0.0376 v 0 c 0.042,-1.52782 0.13118,-3.0547 0.12511,-4.5829 0,0 -1.50916,0.76895 -1.50916,0.76895 z" />
    <path
       style="fill:#000000;stroke:none;stroke-width:0.264999"
       id="path23728"
       d="m 147.6782,219.05764 c 0.56567,0.63914 1.18538,1.22998 1.78406,1.83805 0,0 0.0702,-0.0384 0.0702,-0.0384 v 0 c 0.0959,-0.96209 0.29254,-1.91311 -0.0945,-2.83581 0,0 -1.75967,1.0362 -1.75967,1.0362 z" />
    <path
       style="fill:#000000;stroke:none;stroke-width:0.264999"
       id="path23730"
       d="m 137.04615,201.28163 c 0.34388,0.11773 0.68777,0.23546 1.03166,0.35318 0,0 0.0699,-0.039 0.0699,-0.039 v 0 c 0.14204,-0.39034 0.28409,-0.78067 0.42613,-1.17101 0,0 -1.52765,0.85681 -1.52765,0.85681 z" />
    <path
       style="fill:#000000;stroke:none;stroke-width:0.264999"
       id="path23732"
       d="m 142.90684,200.36827 c 1.27646,0.4264 0.69042,0.0825 1.72506,1.08604 0,0 0.069,-0.0406 0.069,-0.0406 v 0 c -0.54652,-1.27566 -0.46085,-0.63751 -0.34385,-1.90077 0,0 -1.45016,0.85529 -1.45016,0.85529 z" />
    <path
       style="fill:#000000;stroke:none;stroke-width:0.264999"
       id="path23734"
       d="m 132.24209,199.86533 c 0.33569,-0.0348 0.67138,-0.0695 1.00708,-0.10429 0,0 0.0676,-0.0428 0.0676,-0.0428 v 0 c 0.0776,-0.22578 0.15513,-0.45155 0.2327,-0.67732 0,0 -1.30736,0.82441 -1.30736,0.82441 z" />
    <path
       style="fill:#000000;stroke:none;stroke-width:0.264999"
       id="path23736"
       d="m 75.298894,215.65302 c -0.01164,0.66945 0.268142,1.31381 0.267568,1.97971 -5.29e-4,0.51733 -0.123875,1.02721 -0.185814,1.54082 0,0 0.07205,-0.0348 0.07205,-0.0348 v 0 c 0.175376,-0.5694 0.331517,-1.14508 0.526129,-1.70819 0.892924,-2.58371 0.408088,-0.69094 0.83779,-2.53978 0,0 -1.517722,0.76222 -1.517722,0.76222 z" />
    <path
       style="fill:#000000;stroke:none;stroke-width:0.264999"
       id="path23738"
       d="m 68.023461,222.72244 c 0.70847,-2.3948 1.055309,-3.8407 2.086139,-6.15784 0.38712,-0.87018 1.422564,-3.23191 2.623802,-3.75858 0.237776,-0.10425 -0.284308,0.53067 -0.16492,0.76122 0.207613,0.40093 0.680249,0.59384 1.020373,0.89077 0.355788,0.36203 0.711576,0.72405 1.067364,1.08608 0,0 0.06933,-0.0399 0.06933,-0.0399 v 0 c -0.127037,-0.49829 -0.254074,-0.99657 -0.381111,-1.49486 -0.203578,-0.42377 -0.155009,-1.1558 -0.610732,-1.27132 -2.461546,-0.62396 -3.77907,2.63346 -4.395264,4.18659 -0.864097,2.17799 -1.246333,3.81766 -1.856216,6.05738 0,0 0.541234,-0.25953 0.541234,-0.25953 z" />
    <path
       style="fill:#000000;stroke:none;stroke-width:0.264999"
       id="path23740"
       d="m 78.303323,236.02234 c -0.361355,0.19369 -0.364228,0.67551 -0.644774,0.92606 -0.299429,0.26742 -0.664345,0.45091 -0.996519,0.67636 0,0 0.07451,-0.0291 0.07451,-0.0291 v 0 c 1.052422,-0.68104 2.202373,-1.28403 3.067309,-2.20607 0,0 -1.500526,0.63277 -1.500526,0.63277 z" />
    <path
       style="fill:#000000;stroke:none;stroke-width:0.264999"
       id="path23742"
       d="m 71.18832,211.73189 c -0.597048,-0.63397 -0.615961,-0.74309 -1.791891,1.38384 -0.290351,0.52517 -0.125148,1.19396 -0.16369,1.7928 -0.681664,10.59146 0.490011,-6.52476 -0.111778,5.93165 -0.05769,1.1942 -0.227941,2.3803 -0.341911,3.57045 0,0 0.07162,-0.0356 0.07162,-0.0356 v 0 c 0.47748,-4.98595 0.09784,-2.19346 1.031372,-7.17393 0.178914,-0.95452 0.330206,-1.9143 0.523201,-2.86607 0.129796,-0.64011 0.709895,-1.31125 0.444902,-1.90821 -0.160113,-0.36069 -1.724348,0.0759 -1.179065,0.10685 0,0 1.517237,-0.80174 1.517237,-0.80174 z" />
    <path
       style="fill:#000000;stroke:none;stroke-width:0.264999"
       id="path23744"
       d="m 79.174069,244.41517 c -0.290219,0.55393 -0.05595,0.75216 0.197207,1.24578 0,0 0.07202,-0.0348 0.07202,-0.0348 v 0 c 0.137824,-0.2211 0.266589,-0.44811 0.413475,-0.6633 0.746278,-1.09328 0.352808,-0.33287 0.763447,-1.21128 0,0 -1.446149,0.66363 -1.446149,0.66363 z" />
    <path
       style="fill:#000000;stroke:none;stroke-width:0.264999"
       id="path23746"
       d="m 99.88094,216.99151 c -0.04997,0.32215 -0.317164,2.03082 -0.314545,2.09774 0.01701,0.43444 0.196411,0.84707 0.294617,1.2706 0,0 0.07196,-0.035 0.07196,-0.035 v 0 c 0.297198,-0.61501 0.645398,-1.20789 0.891598,-1.84503 0.17309,-0.44795 0.41211,-1.63285 0.53604,-2.21662 0,0 -1.479666,0.72827 -1.479666,0.72827 z" />
    <path
       style="fill:#000000;stroke:none;stroke-width:0.264999"
       id="path23748"
       d="m 97.354571,217.93904 c -0.297659,0.97523 -0.122089,0.14911 -0.109087,1.30275 0.003,0.26996 -0.03049,0.5391 -0.04573,0.80865 0,0 0.07239,-0.0341 0.07239,-0.0341 v 0 c 0.187333,-0.35036 0.363358,-0.707 0.561996,-1.05107 0.868196,-1.50386 0.479655,-0.56402 0.881904,-1.66178 0,0 -1.361472,0.6355 -1.361472,0.6355 z" />
    <path
       style="fill:#000000;stroke:none;stroke-width:0.264999"
       id="path23750"
       d="m 80.862222,209.58429 c 0.412459,0.63877 0.09327,0.34222 1.195321,0.5288 0,0 0.06798,-0.0422 0.06798,-0.0422 v 0 c 0.01058,-0.83831 0.01461,-0.45775 -0.0031,-1.14174 0,0 -1.26016,0.65512 -1.26016,0.65512 z" />
    <path
       style="fill:#000000;stroke:none;stroke-width:0.264999"
       id="path23752"
       d="m 102.36886,231.49386 c -0.0729,0.28713 -0.2508,0.8595 -0.18381,1.15685 0.46851,2.07963 0.20376,-1.13945 0.32206,0.99325 0,0 0.0721,-0.0347 0.0721,-0.0347 v 0 c 0.102,-0.2316 0.18925,-0.47028 0.30601,-0.6948 0.48681,-0.93613 0.67527,-0.89781 0.58328,-1.96527 0,0 -1.09961,0.5447 -1.09961,0.5447 z" />
    <path
       style="fill:#000000;stroke:none;stroke-width:0.264999"
       id="path23754"
       d="m 96.540718,251.11087 c 0.02728,0.60264 -0.121922,0.41389 0.31114,0.65129 0,0 0.07273,-0.0333 0.07273,-0.0333 v 0 c 0.821015,-0.77474 0.466812,-0.34321 1.06454,-1.29299 0,0 -1.448414,0.67501 -1.448414,0.67501 z" />
    <path
       style="fill:#000000;stroke:none;stroke-width:0.264999"
       id="path23756"
       d="m 90.972821,252.53896 c 0.09222,0.0986 0.0788,0.0413 -0.01902,0.17549 0,0 0.07461,-0.0289 0.07461,-0.0289 v 0 c 0.870037,-0.45042 0.417962,-0.21495 1.355929,-0.707 0,0 -1.411513,0.56039 -1.411513,0.56039 z" />
    <path
       style="fill:#000000;stroke:none;stroke-width:0.264999"
       id="path23758"
       d="m 82.959841,247.77505 c -0.59854,0.464 -0.909701,1.15721 -1.25276,1.80901 0,0 0.07372,-0.0311 0.07372,-0.0311 v 0 c 0.88987,-0.78851 1.774156,-1.58344 2.668146,-2.36719 0,0 -1.48911,0.58924 -1.48911,0.58924 z" />
    <path
       style="fill:#000000;stroke:none;stroke-width:0.264999"
       id="path23760"
       d="m 72.152586,255.66628 c -0.413599,0.5436 -0.401939,0.27858 -0.297786,0.73802 0,0 0.07392,-0.0306 0.07392,-0.0306 v 0 c 1.278925,-0.88826 0.804024,-0.42429 1.534965,-1.26931 0,0 -1.311098,0.56188 -1.311098,0.56188 z" />
    <path
       style="fill:#000000;stroke:none;stroke-width:0.264999"
       id="path23762"
       d="m 84.352013,236.25473 c -0.241615,1.04955 -0.05858,0.45316 -0.648859,1.75545 0,0 0.07332,-0.032 0.07332,-0.032 v 0 c 1.488787,-1.73816 0.798311,-0.94818 2.064134,-2.37629 0,0 -1.488596,0.65284 -1.488596,0.65284 z" />
    <path
       style="fill:#000000;stroke:none;stroke-width:0.264999"
       id="path23764"
       d="m 77.080442,237.0549 c 0.140843,-0.0631 0.281686,-0.12619 0.422532,-0.18929 0,0 -0.06309,0.0492 -0.06309,0.0492 v 0 c 0.357833,-0.13959 0.715666,-0.27918 1.073496,-0.41877 0,0 -1.432936,0.55887 -1.432936,0.55887 z" />
    <path
       style="fill:#000000;stroke:none;stroke-width:0.264999"
       id="path23766"
       d="m 82.554383,210.2655 c 0.985171,0.39951 0.398722,0.21996 1.79211,0.41691 0,0 0.06711,-0.0436 0.06711,-0.0436 v 0 c -0.396539,-0.86466 -0.161308,-0.50469 -0.652042,-1.11312 0,0 -1.207177,0.73976 -1.207177,0.73976 z" />
    <path
       style="fill:#000000;stroke:none;stroke-width:0.264999"
       id="path23768"
       d="m 163.42408,211.15742 c 0.14413,1.88034 -0.19845,-0.28394 0.79832,1.57279 0.1627,0.30309 0.14054,0.6735 0.21081,1.01025 0,0 0.0707,-0.0374 0.0707,-0.0374 v 0 c -0.0387,-0.35288 -0.18009,-0.70943 -0.11621,-1.05864 0.72576,-3.96762 0.53128,0.37707 0.58822,-2.2852 0,0 -1.55185,0.79823 -1.55185,0.79823 z" />
    <path
       style="fill:#000000;stroke:none;stroke-width:0.264999"
       id="path23770"
       d="m 150.45128,248.56348 c -0.56007,0.63501 -0.94478,1.40643 -1.40018,2.11897 0,0 0.0735,-0.0316 0.0735,-0.0316 v 0 c 0.72683,-0.84648 1.45844,-1.68428 2.2523,-2.46951 0,0 -0.9256,0.38217 -0.9256,0.38217 z" />
    <path
       style="fill:#000000;stroke:none;stroke-width:0.264999"
       id="path23772"
       d="m 142.04677,252.02688 c -0.12303,0.28446 -0.24605,0.56892 -0.36907,0.85338 0,0 0.073,-0.0327 0.073,-0.0327 v 0 c 0.20661,-0.32183 0.41322,-0.64366 0.61984,-0.96549 0,0 -0.32376,0.14483 -0.32376,0.14483 z" />
    <path
       style="fill:#000000;stroke:none;stroke-width:0.264999"
       id="path23774"
       d="m 160.06715,242.155 c 0.70996,0.38174 0.43428,0.11198 0.83136,0.80482 0,0 0.071,-0.0369 0.071,-0.0369 v 0 c 0.25948,-1.07178 0.0469,-0.54117 0.68569,-1.57175 0,0 -1.58801,0.80386 -1.58801,0.80386 z" />
    <path
       style="fill:#000000;stroke:none;stroke-width:0.264999"
       id="path23776"
       d="m 169.48467,249.39115 c -0.74897,1.07378 -0.20108,0.13657 -0.65185,1.43793 -0.11136,0.32151 -0.26127,0.62835 -0.39191,0.94252 0,0 0.0732,-0.0323 0.0732,-0.0323 v 0 c 0.30701,-0.39152 0.5989,-0.79539 0.92102,-1.17457 2.69428,-3.1715 0.007,0.1621 1.5985,-1.82972 0,0 -1.54895,0.65615 -1.54895,0.65615 z" />
    <path
       style="fill:#000000;stroke:none;stroke-width:0.264999"
       id="path23778"
       d="m 156.01127,243.45324 c -0.54701,1.57792 -0.32441,0.73147 -0.62505,2.55022 0,0 0.0728,-0.0332 0.0728,-0.0332 v 0 c 1.62933,-2.3474 0.92636,-1.26212 2.14479,-3.2323 0,0 -1.59254,0.71524 -1.59254,0.71524 z" />
    <path
       style="fill:#000000;stroke:none;stroke-width:0.264999"
       id="path23780"
       d="m 165.12622,255.51017 c 0.30861,0.84587 0.0372,0.44484 0.98877,1.06425 0,0 0.0707,-0.0375 0.0707,-0.0375 v 0 c 0.58768,-1.40114 0.52217,-0.7678 0.47711,-1.84961 0,0 -1.53656,0.82284 -1.53656,0.82284 z" />
    <path
       style="fill:#000000;stroke-width:0.264999"
       id="path935"
       d="m 59.0889,239.94973 c 0.347718,1.16927 0.996892,2.23116 1.685322,3.22906 0.267248,0.38739 0.511741,0.79857 0.844121,1.13176 0.33586,0.33668 0.760172,0.57164 1.140257,0.85745 0,0 0.06866,-0.0411 0.06866,-0.0411 v 0 c -0.176339,-0.4062 -0.310097,-0.83369 -0.529021,-1.21862 -0.231278,-0.40665 -0.553273,-0.75485 -0.814202,-1.14314 -0.669581,-0.9964 -1.286002,-2.05416 -1.780482,-3.14657 0,0 -0.614654,0.33112 -0.614654,0.33112 z" />
  </g>
</svg>
