<?xml version="1.0" encoding="UTF-8" standalone="no"?>
<!-- Created with Inkscape (http://www.inkscape.org/) -->

<svg
   width="240mm"
   height="120mm"
   viewBox="0 0 240 120"
   version="1.1"
   id="svg8"
   inkscape:version="1.1.2 (0a00cf5339, 2022-02-04)"
   sodipodi:docname="bingobong.svg"
   xmlns:inkscape="http://www.inkscape.org/namespaces/inkscape"
   xmlns:sodipodi="http://sodipodi.sourceforge.net/DTD/sodipodi-0.dtd"
   xmlns="http://www.w3.org/2000/svg"
   xmlns:svg="http://www.w3.org/2000/svg"
   xmlns:rdf="http://www.w3.org/1999/02/22-rdf-syntax-ns#"
   xmlns:cc="http://creativecommons.org/ns#"
   xmlns:dc="http://purl.org/dc/elements/1.1/">
  <defs
     id="defs2" />
  <sodipodi:namedview
     id="base"
     pagecolor="#ffffff"
     bordercolor="#666666"
     borderopacity="1.0"
     inkscape:pageopacity="0.0"
     inkscape:pageshadow="2"
     inkscape:zoom="0.99437388"
     inkscape:cx="284.09837"
     inkscape:cy="179.50994"
     inkscape:document-units="mm"
     inkscape:current-layer="layer1"
     showgrid="false"
     showborder="true"
     width="200mm"
     showguides="true"
     inkscape:guide-bbox="true"
     inkscape:window-width="1920"
     inkscape:window-height="1127"
     inkscape:window-x="0"
     inkscape:window-y="0"
     inkscape:window-maximized="1"
     inkscape:pagecheckerboard="0"
     inkscape:snap-bbox="true"
     inkscape:snap-bbox-edge-midpoints="true"
     inkscape:snap-smooth-nodes="true"
     inkscape:snap-global="false">
    <inkscape:grid
       type="xygrid"
       id="grid815"
       units="mm"
       spacingx="10"
       spacingy="10"
       empspacing="4"
       dotted="false" />
  </sodipodi:namedview>
  <metadata
     id="metadata5">
    <rdf:RDF>
      <cc:Work
         rdf:about="">
        <dc:format>image/svg+xml</dc:format>
        <dc:type
           rdf:resource="http://purl.org/dc/dcmitype/StillImage" />
      </cc:Work>
    </rdf:RDF>
  </metadata>
  <g
     inkscape:label="Layer 1"
     inkscape:groupmode="layer"
     id="layer1"
     transform="translate(0,-177)">
    <path
       style="fill:none;stroke:#000000;stroke-width:0.264583px;stroke-linecap:butt;stroke-linejoin:miter;stroke-opacity:1"
       d="M 48.259931,246.93752 H 177.88924 L 204.98106,219.8457 H 70.335861 Z"
       id="path889" />
    <ellipse
       style="fill:none;stroke:#000000;stroke-width:0.565;stroke-dasharray:none;stroke-miterlimit:4;stroke-dashoffset:0"
       id="path913"
       cx="122.56235"
       cy="238.36526"
       rx="32.197838"
       ry="32.048664" />
    <path
       style="fill:none;stroke:#000000;stroke-width:0.264583px;stroke-linecap:butt;stroke-linejoin:miter;stroke-opacity:1"
       d="m 90.364507,238.36526 c 0,0 10.560053,5.64551 29.525223,6.26754 18.96518,0.62203 34.87045,-6.26754 34.87045,-6.26754"
       id="path972" />
    <path
       style="fill:none;stroke:#000000;stroke-width:0.26458299;stroke-linecap:butt;stroke-linejoin:miter;stroke-opacity:1;stroke-miterlimit:4;stroke-dasharray:0.79374896,0.79374896;stroke-dashoffset:0"
       d="m 90.364507,238.36526 c 0,0 15.546813,-9.65712 32.056173,-9.27684 16.50935,0.38029 32.3395,9.27684 32.3395,9.27684"
       id="path974" />
    <path
       style="fill:none;stroke:#000000;stroke-width:0.264583px;stroke-linecap:butt;stroke-linejoin:miter;stroke-opacity:1"
       d="m 128.6553,213.03237 c -2.16931,-0.81828 -4.68797,-0.31793 -5.41738,2.23506 -0.0703,0.24612 -0.21833,0.7261 -0.0711,0.97552 0.45684,0.77394 3.07517,2.08291 3.19288,2.78928 0.12282,0.73699 -2.2586,0.764 -2.60058,1.21739 -0.82557,1.09451 -1.02169,3.97637 -0.39509,5.08376 0.67601,1.19472 3.0566,0.61058 4.13881,0.40767 1.52347,-0.28566 2.83236,-0.97155 4.42026,-0.70429 0.90315,0.152 1.47753,0.81446 2.26632,1.17301 0.92567,0.42077 3.67857,1.06215 4.64314,1.06316 1.43491,0.002 1.82722,-1.20851 3.06387,-1.68993 0.47498,-0.18491 1.11514,0.007 1.54341,-0.23123 0.47755,-0.2653 0.84688,-0.83393 1.1591,-1.26174 1.23176,-1.68779 1.13807,-2.59621 -0.16274,-4.61699 -0.40079,-0.62261 -3.18118,-0.61385 -3.90499,-0.9033 -0.99195,-0.39667 -2.51626,-0.78311 -3.21351,-1.61577 -0.43565,-0.52027 0.16703,-1.21314 -1.35647,-1.815 -2.08667,-0.82434 -5.11318,-1.69113 -7.30593,-2.1066 -0.42531,-0.0806 -3.16986,0.0208 -3.61284,-0.39882 -0.45499,-0.43103 -0.60494,-1.09785 -0.90741,-1.64677"
       id="path1009" />
    <path
       style="fill:none;stroke:#000000;stroke-width:0.264583px;stroke-linecap:butt;stroke-linejoin:miter;stroke-opacity:1"
       d="m 126.58986,232.15834 c -4.01892,-1.13473 -0.76946,1.93263 -1.26122,2.59035 -0.82863,1.10828 -2.31713,1.00203 -3.01341,2.25536 -0.18657,0.33583 -0.64313,4.09143 -0.3038,4.30025 1.22372,0.75305 2.70078,0.13229 4.01827,0.13229 0.61306,0 1.13316,0.57989 1.714,0.43691 2.20293,-0.54228 3.37904,-3.33951 5.85849,-3.11046 0.78418,0.0724 1.54558,0.32784 2.32288,0.42478 1.2352,0.15403 2.49248,-0.002 3.74185,0.18397 1.50387,0.224 3.03374,1.60319 4.60314,0.92694 0.0655,-0.0282 0.75901,-0.55911 0.84348,-0.6025 0.25888,-0.13296 0.62373,-0.0979 0.8126,-0.3193 0.72464,-0.84946 -0.38991,-3.95056 -1.45919,-4.44953 -0.3804,-0.17752 -0.80229,-0.22606 -1.1851,-0.39497 -3.06519,-1.35241 -6.44507,-2.40456 -9.81484,-2.64974 -1.82984,-0.13314 -3.82478,0.23983 -5.67276,0.28765 -1.40395,0.0363 -2.74781,-0.33687 -4.14402,-0.33687"
       id="path1011" />
    <path
       style="fill:none;stroke:#000000;stroke-width:0.264583px;stroke-linecap:butt;stroke-linejoin:miter;stroke-opacity:1"
       d="m 134.62976,221.07717 c 0.32894,0.59321 0.65788,1.18642 0.98682,1.77962 0.0231,0.14509 0.15345,0.55575 0.0694,0.43526 -0.46802,-0.67081 -1.19972,-3.02013 -1.0562,-2.21488 0.37348,2.09543 0.22312,1.50865 0.671,1.78794"
       id="path1343" />
    <path
       style="fill:none;stroke:#000000;stroke-width:0.264583px;stroke-linecap:butt;stroke-linejoin:miter;stroke-opacity:1"
       d="m 158.33199,219.53695 c -0.0155,3.34604 -0.21689,6.67981 -0.50413,10.01185 -0.0608,0.70509 0.0566,2.34158 -0.3619,3.00156"
       id="path1380" />
    <path
       style="fill:none;stroke:#000000;stroke-width:0.264583px;stroke-linecap:butt;stroke-linejoin:miter;stroke-opacity:1"
       d="m 155.2079,230.72718 c 0.12177,0.49953 0.49579,2.35976 0.86463,3.10934 0.20188,0.41028 0.45035,0.79702 0.70577,1.17628 1.494,2.21836 1.24823,2.20222 2.02123,0.33582 0.40064,-0.96735 1.87437,-5.40366 2.46827,-5.85041"
       id="path1382" />
  </g>
</svg>
