<?xml version="1.0" encoding="UTF-8" standalone="no"?>
<!-- Created with Inkscape (http://www.inkscape.org/) -->

<svg
   width="240mm"
   height="120mm"
   viewBox="0 0 240 120"
   version="1.1"
   id="svg8"
   inkscape:version="1.1.2 (0a00cf5339, 2022-02-04, custom)"
   sodipodi:docname="champ-de-vecteur.svg"
   xmlns:inkscape="http://www.inkscape.org/namespaces/inkscape"
   xmlns:sodipodi="http://sodipodi.sourceforge.net/DTD/sodipodi-0.dtd"
   xmlns="http://www.w3.org/2000/svg"
   xmlns:svg="http://www.w3.org/2000/svg"
   xmlns:rdf="http://www.w3.org/1999/02/22-rdf-syntax-ns#"
   xmlns:cc="http://creativecommons.org/ns#"
   xmlns:dc="http://purl.org/dc/elements/1.1/">
  <defs
     id="defs2">
    <inkscape:path-effect
       effect="spiro"
       id="path-effect6074"
       is_visible="true"
       lpeversion="1" />
    <marker
       style="overflow:visible"
       id="Arrow1Lstart"
       refX="0.0"
       refY="0.0"
       orient="auto"
       inkscape:stockid="Arrow1Lstart"
       inkscape:isstock="true">
      <path
         transform="scale(0.8) translate(12.5,0)"
         style="fill-rule:evenodd;fill:context-stroke;stroke:context-stroke;stroke-width:1.0pt"
         d="M 0.0,0.0 L 5.0,-5.0 L -12.5,0.0 L 5.0,5.0 L 0.0,0.0 z "
         id="path1237" />
    </marker>
    <marker
       style="overflow:visible;"
       id="Arrow1Lend"
       refX="0.0"
       refY="0.0"
       orient="auto"
       inkscape:stockid="Arrow1Lend"
       inkscape:isstock="true">
      <path
         transform="scale(0.8) rotate(180) translate(12.5,0)"
         style="fill-rule:evenodd;fill:context-stroke;stroke:context-stroke;stroke-width:1.0pt;"
         d="M 0.0,0.0 L 5.0,-5.0 L -12.5,0.0 L 5.0,5.0 L 0.0,0.0 z "
         id="path1240" />
    </marker>
    <clipPath
       clipPathUnits="userSpaceOnUse"
       id="clipPath6160">
      <path
         id="path6162"
         style="fill:#ff0000;fill-opacity:1;fill-rule:nonzero;stroke:none;stroke-width:0.264583"
         d="m 191.69993,198.51083 -31.13764,5.3e-4 v 92.41295 c 0.0389,-0.0211 0.0757,-0.0423 0.11265,-0.0615 0.002,0.003 0.003,0.005 0.005,0.008 2e-4,-2.6e-4 8e-4,-3e-5 0.001,-5.3e-4 0.005,0.008 0.009,0.0157 0.0134,0.0238 0.0375,-0.0296 0.0733,-0.0603 0.11111,-0.0894 -0.0371,0.0158 -0.0637,0.0246 -0.11834,0.0527 -0.002,0.005 -0.004,0.008 -0.006,0.0124 -0.002,-0.003 -0.003,-0.005 -0.005,-0.007 0.004,-0.002 0.007,-0.004 0.0109,-0.006 0.24223,-0.52572 0.52869,-0.90164 0.69969,-0.48525 0.20814,-0.1513 0.41712,-0.30156 0.61857,-0.45527 0.35191,-0.29708 0.70532,-0.58567 1.0542,-0.88263 -0.009,-0.0196 -0.018,-0.0393 -0.0263,-0.0589 -0.059,-0.13539 0.16907,-0.24426 0.27234,-0.34985 0.0625,-0.0639 0.14462,-0.20218 0.21962,-0.15348 0.0206,0.0134 0.0382,0.0237 0.0584,0.0367 0.004,-0.003 0.009,-0.006 0.0129,-0.009 -0.004,0.004 -0.008,0.008 -0.0119,0.0109 0.0971,0.0624 0.19181,0.12271 0.28008,0.17673 0.0689,-0.063 0.13681,-0.12753 0.20257,-0.1943 -0.0401,-0.0376 -0.0809,-0.0745 -0.12298,-0.11007 -0.0958,-0.081 -0.2162,0.0117 -0.33694,0.10696 0.2622,-0.24575 0.6027,-0.75911 0.72813,-0.89193 0.20691,-0.2191 0.43033,-0.4243 0.67024,-0.60668 0.17728,-0.13475 0.38346,-0.22673 0.57516,-0.34003 0.33519,-0.12848 0.66564,-0.27031 1.00562,-0.38551 0.31316,-0.10605 0.45346,-0.14334 0.56482,-0.16226 0.33732,-0.41323 0.61612,-0.87054 0.96015,-1.27744 0.23258,-0.28182 0.57804,-0.34577 0.90589,-0.43667 0.0102,-0.003 -0.0199,-0.007 -0.0279,-0.0145 -0.0344,-0.0284 0.0757,-0.0474 0.11368,-0.0708 0.0259,-0.008 0.0605,-0.005 0.0775,-0.0258 0.0187,-0.0238 -0.006,-0.0678 0.015,-0.0899 0.23737,-0.25102 0.58358,-0.42536 0.84956,-0.65164 0.24702,-0.31138 0.54943,-0.47036 0.91623,-0.6196 0.0628,-0.0175 0.12581,-0.0346 0.18862,-0.0522 0.023,-0.0134 0.0456,-0.0276 0.0687,-0.0408 0.1299,-0.11569 0.32049,-0.2635 0.57981,-0.48783 0.36245,-0.3166 0.73649,-0.6182 1.11569,-0.9126 0.13797,-0.20645 0.45117,-0.48384 0.54932,-0.55449 0.0699,-0.0763 0.13954,-0.15339 0.23151,-0.19637 0.11833,-0.0553 0.24044,-0.12085 0.36484,-0.17673 -0.0299,-0.44329 0.16876,-0.7191 0.39119,-1.0573 0.16387,-0.17644 -0.1816,0.3416 -0.0971,0.28629 0.0411,-0.0269 0.0823,-0.0542 0.1235,-0.0811 0.005,-0.0771 0.0144,-0.14219 0.0305,-0.18706 0.0316,-0.0884 0.077,-0.16954 0.13126,-0.24443 -0.007,-0.34016 0.009,-0.79549 -0.0656,-1.42473 0.1311,-0.10714 0.2707,-0.20535 0.40359,-0.31057 0.0145,0.12755 0.0289,0.25525 0.0434,0.38344 0.0283,-0.0508 0.10419,-0.0967 0.25322,-0.13798 0.14775,-0.0828 0.30967,-0.14664 0.46043,-0.22531 -0.0309,-0.0703 -0.0637,-0.13991 -0.0982,-0.20877 -0.14703,0.0137 -0.33649,0.0554 -0.42427,0.0284 -0.033,0.0137 -0.0625,0.026 -0.0858,0.0351 0.0112,-0.0101 0.0221,-0.0207 0.0331,-0.031 -0.13073,0.0533 -0.19831,0.0957 -0.0336,0.031 -0.0477,0.0431 -0.0973,0.0839 -0.14779,0.12403 -0.004,-0.0335 -0.008,-0.0673 -0.0119,-0.10077 -0.007,-0.0593 0.11776,-0.11903 0.20154,-0.14108 2.5e-4,-7.9e-4 2.3e-4,-0.002 5.3e-4,-0.003 0.0593,-0.20235 0.38863,-0.1877 0.60978,-0.16743 0.0878,-0.0411 0.17544,-0.0825 0.26355,-0.123 v 5.3e-4 c 0.51775,-0.23791 0.98967,-0.34056 1.40095,-0.34054 1.70475,1e-5 2.36386,1.75668 0.88935,2.89026 0.44839,0.33136 0.89675,0.66291 1.34514,0.99425 -0.0663,0.98854 -0.28636,0.51582 -0.72089,-0.16123 -0.0264,0.0757 -0.0531,0.1512 -0.0796,0.22686 0.0282,0.0409 0.0948,0.17432 0.12557,0.22893 0.003,0.006 0.006,0.01 0.009,0.0155 -0.0502,-0.0731 -0.11735,-0.14809 -0.14108,-0.22531 -0.0929,0.26583 -0.18515,0.53155 -0.27801,0.79737 0.009,0.009 0.0181,0.0175 0.0274,0.0263 0.10211,0.008 0.24749,-0.0674 0.43409,-0.39377 0.0229,-0.0401 0.0197,-0.081 0.003,-0.12247 0.4658,0.83953 0.12311,0.37338 0.95033,1.24488 0.39408,0.41554 -0.0252,0.81348 -0.41961,0.39791 -0.21307,-0.22448 -0.41718,-0.45777 -0.63924,-0.67334 -0.0268,-0.0261 -0.15316,-0.12888 -0.30592,-0.26976 -0.0253,10e-4 -0.0478,0.005 -0.0615,0.0155 -0.0274,0.0207 0.0569,0.0387 0.0853,0.0579 -0.076,0.0414 -0.1521,0.0823 -0.2279,0.12402 -1.13907,0.6268 -0.47119,0.2665 -1.51308,0.82165 -0.69837,0.39383 -1.42534,0.73515 -2.14819,1.08366 -0.0942,0.0776 -0.19399,0.14919 -0.31265,0.2036 -0.022,0.0119 -0.0799,0.0399 -0.14727,0.0718 -0.0271,0.0362 -0.0462,0.063 -0.078,0.10594 -0.0655,0.0559 -0.13397,0.10939 -0.20361,0.16071 -0.007,0.0842 0.003,0.17274 0.0233,0.25477 0.26821,0.52041 0.0765,0.31547 0,0 -0.0293,-0.0568 -0.0632,-0.12063 -0.10439,-0.19585 -0.0659,0.0454 -0.13385,0.0872 -0.20257,0.1266 -0.0806,0.0759 -0.16246,0.15083 -0.24753,0.22221 -0.0716,0.0601 -0.15891,0.2322 -0.22531,0.1664 -0.0505,-0.05 -0.0984,-0.10219 -0.14676,-0.154 -0.0419,0.008 -0.0833,0.019 -0.12557,0.0233 -0.0406,0.007 -0.0806,0.0175 -0.12093,0.0258 -0.18794,0.15493 -0.38271,0.3009 -0.59479,0.41755 -0.11508,0.0633 -0.26454,0.28224 -0.34933,0.1819 -0.077,-0.0912 -0.15035,-0.18526 -0.22221,-0.2806 -0.0786,0.084 -0.15944,0.16575 -0.25115,0.23667 -0.0556,0.0455 -0.11281,0.0912 -0.16898,0.13695 0.0739,0.39668 -0.15189,0.92713 -0.80305,1.44384 -0.22063,0.17508 -0.44004,0.35162 -0.66198,0.52503 -0.29354,0.22935 -0.57011,0.47977 -0.9126,0.63407 -0.28643,0.24266 -0.62832,0.32788 -0.97359,0.40256 -0.3256,0.3448 -0.68469,0.65102 -1.13275,0.85473 -0.16841,0.0799 -0.33481,0.16457 -0.50539,0.23977 -0.0922,0.0406 -0.18858,0.0685 -0.28474,0.0956 -0.32201,0.41577 -0.65213,0.7607 -1.06143,1.0945 -0.0539,0.0209 -0.11065,0.0571 -0.16795,0.0961 0.0528,0.13839 0.1071,0.27957 0.17208,0.43977 0.0302,0.0744 -0.0787,0.0913 -0.18603,0.1111 -0.0448,0.0411 -0.10335,0.0888 -0.17725,0.14883 0.5414,1.34243 0.55121,-1.22622 0.61701,-0.8754 0.09,0.48001 -0.0943,1.0719 -0.31626,1.56942 h 26.79575 v -29.93873 c -0.18643,0.009 -0.41548,-0.12227 -0.58911,-0.43821 -0.31887,-0.5802 -0.50533,-1.28807 -0.91054,-1.82521 -0.11752,-0.15578 -0.26366,-0.23578 -0.34416,-0.41238 0.007,0.008 0.0176,0.0339 0.0196,0.0238 0.0643,-0.40282 0.13709,-0.35632 -0.12196,-0.34003 -0.15814,0.01 -0.1676,-0.15006 -0.01,-0.15916 0.35706,-0.0206 0.41744,-0.34066 0.57723,-0.339 0.0447,5.3e-4 0.0974,0.0265 0.1664,0.091 0.0721,0.0468 0.15222,0.083 0.21652,0.14004 0.15453,0.13717 0.23778,0.36194 0.32918,0.53279 0.24551,0.45889 0.45407,0.93462 0.66663,1.40921 z m -16.54111,78.80966 c 0.0104,-0.004 0.0209,-0.009 0.032,-0.0129 -0.004,-0.002 -0.007,-0.005 -0.0103,-0.008 -0.007,0.007 -0.0144,0.0138 -0.0217,0.0207 z m 0.0527,-0.004 c 0.0417,-0.0173 0.0894,-0.037 0.14831,-0.0625 0.006,-0.002 0.011,-0.005 0.0165,-0.007 -0.0625,0.0169 -0.12777,0.0392 -0.185,0.0615 0.006,0.004 0.0127,0.005 0.0202,0.008 z m -0.19121,0.54364 c -0.0237,0.0425 -0.0136,0.0883 0.016,0.13746 -0.005,-0.0458 -0.0108,-0.0916 -0.016,-0.13746 z m 0.016,0.13746 c 0.004,0.0369 0.009,0.0737 0.0134,0.11058 0.0232,-0.002 0.0426,-0.005 0.0682,-0.007 -0.0329,-0.0357 -0.0619,-0.0706 -0.0816,-0.10335 z m 0.047,0.38085 c 0.0182,0.14335 0.0371,0.28676 0.0589,0.42944 0.0273,-0.0134 0.0529,-0.0306 0.0806,-0.0424 -0.005,-0.0147 -0.0108,-0.0292 -0.016,-0.0439 -0.004,-0.01 0.0515,-0.0432 0.11162,-0.076 0.035,-0.0629 0.0664,-0.1218 0.0842,-0.16743 -0.13725,-0.0367 -0.22983,-0.0685 -0.31936,-0.0997 z m 0.34469,0.20671 v 5.3e-4 c 2e-4,-1.1e-4 7.9e-4,-5.3e-4 0.001,-5.3e-4 -2e-4,10e-5 -8e-4,-1.4e-4 -0.001,0 z m 0.005,5.3e-4 c -0.002,0.002 -0.004,0.003 -0.006,0.005 2.3e-4,0.005 0.008,0.0182 0.015,0.0305 0.003,-0.003 0.006,-0.006 0.01,-0.009 1.7e-4,-0.005 5.3e-4,-0.0104 5.3e-4,-0.0155 -0.007,-0.005 -0.0158,-0.0104 -0.0191,-0.0109 z m -0.20981,0.22376 c -0.016,0.008 -0.0362,0.0178 -0.0475,0.0248 0.004,0.01 0.007,0.0193 0.0108,0.0289 0.004,-0.004 0.009,-0.009 0.0135,-0.0129 0.008,-0.0137 0.0152,-0.027 0.0232,-0.0408 z m 0.69401,0.37414 c -0.0163,0.002 -0.0335,0.004 -0.0491,0.005 -0.002,0.002 -0.003,0.004 -0.005,0.006 0.008,0.0111 0.0169,0.0232 0.0253,0.0346 0.01,-0.0154 0.0186,-0.0296 0.0289,-0.0455 z m 0.005,10e-4 0.0305,0.13178 c 0.008,0.0113 0.0159,0.022 0.0243,0.0336 0.006,-0.008 0.0132,-0.0169 0.0191,-0.0248 10e-4,-0.002 0.003,-0.005 0.004,-0.007 -5.3e-4,-0.0245 -0.001,-0.0576 -0.002,-0.0899 -0.0194,-0.0114 -0.0543,-0.0311 -0.0754,-0.0434 z m 0.0548,0.16537 c -0.004,0.005 -0.008,0.0113 -0.0124,0.0165 l 0.001,0.006 c 0.004,-0.006 0.009,-0.0146 0.0129,-0.0212 -2.6e-4,-2.6e-4 -0.001,-10e-4 -0.002,-0.002 z m -0.23099,-0.15141 c -0.0475,0.003 -0.0918,0.006 -0.13281,0.008 0.0201,0.0337 0.041,0.0684 0.063,0.10335 0.0236,-0.0363 0.0472,-0.0727 0.0708,-0.10904 -1.8e-4,-5.2e-4 -7.9e-4,-5.2e-4 -0.001,-0.002 z m -0.34623,0.017 c -0.0287,0.001 -0.0588,0.003 -0.0822,0.005 0.0303,0.0821 0.0607,0.16433 0.0909,0.24649 0.0225,-0.0293 0.0448,-0.0544 0.0672,-0.0775 -0.0257,-0.0577 -0.051,-0.11563 -0.076,-0.17363 z m 0.67127,0.0563 c -0.002,0.006 -0.004,0.0122 -0.005,0.0181 0.003,-0.003 0.008,-0.008 0.0103,-0.0109 -0.001,-0.002 -0.002,-0.003 -0.003,-0.005 -0.001,-7.9e-4 -0.002,-0.001 -0.003,-0.002 z m 0.0109,0.0165 -5.3e-4,5.3e-4 c -0.008,0.0105 -0.0162,0.021 -0.0243,0.0315 0.003,-0.01 0.006,-0.0203 0.009,-0.03 -0.0198,0.0206 -0.0435,0.0451 -0.0646,0.0672 2.2e-4,0.009 2.6e-4,0.0172 5.3e-4,0.0258 -0.004,-0.005 -0.007,-0.0101 -0.01,-0.0139 l -0.001,-5.2e-4 c -0.007,0.007 -0.0136,0.0148 -0.0207,0.0222 l 0.007,0.031 c 0.001,-5.3e-4 0.002,-10e-4 0.003,-0.002 0.007,-0.009 0.0144,-0.019 0.0217,-0.0284 -8e-5,-0.003 7e-5,-0.005 0,-0.008 h 5.2e-4 c 8e-4,0.002 0.002,0.002 0.003,0.004 0.0171,-0.0223 0.034,-0.0449 0.0512,-0.0672 -0.008,0.0261 -0.0154,0.0515 -0.0233,0.077 0.0271,-0.0111 0.054,-0.0226 0.0811,-0.0336 -0.0109,-0.0252 -0.0224,-0.0503 -0.0336,-0.0754 z m -0.29714,0.0176 c -0.0195,0.0278 -0.0388,0.0556 -0.0579,0.0837 0.0108,0.0165 0.0231,0.034 0.0341,0.0506 0.0141,-0.0247 0.0285,-0.0502 0.0444,-0.077 -0.007,-0.0192 -0.0135,-0.0378 -0.0207,-0.0574 z m 0.21446,0.015 c -0.001,0.002 -0.003,0.004 -0.004,0.006 -0.006,0.009 -0.0119,0.0177 -0.0176,0.0264 0.004,0.006 0.008,0.0106 0.0119,0.0165 0.003,-0.004 0.007,-0.007 0.0103,-0.0114 -2.5e-4,-0.01 -7.9e-4,-0.0269 -10e-4,-0.0372 z m 0.18035,0.0176 c -0.0217,0.009 -0.0434,0.0176 -0.0651,0.0264 0.0113,0.026 0.0224,0.052 0.0336,0.078 0.0369,-0.0194 0.0708,-0.0369 0.10593,-0.0553 -0.0205,-0.0146 -0.0472,-0.0318 -0.0744,-0.0491 z m -0.93276,0.0543 c 0.0147,0.0702 0.0301,0.14017 0.0465,0.20981 0.0257,-0.0245 0.0515,-0.0526 0.0775,-0.0863 -0.0398,-0.0397 -0.0829,-0.0824 -0.12402,-0.12351 z m 1.03663,0.0176 c -0.0399,0.0228 -0.0796,0.0457 -0.11937,0.0687 0.001,0.003 0.002,0.006 0.004,0.009 0.0419,-0.025 0.0819,-0.0486 0.12248,-0.0729 -0.002,-0.002 -0.004,-0.003 -0.007,-0.005 z m 0.0284,0.0398 c -0.0442,0.021 -0.0885,0.0416 -0.13281,0.0625 0.002,0.004 0.003,0.008 0.005,0.0114 0.0434,-0.0216 0.0868,-0.0435 0.13023,-0.0651 -8e-4,-0.003 -0.001,-0.006 -0.002,-0.009 z m 0.005,0.0186 c -0.0124,0.0358 -0.0323,0.0821 -0.0517,0.12764 0.0298,-0.0173 0.0547,-0.0336 0.0698,-0.0491 5e-5,-0.002 -5e-5,-0.003 0,-0.005 -0.006,-0.0246 -0.012,-0.0493 -0.0181,-0.0739 z m -0.10077,0.005 c -0.0187,0.011 -0.0239,0.0136 -0.0429,0.0248 0.002,0.004 0.003,0.008 0.005,0.0119 l 0.005,-0.005 c 0.0111,-0.0104 0.042,-0.0359 0.0331,-0.0315 z m -0.35553,0.0372 c -0.009,0.0119 -0.0175,0.0238 -0.0259,0.0357 0.002,0.002 0.003,0.004 0.005,0.007 0.008,-0.0113 0.0158,-0.0231 0.0238,-0.0346 -8e-4,-0.003 -0.002,-0.006 -0.003,-0.008 z m 0.31574,0.003 c -0.0199,0.009 -0.04,0.0185 -0.0599,0.0279 0.003,0.004 0.005,0.008 0.008,0.0114 0.011,-0.006 0.022,-0.011 0.0331,-0.0165 0.005,-0.008 0.0117,-0.0146 0.0191,-0.0222 z m 2.50321,0.40566 c 0.004,0.009 0.0219,0.0381 0.0357,0.0486 -0.0115,-0.0161 -0.0229,-0.032 -0.0346,-0.0481 -0.002,-0.002 -7.9e-4,-2.6e-4 -0.001,-5.3e-4 z m -2.45412,0.1354 -5.3e-4,5.2e-4 c 0.003,0.005 0.007,0.009 0.0104,0.0135 0.0298,0.0271 0.0587,0.0549 0.0884,0.0822 5.3e-4,-0.0301 0.001,-0.0572 0.002,-0.0868 -0.0315,-0.005 -0.0651,-0.008 -0.10025,-0.009 z m 2.56315,0.0165 c -0.0107,0.0585 -0.022,0.11692 -0.0341,0.17519 0.0459,-0.006 0.0908,-0.0143 0.13332,-0.0274 -0.0321,-0.0488 -0.0649,-0.098 -0.0992,-0.1478 z m -2.36833,0.0196 c 0.004,0.008 0.007,0.0168 0.0108,0.0253 0.004,-0.005 0.008,-0.0104 0.0114,-0.0155 -0.007,-0.004 -0.0147,-0.007 -0.0222,-0.01 z m 0.0108,0.0253 c -0.006,0.008 -0.0129,0.0168 -0.0186,0.0248 0.002,0.009 -0.0131,0.0429 -0.0238,0.0698 0.0174,0.0163 0.0354,0.0321 0.0527,0.0486 0.0165,-0.005 0.0317,-0.009 0.0439,-0.0155 -0.0181,-0.0425 -0.0365,-0.0849 -0.0543,-0.12764 z m 1.20148,0.14108 c -0.0441,-0.007 -0.0994,0.14534 -0.10904,0.21394 0.15676,0.13539 0.31898,0.26501 0.48059,0.39533 -0.10855,-0.20463 -0.22119,-0.40698 -0.35398,-0.59635 -0.006,-0.008 -0.0113,-0.012 -0.0176,-0.0129 z m -14.05134,8.25014 c -0.0555,0.0437 -0.11059,0.0855 -0.1633,0.10904 0.0477,-0.0136 0.10419,-0.0522 0.16588,-0.10749 -5.3e-4,-5.3e-4 -0.002,-7.9e-4 -0.003,-0.002 z m -0.44855,0.6904 c -0.0125,0.0299 -0.0282,0.0663 -0.0372,0.091 0.0199,-0.0138 0.0402,-0.0274 0.0599,-0.0413 -0.008,-0.0167 -0.0151,-0.0329 -0.0227,-0.0496 z m 2.12958,0.9524 c -0.0777,0.11058 -0.16102,0.21679 -0.24701,0.32091 0.008,0.005 0.014,0.008 0.0217,0.0129 0.0717,0.0444 0.25525,-0.28326 0.25425,-0.28526 -0.01,-0.016 -0.0195,-0.0326 -0.0289,-0.0486 z m -4.00233,0.3116 c -0.10749,0.005 -0.21537,0.008 -0.26717,0.0894 -0.0355,0.0559 -0.0633,0.11631 -0.0904,0.17725 0.11853,-0.0899 0.2376,-0.17903 0.3576,-0.26666 z m -0.601,0.37001 c 0.006,0.01 0.0101,0.0187 0.0155,0.0284 -2.5e-4,1.7e-4 -7.9e-4,2.2e-4 -0.001,5.3e-4 -0.005,-0.01 -0.01,-0.0195 -0.0145,-0.0289 z m 0.0196,0.0377 c -0.008,0.0164 -0.0143,0.034 -0.0217,0.0506 0.0116,-0.009 0.023,-0.0187 0.0346,-0.0279 -0.004,-0.007 -0.009,-0.0159 -0.0129,-0.0227 z m 3.08818,1.05368 c 0.009,0.0536 0.0364,0.0927 0.10181,0.10077 -0.0353,-0.0346 -0.0696,-0.0682 -0.10181,-0.10077 z m -0.30747,0.0977 c -0.0246,0.028 -0.0524,0.054 -0.0791,0.0811 0.20418,0.0171 0.40888,0.0548 0.61082,0.0413 -0.004,0.006 -0.01,0.012 -0.016,0.0171 h 0.0362 c -0.006,-0.006 -0.0122,-0.0116 -0.0181,-0.0171 0.0318,-0.002 0.0634,-0.006 0.0951,-0.0108 0.0862,-0.0138 0.0341,-0.0369 -0.0956,-0.06 0.0144,0.0222 0.014,0.0481 -5.2e-4,0.0698 2e-4,1.9e-4 2.2e-4,7.9e-4 5.2e-4,0.001 -2.6e-4,0 -5.2e-4,10e-6 -0.001,0 2.2e-4,-2.6e-4 2.2e-4,-7.9e-4 5.3e-4,-0.001 -0.0303,-0.0287 -0.0597,-0.0563 -0.0879,-0.0837 -0.11688,-0.0163 -0.27803,-0.0287 -0.44494,-0.0377 z" />
    </clipPath>
    <clipPath
       clipPathUnits="userSpaceOnUse"
       id="clipPath6160-6">
      <path
         id="path6162-7"
         style="fill:#ff0000;fill-opacity:1;fill-rule:nonzero;stroke:none;stroke-width:0.264583"
         d="m 191.69993,198.51083 -31.13764,5.3e-4 v 92.41295 c 0.0389,-0.0211 0.0757,-0.0423 0.11265,-0.0615 0.002,0.003 0.003,0.005 0.005,0.008 2e-4,-2.6e-4 8e-4,-3e-5 0.001,-5.3e-4 0.005,0.008 0.009,0.0157 0.0134,0.0238 0.0375,-0.0296 0.0733,-0.0603 0.11111,-0.0894 -0.0371,0.0158 -0.0637,0.0246 -0.11834,0.0527 -0.002,0.005 -0.004,0.008 -0.006,0.0124 -0.002,-0.003 -0.003,-0.005 -0.005,-0.007 0.004,-0.002 0.007,-0.004 0.0109,-0.006 0.24223,-0.52572 0.52869,-0.90164 0.69969,-0.48525 0.20814,-0.1513 0.41712,-0.30156 0.61857,-0.45527 0.35191,-0.29708 0.70532,-0.58567 1.0542,-0.88263 -0.009,-0.0196 -0.018,-0.0393 -0.0263,-0.0589 -0.059,-0.13539 0.16907,-0.24426 0.27234,-0.34985 0.0625,-0.0639 0.14462,-0.20218 0.21962,-0.15348 0.0206,0.0134 0.0382,0.0237 0.0584,0.0367 0.004,-0.003 0.009,-0.006 0.0129,-0.009 -0.004,0.004 -0.008,0.008 -0.0119,0.0109 0.0971,0.0624 0.19181,0.12271 0.28008,0.17673 0.0689,-0.063 0.13681,-0.12753 0.20257,-0.1943 -0.0401,-0.0376 -0.0809,-0.0745 -0.12298,-0.11007 -0.0958,-0.081 -0.2162,0.0117 -0.33694,0.10696 0.2622,-0.24575 0.6027,-0.75911 0.72813,-0.89193 0.20691,-0.2191 0.43033,-0.4243 0.67024,-0.60668 0.17728,-0.13475 0.38346,-0.22673 0.57516,-0.34003 0.33519,-0.12848 0.66564,-0.27031 1.00562,-0.38551 0.31316,-0.10605 0.45346,-0.14334 0.56482,-0.16226 0.33732,-0.41323 0.61612,-0.87054 0.96015,-1.27744 0.23258,-0.28182 0.57804,-0.34577 0.90589,-0.43667 0.0102,-0.003 -0.0199,-0.007 -0.0279,-0.0145 -0.0344,-0.0284 0.0757,-0.0474 0.11368,-0.0708 0.0259,-0.008 0.0605,-0.005 0.0775,-0.0258 0.0187,-0.0238 -0.006,-0.0678 0.015,-0.0899 0.23737,-0.25102 0.58358,-0.42536 0.84956,-0.65164 0.24702,-0.31138 0.54943,-0.47036 0.91623,-0.6196 0.0628,-0.0175 0.12581,-0.0346 0.18862,-0.0522 0.023,-0.0134 0.0456,-0.0276 0.0687,-0.0408 0.1299,-0.11569 0.32049,-0.2635 0.57981,-0.48783 0.36245,-0.3166 0.73649,-0.6182 1.11569,-0.9126 0.13797,-0.20645 0.45117,-0.48384 0.54932,-0.55449 0.0699,-0.0763 0.13954,-0.15339 0.23151,-0.19637 0.11833,-0.0553 0.24044,-0.12085 0.36484,-0.17673 -0.0299,-0.44329 0.16876,-0.7191 0.39119,-1.0573 0.16387,-0.17644 -0.1816,0.3416 -0.0971,0.28629 0.0411,-0.0269 0.0823,-0.0542 0.1235,-0.0811 0.005,-0.0771 0.0144,-0.14219 0.0305,-0.18706 0.0316,-0.0884 0.077,-0.16954 0.13126,-0.24443 -0.007,-0.34016 0.009,-0.79549 -0.0656,-1.42473 0.1311,-0.10714 0.2707,-0.20535 0.40359,-0.31057 0.0145,0.12755 0.0289,0.25525 0.0434,0.38344 0.0283,-0.0508 0.10419,-0.0967 0.25322,-0.13798 0.14775,-0.0828 0.30967,-0.14664 0.46043,-0.22531 -0.0309,-0.0703 -0.0637,-0.13991 -0.0982,-0.20877 -0.14703,0.0137 -0.33649,0.0554 -0.42427,0.0284 -0.033,0.0137 -0.0625,0.026 -0.0858,0.0351 0.0112,-0.0101 0.0221,-0.0207 0.0331,-0.031 -0.13073,0.0533 -0.19831,0.0957 -0.0336,0.031 -0.0477,0.0431 -0.0973,0.0839 -0.14779,0.12403 -0.004,-0.0335 -0.008,-0.0673 -0.0119,-0.10077 -0.007,-0.0593 0.11776,-0.11903 0.20154,-0.14108 2.5e-4,-7.9e-4 2.3e-4,-0.002 5.3e-4,-0.003 0.0593,-0.20235 0.38863,-0.1877 0.60978,-0.16743 0.0878,-0.0411 0.17544,-0.0825 0.26355,-0.123 v 5.3e-4 c 0.51775,-0.23791 0.98967,-0.34056 1.40095,-0.34054 1.70475,1e-5 2.36386,1.75668 0.88935,2.89026 0.44839,0.33136 0.89675,0.66291 1.34514,0.99425 -0.0663,0.98854 -0.28636,0.51582 -0.72089,-0.16123 -0.0264,0.0757 -0.0531,0.1512 -0.0796,0.22686 0.0282,0.0409 0.0948,0.17432 0.12557,0.22893 0.003,0.006 0.006,0.01 0.009,0.0155 -0.0502,-0.0731 -0.11735,-0.14809 -0.14108,-0.22531 -0.0929,0.26583 -0.18515,0.53155 -0.27801,0.79737 0.009,0.009 0.0181,0.0175 0.0274,0.0263 0.10211,0.008 0.24749,-0.0674 0.43409,-0.39377 0.0229,-0.0401 0.0197,-0.081 0.003,-0.12247 0.4658,0.83953 0.12311,0.37338 0.95033,1.24488 0.39408,0.41554 -0.0252,0.81348 -0.41961,0.39791 -0.21307,-0.22448 -0.41718,-0.45777 -0.63924,-0.67334 -0.0268,-0.0261 -0.15316,-0.12888 -0.30592,-0.26976 -0.0253,10e-4 -0.0478,0.005 -0.0615,0.0155 -0.0274,0.0207 0.0569,0.0387 0.0853,0.0579 -0.076,0.0414 -0.1521,0.0823 -0.2279,0.12402 -1.13907,0.6268 -0.47119,0.2665 -1.51308,0.82165 -0.69837,0.39383 -1.42534,0.73515 -2.14819,1.08366 -0.0942,0.0776 -0.19399,0.14919 -0.31265,0.2036 -0.022,0.0119 -0.0799,0.0399 -0.14727,0.0718 -0.0271,0.0362 -0.0462,0.063 -0.078,0.10594 -0.0655,0.0559 -0.13397,0.10939 -0.20361,0.16071 -0.007,0.0842 0.003,0.17274 0.0233,0.25477 0.26821,0.52041 0.0765,0.31547 0,0 -0.0293,-0.0568 -0.0632,-0.12063 -0.10439,-0.19585 -0.0659,0.0454 -0.13385,0.0872 -0.20257,0.1266 -0.0806,0.0759 -0.16246,0.15083 -0.24753,0.22221 -0.0716,0.0601 -0.15891,0.2322 -0.22531,0.1664 -0.0505,-0.05 -0.0984,-0.10219 -0.14676,-0.154 -0.0419,0.008 -0.0833,0.019 -0.12557,0.0233 -0.0406,0.007 -0.0806,0.0175 -0.12093,0.0258 -0.18794,0.15493 -0.38271,0.3009 -0.59479,0.41755 -0.11508,0.0633 -0.26454,0.28224 -0.34933,0.1819 -0.077,-0.0912 -0.15035,-0.18526 -0.22221,-0.2806 -0.0786,0.084 -0.15944,0.16575 -0.25115,0.23667 -0.0556,0.0455 -0.11281,0.0912 -0.16898,0.13695 0.0739,0.39668 -0.15189,0.92713 -0.80305,1.44384 -0.22063,0.17508 -0.44004,0.35162 -0.66198,0.52503 -0.29354,0.22935 -0.57011,0.47977 -0.9126,0.63407 -0.28643,0.24266 -0.62832,0.32788 -0.97359,0.40256 -0.3256,0.3448 -0.68469,0.65102 -1.13275,0.85473 -0.16841,0.0799 -0.33481,0.16457 -0.50539,0.23977 -0.0922,0.0406 -0.18858,0.0685 -0.28474,0.0956 -0.32201,0.41577 -0.65213,0.7607 -1.06143,1.0945 -0.0539,0.0209 -0.11065,0.0571 -0.16795,0.0961 0.0528,0.13839 0.1071,0.27957 0.17208,0.43977 0.0302,0.0744 -0.0787,0.0913 -0.18603,0.1111 -0.0448,0.0411 -0.10335,0.0888 -0.17725,0.14883 0.5414,1.34243 0.55121,-1.22622 0.61701,-0.8754 0.09,0.48001 -0.0943,1.0719 -0.31626,1.56942 h 26.79575 v -29.93873 c -0.18643,0.009 -0.41548,-0.12227 -0.58911,-0.43821 -0.31887,-0.5802 -0.50533,-1.28807 -0.91054,-1.82521 -0.11752,-0.15578 -0.26366,-0.23578 -0.34416,-0.41238 0.007,0.008 0.0176,0.0339 0.0196,0.0238 0.0643,-0.40282 0.13709,-0.35632 -0.12196,-0.34003 -0.15814,0.01 -0.1676,-0.15006 -0.01,-0.15916 0.35706,-0.0206 0.41744,-0.34066 0.57723,-0.339 0.0447,5.3e-4 0.0974,0.0265 0.1664,0.091 0.0721,0.0468 0.15222,0.083 0.21652,0.14004 0.15453,0.13717 0.23778,0.36194 0.32918,0.53279 0.24551,0.45889 0.45407,0.93462 0.66663,1.40921 z m -16.54111,78.80966 c 0.0104,-0.004 0.0209,-0.009 0.032,-0.0129 -0.004,-0.002 -0.007,-0.005 -0.0103,-0.008 -0.007,0.007 -0.0144,0.0138 -0.0217,0.0207 z m 0.0527,-0.004 c 0.0417,-0.0173 0.0894,-0.037 0.14831,-0.0625 0.006,-0.002 0.011,-0.005 0.0165,-0.007 -0.0625,0.0169 -0.12777,0.0392 -0.185,0.0615 0.006,0.004 0.0127,0.005 0.0202,0.008 z m -0.19121,0.54364 c -0.0237,0.0425 -0.0136,0.0883 0.016,0.13746 -0.005,-0.0458 -0.0108,-0.0916 -0.016,-0.13746 z m 0.016,0.13746 c 0.004,0.0369 0.009,0.0737 0.0134,0.11058 0.0232,-0.002 0.0426,-0.005 0.0682,-0.007 -0.0329,-0.0357 -0.0619,-0.0706 -0.0816,-0.10335 z m 0.047,0.38085 c 0.0182,0.14335 0.0371,0.28676 0.0589,0.42944 0.0273,-0.0134 0.0529,-0.0306 0.0806,-0.0424 -0.005,-0.0147 -0.0108,-0.0292 -0.016,-0.0439 -0.004,-0.01 0.0515,-0.0432 0.11162,-0.076 0.035,-0.0629 0.0664,-0.1218 0.0842,-0.16743 -0.13725,-0.0367 -0.22983,-0.0685 -0.31936,-0.0997 z m 0.34469,0.20671 v 5.3e-4 c 2e-4,-1.1e-4 7.9e-4,-5.3e-4 0.001,-5.3e-4 -2e-4,10e-5 -8e-4,-1.4e-4 -0.001,0 z m 0.005,5.3e-4 c -0.002,0.002 -0.004,0.003 -0.006,0.005 2.3e-4,0.005 0.008,0.0182 0.015,0.0305 0.003,-0.003 0.006,-0.006 0.01,-0.009 1.7e-4,-0.005 5.3e-4,-0.0104 5.3e-4,-0.0155 -0.007,-0.005 -0.0158,-0.0104 -0.0191,-0.0109 z m -0.20981,0.22376 c -0.016,0.008 -0.0362,0.0178 -0.0475,0.0248 0.004,0.01 0.007,0.0193 0.0108,0.0289 0.004,-0.004 0.009,-0.009 0.0135,-0.0129 0.008,-0.0137 0.0152,-0.027 0.0232,-0.0408 z m 0.69401,0.37414 c -0.0163,0.002 -0.0335,0.004 -0.0491,0.005 -0.002,0.002 -0.003,0.004 -0.005,0.006 0.008,0.0111 0.0169,0.0232 0.0253,0.0346 0.01,-0.0154 0.0186,-0.0296 0.0289,-0.0455 z m 0.005,10e-4 0.0305,0.13178 c 0.008,0.0113 0.0159,0.022 0.0243,0.0336 0.006,-0.008 0.0132,-0.0169 0.0191,-0.0248 10e-4,-0.002 0.003,-0.005 0.004,-0.007 -5.3e-4,-0.0245 -0.001,-0.0576 -0.002,-0.0899 -0.0194,-0.0114 -0.0543,-0.0311 -0.0754,-0.0434 z m 0.0548,0.16537 c -0.004,0.005 -0.008,0.0113 -0.0124,0.0165 l 0.001,0.006 c 0.004,-0.006 0.009,-0.0146 0.0129,-0.0212 -2.6e-4,-2.6e-4 -0.001,-10e-4 -0.002,-0.002 z m -0.23099,-0.15141 c -0.0475,0.003 -0.0918,0.006 -0.13281,0.008 0.0201,0.0337 0.041,0.0684 0.063,0.10335 0.0236,-0.0363 0.0472,-0.0727 0.0708,-0.10904 -1.8e-4,-5.2e-4 -7.9e-4,-5.2e-4 -0.001,-0.002 z m -0.34623,0.017 c -0.0287,0.001 -0.0588,0.003 -0.0822,0.005 0.0303,0.0821 0.0607,0.16433 0.0909,0.24649 0.0225,-0.0293 0.0448,-0.0544 0.0672,-0.0775 -0.0257,-0.0577 -0.051,-0.11563 -0.076,-0.17363 z m 0.67127,0.0563 c -0.002,0.006 -0.004,0.0122 -0.005,0.0181 0.003,-0.003 0.008,-0.008 0.0103,-0.0109 -0.001,-0.002 -0.002,-0.003 -0.003,-0.005 -0.001,-7.9e-4 -0.002,-0.001 -0.003,-0.002 z m 0.0109,0.0165 -5.3e-4,5.3e-4 c -0.008,0.0105 -0.0162,0.021 -0.0243,0.0315 0.003,-0.01 0.006,-0.0203 0.009,-0.03 -0.0198,0.0206 -0.0435,0.0451 -0.0646,0.0672 2.2e-4,0.009 2.6e-4,0.0172 5.3e-4,0.0258 -0.004,-0.005 -0.007,-0.0101 -0.01,-0.0139 l -0.001,-5.2e-4 c -0.007,0.007 -0.0136,0.0148 -0.0207,0.0222 l 0.007,0.031 c 0.001,-5.3e-4 0.002,-10e-4 0.003,-0.002 0.007,-0.009 0.0144,-0.019 0.0217,-0.0284 -8e-5,-0.003 7e-5,-0.005 0,-0.008 h 5.2e-4 c 8e-4,0.002 0.002,0.002 0.003,0.004 0.0171,-0.0223 0.034,-0.0449 0.0512,-0.0672 -0.008,0.0261 -0.0154,0.0515 -0.0233,0.077 0.0271,-0.0111 0.054,-0.0226 0.0811,-0.0336 -0.0109,-0.0252 -0.0224,-0.0503 -0.0336,-0.0754 z m -0.29714,0.0176 c -0.0195,0.0278 -0.0388,0.0556 -0.0579,0.0837 0.0108,0.0165 0.0231,0.034 0.0341,0.0506 0.0141,-0.0247 0.0285,-0.0502 0.0444,-0.077 -0.007,-0.0192 -0.0135,-0.0378 -0.0207,-0.0574 z m 0.21446,0.015 c -0.001,0.002 -0.003,0.004 -0.004,0.006 -0.006,0.009 -0.0119,0.0177 -0.0176,0.0264 0.004,0.006 0.008,0.0106 0.0119,0.0165 0.003,-0.004 0.007,-0.007 0.0103,-0.0114 -2.5e-4,-0.01 -7.9e-4,-0.0269 -10e-4,-0.0372 z m 0.18035,0.0176 c -0.0217,0.009 -0.0434,0.0176 -0.0651,0.0264 0.0113,0.026 0.0224,0.052 0.0336,0.078 0.0369,-0.0194 0.0708,-0.0369 0.10593,-0.0553 -0.0205,-0.0146 -0.0472,-0.0318 -0.0744,-0.0491 z m -0.93276,0.0543 c 0.0147,0.0702 0.0301,0.14017 0.0465,0.20981 0.0257,-0.0245 0.0515,-0.0526 0.0775,-0.0863 -0.0398,-0.0397 -0.0829,-0.0824 -0.12402,-0.12351 z m 1.03663,0.0176 c -0.0399,0.0228 -0.0796,0.0457 -0.11937,0.0687 0.001,0.003 0.002,0.006 0.004,0.009 0.0419,-0.025 0.0819,-0.0486 0.12248,-0.0729 -0.002,-0.002 -0.004,-0.003 -0.007,-0.005 z m 0.0284,0.0398 c -0.0442,0.021 -0.0885,0.0416 -0.13281,0.0625 0.002,0.004 0.003,0.008 0.005,0.0114 0.0434,-0.0216 0.0868,-0.0435 0.13023,-0.0651 -8e-4,-0.003 -0.001,-0.006 -0.002,-0.009 z m 0.005,0.0186 c -0.0124,0.0358 -0.0323,0.0821 -0.0517,0.12764 0.0298,-0.0173 0.0547,-0.0336 0.0698,-0.0491 5e-5,-0.002 -5e-5,-0.003 0,-0.005 -0.006,-0.0246 -0.012,-0.0493 -0.0181,-0.0739 z m -0.10077,0.005 c -0.0187,0.011 -0.0239,0.0136 -0.0429,0.0248 0.002,0.004 0.003,0.008 0.005,0.0119 l 0.005,-0.005 c 0.0111,-0.0104 0.042,-0.0359 0.0331,-0.0315 z m -0.35553,0.0372 c -0.009,0.0119 -0.0175,0.0238 -0.0259,0.0357 0.002,0.002 0.003,0.004 0.005,0.007 0.008,-0.0113 0.0158,-0.0231 0.0238,-0.0346 -8e-4,-0.003 -0.002,-0.006 -0.003,-0.008 z m 0.31574,0.003 c -0.0199,0.009 -0.04,0.0185 -0.0599,0.0279 0.003,0.004 0.005,0.008 0.008,0.0114 0.011,-0.006 0.022,-0.011 0.0331,-0.0165 0.005,-0.008 0.0117,-0.0146 0.0191,-0.0222 z m 2.50321,0.40566 c 0.004,0.009 0.0219,0.0381 0.0357,0.0486 -0.0115,-0.0161 -0.0229,-0.032 -0.0346,-0.0481 -0.002,-0.002 -7.9e-4,-2.6e-4 -0.001,-5.3e-4 z m -2.45412,0.1354 -5.3e-4,5.2e-4 c 0.003,0.005 0.007,0.009 0.0104,0.0135 0.0298,0.0271 0.0587,0.0549 0.0884,0.0822 5.3e-4,-0.0301 0.001,-0.0572 0.002,-0.0868 -0.0315,-0.005 -0.0651,-0.008 -0.10025,-0.009 z m 2.56315,0.0165 c -0.0107,0.0585 -0.022,0.11692 -0.0341,0.17519 0.0459,-0.006 0.0908,-0.0143 0.13332,-0.0274 -0.0321,-0.0488 -0.0649,-0.098 -0.0992,-0.1478 z m -2.36833,0.0196 c 0.004,0.008 0.007,0.0168 0.0108,0.0253 0.004,-0.005 0.008,-0.0104 0.0114,-0.0155 -0.007,-0.004 -0.0147,-0.007 -0.0222,-0.01 z m 0.0108,0.0253 c -0.006,0.008 -0.0129,0.0168 -0.0186,0.0248 0.002,0.009 -0.0131,0.0429 -0.0238,0.0698 0.0174,0.0163 0.0354,0.0321 0.0527,0.0486 0.0165,-0.005 0.0317,-0.009 0.0439,-0.0155 -0.0181,-0.0425 -0.0365,-0.0849 -0.0543,-0.12764 z m 1.20148,0.14108 c -0.0441,-0.007 -0.0994,0.14534 -0.10904,0.21394 0.15676,0.13539 0.31898,0.26501 0.48059,0.39533 -0.10855,-0.20463 -0.22119,-0.40698 -0.35398,-0.59635 -0.006,-0.008 -0.0113,-0.012 -0.0176,-0.0129 z m -14.05134,8.25014 c -0.0555,0.0437 -0.11059,0.0855 -0.1633,0.10904 0.0477,-0.0136 0.10419,-0.0522 0.16588,-0.10749 -5.3e-4,-5.3e-4 -0.002,-7.9e-4 -0.003,-0.002 z m -0.44855,0.6904 c -0.0125,0.0299 -0.0282,0.0663 -0.0372,0.091 0.0199,-0.0138 0.0402,-0.0274 0.0599,-0.0413 -0.008,-0.0167 -0.0151,-0.0329 -0.0227,-0.0496 z m 2.12958,0.9524 c -0.0777,0.11058 -0.16102,0.21679 -0.24701,0.32091 0.008,0.005 0.014,0.008 0.0217,0.0129 0.0717,0.0444 0.25525,-0.28326 0.25425,-0.28526 -0.01,-0.016 -0.0195,-0.0326 -0.0289,-0.0486 z m -4.00233,0.3116 c -0.10749,0.005 -0.21537,0.008 -0.26717,0.0894 -0.0355,0.0559 -0.0633,0.11631 -0.0904,0.17725 0.11853,-0.0899 0.2376,-0.17903 0.3576,-0.26666 z m -0.601,0.37001 c 0.006,0.01 0.0101,0.0187 0.0155,0.0284 -2.5e-4,1.7e-4 -7.9e-4,2.2e-4 -0.001,5.3e-4 -0.005,-0.01 -0.01,-0.0195 -0.0145,-0.0289 z m 0.0196,0.0377 c -0.008,0.0164 -0.0143,0.034 -0.0217,0.0506 0.0116,-0.009 0.023,-0.0187 0.0346,-0.0279 -0.004,-0.007 -0.009,-0.0159 -0.0129,-0.0227 z m 3.08818,1.05368 c 0.009,0.0536 0.0364,0.0927 0.10181,0.10077 -0.0353,-0.0346 -0.0696,-0.0682 -0.10181,-0.10077 z m -0.30747,0.0977 c -0.0246,0.028 -0.0524,0.054 -0.0791,0.0811 0.20418,0.0171 0.40888,0.0548 0.61082,0.0413 -0.004,0.006 -0.01,0.012 -0.016,0.0171 h 0.0362 c -0.006,-0.006 -0.0122,-0.0116 -0.0181,-0.0171 0.0318,-0.002 0.0634,-0.006 0.0951,-0.0108 0.0862,-0.0138 0.0341,-0.0369 -0.0956,-0.06 0.0144,0.0222 0.014,0.0481 -5.2e-4,0.0698 2e-4,1.9e-4 2.2e-4,7.9e-4 5.2e-4,0.001 -2.6e-4,0 -5.2e-4,10e-6 -0.001,0 2.2e-4,-2.6e-4 2.2e-4,-7.9e-4 5.3e-4,-0.001 -0.0303,-0.0287 -0.0597,-0.0563 -0.0879,-0.0837 -0.11688,-0.0163 -0.27803,-0.0287 -0.44494,-0.0377 z" />
    </clipPath>
    <inkscape:path-effect
       effect="spiro"
       id="path-effect6074-5"
       is_visible="true"
       lpeversion="1" />
    <clipPath
       clipPathUnits="userSpaceOnUse"
       id="clipPath6160-5">
      <path
         id="path6162-6"
         style="fill:#ff0000;fill-opacity:1;fill-rule:nonzero;stroke:none;stroke-width:0.264583"
         d="m 191.69993,198.51083 -31.13764,5.3e-4 v 92.41295 c 0.0389,-0.0211 0.0757,-0.0423 0.11265,-0.0615 0.002,0.003 0.003,0.005 0.005,0.008 2e-4,-2.6e-4 8e-4,-3e-5 0.001,-5.3e-4 0.005,0.008 0.009,0.0157 0.0134,0.0238 0.0375,-0.0296 0.0733,-0.0603 0.11111,-0.0894 -0.0371,0.0158 -0.0637,0.0246 -0.11834,0.0527 -0.002,0.005 -0.004,0.008 -0.006,0.0124 -0.002,-0.003 -0.003,-0.005 -0.005,-0.007 0.004,-0.002 0.007,-0.004 0.0109,-0.006 0.24223,-0.52572 0.52869,-0.90164 0.69969,-0.48525 0.20814,-0.1513 0.41712,-0.30156 0.61857,-0.45527 0.35191,-0.29708 0.70532,-0.58567 1.0542,-0.88263 -0.009,-0.0196 -0.018,-0.0393 -0.0263,-0.0589 -0.059,-0.13539 0.16907,-0.24426 0.27234,-0.34985 0.0625,-0.0639 0.14462,-0.20218 0.21962,-0.15348 0.0206,0.0134 0.0382,0.0237 0.0584,0.0367 0.004,-0.003 0.009,-0.006 0.0129,-0.009 -0.004,0.004 -0.008,0.008 -0.0119,0.0109 0.0971,0.0624 0.19181,0.12271 0.28008,0.17673 0.0689,-0.063 0.13681,-0.12753 0.20257,-0.1943 -0.0401,-0.0376 -0.0809,-0.0745 -0.12298,-0.11007 -0.0958,-0.081 -0.2162,0.0117 -0.33694,0.10696 0.2622,-0.24575 0.6027,-0.75911 0.72813,-0.89193 0.20691,-0.2191 0.43033,-0.4243 0.67024,-0.60668 0.17728,-0.13475 0.38346,-0.22673 0.57516,-0.34003 0.33519,-0.12848 0.66564,-0.27031 1.00562,-0.38551 0.31316,-0.10605 0.45346,-0.14334 0.56482,-0.16226 0.33732,-0.41323 0.61612,-0.87054 0.96015,-1.27744 0.23258,-0.28182 0.57804,-0.34577 0.90589,-0.43667 0.0102,-0.003 -0.0199,-0.007 -0.0279,-0.0145 -0.0344,-0.0284 0.0757,-0.0474 0.11368,-0.0708 0.0259,-0.008 0.0605,-0.005 0.0775,-0.0258 0.0187,-0.0238 -0.006,-0.0678 0.015,-0.0899 0.23737,-0.25102 0.58358,-0.42536 0.84956,-0.65164 0.24702,-0.31138 0.54943,-0.47036 0.91623,-0.6196 0.0628,-0.0175 0.12581,-0.0346 0.18862,-0.0522 0.023,-0.0134 0.0456,-0.0276 0.0687,-0.0408 0.1299,-0.11569 0.32049,-0.2635 0.57981,-0.48783 0.36245,-0.3166 0.73649,-0.6182 1.11569,-0.9126 0.13797,-0.20645 0.45117,-0.48384 0.54932,-0.55449 0.0699,-0.0763 0.13954,-0.15339 0.23151,-0.19637 0.11833,-0.0553 0.24044,-0.12085 0.36484,-0.17673 -0.0299,-0.44329 0.16876,-0.7191 0.39119,-1.0573 0.16387,-0.17644 -0.1816,0.3416 -0.0971,0.28629 0.0411,-0.0269 0.0823,-0.0542 0.1235,-0.0811 0.005,-0.0771 0.0144,-0.14219 0.0305,-0.18706 0.0316,-0.0884 0.077,-0.16954 0.13126,-0.24443 -0.007,-0.34016 0.009,-0.79549 -0.0656,-1.42473 0.1311,-0.10714 0.2707,-0.20535 0.40359,-0.31057 0.0145,0.12755 0.0289,0.25525 0.0434,0.38344 0.0283,-0.0508 0.10419,-0.0967 0.25322,-0.13798 0.14775,-0.0828 0.30967,-0.14664 0.46043,-0.22531 -0.0309,-0.0703 -0.0637,-0.13991 -0.0982,-0.20877 -0.14703,0.0137 -0.33649,0.0554 -0.42427,0.0284 -0.033,0.0137 -0.0625,0.026 -0.0858,0.0351 0.0112,-0.0101 0.0221,-0.0207 0.0331,-0.031 -0.13073,0.0533 -0.19831,0.0957 -0.0336,0.031 -0.0477,0.0431 -0.0973,0.0839 -0.14779,0.12403 -0.004,-0.0335 -0.008,-0.0673 -0.0119,-0.10077 -0.007,-0.0593 0.11776,-0.11903 0.20154,-0.14108 2.5e-4,-7.9e-4 2.3e-4,-0.002 5.3e-4,-0.003 0.0593,-0.20235 0.38863,-0.1877 0.60978,-0.16743 0.0878,-0.0411 0.17544,-0.0825 0.26355,-0.123 v 5.3e-4 c 0.51775,-0.23791 0.98967,-0.34056 1.40095,-0.34054 1.70475,1e-5 2.36386,1.75668 0.88935,2.89026 0.44839,0.33136 0.89675,0.66291 1.34514,0.99425 -0.0663,0.98854 -0.28636,0.51582 -0.72089,-0.16123 -0.0264,0.0757 -0.0531,0.1512 -0.0796,0.22686 0.0282,0.0409 0.0948,0.17432 0.12557,0.22893 0.003,0.006 0.006,0.01 0.009,0.0155 -0.0502,-0.0731 -0.11735,-0.14809 -0.14108,-0.22531 -0.0929,0.26583 -0.18515,0.53155 -0.27801,0.79737 0.009,0.009 0.0181,0.0175 0.0274,0.0263 0.10211,0.008 0.24749,-0.0674 0.43409,-0.39377 0.0229,-0.0401 0.0197,-0.081 0.003,-0.12247 0.4658,0.83953 0.12311,0.37338 0.95033,1.24488 0.39408,0.41554 -0.0252,0.81348 -0.41961,0.39791 -0.21307,-0.22448 -0.41718,-0.45777 -0.63924,-0.67334 -0.0268,-0.0261 -0.15316,-0.12888 -0.30592,-0.26976 -0.0253,10e-4 -0.0478,0.005 -0.0615,0.0155 -0.0274,0.0207 0.0569,0.0387 0.0853,0.0579 -0.076,0.0414 -0.1521,0.0823 -0.2279,0.12402 -1.13907,0.6268 -0.47119,0.2665 -1.51308,0.82165 -0.69837,0.39383 -1.42534,0.73515 -2.14819,1.08366 -0.0942,0.0776 -0.19399,0.14919 -0.31265,0.2036 -0.022,0.0119 -0.0799,0.0399 -0.14727,0.0718 -0.0271,0.0362 -0.0462,0.063 -0.078,0.10594 -0.0655,0.0559 -0.13397,0.10939 -0.20361,0.16071 -0.007,0.0842 0.003,0.17274 0.0233,0.25477 0.26821,0.52041 0.0765,0.31547 0,0 -0.0293,-0.0568 -0.0632,-0.12063 -0.10439,-0.19585 -0.0659,0.0454 -0.13385,0.0872 -0.20257,0.1266 -0.0806,0.0759 -0.16246,0.15083 -0.24753,0.22221 -0.0716,0.0601 -0.15891,0.2322 -0.22531,0.1664 -0.0505,-0.05 -0.0984,-0.10219 -0.14676,-0.154 -0.0419,0.008 -0.0833,0.019 -0.12557,0.0233 -0.0406,0.007 -0.0806,0.0175 -0.12093,0.0258 -0.18794,0.15493 -0.38271,0.3009 -0.59479,0.41755 -0.11508,0.0633 -0.26454,0.28224 -0.34933,0.1819 -0.077,-0.0912 -0.15035,-0.18526 -0.22221,-0.2806 -0.0786,0.084 -0.15944,0.16575 -0.25115,0.23667 -0.0556,0.0455 -0.11281,0.0912 -0.16898,0.13695 0.0739,0.39668 -0.15189,0.92713 -0.80305,1.44384 -0.22063,0.17508 -0.44004,0.35162 -0.66198,0.52503 -0.29354,0.22935 -0.57011,0.47977 -0.9126,0.63407 -0.28643,0.24266 -0.62832,0.32788 -0.97359,0.40256 -0.3256,0.3448 -0.68469,0.65102 -1.13275,0.85473 -0.16841,0.0799 -0.33481,0.16457 -0.50539,0.23977 -0.0922,0.0406 -0.18858,0.0685 -0.28474,0.0956 -0.32201,0.41577 -0.65213,0.7607 -1.06143,1.0945 -0.0539,0.0209 -0.11065,0.0571 -0.16795,0.0961 0.0528,0.13839 0.1071,0.27957 0.17208,0.43977 0.0302,0.0744 -0.0787,0.0913 -0.18603,0.1111 -0.0448,0.0411 -0.10335,0.0888 -0.17725,0.14883 0.5414,1.34243 0.55121,-1.22622 0.61701,-0.8754 0.09,0.48001 -0.0943,1.0719 -0.31626,1.56942 h 26.79575 v -29.93873 c -0.18643,0.009 -0.41548,-0.12227 -0.58911,-0.43821 -0.31887,-0.5802 -0.50533,-1.28807 -0.91054,-1.82521 -0.11752,-0.15578 -0.26366,-0.23578 -0.34416,-0.41238 0.007,0.008 0.0176,0.0339 0.0196,0.0238 0.0643,-0.40282 0.13709,-0.35632 -0.12196,-0.34003 -0.15814,0.01 -0.1676,-0.15006 -0.01,-0.15916 0.35706,-0.0206 0.41744,-0.34066 0.57723,-0.339 0.0447,5.3e-4 0.0974,0.0265 0.1664,0.091 0.0721,0.0468 0.15222,0.083 0.21652,0.14004 0.15453,0.13717 0.23778,0.36194 0.32918,0.53279 0.24551,0.45889 0.45407,0.93462 0.66663,1.40921 z m -16.54111,78.80966 c 0.0104,-0.004 0.0209,-0.009 0.032,-0.0129 -0.004,-0.002 -0.007,-0.005 -0.0103,-0.008 -0.007,0.007 -0.0144,0.0138 -0.0217,0.0207 z m 0.0527,-0.004 c 0.0417,-0.0173 0.0894,-0.037 0.14831,-0.0625 0.006,-0.002 0.011,-0.005 0.0165,-0.007 -0.0625,0.0169 -0.12777,0.0392 -0.185,0.0615 0.006,0.004 0.0127,0.005 0.0202,0.008 z m -0.19121,0.54364 c -0.0237,0.0425 -0.0136,0.0883 0.016,0.13746 -0.005,-0.0458 -0.0108,-0.0916 -0.016,-0.13746 z m 0.016,0.13746 c 0.004,0.0369 0.009,0.0737 0.0134,0.11058 0.0232,-0.002 0.0426,-0.005 0.0682,-0.007 -0.0329,-0.0357 -0.0619,-0.0706 -0.0816,-0.10335 z m 0.047,0.38085 c 0.0182,0.14335 0.0371,0.28676 0.0589,0.42944 0.0273,-0.0134 0.0529,-0.0306 0.0806,-0.0424 -0.005,-0.0147 -0.0108,-0.0292 -0.016,-0.0439 -0.004,-0.01 0.0515,-0.0432 0.11162,-0.076 0.035,-0.0629 0.0664,-0.1218 0.0842,-0.16743 -0.13725,-0.0367 -0.22983,-0.0685 -0.31936,-0.0997 z m 0.34469,0.20671 v 5.3e-4 c 2e-4,-1.1e-4 7.9e-4,-5.3e-4 0.001,-5.3e-4 -2e-4,10e-5 -8e-4,-1.4e-4 -0.001,0 z m 0.005,5.3e-4 c -0.002,0.002 -0.004,0.003 -0.006,0.005 2.3e-4,0.005 0.008,0.0182 0.015,0.0305 0.003,-0.003 0.006,-0.006 0.01,-0.009 1.7e-4,-0.005 5.3e-4,-0.0104 5.3e-4,-0.0155 -0.007,-0.005 -0.0158,-0.0104 -0.0191,-0.0109 z m -0.20981,0.22376 c -0.016,0.008 -0.0362,0.0178 -0.0475,0.0248 0.004,0.01 0.007,0.0193 0.0108,0.0289 0.004,-0.004 0.009,-0.009 0.0135,-0.0129 0.008,-0.0137 0.0152,-0.027 0.0232,-0.0408 z m 0.69401,0.37414 c -0.0163,0.002 -0.0335,0.004 -0.0491,0.005 -0.002,0.002 -0.003,0.004 -0.005,0.006 0.008,0.0111 0.0169,0.0232 0.0253,0.0346 0.01,-0.0154 0.0186,-0.0296 0.0289,-0.0455 z m 0.005,10e-4 0.0305,0.13178 c 0.008,0.0113 0.0159,0.022 0.0243,0.0336 0.006,-0.008 0.0132,-0.0169 0.0191,-0.0248 10e-4,-0.002 0.003,-0.005 0.004,-0.007 -5.3e-4,-0.0245 -0.001,-0.0576 -0.002,-0.0899 -0.0194,-0.0114 -0.0543,-0.0311 -0.0754,-0.0434 z m 0.0548,0.16537 c -0.004,0.005 -0.008,0.0113 -0.0124,0.0165 l 0.001,0.006 c 0.004,-0.006 0.009,-0.0146 0.0129,-0.0212 -2.6e-4,-2.6e-4 -0.001,-10e-4 -0.002,-0.002 z m -0.23099,-0.15141 c -0.0475,0.003 -0.0918,0.006 -0.13281,0.008 0.0201,0.0337 0.041,0.0684 0.063,0.10335 0.0236,-0.0363 0.0472,-0.0727 0.0708,-0.10904 -1.8e-4,-5.2e-4 -7.9e-4,-5.2e-4 -0.001,-0.002 z m -0.34623,0.017 c -0.0287,0.001 -0.0588,0.003 -0.0822,0.005 0.0303,0.0821 0.0607,0.16433 0.0909,0.24649 0.0225,-0.0293 0.0448,-0.0544 0.0672,-0.0775 -0.0257,-0.0577 -0.051,-0.11563 -0.076,-0.17363 z m 0.67127,0.0563 c -0.002,0.006 -0.004,0.0122 -0.005,0.0181 0.003,-0.003 0.008,-0.008 0.0103,-0.0109 -0.001,-0.002 -0.002,-0.003 -0.003,-0.005 -0.001,-7.9e-4 -0.002,-0.001 -0.003,-0.002 z m 0.0109,0.0165 -5.3e-4,5.3e-4 c -0.008,0.0105 -0.0162,0.021 -0.0243,0.0315 0.003,-0.01 0.006,-0.0203 0.009,-0.03 -0.0198,0.0206 -0.0435,0.0451 -0.0646,0.0672 2.2e-4,0.009 2.6e-4,0.0172 5.3e-4,0.0258 -0.004,-0.005 -0.007,-0.0101 -0.01,-0.0139 l -0.001,-5.2e-4 c -0.007,0.007 -0.0136,0.0148 -0.0207,0.0222 l 0.007,0.031 c 0.001,-5.3e-4 0.002,-10e-4 0.003,-0.002 0.007,-0.009 0.0144,-0.019 0.0217,-0.0284 -8e-5,-0.003 7e-5,-0.005 0,-0.008 h 5.2e-4 c 8e-4,0.002 0.002,0.002 0.003,0.004 0.0171,-0.0223 0.034,-0.0449 0.0512,-0.0672 -0.008,0.0261 -0.0154,0.0515 -0.0233,0.077 0.0271,-0.0111 0.054,-0.0226 0.0811,-0.0336 -0.0109,-0.0252 -0.0224,-0.0503 -0.0336,-0.0754 z m -0.29714,0.0176 c -0.0195,0.0278 -0.0388,0.0556 -0.0579,0.0837 0.0108,0.0165 0.0231,0.034 0.0341,0.0506 0.0141,-0.0247 0.0285,-0.0502 0.0444,-0.077 -0.007,-0.0192 -0.0135,-0.0378 -0.0207,-0.0574 z m 0.21446,0.015 c -0.001,0.002 -0.003,0.004 -0.004,0.006 -0.006,0.009 -0.0119,0.0177 -0.0176,0.0264 0.004,0.006 0.008,0.0106 0.0119,0.0165 0.003,-0.004 0.007,-0.007 0.0103,-0.0114 -2.5e-4,-0.01 -7.9e-4,-0.0269 -10e-4,-0.0372 z m 0.18035,0.0176 c -0.0217,0.009 -0.0434,0.0176 -0.0651,0.0264 0.0113,0.026 0.0224,0.052 0.0336,0.078 0.0369,-0.0194 0.0708,-0.0369 0.10593,-0.0553 -0.0205,-0.0146 -0.0472,-0.0318 -0.0744,-0.0491 z m -0.93276,0.0543 c 0.0147,0.0702 0.0301,0.14017 0.0465,0.20981 0.0257,-0.0245 0.0515,-0.0526 0.0775,-0.0863 -0.0398,-0.0397 -0.0829,-0.0824 -0.12402,-0.12351 z m 1.03663,0.0176 c -0.0399,0.0228 -0.0796,0.0457 -0.11937,0.0687 0.001,0.003 0.002,0.006 0.004,0.009 0.0419,-0.025 0.0819,-0.0486 0.12248,-0.0729 -0.002,-0.002 -0.004,-0.003 -0.007,-0.005 z m 0.0284,0.0398 c -0.0442,0.021 -0.0885,0.0416 -0.13281,0.0625 0.002,0.004 0.003,0.008 0.005,0.0114 0.0434,-0.0216 0.0868,-0.0435 0.13023,-0.0651 -8e-4,-0.003 -0.001,-0.006 -0.002,-0.009 z m 0.005,0.0186 c -0.0124,0.0358 -0.0323,0.0821 -0.0517,0.12764 0.0298,-0.0173 0.0547,-0.0336 0.0698,-0.0491 5e-5,-0.002 -5e-5,-0.003 0,-0.005 -0.006,-0.0246 -0.012,-0.0493 -0.0181,-0.0739 z m -0.10077,0.005 c -0.0187,0.011 -0.0239,0.0136 -0.0429,0.0248 0.002,0.004 0.003,0.008 0.005,0.0119 l 0.005,-0.005 c 0.0111,-0.0104 0.042,-0.0359 0.0331,-0.0315 z m -0.35553,0.0372 c -0.009,0.0119 -0.0175,0.0238 -0.0259,0.0357 0.002,0.002 0.003,0.004 0.005,0.007 0.008,-0.0113 0.0158,-0.0231 0.0238,-0.0346 -8e-4,-0.003 -0.002,-0.006 -0.003,-0.008 z m 0.31574,0.003 c -0.0199,0.009 -0.04,0.0185 -0.0599,0.0279 0.003,0.004 0.005,0.008 0.008,0.0114 0.011,-0.006 0.022,-0.011 0.0331,-0.0165 0.005,-0.008 0.0117,-0.0146 0.0191,-0.0222 z m 2.50321,0.40566 c 0.004,0.009 0.0219,0.0381 0.0357,0.0486 -0.0115,-0.0161 -0.0229,-0.032 -0.0346,-0.0481 -0.002,-0.002 -7.9e-4,-2.6e-4 -0.001,-5.3e-4 z m -2.45412,0.1354 -5.3e-4,5.2e-4 c 0.003,0.005 0.007,0.009 0.0104,0.0135 0.0298,0.0271 0.0587,0.0549 0.0884,0.0822 5.3e-4,-0.0301 0.001,-0.0572 0.002,-0.0868 -0.0315,-0.005 -0.0651,-0.008 -0.10025,-0.009 z m 2.56315,0.0165 c -0.0107,0.0585 -0.022,0.11692 -0.0341,0.17519 0.0459,-0.006 0.0908,-0.0143 0.13332,-0.0274 -0.0321,-0.0488 -0.0649,-0.098 -0.0992,-0.1478 z m -2.36833,0.0196 c 0.004,0.008 0.007,0.0168 0.0108,0.0253 0.004,-0.005 0.008,-0.0104 0.0114,-0.0155 -0.007,-0.004 -0.0147,-0.007 -0.0222,-0.01 z m 0.0108,0.0253 c -0.006,0.008 -0.0129,0.0168 -0.0186,0.0248 0.002,0.009 -0.0131,0.0429 -0.0238,0.0698 0.0174,0.0163 0.0354,0.0321 0.0527,0.0486 0.0165,-0.005 0.0317,-0.009 0.0439,-0.0155 -0.0181,-0.0425 -0.0365,-0.0849 -0.0543,-0.12764 z m 1.20148,0.14108 c -0.0441,-0.007 -0.0994,0.14534 -0.10904,0.21394 0.15676,0.13539 0.31898,0.26501 0.48059,0.39533 -0.10855,-0.20463 -0.22119,-0.40698 -0.35398,-0.59635 -0.006,-0.008 -0.0113,-0.012 -0.0176,-0.0129 z m -14.05134,8.25014 c -0.0555,0.0437 -0.11059,0.0855 -0.1633,0.10904 0.0477,-0.0136 0.10419,-0.0522 0.16588,-0.10749 -5.3e-4,-5.3e-4 -0.002,-7.9e-4 -0.003,-0.002 z m -0.44855,0.6904 c -0.0125,0.0299 -0.0282,0.0663 -0.0372,0.091 0.0199,-0.0138 0.0402,-0.0274 0.0599,-0.0413 -0.008,-0.0167 -0.0151,-0.0329 -0.0227,-0.0496 z m 2.12958,0.9524 c -0.0777,0.11058 -0.16102,0.21679 -0.24701,0.32091 0.008,0.005 0.014,0.008 0.0217,0.0129 0.0717,0.0444 0.25525,-0.28326 0.25425,-0.28526 -0.01,-0.016 -0.0195,-0.0326 -0.0289,-0.0486 z m -4.00233,0.3116 c -0.10749,0.005 -0.21537,0.008 -0.26717,0.0894 -0.0355,0.0559 -0.0633,0.11631 -0.0904,0.17725 0.11853,-0.0899 0.2376,-0.17903 0.3576,-0.26666 z m -0.601,0.37001 c 0.006,0.01 0.0101,0.0187 0.0155,0.0284 -2.5e-4,1.7e-4 -7.9e-4,2.2e-4 -0.001,5.3e-4 -0.005,-0.01 -0.01,-0.0195 -0.0145,-0.0289 z m 0.0196,0.0377 c -0.008,0.0164 -0.0143,0.034 -0.0217,0.0506 0.0116,-0.009 0.023,-0.0187 0.0346,-0.0279 -0.004,-0.007 -0.009,-0.0159 -0.0129,-0.0227 z m 3.08818,1.05368 c 0.009,0.0536 0.0364,0.0927 0.10181,0.10077 -0.0353,-0.0346 -0.0696,-0.0682 -0.10181,-0.10077 z m -0.30747,0.0977 c -0.0246,0.028 -0.0524,0.054 -0.0791,0.0811 0.20418,0.0171 0.40888,0.0548 0.61082,0.0413 -0.004,0.006 -0.01,0.012 -0.016,0.0171 h 0.0362 c -0.006,-0.006 -0.0122,-0.0116 -0.0181,-0.0171 0.0318,-0.002 0.0634,-0.006 0.0951,-0.0108 0.0862,-0.0138 0.0341,-0.0369 -0.0956,-0.06 0.0144,0.0222 0.014,0.0481 -5.2e-4,0.0698 2e-4,1.9e-4 2.2e-4,7.9e-4 5.2e-4,0.001 -2.6e-4,0 -5.2e-4,10e-6 -0.001,0 2.2e-4,-2.6e-4 2.2e-4,-7.9e-4 5.3e-4,-0.001 -0.0303,-0.0287 -0.0597,-0.0563 -0.0879,-0.0837 -0.11688,-0.0163 -0.27803,-0.0287 -0.44494,-0.0377 z" />
    </clipPath>
    <inkscape:path-effect
       effect="spiro"
       id="path-effect6074-2"
       is_visible="true"
       lpeversion="1" />
    <clipPath
       clipPathUnits="userSpaceOnUse"
       id="clipPath6160-6-9">
      <path
         id="path6162-7-1"
         style="fill:#ff0000;fill-opacity:1;fill-rule:nonzero;stroke:none;stroke-width:0.264583"
         d="m 191.69993,198.51083 -31.13764,5.3e-4 v 92.41295 c 0.0389,-0.0211 0.0757,-0.0423 0.11265,-0.0615 0.002,0.003 0.003,0.005 0.005,0.008 2e-4,-2.6e-4 8e-4,-3e-5 0.001,-5.3e-4 0.005,0.008 0.009,0.0157 0.0134,0.0238 0.0375,-0.0296 0.0733,-0.0603 0.11111,-0.0894 -0.0371,0.0158 -0.0637,0.0246 -0.11834,0.0527 -0.002,0.005 -0.004,0.008 -0.006,0.0124 -0.002,-0.003 -0.003,-0.005 -0.005,-0.007 0.004,-0.002 0.007,-0.004 0.0109,-0.006 0.24223,-0.52572 0.52869,-0.90164 0.69969,-0.48525 0.20814,-0.1513 0.41712,-0.30156 0.61857,-0.45527 0.35191,-0.29708 0.70532,-0.58567 1.0542,-0.88263 -0.009,-0.0196 -0.018,-0.0393 -0.0263,-0.0589 -0.059,-0.13539 0.16907,-0.24426 0.27234,-0.34985 0.0625,-0.0639 0.14462,-0.20218 0.21962,-0.15348 0.0206,0.0134 0.0382,0.0237 0.0584,0.0367 0.004,-0.003 0.009,-0.006 0.0129,-0.009 -0.004,0.004 -0.008,0.008 -0.0119,0.0109 0.0971,0.0624 0.19181,0.12271 0.28008,0.17673 0.0689,-0.063 0.13681,-0.12753 0.20257,-0.1943 -0.0401,-0.0376 -0.0809,-0.0745 -0.12298,-0.11007 -0.0958,-0.081 -0.2162,0.0117 -0.33694,0.10696 0.2622,-0.24575 0.6027,-0.75911 0.72813,-0.89193 0.20691,-0.2191 0.43033,-0.4243 0.67024,-0.60668 0.17728,-0.13475 0.38346,-0.22673 0.57516,-0.34003 0.33519,-0.12848 0.66564,-0.27031 1.00562,-0.38551 0.31316,-0.10605 0.45346,-0.14334 0.56482,-0.16226 0.33732,-0.41323 0.61612,-0.87054 0.96015,-1.27744 0.23258,-0.28182 0.57804,-0.34577 0.90589,-0.43667 0.0102,-0.003 -0.0199,-0.007 -0.0279,-0.0145 -0.0344,-0.0284 0.0757,-0.0474 0.11368,-0.0708 0.0259,-0.008 0.0605,-0.005 0.0775,-0.0258 0.0187,-0.0238 -0.006,-0.0678 0.015,-0.0899 0.23737,-0.25102 0.58358,-0.42536 0.84956,-0.65164 0.24702,-0.31138 0.54943,-0.47036 0.91623,-0.6196 0.0628,-0.0175 0.12581,-0.0346 0.18862,-0.0522 0.023,-0.0134 0.0456,-0.0276 0.0687,-0.0408 0.1299,-0.11569 0.32049,-0.2635 0.57981,-0.48783 0.36245,-0.3166 0.73649,-0.6182 1.11569,-0.9126 0.13797,-0.20645 0.45117,-0.48384 0.54932,-0.55449 0.0699,-0.0763 0.13954,-0.15339 0.23151,-0.19637 0.11833,-0.0553 0.24044,-0.12085 0.36484,-0.17673 -0.0299,-0.44329 0.16876,-0.7191 0.39119,-1.0573 0.16387,-0.17644 -0.1816,0.3416 -0.0971,0.28629 0.0411,-0.0269 0.0823,-0.0542 0.1235,-0.0811 0.005,-0.0771 0.0144,-0.14219 0.0305,-0.18706 0.0316,-0.0884 0.077,-0.16954 0.13126,-0.24443 -0.007,-0.34016 0.009,-0.79549 -0.0656,-1.42473 0.1311,-0.10714 0.2707,-0.20535 0.40359,-0.31057 0.0145,0.12755 0.0289,0.25525 0.0434,0.38344 0.0283,-0.0508 0.10419,-0.0967 0.25322,-0.13798 0.14775,-0.0828 0.30967,-0.14664 0.46043,-0.22531 -0.0309,-0.0703 -0.0637,-0.13991 -0.0982,-0.20877 -0.14703,0.0137 -0.33649,0.0554 -0.42427,0.0284 -0.033,0.0137 -0.0625,0.026 -0.0858,0.0351 0.0112,-0.0101 0.0221,-0.0207 0.0331,-0.031 -0.13073,0.0533 -0.19831,0.0957 -0.0336,0.031 -0.0477,0.0431 -0.0973,0.0839 -0.14779,0.12403 -0.004,-0.0335 -0.008,-0.0673 -0.0119,-0.10077 -0.007,-0.0593 0.11776,-0.11903 0.20154,-0.14108 2.5e-4,-7.9e-4 2.3e-4,-0.002 5.3e-4,-0.003 0.0593,-0.20235 0.38863,-0.1877 0.60978,-0.16743 0.0878,-0.0411 0.17544,-0.0825 0.26355,-0.123 v 5.3e-4 c 0.51775,-0.23791 0.98967,-0.34056 1.40095,-0.34054 1.70475,1e-5 2.36386,1.75668 0.88935,2.89026 0.44839,0.33136 0.89675,0.66291 1.34514,0.99425 -0.0663,0.98854 -0.28636,0.51582 -0.72089,-0.16123 -0.0264,0.0757 -0.0531,0.1512 -0.0796,0.22686 0.0282,0.0409 0.0948,0.17432 0.12557,0.22893 0.003,0.006 0.006,0.01 0.009,0.0155 -0.0502,-0.0731 -0.11735,-0.14809 -0.14108,-0.22531 -0.0929,0.26583 -0.18515,0.53155 -0.27801,0.79737 0.009,0.009 0.0181,0.0175 0.0274,0.0263 0.10211,0.008 0.24749,-0.0674 0.43409,-0.39377 0.0229,-0.0401 0.0197,-0.081 0.003,-0.12247 0.4658,0.83953 0.12311,0.37338 0.95033,1.24488 0.39408,0.41554 -0.0252,0.81348 -0.41961,0.39791 -0.21307,-0.22448 -0.41718,-0.45777 -0.63924,-0.67334 -0.0268,-0.0261 -0.15316,-0.12888 -0.30592,-0.26976 -0.0253,10e-4 -0.0478,0.005 -0.0615,0.0155 -0.0274,0.0207 0.0569,0.0387 0.0853,0.0579 -0.076,0.0414 -0.1521,0.0823 -0.2279,0.12402 -1.13907,0.6268 -0.47119,0.2665 -1.51308,0.82165 -0.69837,0.39383 -1.42534,0.73515 -2.14819,1.08366 -0.0942,0.0776 -0.19399,0.14919 -0.31265,0.2036 -0.022,0.0119 -0.0799,0.0399 -0.14727,0.0718 -0.0271,0.0362 -0.0462,0.063 -0.078,0.10594 -0.0655,0.0559 -0.13397,0.10939 -0.20361,0.16071 -0.007,0.0842 0.003,0.17274 0.0233,0.25477 0.26821,0.52041 0.0765,0.31547 0,0 -0.0293,-0.0568 -0.0632,-0.12063 -0.10439,-0.19585 -0.0659,0.0454 -0.13385,0.0872 -0.20257,0.1266 -0.0806,0.0759 -0.16246,0.15083 -0.24753,0.22221 -0.0716,0.0601 -0.15891,0.2322 -0.22531,0.1664 -0.0505,-0.05 -0.0984,-0.10219 -0.14676,-0.154 -0.0419,0.008 -0.0833,0.019 -0.12557,0.0233 -0.0406,0.007 -0.0806,0.0175 -0.12093,0.0258 -0.18794,0.15493 -0.38271,0.3009 -0.59479,0.41755 -0.11508,0.0633 -0.26454,0.28224 -0.34933,0.1819 -0.077,-0.0912 -0.15035,-0.18526 -0.22221,-0.2806 -0.0786,0.084 -0.15944,0.16575 -0.25115,0.23667 -0.0556,0.0455 -0.11281,0.0912 -0.16898,0.13695 0.0739,0.39668 -0.15189,0.92713 -0.80305,1.44384 -0.22063,0.17508 -0.44004,0.35162 -0.66198,0.52503 -0.29354,0.22935 -0.57011,0.47977 -0.9126,0.63407 -0.28643,0.24266 -0.62832,0.32788 -0.97359,0.40256 -0.3256,0.3448 -0.68469,0.65102 -1.13275,0.85473 -0.16841,0.0799 -0.33481,0.16457 -0.50539,0.23977 -0.0922,0.0406 -0.18858,0.0685 -0.28474,0.0956 -0.32201,0.41577 -0.65213,0.7607 -1.06143,1.0945 -0.0539,0.0209 -0.11065,0.0571 -0.16795,0.0961 0.0528,0.13839 0.1071,0.27957 0.17208,0.43977 0.0302,0.0744 -0.0787,0.0913 -0.18603,0.1111 -0.0448,0.0411 -0.10335,0.0888 -0.17725,0.14883 0.5414,1.34243 0.55121,-1.22622 0.61701,-0.8754 0.09,0.48001 -0.0943,1.0719 -0.31626,1.56942 h 26.79575 v -29.93873 c -0.18643,0.009 -0.41548,-0.12227 -0.58911,-0.43821 -0.31887,-0.5802 -0.50533,-1.28807 -0.91054,-1.82521 -0.11752,-0.15578 -0.26366,-0.23578 -0.34416,-0.41238 0.007,0.008 0.0176,0.0339 0.0196,0.0238 0.0643,-0.40282 0.13709,-0.35632 -0.12196,-0.34003 -0.15814,0.01 -0.1676,-0.15006 -0.01,-0.15916 0.35706,-0.0206 0.41744,-0.34066 0.57723,-0.339 0.0447,5.3e-4 0.0974,0.0265 0.1664,0.091 0.0721,0.0468 0.15222,0.083 0.21652,0.14004 0.15453,0.13717 0.23778,0.36194 0.32918,0.53279 0.24551,0.45889 0.45407,0.93462 0.66663,1.40921 z m -16.54111,78.80966 c 0.0104,-0.004 0.0209,-0.009 0.032,-0.0129 -0.004,-0.002 -0.007,-0.005 -0.0103,-0.008 -0.007,0.007 -0.0144,0.0138 -0.0217,0.0207 z m 0.0527,-0.004 c 0.0417,-0.0173 0.0894,-0.037 0.14831,-0.0625 0.006,-0.002 0.011,-0.005 0.0165,-0.007 -0.0625,0.0169 -0.12777,0.0392 -0.185,0.0615 0.006,0.004 0.0127,0.005 0.0202,0.008 z m -0.19121,0.54364 c -0.0237,0.0425 -0.0136,0.0883 0.016,0.13746 -0.005,-0.0458 -0.0108,-0.0916 -0.016,-0.13746 z m 0.016,0.13746 c 0.004,0.0369 0.009,0.0737 0.0134,0.11058 0.0232,-0.002 0.0426,-0.005 0.0682,-0.007 -0.0329,-0.0357 -0.0619,-0.0706 -0.0816,-0.10335 z m 0.047,0.38085 c 0.0182,0.14335 0.0371,0.28676 0.0589,0.42944 0.0273,-0.0134 0.0529,-0.0306 0.0806,-0.0424 -0.005,-0.0147 -0.0108,-0.0292 -0.016,-0.0439 -0.004,-0.01 0.0515,-0.0432 0.11162,-0.076 0.035,-0.0629 0.0664,-0.1218 0.0842,-0.16743 -0.13725,-0.0367 -0.22983,-0.0685 -0.31936,-0.0997 z m 0.34469,0.20671 v 5.3e-4 c 2e-4,-1.1e-4 7.9e-4,-5.3e-4 0.001,-5.3e-4 -2e-4,10e-5 -8e-4,-1.4e-4 -0.001,0 z m 0.005,5.3e-4 c -0.002,0.002 -0.004,0.003 -0.006,0.005 2.3e-4,0.005 0.008,0.0182 0.015,0.0305 0.003,-0.003 0.006,-0.006 0.01,-0.009 1.7e-4,-0.005 5.3e-4,-0.0104 5.3e-4,-0.0155 -0.007,-0.005 -0.0158,-0.0104 -0.0191,-0.0109 z m -0.20981,0.22376 c -0.016,0.008 -0.0362,0.0178 -0.0475,0.0248 0.004,0.01 0.007,0.0193 0.0108,0.0289 0.004,-0.004 0.009,-0.009 0.0135,-0.0129 0.008,-0.0137 0.0152,-0.027 0.0232,-0.0408 z m 0.69401,0.37414 c -0.0163,0.002 -0.0335,0.004 -0.0491,0.005 -0.002,0.002 -0.003,0.004 -0.005,0.006 0.008,0.0111 0.0169,0.0232 0.0253,0.0346 0.01,-0.0154 0.0186,-0.0296 0.0289,-0.0455 z m 0.005,10e-4 0.0305,0.13178 c 0.008,0.0113 0.0159,0.022 0.0243,0.0336 0.006,-0.008 0.0132,-0.0169 0.0191,-0.0248 10e-4,-0.002 0.003,-0.005 0.004,-0.007 -5.3e-4,-0.0245 -0.001,-0.0576 -0.002,-0.0899 -0.0194,-0.0114 -0.0543,-0.0311 -0.0754,-0.0434 z m 0.0548,0.16537 c -0.004,0.005 -0.008,0.0113 -0.0124,0.0165 l 0.001,0.006 c 0.004,-0.006 0.009,-0.0146 0.0129,-0.0212 -2.6e-4,-2.6e-4 -0.001,-10e-4 -0.002,-0.002 z m -0.23099,-0.15141 c -0.0475,0.003 -0.0918,0.006 -0.13281,0.008 0.0201,0.0337 0.041,0.0684 0.063,0.10335 0.0236,-0.0363 0.0472,-0.0727 0.0708,-0.10904 -1.8e-4,-5.2e-4 -7.9e-4,-5.2e-4 -0.001,-0.002 z m -0.34623,0.017 c -0.0287,0.001 -0.0588,0.003 -0.0822,0.005 0.0303,0.0821 0.0607,0.16433 0.0909,0.24649 0.0225,-0.0293 0.0448,-0.0544 0.0672,-0.0775 -0.0257,-0.0577 -0.051,-0.11563 -0.076,-0.17363 z m 0.67127,0.0563 c -0.002,0.006 -0.004,0.0122 -0.005,0.0181 0.003,-0.003 0.008,-0.008 0.0103,-0.0109 -0.001,-0.002 -0.002,-0.003 -0.003,-0.005 -0.001,-7.9e-4 -0.002,-0.001 -0.003,-0.002 z m 0.0109,0.0165 -5.3e-4,5.3e-4 c -0.008,0.0105 -0.0162,0.021 -0.0243,0.0315 0.003,-0.01 0.006,-0.0203 0.009,-0.03 -0.0198,0.0206 -0.0435,0.0451 -0.0646,0.0672 2.2e-4,0.009 2.6e-4,0.0172 5.3e-4,0.0258 -0.004,-0.005 -0.007,-0.0101 -0.01,-0.0139 l -0.001,-5.2e-4 c -0.007,0.007 -0.0136,0.0148 -0.0207,0.0222 l 0.007,0.031 c 0.001,-5.3e-4 0.002,-10e-4 0.003,-0.002 0.007,-0.009 0.0144,-0.019 0.0217,-0.0284 -8e-5,-0.003 7e-5,-0.005 0,-0.008 h 5.2e-4 c 8e-4,0.002 0.002,0.002 0.003,0.004 0.0171,-0.0223 0.034,-0.0449 0.0512,-0.0672 -0.008,0.0261 -0.0154,0.0515 -0.0233,0.077 0.0271,-0.0111 0.054,-0.0226 0.0811,-0.0336 -0.0109,-0.0252 -0.0224,-0.0503 -0.0336,-0.0754 z m -0.29714,0.0176 c -0.0195,0.0278 -0.0388,0.0556 -0.0579,0.0837 0.0108,0.0165 0.0231,0.034 0.0341,0.0506 0.0141,-0.0247 0.0285,-0.0502 0.0444,-0.077 -0.007,-0.0192 -0.0135,-0.0378 -0.0207,-0.0574 z m 0.21446,0.015 c -0.001,0.002 -0.003,0.004 -0.004,0.006 -0.006,0.009 -0.0119,0.0177 -0.0176,0.0264 0.004,0.006 0.008,0.0106 0.0119,0.0165 0.003,-0.004 0.007,-0.007 0.0103,-0.0114 -2.5e-4,-0.01 -7.9e-4,-0.0269 -10e-4,-0.0372 z m 0.18035,0.0176 c -0.0217,0.009 -0.0434,0.0176 -0.0651,0.0264 0.0113,0.026 0.0224,0.052 0.0336,0.078 0.0369,-0.0194 0.0708,-0.0369 0.10593,-0.0553 -0.0205,-0.0146 -0.0472,-0.0318 -0.0744,-0.0491 z m -0.93276,0.0543 c 0.0147,0.0702 0.0301,0.14017 0.0465,0.20981 0.0257,-0.0245 0.0515,-0.0526 0.0775,-0.0863 -0.0398,-0.0397 -0.0829,-0.0824 -0.12402,-0.12351 z m 1.03663,0.0176 c -0.0399,0.0228 -0.0796,0.0457 -0.11937,0.0687 0.001,0.003 0.002,0.006 0.004,0.009 0.0419,-0.025 0.0819,-0.0486 0.12248,-0.0729 -0.002,-0.002 -0.004,-0.003 -0.007,-0.005 z m 0.0284,0.0398 c -0.0442,0.021 -0.0885,0.0416 -0.13281,0.0625 0.002,0.004 0.003,0.008 0.005,0.0114 0.0434,-0.0216 0.0868,-0.0435 0.13023,-0.0651 -8e-4,-0.003 -0.001,-0.006 -0.002,-0.009 z m 0.005,0.0186 c -0.0124,0.0358 -0.0323,0.0821 -0.0517,0.12764 0.0298,-0.0173 0.0547,-0.0336 0.0698,-0.0491 5e-5,-0.002 -5e-5,-0.003 0,-0.005 -0.006,-0.0246 -0.012,-0.0493 -0.0181,-0.0739 z m -0.10077,0.005 c -0.0187,0.011 -0.0239,0.0136 -0.0429,0.0248 0.002,0.004 0.003,0.008 0.005,0.0119 l 0.005,-0.005 c 0.0111,-0.0104 0.042,-0.0359 0.0331,-0.0315 z m -0.35553,0.0372 c -0.009,0.0119 -0.0175,0.0238 -0.0259,0.0357 0.002,0.002 0.003,0.004 0.005,0.007 0.008,-0.0113 0.0158,-0.0231 0.0238,-0.0346 -8e-4,-0.003 -0.002,-0.006 -0.003,-0.008 z m 0.31574,0.003 c -0.0199,0.009 -0.04,0.0185 -0.0599,0.0279 0.003,0.004 0.005,0.008 0.008,0.0114 0.011,-0.006 0.022,-0.011 0.0331,-0.0165 0.005,-0.008 0.0117,-0.0146 0.0191,-0.0222 z m 2.50321,0.40566 c 0.004,0.009 0.0219,0.0381 0.0357,0.0486 -0.0115,-0.0161 -0.0229,-0.032 -0.0346,-0.0481 -0.002,-0.002 -7.9e-4,-2.6e-4 -0.001,-5.3e-4 z m -2.45412,0.1354 -5.3e-4,5.2e-4 c 0.003,0.005 0.007,0.009 0.0104,0.0135 0.0298,0.0271 0.0587,0.0549 0.0884,0.0822 5.3e-4,-0.0301 0.001,-0.0572 0.002,-0.0868 -0.0315,-0.005 -0.0651,-0.008 -0.10025,-0.009 z m 2.56315,0.0165 c -0.0107,0.0585 -0.022,0.11692 -0.0341,0.17519 0.0459,-0.006 0.0908,-0.0143 0.13332,-0.0274 -0.0321,-0.0488 -0.0649,-0.098 -0.0992,-0.1478 z m -2.36833,0.0196 c 0.004,0.008 0.007,0.0168 0.0108,0.0253 0.004,-0.005 0.008,-0.0104 0.0114,-0.0155 -0.007,-0.004 -0.0147,-0.007 -0.0222,-0.01 z m 0.0108,0.0253 c -0.006,0.008 -0.0129,0.0168 -0.0186,0.0248 0.002,0.009 -0.0131,0.0429 -0.0238,0.0698 0.0174,0.0163 0.0354,0.0321 0.0527,0.0486 0.0165,-0.005 0.0317,-0.009 0.0439,-0.0155 -0.0181,-0.0425 -0.0365,-0.0849 -0.0543,-0.12764 z m 1.20148,0.14108 c -0.0441,-0.007 -0.0994,0.14534 -0.10904,0.21394 0.15676,0.13539 0.31898,0.26501 0.48059,0.39533 -0.10855,-0.20463 -0.22119,-0.40698 -0.35398,-0.59635 -0.006,-0.008 -0.0113,-0.012 -0.0176,-0.0129 z m -14.05134,8.25014 c -0.0555,0.0437 -0.11059,0.0855 -0.1633,0.10904 0.0477,-0.0136 0.10419,-0.0522 0.16588,-0.10749 -5.3e-4,-5.3e-4 -0.002,-7.9e-4 -0.003,-0.002 z m -0.44855,0.6904 c -0.0125,0.0299 -0.0282,0.0663 -0.0372,0.091 0.0199,-0.0138 0.0402,-0.0274 0.0599,-0.0413 -0.008,-0.0167 -0.0151,-0.0329 -0.0227,-0.0496 z m 2.12958,0.9524 c -0.0777,0.11058 -0.16102,0.21679 -0.24701,0.32091 0.008,0.005 0.014,0.008 0.0217,0.0129 0.0717,0.0444 0.25525,-0.28326 0.25425,-0.28526 -0.01,-0.016 -0.0195,-0.0326 -0.0289,-0.0486 z m -4.00233,0.3116 c -0.10749,0.005 -0.21537,0.008 -0.26717,0.0894 -0.0355,0.0559 -0.0633,0.11631 -0.0904,0.17725 0.11853,-0.0899 0.2376,-0.17903 0.3576,-0.26666 z m -0.601,0.37001 c 0.006,0.01 0.0101,0.0187 0.0155,0.0284 -2.5e-4,1.7e-4 -7.9e-4,2.2e-4 -0.001,5.3e-4 -0.005,-0.01 -0.01,-0.0195 -0.0145,-0.0289 z m 0.0196,0.0377 c -0.008,0.0164 -0.0143,0.034 -0.0217,0.0506 0.0116,-0.009 0.023,-0.0187 0.0346,-0.0279 -0.004,-0.007 -0.009,-0.0159 -0.0129,-0.0227 z m 3.08818,1.05368 c 0.009,0.0536 0.0364,0.0927 0.10181,0.10077 -0.0353,-0.0346 -0.0696,-0.0682 -0.10181,-0.10077 z m -0.30747,0.0977 c -0.0246,0.028 -0.0524,0.054 -0.0791,0.0811 0.20418,0.0171 0.40888,0.0548 0.61082,0.0413 -0.004,0.006 -0.01,0.012 -0.016,0.0171 h 0.0362 c -0.006,-0.006 -0.0122,-0.0116 -0.0181,-0.0171 0.0318,-0.002 0.0634,-0.006 0.0951,-0.0108 0.0862,-0.0138 0.0341,-0.0369 -0.0956,-0.06 0.0144,0.0222 0.014,0.0481 -5.2e-4,0.0698 2e-4,1.9e-4 2.2e-4,7.9e-4 5.2e-4,0.001 -2.6e-4,0 -5.2e-4,10e-6 -0.001,0 2.2e-4,-2.6e-4 2.2e-4,-7.9e-4 5.3e-4,-0.001 -0.0303,-0.0287 -0.0597,-0.0563 -0.0879,-0.0837 -0.11688,-0.0163 -0.27803,-0.0287 -0.44494,-0.0377 z" />
    </clipPath>
    <inkscape:path-effect
       effect="spiro"
       id="path-effect6074-5-2"
       is_visible="true"
       lpeversion="1" />
  </defs>
  <sodipodi:namedview
     id="base"
     pagecolor="#ffffff"
     bordercolor="#666666"
     borderopacity="1.0"
     inkscape:pageopacity="0.0"
     inkscape:pageshadow="2"
     inkscape:zoom="0.99437388"
     inkscape:cx="531.49023"
     inkscape:cy="276.55594"
     inkscape:document-units="mm"
     inkscape:current-layer="layer1"
     showgrid="false"
     showborder="true"
     width="200mm"
     showguides="true"
     inkscape:guide-bbox="true"
     inkscape:window-width="1920"
     inkscape:window-height="1127"
     inkscape:window-x="0"
     inkscape:window-y="0"
     inkscape:window-maximized="1"
     inkscape:pagecheckerboard="0"
     inkscape:snap-bbox="true"
     inkscape:snap-smooth-nodes="true">
    <inkscape:grid
       type="xygrid"
       id="grid815"
       units="mm"
       spacingx="10"
       spacingy="10"
       empspacing="4"
       dotted="false" />
  </sodipodi:namedview>
  <metadata
     id="metadata5">
    <rdf:RDF>
      <cc:Work
         rdf:about="">
        <dc:format>image/svg+xml</dc:format>
        <dc:type
           rdf:resource="http://purl.org/dc/dcmitype/StillImage" />
      </cc:Work>
    </rdf:RDF>
  </metadata>
  <g
     inkscape:label="Layer 1"
     inkscape:groupmode="layer"
     id="layer1"
     transform="translate(0,-177)">
    <ellipse
       style="fill:none;stroke:#000000;stroke-width:0.564999"
       id="path878"
       cx="69.910767"
       cy="236.28302"
       rx="41.527534"
       ry="39.608883" />
    <ellipse
       style="fill:none;stroke:#000000;stroke-width:0.564999"
       id="path878-3"
       cx="177.36194"
       cy="238.20413"
       rx="41.527534"
       ry="39.608883" />
    <path
       style="fill:none;stroke:#000000;stroke-width:0.264583px;stroke-linecap:butt;stroke-linejoin:miter;stroke-opacity:1;marker-mid:url(#Arrow1Lend)"
       d="m 38.47616,211.00387 c 0,0 11.117363,9.62254 29.67922,8.93215 18.561854,-0.69039 32.09745,-11.06571 32.09745,-11.06571"
       id="path1083" />
    <path
       style="fill:none;stroke:#000000;stroke-width:0.264583px;stroke-linecap:butt;stroke-linejoin:miter;stroke-opacity:1;marker-mid:url(#Arrow1Lend)"
       d="m 28.87622,230.55846 c 0,0 18.302816,15.3643 35.204722,14.567 16.901906,-0.79729 24.939347,-1.02749 46.949878,-15.06135"
       id="path1087" />
    <path
       style="fill:none;stroke:#000000;stroke-width:0.264583px;stroke-linecap:butt;stroke-linejoin:miter;stroke-opacity:1;marker-mid:url(#Arrow1Lend)"
       d="m 36.190912,259.80693 c 0,0 13.128241,7.03028 31.182637,6.61404 18.054397,-0.41624 39.600601,-12.204 39.600601,-12.204"
       id="path1089" />
    <path
       style="fill:none;stroke:#000000;stroke-width:0.26458299;stroke-linecap:butt;stroke-linejoin:miter;stroke-opacity:1;stroke-miterlimit:4;stroke-dasharray:0.52916597, 1.05833194;stroke-dashoffset:0;marker-mid:url(#Arrow1Lstart)"
       d="m 38.47616,211.00387 c 0,0 11.179792,-5.56602 29.814623,-5.29695 18.634829,0.26906 31.962047,3.16339 31.962047,3.16339"
       id="path1538" />
    <path
       style="fill:none;stroke:#000000;stroke-width:0.26458299;stroke-linecap:butt;stroke-linejoin:miter;stroke-opacity:1;stroke-miterlimit:4;stroke-dasharray:1.05833194, 1.05833194;stroke-dashoffset:0;marker-mid:url(#Arrow1Lstart)"
       d="m 28.87622,230.55846 c 0,0 5.343247,-7.49881 35.929688,-8.1058 30.586439,-0.607 46.224912,7.61145 46.224912,7.61145"
       id="path1542" />
    <path
       style="fill:none;stroke:#000000;stroke-width:0.26458299;stroke-linecap:butt;stroke-linejoin:miter;stroke-opacity:1;stroke-miterlimit:4;stroke-dasharray:0.79374896, 0.79374896;stroke-dashoffset:0;marker-mid:url(#Arrow1Lstart)"
       d="m 36.190912,259.80693 c 0,0 11.980071,-6.80301 32.76053,-7.12377 20.780462,-0.32076 38.022708,1.53381 38.022708,1.53381"
       id="path1552" />
    <text
       xml:space="preserve"
       style="font-size:4.23333px;line-height:1.25;font-family:sans-serif;stroke-width:0.264583"
       x="94.731804"
       y="218.41191"
       id="text3968"><tspan
         sodipodi:role="line"
         id="tspan3966"
         style="stroke-width:0.264583"
         x="94.731804"
         y="218.41191">$p_\theta$</tspan></text>
    <path
       style="fill:none;stroke:#000000;stroke-width:0.264583px;stroke-linecap:butt;stroke-linejoin:miter;stroke-opacity:1;marker-mid:url(#Arrow1Lend)"
       d="m 177.36194,198.59525 c 9.09314,11.04628 14.20572,25.30135 14.20572,39.60888 0,14.30753 -5.11258,28.5626 -14.20572,39.60888 -4.67856,5.68347 -10.37328,10.52796 -16.73325,14.23492"
       id="path6072"
       inkscape:path-effect="#path-effect6074"
       inkscape:original-d="m 177.36194,198.59525 c 0.0881,26.60222 2.6e-4,52.81211 0,79.21776 -2.7e-4,26.40566 -11.15524,9.49021 -16.73325,14.23492"
       clip-path="url(#clipPath6160)" />
    <path
       style="fill:none;stroke:#000000;stroke-width:0.264583px;stroke-linecap:butt;stroke-linejoin:miter;stroke-opacity:1;marker-mid:url(#Arrow1Lend)"
       d="m 177.36194,198.59525 c 9.09314,11.04628 14.20572,25.30135 14.20572,39.60888 0,14.30753 -5.11258,28.5626 -14.20572,39.60888 -4.67856,5.68347 -10.37328,10.52796 -16.73325,14.23492"
       id="path6072-3"
       inkscape:path-effect="#path-effect6074-5"
       inkscape:original-d="m 177.36194,198.59525 c 0.0881,26.60222 2.6e-4,52.81211 0,79.21776 -2.7e-4,26.40566 -11.15524,9.49021 -16.73325,14.23492"
       clip-path="url(#clipPath6160-6)"
       transform="matrix(1.8712284,0,0,1,-153.48728,-0.05732)" />
    <path
       style="fill:none;stroke:#000000;stroke-width:0.26458299;stroke-linecap:butt;stroke-linejoin:miter;stroke-miterlimit:4;stroke-dasharray:0.79374896,0.79374896;stroke-dashoffset:0;stroke-opacity:1"
       d="m 177.36194,198.59525 c 9.09314,11.04628 14.20572,25.30135 14.20572,39.60888 0,14.30753 -5.11258,28.5626 -14.20572,39.60888 -4.67856,5.68347 -10.37328,10.52796 -16.73325,14.23492"
       id="path6072-7"
       inkscape:path-effect="#path-effect6074-2"
       inkscape:original-d="m 177.36194,198.59525 c 0.0881,26.60222 2.6e-4,52.81211 0,79.21776 -2.7e-4,26.40566 -11.15524,9.49021 -16.73325,14.23492"
       clip-path="url(#clipPath6160-5)"
       transform="rotate(-178.47619,176.91873,237.81343)"
       inkscape:transform-center-x="-101.62344"
       inkscape:transform-center-y="-23.154942" />
    <path
       style="fill:none;stroke:#000000;stroke-width:0.26458298;stroke-linecap:butt;stroke-linejoin:miter;stroke-opacity:1;stroke-miterlimit:4;stroke-dasharray:0.52916597,1.05833194;stroke-dashoffset:0"
       d="m 177.36194,198.59525 c 9.09314,11.04628 14.20572,25.30135 14.20572,39.60888 0,14.30753 -5.11258,28.5626 -14.20572,39.60888 -4.67856,5.68347 -10.37328,10.52796 -16.73325,14.23492"
       id="path6072-3-0"
       inkscape:path-effect="#path-effect6074-5-2"
       inkscape:original-d="m 177.36194,198.59525 c 0.0881,26.60222 2.6e-4,52.81211 0,79.21776 -2.7e-4,26.40566 -11.15524,9.49021 -16.73325,14.23492"
       clip-path="url(#clipPath6160-6-9)"
       transform="matrix(-1.8705667,-0.04976051,0.02659243,-0.99964636,501.37549,484.26336)"
       inkscape:transform-center-x="-101.69239"
       inkscape:transform-center-y="-22.931333" />
    <text
       xml:space="preserve"
       style="font-size:4.23333px;line-height:1.25;font-family:sans-serif;stroke-width:0.264583"
       x="205.15079"
       y="220.1284"
       id="text10809"><tspan
         sodipodi:role="line"
         id="tspan10807"
         style="stroke-width:0.264583"
         x="205.15079"
         y="220.1284">p_\varphi$</tspan></text>
  </g>
</svg>
