<?xml version="1.0" encoding="UTF-8" standalone="no"?>
<!-- Created with Inkscape (http://www.inkscape.org/) -->

<svg
   width="240mm"
   height="120mm"
   viewBox="0 0 240 120"
   version="1.1"
   id="svg8"
   inkscape:version="1.1.2 (0a00cf5339, 2022-02-04)"
   sodipodi:docname="courbures-principales.svg"
   xmlns:inkscape="http://www.inkscape.org/namespaces/inkscape"
   xmlns:sodipodi="http://sodipodi.sourceforge.net/DTD/sodipodi-0.dtd"
   xmlns="http://www.w3.org/2000/svg"
   xmlns:svg="http://www.w3.org/2000/svg"
   xmlns:rdf="http://www.w3.org/1999/02/22-rdf-syntax-ns#"
   xmlns:cc="http://creativecommons.org/ns#"
   xmlns:dc="http://purl.org/dc/elements/1.1/">
  <defs
     id="defs2">
    <marker
       style="overflow:visible;"
       id="marker1460"
       refX="0.0"
       refY="0.0"
       orient="auto"
       inkscape:stockid="Arrow1Lend"
       inkscape:isstock="true">
      <path
         transform="scale(0.8) rotate(180) translate(12.5,0)"
         style="fill-rule:evenodd;fill:context-stroke;stroke:context-stroke;stroke-width:1.0pt;"
         d="M 0.0,0.0 L 5.0,-5.0 L -12.5,0.0 L 5.0,5.0 L 0.0,0.0 z "
         id="path1458" />
    </marker>
    <marker
       style="overflow:visible;"
       id="marker1448"
       refX="0.0"
       refY="0.0"
       orient="auto"
       inkscape:stockid="Arrow1Lend"
       inkscape:isstock="true">
      <path
         transform="scale(0.8) rotate(180) translate(12.5,0)"
         style="fill-rule:evenodd;fill:context-stroke;stroke:context-stroke;stroke-width:1.0pt;"
         d="M 0.0,0.0 L 5.0,-5.0 L -12.5,0.0 L 5.0,5.0 L 0.0,0.0 z "
         id="path1190" />
    </marker>
    <marker
       style="overflow:visible;"
       id="Arrow1Lend"
       refX="0.0"
       refY="0.0"
       orient="auto"
       inkscape:stockid="Arrow1Lend"
       inkscape:isstock="true">
      <path
         transform="scale(0.8) rotate(180) translate(12.5,0)"
         style="fill-rule:evenodd;fill:context-stroke;stroke:context-stroke;stroke-width:1.0pt;"
         d="M 0.0,0.0 L 5.0,-5.0 L -12.5,0.0 L 5.0,5.0 L 0.0,0.0 z "
         id="path1860" />
    </marker>
    <clipPath
       clipPathUnits="userSpaceOnUse"
       id="clipPath1888">
      <path
         id="path1890"
         style="fill:#ff0000;fill-opacity:1;fill-rule:nonzero;stroke:none;stroke-width:0.264583"
         d="m 154.29394,212.41541 v 47.20694 h 9.23561 c -0.41228,-0.34715 -0.77385,-0.59299 -1.44746,-0.64182 -2.83236,-0.20538 -2.88181,-2.94715 -0.13332,-2.91766 0.0436,5.3e-4 0.0883,0.001 0.13332,0.003 1.44598,0.0606 2.70241,0.7141 3.73673,1.70687 0.12403,0.11905 0.97141,0.98148 0.81855,1.42317 -0.0579,0.16726 -0.17851,0.29924 -0.30799,0.42633 h 0.62425 v -9.43766 c -0.12826,-0.0563 -0.25499,-0.11593 -0.38034,-0.17571 -1.26318,-0.60239 -1.66269,-1.03098 -2.73885,-1.90169 -1.77896,-1.43933 -1.10954,-2.87661 0.37155,-2.88664 0.57957,-0.004 1.28331,0.21114 2.01332,0.72967 0.31652,0.22482 0.53502,0.38627 0.73432,0.52555 v -7.4104 c -0.35271,0.0259 -0.70506,0.0576 -1.05678,0.10128 -2.8645,0.35564 -3.42096,-2.55619 -0.55087,-2.86339 0.53421,-0.0572 1.0704,-0.10901 1.60765,-0.15141 v -9.37462 c -0.48449,0.14676 -0.99029,0.23976 -1.46244,0.34778 -2.87597,0.65762 -3.14315,-2.19468 -0.29507,-2.96571 0.28128,-0.0762 0.56806,-0.13428 0.84387,-0.22841 0.27172,-0.0927 0.52354,-0.23867 0.7953,-0.33125 0.0522,-0.0178 0.072,-0.0237 0.11834,-0.0393 v -4.25245 c -1.25084,0.74274 -2.51123,1.47371 -3.82251,2.0991 -2.75037,1.31175 -4.11191,-1.49869 -1.34255,-2.76986 1.74128,-0.79926 3.28596,-1.95502 5.02657,-2.75952 0.0459,-0.0213 0.0925,-0.0423 0.13849,-0.0636 v -3.39876 z" />
    </clipPath>
    <clipPath
       clipPathUnits="userSpaceOnUse"
       id="clipPath1888-3">
      <path
         id="path1890-6"
         style="fill:#ff0000;fill-opacity:1;fill-rule:nonzero;stroke:none;stroke-width:0.264583"
         d="m 154.29394,212.41541 v 47.20694 h 9.23561 c -0.41228,-0.34715 -0.77385,-0.59299 -1.44746,-0.64182 -2.83236,-0.20538 -2.88181,-2.94715 -0.13332,-2.91766 0.0436,5.3e-4 0.0883,0.001 0.13332,0.003 1.44598,0.0606 2.70241,0.7141 3.73673,1.70687 0.12403,0.11905 0.97141,0.98148 0.81855,1.42317 -0.0579,0.16726 -0.17851,0.29924 -0.30799,0.42633 h 0.62425 v -9.43766 c -0.12826,-0.0563 -0.25499,-0.11593 -0.38034,-0.17571 -1.26318,-0.60239 -1.66269,-1.03098 -2.73885,-1.90169 -1.77896,-1.43933 -1.10954,-2.87661 0.37155,-2.88664 0.57957,-0.004 1.28331,0.21114 2.01332,0.72967 0.31652,0.22482 0.53502,0.38627 0.73432,0.52555 v -7.4104 c -0.35271,0.0259 -0.70506,0.0576 -1.05678,0.10128 -2.8645,0.35564 -3.42096,-2.55619 -0.55087,-2.86339 0.53421,-0.0572 1.0704,-0.10901 1.60765,-0.15141 v -9.37462 c -0.48449,0.14676 -0.99029,0.23976 -1.46244,0.34778 -2.87597,0.65762 -3.14315,-2.19468 -0.29507,-2.96571 0.28128,-0.0762 0.56806,-0.13428 0.84387,-0.22841 0.27172,-0.0927 0.52354,-0.23867 0.7953,-0.33125 0.0522,-0.0178 0.072,-0.0237 0.11834,-0.0393 v -4.25245 c -1.25084,0.74274 -2.51123,1.47371 -3.82251,2.0991 -2.75037,1.31175 -4.11191,-1.49869 -1.34255,-2.76986 1.74128,-0.79926 3.28596,-1.95502 5.02657,-2.75952 0.0459,-0.0213 0.0925,-0.0423 0.13849,-0.0636 v -3.39876 z" />
    </clipPath>
    <clipPath
       clipPathUnits="userSpaceOnUse"
       id="clipPath3051">
      <path
         id="path3053"
         style="fill:#ff0000;fill-opacity:1;fill-rule:nonzero;stroke:none;stroke-width:0.264583"
         d="m 198.97028,212.61591 -11.24272,5.3e-4 v 46.77028 h 11.24272 v -3.30213 c -0.19455,-0.038 -0.38911,-0.0884 -0.58291,-0.14883 -0.44727,-0.045 -0.87677,-0.18503 -1.08727,-0.44028 v -5.3e-4 c 0.35622,0.17571 0.72054,0.3264 1.08727,0.4408 0.19689,0.0198 0.3963,0.0209 0.58291,0.005 v -1.04232 c -0.0401,0.0401 -0.0845,0.0712 -0.14004,0.0811 -0.8675,0.15563 -1.04513,-0.44433 -0.76895,-1.12759 -0.93436,0.77352 -1.03723,1.30667 -0.76171,1.64228 -0.80319,-0.39625 -1.56627,-0.91679 -2.23139,-1.41903 0.9193,-0.71497 -1.12919,-1.13347 -1.61488,-2.12184 -0.14027,-0.28542 0.45191,-0.57771 0.96944,-0.77669 -0.015,-0.0308 -0.0297,-0.0617 -0.0429,-0.0935 -0.0826,-0.19949 0.4146,-0.15444 0.63046,-0.14934 0.0312,7.9e-4 0.0625,0.003 0.0935,0.005 0.003,-0.001 0.008,-0.003 0.01,-0.004 0.43403,-0.18495 0.80875,-0.2692 1.11259,-0.27285 0.69969,-0.008 1.02362,0.41094 0.83096,1.01337 0.56183,0.334 1.11126,0.68557 1.7141,0.95912 0.0658,0.0298 0.13224,0.0586 0.19896,0.0863 v -6.12831 c -0.44267,-0.12293 -0.94608,-0.27077 -1.66243,-0.46974 -3.11275,-0.86456 -2.41281,-3.59889 0.26252,-3.56102 0.32852,0.005 0.68703,0.0515 1.07176,0.14831 0.14148,0.0356 0.20631,0.0531 0.32815,0.0842 v -7.77058 c -0.29406,-0.0671 -0.59402,-0.10769 -0.90537,-0.0961 -2.82799,0.10491 -2.81997,-3.23523 -0.55036,-3.25458 0.23479,-0.002 0.49362,0.032 0.77618,0.10852 0.2355,0.0638 0.45971,0.1217 0.67955,0.17828 v -9.0842 c -0.41105,0.4647 -0.81592,0.93449 -1.17977,1.43816 -1.98771,2.75145 -4.77719,0.50945 -2.66961,-2.15129 0.43152,-0.54478 2.06596,-2.66042 2.57349,-3.08095 0.38549,-0.31941 0.80209,-0.71782 1.27589,-0.85215 z" />
    </clipPath>
  </defs>
  <sodipodi:namedview
     id="base"
     pagecolor="#ffffff"
     bordercolor="#666666"
     borderopacity="1.0"
     inkscape:pageopacity="0.0"
     inkscape:pageshadow="2"
     inkscape:zoom="1.1939323"
     inkscape:cx="453.54331"
     inkscape:cy="296.08044"
     inkscape:document-units="mm"
     inkscape:current-layer="layer1"
     showgrid="false"
     showborder="true"
     width="200mm"
     showguides="true"
     inkscape:guide-bbox="true"
     inkscape:window-width="1920"
     inkscape:window-height="1127"
     inkscape:window-x="0"
     inkscape:window-y="0"
     inkscape:window-maximized="1"
     inkscape:pagecheckerboard="0"
     inkscape:snap-global="false">
    <inkscape:grid
       type="xygrid"
       id="grid815"
       units="mm"
       spacingx="10"
       spacingy="10"
       empspacing="4"
       dotted="false" />
  </sodipodi:namedview>
  <metadata
     id="metadata5">
    <rdf:RDF>
      <cc:Work
         rdf:about="">
        <dc:format>image/svg+xml</dc:format>
        <dc:type
           rdf:resource="http://purl.org/dc/dcmitype/StillImage" />
      </cc:Work>
    </rdf:RDF>
  </metadata>
  <g
     inkscape:label="Layer 1"
     inkscape:groupmode="layer"
     id="layer1"
     transform="translate(0,-177)">
    <path
       style="fill:none;stroke:#ff0000;stroke-width:0.264583px;stroke-linecap:butt;stroke-linejoin:miter;stroke-opacity:1"
       d="M -9.9283583,250.32799 32.449115,207.95051 h 98.730235 l -25.87751,44.82116 z"
       id="path911" />
    <path
       style="fill:none;stroke:#ffff00;stroke-width:0.865;stroke-linecap:butt;stroke-linejoin:miter;stroke-miterlimit:4;stroke-dasharray:none;stroke-opacity:1"
       d="m 10.188502,183.87875 c -0.185203,2.71704 25.587008,42.63373 51.952043,42.48941 26.36504,-0.14432 45.970715,-45.33077 45.970715,-45.33077"
       id="path1144" />
    <path
       style="fill:none;stroke:#00ff00;stroke-width:0.718225;stroke-linecap:butt;stroke-linejoin:miter;stroke-miterlimit:4;stroke-dasharray:none;stroke-opacity:1"
       d="m 95.796565,271.84069 c 0.22688,-2.70339 -16.05549,-43.95196 -34.21264,-45.1858 -15.868186,-1.07831 -33.306901,42.82802 -33.306901,42.82802"
       id="path1144-3"
       sodipodi:nodetypes="csc" />
    <path
       style="fill:none;stroke:#000000;stroke-width:0.265;stroke-linecap:butt;stroke-linejoin:miter;stroke-miterlimit:4;stroke-dasharray:none;stroke-opacity:1;marker-end:url(#Arrow1Lend)"
       d="m 62.678325,227.07236 -0.71142,-30.58654"
       id="path1855" />
    <text
       xml:space="preserve"
       style="font-size:4.23333px;line-height:1.25;font-family:sans-serif;stroke-width:0.264583"
       x="71.460747"
       y="205.24567"
       id="text8485"><tspan
         sodipodi:role="line"
         id="tspan8483"
         style="stroke-width:0.264583"
         x="71.460747"
         y="205.24567">$n$</tspan></text>
    <text
       xml:space="preserve"
       style="font-size:4.23333px;line-height:1.25;font-family:sans-serif;stroke-width:0.264583"
       x="112.49983"
       y="193.82118"
       id="text11129"><tspan
         sodipodi:role="line"
         id="tspan11127"
         style="stroke-width:0.264583"
         x="112.49983"
         y="193.82118">$k_1 \ge 0$</tspan></text>
    <text
       xml:space="preserve"
       style="font-size:4.23333px;line-height:1.25;font-family:sans-serif;stroke-width:0.264583"
       x="104.40205"
       y="263.85193"
       id="text17227"><tspan
         sodipodi:role="line"
         id="tspan17225"
         style="stroke-width:0.264583"
         x="104.40205"
         y="263.85193">$k_2 \le 0$</tspan></text>
    <path
       style="fill:none;stroke:#ffff00;stroke-width:0.765;stroke-linecap:butt;stroke-linejoin:miter;stroke-opacity:1;stroke-miterlimit:4;stroke-dasharray:none;marker-end:url(#marker1448)"
       d="m 62.678325,227.07236 32.108529,-9.18012"
       id="path987" />
    <path
       style="fill:none;stroke:#00ff00;stroke-width:0.665;stroke-linecap:butt;stroke-linejoin:miter;stroke-opacity:1;marker-end:url(#marker1460);stroke-miterlimit:4;stroke-dasharray:none"
       d="m 64.331003,227.27318 22.968381,9.78284"
       id="path1456" />
    <ellipse
       style="fill:none;stroke:#000000;stroke-width:0.665001;stroke-miterlimit:4;stroke-dasharray:none;stroke-opacity:1"
       id="path1743"
       cx="160.62396"
       cy="236.01886"
       rx="5.9973636"
       ry="23.27112"
       clip-path="url(#clipPath1888)" />
    <path
       style="fill:none;stroke:#000000;stroke-width:0.264583px;stroke-linecap:butt;stroke-linejoin:miter;stroke-opacity:1"
       d="m 161.50596,212.7195 h 64.1172"
       id="path2295" />
    <path
       style="fill:none;stroke:#000000;stroke-width:0.264583px;stroke-linecap:butt;stroke-linejoin:miter;stroke-opacity:1"
       d="m 160.83746,259.68693 h 64.53133"
       id="path2297" />
    <ellipse
       style="fill:none;stroke:#000000;stroke-width:0.673517;stroke-miterlimit:4;stroke-dasharray:none;stroke-opacity:1"
       id="path2459"
       cx="225.53227"
       cy="235.93224"
       rx="5.2846799"
       ry="23.048376" />
    <ellipse
       style="fill:none;stroke:#00ff00;stroke-width:0.673517;stroke-miterlimit:4;stroke-dasharray:none;stroke-opacity:1"
       id="path2459-5"
       cx="193.34886"
       cy="236.00142"
       rx="5.2846799"
       ry="23.048376"
       clip-path="url(#clipPath3051)" />
    <path
       style="fill:none;stroke:#ffff00;stroke-width:0.665;stroke-linecap:butt;stroke-linejoin:miter;stroke-opacity:1;stroke-miterlimit:4;stroke-dasharray:none;marker-end:url(#marker1460)"
       d="m 193.5319,212.63814 22.75903,-0.0181"
       id="path3154" />
    <path
       style="fill:none;stroke:#00ff00;stroke-width:0.665991;stroke-linecap:butt;stroke-linejoin:miter;stroke-miterlimit:4;stroke-dasharray:none;stroke-opacity:1;marker-end:url(#marker1448)"
       d="m 193.01479,212.6341 -12.45426,13.4564"
       id="path3406" />
    <text
       xml:space="preserve"
       style="font-size:4.23333px;line-height:1.25;font-family:sans-serif;stroke-width:0.264583"
       x="199.00194"
       y="208.5784"
       id="text5998"><tspan
         sodipodi:role="line"
         id="tspan5996"
         style="stroke-width:0.264583"
         x="199.00194"
         y="208.5784">$k_1 = 0$</tspan></text>
    <text
       xml:space="preserve"
       style="font-size:4.23333px;line-height:1.25;font-family:sans-serif;stroke-width:0.264583"
       x="171.78757"
       y="216.07935"
       id="text8730"><tspan
         sodipodi:role="line"
         id="tspan8728"
         style="stroke-width:0.264583"
         x="171.78757"
         y="216.07935">$k_2 \le 0$</tspan></text>
    <path
       style="fill:none;stroke:#df0000;stroke-width:0.365;stroke-linecap:butt;stroke-linejoin:miter;stroke-opacity:1;marker-end:url(#marker1460);stroke-miterlimit:4;stroke-dasharray:none"
       d="M 192.01458,213.26409 V 191.60121"
       id="path10118" />
    <text
       xml:space="preserve"
       style="font-size:4.23333px;line-height:1.25;font-family:sans-serif;stroke-width:0.264583"
       x="188.30859"
       y="190.01328"
       id="text15193"><tspan
         sodipodi:role="line"
         id="tspan15191"
         style="stroke-width:0.264583"
         x="188.30859"
         y="190.01328">$n$</tspan></text>
  </g>
</svg>
