<?xml version="1.0" encoding="UTF-8" standalone="no"?>
<!-- Created with Inkscape (http://www.inkscape.org/) -->

<svg
   width="240mm"
   height="120mm"
   viewBox="0 0 240 120"
   version="1.1"
   id="svg8"
   inkscape:version="1.1.2 (0a00cf5339, 2022-02-04, custom)"
   sodipodi:docname="exemple-de-chi.svg"
   xmlns:inkscape="http://www.inkscape.org/namespaces/inkscape"
   xmlns:sodipodi="http://sodipodi.sourceforge.net/DTD/sodipodi-0.dtd"
   xmlns:xlink="http://www.w3.org/1999/xlink"
   xmlns="http://www.w3.org/2000/svg"
   xmlns:svg="http://www.w3.org/2000/svg"
   xmlns:rdf="http://www.w3.org/1999/02/22-rdf-syntax-ns#"
   xmlns:cc="http://creativecommons.org/ns#"
   xmlns:dc="http://purl.org/dc/elements/1.1/">
  <defs
     id="defs2">
    <pattern
       inkscape:collect="always"
       xlink:href="#Checkerboard"
       id="pattern4701"
       patternTransform="matrix(10,0,0,10,17.312728,-1.7698954)" />
    <inkscape:path-effect
       effect="bspline"
       id="path-effect4619"
       is_visible="true"
       lpeversion="1"
       weight="33.333333"
       steps="2"
       helper_size="0"
       apply_no_weight="true"
       apply_with_weight="true"
       only_selected="false" />
    <inkscape:path-effect
       effect="bspline"
       id="path-effect4414"
       is_visible="true"
       lpeversion="1"
       weight="33.333333"
       steps="2"
       helper_size="0"
       apply_no_weight="true"
       apply_with_weight="true"
       only_selected="false" />
    <inkscape:path-effect
       effect="bspline"
       id="path-effect4410"
       is_visible="true"
       lpeversion="1"
       weight="33.333333"
       steps="2"
       helper_size="0"
       apply_no_weight="true"
       apply_with_weight="true"
       only_selected="false" />
    <inkscape:path-effect
       effect="bspline"
       id="path-effect4406"
       is_visible="true"
       lpeversion="1"
       weight="33.333333"
       steps="2"
       helper_size="0"
       apply_no_weight="true"
       apply_with_weight="true"
       only_selected="false" />
    <inkscape:path-effect
       effect="bspline"
       id="path-effect4069"
       is_visible="true"
       lpeversion="1"
       weight="33.333333"
       steps="2"
       helper_size="0"
       apply_no_weight="true"
       apply_with_weight="true"
       only_selected="false" />
    <inkscape:path-effect
       effect="spiro"
       id="path-effect3722"
       is_visible="true"
       lpeversion="1" />
    <inkscape:path-effect
       effect="spiro"
       id="path-effect3296"
       is_visible="true"
       lpeversion="1" />
    <inkscape:path-effect
       effect="spiro"
       id="path-effect3250"
       is_visible="true"
       lpeversion="1" />
    <pattern
       inkscape:collect="always"
       patternUnits="userSpaceOnUse"
       width="2"
       height="2"
       patternTransform="translate(0,0) scale(10,10)"
       id="Checkerboard"
       inkscape:stockid="Checkerboard">
      <rect
         style="fill:black;stroke:none"
         x="0"
         y="0"
         width="1"
         height="1"
         id="rect2271" />
      <rect
         style="fill:black;stroke:none"
         x="1"
         y="1"
         width="1"
         height="1"
         id="rect2273" />
    </pattern>
    <linearGradient
       id="linearGradient3178"
       inkscape:swatch="solid">
      <stop
         style="stop-color:#000000;stop-opacity:1;"
         offset="0"
         id="stop3176" />
    </linearGradient>
    <inkscape:path-effect
       effect="spiro"
       id="path-effect913"
       is_visible="true"
       lpeversion="1" />
    <inkscape:path-effect
       effect="spiro"
       id="path-effect905"
       is_visible="true"
       lpeversion="1" />
    <inkscape:path-effect
       effect="spiro"
       id="path-effect901"
       is_visible="true"
       lpeversion="1" />
    <inkscape:path-effect
       effect="spiro"
       id="path-effect901-3"
       is_visible="true"
       lpeversion="1" />
    <inkscape:path-effect
       effect="spiro"
       id="path-effect905-6"
       is_visible="true"
       lpeversion="1" />
    <inkscape:path-effect
       effect="spiro"
       id="path-effect913-7"
       is_visible="true"
       lpeversion="1" />
    <inkscape:path-effect
       effect="spiro"
       id="path-effect3250-6"
       is_visible="true"
       lpeversion="1" />
    <inkscape:path-effect
       effect="spiro"
       id="path-effect901-9"
       is_visible="true"
       lpeversion="1" />
    <inkscape:path-effect
       effect="spiro"
       id="path-effect905-7"
       is_visible="true"
       lpeversion="1" />
    <inkscape:path-effect
       effect="spiro"
       id="path-effect913-3"
       is_visible="true"
       lpeversion="1" />
    <inkscape:path-effect
       effect="spiro"
       id="path-effect3250-9"
       is_visible="true"
       lpeversion="1" />
  </defs>
  <sodipodi:namedview
     id="base"
     pagecolor="#ffffff"
     bordercolor="#666666"
     borderopacity="1.0"
     inkscape:pageopacity="0.0"
     inkscape:pageshadow="2"
     inkscape:zoom="1.2782552"
     inkscape:cx="497.16207"
     inkscape:cy="274.98421"
     inkscape:document-units="mm"
     inkscape:current-layer="layer1"
     showgrid="false"
     showborder="true"
     width="200mm"
     showguides="true"
     inkscape:guide-bbox="true"
     inkscape:window-width="1920"
     inkscape:window-height="1171"
     inkscape:window-x="0"
     inkscape:window-y="0"
     inkscape:window-maximized="1"
     inkscape:pagecheckerboard="0"
     inkscape:snap-smooth-nodes="true"
     inkscape:snap-nodes="false">
    <inkscape:grid
       type="xygrid"
       id="grid815"
       units="mm"
       spacingx="10"
       spacingy="10"
       empspacing="4"
       dotted="false" />
  </sodipodi:namedview>
  <metadata
     id="metadata5">
    <rdf:RDF>
      <cc:Work
         rdf:about="">
        <dc:format>image/svg+xml</dc:format>
        <dc:type
           rdf:resource="http://purl.org/dc/dcmitype/StillImage" />
      </cc:Work>
    </rdf:RDF>
  </metadata>
  <g
     inkscape:label="Layer 1"
     inkscape:groupmode="layer"
     id="layer1"
     transform="translate(0,-177)">
    <path
       style="fill:none;stroke:#000000;stroke-width:0.264583px;stroke-linecap:butt;stroke-linejoin:miter;stroke-opacity:1"
       d="m 40.911052,199.88237 c 0.83282,-1.71248 2.288535,-3.11357 4.031595,-3.88032 0.844703,-0.37157 1.774142,-0.59907 2.691066,-0.49495 0.904565,0.10272 1.755268,0.52672 2.449187,1.11602 0.693919,0.58929 1.238927,1.33825 1.677342,2.13611 0.876832,1.59572 1.340419,3.38576 2.138709,5.02219 1.352904,2.77334 3.645334,5.02592 6.286034,6.62231 0.803832,0.48594 1.659243,0.92144 2.585749,1.07595 1.151643,0.19205 2.373862,-0.0788 3.336493,-0.73954 0.962631,-0.66069 1.654891,-1.70375 1.889777,-2.84743"
       id="path899"
       inkscape:path-effect="#path-effect901"
       inkscape:original-d="m 40.911052,199.88237 c 1.343865,-1.29344 2.468322,-2.8629 4.031595,-3.88032 0.764428,-0.49751 1.779193,-0.47612 2.691066,-0.49495 4.298222,-0.0888 4.510945,5.56314 6.265238,8.27432 1.720202,2.65851 3.552669,5.00252 6.286034,6.62231 0.717939,0.42545 1.680824,1.25958 2.585749,1.07595 2.184414,-0.44326 3.438676,-2.40735 5.22627,-3.58697" />
    <path
       style="fill:none;stroke:#000000;stroke-width:0.264583px;stroke-linecap:butt;stroke-linejoin:miter;stroke-opacity:1"
       d="m 47.969165,209.32486 c 0.922359,-4.03587 2.807362,-7.84834 5.454314,-11.03152 1.135474,-1.3655 2.408741,-2.61636 3.794186,-3.72741"
       id="path903"
       inkscape:path-effect="#path-effect905"
       inkscape:original-d="m 47.969165,209.32486 c 1.412044,-5.87553 0.512961,-3.74235 5.454314,-11.03152 1.005911,-1.48386 2.718668,-2.29339 3.794186,-3.72741" />
    <path
       style="fill:none;stroke:#000000;stroke-width:0.264583px;stroke-linecap:butt;stroke-linejoin:miter;stroke-opacity:1"
       d="m 80.434691,193.07246 c -2.932205,1.91399 -4.846439,5.30198 -4.97278,8.80129 -0.126341,3.49932 1.538584,7.01653 4.325127,9.13699 0.968638,0.7371 2.060723,1.31156 3.216886,1.69217"
       id="path911"
       inkscape:path-effect="#path-effect913"
       inkscape:original-d="m 80.434691,193.07246 c -2.54957,3.93187 -3.276423,13.94109 -0.647653,17.93828 0.764543,1.16253 2.373741,0.96316 3.216886,1.69217" />
    <path
       style="fill:url(#pattern4701);fill-opacity:1;stroke:#000000;stroke-width:0.402;stroke-miterlimit:4;stroke-dasharray:none"
       id="path949"
       sodipodi:type="arc"
       sodipodi:cx="89.898689"
       sodipodi:cy="202.16786"
       sodipodi:rx="9.4640026"
       sodipodi:ry="9.0953932"
       sodipodi:start="0"
       sodipodi:end="6.2830457"
       sodipodi:open="true"
       sodipodi:arc-type="arc"
       d="m 99.362692,202.16786 a 9.4640026,9.0953932 0 0 1 -9.463672,9.0954 9.4640026,9.0953932 0 0 1 -9.464333,-9.09476 9.4640026,9.0953932 0 0 1 9.463011,-9.09603 9.4640026,9.0953932 0 0 1 9.464994,9.09412" />
    <path
       style="fill:none;stroke:#000000;stroke-width:0.264583px;stroke-linecap:butt;stroke-linejoin:miter;stroke-opacity:1"
       d="m 99.056457,193.8859 c 2.203293,1.56227 3.948523,3.76264 4.968113,6.26376 1.01959,2.50113 1.31009,5.29452 0.82695,7.95192 -0.42044,2.31253 -1.4222,4.51704 -2.88768,6.35469"
       id="path3248"
       inkscape:path-effect="#path-effect3250"
       inkscape:original-d="m 99.056457,193.8859 c 5.314763,2.49551 6.995383,8.75105 5.795063,14.21568 -0.35306,1.60733 -2.52069,5.64987 -2.88768,6.35469" />
    <path
       style="fill:none;stroke:#000000;stroke-width:0.264583px;stroke-linecap:butt;stroke-linejoin:miter;stroke-opacity:1"
       d="m -23.629371,114.04634 -2.789459,-3.66327"
       id="path3294"
       inkscape:path-effect="#path-effect3296"
       inkscape:original-d="m -23.629371,114.04634 c -0.92982,-1.22109 -1.85964,-2.44218 -2.789459,-3.66327" />
    <path
       style="fill:none;stroke:#000000;stroke-width:0.264583px;stroke-linecap:butt;stroke-linejoin:miter;stroke-opacity:1"
       d="m 118.08333,199.0654 h 20.64568"
       id="path3331" />
    <path
       style="fill:none;stroke:#000000;stroke-width:0.264583px;stroke-linecap:butt;stroke-linejoin:miter;stroke-opacity:1"
       d="m 119.82502,211.01428 h 18.26385"
       id="path3333" />
    <path
       style="fill:none;stroke:#000000;stroke-width:0.264583px;stroke-linecap:butt;stroke-linejoin:miter;stroke-opacity:1"
       d="m 164.51001,195.79726 c -0.58607,1.65221 7.77693,-5.78838 7.38385,-4.21615"
       id="path3368" />
    <path
       style="fill:none;stroke:#000000;stroke-width:0.264583px;stroke-linecap:butt;stroke-linejoin:miter;stroke-opacity:1"
       d="m 171.89386,191.58111 c 0.11995,4.8778 0.18017,10.09974 1.84779,14.67479"
       id="path3372" />
    <path
       style="fill:none;stroke:#000000;stroke-width:0.264583px;stroke-linecap:butt;stroke-linejoin:miter;stroke-opacity:1"
       d="m 40.477183,230.31287 c 0.83282,-1.71248 2.288535,-3.11357 4.031595,-3.88032 0.844703,-0.37157 1.774142,-0.59907 2.691066,-0.49495 0.904565,0.10272 1.755268,0.52672 2.449187,1.11602 0.693919,0.58929 1.238927,1.33825 1.677342,2.13611 0.876832,1.59572 1.340419,3.38576 2.138709,5.02219 1.352904,2.77334 3.645334,5.02592 6.286034,6.62231 0.803832,0.48594 1.659243,0.92144 2.585749,1.07595 1.151643,0.19205 2.373861,-0.0788 3.336492,-0.73954 0.962631,-0.66069 1.654891,-1.70375 1.889777,-2.84743"
       id="path899-2"
       inkscape:path-effect="#path-effect901-3"
       inkscape:original-d="m 40.477183,230.31287 c 1.343865,-1.29344 2.468322,-2.8629 4.031595,-3.88032 0.764428,-0.49751 1.779193,-0.47612 2.691066,-0.49495 4.298222,-0.0888 4.510945,5.56314 6.265238,8.27432 1.720202,2.65851 3.552669,5.00252 6.286034,6.62231 0.717939,0.42545 1.680824,1.25958 2.585749,1.07595 2.184409,-0.44326 3.438679,-2.40735 5.226269,-3.58697" />
    <path
       style="fill:none;stroke:#000000;stroke-width:0.264583px;stroke-linecap:butt;stroke-linejoin:miter;stroke-opacity:1"
       d="m 47.535296,239.75536 c 0.922359,-4.03587 2.807362,-7.84834 5.454314,-11.03152 1.135474,-1.3655 2.408741,-2.61636 3.794186,-3.72741"
       id="path903-9"
       inkscape:path-effect="#path-effect905-6"
       inkscape:original-d="m 47.535296,239.75536 c 1.412044,-5.87553 0.512961,-3.74235 5.454314,-11.03152 1.005911,-1.48386 2.718668,-2.29339 3.794186,-3.72741" />
    <path
       style="fill:none;stroke:#000000;stroke-width:0.264583px;stroke-linecap:butt;stroke-linejoin:miter;stroke-opacity:1"
       d="m 80.000824,223.50296 c -2.932203,1.91399 -4.846435,5.30198 -4.972775,8.80129 -0.12634,3.49932 1.538584,7.01653 4.325125,9.13699 0.968636,0.7371 2.060719,1.31156 3.21688,1.69217"
       id="path911-1"
       inkscape:path-effect="#path-effect913-7"
       inkscape:original-d="m 80.000824,223.50296 c -2.54957,3.93187 -3.27642,13.94109 -0.64765,17.93828 0.76454,1.16253 2.37374,0.96316 3.21688,1.69217" />
    <path
       style="fill:none;fill-opacity:1;stroke:#000000;stroke-width:0.402;stroke-miterlimit:4;stroke-dasharray:none"
       id="path949-2"
       sodipodi:type="arc"
       sodipodi:cx="89.464828"
       sodipodi:cy="232.59836"
       sodipodi:rx="9.4640026"
       sodipodi:ry="9.0953932"
       sodipodi:start="0"
       sodipodi:end="6.2830457"
       sodipodi:open="true"
       sodipodi:arc-type="arc"
       d="m 98.928831,232.59836 a 9.4640026,9.0953932 0 0 1 -9.463672,9.09539 9.4640026,9.0953932 0 0 1 -9.464333,-9.09476 9.4640026,9.0953932 0 0 1 9.463012,-9.09602 9.4640026,9.0953932 0 0 1 9.464993,9.09412" />
    <path
       style="fill:none;stroke:#000000;stroke-width:0.264583px;stroke-linecap:butt;stroke-linejoin:miter;stroke-opacity:1"
       d="m 98.622584,224.3164 c 2.203296,1.56227 3.948516,3.76264 4.968106,6.26376 1.01959,2.50113 1.31009,5.29452 0.82695,7.95192 -0.42044,2.31253 -1.4222,4.51704 -2.88768,6.35469"
       id="path3248-7"
       inkscape:path-effect="#path-effect3250-6"
       inkscape:original-d="m 98.622584,224.3164 c 5.314766,2.49551 6.995386,8.75105 5.795056,14.21568 -0.35305,1.60733 -2.52068,5.64987 -2.88768,6.35469" />
    <path
       style="fill:none;stroke:#000000;stroke-width:0.264583px;stroke-linecap:butt;stroke-linejoin:miter;stroke-opacity:1"
       d="m 117.64946,229.4959 h 20.64568"
       id="path3331-0" />
    <path
       style="fill:none;stroke:#000000;stroke-width:0.264583px;stroke-linecap:butt;stroke-linejoin:miter;stroke-opacity:1"
       d="M 119.39115,241.44478 H 137.655"
       id="path3333-9" />
    <path
       style="fill:none;stroke:#000000;stroke-width:0.264583px;stroke-linecap:butt;stroke-linejoin:miter;stroke-opacity:1"
       d="m 80.000824,232.59835 c 2.530609,1.72044 5.537956,2.73173 8.593913,2.8899 3.6355,0.18817 7.32357,-0.84319 10.334093,-2.8899"
       id="path3720"
       inkscape:path-effect="#path-effect3722"
       inkscape:original-d="m 80.000824,232.59835 c 2.864903,0.96357 5.729539,1.92687 8.593913,2.8899 2.864374,0.96303 6.88966,-1.92633 10.334093,-2.8899" />
    <path
       style="fill:none;stroke:#000000;stroke-width:0.264583px;stroke-linecap:butt;stroke-linejoin:miter;stroke-opacity:1"
       d="m 158.87567,225.33301 c 2.84842,-1.3621 5.69572,-2.72366 7.43017,-3.37629 1.73446,-0.65262 2.35431,-0.5971 3.08879,0.0395 0.73447,0.63661 1.5843,1.85156 2.24136,3.14475 0.65707,1.29319 1.12242,2.66448 1.01535,4.45424 -0.10707,1.78976 -0.78497,3.99951 -2.01459,5.50273 -1.22962,1.50322 -3.01269,2.30214 -4.39336,2.92699 -1.38068,0.62484 -2.3589,1.0756 -3.1218,1.33635 -0.7629,0.26075 -1.31158,0.33123 -1.4758,0.44154 -0.16422,0.11032 0.0552,0.25812 1.35598,0.41452 1.30073,0.1564 3.68298,0.32326 5.63584,0.42903 1.95285,0.10578 3.47642,0.15058 4.93844,0.17295 1.46202,0.0224 2.86258,0.0224 3.75365,0.077 0.89108,0.0546 1.27215,0.16301 1.39138,0.20779 0.11923,0.0448 -0.0232,0.0265 -0.16854,0.008"
       id="path4067"
       inkscape:path-effect="#path-effect4069"
       inkscape:original-d="m 158.87567,225.33301 c 2.84994,-1.35892 5.69724,-2.72048 8.5419,-4.08469 0.62251,0.0582 1.24237,0.11369 1.85959,0.16656 0.85247,1.21759 1.7023,2.43254 2.54948,3.64484 0.46799,1.37392 0.93334,2.74521 1.39604,4.11385 -0.67525,2.21238 -1.35314,4.42213 -2.03369,6.62922 -1.78043,0.80157 -3.5635,1.60049 -5.34922,2.39677 -0.97559,0.45341 -1.95381,0.90416 -2.93468,1.35228 -0.54603,0.0731 -1.0947,0.14362 -1.64602,0.21146 0.2221,0.15044 0.44156,0.29824 0.65836,0.44339 2.3849,0.16951 4.76715,0.33636 7.14675,0.50058 1.52621,0.0474 3.04977,0.0923 4.57068,0.13442 1.40321,0.003 2.80377,0.003 4.20169,0 0.38373,0.11103 0.7648,0.21941 1.14324,0.32514 -0.13977,-0.0157 -0.28219,-0.034 -0.42725,-0.0549" />
    <path
       style="fill:none;stroke:#000000;stroke-width:0.264583px;stroke-linecap:butt;stroke-linejoin:miter;stroke-opacity:1"
       d="m 43.702933,263.97212 c 0.83282,-1.71248 2.288535,-3.11357 4.031595,-3.88032 0.844703,-0.37157 1.774142,-0.59907 2.691066,-0.49495 0.904565,0.10272 1.755268,0.52672 2.449187,1.11602 0.693919,0.58929 1.238927,1.33825 1.677342,2.13611 0.876832,1.59572 1.340419,3.38576 2.138709,5.02219 1.352904,2.77334 3.645334,5.02592 6.286034,6.62231 0.803832,0.48594 1.659243,0.92144 2.585749,1.07595 1.151643,0.19205 2.373862,-0.0788 3.336493,-0.73954 0.962631,-0.66069 1.654891,-1.70375 1.889777,-2.84743"
       id="path899-3"
       inkscape:path-effect="#path-effect901-9"
       inkscape:original-d="m 43.702933,263.97212 c 1.343865,-1.29344 2.468322,-2.8629 4.031595,-3.88032 0.764428,-0.49751 1.779193,-0.47612 2.691066,-0.49495 4.298222,-0.0888 4.510945,5.56314 6.265238,8.27432 1.720202,2.65851 3.552669,5.00252 6.286034,6.62231 0.717939,0.42545 1.680824,1.25958 2.585749,1.07595 2.184414,-0.44326 3.438676,-2.40735 5.22627,-3.58697" />
    <path
       style="fill:none;stroke:#000000;stroke-width:0.264583px;stroke-linecap:butt;stroke-linejoin:miter;stroke-opacity:1"
       d="m 50.761046,273.41461 c 0.922359,-4.03587 2.807362,-7.84834 5.454314,-11.03152 1.135474,-1.3655 2.408741,-2.61636 3.794186,-3.72741"
       id="path903-1"
       inkscape:path-effect="#path-effect905-7"
       inkscape:original-d="m 50.761046,273.41461 c 1.412044,-5.87553 0.512961,-3.74235 5.454314,-11.03152 1.005911,-1.48386 2.718668,-2.29339 3.794186,-3.72741" />
    <path
       style="fill:none;stroke:#000000;stroke-width:0.264583px;stroke-linecap:butt;stroke-linejoin:miter;stroke-opacity:1"
       d="m 83.226572,257.16221 c -2.932205,1.91399 -4.846439,5.30198 -4.97278,8.80129 -0.126341,3.49932 1.538584,7.01653 4.325127,9.13699 0.968638,0.7371 2.060723,1.31156 3.216886,1.69217"
       id="path911-9"
       inkscape:path-effect="#path-effect913-3"
       inkscape:original-d="m 83.226572,257.16221 c -2.54957,3.93187 -3.276423,13.94109 -0.647653,17.93828 0.764543,1.16253 2.373741,0.96316 3.216886,1.69217" />
    <path
       style="fill:none;stroke:#000000;stroke-width:0.264583px;stroke-linecap:butt;stroke-linejoin:miter;stroke-opacity:1"
       d="m 101.84834,257.97565 c 2.20329,1.56227 3.94852,3.76264 4.96811,6.26376 1.01959,2.50113 1.31009,5.29452 0.82695,7.95192 -0.42044,2.31253 -1.4222,4.51704 -2.88768,6.35469"
       id="path3248-78"
       inkscape:path-effect="#path-effect3250-9"
       inkscape:original-d="m 101.84834,257.97565 c 5.31476,2.49551 6.99538,8.75105 5.79506,14.21568 -0.35306,1.60733 -2.52069,5.64987 -2.88768,6.35469" />
    <path
       style="fill:none;stroke:#000000;stroke-width:0.264583px;stroke-linecap:butt;stroke-linejoin:miter;stroke-opacity:1"
       d="m 120.87521,263.15515 h 20.64568"
       id="path3331-4" />
    <path
       style="fill:none;stroke:#000000;stroke-width:0.264583px;stroke-linecap:butt;stroke-linejoin:miter;stroke-opacity:1"
       d="m 122.6169,275.10403 h 18.26385"
       id="path3333-5" />
    <path
       style="fill:none;stroke:#000000;stroke-width:0.264583px;stroke-linecap:butt;stroke-linejoin:miter;stroke-opacity:1"
       d="m 84.114639,262.62026 c 0.152897,-0.15736 0.164004,-0.34289 0.478415,-0.62918 0.314412,-0.28629 0.93126,-0.67041 1.566662,-0.91086 0.635401,-0.24045 1.287883,-0.33734 2.057256,-0.31576 0.769373,0.0216 1.654857,0.16082 2.216197,0.36536 0.56134,0.20454 0.799044,0.47204 0.995215,0.68296 0.196172,0.21092 0.350646,0.36539 0.526081,0.56719 0.175435,0.2018 0.372173,0.45066 0.593018,0.68905 0.220845,0.23839 0.465373,0.46668 0.687938,0.66066 0.222565,0.19398 0.422992,0.35389 0.644751,0.4481 0.22176,0.0942 0.464826,0.12468 0.757474,0.13716 0.292648,0.0125 0.635231,0.007 0.956353,-0.17083 0.321123,-0.1782 0.62359,-0.52976 0.834166,-0.7427 0.210577,-0.21294 0.32837,-0.28659 0.40401,-0.3365 0.07564,-0.0499 0.109462,-0.0762 0.149565,-0.10952 0.0401,-0.0333 0.0866,-0.0736 0.247305,-0.16228 0.160704,-0.0887 0.434705,-0.2253 0.681707,-0.37229 0.247002,-0.147 0.467562,-0.30454 0.732686,-0.41772 0.265123,-0.11317 0.573341,-0.18189 1.016399,-0.23531 0.443063,-0.0534 1.020463,-0.0918 1.505763,-0.0449 0.48531,0.047 0.87782,0.17809 1.11585,0.28275 0.23804,0.10465 0.32201,0.18138 0.4231,0.26586 0.10109,0.0845 0.21916,0.177 0.37297,0.37537 0.15381,0.19837 0.34437,0.50183 0.47274,0.84994 0.12837,0.3481 0.19598,0.74093 0.24539,1.108 0.0494,0.36707 0.0809,0.70852 0.0885,1.09552 0.008,0.38699 -0.008,0.81985 -0.10915,1.58177 -0.10095,0.76193 -0.28675,1.85333 -0.55837,2.6665 -0.27163,0.81318 -0.62904,1.34966 -0.9626,1.78313 -0.33357,0.43347 -0.64361,0.76445 -1.07655,1.01605 -0.43295,0.25159 -0.99054,0.42439 -2.031423,0.28224 -1.040884,-0.14215 -2.566546,-0.60072 -3.438313,-1.2681 -0.871767,-0.66738 -1.087241,-1.54572 -1.212629,-2.20519 -0.125388,-0.65947 -0.160151,-1.0998 -0.384466,-1.37512 -0.224314,-0.27533 -0.641081,-0.38363 -0.995062,-0.43043 -0.353982,-0.0468 -0.644548,-0.0312 -1.032181,0.0689 -0.387633,0.10004 -0.871258,0.2849 -1.184161,0.51707 -0.312903,0.23217 -0.453124,0.51005 -0.569356,0.72814 -0.116232,0.2181 -0.208519,0.37662 -0.321293,0.52211 -0.112775,0.14549 -0.246517,0.27877 -0.60766,0.45581 -0.361143,0.17704 -0.95113,0.39839 -1.358437,0.49051 -0.407307,0.0921 -0.633497,0.054 -0.988326,-0.19861 -0.35483,-0.25258 -0.837991,-0.72169 -1.202765,-1.11067 -0.364775,-0.38898 -0.610794,-0.69813 -0.899245,-1.03504 -0.28845,-0.33692 -0.619527,-0.70146 -0.873923,-1.24103 -0.254396,-0.53958 -0.430356,-1.25451 -0.51872,-1.71217 -0.08836,-0.45766 -0.08836,-0.65758 -0.105382,-0.97969 -0.01702,-0.32211 -0.05127,-0.76661 0.08013,-1.05665 0.131402,-0.29004 0.427453,-0.42225 0.580351,-0.5796 z"
       id="path4404"
       inkscape:path-effect="#path-effect4406"
       inkscape:original-d="m 84.256578,262.64595 c 0.01376,-0.18288 0.02487,-0.36841 0.03332,-0.55658 0.619495,-0.38148 1.236342,-0.76561 1.850543,-1.15238 0.655124,-0.0942 1.3076,-0.19113 1.95743,-0.29067 0.888132,0.14189 1.773616,0.28114 2.656456,0.41774 0.240348,0.27015 0.478049,0.53766 0.713108,0.80252 0.15712,0.15712 0.311597,0.31159 0.463425,0.46342 0.199382,0.2515 0.396119,0.50036 0.590209,0.74657 0.247174,0.23093 0.491702,0.45922 0.733584,0.68487 0.203073,0.16255 0.403503,0.32245 0.601287,0.47972 0.245708,0.0331 0.48877,0.0636 0.729186,0.0914 0.345215,-0.002 0.687784,-0.008 1.027708,-0.0153 0.305115,-0.34892 0.607584,-0.70048 0.907407,-1.05469 0.120436,-0.071 0.238225,-0.14466 0.353367,-0.22095 0.03648,-0.0237 0.07032,-0.05 0.10151,-0.079 0.04917,-0.0377 0.09569,-0.078 0.139565,-0.12103 0.276648,-0.13398 0.550651,-0.2706 0.822007,-0.40987 0.223208,-0.1549 0.44377,-0.31244 0.661686,-0.47263 0.310867,-0.0661 0.619091,-0.13479 0.924669,-0.20616 0.580035,-0.0358 1.157435,-0.0742 1.732185,-0.11522 0.39515,0.13377 0.78766,0.26489 1.17752,0.39336 0.0866,0.0794 0.1706,0.1561 0.25193,0.23018 0.1207,0.0951 0.23875,0.18763 0.35416,0.27748 0.1932,0.3061 0.38375,0.60956 0.57166,0.91037 0.0703,0.39547 0.13786,0.7883 0.20283,1.17849 0.0341,0.3441 0.0656,0.68555 0.0944,1.02435 -0.0132,0.43551 -0.029,0.86837 -0.0475,1.29859 -0.18315,1.09404 -0.36895,2.18544 -0.55739,3.27419 -0.35477,0.53912 -0.71218,1.0756 -1.07223,1.60944 -0.3074,0.33363 -0.61744,0.66461 -0.93013,0.99295 -0.55495,0.17545 -1.11254,0.34825 -1.67278,0.51841 -1.523018,-0.45592 -3.04868,-0.91449 -4.57699,-1.37571 -0.212828,-0.8757 -0.428302,-1.75404 -0.646424,-2.63503 -0.03212,-0.43768 -0.06688,-0.87801 -0.104289,-1.32098 -0.41412,-0.10565 -0.830887,-0.21395 -1.250299,-0.3249 -0.287922,0.0183 -0.57849,0.0339 -0.871701,0.0469 -0.480984,0.18751 -0.96461,0.37237 -1.450885,0.55459 -0.137576,0.28053 -0.2778,0.55841 -0.420667,0.83365 -0.08964,0.16117 -0.18193,0.31969 -0.276862,0.47557 -0.131099,0.13593 -0.26484,0.26921 -0.40123,0.39984 -0.587344,0.22399 -1.17733,0.44534 -1.769965,0.66404 -0.223538,-0.0355 -0.44972,-0.0737 -0.67855,-0.11446 -0.480515,-0.46646 -0.963676,-0.93557 -1.449483,-1.40733 -0.243372,-0.3065 -0.489389,-0.61565 -0.738053,-0.92744 -0.328435,-0.3619 -0.659513,-0.72644 -0.99324,-1.09363 -0.173318,-0.7123 -0.349279,-1.42723 -0.527886,-2.14482 0.0026,-0.19727 0.0026,-0.39719 0,-0.59975 -0.03161,-0.44185 -0.06586,-0.88635 -0.102762,-1.33349 0.298702,-0.12956 0.594755,-0.26176 0.888164,-0.39662 z" />
    <path
       style="fill:none;stroke:#000000;stroke-width:0.264583px;stroke-linecap:butt;stroke-linejoin:miter;stroke-opacity:1"
       d="m 87.944513,263.24369 c -0.593011,0.16373 -1.187799,0.32795 -1.565407,0.54604 -0.377607,0.21809 -0.535774,0.48875 -0.610928,0.86614 -0.07515,0.37739 -0.06782,0.85965 -0.02953,1.13117 0.03829,0.27152 0.104813,0.33247 0.419926,0.37326 0.315114,0.0408 0.878824,0.0638 1.18865,0.0445 0.309826,-0.0193 0.368565,-0.081 0.497535,-0.24647 0.128971,-0.16553 0.328431,-0.43532 0.485467,-0.63848 0.157036,-0.20315 0.271527,-0.33947 0.358185,-0.53989 0.08666,-0.20041 0.145715,-0.46664 0.04911,-0.80282 -0.09661,-0.33618 -0.351249,-0.74343 -0.585262,-0.9339 -0.234012,-0.19046 -0.447691,-0.16072 -0.61062,-0.08 -0.162929,0.0807 -0.272663,0.21175 -0.382179,0.34257"
       id="path4408"
       inkscape:path-effect="#path-effect4410"
       inkscape:original-d="m 87.944513,263.24369 c -0.592146,0.16686 -1.186934,0.33108 -1.784371,0.49266 -0.15552,0.2733 -0.313685,0.54396 -0.474496,0.81197 0.01,0.4849 0.01733,0.96716 0.02201,1.44676 0.06917,0.0636 0.135697,0.12455 0.199575,0.18286 0.566354,0.0257 1.130065,0.0487 1.69113,0.0691 0.06139,-0.059 0.120134,-0.12062 0.176231,-0.18489 0.202112,-0.26716 0.401576,-0.53695 0.598397,-0.8094 0.117131,-0.13366 0.231619,-0.26998 0.343461,-0.40894 0.0617,-0.26359 0.120759,-0.52982 0.177168,-0.7987 -0.251995,-0.4046 -0.506635,-0.81186 -0.763921,-1.22176 -0.211037,0.0324 -0.42472,0.0621 -0.641049,0.0892 -0.107084,0.13371 -0.216812,0.26479 -0.329189,0.39321" />
    <path
       style="fill:none;stroke:#000000;stroke-width:0.264583px;stroke-linecap:butt;stroke-linejoin:miter;stroke-opacity:1"
       d="m 99.383818,265.14947 c -0.398238,0.34036 -1.194934,1.02128 -1.629567,1.68863 -0.434633,0.66735 -0.506722,1.31863 -0.524942,1.70022 -0.01822,0.3816 0.01619,0.49267 0.274765,0.60239 0.258575,0.10973 0.739207,0.22056 1.123333,0.167 0.384126,-0.0536 0.674413,-0.27049 0.965657,-0.62002 0.291245,-0.34952 0.584336,-0.83273 0.742556,-1.58061 0.15821,-0.74788 0.18115,-1.76225 0.16842,-2.26561 -0.0127,-0.50336 -0.0632,-0.49269 -0.19031,-0.41243 -0.12708,0.0803 -0.329172,0.23002 -0.430443,0.30506 -0.101271,0.075 -0.101231,0.075 -0.499469,0.41537 z"
       id="path4412"
       inkscape:path-effect="#path-effect4414"
       inkscape:original-d="m 99.782056,264.80911 c -0.794052,0.68356 -1.59075,1.36447 -2.390093,2.04274 -0.06944,0.65392 -0.141531,1.3052 -0.216265,1.95383 0.03706,0.11372 0.07147,0.22479 0.103233,0.33322 0.483274,0.11347 0.963903,0.22431 1.441886,0.33249 0.292933,-0.21428 0.583218,-0.43121 0.87086,-0.65078 0.295738,-0.48056 0.588833,-0.96377 0.879283,-1.44962 0.0256,-1.01173 0.0485,-2.0261 0.0688,-3.04312 -0.0478,0.0133 -0.0983,0.024 -0.15144,0.032 -0.19946,0.15241 -0.401559,0.30216 -0.606304,0.44927 z" />
    <path
       style="fill:none;stroke:#000000;stroke-width:0.264583px;stroke-linecap:butt;stroke-linejoin:miter;stroke-opacity:1"
       d="m 158.63566,256.87811 c 3.11324,0.3264 6.22359,0.6525 8.22248,1.97591 1.99889,1.32341 2.88799,3.64123 3.04866,5.09925 0.16068,1.45801 -0.40579,2.05933 -1.28534,2.63419 -0.87956,0.57485 -2.07348,1.12388 -3.01887,1.53632 -0.94539,0.41244 -1.64247,0.6883 -2.29918,0.88053 -0.6567,0.19223 -1.27376,0.30064 -1.71843,0.38868 -0.44466,0.0881 -0.71668,0.15581 -0.86948,0.19446 -0.1528,0.0386 -0.1863,0.0482 0.10877,0.0939 0.29508,0.0457 0.91747,0.12655 2.04276,0.15834 1.12529,0.0318 2.75378,0.0149 4.26559,0.0169 1.5118,0.002 2.90684,0.0228 3.80876,0.29781 0.90191,0.27503 1.31111,0.8014 1.22384,2.39099 -0.0873,1.5896 -0.66829,4.24339 -2.75716,5.78452 -2.08888,1.54113 -5.68833,1.97186 -9.29008,2.40286"
       id="path4617"
       inkscape:path-effect="#path-effect4619"
       inkscape:original-d="m 158.63566,256.87811 c 3.11299,0.32875 6.22334,0.65484 9.33104,0.97829 0.89175,2.32048 1.78085,4.63831 2.66731,6.95349 -0.56381,0.60396 -1.13027,1.20528 -1.69938,1.80394 -1.19126,0.55167 -2.38518,1.1007 -3.58174,1.64708 -0.69443,0.2785 -1.39151,0.55436 -2.09123,0.82758 -0.61442,0.11106 -1.23148,0.21948 -1.85119,0.32525 -0.26938,0.0704 -0.5414,0.13817 -0.81607,0.20329 -0.0308,0.0122 -0.0643,0.0218 -0.10038,0.0287 0.62504,0.0835 1.24743,0.16441 1.86718,0.24265 1.63115,-0.0143 3.25964,-0.0312 4.88549,-0.0507 1.39769,0.0234 2.79273,0.0442 4.18513,0.0624 0.41184,0.52901 0.82104,1.05538 1.22759,1.5791 -0.57838,2.65643 -1.1594,5.31022 -1.74307,7.96136 -3.59681,0.43337 -7.19626,0.8641 -10.79836,1.29218" />
  </g>
</svg>
