<?xml version="1.0" encoding="UTF-8" standalone="no"?>
<!-- Created with Inkscape (http://www.inkscape.org/) -->

<svg
   width="240mm"
   height="120mm"
   viewBox="0 0 240 120"
   version="1.1"
   id="svg8"
   inkscape:version="1.1.2 (0a00cf5339, 2022-02-04)"
   sodipodi:docname="forme-fondamentale.svg"
   xmlns:inkscape="http://www.inkscape.org/namespaces/inkscape"
   xmlns:sodipodi="http://sodipodi.sourceforge.net/DTD/sodipodi-0.dtd"
   xmlns="http://www.w3.org/2000/svg"
   xmlns:svg="http://www.w3.org/2000/svg"
   xmlns:rdf="http://www.w3.org/1999/02/22-rdf-syntax-ns#"
   xmlns:cc="http://creativecommons.org/ns#"
   xmlns:dc="http://purl.org/dc/elements/1.1/">
  <defs
     id="defs2">
    <marker
       style="overflow:visible;"
       id="Arrow1Lend"
       refX="0.0"
       refY="0.0"
       orient="auto"
       inkscape:stockid="Arrow1Lend"
       inkscape:isstock="true">
      <path
         transform="scale(0.8) rotate(180) translate(12.5,0)"
         style="fill-rule:evenodd;fill:context-stroke;stroke:context-stroke;stroke-width:1.0pt;"
         d="M 0.0,0.0 L 5.0,-5.0 L -12.5,0.0 L 5.0,5.0 L 0.0,0.0 z "
         id="path10889" />
    </marker>
  </defs>
  <sodipodi:namedview
     id="base"
     pagecolor="#ffffff"
     bordercolor="#666666"
     borderopacity="1.0"
     inkscape:pageopacity="0.0"
     inkscape:pageshadow="2"
     inkscape:zoom="1.406257"
     inkscape:cx="429.15341"
     inkscape:cy="221.15445"
     inkscape:document-units="mm"
     inkscape:current-layer="layer1"
     showgrid="false"
     showborder="true"
     width="200mm"
     showguides="true"
     inkscape:guide-bbox="true"
     inkscape:window-width="1920"
     inkscape:window-height="1127"
     inkscape:window-x="0"
     inkscape:window-y="0"
     inkscape:window-maximized="1"
     inkscape:pagecheckerboard="0"
     inkscape:snap-global="false">
    <inkscape:grid
       type="xygrid"
       id="grid815"
       units="mm"
       spacingx="10"
       spacingy="10"
       empspacing="4"
       dotted="false" />
  </sodipodi:namedview>
  <metadata
     id="metadata5">
    <rdf:RDF>
      <cc:Work
         rdf:about="">
        <dc:format>image/svg+xml</dc:format>
        <dc:type
           rdf:resource="http://purl.org/dc/dcmitype/StillImage" />
      </cc:Work>
    </rdf:RDF>
  </metadata>
  <g
     inkscape:label="Layer 1"
     inkscape:groupmode="layer"
     id="layer1"
     transform="translate(0,-177)">
    <path
       style="fill:none;stroke:#000000;stroke-width:0.264583px;stroke-linecap:butt;stroke-linejoin:miter;stroke-opacity:1"
       d="m 20.790898,241.70564 c 4.852045,-9.7925 8.33285,-21.91312 21.444132,-20.09772 1.929521,0.26716 4.220241,0.85205 5.917334,1.82985 4.95985,2.85767 6.888851,9.19005 12.309965,11.69209 4.832588,2.23042 12.070979,0.29421 16.967779,-0.47529 10.332251,-1.62365 16.009233,-0.94186 23.716872,-9.22059"
       id="path891" />
    <path
       style="fill:none;stroke:#000000;stroke-width:0.264583px;stroke-linecap:butt;stroke-linejoin:miter;stroke-opacity:1"
       d="m 122.18606,230.14344 c 8.0802,-5.45995 14.77813,-12.74551 22.68407,-18.39263 7.20782,-5.14845 14.84606,-10.47325 23.6456,-12.33372 6.96166,-1.4719 14.0954,-2.03769 21.19784,-1.33081 4.36987,0.43492 8.44375,1.72708 12.33372,3.73101 8.98477,4.62852 13.75795,9.51629 15.06662,19.98586 0.30332,2.42664 0.66037,5.16457 0.1426,7.58085 -0.89594,4.18106 -3.3019,8.12963 -4.99054,12.02478 -0.94462,2.17892 -1.52714,4.47121 -2.3289,6.70156 -2.39388,6.65938 -7.78887,21.03606 -13.6883,25.04768 -2.6018,1.76923 -8.80522,2.42728 -11.92974,1.68728 -6.55371,-1.55217 -2.68447,-6.96886 -1.30331,-11.17973 0.81914,-2.49741 1.16772,-5.302 0.73669,-7.91355 -0.24469,-1.48256 -0.64287,-3.42468 -1.82986,-4.49147 -4.83382,-4.34433 -11.84914,-6.92947 -17.94213,-8.72153 -7.72745,-2.27278 -15.27304,-5.05427 -23.24158,-6.41639 -5.21816,-0.89198 -10.52465,-0.47398 -15.7558,-1.4021 -3.70989,-0.65822 -2.65459,-4.47652 -2.79698,-4.57709 -0.35319,-0.24945 -0.849,0.16462 -1.27349,0.24692"
       id="path899" />
    <path
       style="fill:none;stroke:#000000;stroke-width:0.264583px;stroke-linecap:butt;stroke-linejoin:miter;stroke-opacity:1"
       d="m 175.7681,217.40776 c 0.89027,1.05206 1.91011,1.97282 2.63622,3.15862 1.87568,3.06316 3.5184,6.16482 4.943,9.45823 0.2687,0.62119 0.45047,1.2773 0.71292,1.90116 0.25278,0.60087 1.49852,1.86581 0.85553,1.75856 -0.19379,-0.0323 -0.34558,-0.18702 -0.51837,-0.28052"
       id="path901" />
    <path
       style="fill:none;stroke:#000000;stroke-width:0.264583px;stroke-linecap:butt;stroke-linejoin:miter;stroke-opacity:1"
       d="m 180.05182,234.07876 c 1.72006,-0.27825 8.45497,3.08468 9.53984,2.25458 0.56894,-0.43533 -0.43604,-4.01246 -1.6267,-3.76816"
       id="path905" />
    <path
       style="fill:none;stroke:#000000;stroke-width:0.264583px;stroke-linecap:butt;stroke-linejoin:miter;stroke-opacity:1"
       d="m 176.81412,217.39726 c 3.20637,0.25026 16.45206,-3.88485 18.83343,-2.02171"
       id="path907" />
    <path
       style="fill:none;stroke:#000000;stroke-width:0.264583px;stroke-linecap:butt;stroke-linejoin:miter;stroke-opacity:1"
       d="m 196.64502,212.32883 c 3.53548,3.28954 6.19865,0.8222 0.52517,5.3188"
       id="path909" />
    <text
       xml:space="preserve"
       style="font-size:4.23333px;line-height:1.25;font-family:sans-serif;stroke-width:0.264583"
       x="30.738188"
       y="211.82759"
       id="text3135"><tspan
         sodipodi:role="line"
         id="tspan3133"
         style="stroke-width:0.264583"
         x="30.738188"
         y="211.82759">$||\gamma(t)||=1$</tspan></text>
    <path
       style="fill:none;stroke:#000000;stroke-width:0.264583px;stroke-linecap:butt;stroke-linejoin:miter;stroke-opacity:1;marker-end:url(#Arrow1Lend)"
       d="m 78.104483,207.35144 c 0,0 7.39517,-12.90883 31.523797,-15.03865 24.12863,-2.12982 36.4869,6.77019 36.4869,6.77019"
       id="path10884" />
    <text
       xml:space="preserve"
       style="font-size:4.23333px;line-height:1.25;font-family:sans-serif;stroke-width:0.264583"
       x="148.09991"
       y="201.53314"
       id="text14082"><tspan
         sodipodi:role="line"
         id="tspan14080"
         style="stroke-width:0.264583"
         x="148.09991"
         y="201.53314">?</tspan></text>
  </g>
</svg>
