<?xml version="1.0" encoding="UTF-8" standalone="no"?>
<!-- Created with Inkscape (http://www.inkscape.org/) -->

<svg
   width="240mm"
   height="120mm"
   viewBox="0 0 240 120"
   version="1.1"
   id="svg8"
   inkscape:version="1.1.2 (0a00cf5339, 2022-02-04)"
   sodipodi:docname="mapping-de-la-sphère.svg"
   xmlns:inkscape="http://www.inkscape.org/namespaces/inkscape"
   xmlns:sodipodi="http://sodipodi.sourceforge.net/DTD/sodipodi-0.dtd"
   xmlns="http://www.w3.org/2000/svg"
   xmlns:svg="http://www.w3.org/2000/svg"
   xmlns:rdf="http://www.w3.org/1999/02/22-rdf-syntax-ns#"
   xmlns:cc="http://creativecommons.org/ns#"
   xmlns:dc="http://purl.org/dc/elements/1.1/">
  <defs
     id="defs2">
    <inkscape:path-effect
       effect="spiro"
       id="path-effect1976"
       is_visible="true"
       lpeversion="1" />
    <marker
       style="overflow:visible;"
       id="Arrow1Lend"
       refX="0.0"
       refY="0.0"
       orient="auto"
       inkscape:stockid="Arrow1Lend"
       inkscape:isstock="true">
      <path
         transform="scale(0.8) rotate(180) translate(12.5,0)"
         style="fill-rule:evenodd;fill:context-stroke;stroke:context-stroke;stroke-width:1.0pt;"
         d="M 0.0,0.0 L 5.0,-5.0 L -12.5,0.0 L 5.0,5.0 L 0.0,0.0 z "
         id="path1586" />
    </marker>
    <inkscape:path-effect
       effect="bspline"
       id="path-effect1581"
       is_visible="true"
       lpeversion="1"
       weight="33.333333"
       steps="2"
       helper_size="0"
       apply_no_weight="true"
       apply_with_weight="true"
       only_selected="false" />
    <clipPath
       clipPathUnits="userSpaceOnUse"
       id="clipPath2673">
      <path
         id="path2675"
         style="fill:#ff0000;fill-opacity:1;fill-rule:nonzero;stroke:none;stroke-width:0.264583"
         d="m 184.88949,220.8583 v 9.417 h 54.33467 v -5.49734 c -0.24402,0.10003 -0.48255,0.18137 -0.69195,0.20929 0.0179,0.28989 0.0425,0.57947 0.0713,0.8692 0.009,0.081 0.0209,0.16157 0.0269,0.24288 0.023,0.29478 0.0262,0.35581 0.0145,0.6165 -0.003,0.0589 0.047,0.1737 -0.0119,0.17622 -2.16189,0.093 -2.04045,0.61326 -2.16524,-0.21291 1.16969,-0.002 1.09042,-0.37699 1.17357,0.0155 0.33423,-0.04 0.66828,-0.0799 1.00252,-0.11989 -0.24557,-0.71457 -0.005,-0.0615 -2.13837,0.0439 -1e-4,0 0.0301,-0.0896 0.0196,-0.28474 -0.005,-0.0915 -0.0204,-0.18226 -0.0305,-0.27337 -0.0296,-0.31354 -0.0542,-0.62707 -0.0734,-0.94103 -0.13916,-0.0561 -0.47095,-0.23804 -0.33176,-0.27336 0.10351,-0.0263 0.20898,-0.0308 0.31523,-0.0253 -8e-4,-0.0145 -8e-4,-0.029 -0.002,-0.0434 -0.0312,-0.0309 -0.0619,-0.0607 -0.0961,-0.0966 -0.31402,0.0473 -0.62804,0.0948 -0.94206,0.14211 0.003,0.01 0.006,0.0193 0.009,0.0289 0.004,0.0129 -0.0211,-0.0172 -0.0315,-0.0258 0.007,-0.001 0.0148,-0.002 0.0222,-0.003 -0.0911,-0.28347 -0.17759,-0.56932 -0.29508,-0.84284 -0.0149,-0.035 -0.0132,0.1492 -0.0222,0.11214 -0.002,-0.007 -0.0364,-0.35843 -0.0548,-0.54571 -0.18404,0.0394 -0.29434,0.0478 -0.36484,0.014 0.0323,0.067 0.064,0.13287 0.0367,0.19533 -0.0382,0.0872 -0.17442,-0.20107 -0.11473,-0.27388 -0.0102,-0.0188 -0.0189,-0.0404 -0.0269,-0.0651 -0.0511,0.005 -0.10566,0.0119 -0.16485,0.0207 -0.01,-0.23843 -0.0359,-0.35832 -0.0207,-0.62063 0.003,-0.0456 0.002,-0.0744 0.003,-0.0915 -0.0148,-0.0906 -0.0308,-0.22114 -0.006,-0.27595 -0.0466,-0.30351 -0.0703,-0.61089 0.0269,-0.62374 0.53005,-0.0701 0.87422,-0.12769 1.10174,-0.15141 0.20962,-0.0846 0.42124,-0.16297 0.63976,-0.21962 5.2e-4,-1.5e-4 0.0223,0.0424 0.0506,0.10645 0.14663,-0.0667 0.24541,-0.0989 0.14986,-0.0413 -0.0444,0.0268 -0.0891,0.0528 -0.13436,0.078 0.0281,0.0664 0.0607,0.14884 0.0868,0.23616 0.004,0.0144 0.008,0.029 0.0124,0.0434 0.0934,-0.0467 0.16232,-0.084 0.23305,-0.12196 0.0121,-0.19823 0.0211,-0.39631 0.0202,-0.59479 0.006,-0.10086 0.0128,-0.2015 0.0191,-0.30231 z m 51.28007,0.73949 c -0.006,-0.0131 -0.0103,-0.025 -0.0155,-0.0367 -0.0949,0.0432 -0.20808,0.0999 -0.30644,0.15969 0.009,0.0102 0.0167,0.0219 0.0232,0.0351 0.10028,-0.0515 0.2003,-0.10327 0.2987,-0.15813 z m -1.61954,1.88413 c 0.0196,0.0364 0.0444,0.0624 0.078,0.0785 -0.0162,-0.0336 -0.0326,-0.0673 -0.0419,-0.10128 -0.008,0.004 -0.0156,0.008 -0.0238,0.0124 -0.005,0.003 -0.009,0.006 -0.0124,0.0103 z m 1.55908,-1.74615 c -2.6e-4,-0.002 -5.3e-4,-0.002 -5.3e-4,0.002 2.7e-4,0.0128 2.7e-4,0.0254 5.3e-4,0.0382 0.002,-5.3e-4 0.004,-0.001 0.006,-0.002 -0.002,-0.009 -0.005,-0.0325 -0.006,-0.0382 z m -1.76527,1.048 c 8e-4,0.0313 0.002,0.0628 0.007,0.0935 -5e-5,-0.012 8e-4,-0.0246 0.002,-0.0372 -0.004,-0.0183 -0.007,-0.0369 -0.009,-0.0563 z m 1.44694,0.97772 c -0.003,7.9e-4 -0.005,0.002 -0.008,0.003 0.001,0.004 0.002,0.007 0.003,0.0114 5.2e-4,7.9e-4 0.002,0.002 0.002,0.003 8e-4,-0.006 0.002,-0.011 0.003,-0.0165 z m 0.12558,0.12919 c -0.008,0.0139 -0.0167,0.0279 -0.0253,0.0429 0.006,0.01 0.0125,0.0195 0.0186,0.0289 0.009,-0.008 0.0202,-0.0158 0.0305,-0.0238 -0.008,-0.0161 -0.0154,-0.0322 -0.0238,-0.0481 z m -0.69299,0.0336 c -0.004,10e-4 -0.007,0.002 -0.0108,0.003 -0.006,0.04 -0.025,0.1591 -0.016,0.11989 0.01,-0.0409 0.0184,-0.0819 0.0269,-0.12299 z" />
    </clipPath>
    <clipPath
       clipPathUnits="userSpaceOnUse"
       id="clipPath2673-3">
      <path
         id="path2675-6"
         style="fill:#ff0000;fill-opacity:1;fill-rule:nonzero;stroke:none;stroke-width:0.264583"
         d="m 184.88949,220.8583 v 9.417 h 54.33467 v -5.49734 c -0.24402,0.10003 -0.48255,0.18137 -0.69195,0.20929 0.0179,0.28989 0.0425,0.57947 0.0713,0.8692 0.009,0.081 0.0209,0.16157 0.0269,0.24288 0.023,0.29478 0.0262,0.35581 0.0145,0.6165 -0.003,0.0589 0.047,0.1737 -0.0119,0.17622 -2.16189,0.093 -2.04045,0.61326 -2.16524,-0.21291 1.16969,-0.002 1.09042,-0.37699 1.17357,0.0155 0.33423,-0.04 0.66828,-0.0799 1.00252,-0.11989 -0.24557,-0.71457 -0.005,-0.0615 -2.13837,0.0439 -1e-4,0 0.0301,-0.0896 0.0196,-0.28474 -0.005,-0.0915 -0.0204,-0.18226 -0.0305,-0.27337 -0.0296,-0.31354 -0.0542,-0.62707 -0.0734,-0.94103 -0.13916,-0.0561 -0.47095,-0.23804 -0.33176,-0.27336 0.10351,-0.0263 0.20898,-0.0308 0.31523,-0.0253 -8e-4,-0.0145 -8e-4,-0.029 -0.002,-0.0434 -0.0312,-0.0309 -0.0619,-0.0607 -0.0961,-0.0966 -0.31402,0.0473 -0.62804,0.0948 -0.94206,0.14211 0.003,0.01 0.006,0.0193 0.009,0.0289 0.004,0.0129 -0.0211,-0.0172 -0.0315,-0.0258 0.007,-0.001 0.0148,-0.002 0.0222,-0.003 -0.0911,-0.28347 -0.17759,-0.56932 -0.29508,-0.84284 -0.0149,-0.035 -0.0132,0.1492 -0.0222,0.11214 -0.002,-0.007 -0.0364,-0.35843 -0.0548,-0.54571 -0.18404,0.0394 -0.29434,0.0478 -0.36484,0.014 0.0323,0.067 0.064,0.13287 0.0367,0.19533 -0.0382,0.0872 -0.17442,-0.20107 -0.11473,-0.27388 -0.0102,-0.0188 -0.0189,-0.0404 -0.0269,-0.0651 -0.0511,0.005 -0.10566,0.0119 -0.16485,0.0207 -0.01,-0.23843 -0.0359,-0.35832 -0.0207,-0.62063 0.003,-0.0456 0.002,-0.0744 0.003,-0.0915 -0.0148,-0.0906 -0.0308,-0.22114 -0.006,-0.27595 -0.0466,-0.30351 -0.0703,-0.61089 0.0269,-0.62374 0.53005,-0.0701 0.87422,-0.12769 1.10174,-0.15141 0.20962,-0.0846 0.42124,-0.16297 0.63976,-0.21962 5.2e-4,-1.5e-4 0.0223,0.0424 0.0506,0.10645 0.14663,-0.0667 0.24541,-0.0989 0.14986,-0.0413 -0.0444,0.0268 -0.0891,0.0528 -0.13436,0.078 0.0281,0.0664 0.0607,0.14884 0.0868,0.23616 0.004,0.0144 0.008,0.029 0.0124,0.0434 0.0934,-0.0467 0.16232,-0.084 0.23305,-0.12196 0.0121,-0.19823 0.0211,-0.39631 0.0202,-0.59479 0.006,-0.10086 0.0128,-0.2015 0.0191,-0.30231 z m 51.28007,0.73949 c -0.006,-0.0131 -0.0103,-0.025 -0.0155,-0.0367 -0.0949,0.0432 -0.20808,0.0999 -0.30644,0.15969 0.009,0.0102 0.0167,0.0219 0.0232,0.0351 0.10028,-0.0515 0.2003,-0.10327 0.2987,-0.15813 z m -1.61954,1.88413 c 0.0196,0.0364 0.0444,0.0624 0.078,0.0785 -0.0162,-0.0336 -0.0326,-0.0673 -0.0419,-0.10128 -0.008,0.004 -0.0156,0.008 -0.0238,0.0124 -0.005,0.003 -0.009,0.006 -0.0124,0.0103 z m 1.55908,-1.74615 c -2.6e-4,-0.002 -5.3e-4,-0.002 -5.3e-4,0.002 2.7e-4,0.0128 2.7e-4,0.0254 5.3e-4,0.0382 0.002,-5.3e-4 0.004,-0.001 0.006,-0.002 -0.002,-0.009 -0.005,-0.0325 -0.006,-0.0382 z m -1.76527,1.048 c 8e-4,0.0313 0.002,0.0628 0.007,0.0935 -5e-5,-0.012 8e-4,-0.0246 0.002,-0.0372 -0.004,-0.0183 -0.007,-0.0369 -0.009,-0.0563 z m 1.44694,0.97772 c -0.003,7.9e-4 -0.005,0.002 -0.008,0.003 0.001,0.004 0.002,0.007 0.003,0.0114 5.2e-4,7.9e-4 0.002,0.002 0.002,0.003 8e-4,-0.006 0.002,-0.011 0.003,-0.0165 z m 0.12558,0.12919 c -0.008,0.0139 -0.0167,0.0279 -0.0253,0.0429 0.006,0.01 0.0125,0.0195 0.0186,0.0289 0.009,-0.008 0.0202,-0.0158 0.0305,-0.0238 -0.008,-0.0161 -0.0154,-0.0322 -0.0238,-0.0481 z m -0.69299,0.0336 c -0.004,10e-4 -0.007,0.002 -0.0108,0.003 -0.006,0.04 -0.025,0.1591 -0.016,0.11989 0.01,-0.0409 0.0184,-0.0819 0.0269,-0.12299 z" />
    </clipPath>
    <inkscape:path-effect
       effect="spiro"
       id="path-effect1976-7"
       is_visible="true"
       lpeversion="1" />
    <clipPath
       clipPathUnits="userSpaceOnUse"
       id="clipPath2673-35">
      <path
         id="path2675-62"
         style="fill:#ff0000;fill-opacity:1;fill-rule:nonzero;stroke:none;stroke-width:0.264583"
         d="m 184.88949,220.8583 v 9.417 h 54.33467 v -5.49734 c -0.24402,0.10003 -0.48255,0.18137 -0.69195,0.20929 0.0179,0.28989 0.0425,0.57947 0.0713,0.8692 0.009,0.081 0.0209,0.16157 0.0269,0.24288 0.023,0.29478 0.0262,0.35581 0.0145,0.6165 -0.003,0.0589 0.047,0.1737 -0.0119,0.17622 -2.16189,0.093 -2.04045,0.61326 -2.16524,-0.21291 1.16969,-0.002 1.09042,-0.37699 1.17357,0.0155 0.33423,-0.04 0.66828,-0.0799 1.00252,-0.11989 -0.24557,-0.71457 -0.005,-0.0615 -2.13837,0.0439 -1e-4,0 0.0301,-0.0896 0.0196,-0.28474 -0.005,-0.0915 -0.0204,-0.18226 -0.0305,-0.27337 -0.0296,-0.31354 -0.0542,-0.62707 -0.0734,-0.94103 -0.13916,-0.0561 -0.47095,-0.23804 -0.33176,-0.27336 0.10351,-0.0263 0.20898,-0.0308 0.31523,-0.0253 -8e-4,-0.0145 -8e-4,-0.029 -0.002,-0.0434 -0.0312,-0.0309 -0.0619,-0.0607 -0.0961,-0.0966 -0.31402,0.0473 -0.62804,0.0948 -0.94206,0.14211 0.003,0.01 0.006,0.0193 0.009,0.0289 0.004,0.0129 -0.0211,-0.0172 -0.0315,-0.0258 0.007,-0.001 0.0148,-0.002 0.0222,-0.003 -0.0911,-0.28347 -0.17759,-0.56932 -0.29508,-0.84284 -0.0149,-0.035 -0.0132,0.1492 -0.0222,0.11214 -0.002,-0.007 -0.0364,-0.35843 -0.0548,-0.54571 -0.18404,0.0394 -0.29434,0.0478 -0.36484,0.014 0.0323,0.067 0.064,0.13287 0.0367,0.19533 -0.0382,0.0872 -0.17442,-0.20107 -0.11473,-0.27388 -0.0102,-0.0188 -0.0189,-0.0404 -0.0269,-0.0651 -0.0511,0.005 -0.10566,0.0119 -0.16485,0.0207 -0.01,-0.23843 -0.0359,-0.35832 -0.0207,-0.62063 0.003,-0.0456 0.002,-0.0744 0.003,-0.0915 -0.0148,-0.0906 -0.0308,-0.22114 -0.006,-0.27595 -0.0466,-0.30351 -0.0703,-0.61089 0.0269,-0.62374 0.53005,-0.0701 0.87422,-0.12769 1.10174,-0.15141 0.20962,-0.0846 0.42124,-0.16297 0.63976,-0.21962 5.2e-4,-1.5e-4 0.0223,0.0424 0.0506,0.10645 0.14663,-0.0667 0.24541,-0.0989 0.14986,-0.0413 -0.0444,0.0268 -0.0891,0.0528 -0.13436,0.078 0.0281,0.0664 0.0607,0.14884 0.0868,0.23616 0.004,0.0144 0.008,0.029 0.0124,0.0434 0.0934,-0.0467 0.16232,-0.084 0.23305,-0.12196 0.0121,-0.19823 0.0211,-0.39631 0.0202,-0.59479 0.006,-0.10086 0.0128,-0.2015 0.0191,-0.30231 z m 51.28007,0.73949 c -0.006,-0.0131 -0.0103,-0.025 -0.0155,-0.0367 -0.0949,0.0432 -0.20808,0.0999 -0.30644,0.15969 0.009,0.0102 0.0167,0.0219 0.0232,0.0351 0.10028,-0.0515 0.2003,-0.10327 0.2987,-0.15813 z m -1.61954,1.88413 c 0.0196,0.0364 0.0444,0.0624 0.078,0.0785 -0.0162,-0.0336 -0.0326,-0.0673 -0.0419,-0.10128 -0.008,0.004 -0.0156,0.008 -0.0238,0.0124 -0.005,0.003 -0.009,0.006 -0.0124,0.0103 z m 1.55908,-1.74615 c -2.6e-4,-0.002 -5.3e-4,-0.002 -5.3e-4,0.002 2.7e-4,0.0128 2.7e-4,0.0254 5.3e-4,0.0382 0.002,-5.3e-4 0.004,-0.001 0.006,-0.002 -0.002,-0.009 -0.005,-0.0325 -0.006,-0.0382 z m -1.76527,1.048 c 8e-4,0.0313 0.002,0.0628 0.007,0.0935 -5e-5,-0.012 8e-4,-0.0246 0.002,-0.0372 -0.004,-0.0183 -0.007,-0.0369 -0.009,-0.0563 z m 1.44694,0.97772 c -0.003,7.9e-4 -0.005,0.002 -0.008,0.003 0.001,0.004 0.002,0.007 0.003,0.0114 5.2e-4,7.9e-4 0.002,0.002 0.002,0.003 8e-4,-0.006 0.002,-0.011 0.003,-0.0165 z m 0.12558,0.12919 c -0.008,0.0139 -0.0167,0.0279 -0.0253,0.0429 0.006,0.01 0.0125,0.0195 0.0186,0.0289 0.009,-0.008 0.0202,-0.0158 0.0305,-0.0238 -0.008,-0.0161 -0.0154,-0.0322 -0.0238,-0.0481 z m -0.69299,0.0336 c -0.004,10e-4 -0.007,0.002 -0.0108,0.003 -0.006,0.04 -0.025,0.1591 -0.016,0.11989 0.01,-0.0409 0.0184,-0.0819 0.0269,-0.12299 z" />
    </clipPath>
    <inkscape:path-effect
       effect="spiro"
       id="path-effect1976-9"
       is_visible="true"
       lpeversion="1" />
    <marker
       style="overflow:visible"
       id="Arrow1Lend-2"
       refX="0"
       refY="0"
       orient="auto"
       inkscape:stockid="Arrow1Lend"
       inkscape:isstock="true">
      <path
         transform="matrix(-0.8,0,0,-0.8,-10,0)"
         style="fill:context-stroke;fill-rule:evenodd;stroke:context-stroke;stroke-width:1pt"
         d="M 0,0 5,-5 -12.5,0 5,5 Z"
         id="path1586-7" />
    </marker>
    <inkscape:path-effect
       effect="bspline"
       id="path-effect1581-0"
       is_visible="true"
       lpeversion="1"
       weight="33.333333"
       steps="2"
       helper_size="0"
       apply_no_weight="true"
       apply_with_weight="true"
       only_selected="false" />
    <clipPath
       clipPathUnits="userSpaceOnUse"
       id="clipPath2673-9">
      <path
         id="path2675-3"
         style="fill:#ff0000;fill-opacity:1;fill-rule:nonzero;stroke:none;stroke-width:0.264583"
         d="m 184.88949,220.8583 v 9.417 h 54.33467 v -5.49734 c -0.24402,0.10003 -0.48255,0.18137 -0.69195,0.20929 0.0179,0.28989 0.0425,0.57947 0.0713,0.8692 0.009,0.081 0.0209,0.16157 0.0269,0.24288 0.023,0.29478 0.0262,0.35581 0.0145,0.6165 -0.003,0.0589 0.047,0.1737 -0.0119,0.17622 -2.16189,0.093 -2.04045,0.61326 -2.16524,-0.21291 1.16969,-0.002 1.09042,-0.37699 1.17357,0.0155 0.33423,-0.04 0.66828,-0.0799 1.00252,-0.11989 -0.24557,-0.71457 -0.005,-0.0615 -2.13837,0.0439 -1e-4,0 0.0301,-0.0896 0.0196,-0.28474 -0.005,-0.0915 -0.0204,-0.18226 -0.0305,-0.27337 -0.0296,-0.31354 -0.0542,-0.62707 -0.0734,-0.94103 -0.13916,-0.0561 -0.47095,-0.23804 -0.33176,-0.27336 0.10351,-0.0263 0.20898,-0.0308 0.31523,-0.0253 -8e-4,-0.0145 -8e-4,-0.029 -0.002,-0.0434 -0.0312,-0.0309 -0.0619,-0.0607 -0.0961,-0.0966 -0.31402,0.0473 -0.62804,0.0948 -0.94206,0.14211 0.003,0.01 0.006,0.0193 0.009,0.0289 0.004,0.0129 -0.0211,-0.0172 -0.0315,-0.0258 0.007,-0.001 0.0148,-0.002 0.0222,-0.003 -0.0911,-0.28347 -0.17759,-0.56932 -0.29508,-0.84284 -0.0149,-0.035 -0.0132,0.1492 -0.0222,0.11214 -0.002,-0.007 -0.0364,-0.35843 -0.0548,-0.54571 -0.18404,0.0394 -0.29434,0.0478 -0.36484,0.014 0.0323,0.067 0.064,0.13287 0.0367,0.19533 -0.0382,0.0872 -0.17442,-0.20107 -0.11473,-0.27388 -0.0102,-0.0188 -0.0189,-0.0404 -0.0269,-0.0651 -0.0511,0.005 -0.10566,0.0119 -0.16485,0.0207 -0.01,-0.23843 -0.0359,-0.35832 -0.0207,-0.62063 0.003,-0.0456 0.002,-0.0744 0.003,-0.0915 -0.0148,-0.0906 -0.0308,-0.22114 -0.006,-0.27595 -0.0466,-0.30351 -0.0703,-0.61089 0.0269,-0.62374 0.53005,-0.0701 0.87422,-0.12769 1.10174,-0.15141 0.20962,-0.0846 0.42124,-0.16297 0.63976,-0.21962 5.2e-4,-1.5e-4 0.0223,0.0424 0.0506,0.10645 0.14663,-0.0667 0.24541,-0.0989 0.14986,-0.0413 -0.0444,0.0268 -0.0891,0.0528 -0.13436,0.078 0.0281,0.0664 0.0607,0.14884 0.0868,0.23616 0.004,0.0144 0.008,0.029 0.0124,0.0434 0.0934,-0.0467 0.16232,-0.084 0.23305,-0.12196 0.0121,-0.19823 0.0211,-0.39631 0.0202,-0.59479 0.006,-0.10086 0.0128,-0.2015 0.0191,-0.30231 z m 51.28007,0.73949 c -0.006,-0.0131 -0.0103,-0.025 -0.0155,-0.0367 -0.0949,0.0432 -0.20808,0.0999 -0.30644,0.15969 0.009,0.0102 0.0167,0.0219 0.0232,0.0351 0.10028,-0.0515 0.2003,-0.10327 0.2987,-0.15813 z m -1.61954,1.88413 c 0.0196,0.0364 0.0444,0.0624 0.078,0.0785 -0.0162,-0.0336 -0.0326,-0.0673 -0.0419,-0.10128 -0.008,0.004 -0.0156,0.008 -0.0238,0.0124 -0.005,0.003 -0.009,0.006 -0.0124,0.0103 z m 1.55908,-1.74615 c -2.6e-4,-0.002 -5.3e-4,-0.002 -5.3e-4,0.002 2.7e-4,0.0128 2.7e-4,0.0254 5.3e-4,0.0382 0.002,-5.3e-4 0.004,-0.001 0.006,-0.002 -0.002,-0.009 -0.005,-0.0325 -0.006,-0.0382 z m -1.76527,1.048 c 8e-4,0.0313 0.002,0.0628 0.007,0.0935 -5e-5,-0.012 8e-4,-0.0246 0.002,-0.0372 -0.004,-0.0183 -0.007,-0.0369 -0.009,-0.0563 z m 1.44694,0.97772 c -0.003,7.9e-4 -0.005,0.002 -0.008,0.003 0.001,0.004 0.002,0.007 0.003,0.0114 5.2e-4,7.9e-4 0.002,0.002 0.002,0.003 8e-4,-0.006 0.002,-0.011 0.003,-0.0165 z m 0.12558,0.12919 c -0.008,0.0139 -0.0167,0.0279 -0.0253,0.0429 0.006,0.01 0.0125,0.0195 0.0186,0.0289 0.009,-0.008 0.0202,-0.0158 0.0305,-0.0238 -0.008,-0.0161 -0.0154,-0.0322 -0.0238,-0.0481 z m -0.69299,0.0336 c -0.004,10e-4 -0.007,0.002 -0.0108,0.003 -0.006,0.04 -0.025,0.1591 -0.016,0.11989 0.01,-0.0409 0.0184,-0.0819 0.0269,-0.12299 z" />
    </clipPath>
    <inkscape:path-effect
       effect="spiro"
       id="path-effect1976-6"
       is_visible="true"
       lpeversion="1" />
    <clipPath
       clipPathUnits="userSpaceOnUse"
       id="clipPath2673-35-0">
      <path
         id="path2675-62-6"
         style="fill:#ff0000;fill-opacity:1;fill-rule:nonzero;stroke:none;stroke-width:0.264583"
         d="m 184.88949,220.8583 v 9.417 h 54.33467 v -5.49734 c -0.24402,0.10003 -0.48255,0.18137 -0.69195,0.20929 0.0179,0.28989 0.0425,0.57947 0.0713,0.8692 0.009,0.081 0.0209,0.16157 0.0269,0.24288 0.023,0.29478 0.0262,0.35581 0.0145,0.6165 -0.003,0.0589 0.047,0.1737 -0.0119,0.17622 -2.16189,0.093 -2.04045,0.61326 -2.16524,-0.21291 1.16969,-0.002 1.09042,-0.37699 1.17357,0.0155 0.33423,-0.04 0.66828,-0.0799 1.00252,-0.11989 -0.24557,-0.71457 -0.005,-0.0615 -2.13837,0.0439 -1e-4,0 0.0301,-0.0896 0.0196,-0.28474 -0.005,-0.0915 -0.0204,-0.18226 -0.0305,-0.27337 -0.0296,-0.31354 -0.0542,-0.62707 -0.0734,-0.94103 -0.13916,-0.0561 -0.47095,-0.23804 -0.33176,-0.27336 0.10351,-0.0263 0.20898,-0.0308 0.31523,-0.0253 -8e-4,-0.0145 -8e-4,-0.029 -0.002,-0.0434 -0.0312,-0.0309 -0.0619,-0.0607 -0.0961,-0.0966 -0.31402,0.0473 -0.62804,0.0948 -0.94206,0.14211 0.003,0.01 0.006,0.0193 0.009,0.0289 0.004,0.0129 -0.0211,-0.0172 -0.0315,-0.0258 0.007,-0.001 0.0148,-0.002 0.0222,-0.003 -0.0911,-0.28347 -0.17759,-0.56932 -0.29508,-0.84284 -0.0149,-0.035 -0.0132,0.1492 -0.0222,0.11214 -0.002,-0.007 -0.0364,-0.35843 -0.0548,-0.54571 -0.18404,0.0394 -0.29434,0.0478 -0.36484,0.014 0.0323,0.067 0.064,0.13287 0.0367,0.19533 -0.0382,0.0872 -0.17442,-0.20107 -0.11473,-0.27388 -0.0102,-0.0188 -0.0189,-0.0404 -0.0269,-0.0651 -0.0511,0.005 -0.10566,0.0119 -0.16485,0.0207 -0.01,-0.23843 -0.0359,-0.35832 -0.0207,-0.62063 0.003,-0.0456 0.002,-0.0744 0.003,-0.0915 -0.0148,-0.0906 -0.0308,-0.22114 -0.006,-0.27595 -0.0466,-0.30351 -0.0703,-0.61089 0.0269,-0.62374 0.53005,-0.0701 0.87422,-0.12769 1.10174,-0.15141 0.20962,-0.0846 0.42124,-0.16297 0.63976,-0.21962 5.2e-4,-1.5e-4 0.0223,0.0424 0.0506,0.10645 0.14663,-0.0667 0.24541,-0.0989 0.14986,-0.0413 -0.0444,0.0268 -0.0891,0.0528 -0.13436,0.078 0.0281,0.0664 0.0607,0.14884 0.0868,0.23616 0.004,0.0144 0.008,0.029 0.0124,0.0434 0.0934,-0.0467 0.16232,-0.084 0.23305,-0.12196 0.0121,-0.19823 0.0211,-0.39631 0.0202,-0.59479 0.006,-0.10086 0.0128,-0.2015 0.0191,-0.30231 z m 51.28007,0.73949 c -0.006,-0.0131 -0.0103,-0.025 -0.0155,-0.0367 -0.0949,0.0432 -0.20808,0.0999 -0.30644,0.15969 0.009,0.0102 0.0167,0.0219 0.0232,0.0351 0.10028,-0.0515 0.2003,-0.10327 0.2987,-0.15813 z m -1.61954,1.88413 c 0.0196,0.0364 0.0444,0.0624 0.078,0.0785 -0.0162,-0.0336 -0.0326,-0.0673 -0.0419,-0.10128 -0.008,0.004 -0.0156,0.008 -0.0238,0.0124 -0.005,0.003 -0.009,0.006 -0.0124,0.0103 z m 1.55908,-1.74615 c -2.6e-4,-0.002 -5.3e-4,-0.002 -5.3e-4,0.002 2.7e-4,0.0128 2.7e-4,0.0254 5.3e-4,0.0382 0.002,-5.3e-4 0.004,-0.001 0.006,-0.002 -0.002,-0.009 -0.005,-0.0325 -0.006,-0.0382 z m -1.76527,1.048 c 8e-4,0.0313 0.002,0.0628 0.007,0.0935 -5e-5,-0.012 8e-4,-0.0246 0.002,-0.0372 -0.004,-0.0183 -0.007,-0.0369 -0.009,-0.0563 z m 1.44694,0.97772 c -0.003,7.9e-4 -0.005,0.002 -0.008,0.003 0.001,0.004 0.002,0.007 0.003,0.0114 5.2e-4,7.9e-4 0.002,0.002 0.002,0.003 8e-4,-0.006 0.002,-0.011 0.003,-0.0165 z m 0.12558,0.12919 c -0.008,0.0139 -0.0167,0.0279 -0.0253,0.0429 0.006,0.01 0.0125,0.0195 0.0186,0.0289 0.009,-0.008 0.0202,-0.0158 0.0305,-0.0238 -0.008,-0.0161 -0.0154,-0.0322 -0.0238,-0.0481 z m -0.69299,0.0336 c -0.004,10e-4 -0.007,0.002 -0.0108,0.003 -0.006,0.04 -0.025,0.1591 -0.016,0.11989 0.01,-0.0409 0.0184,-0.0819 0.0269,-0.12299 z" />
    </clipPath>
    <inkscape:path-effect
       effect="spiro"
       id="path-effect1976-9-2"
       is_visible="true"
       lpeversion="1" />
    <clipPath
       clipPathUnits="userSpaceOnUse"
       id="clipPath2673-3-6">
      <path
         id="path2675-6-1"
         style="fill:#ff0000;fill-opacity:1;fill-rule:nonzero;stroke:none;stroke-width:0.264583"
         d="m 184.88949,220.8583 v 9.417 h 54.33467 v -5.49734 c -0.24402,0.10003 -0.48255,0.18137 -0.69195,0.20929 0.0179,0.28989 0.0425,0.57947 0.0713,0.8692 0.009,0.081 0.0209,0.16157 0.0269,0.24288 0.023,0.29478 0.0262,0.35581 0.0145,0.6165 -0.003,0.0589 0.047,0.1737 -0.0119,0.17622 -2.16189,0.093 -2.04045,0.61326 -2.16524,-0.21291 1.16969,-0.002 1.09042,-0.37699 1.17357,0.0155 0.33423,-0.04 0.66828,-0.0799 1.00252,-0.11989 -0.24557,-0.71457 -0.005,-0.0615 -2.13837,0.0439 -1e-4,0 0.0301,-0.0896 0.0196,-0.28474 -0.005,-0.0915 -0.0204,-0.18226 -0.0305,-0.27337 -0.0296,-0.31354 -0.0542,-0.62707 -0.0734,-0.94103 -0.13916,-0.0561 -0.47095,-0.23804 -0.33176,-0.27336 0.10351,-0.0263 0.20898,-0.0308 0.31523,-0.0253 -8e-4,-0.0145 -8e-4,-0.029 -0.002,-0.0434 -0.0312,-0.0309 -0.0619,-0.0607 -0.0961,-0.0966 -0.31402,0.0473 -0.62804,0.0948 -0.94206,0.14211 0.003,0.01 0.006,0.0193 0.009,0.0289 0.004,0.0129 -0.0211,-0.0172 -0.0315,-0.0258 0.007,-0.001 0.0148,-0.002 0.0222,-0.003 -0.0911,-0.28347 -0.17759,-0.56932 -0.29508,-0.84284 -0.0149,-0.035 -0.0132,0.1492 -0.0222,0.11214 -0.002,-0.007 -0.0364,-0.35843 -0.0548,-0.54571 -0.18404,0.0394 -0.29434,0.0478 -0.36484,0.014 0.0323,0.067 0.064,0.13287 0.0367,0.19533 -0.0382,0.0872 -0.17442,-0.20107 -0.11473,-0.27388 -0.0102,-0.0188 -0.0189,-0.0404 -0.0269,-0.0651 -0.0511,0.005 -0.10566,0.0119 -0.16485,0.0207 -0.01,-0.23843 -0.0359,-0.35832 -0.0207,-0.62063 0.003,-0.0456 0.002,-0.0744 0.003,-0.0915 -0.0148,-0.0906 -0.0308,-0.22114 -0.006,-0.27595 -0.0466,-0.30351 -0.0703,-0.61089 0.0269,-0.62374 0.53005,-0.0701 0.87422,-0.12769 1.10174,-0.15141 0.20962,-0.0846 0.42124,-0.16297 0.63976,-0.21962 5.2e-4,-1.5e-4 0.0223,0.0424 0.0506,0.10645 0.14663,-0.0667 0.24541,-0.0989 0.14986,-0.0413 -0.0444,0.0268 -0.0891,0.0528 -0.13436,0.078 0.0281,0.0664 0.0607,0.14884 0.0868,0.23616 0.004,0.0144 0.008,0.029 0.0124,0.0434 0.0934,-0.0467 0.16232,-0.084 0.23305,-0.12196 0.0121,-0.19823 0.0211,-0.39631 0.0202,-0.59479 0.006,-0.10086 0.0128,-0.2015 0.0191,-0.30231 z m 51.28007,0.73949 c -0.006,-0.0131 -0.0103,-0.025 -0.0155,-0.0367 -0.0949,0.0432 -0.20808,0.0999 -0.30644,0.15969 0.009,0.0102 0.0167,0.0219 0.0232,0.0351 0.10028,-0.0515 0.2003,-0.10327 0.2987,-0.15813 z m -1.61954,1.88413 c 0.0196,0.0364 0.0444,0.0624 0.078,0.0785 -0.0162,-0.0336 -0.0326,-0.0673 -0.0419,-0.10128 -0.008,0.004 -0.0156,0.008 -0.0238,0.0124 -0.005,0.003 -0.009,0.006 -0.0124,0.0103 z m 1.55908,-1.74615 c -2.6e-4,-0.002 -5.3e-4,-0.002 -5.3e-4,0.002 2.7e-4,0.0128 2.7e-4,0.0254 5.3e-4,0.0382 0.002,-5.3e-4 0.004,-0.001 0.006,-0.002 -0.002,-0.009 -0.005,-0.0325 -0.006,-0.0382 z m -1.76527,1.048 c 8e-4,0.0313 0.002,0.0628 0.007,0.0935 -5e-5,-0.012 8e-4,-0.0246 0.002,-0.0372 -0.004,-0.0183 -0.007,-0.0369 -0.009,-0.0563 z m 1.44694,0.97772 c -0.003,7.9e-4 -0.005,0.002 -0.008,0.003 0.001,0.004 0.002,0.007 0.003,0.0114 5.2e-4,7.9e-4 0.002,0.002 0.002,0.003 8e-4,-0.006 0.002,-0.011 0.003,-0.0165 z m 0.12558,0.12919 c -0.008,0.0139 -0.0167,0.0279 -0.0253,0.0429 0.006,0.01 0.0125,0.0195 0.0186,0.0289 0.009,-0.008 0.0202,-0.0158 0.0305,-0.0238 -0.008,-0.0161 -0.0154,-0.0322 -0.0238,-0.0481 z m -0.69299,0.0336 c -0.004,10e-4 -0.007,0.002 -0.0108,0.003 -0.006,0.04 -0.025,0.1591 -0.016,0.11989 0.01,-0.0409 0.0184,-0.0819 0.0269,-0.12299 z" />
    </clipPath>
    <inkscape:path-effect
       effect="spiro"
       id="path-effect1976-7-8"
       is_visible="true"
       lpeversion="1" />
  </defs>
  <sodipodi:namedview
     id="base"
     pagecolor="#ffffff"
     bordercolor="#666666"
     borderopacity="1.0"
     inkscape:pageopacity="0.0"
     inkscape:pageshadow="2"
     inkscape:zoom="1.1939323"
     inkscape:cx="435.1168"
     inkscape:cy="427.99747"
     inkscape:document-units="mm"
     inkscape:current-layer="layer1"
     showgrid="false"
     showborder="true"
     width="200mm"
     showguides="true"
     inkscape:guide-bbox="true"
     inkscape:window-width="1920"
     inkscape:window-height="1127"
     inkscape:window-x="0"
     inkscape:window-y="0"
     inkscape:window-maximized="1"
     inkscape:pagecheckerboard="0"
     inkscape:snap-bbox="true"
     inkscape:snap-bbox-edge-midpoints="true"
     inkscape:snap-others="true"
     inkscape:snap-object-midpoints="true"
     inkscape:snap-smooth-nodes="true">
    <inkscape:grid
       type="xygrid"
       id="grid815"
       units="mm"
       spacingx="10"
       spacingy="10"
       empspacing="4"
       dotted="false" />
  </sodipodi:namedview>
  <metadata
     id="metadata5">
    <rdf:RDF>
      <cc:Work
         rdf:about="">
        <dc:format>image/svg+xml</dc:format>
        <dc:type
           rdf:resource="http://purl.org/dc/dcmitype/StillImage" />
      </cc:Work>
    </rdf:RDF>
  </metadata>
  <g
     inkscape:label="Layer 1"
     inkscape:groupmode="layer"
     id="layer1"
     transform="translate(0,-177)">
    <text
       xml:space="preserve"
       style="font-size:4.23333px;line-height:1.25;font-family:sans-serif;stroke-width:0.264583"
       x="15.061042"
       y="200.86314"
       id="text1177"><tspan
         sodipodi:role="line"
         id="tspan1175"
         style="stroke-width:0.264583"
         x="15.061042"
         y="200.86314">$p:$</tspan></text>
    <rect
       style="fill:#4d4d4d;fill-opacity:0;stroke:#000000;stroke-width:0.157;stroke-miterlimit:4;stroke-dasharray:none;stroke-dashoffset:0;stroke-opacity:1"
       id="rect1234"
       width="40.109352"
       height="37.878967"
       x="35.919495"
       y="189.14456" />
    <path
       style="fill:none;stroke:#000000;stroke-width:0.265;stroke-linecap:butt;stroke-linejoin:miter;stroke-miterlimit:4;stroke-dasharray:none;stroke-opacity:1;marker-end:url(#Arrow1Lend)"
       d="m 83.136556,205.76537 c 10.051413,-3.32756 20.102664,-6.65507 32.981744,-6.99109 12.87907,-0.33601 28.5852,2.31925 44.29134,4.97451"
       id="path1579"
       inkscape:path-effect="#path-effect1581"
       inkscape:original-d="m 83.136556,205.76537 c 10.051519,-3.32724 20.102774,-6.65475 30.153754,-9.98252 15.70702,2.65563 31.41315,5.31089 47.11933,7.96594" />
    <ellipse
       style="fill:#4d4d4d;fill-opacity:0;stroke:#000000;stroke-width:0.264999;stroke-miterlimit:4;stroke-dasharray:none;stroke-dashoffset:0;stroke-opacity:1"
       id="path1873"
       cx="198.27464"
       cy="212.15021"
       rx="24.545992"
       ry="24.405558" />
    <path
       style="fill:none;stroke:#000000;stroke-width:0.264583px;stroke-linecap:butt;stroke-linejoin:miter;stroke-opacity:1"
       d="m 184.95227,224.09792 c 15.0192,8.05875 34.07278,8.05875 49.09198,0 1.75983,-0.94426 3.46512,-1.99018 5.10451,-3.13081"
       id="path1974"
       inkscape:original-d="m 184.95227,224.09792 c 16.36425,2.6e-4 32.72825,2.6e-4 49.09198,0 16.36373,-2.7e-4 3.40327,-2.08694 5.10451,-3.13081"
       inkscape:path-effect="#path-effect1976"
       clip-path="url(#clipPath2673)"
       transform="translate(-11.223625,-11.947715)" />
    <path
       style="fill:none;stroke:#ff0000;stroke-width:0.264583px;stroke-linecap:butt;stroke-linejoin:miter;stroke-opacity:1"
       d="m 184.95227,224.09792 c 15.0192,8.05875 34.07278,8.05875 49.09198,0 1.75983,-0.94426 3.46512,-1.99018 5.10451,-3.13081"
       id="path1974-1"
       inkscape:original-d="m 184.95227,224.09792 c 16.36425,2.6e-4 32.72825,2.6e-4 49.09198,0 16.36373,-2.7e-4 3.40327,-2.08694 5.10451,-3.13081"
       inkscape:path-effect="#path-effect1976-9"
       clip-path="url(#clipPath2673-35)"
       transform="matrix(0.01765305,-0.95011992,1.2017305,0.00764946,-72.066045,409.95495)" />
    <path
       style="fill:none;stroke:#000000;stroke-width:0.264583;stroke-linecap:butt;stroke-linejoin:miter;stroke-miterlimit:4;stroke-dasharray:0.264583, 2.11666;stroke-dashoffset:0;stroke-opacity:1"
       d="m 184.95227,224.09792 c 15.0192,8.05875 34.07278,8.05875 49.09198,0 1.75983,-0.94426 3.46512,-1.99018 5.10451,-3.13081"
       id="path1974-5"
       inkscape:original-d="m 184.95227,224.09792 c 16.36425,2.6e-4 32.72825,2.6e-4 49.09198,0 16.36373,-2.7e-4 3.40327,-2.08694 5.10451,-3.13081"
       inkscape:path-effect="#path-effect1976-7"
       clip-path="url(#clipPath2673-3)"
       transform="rotate(-176.86674,203.8059,219.4617)" />
    <text
       xml:space="preserve"
       style="font-size:4.23333px;line-height:1.25;font-family:sans-serif;stroke-width:0.264583"
       x="7.4676943"
       y="252.45834"
       id="text1177-7"><tspan
         sodipodi:role="line"
         id="tspan1175-9"
         style="stroke-width:0.264583"
         x="7.4676943"
         y="252.45834">$p^*:$</tspan></text>
    <rect
       style="fill:#4d4d4d;fill-opacity:0;stroke:#000000;stroke-width:0.157;stroke-miterlimit:4;stroke-dasharray:none;stroke-dashoffset:0;stroke-opacity:1"
       id="rect1234-2"
       width="40.109352"
       height="37.878967"
       x="29.384489"
       y="240.73975" />
    <path
       style="fill:none;stroke:#000000;stroke-width:0.265;stroke-linecap:butt;stroke-linejoin:miter;stroke-miterlimit:4;stroke-dasharray:none;stroke-opacity:1;marker-end:url(#Arrow1Lend-2)"
       d="m 76.601547,257.36056 c 10.051409,-3.32756 20.10266,-6.65507 32.981733,-6.99109 12.87907,-0.33601 28.5852,2.31925 44.29134,4.97451"
       id="path1579-0"
       inkscape:path-effect="#path-effect1581-0"
       inkscape:original-d="m 76.601547,257.36056 c 10.051515,-3.32724 20.102765,-6.65475 30.153743,-9.98252 15.70702,2.65563 31.41315,5.31089 47.11933,7.96594" />
    <ellipse
       style="fill:#4d4d4d;fill-opacity:0;stroke:#000000;stroke-width:0.264999;stroke-miterlimit:4;stroke-dasharray:none;stroke-dashoffset:0;stroke-opacity:1"
       id="path1873-2"
       cx="191.73962"
       cy="263.74539"
       rx="24.545992"
       ry="24.405558" />
    <path
       style="fill:none;stroke:#000000;stroke-width:0.264583px;stroke-linecap:butt;stroke-linejoin:miter;stroke-opacity:1"
       d="m 184.95227,224.09792 c 15.0192,8.05875 34.07278,8.05875 49.09198,0 1.75983,-0.94426 3.46512,-1.99018 5.10451,-3.13081"
       id="path1974-3"
       inkscape:original-d="m 184.95227,224.09792 c 16.36425,2.6e-4 32.72825,2.6e-4 49.09198,0 16.36373,-2.7e-4 3.40327,-2.08694 5.10451,-3.13081"
       inkscape:path-effect="#path-effect1976-6"
       clip-path="url(#clipPath2673-9)"
       transform="translate(-17.758634,39.647484)" />
    <path
       style="fill:none;stroke:#f4c600;stroke-width:0.26499999;stroke-linecap:butt;stroke-linejoin:miter;stroke-miterlimit:4;stroke-dasharray:none;stroke-dashoffset:0;stroke-opacity:1"
       d="m 184.95227,224.09792 c 15.0192,8.05875 34.07278,8.05875 49.09198,0 1.75983,-0.94426 3.46512,-1.99018 5.10451,-3.13081"
       id="path1974-5-5"
       inkscape:original-d="m 184.95227,224.09792 c 16.36425,2.6e-4 32.72825,2.6e-4 49.09198,0 16.36373,-2.7e-4 3.40327,-2.08694 5.10451,-3.13081"
       inkscape:path-effect="#path-effect1976-7-8"
       clip-path="url(#clipPath2673-3-6)"
       transform="rotate(-176.86674,201.24396,245.34867)" />
  </g>
</svg>
