<?xml version="1.0" encoding="UTF-8" standalone="no"?>
<!-- Created with Inkscape (http://www.inkscape.org/) -->

<svg
   width="240mm"
   height="120mm"
   viewBox="0 0 240 120"
   version="1.1"
   id="svg8"
   inkscape:version="1.1.2 (0a00cf5339, 2022-02-04)"
   sodipodi:docname="parametrisation-du-tore.svg"
   xmlns:inkscape="http://www.inkscape.org/namespaces/inkscape"
   xmlns:sodipodi="http://sodipodi.sourceforge.net/DTD/sodipodi-0.dtd"
   xmlns="http://www.w3.org/2000/svg"
   xmlns:svg="http://www.w3.org/2000/svg"
   xmlns:rdf="http://www.w3.org/1999/02/22-rdf-syntax-ns#"
   xmlns:cc="http://creativecommons.org/ns#"
   xmlns:dc="http://purl.org/dc/elements/1.1/">
  <defs
     id="defs2">
    <marker
       style="overflow:visible;"
       id="Arrow1Lend"
       refX="0.0"
       refY="0.0"
       orient="auto"
       inkscape:stockid="Arrow1Lend"
       inkscape:isstock="true">
      <path
         transform="scale(0.8) rotate(180) translate(12.5,0)"
         style="fill-rule:evenodd;fill:context-stroke;stroke:context-stroke;stroke-width:1.0pt;"
         d="M 0.0,0.0 L 5.0,-5.0 L -12.5,0.0 L 5.0,5.0 L 0.0,0.0 z "
         id="path44018" />
    </marker>
    <rect
       x="610.64362"
       y="159.27261"
       width="17.872464"
       height="23.164506"
       id="rect34943" />
    <clipPath
       clipPathUnits="userSpaceOnUse"
       id="clipPath44425">
      <path
         id="path44427"
         style="fill:#ff0000;fill-opacity:1;fill-rule:nonzero;stroke:none;stroke-width:0.264583"
         d="m 80.733056,62.845259 v 6.380488 h 23.198584 c -0.10742,-1.26293 0.53145,-1.968902 1.24954,-1.980239 0.66167,-0.01045 1.38995,0.568402 1.66243,1.843299 0.008,0.03891 0.0188,0.09037 0.0284,0.13694 h 22.89886 v -6.380488 z" />
    </clipPath>
    <clipPath
       clipPathUnits="userSpaceOnUse"
       id="clipPath44437">
      <path
         id="path44439"
         style="fill:#ff0000;fill-opacity:1;fill-rule:nonzero;stroke:none;stroke-width:0.264583"
         d="m 104.38433,237.50277 v 7.09724 c 0.22187,-0.22834 0.5026,-0.34986 0.79685,-0.3545 0.0175,-2.7e-4 0.0351,0.002 0.0527,0.002 v -6.7448 z m 0,32.34118 v 0.094 c 0.17878,-0.0319 0.36616,-0.0589 0.54828,-0.0816 -0.19246,-0.004 -0.37163,-0.008 -0.54828,-0.0124 z m 0.293,1.06401 c -0.084,0.022 -0.19963,0.0537 -0.293,0.0786 v 0.0424 c 0.10426,-0.0411 0.20557,-0.082 0.293,-0.12093 z m 0.0687,0.10594 c -0.0213,0.006 -0.0365,0.01 -0.0584,0.0155 -0.0192,0.008 -0.0325,0.0141 -0.0512,0.0222 0.0213,-0.006 0.0382,-0.011 0.0589,-0.0171 0.018,-0.007 0.0322,-0.0134 0.0506,-0.0207 z m 0.48783,0.36535 c -0.2637,0.0507 -0.56782,0.0611 -0.84956,0.0532 v 14.54898 h 0.84956 z" />
    </clipPath>
    <clipPath
       clipPathUnits="userSpaceOnUse"
       id="clipPath44447">
      <path
         id="path44449"
         style="fill:#ff0000;fill-opacity:1;fill-rule:nonzero;stroke:none;stroke-width:0.264583"
         d="M 36.325432,24.846028 V 96.162606 H 173.87776 V 24.846028 Z m 68.855748,42.39948 h 5.2e-4 c 0.66154,-0.01016 1.38951,0.568727 1.66192,1.843299 0.11825,0.553061 0.39149,1.936636 0.12092,2.54403 0.004,0.183433 0.004,0.377314 5.3e-4,0.496093 -0.0592,0.505595 0.096,0.988132 0.13178,1.487766 -0.008,0.09793 -0.0148,0.196228 -0.0238,0.294039 -0.0551,0.580922 -0.0625,-0.385725 -0.13023,-0.398425 -0.0154,-0.0029 -0.0306,-0.0026 -0.046,-0.0047 2.6e-4,0.298543 -0.017,0.595947 -0.0899,0.89762 -0.0181,0.07517 -0.0768,0.137086 -0.092,0.212905 -0.0105,0.05206 0.0517,-0.09314 0.0775,-0.139525 -0.0733,0.787307 -0.1492,1.576302 -0.29817,2.35386 0.0137,0.408191 -0.11303,0.80717 -0.15193,1.206645 -0.008,0.08484 0.0255,0.169138 0.0305,0.254249 -0.0106,0.754198 0.007,1.508051 -0.0517,2.261359 -0.0494,0.535298 -0.14762,1.061414 -0.21652,1.594221 -0.0311,0.23831 -0.0952,0.514818 -0.0362,0.758092 0.0251,0.372306 -0.038,0.738103 -0.0139,1.110009 -0.044,-0.124844 1.2e-4,0.09865 0.03,0.29559 0.11421,0.339201 0.1456,0.689925 0.18862,1.047999 0.0227,0.246427 0.005,0.493702 0.002,0.740523 -0.0187,0.199118 -0.0193,0.399815 -0.0196,0.599962 -0.002,0.175151 -0.001,0.350393 -0.001,0.525549 0.0259,0.09742 -0.0793,1.093354 -0.0615,0.782381 -0.0129,0.06291 -0.0227,0.126897 -0.0326,0.190688 0.001,-0.01725 2.6e-4,-0.02925 -0.003,-0.0181 -0.0146,0.04682 -0.0205,0.07947 -0.0233,0.110585 0.006,-0.01294 0.0118,-0.02569 0.0171,-0.03876 7.9e-4,-0.0019 0.001,-0.0057 0.002,-0.0083 -0.006,0.03833 -0.0132,0.07627 -0.0207,0.114205 8e-4,0.02299 0.002,0.04802 0.003,0.0801 -0.009,0.345599 -0.0686,0.691931 -0.11369,1.035596 -0.0416,0.302183 -0.13506,0.531442 -0.16536,0.763778 -0.0706,-0.03415 -0.0833,0.01926 -0.078,0.09973 0.009,0.0013 0.017,0.0024 0.0258,0.0036 0.0151,0.0024 -0.007,0.0295 -0.0108,0.04444 -6e-5,2.65e-4 6e-5,7.94e-4 0,0.0011 0.005,0.0011 0.0103,0.0026 0.0155,0.0036 -0.001,0.05291 -0.003,0.102188 -0.006,0.150895 0.006,0.05759 0.007,0.108114 -0.008,0.134876 -0.0216,0.319284 -0.0622,0.556819 -0.10128,0.805635 -2e-5,5.3e-4 2e-5,0.0011 0,0.0016 -0.009,0.211405 0.0387,0.699733 -0.0305,0.157096 0.0228,0.292756 0.0288,0.590484 -0.0104,0.8816 -0.0165,0.04502 -0.0247,0.09257 -0.03,0.14056 -2.7e-4,0.04008 -10e-4,0.08031 -0.002,0.120406 0.032,-0.0016 0.0502,-0.0027 0.078,-0.0041 -0.0273,0.0021 -0.0482,0.0033 -0.078,0.0057 -7.9e-4,0.04732 -7.9e-4,0.09479 -0.002,0.142111 0.002,0.0057 0.003,0.0118 0.005,0.01757 0.0915,0.190521 0.13675,0.408636 0.13281,0.640789 1.5e-4,0.0016 -1.5e-4,0.0031 0,0.0047 0.005,0.01656 0.0102,0.0317 0.015,0.04754 0.34299,-0.07147 0.2841,-0.02522 0.0243,0.07803 10e-4,0.0024 0.002,0.0048 0.003,0.0072 0.0157,-0.0033 0.0187,-0.0032 0.002,0.0026 0.001,0.0024 0.002,0.0048 0.003,0.0072 0.12868,-0.03551 0.15256,-0.04019 0.003,0.0062 0.0759,0.164524 0.058,0.293442 -0.0243,0.39274 -0.002,0.02625 -0.006,0.03945 -0.0139,0.01551 -0.25214,0.272303 -1.00028,0.313499 -1.55494,0.281638 -0.0189,0.01185 -0.0344,0.02244 -0.0517,0.03359 0.007,0.0036 0.0148,0.0072 0.0222,0.01085 -0.008,-0.0034 -0.0157,-0.0071 -0.0238,-0.01035 -0.36155,0.23358 -0.38178,0.309394 -0.48938,0.0098 -0.007,0.0026 -0.0133,0.0046 -0.0202,0.0072 -0.2005,0.07695 -0.14086,0.05152 0.0181,-0.01291 -5.3e-4,-0.0019 -0.001,-0.0044 -0.002,-0.0062 -0.0556,0.0213 -0.0634,0.02289 -0.007,-0.0026 -0.001,5.29e-4 -0.007,0.0021 -0.008,0.0026 0.004,-0.0016 0.009,-0.0031 0.0129,-0.0047 -0.006,-0.01611 -0.0123,-0.03506 -0.0186,-0.05323 -0.004,0.0013 -0.009,0.0028 -0.0134,0.0041 -0.004,-0.01034 -0.0207,-0.02771 -0.0104,-0.03101 0.004,-0.0011 0.009,-0.003 0.0129,-0.0041 -0.002,-0.0066 -0.004,-0.01127 -0.006,-0.0181 0.002,-5.29e-4 0.003,-0.0011 0.005,-0.0016 -0.0638,-0.01929 -0.0833,-0.03834 -0.0419,-0.05374 -0.0104,-0.02799 -0.027,-0.09337 -0.009,-0.09818 0.0268,-0.0073 0.045,-0.01196 0.0713,-0.01913 -0.007,-0.0331 -0.0167,-0.07606 -0.0258,-0.117306 -0.0458,-0.0598 -0.0862,-0.126873 -0.12196,-0.203089 8e-4,0.01159 8e-4,0.02225 0.002,0.03411 0.007,0.05336 0.0362,0.211182 0.0191,0.160197 -0.0373,-0.111646 -0.0422,-0.158626 -0.0367,-0.228928 -0.0198,-0.04557 -0.0383,-0.09382 -0.0548,-0.146243 -0.0917,-0.29123 -0.17001,-0.732462 -0.13229,-0.809771 -0.0219,7.94e-4 -0.0362,0.0013 -0.0584,0.0021 3e-5,-0.02896 2.5e-4,-0.05829 0,-0.08785 -0.0739,-0.01582 -0.0824,-0.03611 -0.002,-0.06304 -0.003,-0.06327 -0.0122,-0.125981 -0.0362,-0.183451 -7.9e-4,-0.07021 -0.0449,-0.603546 -0.0222,-0.439767 -0.0247,-0.201572 -0.0401,-0.403457 -0.0114,-0.606679 -0.007,-0.06162 -0.0136,-0.119358 -0.0145,-0.157099 -0.005,-0.222152 10e-4,-0.254013 0.0227,-0.283702 0.0184,-0.208034 0.0534,-0.584994 0.0501,-0.658876 0.37982,0.02246 0.75933,0.05496 1.13895,0.08423 -0.29916,-0.05966 -0.59735,-0.125987 -0.89349,-0.198438 -0.21242,0.03243 -0.26704,0.04477 -0.25838,-0.06408 -0.003,-7.94e-4 -0.006,-0.0019 -0.009,-0.0026 -0.0526,-0.01349 0.0159,-0.107413 0.0258,-0.160713 0.0124,-0.06589 -0.0246,-0.205687 0.0419,-0.196887 2.6e-4,4.5e-5 7.9e-4,-4.5e-5 0.001,0 0.0434,-0.332833 0.0872,-0.711327 0.092,-0.727605 0.0274,-0.208108 0.0682,-0.412996 0.045,-0.621151 -0.003,-0.144251 -0.0643,-0.319813 -0.0393,-0.467154 -0.0967,0.0754 -0.0411,-0.116073 0.0486,-0.341066 0.01,-0.156615 0.017,-0.313278 0.006,-0.471287 0,-0.176421 -4e-5,-0.352755 -0.001,-0.529166 2.6e-4,-0.181137 0.004,-0.362813 -0.0227,-0.542087 -2.6e-4,-0.03112 2.6e-4,-0.408995 0.006,-0.521933 -0.021,-0.138901 -0.0629,-0.377875 -0.0496,-0.428397 -0.005,-0.01333 -0.0106,-0.02614 -0.0145,-0.03979 -0.0669,-0.235749 -0.0734,-0.609491 -0.0377,-0.877467 -0.0277,-0.04826 -0.0543,-0.09399 -0.0832,-0.145211 -0.002,-0.0042 -0.003,-0.0041 -0.005,-0.0057 2.1e-4,0.0049 2.7e-4,0.01003 5.3e-4,0.01498 0.004,0.0491 0.0105,0.09805 0.0109,0.147278 6e-5,0.0071 -0.0335,-0.182822 -0.0114,-0.162264 -0.0139,-0.333968 -0.0283,-0.68417 0.061,-1.008208 -0.0526,-0.940303 0.1377,-1.866924 0.31833,-2.785875 0.0526,-0.665215 0.077,-1.331409 0.15141,-1.994712 -0.005,-0.684244 0.17807,-1.323777 0.26097,-1.99781 0.13187,-0.661607 0.17496,-1.336813 0.28112,-2.001944 -0.22814,-0.03049 -0.17732,-0.47072 -0.10232,-0.718304 -0.0206,-0.108638 -0.0436,-0.21659 -0.0589,-0.326078 -0.0588,-0.421925 -0.0882,-0.826436 -0.0677,-1.250569 0.0149,-0.551161 -0.0497,-0.358939 0.0687,-1.136364 0.001,0.01887 0.005,0.0381 0.008,0.05581 0.004,0.02548 0.0256,-0.04753 0.0258,-0.07338 2.6e-4,-0.03721 1.8e-4,-0.07191 0,-0.104902 -0.005,0.0068 -0.01,0.01328 -0.0145,0.02016 -0.002,0.0024 -0.003,0.0048 -0.004,0.0072 0.006,-0.03839 0.0112,-0.07072 0.0181,-0.113688 -0.008,-0.389615 -0.0608,-0.494409 -0.17156,-1.036627 h 5.3e-4 c -0.31493,-1.541235 0.38607,-2.412204 1.18442,-2.425176 z m -1.75649,20.451463 c -0.004,0.07357 -0.009,0.147392 -0.0124,0.221176 0.0915,-0.251513 0.22923,-0.487741 0.28991,-0.748273 0.0375,-0.161198 -0.15338,0.215593 -0.2775,0.527097 z m -0.0124,0.221176 c -0.009,0.02455 -0.0179,0.049 -0.0258,0.0739 -0.005,0.01479 -0.008,0.0305 -0.0103,0.04599 0.009,-0.0073 0.0193,-0.01603 0.0315,-0.02842 0.001,-0.03051 0.003,-0.06104 0.005,-0.09147 z m 0.0786,5.908683 c 0.005,0.01183 0.0107,0.02323 0.016,0.03462 -0.004,-0.07167 -0.005,-0.13917 -0.004,-0.205155 -0.002,0.04029 -0.004,0.08511 -0.006,0.109554 -0.003,0.02347 -0.004,0.04254 -0.006,0.06098 z m 0.16382,0.355018 c 0.007,0.03196 0.0146,0.06661 0.0196,0.09147 0.0406,-0.01212 0.082,-0.02408 0.12092,-0.03617 -0.0275,-0.02278 -0.0534,-0.04714 -0.0785,-0.07235 -0.0225,0.0061 -0.0391,0.01082 -0.062,0.01707 z m 0.0196,0.09147 c -0.0247,0.0074 -0.048,0.01487 -0.0734,0.02223 0.013,0.02151 0.0243,0.0401 0.0346,0.05684 0.0187,-0.0057 0.0316,-0.0093 0.0501,-0.01498 -0.003,-0.01929 -0.006,-0.03688 -0.0114,-0.06408 z m -0.0734,0.02223 c -0.002,-0.0031 -0.003,-0.005 -0.005,-0.0083 10e-4,0.0049 10e-4,0.0063 0.002,0.0098 0.002,-5.29e-4 0.002,-0.0011 0.004,-0.0016 z m -0.004,0.0016 c -0.002,5.29e-4 -0.003,0.0013 -0.005,0.0021 0.005,0.01421 0.008,0.01971 0.005,-0.0021 z m 0.56327,0.166396 c 5.3e-4,-2.64e-4 0.001,-2.3e-4 0.002,-5.29e-4 -0.0285,-0.01408 -0.0567,-0.02855 -0.0837,-0.04289 -0.008,-7.94e-4 -0.0181,-7.94e-4 -0.0263,-0.0016 0.0347,0.01638 0.0722,0.03023 0.10851,0.04496 z m 1.63556,-0.747241 c -5.3e-4,-0.0011 -10e-4,-0.0021 -0.002,-0.0031 -0.007,-0.02111 -0.0152,-0.05005 -0.0227,-0.07493 -0.003,5.29e-4 -0.007,0.0016 -0.01,0.0021 0.002,0.02672 0.004,0.05253 0.006,0.08113 5.3e-4,0.0019 0.001,0.0037 0.002,0.0057 0.0106,-0.0042 0.0163,-0.0069 0.0264,-0.01085 z m -0.17208,-0.771012 c -0.002,-0.0034 -0.003,-0.007 -0.005,-0.01034 -0.002,0.136959 -0.002,0.273606 0.005,0.41031 0.006,0.119343 0.0336,-0.24099 0.01,-0.358116 -0.003,-0.01431 -0.007,-0.02818 -0.0103,-0.04186 z m -0.005,-0.01034 c 3e-5,-0.0024 -3e-5,-0.0048 0,-0.0072 -0.005,-0.01826 -0.0118,-0.03556 -0.0186,-0.05271 -0.005,-1.65e-4 -0.01,-2.65e-4 -0.0145,-5.3e-4 0.0112,0.01998 0.0229,0.03981 0.0331,0.06046 z m 0.002,-0.149344 c 1e-5,-5.29e-4 -1e-5,-0.0011 0,-0.0016 -0.002,1.14e-4 -0.003,-1.16e-4 -0.006,0 -1e-5,7.94e-4 1e-5,0.0013 0,0.0021 0.002,-1.8e-4 0.004,-2.65e-4 0.006,-5.29e-4 z m 0.17208,-2.397787 c -0.003,-7.93e-4 -0.007,-0.0013 -0.01,-0.0021 0.003,0.02695 0.006,0.05375 0.01,0.08217 -10e-4,-0.0282 -0.004,-0.05836 0,-0.0801 z m -0.01,-0.0021 c -0.002,-0.01609 -0.004,-0.03241 -0.005,-0.04703 -0.17047,-0.02529 -0.3304,-0.04598 -0.47956,-0.06253 0.16124,0.03794 0.32291,0.07493 0.48472,0.109554 z m 0.21755,-5.982579 c 0.0375,0.114192 0.0751,0.22842 0.11266,0.342615 0.0107,-0.107313 0.006,-0.208471 -0.0124,-0.30851 0.0117,0.109567 0.007,0.171839 -0.046,0.06821 -0.0199,-0.03852 -0.0351,-0.06559 -0.0543,-0.102317 z m -2.21536,0.677477 c 0.0216,0.130897 0.0433,0.270332 0.0656,0.429432 0.4199,0.27084 0.35468,0.240633 -0.0656,-0.429432 z m -0.42323,5.45393 c -0.007,-0.0131 -0.11153,0.270938 -0.15607,0.37207 -0.011,0.09564 -0.0108,0.08631 -0.0165,0.133326 0.0298,-0.03678 0.083,-0.100372 0.1695,-0.480073 0.004,-0.0154 0.004,-0.02344 0.003,-0.02532 z m 2.29236,0.484727 c -7.9e-4,0.01302 0.01,0.111027 0.0351,0.305925 -0.008,-0.153789 -0.0337,-0.327996 -0.0351,-0.305925 z m -0.0966,1.767851 c -0.007,2.64e-4 -0.0184,7.93e-4 -0.0253,0.0011 10e-4,0.0019 0.002,0.0034 0.004,0.0052 0.008,-7.93e-4 0.0167,-0.0019 0.0243,-0.0026 -8e-4,-0.0013 -0.002,-0.0024 -0.003,-0.0036 z m -1.32446,0.05323 c -0.26221,0.0093 -0.56329,0.019 -0.89555,0.02946 0.005,0.0044 0.01,0.0089 0.0155,0.01654 0.0932,0.121542 0.0468,0.298241 0.0491,0.455785 0.0351,-0.244089 0.82403,-0.397732 1.53014,-0.485759 -0.24544,-0.0057 -0.48122,-0.01072 -0.69919,-0.01601 z m 0.4439,1.067633 c -0.24017,0.06298 -0.51803,0.137568 -0.83819,0.224277 0.0107,0.02851 0.0216,0.05499 0.0326,0.0801 0.3289,-0.105243 0.59063,-0.208618 0.80563,-0.304374 z m 0.0687,0.105937 c -0.0213,0.0055 -0.0365,0.0098 -0.0584,0.0155 -0.0192,0.0084 -0.0325,0.01408 -0.0512,0.02223 0.0213,-0.0063 0.0382,-0.01095 0.0589,-0.01707 0.018,-0.0071 0.0322,-0.01336 0.0506,-0.02066 z m -0.79116,0.33538 c -0.001,5.3e-4 -0.003,0.0011 -0.004,0.0016 7.9e-4,0.0011 0.002,0.0016 0.003,0.0026 0.002,-7.94e-4 0.003,-7.94e-4 0.005,-0.0016 -10e-4,-7.93e-4 -0.002,-0.0019 -0.004,-0.0026 z m -0.31885,0.0041 c 0.003,0.0052 0.007,0.01135 0.0104,0.01601 0.006,-0.0021 0.0161,-0.0051 0.0227,-0.0072 -0.0121,-0.003 -0.023,-0.0058 -0.0331,-0.0088 z m 0.0579,0.03617 c -0.009,0.0028 -0.0186,0.0055 -0.0279,0.0083 0.0219,0.03039 0.032,0.03388 0.0279,-0.0083 z m 0.14314,0.0036 c -0.0388,0.01601 -0.0566,0.02304 -0.0853,0.03462 0.0199,-0.0068 0.0726,-0.02442 0.0966,-0.03256 -0.004,-5.29e-4 -0.007,-0.0013 -0.0114,-0.0021 z" />
    </clipPath>
  </defs>
  <sodipodi:namedview
     id="base"
     pagecolor="#ffffff"
     bordercolor="#666666"
     borderopacity="1.0"
     inkscape:pageopacity="0.0"
     inkscape:pageshadow="2"
     inkscape:zoom="0.99437388"
     inkscape:cx="430.92443"
     inkscape:cy="158.89396"
     inkscape:document-units="mm"
     inkscape:current-layer="layer2"
     showgrid="false"
     showborder="true"
     width="200mm"
     showguides="true"
     inkscape:guide-bbox="true"
     inkscape:window-width="1920"
     inkscape:window-height="1127"
     inkscape:window-x="0"
     inkscape:window-y="0"
     inkscape:window-maximized="1"
     inkscape:pagecheckerboard="0"
     inkscape:snap-bbox="false"
     inkscape:snap-bbox-midpoints="true"
     inkscape:snap-object-midpoints="true"
     inkscape:snap-others="true">
    <inkscape:grid
       type="xygrid"
       id="grid815"
       units="mm"
       spacingx="10"
       spacingy="10"
       empspacing="4"
       dotted="false" />
  </sodipodi:namedview>
  <metadata
     id="metadata5">
    <rdf:RDF>
      <cc:Work
         rdf:about="">
        <dc:format>image/svg+xml</dc:format>
        <dc:type
           rdf:resource="http://purl.org/dc/dcmitype/StillImage" />
      </cc:Work>
    </rdf:RDF>
  </metadata>
  <g
     inkscape:label="Layer 1"
     inkscape:groupmode="layer"
     id="layer1"
     transform="translate(0,-177)">
    <path
       style="fill:none;stroke:#000000;stroke-width:0.264583px;stroke-linecap:butt;stroke-linejoin:miter;stroke-opacity:1"
       d="m 104.51669,285.98009 0.58504,-48.47573"
       id="path1457"
       clip-path="url(#clipPath44437)" />
  </g>
  <g
     inkscape:groupmode="layer"
     id="layer2"
     inkscape:label="Layer 2">
    <ellipse
       style="fill:#000000;fill-opacity:0;stroke:#000000;stroke-width:0.264583;stroke-miterlimit:4;stroke-dasharray:none"
       id="path878"
       cx="105.10173"
       cy="60.504364"
       rx="68.643929"
       ry="35.526119"
       clip-path="url(#clipPath44447)" />
    <ellipse
       style="fill:#000000;fill-opacity:0;stroke:#000000;stroke-width:0.192538;stroke-miterlimit:4;stroke-dasharray:none"
       id="path1188"
       cx="105.10173"
       cy="60.504364"
       rx="21.313335"
       ry="6.3130388" />
    <path
       style="fill:#000000;fill-opacity:0;stroke:#000000;stroke-width:0.192538px;stroke-linecap:butt;stroke-linejoin:miter;stroke-opacity:1"
       d="m 80.792596,62.92096 c 9.333023,7.31546 25.985404,6.33936 30.788454,5.91115 4.80306,-0.42822 15.41724,-3.58992 18.13879,-5.3014"
       id="path1307"
       clip-path="url(#clipPath44425)" />
    <path
       style="fill:none;stroke:#000000;stroke-width:0.264583px;stroke-linecap:butt;stroke-linejoin:miter;stroke-opacity:1;marker-end:url(#Arrow1Lend)"
       d="m 105.10173,60.50436 v 0 -50.28206"
       id="path1455" />
    <path
       style="fill:none;stroke:#000000;stroke-width:0.264583px;stroke-linecap:butt;stroke-linejoin:miter;stroke-opacity:1"
       d="m 105.10173,60.50436 h 21.24954"
       id="path2206" />
    <text
       xml:space="preserve"
       style="font-size:4.23333px;line-height:1.25;font-family:sans-serif;stroke-width:0.264583"
       x="115.7265"
       y="60.50436"
       id="text6258"><tspan
         sodipodi:role="line"
         id="tspan6256"
         style="stroke-width:0.264583"
         x="115.7265"
         y="60.50436">$a$</tspan></text>
    <ellipse
       style="fill:#000000;fill-opacity:0;stroke:#000000;stroke-width:0.400628;stroke-miterlimit:4;stroke-dasharray:none"
       id="path22320"
       cx="150.17188"
       cy="59.932896"
       rx="22.96615"
       ry="19.880903" />
    <path
       style="fill:none;stroke:#000000;stroke-width:0.264583px;stroke-linecap:butt;stroke-linejoin:miter;stroke-opacity:1"
       d="m 150.17187,59.932895 21.16702,-7.23668"
       id="path22505" />
    <text
       xml:space="preserve"
       style="font-size:4.23333px;line-height:1.25;font-family:sans-serif;stroke-width:0.264583"
       x="155.67105"
       y="55.538113"
       id="text29373"><tspan
         sodipodi:role="line"
         id="tspan29371"
         style="stroke-width:0.264583"
         x="155.67105"
         y="55.538113">$b$</tspan></text>
    <text
       xml:space="preserve"
       transform="scale(0.26458333)"
       id="text34941"
       style="line-height:1.25;font-family:sans-serif;font-size:16px;white-space:pre;shape-inside:url(#rect34943)" />
    <text
       xml:space="preserve"
       style="font-size:4.23333px;line-height:1.25;font-family:sans-serif;stroke-width:0.264583"
       x="106.34788"
       y="13.734936"
       id="text50151"><tspan
         sodipodi:role="line"
         id="tspan50149"
         style="stroke-width:0.264583"
         x="106.34788"
         y="13.734936">$z$</tspan></text>
    <path
       style="fill:none;stroke:#000000;stroke-width:0.264583px;stroke-linecap:butt;stroke-linejoin:miter;stroke-opacity:1;marker-end:url(#Arrow1Lend)"
       d="m 174.36872,63.763495 h 32.25191"
       id="path58231" />
    <text
       xml:space="preserve"
       style="font-size:4.23333px;line-height:1.25;font-family:sans-serif;stroke-width:0.264583"
       x="205.25919"
       y="56.332344"
       id="text62547"><tspan
         sodipodi:role="line"
         id="tspan62545"
         style="stroke-width:0.264583"
         x="205.25919"
         y="56.332344">$y$</tspan></text>
    <text
       xml:space="preserve"
       style="font-size:4.23333px;line-height:1.25;font-family:sans-serif;stroke-width:0.264583"
       x="105.23386"
       y="108.98143"
       id="text70669"><tspan
         sodipodi:role="line"
         id="tspan70667"
         style="stroke-width:0.264583"></tspan></text>
    <path
       style="fill:none;stroke:#000000;stroke-width:0.264583px;stroke-linecap:butt;stroke-linejoin:miter;stroke-opacity:1"
       d="M 87.240082,81.171649 62.675981,106.99919"
       id="path77832" />
    <text
       xml:space="preserve"
       style="font-size:4.23333px;line-height:1.25;font-family:sans-serif;stroke-width:0.264583"
       x="62.675983"
       y="106.99919"
       id="text86042"><tspan
         sodipodi:role="line"
         id="tspan86040"
         style="stroke-width:0.264583"
         x="62.675983"
         y="106.99919">$x$</tspan></text>
  </g>
</svg>
