<?xml version="1.0" encoding="UTF-8" standalone="no"?>
<!-- Created with Inkscape (http://www.inkscape.org/) -->

<svg
   width="240mm"
   height="120mm"
   viewBox="0 0 240 120"
   version="1.1"
   id="svg8"
   inkscape:version="1.1.2 (0a00cf5339, 2022-02-04, custom)"
   sodipodi:docname="sphère-avec-un-pustule.svg"
   xmlns:inkscape="http://www.inkscape.org/namespaces/inkscape"
   xmlns:sodipodi="http://sodipodi.sourceforge.net/DTD/sodipodi-0.dtd"
   xmlns="http://www.w3.org/2000/svg"
   xmlns:svg="http://www.w3.org/2000/svg"
   xmlns:rdf="http://www.w3.org/1999/02/22-rdf-syntax-ns#"
   xmlns:cc="http://creativecommons.org/ns#"
   xmlns:dc="http://purl.org/dc/elements/1.1/">
  <defs
     id="defs2">
    <inkscape:path-effect
       effect="spiro"
       id="path-effect1031"
       is_visible="true"
       lpeversion="1" />
    <inkscape:path-effect
       effect="spiro"
       id="path-effect1027"
       is_visible="true"
       lpeversion="1" />
    <inkscape:path-effect
       effect="spiro"
       id="path-effect910"
       is_visible="true"
       lpeversion="1" />
  </defs>
  <sodipodi:namedview
     id="base"
     pagecolor="#ffffff"
     bordercolor="#666666"
     borderopacity="1.0"
     inkscape:pageopacity="0.0"
     inkscape:pageshadow="2"
     inkscape:zoom="0.99437388"
     inkscape:cx="457.07154"
     inkscape:cy="300.69173"
     inkscape:document-units="mm"
     inkscape:current-layer="layer1"
     showgrid="false"
     showborder="true"
     width="200mm"
     showguides="true"
     inkscape:guide-bbox="true"
     inkscape:window-width="1920"
     inkscape:window-height="1127"
     inkscape:window-x="0"
     inkscape:window-y="0"
     inkscape:window-maximized="1"
     inkscape:pagecheckerboard="0"
     inkscape:object-paths="true">
    <inkscape:grid
       type="xygrid"
       id="grid815"
       units="mm"
       spacingx="10"
       spacingy="10"
       empspacing="4"
       dotted="false" />
  </sodipodi:namedview>
  <metadata
     id="metadata5">
    <rdf:RDF>
      <cc:Work
         rdf:about="">
        <dc:format>image/svg+xml</dc:format>
        <dc:type
           rdf:resource="http://purl.org/dc/dcmitype/StillImage" />
      </cc:Work>
    </rdf:RDF>
  </metadata>
  <g
     inkscape:label="Layer 1"
     inkscape:groupmode="layer"
     id="layer1"
     transform="translate(0,-177)">
    <path
       style="fill:none;stroke:#000000;stroke-width:0.362503px;stroke-linecap:butt;stroke-linejoin:miter;stroke-opacity:1"
       d="m 43.492831,285.82102 c -6.844057,-8.7516 -10.711681,-19.78891 -10.827176,-30.89829 -0.115495,-11.10937 3.521827,-22.22471 10.182459,-31.11671 6.660632,-8.89199 16.304946,-15.50774 26.998664,-18.52037 10.693718,-3.01263 22.373218,-2.40423 32.696042,1.70319 9.66335,3.84501 17.92008,10.53846 27.26765,15.09778 4.67378,2.27966 9.66887,4.03039 14.84839,4.49271 5.17951,0.46231 10.56976,-0.43115 15.01926,-3.12245 4.64108,-2.80718 7.94318,-7.31247 11.33877,-11.54211 3.39558,-4.22965 7.22932,-8.45021 12.33345,-10.28536 3.04133,-1.09349 6.41571,-1.25315 9.53934,-0.42347 3.12363,0.82968 5.9809,2.64914 8.03157,5.14718 2.05066,2.49804 3.28035,5.66456 3.42413,8.8933 0.14379,3.22874 -0.80417,6.5009 -2.6752,9.13617 -1.43627,2.02293 -3.3796,3.64989 -5.5012,4.93595 -2.12159,1.28607 -4.4247,2.24503 -6.75486,3.09679 -4.66031,1.70352 -9.54937,3.03795 -13.63543,5.85302 -4.52123,3.11488 -7.71755,7.83055 -10.07776,12.78771 -2.36021,4.95716 -3.97996,10.22873 -6.02281,15.32488 -3.0397,7.58291 -7.02567,14.78593 -11.8361,21.38896"
       id="path908"
       inkscape:path-effect="#path-effect910"
       inkscape:original-d="m 43.492831,285.82102 c 19.466093,-26.34198 39.367003,-52.5544 59.049989,-78.83218 19.68299,-26.27778 38.09055,10.97908 57.1353,16.46804 19.04475,5.48896 15.78182,-14.55125 23.67222,-21.82747 7.89039,-7.2762 12.21356,15.16916 18.31984,22.75318 6.10626,7.584 -17.26065,9.25756 -25.89149,13.88576 -8.63082,4.6282 -10.73337,18.7421 -16.10057,28.11259 -5.3672,9.37047 -7.89039,14.2597 -11.8361,21.38896" />
    <path
       style="fill:none;stroke:#000000;stroke-width:0.264583px;stroke-linecap:butt;stroke-linejoin:miter;stroke-opacity:1"
       d="m 32.794583,258.01822 0.09122,1.08902"
       id="path1025"
       inkscape:path-effect="#path-effect1027"
       inkscape:original-d="m 32.794583,258.01822 c 0.03067,0.36327 0.06108,0.72628 0.09122,1.08902" />
    <path
       style="fill:none;stroke:#000000;stroke-width:0.264583px;stroke-linecap:butt;stroke-linejoin:miter;stroke-opacity:1"
       d="m 32.797435,250.75257 c 17.716955,12.05037 38.611301,19.38356 59.973183,21.04849 24.476262,1.90766 49.486102,-3.68081 70.822382,-15.82534"
       id="path1029"
       inkscape:path-effect="#path-effect1031"
       inkscape:original-d="M 32.797435,250.75257 C 52.788761,257.769 72.779823,264.78516 92.770618,271.80106 112.76141,278.81695 139.9858,261.2511 163.593,255.97572" />
    <text
       xml:space="preserve"
       style="font-size:7.05556px;line-height:1.25;font-family:sans-serif;stroke-width:0.264583"
       x="81.016396"
       y="192.81166"
       id="text3301"><tspan
         sodipodi:role="line"
         id="tspan3299"
         style="font-size:7.05556px;stroke-width:0.264583"
         x="81.016396"
         y="192.81166">$$\iint \kappa \dd S + \int_\alpha \kappa_g  \dd s = 2\pi$$</tspan></text>
  </g>
</svg>
