<?xml version="1.0" encoding="UTF-8" standalone="no"?>
<!-- Created with Inkscape (http://www.inkscape.org/) -->

<svg
   width="240mm"
   height="120mm"
   viewBox="0 0 240 120"
   version="1.1"
   id="svg8"
   inkscape:version="1.1.2 (0a00cf5339, 2022-02-04, custom)"
   sodipodi:docname="transport-parallèle-sur-une-shpère.svg"
   xmlns:inkscape="http://www.inkscape.org/namespaces/inkscape"
   xmlns:sodipodi="http://sodipodi.sourceforge.net/DTD/sodipodi-0.dtd"
   xmlns="http://www.w3.org/2000/svg"
   xmlns:svg="http://www.w3.org/2000/svg"
   xmlns:rdf="http://www.w3.org/1999/02/22-rdf-syntax-ns#"
   xmlns:cc="http://creativecommons.org/ns#"
   xmlns:dc="http://purl.org/dc/elements/1.1/">
  <defs
     id="defs2">
    <marker
       style="overflow:visible;"
       id="Arrow1Lend"
       refX="0.0"
       refY="0.0"
       orient="auto"
       inkscape:stockid="Arrow1Lend"
       inkscape:isstock="true">
      <path
         transform="scale(0.8) rotate(180) translate(12.5,0)"
         style="fill-rule:evenodd;fill:context-stroke;stroke:context-stroke;stroke-width:1.0pt;"
         d="M 0.0,0.0 L 5.0,-5.0 L -12.5,0.0 L 5.0,5.0 L 0.0,0.0 z "
         id="path1190" />
    </marker>
    <inkscape:path-effect
       effect="bspline"
       id="path-effect1093"
       is_visible="true"
       lpeversion="1"
       weight="33.333333"
       steps="2"
       helper_size="0"
       apply_no_weight="true"
       apply_with_weight="true"
       only_selected="false" />
    <inkscape:path-effect
       effect="bspline"
       id="path-effect1081"
       is_visible="true"
       lpeversion="1"
       weight="33.333333"
       steps="2"
       helper_size="0"
       apply_no_weight="true"
       apply_with_weight="true"
       only_selected="false" />
    <clipPath
       clipPathUnits="userSpaceOnUse"
       id="clipPath962">
      <path
         id="path964"
         style="fill:#ff0000;fill-opacity:1;fill-rule:nonzero;stroke:none;stroke-width:0.264583"
         d="m 48.039446,194.98185 v 43.03355 c 0.535366,0.0555 1.066273,0.16389 1.575612,0.32608 0.471604,0.15016 -0.139044,1.43182 0.435634,1.41955 0.03323,0.13125 0.06465,0.26315 0.09663,0.39481 0.09859,-0.0174 0.196255,-0.0275 0.292489,-0.0279 0.141049,-5.3e-4 0.278336,0.0184 0.40876,0.0625 0.535165,0.18109 0.984276,0.58206 1.377693,0.98753 0.383233,0.395 0.584076,1.53539 0.695566,1.9849 0.174202,0.77342 0.215654,1.554 0.110072,2.31303 0.136845,0.23243 0.265597,0.48787 0.371552,0.79324 0.434281,1.25159 0.91854,2.48662 1.581816,3.63492 0.01035,0.0191 0.02159,0.0378 0.03204,0.0568 0.06278,-0.0195 0.120576,-0.0416 0.185518,-0.0599 0.06337,-0.0179 0.192455,0.31731 0.283189,0.58187 0.01452,0.022 0.03079,0.0479 0.04134,0.061 0.189682,0.23585 0.377764,0.47302 0.56534,0.71055 0.550894,0.69761 1.140971,1.35301 1.740461,2.00918 1.293328,1.41696 2.789309,2.61187 4.209563,3.89072 0.754304,0.73814 1.592464,1.37669 2.336808,2.12493 0.186378,0.22628 0.184701,0.22514 0.224277,0.27337 0.647684,0.2719 1.27577,0.59948 1.887738,0.94258 0.631611,0.39512 1.247678,0.80749 1.821077,1.27899 0.135104,0.0298 0.265115,0.0614 0.216525,0.14832 -0.0048,0.009 -0.01016,0.0168 -0.01498,0.0253 0.07777,0.0673 0.158274,0.13096 0.234096,0.20102 0.0064,0.006 0.0127,0.0117 0.01913,0.0176 0.03115,0.0258 0.06145,0.0477 0.09302,0.0754 0.05087,0.0447 0.09641,0.0908 0.137459,0.13797 l 0.01707,-0.0202 c 0.09028,0.0926 0.146167,0.20089 0.174668,0.31988 0.08842,0.20071 0.109325,0.4145 0.07906,0.63148 0.144804,0.11083 0.291455,0.21896 0.434084,0.3328 0.76608,0.51527 1.446532,1.14179 2.179195,1.70377 0.661366,0.41354 1.342692,0.79019 1.997295,1.21595 0.435856,0.28538 0.849159,0.59942 1.253151,0.92759 0.512313,0.2122 1.039284,0.38523 1.581301,0.5085 0.861915,0.2212 1.785038,0.38073 2.565733,0.83509 0.200684,0.11679 0.387665,0.25642 0.581362,0.38447 0.503253,0.41444 1.05297,0.7557 1.56166,1.16944 0.02652,0.0244 0.05363,0.0482 0.07958,0.0734 0.17491,0.0527 0.349668,0.1057 0.524515,0.15864 0.413848,0.20272 0.841788,0.41145 1.290878,0.53537 0.261544,0.048 0.691666,0.26878 0.946195,0.24702 0.550656,0.0862 0.950915,0.48036 1.43764,0.69556 0.05977,0.0264 -0.100205,-0.0855 -0.159165,-0.11369 0.568997,0.17296 1.245626,0.22444 1.765268,0.54829 0.175739,-8e-4 0.838848,0.28013 1.107943,0.39894 0.366636,0.0616 0.733732,0.16716 1.08417,0.29352 -0.05094,-0.0193 -0.102021,-0.0386 -0.152961,-0.0579 -0.0081,-0.002 -0.03269,-0.009 -0.02429,-0.008 0.507357,0.0945 1.010182,0.20855 1.510504,0.33487 0.485547,-0.1266 1.207399,0.20999 1.658297,0.41186 0.08929,0.0148 0.173209,0.0487 0.257865,0.0796 -0.01344,-0.006 -0.01863,-0.0113 -0.0072,-0.0134 0.0064,-10e-4 0.304535,0.0109 0.342614,0.0124 0.829776,0.0702 1.643301,0.27491 2.452047,0.46612 0.697201,0.16747 1.405943,0.27514 2.108399,0.41806 0.852519,0.1233 1.691579,0.32489 2.528521,0.52555 0.98999,0.18692 1.93437,0.54427 2.85668,0.94516 0.18843,-0.007 0.4085,-0.0127 0.52555,-0.015 0.73185,-0.0343 1.44168,0.0364 2.14095,0.26665 -0.28216,-0.13589 0.91293,0.0228 0.95343,0.0279 0.50961,0.11287 1.00369,0.25904 1.52652,0.28732 0.77366,0.0136 1.53501,0.11344 2.2903,0.27647 0.48968,0.10107 0.97968,0.19869 1.4702,0.29559 0.14802,0.0292 0.64334,0.15733 0.84025,0.13333 0.81485,0.007 1.62028,0.1095 2.41743,0.27337 0.52994,0.0241 1.11887,0.3619 1.65674,0.20825 0.77761,-0.0622 1.55826,-0.0278 2.33733,-0.0248 0.55573,0.0378 1.09275,-0.0433 1.64124,-0.11214 0.96918,-0.16368 1.93572,-0.31006 2.91817,-0.35966 0.97503,-0.0356 1.93211,-0.22334 2.90163,-0.3297 0.92815,-0.0655 1.85157,0.0334 2.77968,0.0233 0.49254,-0.0932 1.00032,-0.0489 1.49241,-0.12144 0.91873,-0.0324 1.83391,-0.0957 2.75384,-0.0966 0.37691,-0.0644 0.77463,-0.005 1.14877,-0.062 0.0156,-0.002 -0.003,-0.0409 0.0119,-0.047 0.0804,-0.0333 0.16881,-0.0415 0.25321,-0.0625 0.30321,-0.20789 1.1172,-0.38277 1.69447,-0.42995 0.60255,-0.0676 1.20884,-0.11915 1.79628,-0.27492 0.65987,-0.45963 1.47148,-0.67852 2.23707,-0.89762 1.04422,-0.21643 2.10987,-0.26459 3.16415,-0.41651 0.81577,-0.0427 1.61062,-0.16931 2.40347,-0.35398 0.10045,-0.0597 0.18062,-0.0964 0.20412,-0.0723 0.0304,0.0311 -0.0797,0.0359 -0.11937,0.0537 -0.0282,0.007 -0.0565,0.012 -0.0847,0.0186 -0.56676,0.33663 -2.05172,1.73114 -1.1095,1.23662 0.90694,-0.476 1.51766,-0.81804 1.94976,-1.07797 0.1792,-0.27387 0.46621,-0.51465 0.72708,-0.49558 0.56769,-0.53158 -1.88642,0.3825 -0.7338,-0.0372 0.5693,-0.15946 1.14709,-0.23934 1.7079,-0.42168 0.51341,-0.1063 1.00865,-0.19872 1.49449,-0.38654 0.48099,-0.17394 0.9761,-0.3102 1.47794,-0.40876 -0.009,-0.041 0.93606,-0.26432 0.76688,-0.22221 -0.0353,0.0134 -0.0626,0.0179 -0.0971,0.0289 0.16965,-0.0358 0.40228,-0.0814 0.76429,-0.1447 0.0873,-0.0152 0.17712,0.002 0.26562,-0.002 0.0157,-7.9e-4 -0.0617,-0.005 -0.0465,-0.009 0.031,-0.009 0.0638,-0.007 0.0961,-0.009 0.003,-10e-4 0.007,-0.002 0.01,-0.004 -0.008,7.9e-4 -0.0156,7.9e-4 -0.0238,0.002 -0.005,5.3e-4 0.0144,-0.002 0.0305,-0.005 0.007,-0.003 0.0148,-0.006 0.0222,-0.009 0.41996,-0.11833 0.75942,-0.4106 1.14824,-0.58912 0.78093,-0.35852 1.04085,-0.44616 1.76682,-0.72088 0.92267,-0.48962 1.71791,-1.15915 2.61431,-1.70119 1.79556,-0.87591 3.6863,-1.54012 5.54127,-2.27841 1.76297,-0.65303 3.58952,-1.10669 5.39502,-1.62264 0.90401,-0.30951 1.78418,-0.67662 2.63756,-1.10484 0.51937,-0.28623 1.03803,-0.57369 1.55856,-0.85783 0.18748,-0.10234 0.40734,-0.21128 0.6165,-0.33177 0.1707,-0.21213 0.55159,-0.6251 0.54416,-0.65267 0.0664,-0.15604 0.13474,-0.27289 0.20722,-0.39739 -0.0138,0.0202 -0.027,0.0408 -0.0408,0.061 -0.0498,0.0728 0.272,-0.4884 0.123,-0.21859 -0.0364,0.0659 -0.0534,0.10823 -0.0822,0.15761 0.1692,-0.24879 0.33451,-0.50026 0.50178,-0.75034 0.6074,-0.84121 1.40022,-1.47833 2.25877,-2.04742 0.49199,-0.19691 0.75271,-0.57385 1.09865,-0.94361 0.22706,-0.24272 0.45901,-0.48081 0.68832,-0.72141 0.77503,-0.90733 1.76088,-1.60864 2.53525,-2.50992 0.8249,-0.81386 1.34648,-1.8783 2.096,-2.75074 0.25706,-0.29922 0.53533,-0.57947 0.80305,-0.86919 0.82623,-0.9147 1.97512,-1.42726 2.88768,-2.23243 0.0828,-0.0747 0.17425,-0.14066 0.24804,-0.22427 0.009,-0.029 0.0174,-0.0578 0.0264,-0.0868 -0.007,5e-5 -0.0252,0.006 -0.0212,0 0.12406,-0.179 0.25465,-0.35328 0.38654,-0.52658 0.28694,-0.37703 0.34548,-0.40871 0.72864,-0.80512 0.10354,-0.0937 0.21327,-0.18095 0.31057,-0.28112 0.18195,-0.18742 0.29645,-0.44978 0.49403,-0.6258 0.0328,-0.0293 0.0671,-0.0568 0.10025,-0.0858 0.01,-0.0151 0.0172,-0.0265 0.0269,-0.0413 0.002,-0.004 0.004,-0.0102 0.006,-0.0145 -5.3e-4,0.003 -8e-4,0.004 -0.002,0.007 0.0365,-0.0559 0.0649,-0.0973 0.0475,-0.0589 -0.012,0.0266 -0.0287,0.0505 -0.0429,0.076 0.0135,-0.0118 0.0272,-0.0234 0.0408,-0.0351 0.0156,-0.0193 0.0319,-0.0381 0.0475,-0.0574 0.0186,-0.40039 0.19699,-0.7778 0.23565,-1.17254 7.9e-4,-0.009 0.001,-0.0108 0.002,-0.0181 -0.005,-0.0719 0.005,-0.17943 0.0196,-0.29352 -0.001,0.016 0.002,0.0369 0.009,0.061 0.003,-0.0251 0.003,-0.0304 0.01,-0.0811 -0.008,0.002 -0.0155,0.005 -0.0176,0.0129 0.0119,-0.0944 0.0288,-0.20733 0.0491,-0.33435 -2.6e-4,-0.0698 -5.3e-4,-0.20795 0.006,-0.25528 1e-5,-0.001 0,-0.003 0,-0.004 0.004,-0.0687 -0.058,-0.20717 0.0109,-0.20619 0.0121,1.8e-4 0.0189,7.9e-4 0.031,0.001 0.0161,-0.0759 0.0197,-0.0988 0.0532,-0.2682 -0.01,0.0896 -0.0197,0.17914 -0.0294,0.26871 0.0282,5.3e-4 0.0449,0.002 0.0729,0.002 0.0155,-0.15946 0.0439,-0.32257 0.0615,-0.4656 -0.023,-0.005 -0.043,-0.009 -0.0661,-0.0139 -0.0737,-0.0165 -0.01,-0.11231 0.047,-0.2005 -0.009,0.0346 -0.006,0.0658 0.005,0.0899 0.0104,-0.009 0.0211,-0.0175 0.0315,-0.0264 0.004,-0.0485 0.008,-0.0967 0.0145,-0.14624 -2.7e-4,2.5e-4 -8e-4,2.6e-4 -0.001,5.3e-4 2.6e-4,-5.3e-4 7.9e-4,-0.002 0.001,-0.003 0.0279,-0.22857 0.0828,-0.45868 0.23978,-0.60875 -0.0189,-0.0158 -0.0386,-0.0306 -0.0574,-0.0465 -0.12938,-0.10947 0.18226,-0.28604 0.27337,-0.42892 0.0857,0.0139 0.17267,0.0237 0.25889,0.0357 0.0336,-0.0311 0.0562,-0.0518 0.0909,-0.0837 -0.0607,-0.0594 -0.12237,-0.11774 -0.18293,-0.17725 -0.0112,-0.011 0.0173,-0.0379 0.032,-0.0341 -0.009,0.008 -0.0146,0.0195 -0.009,0.0253 0.0946,0.0954 0.0819,0.0822 0.17259,0.17364 0.01,-0.009 0.0152,-0.014 0.0248,-0.0227 -0.0114,-0.0173 -0.008,-0.0112 -0.0191,-0.0279 -0.0551,-0.0498 -0.10978,-0.10004 -0.16485,-0.14986 0.008,-0.006 0.0167,-0.0113 0.0222,-0.007 0.0221,0.0162 0.0451,0.0314 0.0672,0.0475 -0.29716,-0.42765 -0.26489,-0.41483 0.1726,0.0522 0.003,-0.006 0.006,-0.0115 0.009,-0.0171 0.079,-0.13626 0.20429,-0.2173 0.34985,-0.27441 0.40819,-0.34939 0.80442,-0.65357 0.99012,-0.63613 0.0836,0.008 0.12478,0.078 0.10594,0.23358 -0.0445,0.36739 -0.29113,0.70126 -0.60978,1.01647 0.56019,0.051 1.12189,0.0969 1.67328,0.17983 0.16826,-0.0967 0.34318,-0.181 0.51625,-0.26871 v -47.66892 z m 145.255724,47.75781 c -0.14388,-0.0131 -0.28702,-0.0287 -0.43046,-0.0434 -0.0188,0.0154 -0.0375,0.0311 -0.0563,0.0465 0.0902,0.0643 0.18028,0.12879 0.27079,0.19275 0.0731,-0.0651 0.14857,-0.12915 0.216,-0.19585 z m -0.216,0.19585 c -0.0241,0.0215 -0.0468,0.0433 -0.0713,0.0646 0.10082,0.10492 0.25025,0.25684 0.36897,0.3793 0.15734,0.0846 0.31207,0.17397 0.46766,0.262 0.0379,-0.0266 0.0757,-0.0532 0.11369,-0.0796 -0.29362,-0.20814 -0.58512,-0.41863 -0.87901,-0.62632 z m -0.0713,0.0646 c -0.0868,-0.0903 -0.1526,-0.15675 -0.22687,-0.23462 -0.0112,0.009 -0.0224,0.0182 -0.0336,0.0274 0.10819,0.11204 0.12575,0.12938 0.22892,0.23616 0.011,-0.009 0.0206,-0.0195 0.0315,-0.0289 z m -0.26045,-0.20723 c -0.0553,-0.0573 -0.0602,-0.0623 -0.11679,-0.12092 -2.7e-4,-4e-5 -8e-4,4e-5 -0.001,0 0.0365,0.0377 0.0793,0.0821 0.1173,0.12144 0,0 5.3e-4,-5.3e-4 5.3e-4,-5.3e-4 z m -5.3e-4,5.3e-4 c -0.008,0.006 -0.0152,0.0124 -0.0227,0.0186 0.0819,0.0742 0.1636,0.14852 0.24546,0.22273 0.002,-0.002 0.004,-0.003 0.006,-0.005 -0.079,-0.0816 -0.15443,-0.15971 -0.22841,-0.23616 z m -0.0227,0.0186 c -0.0538,-0.0487 -0.10693,-0.0981 -0.16071,-0.14676 0,0 -5.3e-4,0 -5.3e-4,0 -0.0294,-0.003 -0.0585,-0.009 -0.0879,-0.0124 0.10128,0.10208 0.10271,0.10301 0.19896,0.19999 0.0167,-0.0137 0.0335,-0.0272 0.0501,-0.0408 z m -0.24908,-0.15916 c -0.0142,-0.0143 -0.0137,-0.0135 -0.0279,-0.0279 0.005,0.008 0.0108,0.0182 0.016,0.0263 0.004,5.3e-4 0.008,0.001 0.0119,0.002 z m -0.0119,-0.002 c -0.004,-5.3e-4 -0.009,-0.001 -0.0129,-0.002 0.009,0.009 0.019,0.0182 0.0284,0.0274 -0.005,-0.008 -0.0104,-0.0179 -0.0155,-0.0258 z m 0.0155,0.0258 c 0.0449,0.0705 0.0902,0.14778 0.13643,0.22479 0.0172,-0.0141 0.034,-0.0288 0.0512,-0.0429 -0.0624,-0.0608 -0.12528,-0.12105 -0.18759,-0.1819 z m 0.13643,0.22479 c -0.0239,0.0196 -0.0474,0.0398 -0.0713,0.0594 0.0509,0.0245 0.10179,0.049 0.15245,0.0739 -0.0275,-0.0477 -0.0537,-0.0876 -0.0811,-0.13333 z m -0.0713,0.0594 c -0.0975,-0.0469 -0.19315,-0.0975 -0.29145,-0.14262 -0.0687,0.15943 -0.12623,0.32379 -0.17725,0.49092 0.009,0.007 0.0168,0.0139 0.0253,0.0207 0.14794,-0.12281 0.2948,-0.24693 0.44338,-0.36898 z m -0.44338,0.36897 c -0.0142,0.0118 -0.0282,0.0239 -0.0424,0.0357 -0.0376,0.12811 -0.0717,0.25737 -0.10077,0.38861 0.0402,0.01 0.0803,0.02 0.12041,0.03 0.0945,-0.0824 0.18403,-0.16501 0.28681,-0.24857 -0.0887,-0.0678 -0.17667,-0.13627 -0.26407,-0.20567 z m -0.0227,0.45424 c -0.0524,0.0457 -0.10966,0.092 -0.15813,0.13746 -0.009,0.0438 -0.0118,0.0888 -0.0196,0.13281 0.3816,0.0816 0.74091,0.15438 1.07849,0.21859 0.0185,-0.0139 0.0372,-0.0275 0.0558,-0.0413 -0.007,-0.0122 -0.0141,-0.0245 -0.0212,-0.0367 0.0249,-0.0393 0.0706,-0.0768 0.1049,-0.11524 -0.0204,-0.0143 -0.0411,-0.028 -0.0615,-0.0424 -0.32505,-0.0892 -0.65166,-0.17204 -0.97875,-0.25321 z m 0.90072,0.48886 c -0.0481,0.0359 -0.0967,0.071 -0.14469,0.10697 0.0985,0.0334 0.19704,0.0665 0.29559,0.0997 0.0152,5.3e-4 0.0351,0.001 0.0501,0.002 -0.037,-0.0635 -0.0736,-0.12716 -0.11059,-0.19069 -0.0297,-0.006 -0.0604,-0.0119 -0.0904,-0.0176 z m 0.1509,0.2067 c -0.12561,-0.004 -0.28125,-0.007 -0.41496,-0.0114 -0.0264,0.0198 -0.0532,0.0391 -0.0796,0.0589 0.10162,0.0576 0.20447,0.11302 0.30644,0.17001 0.10072,-0.0358 0.2016,-0.0712 0.30231,-0.10697 -0.0175,-0.03 -0.0352,-0.0599 -0.0527,-0.0899 -0.0205,-0.007 -0.041,-0.0138 -0.0615,-0.0207 z m 0.1142,0.11059 c 0.0324,0.0557 0.0648,0.11125 0.0972,0.16692 0.0953,-0.0366 0.19054,-0.0733 0.28578,-0.11008 -0.0932,-0.031 -0.18599,-0.0628 -0.27906,-0.094 -0.0346,0.0123 -0.0692,0.0249 -0.10387,0.0372 z m 0.38293,0.0568 c 0.097,0.0323 0.19378,0.0653 0.29093,0.0972 0.0541,-0.004 0.10729,-0.008 0.15917,-0.0119 -0.083,-0.0544 -0.16696,-0.1074 -0.2496,-0.16227 -0.0668,0.0259 -0.13371,0.0512 -0.2005,0.077 z m 0.29093,0.0972 c -0.17606,0.0128 -0.36523,0.0235 -0.56534,0.0326 0.0171,0.0293 0.0341,0.0585 0.0512,0.0879 0.29164,0.006 0.5523,0.0138 0.90072,0.016 -0.0138,-0.009 -0.0276,-0.0179 -0.0413,-0.0269 -0.11492,-0.037 -0.23047,-0.0719 -0.3452,-0.10955 z m -0.51418,0.1204 c -0.054,-0.001 -0.11333,-0.002 -0.16536,-0.003 0.0611,0.0336 0.12171,0.068 0.18293,0.10128 0.008,-0.009 0.0154,-0.0186 0.0233,-0.0279 -0.0136,-0.0234 -0.0272,-0.0469 -0.0408,-0.0703 z m -0.16536,-0.003 c -0.0231,-0.0127 -0.0462,-0.0255 -0.0693,-0.0382 -0.0305,0.0116 -0.0609,0.0235 -0.0915,0.0351 0.0487,0.001 0.11014,0.002 0.16072,0.003 z m -0.0693,-0.0382 c 0.0376,-0.0144 0.0751,-0.029 0.11266,-0.0434 -0.0595,0.002 -0.11454,0.006 -0.17622,0.008 0.0212,0.0118 0.0423,0.0239 0.0636,0.0357 z m -0.0636,-0.0357 c -0.0546,-0.0302 -0.10937,-0.06 -0.16382,-0.0904 -0.0928,0.033 -0.18571,0.0658 -0.27853,0.0987 0.15094,-0.002 0.30276,-0.004 0.44235,-0.008 z m -0.47026,-0.26045 c -0.038,-0.0215 -0.0763,-0.0425 -0.1142,-0.0641 -0.2247,-0.006 -0.43122,-0.0131 -0.678,-0.0181 -0.0153,0.11543 -0.0352,0.22951 -0.047,0.3452 0.15692,0.004 0.31924,0.009 0.46612,0.01 0.12395,-0.0917 0.24952,-0.18029 0.3731,-0.27285 z m -0.7922,-0.0822 c 0.0153,-0.11527 0.031,-0.23035 0.0507,-0.34469 -0.0325,-0.0189 -0.0652,-0.0374 -0.0977,-0.0563 -0.12664,0.1304 -0.22968,0.2605 -0.30076,0.39171 0.13247,0.002 0.2212,0.007 0.34778,0.009 z m -0.34778,-0.009 c -0.0226,-2.6e-4 -0.0366,-0.001 -0.0594,-0.002 -0.005,0.05 -0.01,0.0988 -0.009,0.14573 0.0164,-0.0483 0.0427,-0.0962 0.0687,-0.14418 z m 0.40515,-0.38137 c -0.0279,-0.006 -0.0551,-0.0115 -0.0832,-0.0176 0.0272,0.009 0.0545,0.0182 0.0816,0.0274 5.2e-4,-0.003 0.001,-0.007 0.002,-0.01 z m -0.0832,-0.0176 c -0.004,-0.001 -0.007,-0.002 -0.0109,-0.004 -2.7e-4,2.6e-4 -8e-4,7.9e-4 -0.001,10e-4 0.004,7.9e-4 0.008,0.002 0.0119,0.003 z m -0.0109,-0.004 c 0.0363,-0.0371 0.0741,-0.0745 0.11368,-0.11162 0.0111,-0.0564 0.0253,-0.11152 0.0377,-0.16744 -0.0941,-0.023 -0.18737,-0.0487 -0.28164,-0.0708 -0.0535,0.0451 -0.10792,0.089 -0.16123,0.13436 -0.002,0.02 -0.004,0.0408 -0.006,0.0605 0.0754,0.044 0.15141,0.0873 0.22686,0.13126 0.0234,0.008 0.0469,0.0158 0.0703,0.0238 z m -0.0703,-0.0238 c -0.0777,-0.0262 -0.15536,-0.0525 -0.23306,-0.0786 -0.001,0.0116 -0.004,0.0257 -0.006,0.0377 0.0927,0.0206 0.17572,0.0373 0.26613,0.0568 -0.009,-0.005 -0.0183,-0.0107 -0.0274,-0.016 z m -0.06,-0.32608 c 0.12669,-0.10686 0.25495,-0.21186 0.38241,-0.31781 0.006,-0.0188 0.0113,-0.0376 0.0171,-0.0563 -0.0846,-0.0675 -0.16886,-0.13547 -0.25218,-0.20464 -0.008,0.0137 -0.0151,0.0317 -0.0238,0.0429 -0.0896,0.17323 -0.18767,0.34245 -0.26872,0.51986 -2.6e-4,5.3e-4 -10e-4,0.002 -0.002,0.002 -8e-5,7.9e-4 8e-5,0.001 0,0.002 0.0119,-0.009 0.0237,-0.0186 0.0372,-0.0155 0.0367,0.008 0.0729,0.0188 0.10955,0.0274 z m 0.14728,-0.57878 c 0.0305,-0.0519 0.0591,-0.11222 0.0868,-0.17518 -0.0389,0.036 -0.0983,0.091 -0.13177,0.12144 -0.003,0.003 -0.006,0.007 -0.009,0.01 0.0179,0.0149 0.0363,0.0291 0.0543,0.0439 z m 0.42943,-0.28628 c 0.0269,-0.0625 0.0568,-0.12344 0.0868,-0.18449 -0.0319,-0.004 -0.0638,-0.008 -0.0956,-0.0129 -0.0508,0.047 -0.0902,0.0827 -0.13746,0.12661 10e-4,2.6e-4 0.002,1e-4 0.003,5.3e-4 0.0487,0.0218 0.0952,0.0481 0.14366,0.0703 z m 0.19792,-0.40153 c -0.006,0.01 -0.01,0.0205 -0.0155,0.0305 0.008,-0.007 0.0166,-0.0138 0.0248,-0.0212 -0.003,-0.004 -0.006,-0.006 -0.009,-0.009 z m -0.0155,0.0305 c -0.004,0.004 -0.008,0.007 -0.0119,0.0104 -0.002,0.002 -0.005,0.004 -0.007,0.006 0.003,0.002 0.005,0.004 0.008,0.006 0.001,-0.002 0.002,-0.005 0.003,-0.007 0,0 0,-5.3e-4 0,-5.3e-4 0.003,-0.005 0.005,-0.01 0.008,-0.0145 z m -0.0186,0.016 c -0.0459,-0.0333 -0.0928,-0.0653 -0.1385,-0.0987 0.0389,0.056 0.0315,0.0438 0.0754,0.10955 0.008,0.008 0.0165,0.0152 0.0248,0.0227 0.0129,-0.0118 0.0252,-0.0217 0.0382,-0.0336 z m -0.0382,0.0336 c -0.002,0.002 -0.004,0.003 -0.006,0.005 0.006,0.01 0.0126,0.0206 0.0191,0.0305 0.003,-0.005 0.005,-0.0107 0.008,-0.016 -0.007,-0.007 -0.0145,-0.0131 -0.0217,-0.0196 z m -0.0305,0.0279 c -0.005,0.005 -0.008,0.008 -0.0129,0.0124 0.012,0.0118 0.0242,0.0234 0.0362,0.0351 0.003,-0.005 0.005,-0.0107 0.008,-0.016 -0.0164,-0.0165 -0.015,-0.0149 -0.0315,-0.0315 z m -0.98496,1.90738 c -0.009,-1.4e-4 -0.0145,-2.6e-4 -0.0238,-5.3e-4 -0.0126,0.0593 -0.0368,0.17038 -0.0419,0.20929 -2.6e-4,0.0779 -0.001,0.15579 -0.003,0.23358 0.006,-0.037 0.008,-0.0558 0.0139,-0.0956 6e-5,-5.3e-4 -7e-5,-5.3e-4 0,-0.001 0.006,2.6e-4 0.011,2.6e-4 0.0171,5.3e-4 0.0126,-0.1154 0.0246,-0.23084 0.0372,-0.34624 z m -0.0682,0.44235 c -0.001,0.008 -0.002,0.0135 -0.003,0.0217 2.7e-4,0.054 -0.002,0.0994 -5.3e-4,0.1974 2.7e-4,-0.003 8e-4,-0.006 0.001,-0.009 1.2e-4,-0.0701 0.001,-0.14029 0.003,-0.21033 z m -37.62976,27.69808 c -0.002,10e-4 -0.004,0.002 -0.007,0.003 0.007,-7.9e-4 0.0136,-0.001 0.0207,-0.002 0.007,-0.003 0.001,-0.003 -0.0139,-10e-4 z m -5.71231,1.6185 c -0.10983,0.10285 -0.34157,0.26367 -0.72709,0.49558 -0.26989,0.41245 -0.29267,0.89718 0.40669,0.67696 0.003,-7.9e-4 0.005,-0.002 0.008,-0.003 0.0526,-0.18502 0.21486,-0.22428 0.43873,-0.16537 0.1163,-0.0484 0.23193,-0.0982 0.34985,-0.14211 0.0182,-0.0102 0.037,-0.0193 0.0553,-0.0294 -0.0903,-0.59072 -0.29956,-0.81554 -0.53175,-0.83251 z m -78.762534,-11.5114 c -0.0457,-0.10372 -0.108685,-0.20426 -0.19172,-0.29972 l -0.381373,0.45217 c 0.179854,0.12692 0.358159,0.25593 0.533818,0.38861 0.05686,-0.19349 0.07828,-0.37822 0.03928,-0.54106 z m -21.15013,-24.3706 v 0.0109 c 0.491215,0.24574 0.982475,0.49144 1.430404,0.80408 -0.436351,-0.33226 -0.932932,-0.57417 -1.430404,-0.81494 z m 147.445264,5.61826 c -0.22317,0.087 -0.44666,0.17321 -0.66973,0.26045 0.0587,0.0435 0.11737,0.0869 0.1757,0.13074 0.0579,0.0358 0.11642,0.0704 0.17415,0.10645 0.10587,-0.0741 0.2136,-0.14432 0.31988,-0.21755 z m -0.49403,0.39119 c -0.0663,-0.041 -0.13296,-0.0813 -0.19947,-0.12196 -0.12861,0.0503 -0.25739,0.10016 -0.38602,0.15038 0.0378,0.0349 0.0749,0.0705 0.11265,0.10542 0.12965,0.038 0.2595,0.0751 0.38912,0.11317 0.0148,0.001 0.0366,0.002 0.0512,0.003 0.0634,-0.0442 0.12686,-0.088 0.19017,-0.13229 -0.0521,-0.0398 -0.1052,-0.0784 -0.15761,-0.11782 z m -0.0837,0.24701 c -0.0827,-0.006 -0.19517,-0.011 -0.28577,-0.0165 2.7e-4,2.6e-4 8e-4,7.9e-4 0.001,0.001 0.0884,0.0128 0.21219,0.0359 0.29404,0.047 0.01,-0.007 0.0197,-0.0133 0.0294,-0.0202 -0.0129,-0.004 -0.0258,-0.008 -0.0387,-0.0114 z m 0.009,0.0315 c -0.0307,0.0214 -0.0613,0.0427 -0.092,0.0641 0.0981,-0.0108 0.21584,-0.0217 0.30283,-0.0315 -0.0155,-0.005 -0.031,-0.009 -0.0465,-0.0139 -0.0647,-0.008 -0.0948,-0.009 -0.16433,-0.0186 z m -0.092,0.0641 c -0.0245,0.003 -0.0503,0.005 -0.0754,0.008 0.009,0.008 0.0183,0.0168 0.0274,0.0253 0.016,-0.0111 0.0321,-0.022 0.0481,-0.0331 z m -0.0754,0.008 c -0.0424,-0.0394 -0.0841,-0.0795 -0.1266,-0.11886 -0.003,-5.3e-4 -0.007,-0.001 -0.009,-0.002 -0.0294,-0.002 -0.0623,-0.003 -0.0925,-0.005 0.0403,0.0407 0.0934,0.0936 0.13488,0.1354 0.0323,-0.003 0.0623,-0.006 0.0935,-0.01 z m -0.22841,-0.12558 c -0.003,-0.003 -0.008,-0.008 -0.0114,-0.0114 -0.028,-0.004 -0.0623,-0.0101 -0.0909,-0.0145 0.007,0.007 0.0141,0.0144 0.0207,0.0212 0.0273,0.002 0.055,0.003 0.0816,0.005 z m -0.0114,-0.0114 c 0.032,0.005 0.0726,0.012 0.10387,0.0165 0.003,1.6e-4 0.006,2.7e-4 0.008,5.3e-4 -0.0346,-0.032 -0.0687,-0.0646 -0.10335,-0.0966 -0.0415,-0.0122 -0.083,-0.024 -0.12454,-0.0362 0.0336,0.034 0.0813,0.081 0.11575,0.11576 z m 0.28215,-0.33538 c 0.008,-0.003 0.0159,-0.006 0.0238,-0.009 -0.0449,-0.0333 -0.0893,-0.0672 -0.13436,-0.10025 -0.0146,0.005 -0.0293,0.01 -0.0439,0.015 0.0516,0.0312 0.10305,0.0626 0.15451,0.0941 z m -0.52917,0.20619 c -0.0108,0.004 -0.0217,0.008 -0.0326,0.0124 0.0259,0.0259 0.0607,0.0606 0.0858,0.0858 0.019,0.003 0.0402,0.007 0.0589,0.01 -0.0375,-0.0359 -0.0747,-0.0721 -0.11214,-0.108 z m 0.11214,0.108 c 0.009,0.009 0.0183,0.0171 0.0274,0.0258 0.0112,5.3e-4 0.022,0.001 0.0331,0.002 -0.008,-0.008 -0.0133,-0.0135 -0.0212,-0.0217 -0.0124,-0.002 -0.0268,-0.004 -0.0393,-0.006 z m 0.0274,0.0258 c -0.0184,-0.001 -0.0356,-0.002 -0.0543,-0.003 0.0464,0.0465 0.11652,0.11696 0.1602,0.16072 0.0192,-0.002 0.0339,-0.004 0.0527,-0.006 -0.0529,-0.0506 -0.10578,-0.10127 -0.15865,-0.15193 z m -0.0543,-0.003 c -0.009,-0.009 -0.0226,-0.0231 -0.032,-0.0326 -0.07,-0.0108 -0.14361,-0.0228 -0.21704,-0.0346 -0.04,0.0156 -0.0799,0.031 -0.11989,0.0465 0.14044,0.007 0.24209,0.0136 0.36897,0.0207 z m -0.69918,-0.0858 c -0.041,0.0145 -0.082,0.0289 -0.12299,0.0434 0.0634,0.003 0.13473,0.004 0.19585,0.007 -0.0245,-0.0164 -0.0484,-0.0337 -0.0729,-0.0501 z m -0.74828,0.47904 c -0.22319,0.0845 -0.44737,0.16595 -0.67127,0.24856 0.17083,0.0509 0.34351,0.097 0.51779,0.13643 0.30594,0.0233 0.6121,0.048 0.91778,0.0749 0.0304,-0.004 0.0598,-0.009 0.0909,-0.0129 0.0673,-0.0421 0.13469,-0.0841 0.20154,-0.12712 -0.13113,-0.0686 -0.26345,-0.13446 -0.39378,-0.20464 -0.0578,0.0687 -0.11533,0.13748 -0.17311,0.20619 -0.10176,0.12096 -0.22374,0.0181 -0.12196,-0.10284 0.0456,-0.0541 0.0909,-0.10816 0.13642,-0.16226 -0.18049,-0.0205 -0.34885,-0.0396 -0.50436,-0.0563 z m 0.66301,0.11524 c 0.003,-0.003 0.005,-0.006 0.008,-0.009 0.19224,0.0209 0.38449,0.0643 0.57671,0.0884 0.0223,-0.0147 0.0449,-0.0291 0.0672,-0.0439 -0.2821,-0.0343 -0.5063,-0.0601 -0.74517,-0.0873 0.0313,0.017 0.0622,0.0348 0.0935,0.0517 z m 0.58446,0.0796 c -0.0635,0.0418 -0.12682,0.0839 -0.19068,0.12506 0.0525,0.0275 0.10547,0.054 0.15813,0.0811 0.23314,-0.0281 0.48591,-0.0538 0.75602,-0.0775 -0.0564,-0.0363 -0.11206,-0.0737 -0.16846,-0.11007 -0.0591,-0.007 -0.13062,-0.0172 -0.1881,-0.0243 -0.006,0.005 -0.0101,0.0167 -0.0186,0.0176 -0.11614,0.0115 -0.23229,0.003 -0.3483,-0.0119 z m 0.72347,0.12867 c 0.0259,0.0167 0.0516,0.0335 0.0775,0.0501 0.0161,-0.02 0.0307,-0.0406 0.047,-0.0605 -0.041,0.003 -0.0844,0.007 -0.12454,0.0103 z m 0.0775,0.0501 c -0.0526,0.0654 -0.10614,0.13036 -0.15503,0.19689 0.18075,0.0179 0.36141,0.0361 0.54208,0.0548 -0.1292,-0.0836 -0.25762,-0.16836 -0.38705,-0.25167 z m 0.38705,0.25167 c 0.0128,0.008 0.0255,0.0166 0.0382,0.0248 -0.008,-0.008 -0.0167,-0.0162 -0.0248,-0.0238 -0.004,-5.3e-4 -0.009,-5.3e-4 -0.0134,-0.001 z m 0.0382,0.0248 c 0.0364,0.034 0.0737,0.0695 0.11111,0.1049 v -0.006 c -0.0283,-0.0286 -0.0608,-0.0613 -0.0744,-0.0749 -0.0122,-0.008 -0.0244,-0.0159 -0.0367,-0.0238 z m 0.0367,0.0238 c 0.0248,0.0161 0.0496,0.0324 0.0744,0.0486 v -0.0248 c -0.0224,-0.023 -0.0441,-0.0455 -0.0615,-0.0636 -0.0196,-0.002 -0.0393,-0.004 -0.0589,-0.006 0.009,0.009 0.0376,0.0371 0.046,0.0455 z m -1.29552,-0.27285 c -0.12554,0.0151 -0.2443,0.0301 -0.35967,0.046 -0.01,0.006 -0.0197,0.012 -0.0295,0.0181 0.21189,0.0188 0.42334,0.0418 0.63511,0.062 -0.0822,-0.0415 -0.16409,-0.0838 -0.24598,-0.12609 z m -1.3684,-0.016 c -0.24946,-0.019 -0.49914,-0.035 -0.74879,-0.0512 -0.0826,0.0301 -0.16481,0.0611 -0.24753,0.0909 -0.002,0.0228 -0.004,0.046 -0.006,0.0687 0.358,0.0404 0.71621,0.0779 1.07539,0.10697 0.17416,-0.0324 0.32532,-0.0633 0.53744,-0.0966 -0.20524,-0.0344 -0.40895,-0.0732 -0.61082,-0.11885 z m 0.0734,0.21549 c -0.42388,0.0789 -0.77436,0.15087 -1.00717,0.19327 -0.0149,0.0179 -0.0296,0.0359 -0.0444,0.0538 0.0755,0.24461 0.2635,0.49665 0.44958,0.41806 0.41863,-0.1768 0.81936,-0.38902 1.21026,-0.6196 -0.20284,-0.0141 -0.40563,-0.0291 -0.60823,-0.0455 z m 0.60823,0.0455 c 0.41866,0.0291 0.83719,0.0596 1.25626,0.0847 0.006,-0.009 0.0112,-0.0191 0.0176,-0.0284 -0.0126,-0.006 -0.0247,-0.013 -0.0372,-0.0191 -0.35589,-0.0437 -0.7116,-0.0881 -1.06454,-0.1416 -0.0573,0.0349 -0.11433,0.0703 -0.17208,0.10439 z m 1.27383,0.0563 c 0.0249,0.0121 0.0505,0.0226 0.0755,0.0346 0.19198,0.0115 0.38375,0.0251 0.57567,0.0372 -0.21369,-0.0298 -0.42764,-0.0588 -0.64234,-0.0853 -0.003,0.004 -0.006,0.009 -0.009,0.0134 z m 0.65112,0.0718 c 0.0439,0.006 0.0879,0.012 0.13178,0.0181 v -0.01 c -0.0439,-0.003 -0.0879,-0.006 -0.13178,-0.008 z m -3.58479,0.0734 c -0.005,-0.0158 -0.003,-0.0288 -0.007,-0.0445 -0.0223,0.004 -0.0388,0.006 -0.0594,0.009 -0.28789,0.24357 -0.51156,0.5792 -0.64441,0.89452 0.23537,-0.28747 0.47253,-0.57356 0.71055,-0.85887 z m -0.007,-0.0445 c 0.0149,-0.003 0.0355,-0.006 0.0512,-0.009 0.0434,-0.0521 0.0865,-0.10437 0.1297,-0.15658 -0.0642,0.0373 -0.12636,0.081 -0.18655,0.12816 0.003,0.013 0.002,0.0244 0.006,0.0377 z m -0.49403,-0.51572 c -0.003,0.0422 -0.001,0.0646 0,0.0935 0.003,-0.0308 0.007,-0.0617 0.0103,-0.0925 -0.003,-1.8e-4 -0.007,-8e-4 -0.0103,-0.001 z m 4.07262,0.008 c 0.0481,0.0452 0.0964,0.0904 0.14469,0.13539 v -0.11679 c -0.0474,-0.006 -0.0948,-0.0121 -0.14469,-0.0186 z m 0.0894,0.339 c 0.0134,0.0138 0.0344,0.0357 0.0553,0.0574 v -0.0434 c -0.003,-0.003 -0.007,-0.006 -0.01,-0.009 -0.0152,-0.002 -0.0303,-0.003 -0.0455,-0.005 z m -147.389967,0.25218 v 35.24746 h 53.469607 c -0.01,-0.005 -0.0199,-0.006 -0.0295,-0.0109 -0.79263,-0.36384 -1.590105,-0.72424 -2.455663,-0.87023 -0.782881,-0.1877 -1.559857,-0.39706 -2.350244,-0.55139 -0.751797,-0.15333 -1.50954,-0.27615 -2.254641,-0.46044 -0.51026,-0.12071 -1.019392,-0.24757 -1.531173,-0.36121 -0.828231,-0.0341 -1.639049,-0.16961 -2.39572,-0.52711 -0.182475,-0.0896 0.106762,-0.006 0.154511,-0.0408 -1.466622,-0.19663 1.1191,0.24143 -0.983919,-0.13281 -0.619636,-0.15774 -1.250368,-0.27388 -1.860868,-0.46457 -0.444269,-0.12035 -0.897173,-0.2126 -1.32085,-0.40101 -0.45952,-0.2153 -0.897448,-0.3316 -1.307931,-0.5581 -0.223083,-0.0668 -0.45839,-0.0931 -0.680061,-0.16485 -0.488839,-0.13146 -0.952624,-0.28648 -1.387512,-0.55552 -0.147119,-0.091 -0.621382,-0.27527 -0.449069,-0.25993 0.03259,0.003 0.0629,0.0167 0.09457,0.0243 -0.322548,-0.10419 -0.646031,-0.20637 -0.962216,-0.32918 -0.461412,-0.18356 -0.917498,-0.375 -1.366842,-0.58498 -0.718215,-0.13679 -1.389089,-0.51781 -1.912028,-1.01803 -0.35946,-0.37511 -0.921395,-0.65616 -1.333251,-0.98288 -0.01341,-0.0106 0.03073,0.0156 0.04599,0.0233 0.102087,-0.0126 -0.168556,-0.12402 -0.266131,-0.15657 -0.06304,-0.021 -0.929389,-0.25231 -0.968418,-0.262 -0.09307,-0.0231 -0.187349,-0.0399 -0.281119,-0.06 -0.62511,-0.14563 -1.237467,-0.33579 -1.837098,-0.56069 -0.09686,-0.005 -0.204536,-0.009 -0.271301,-0.0176 -0.635667,-0.084 -1.126418,-0.42636 -1.637625,-0.74775 -0.09693,-0.0729 -0.197115,-0.14011 -0.296106,-0.20929 -0.995183,-0.45443 -1.995437,-0.90058 -2.934705,-1.46038 -0.28262,-0.17245 -0.564518,-0.34998 -0.846977,-0.52607 -0.0789,-0.036 -0.157916,-0.0718 -0.236677,-0.108 -0.228129,-0.12084 -0.642295,-0.32483 -1.045417,-0.58136 -0.25554,-0.11163 -0.480983,-0.2759 -0.708998,-0.44131 -0.0046,-8e-4 -0.0094,-0.001 -0.01394,-0.002 0.112342,0.0827 0.184004,0.13617 0.276468,0.2036 0.009,0.007 0.03919,0.0205 0.02842,0.0176 -0.06069,-0.0161 -0.119515,-0.0387 -0.179316,-0.0579 -0.07143,-0.0184 -0.672439,-0.22472 -0.664043,-0.25011 0.06154,-0.18555 0.128995,-0.36902 0.193788,-0.55345 -5.29e-4,-0.0301 -0.0032,-0.0557 -0.0026,-0.0873 -0.01521,-0.0927 -0.0065,-0.18678 0.01913,-0.28163 0.01577,-0.16313 0.04029,-0.33559 0.07545,-0.5178 -0.01984,-0.0131 -0.03847,-0.0278 -0.05839,-0.0408 -0.259469,-0.17695 -0.894035,-0.5855 -1.071769,-0.85317 -0.03238,-0.0488 0.09144,0.0787 0.147794,0.0946 0.03129,0.009 -0.0437,-0.0478 -0.06563,-0.0718 -1.176684,-0.55027 -2.428417,-0.94709 -3.475241,-1.74769 -0.334201,-0.24245 -0.674312,-0.47648 -1.010791,-0.71572 -1.341032,-0.65286 -2.661944,-1.34556 -3.965133,-2.07533 -0.61541,-0.36794 -1.237927,-0.70458 -1.688785,-1.28261 -0.159435,-0.2044 -0.247243,-0.4568 -0.395843,-0.66921 -0.05379,-0.0769 0.09651,0.16643 0.109037,0.25942 0.0055,0.0407 -0.05763,-0.0585 -0.0863,-0.0879 -0.447315,-0.50957 -0.835218,-1.07298 -1.339969,-1.52911 0.142645,0.10901 0.243485,0.18538 0.340029,0.2558 -0.0052,-0.007 -0.0098,-0.0149 -0.01497,-0.0222 -0.183957,-0.12784 -0.494869,-0.36554 -0.480589,-0.38447 0.04112,-0.0545 0.07375,-0.10188 0.11317,-0.15503 -0.131606,-0.2052 -0.261445,-0.4121 -0.396359,-0.61495 0.138951,0.19122 0.288615,0.37571 0.434083,0.56276 0.250674,-0.33991 0.471972,-0.65556 0.659392,-0.94 -0.560276,-0.775 -0.989809,-1.62172 -1.312582,-2.52439 -0.236072,-0.58442 -0.461526,-1.16105 -0.529682,-1.77457 -0.05558,0.0271 -0.11271,0.0521 -0.165365,0.0827 -0.390459,-0.12915 -0.816806,-0.17942 -1.171506,-0.38757 -0.203751,-0.11957 -0.320813,-0.35207 -0.438216,-0.55708 -0.342644,-0.59832 -0.47442,-1.36979 -0.572059,-2.13371 -0.103838,-0.0692 -0.117639,-0.29631 -0.1788,-0.42582 -0.04303,-0.0911 -0.08246,-0.18372 -0.121957,-0.27647 -0.259321,-0.15081 -0.28502,-0.31375 -0.248563,-0.6196 -0.219112,-0.57021 -0.417197,-1.14623 -0.600995,-1.72703 z m 0.93431,2.39572 c 0.01868,0.0483 0.06149,0.0674 0.121955,0.0646 -0.04379,-0.0218 -0.08556,-0.0454 -0.121955,-0.0646 z m 146.510947,1.12758 c -0.0253,0.0319 -0.0474,0.0654 -0.0739,0.0966 -0.26355,0.52043 -0.32485,0.78934 -0.5886,1.06867 -0.004,0.005 -0.007,0.008 -0.0119,0.0134 -0.009,0.009 -0.0158,0.0179 -0.0248,0.0269 -0.24588,0.27252 -0.98554,1.00784 -1.03301,1.11415 -0.30776,0.24982 -0.47467,0.61148 -0.71831,0.91725 -0.19386,0.24333 -0.40078,0.47704 -0.61649,0.70125 -0.1223,0.12713 -0.26384,0.23387 -0.39585,0.35088 -0.79414,0.64021 -1.65832,1.17539 -2.44842,1.81643 -1.0988,1.03098 -1.71185,2.50364 -2.81999,3.5388 -0.84567,0.88732 -1.75696,1.69846 -2.60811,2.58176 -0.8616,0.89408 -1.66002,1.89419 -2.78432,2.47581 -0.0783,0.044 -0.15983,0.0829 -0.23513,0.13178 -0.0651,0.0422 -0.11122,0.11882 -0.18552,0.14107 -0.0286,0.008 0.0302,-0.10745 0.008,-0.0878 -0.21965,0.19673 -0.3317,0.51488 -0.55913,0.71055 -0.0492,0.10831 -0.0982,0.2167 -0.14728,0.32504 -0.53233,0.8628 -1.01995,1.51448 -1.7601,2.1761 -1.04438,0.72382 -2.1939,1.27318 -3.30264,1.88929 -1.14911,0.57366 -2.34141,1.05607 -3.56723,1.44177 -1.63472,0.46698 -3.28983,0.87002 -4.89272,1.44125 -1.5916,0.63342 -3.19592,1.23587 -4.77439,1.90118 -1.17341,0.69267 -2.16627,1.66807 -3.46542,2.15284 -0.16152,0.0599 -0.75978,0.27644 -0.93172,0.36019 -0.3647,0.17764 -0.71197,0.39329 -1.06971,0.58807 -0.33805,0.55556 -0.80307,1.01963 -1.30018,1.46658 -0.60395,0.47565 -1.13695,1.02738 -1.71048,1.53789 -0.46517,0.2249 -0.90283,0.51852 -1.39527,0.67489 -0.44696,0.14191 -2.17742,0.0755 -2.73523,0.0775 -0.0271,0.026 -1.67028,0.0447 -1.67328,0.0377 -0.004,-0.0108 -0.007,-0.0227 -0.0114,-0.0336 -0.30296,0.32675 -1.30233,-0.40081 -2.01538,-1.12654 -0.30948,0.0382 -0.61973,0.0699 -0.93276,0.0853 -0.83349,0.11912 -1.66958,0.20981 -2.50838,0.27751 -0.20177,0.0551 -0.41284,0.0774 -0.60926,0.14934 -0.5192,0.19004 -0.982,0.53735 -1.51464,0.70435 h 55.41265 v -31.55517 c -0.12696,0.26171 -0.27084,0.55398 -0.16692,0.33538 0.0556,-0.11284 0.11635,-0.22342 0.16692,-0.33848 z m -49.8476,30.50771 c 0.5412,-0.0667 1.07758,-0.16393 1.61127,-0.2806 -0.28081,-1.23349 -0.50375,-2.50323 -1.3994,-3.3166 -0.62344,-0.56618 -0.51741,1.60308 -0.77617,2.40451 -0.44022,-0.0322 -0.0389,0.57876 0.5643,1.19269 z m 1.61127,-0.2806 c 0.1104,0.48493 0.2314,0.96325 0.40411,1.40715 0.033,-0.0356 0.0591,-0.0818 0.0739,-0.14367 0.13036,-0.54438 0.22804,-1.01403 0.32349,-1.47743 -0.13558,0.043 -0.27145,0.0851 -0.40721,0.12765 -0.13114,0.0308 -0.26285,0.0576 -0.39429,0.0863 z M 51.797871,251.73342 c -0.06628,0.0295 -0.130884,0.061 -0.196369,0.0915 0.01151,0.0291 0.02328,0.0581 0.03462,0.0873 0.05639,0.005 0.12746,-0.0244 0.213423,-0.0796 -0.01683,-0.0333 -0.03418,-0.0663 -0.05168,-0.0992 z m -0.161745,0.1788 c -0.02945,-0.003 -0.05549,-0.0144 -0.07803,-0.0367 0.03439,0.2213 0.09578,0.41173 0.207224,0.38448 0.0038,-0.001 0.007,-0.002 0.01085,-0.003 -0.04621,-0.11512 -0.09508,-0.22901 -0.140041,-0.34468 z m -0.07803,-0.0367 c -0.0013,-0.009 -0.0019,-0.0178 -0.0031,-0.0269 -0.0038,0.002 -0.0075,0.004 -0.01138,0.006 0.0047,0.008 0.0091,0.0159 0.01447,0.0212 z m 13.261208,7.99693 c 0.04044,0.0715 0.08993,0.15694 0.196887,0.32815 0.05433,0.087 -0.08971,-0.18489 -0.147278,-0.26976 -0.0145,-0.0214 -0.03411,-0.038 -0.04961,-0.0584 z m 3.503144,3.96927 c 0.09115,0.056 0.222348,0.13044 0.377238,0.21756 0.0013,-0.002 0.0028,-0.003 0.0041,-0.005 -0.09456,-0.0588 -0.157239,-0.0994 -0.325562,-0.20103 -0.01527,-0.003 -0.03813,-0.008 -0.05581,-0.0114 z m 0.815454,0.40049 c 0.01974,0.0115 0.04008,0.0218 0.05995,0.0331 -0.0062,-0.008 -0.01476,-0.0161 -0.02066,-0.0243 -0.0079,-0.0111 -0.051,-0.0156 -0.03927,-0.009 z m -3.759975,1.13275 c 0.0748,0.17049 0.176238,0.35966 0.299206,0.56327 0.02898,-0.12704 0.06173,-0.25438 0.09818,-0.38344 -0.132331,-0.0602 -0.265625,-0.11823 -0.39739,-0.17983 z m 16.171105,5.12992 c 0.05416,0.0523 0.106897,0.10632 0.165881,0.15296 0.0567,0.0448 -0.09581,-0.11132 -0.157612,-0.14883 -0.0026,-0.002 -0.0051,-0.002 -0.0083,-0.004 z m 3.520197,6.11332 c 0.0108,0.008 0.02064,0.0177 0.03152,0.0258 0.01654,0.0124 0.03618,0.0196 0.05478,0.0284 -0.02922,-0.0164 -0.05737,-0.0366 -0.0863,-0.0543 z m 0.111622,0.0667 c 0.0396,0.0161 0.08035,0.0302 0.119888,0.046 0.0072,0.003 0.03045,0.006 0.02326,0.003 -0.04661,-0.0196 -0.09505,-0.0339 -0.143145,-0.0486 z" />
    </clipPath>
  </defs>
  <sodipodi:namedview
     id="base"
     pagecolor="#ffffff"
     bordercolor="#666666"
     borderopacity="1.0"
     inkscape:pageopacity="0.0"
     inkscape:pageshadow="2"
     inkscape:zoom="0.99437388"
     inkscape:cx="398.74338"
     inkscape:cy="212.69666"
     inkscape:document-units="mm"
     inkscape:current-layer="layer1"
     showgrid="false"
     showborder="true"
     width="200mm"
     showguides="true"
     inkscape:guide-bbox="true"
     inkscape:window-width="1920"
     inkscape:window-height="1127"
     inkscape:window-x="0"
     inkscape:window-y="0"
     inkscape:window-maximized="1"
     inkscape:pagecheckerboard="0"
     inkscape:object-paths="true"
     inkscape:snap-intersection-paths="true">
    <inkscape:grid
       type="xygrid"
       id="grid815"
       units="mm"
       spacingx="10"
       spacingy="10"
       empspacing="4"
       dotted="false" />
  </sodipodi:namedview>
  <metadata
     id="metadata5">
    <rdf:RDF>
      <cc:Work
         rdf:about="">
        <dc:format>image/svg+xml</dc:format>
        <dc:type
           rdf:resource="http://purl.org/dc/dcmitype/StillImage" />
      </cc:Work>
    </rdf:RDF>
  </metadata>
  <g
     inkscape:label="Layer 1"
     inkscape:groupmode="layer"
     id="layer1"
     transform="translate(0,-177)">
    <ellipse
       style="fill:none;stroke:#000000;stroke-width:0.264583"
       id="path878"
       cx="121.7621"
       cy="238.0213"
       rx="73.590363"
       ry="42.90707"
       clip-path="url(#clipPath962)"
       transform="matrix(1,0,0,1.3995417,1.979346,-76.32571)" />
    <path
       style="fill:none;stroke:#000000;stroke-width:0.264583px;stroke-linecap:butt;stroke-linejoin:miter;stroke-opacity:1"
       d="m 52.838799,240.71418 c 20.986055,5.79446 41.971793,11.58883 65.845541,12.34416 23.87375,0.75534 50.55635,-3.51556 77.27836,-7.79276"
       id="path1079"
       inkscape:path-effect="#path-effect1081"
       inkscape:original-d="m 52.838799,240.71418 c 20.986004,5.79464 41.971745,11.589 62.957221,17.38311 26.76164,-4.28632 53.44472,-8.55421 80.16668,-12.83171" />
    <path
       style="fill:none;stroke:#000000;stroke-width:0.26458299;stroke-linecap:butt;stroke-linejoin:miter;stroke-opacity:1;stroke-miterlimit:4;stroke-dasharray:1.58749792,1.58749792;stroke-dashoffset:0"
       d="m 195.9627,245.26559 c -22.90978,-6.36552 -45.81987,-12.73112 -69.80361,-13.46439 -23.98375,-0.73326 -48.522219,4.0645 -73.320304,8.91302"
       id="path1091"
       inkscape:path-effect="#path-effect1093"
       inkscape:original-d="m 195.9627,245.26559 c -22.90983,-6.36534 -45.81992,-12.73094 -68.73028,-19.09681 -24.83178,6.05146 -49.59549,9.69722 -74.393634,14.54544" />
    <path
       style="fill:none;stroke:#000000;stroke-width:0.264583px;stroke-linecap:butt;stroke-linejoin:miter;stroke-opacity:1;marker-end:url(#Arrow1Lend)"
       d="m 125.12734,253.1441 v 0 l 36.50503,0"
       id="path1185" />
    <text
       xml:space="preserve"
       style="font-size:4.23333px;line-height:1.25;font-family:sans-serif;stroke-width:0.264583"
       x="143.65065"
       y="259.73636"
       id="text7683"><tspan
         sodipodi:role="line"
         id="tspan7681"
         style="stroke-width:0.264583"
         x="143.65065"
         y="259.73636">$p_\theta$</tspan></text>
    <path
       style="fill:none;stroke:#000000;stroke-width:0.264583px;stroke-linecap:butt;stroke-linejoin:miter;stroke-opacity:1;marker-end:url(#Arrow1Lend)"
       d="m 125.12734,253.1441 v 0 17.92197"
       id="path9764" />
    <text
       xml:space="preserve"
       style="font-size:4.23333px;line-height:1.25;font-family:sans-serif;stroke-width:0.264583"
       x="124.12125"
       y="264.07129"
       id="text12034"><tspan
         sodipodi:role="line"
         id="tspan12032"
         style="stroke-width:0.264583"
         x="124.12125"
         y="264.07129">$p_\varphi$</tspan></text>
    <path
       style="fill:none;stroke:#ff0000;stroke-width:0.264583px;stroke-linecap:butt;stroke-linejoin:miter;stroke-opacity:1;marker-end:url(#Arrow1Lend)"
       d="m 125.12734,253.1441 19.95824,-0.96025"
       id="path910" />
    <path
       style="fill:none;stroke:#ff0000;stroke-width:0.265;stroke-linecap:butt;stroke-linejoin:miter;stroke-opacity:1;stroke-miterlimit:4;stroke-dasharray:none;marker-end:url(#Arrow1Lend)"
       d="m 152.32768,251.48633 h 22.1453"
       id="path1176" />
    <path
       style="fill:none;stroke:#fd0000;stroke-width:0.264583px;stroke-linecap:butt;stroke-linejoin:miter;stroke-opacity:1;marker-end:url(#Arrow1Lend)"
       d="m 184.51731,247.08421 18.25877,5.09446"
       id="path1277" />
  </g>
</svg>
