<?xml version="1.0" encoding="UTF-8" standalone="no"?>
<!-- Created with Inkscape (http://www.inkscape.org/) -->

<svg
   width="240mm"
   height="120mm"
   viewBox="0 0 240 120"
   version="1.1"
   id="svg8"
   inkscape:version="1.3 (0e150ed6c4, 2023-07-21)"
   sodipodi:docname="circuit-effectif.svg"
   xmlns:inkscape="http://www.inkscape.org/namespaces/inkscape"
   xmlns:sodipodi="http://sodipodi.sourceforge.net/DTD/sodipodi-0.dtd"
   xmlns="http://www.w3.org/2000/svg"
   xmlns:svg="http://www.w3.org/2000/svg"
   xmlns:rdf="http://www.w3.org/1999/02/22-rdf-syntax-ns#"
   xmlns:cc="http://creativecommons.org/ns#"
   xmlns:dc="http://purl.org/dc/elements/1.1/">
  <defs
     id="defs2">
    <inkscape:path-effect
       effect="bspline"
       id="path-effect8"
       is_visible="true"
       lpeversion="1.3"
       weight="33.333333"
       steps="2"
       helper_size="0"
       apply_no_weight="true"
       apply_with_weight="true"
       only_selected="false"
       uniform="false" />
  </defs>
  <sodipodi:namedview
     id="base"
     pagecolor="#ffffff"
     bordercolor="#666666"
     borderopacity="1.0"
     inkscape:pageopacity="0.0"
     inkscape:pageshadow="2"
     inkscape:zoom="1.7635184"
     inkscape:cx="478.58871"
     inkscape:cy="244.39779"
     inkscape:document-units="mm"
     inkscape:current-layer="layer1"
     showgrid="false"
     showborder="true"
     width="200mm"
     showguides="true"
     inkscape:guide-bbox="true"
     inkscape:window-width="1920"
     inkscape:window-height="1200"
     inkscape:window-x="0"
     inkscape:window-y="0"
     inkscape:window-maximized="1"
     inkscape:showpageshadow="2"
     inkscape:pagecheckerboard="0"
     inkscape:deskcolor="#d1d1d1">
    <inkscape:grid
       type="xygrid"
       id="grid815"
       units="mm"
       spacingx="10"
       spacingy="10"
       empspacing="4"
       dotted="false"
       originx="0"
       originy="0"
       visible="false" />
  </sodipodi:namedview>
  <metadata
     id="metadata5">
    <rdf:RDF>
      <cc:Work
         rdf:about="">
        <dc:format>image/svg+xml</dc:format>
        <dc:type
           rdf:resource="http://purl.org/dc/dcmitype/StillImage" />
        <dc:title />
      </cc:Work>
    </rdf:RDF>
  </metadata>
  <g
     inkscape:label="Layer 1"
     inkscape:groupmode="layer"
     id="layer1"
     transform="translate(0,-177)">
    <path
       style="fill:none;stroke:#000000;stroke-width:0.3"
       d="m 33.898919,253.79088 v 14.04147"
       id="path1" />
    <path
       style="fill:none;stroke:#000000;stroke-width:0.3"
       d="m 33.898919,267.83235 h -3.941624 l 4.091624,4.73734 5.042326,-4.73734 z"
       id="path2" />
    <path
       style="fill:none;stroke:#000000;stroke-width:0.3"
       d="m 97.296487,266.63854 h -3.941624 l 4.091624,4.73734 5.042323,-4.73734 z"
       id="path2-3" />
    <path
       style="fill:none;stroke:#000000;stroke-width:0.3"
       d="M 23.997491,253.77193 H 43.800347"
       id="path3" />
    <path
       style="fill:none;stroke:#000000;stroke-width:0.3"
       d="M 23.997491,253.77193 V 243.21715"
       id="path4" />
    <path
       style="fill:none;stroke:#000000;stroke-width:0.3"
       d="m 43.800347,253.77193 v 0 -14.38256"
       id="path5" />
    <path
       style="fill:none;stroke:#000000;stroke-width:0.3"
       d="M 39.469967,239.38937 H 48.15887"
       id="path6" />
    <path
       style="fill:none;stroke:#000000;stroke-width:0.3"
       d="m 39.469967,233.62877 8.688903,-0.13265"
       id="path7" />
    <path
       style="fill:none;stroke:#000000;stroke-width:0.3"
       d="m 23.997491,243.21715 c 1.718142,-1.12433 3.436284,-2.24866 2.618272,-2.81082 -0.818013,-0.56217 -4.172181,-0.56217 -5.467104,-0.4011 -1.294923,0.16107 -0.530601,0.48321 1.585494,0.0632 2.116095,-0.42005 5.583963,-1.58228 5.561855,-2.5866 -0.02211,-1.00431 -3.534192,-1.85072 -5.643972,-2.17917 -2.10978,-0.32845 -2.817249,-0.13896 -1.162274,-0.38846 1.654976,-0.24949 5.672398,-0.93799 6.332491,-1.75281 0.660093,-0.81482 -2.037137,-1.75598 -3.862664,-1.92968 -1.825527,-0.1737 -2.779346,0.42004 -1.759199,0.56216 1.020147,0.14212 4.014264,-0.16738 5.694506,-0.54637 1.680242,-0.37899 2.04661,-0.82746 1.999235,-1.53174 -0.04738,-0.70429 -0.508495,-1.66439 -1.427576,-2.18234 -0.919081,-0.51795 -2.29612,-0.59374 -3.230991,-0.559 -0.934872,0.0347 -1.427573,0.18002 -1.585224,0.25266 -0.15765,0.0726 0.01975,0.0726 0.197151,0.0726"
       id="path8"
       inkscape:path-effect="#path-effect8"
       inkscape:original-d="m 23.997491,243.21715 c 1.718142,-1.12433 3.436284,-2.24866 5.154427,-3.37299 -3.354168,0 -6.708336,0 -10.062503,0 0.764321,0.32214 1.528643,0.64428 2.292964,0.96642 3.467869,-1.16223 6.935737,-2.32446 10.403607,-3.48669 -3.512087,-0.8464 -7.024172,-1.6928 -10.536258,-2.53921 -0.707471,0.1895 -1.414942,0.37899 -2.122414,0.56849 4.017423,-0.6885 8.034845,-1.37699 12.052268,-2.06548 -2.697234,-0.94116 -5.394465,-1.88231 -8.091698,-2.82346 -0.953821,0.59375 -1.907642,1.18749 -2.861463,1.78124 2.994116,-0.30951 5.988232,-0.61902 8.982348,-0.92852 0.366369,-0.44847 0.732737,-0.89694 1.099106,-1.34541 -0.461119,-0.9601 -0.92224,-1.9202 -1.383358,-2.8803 -1.377043,-0.0758 -2.754082,-0.15159 -4.131123,-0.22739 -0.492702,0.14528 -0.985403,0.29056 -1.478105,0.43584 0.177401,0 0.354801,0 0.532202,0" />
    <path
       style="fill:none;stroke:#000000;stroke-width:0.3"
       d="m 25.235563,226.97439 -1.388072,0.3253 0,-13.90883 19.966927,0.36004 v 19.81155"
       id="path9" />
    <path
       style="fill:none;stroke:#000000;stroke-width:0.3"
       d="M 33.830953,213.57088 V 200.41055 H 70.917945"
       id="path10" />
    <path
       style="fill:none;stroke:#000000;stroke-width:0.3"
       d="m 70.917945,195.88166 v 8.603"
       id="path11" />
    <path
       style="fill:none;stroke:#000000;stroke-width:0.3"
       d="m 74.897463,195.88166 0.625354,8.603"
       id="path12" />
    <path
       style="fill:none;stroke:#000000;stroke-width:0.3"
       d="m 75.21014,200.18316 h 20.797737 v 25.07 l -3.411019,4.09306 5.097584,3.99992 -4.69963,3.65386 5.438677,3.65898 -4.889127,4.4531 3.752125,3.38246 v 18.144"
       id="path13" />
    <path
       style="fill:none;stroke:#000000;stroke-width:0.3"
       d="m 142.30857,266.63854 h -3.94163 l 4.09163,4.73733 5.04232,-4.73733 z"
       id="path2-3-6" />
    <path
       style="fill:none;stroke:#000000;stroke-width:0.3"
       d="m 120.22222,200.18315 h 20.79774 v 25.07 l -3.41102,4.09306 5.09758,3.99992 -4.69963,3.65387 5.43868,3.65898 -4.88913,4.45311 3.75213,3.38246 v 18.144"
       id="path13-5" />
    <path
       style="fill:none;stroke:#000000;stroke-width:0.258296"
       d="m 157.5104,234.77282 c 0.83064,-2.31359 3.05526,-4.89764 4.61628,-2.45407 0.66782,1.04538 0.6827,2.72386 1.68221,3.32735 1.50223,0.90702 3.68647,-2.25696 4.31635,-4.3276"
       id="path15" />
    <path
       style="fill:none;stroke:#000000;stroke-width:0.258296"
       d="m 157.5104,240.81207 c 0.83064,-2.31358 3.05526,-4.89764 4.61628,-2.45407 0.66782,1.04539 0.6827,2.72386 1.68221,3.32735 1.50223,0.90703 3.68647,-2.25696 4.31635,-4.3276"
       id="path15-3" />
    <path
       style="fill:none;stroke:#000000;stroke-width:0.258296"
       d="m 170.01834,218.36672 4.45979,0.26538 c 1.28401,-0.0654 2.57652,-1.0053 3.36441,-2.65372 2.61446,-5.46997 -0.49131,-7.2356 -1.49963,-3.73561 -0.66418,2.30546 -1.36539,7.77742 1.10842,7.77742 0.80595,0 1.49757,-0.64298 2.00823,-1.59223 0.16499,-0.30669 3.30028,-7.94112 1.96909,-8.81849 -1.87271,-1.23427 -3.09479,8.79416 -1.18668,10.30866 2.7335,2.16962 5.25225,-7.93118 4.3294,-8.9818 -2.02389,-2.3041 -2.04492,6.7209 -1.51268,8.0632 1.15456,2.91177 2.69935,-0.0277 2.69935,1.52078 l 0.36514,8.88994"
       id="path16" />
    <path
       style="fill:none;stroke:#000000;stroke-width:0.258296"
       d="m 183.91935,229.42061 h 5.22919"
       id="path17" />
    <path
       style="fill:none;stroke:#000000;stroke-width:0.258296"
       d="m 184.48008,233.69701 4.66846,0.0408"
       id="path18" />
    <path
       style="fill:none;stroke:#000000;stroke-width:0.258296"
       d="m 186.8143,233.71742 0.44339,18.87451"
       id="path19" />
    <path
       style="fill:none;stroke:#000000;stroke-width:0.258296"
       d="m 185.51845,218.52831 4.4598,0.26538 c 1.28401,-0.0654 2.57652,-1.0053 3.36441,-2.65372 2.61446,-5.46997 -0.49132,-7.2356 -1.49964,-3.73561 -0.66418,2.30545 -1.36538,7.77742 1.10843,7.77742 0.80595,0 1.49757,-0.64298 2.00822,-1.59223 0.16499,-0.30669 3.30029,-7.94113 1.96909,-8.81849 -1.8727,-1.23427 -3.09478,8.79415 -1.18668,10.30866 2.73351,2.16962 5.25226,-7.93118 4.3294,-8.9818 -2.02389,-2.3041 -2.04491,6.7209 -1.51268,8.0632 1.15456,2.91177 2.69936,-0.0277 2.69936,1.52078 l 0.36513,8.88993"
       id="path16-5" />
    <path
       style="fill:none;stroke:#000000;stroke-width:0.258296"
       d="m 199.41947,229.5822 h 5.22918"
       id="path17-6" />
    <path
       style="fill:none;stroke:#000000;stroke-width:0.258296"
       d="m 199.9802,233.8586 4.66845,0.0408"
       id="path18-2" />
    <path
       style="fill:none;stroke:#000000;stroke-width:0.258296"
       d="m 202.31442,233.87901 0.44338,18.87451"
       id="path19-9" />
    <path
       style="fill:none;stroke:#000000;stroke-width:0.258296"
       d="m 201.81828,220.01974 4.4598,0.26538 c 1.28401,-0.0654 2.57652,-1.0053 3.36441,-2.65372 2.61446,-5.46997 -0.49132,-7.2356 -1.49964,-3.73561 -0.66418,2.30545 -1.36538,7.77742 1.10843,7.77742 0.80595,0 1.49757,-0.64298 2.00822,-1.59223 0.16499,-0.30669 3.30029,-7.94113 1.96909,-8.81849 -1.8727,-1.23427 -3.09478,8.79415 -1.18668,10.30866 2.73351,2.16962 5.25226,-7.93118 4.3294,-8.9818 -2.02389,-2.3041 -2.04491,6.7209 -1.51268,8.0632 1.15456,2.91177 2.69936,-0.0277 2.69936,1.52078 l 0.36513,8.88993"
       id="path16-5-1" />
    <path
       style="fill:none;stroke:#000000;stroke-width:0.258296"
       d="m 215.7193,231.07363 h 5.22918"
       id="path17-6-2" />
    <path
       style="fill:none;stroke:#000000;stroke-width:0.258296"
       d="m 216.28003,235.35003 4.66845,0.0408"
       id="path18-2-7" />
    <path
       style="fill:none;stroke:#000000;stroke-width:0.258296"
       d="m 218.61425,235.37044 0.44338,18.87451"
       id="path19-9-0" />
    <path
       style="fill:none;stroke:#000000;stroke-width:0.3"
       d="m 227.54053,233.72946 c 0.17055,0.0296 0.48205,0.25935 0.51165,0.0888 0.0296,-0.17055 -0.46665,-0.25595 -0.51165,-0.0888 -0.0955,0.35472 0.10676,0.73437 0.24635,1.07417 0.10212,0.24858 0.53731,-0.61094 0.70116,-0.39793 0.11737,0.15256 0.002,0.82552 -0.2653,0.77692 -0.35458,-0.0645 0.0979,-0.8312 0.1895,-0.92852 0.37962,-0.40334 0.51165,0.18388 0.51165,-0.52464"
       id="path20" />
    <path
       style="fill:none;stroke:#000000;stroke-width:0.3"
       d="m 233.24451,235.33462 c -0.46715,-0.98951 1.17232,-1.72915 0.6443,-0.83418 -0.17853,0.3026 -0.99564,0.83418 -0.6443,0.83418 0.47842,0 0.73274,-0.61531 1.0991,-0.92297"
       id="path21" />
    <path
       style="fill:none;stroke:#000000;stroke-width:0.3"
       d="m 237.35668,235.48462 c 0.27793,0.5599 0.23206,1.12919 0,0 z"
       id="path22" />
  </g>
</svg>
