<?xml version="1.0" encoding="UTF-8" standalone="no"?>
<!-- Created with Inkscape (http://www.inkscape.org/) -->

<svg
   width="240mm"
   height="120mm"
   viewBox="0 0 240 120"
   version="1.1"
   id="svg8"
   inkscape:version="1.3 (0e150ed6c4, 2023-07-21)"
   sodipodi:docname="circuit-avec-drive.svg"
   xmlns:inkscape="http://www.inkscape.org/namespaces/inkscape"
   xmlns:sodipodi="http://sodipodi.sourceforge.net/DTD/sodipodi-0.dtd"
   xmlns="http://www.w3.org/2000/svg"
   xmlns:svg="http://www.w3.org/2000/svg"
   xmlns:rdf="http://www.w3.org/1999/02/22-rdf-syntax-ns#"
   xmlns:cc="http://creativecommons.org/ns#"
   xmlns:dc="http://purl.org/dc/elements/1.1/">
  <defs
     id="defs2" />
  <sodipodi:namedview
     id="base"
     pagecolor="#ffffff"
     bordercolor="#666666"
     borderopacity="1.0"
     inkscape:pageopacity="0.0"
     inkscape:pageshadow="2"
     inkscape:zoom="0.99437388"
     inkscape:cx="284.6012"
     inkscape:cy="11.062237"
     inkscape:document-units="mm"
     inkscape:current-layer="layer1"
     showgrid="false"
     showborder="true"
     width="200mm"
     showguides="true"
     inkscape:guide-bbox="true"
     inkscape:window-width="1920"
     inkscape:window-height="1200"
     inkscape:window-x="0"
     inkscape:window-y="0"
     inkscape:window-maximized="1"
     inkscape:showpageshadow="2"
     inkscape:pagecheckerboard="0"
     inkscape:deskcolor="#d1d1d1">
    <inkscape:grid
       type="xygrid"
       id="grid815"
       units="mm"
       spacingx="10"
       spacingy="10"
       empspacing="4"
       dotted="false"
       originx="0"
       originy="0"
       visible="false" />
  </sodipodi:namedview>
  <metadata
     id="metadata5">
    <rdf:RDF>
      <cc:Work
         rdf:about="">
        <dc:format>image/svg+xml</dc:format>
        <dc:type
           rdf:resource="http://purl.org/dc/dcmitype/StillImage" />
        <dc:title />
      </cc:Work>
    </rdf:RDF>
  </metadata>
  <g
     inkscape:label="Layer 1"
     inkscape:groupmode="layer"
     id="layer1"
     transform="translate(0,-177)">
    <g
       id="g1"
       transform="matrix(1.2045105,0,0,1.2485502,-15.962498,-46.568274)"
       style="fill:none;stroke:#000000">
      <path
         style="fill:none;stroke:#000000;stroke-width:0.3"
         d="m 24.297854,258.8616 c 0.981295,-0.0548 1.97105,0.0489 2.947927,-0.0824 0.509021,-0.0684 1.009986,-0.18718 1.515131,-0.27996 0.692991,-0.12727 1.386157,-0.22351 2.091542,-0.24702 0.565118,-0.0188 1.130863,0 1.696294,0 0.55254,0 1.096174,0.0315 1.646885,0.0659 0.38711,0.0242 -0.01765,-0.003 0.345845,0.0659 0.176797,0.0337 0.370406,0.0247 0.54347,0.0823 0.07977,0.0598 0.03983,0.0407 0.115284,0.0659 0.01646,0.005 0.06052,0.003 0.0494,0.0165 -0.02577,0.0309 -0.209415,0.12063 -0.247028,0.14822 -0.19486,0.14289 -0.376182,0.39166 -0.510535,0.57638 -0.529396,0.72789 -0.918366,1.54218 -1.416322,2.28909 -0.389615,0.58439 -0.916961,1.0643 -1.350444,1.61388 -0.263909,0.33458 -0.833699,1.16918 -1.037537,1.46567 -0.174474,0.25377 -0.329099,0.51778 -0.543473,0.74107 -0.07274,0.0582 -0.247142,0.19303 -0.312909,0.26349 -0.09747,0.10442 -0.07374,0.13334 -0.164687,0.24702 -0.01013,0.0127 -0.535866,0.52354 -0.559941,0.52698 -2.4e-5,10e-6 -0.131731,-0.0329 -0.131752,-0.0329 -0.500049,-0.18184 -0.940961,-1.10503 -1.152818,-1.51507 -0.316495,-0.61255 -0.603756,-1.24151 -0.938726,-1.84444 -0.321559,-0.57878 -0.198795,-0.24958 -0.444659,-0.79047 -0.177654,-0.39082 -0.295405,-0.81146 -0.42819,-1.21865 -0.07264,-0.22275 -0.101946,-0.52249 -0.230565,-0.7246 -0.08771,-0.13782 -0.248903,-0.24761 -0.345843,-0.37876 -0.09962,-0.13477 -0.166857,-0.29127 -0.263504,-0.42818 -0.207056,-0.29332 -0.579027,-0.43691 -0.872848,-0.62579 z"
         id="path2" />
      <path
         style="fill:none;stroke:#000000;stroke-width:0.3"
         d="m 30.852454,258.25222 c -0.197626,-0.15918 -0.450176,-0.26769 -0.592876,-0.47753 -0.06512,-0.0958 0.02752,-0.23016 0.03294,-0.34583 0.01106,-0.23584 0.01048,-0.4721 0.01646,-0.70812 0.01852,-0.73111 0.07604,-1.45852 0.06588,-2.19028 -0.01693,-1.21985 -0.03294,-2.43616 -0.03294,-3.65594 0,-1.50376 -0.01347,-3.03052 0.148219,-4.52876 0.04815,-0.44613 0.119145,-0.8895 0.181158,-1.33391 0.08092,-0.5799 0.157631,-0.92003 0.164687,-1.49861 0.0069,-0.56247 -0.120968,-1.10466 -0.148217,-1.66329 -0.0097,-0.19833 0.03294,-0.40891 0.03294,-0.60932 0,-0.0878 0.0038,-0.17575 0,-0.26349 -0.0027,-0.0613 -0.06275,-0.1275 -0.03294,-0.18115 0.08945,-0.16101 0.206401,-0.0955 0.230563,-0.3129 0.02654,-0.23886 -0.03294,-0.48397 -0.03294,-0.7246 0,-0.0361 -0.036,-0.47757 -0.04941,-0.47757 -0.02455,0 0.03596,0.11969 0,0.21408 -0.06083,0.15968 -0.138745,0.18552 -0.263501,0.26349"
         id="path3" />
      <path
         style="fill:none;stroke:#000000;stroke-width:0.3"
         d="m 30.086704,219.73316 c -0.01939,0.19277 0.09621,-0.0295 -0.881133,0.34583 -0.119965,0.0461 -0.241544,0.0878 -0.362316,0.13175 -0.545557,0.19837 -1.104921,0.39346 -1.597474,0.70813 -0.196575,0.12559 -0.71355,0.5396 -0.823447,0.62579 -0.716598,0.56202 -1.380555,1.18005 -1.795102,2.00912 -0.229935,0.45985 -0.311097,0.91316 -0.411721,1.41627 -0.01831,0.0915 -0.135244,0.69276 -0.148219,0.80694 -0.101759,0.89545 0.216677,2.19071 0.477594,3.03015 0.141557,0.45542 0.413845,0.86927 0.609347,1.30098 0.234198,0.51717 0.400477,1.08381 0.675224,1.58096 0.08766,0.15862 0.221901,0.2879 0.312908,0.44463 0.232532,0.40046 0.422791,0.8275 0.642287,1.23511 0.146931,0.27287 0.254441,0.57002 0.39525,0.83989 0.204809,0.39254 0.483529,0.75445 0.70816,1.1363 0.250568,0.42595 0.02384,0.0647 0.230563,0.49404 0.139473,0.28967 0.367834,0.53833 0.543473,0.80695 0.106682,0.16315 0.219906,0.32273 0.312909,0.49404 0.05744,0.10581 0.09006,0.22396 0.14822,0.32937 0.08179,0.14824 0.257823,0.34481 0.378783,0.46111 0.68789,0.66142 1.663374,1.19064 2.585611,1.3998 0.79176,0.17957 1.029991,0.29896 1.762165,0.21408 1.070832,-0.12414 2.711265,-1.66602 3.458458,-2.30555 0.74562,-0.63817 1.701094,-1.44627 2.239765,-2.27261 0.781184,-1.19836 1.231926,-2.53624 1.613945,-3.90296 0.12329,-0.44109 0.245308,-0.88371 0.329377,-1.33393 0.252566,-1.35257 0.73688,-3.65793 0.16469,-5.1216 -0.335876,-0.85918 -0.814904,-1.49426 -1.465726,-2.1244 -0.412692,-0.39957 -0.79593,-0.73435 -1.317511,-1.00456 -0.703464,-0.36443 -1.643544,-0.25885 -2.404451,-0.46111 -0.523791,-0.13923 -0.991116,-0.32002 -1.531604,-0.37877 -0.40513,-0.044 -0.798113,-0.018 -1.202225,-0.0988 -0.117279,-0.0235 -0.375594,-0.12519 -0.494064,-0.16468 -0.217488,-0.0725 -0.442463,-0.12163 -0.658754,-0.19762 -0.134845,-0.0474 -0.341247,-0.20205 -0.494065,-0.19762 -1.508556,0.0437 -0.577337,0.21535 -2.000917,-0.24702 z"
         id="path4" />
      <path
         style="fill:none;stroke:#000000;stroke-width:0.3"
         d="m 27.838656,229.6561 c -0.02196,-0.34886 -0.139491,-0.70487 -0.06587,-1.04658 0.03424,-0.15893 0.675246,-0.53178 0.790504,-0.57639 0.297177,-0.11503 0.622053,-0.20236 0.938723,-0.11527 0.279169,0.0768 0.39493,0.20936 0.592878,0.4117 0.514824,0.52624 1.118878,1.42481 1.712759,1.8115 0.7776,0.50633 2.450936,1.05437 3.409053,0.92222 0.284919,-0.0393 0.572439,-0.0919 0.839912,-0.19761 0.211045,-0.0834 0.396134,-0.22446 0.576408,-0.36231 0.862301,-0.65938 1.548111,-1.62249 1.663356,-2.71725"
         id="path5" />
      <path
         style="fill:none;stroke:#000000;stroke-width:0.3"
         d="m 33.734504,220.54011 c 0.09881,-0.30192 0.242462,-0.5927 0.296439,-0.90576 0.02998,-0.17386 -0.03853,-0.35088 -0.04941,-0.52698 -0.01659,-0.26869 -0.03118,-0.53774 -0.03294,-0.80694 -0.0037,-0.57091 -0.0074,-1.14227 0.01646,-1.71269 0.02005,-0.4787 0.0795,-0.95495 0.115281,-1.43274 0.05754,-0.76832 0.117671,-1.53651 0.164688,-2.30555 0.155749,-2.54758 -0.05963,-0.47665 0.247033,-3.73828 0.04965,-0.5281 0.129511,-1.05303 0.181155,-1.58094 0.174869,-1.78746 0.06058,-1.10303 0.214096,-2.88194 0.212262,-2.45963 0.141197,-1.03815 0.230566,-2.60197 0.02103,-0.36797 0.01648,-0.73496 0.01648,-1.10337 0,-0.11641 0.007,-0.27797 0.03293,-0.27996 0.06659,-0.005 0.130926,0.0296 0.197628,0.0329 0.316126,0.0158 0.652967,-0.0165 0.971661,-0.0165 0.542591,0 1.088503,0.0164 1.630418,-0.0165 1.447419,-0.0877 2.865826,-0.42115 4.298368,-0.62579 1.384707,-0.19781 2.78721,-0.25378 4.166618,-0.49405 0.41474,-0.0722 0.823145,-0.17706 1.235163,-0.26349 1.116486,-0.23422 2.232247,-0.45675 3.376112,-0.49405 0.806159,-0.0263 0.690351,0.0128 1.548077,0.0659 0.252278,0.0156 0.504944,0.0245 0.757563,0.0329 0.07681,0.003 0.15371,0 0.230563,0 0.03843,0 0.153374,-0.005 0.115284,0 -0.120205,0.016 -0.241543,0.022 -0.362312,0.0329"
         id="path6" />
      <path
         style="fill:none;stroke:#000000;stroke-width:0.3"
         d="m 53.694737,198.88431 c 0.02196,0.0714 0.06381,0.13953 0.06589,0.2142 0.01998,0.71883 -0.074,1.44204 0,2.15734 0.05864,0.56684 0.257035,1.11043 0.395253,1.66328 0.01013,0.0406 0.0494,0.0735 0.0494,0.11528 0,0.0233 -0.0263,-0.0464 -0.0494,-0.0494 -0.110183,-0.0142 -0.222197,0 -0.333295,0"
         id="path7" />
      <path
         style="fill:none;stroke:#000000;stroke-width:0.3"
         d="m 53.760626,199.09851 c 0.0086,-0.5354 0.09152,-1.06593 0.148214,-1.59741 0.11461,-1.0744 0.196631,-2.15211 0.296439,-3.22777 0.02633,-0.28367 0.03325,-0.55715 0.04941,-0.83988 0.0047,-0.0824 0.0096,-0.16478 0.01648,-0.24702 0.01228,-0.14744 0.03514,-0.24989 0.01648,-0.19762 -0.155162,0.43442 0.02492,0.44464 -0.465048,0.44464"
         id="path8" />
      <path
         style="fill:none;stroke:#000000;stroke-width:0.3"
         d="m 58.223678,194.17452 c 0.02342,1.00631 -0.0096,0.47345 0.115285,1.59741 0.232666,2.09396 0.286549,4.20147 0.559937,6.29086 0.09569,0.73128 0.07474,0.60849 0.164696,1.20218 0.0259,0.17098 0.142282,0.15726 0.08234,0.0823 -0.159538,-0.19941 -0.148222,-0.0354 -0.148222,-0.15828"
         id="path9" />
      <path
         style="fill:none;stroke:#000000;stroke-width:0.3"
         d="m 58.8989,202.06279 c 0.455637,-0.83988 0.649507,-1.8885 1.366915,-2.51964 0.413482,-0.36376 1.096655,-0.10872 1.646891,-0.13175 0.762465,-0.0319 1.526164,-0.0187 2.289164,-0.0329 0.417282,-0.008 0.836369,0.009 1.251633,-0.0329 0.678995,-0.0682 1.353669,-0.17766 2.025668,-0.29643 3.051717,-0.53935 -0.03256,-0.14257 3.063211,-0.59285 1.403331,-0.20411 2.811214,-0.3124 4.216024,-0.49404 0.939043,-0.12143 1.871649,-0.26806 2.816172,-0.34584 0.824103,-0.0679 1.644462,-0.0659 2.470325,-0.0659 0.139472,0 0.290729,0.0196 0.428191,0 0.07339,-0.0105 0.371729,-0.0753 0.428191,-0.0329 0.0625,0.0469 -0.05713,1.08278 -0.06588,1.15278 -0.140231,1.12183 -0.254045,2.24562 -0.296433,3.37598 -0.02748,0.73276 -0.06778,1.45911 -0.131758,2.19027 -0.0328,0.37484 -0.09432,0.74566 -0.131746,1.11983 -0.02659,0.26589 0.01752,0.49614 0.131746,0.72461 0.01736,0.0347 -0.02233,0.11527 0.01648,0.11527 0.01646,0 0.01614,-0.0462 0,-0.0494 -0.03974,-0.008 -0.121918,0.0626 -0.148222,0.0823 -0.32938,0.15918 -0.651653,0.33399 -0.988139,0.47754 -0.07724,0.0329 -0.164759,0.0326 -0.24703,0.0494 -0.159272,0.0326 -0.319514,0.0609 -0.477595,0.0988 -0.359554,0.0863 -0.709803,0.21378 -1.070471,0.29643 -0.636284,0.14581 -1.288613,0.20645 -1.926861,0.34583 -0.778835,0.17008 -1.560709,0.33916 -2.355043,0.42817 -1.399402,0.15682 -2.786303,0.0849 -4.183086,-0.0659 -0.663592,-0.0716 -1.310377,-0.25092 -1.959791,-0.39524 -0.04014,-0.009 -0.269741,-0.0689 -0.312908,-0.0329 -0.06843,0.057 -0.01713,0.30528 -0.01647,0.3129 0.04009,0.46769 0.107893,0.93199 0.148222,1.39979 0.07988,0.92658 0.151343,1.85449 0.214091,2.78312 0.05505,0.8148 0.0021,0.46472 0.09882,1.31746 0.06905,0.60884 0.164862,1.18385 0.279969,1.77857 0.02006,0.10366 0.03774,0.20795 0.0494,0.31289 0.0025,0.0223 -0.02205,0.23042 0,0.26349 0.03342,0.0501 0.145938,0.0329 0.18116,0.0329 0.376705,0 0.755535,0.15518 1.13635,0.0494 0.09145,-0.0254 0.306368,-0.16761 0.345847,-0.26348 0.073,-0.17728 0.131174,-0.58266 0,-0.75754 -0.183661,-0.24486 -0.537207,-0.38994 -0.790503,-0.54345 -1.058345,-0.64141 -1.052755,-0.6752 -2.17389,-0.6752 -0.136891,0 -0.672407,-0.0159 -0.790503,0.11528 -0.137171,0.15241 -0.265938,0.49378 -0.329382,0.65873 -0.20261,0.52675 -0.46242,1.97092 -0.214091,2.45376 0.151749,0.29505 0.384531,0.65686 0.609343,0.90575 0.74811,0.82823 2.015598,1.17234 3.096149,1.21864 0.606192,0.026 1.236596,0.011 1.828043,-0.13174 0.06084,-0.0147 0.129075,-0.0147 0.181153,-0.0494 0.0799,-0.0533 -0.159002,-0.10984 -0.247031,-0.14821 -0.142068,-0.0619 -0.282167,-0.12923 -0.42819,-0.18115 -0.458988,-0.16319 -0.969604,-0.18488 -1.449258,-0.23056 -0.215397,-0.0205 -0.70248,-0.0687 -0.905785,0.0329 -0.120461,0.0602 -0.246669,0.28379 -0.279977,0.32936 -0.287619,0.39357 -0.33146,0.79602 -0.395251,1.26806 -0.07082,0.52404 -0.199446,1.27355 0.115282,1.74563 0.119798,0.17969 0.310769,0.38877 0.477603,0.51051 0.466298,0.34026 1.708656,0.43541 2.23976,0.46111 0.07149,0.003 0.142811,-0.01 0.214092,-0.0165 0.04951,-0.004 0.103758,0.006 0.148221,-0.0165 0.0074,-0.004 0.241244,-0.16705 0.197626,-0.24702 -0.07035,-0.12898 -0.19008,-0.28042 -0.312908,-0.3623 -0.328005,-0.21866 -1.186601,-0.57067 -1.597479,-0.46111 -0.123295,0.0329 -0.214115,0.12705 -0.312908,0.19762 -0.09669,0.0691 -0.243387,0.12628 -0.312908,0.23055 -0.110872,0.1663 -0.126674,0.34176 -0.181153,0.52699 -0.04962,0.1687 -0.158812,0.32327 -0.197625,0.49404 -0.03446,0.15162 -0.03142,0.26177 -0.04941,0.41171 -0.0303,0.25247 -0.08,0.50367 -0.09881,0.75753 -0.02976,0.40181 -0.01922,1.11709 0.27997,1.41627 0.446182,0.44617 1.58245,0.55864 2.190356,0.54345 0.147301,-0.004 0.533177,0.0118 0.658754,-0.0823 0.118654,-0.089 0.164045,-0.33351 0.197626,-0.46111 0.06694,-0.25436 -0.142319,-0.31994 -0.329373,-0.44464 -0.111512,-0.0743 -0.219192,-0.15427 -0.329382,-0.23056 -0.143994,-0.0997 -0.264987,-0.12101 -0.42819,-0.14821 -0.117617,-0.0196 -0.21216,-0.10225 -0.329374,-0.11528 -0.07345,-0.008 -0.581663,-0.0303 -0.642289,0 -0.02083,0.0104 -0.03003,0.0365 -0.0494,0.0494 -0.07037,0.0469 -0.02698,-0.007 -0.09882,0.0165 -0.06277,0.0209 -0.12628,0.0804 -0.181153,0.11528 -0.09148,0.0582 -0.172052,0.0695 -0.263503,0.11528 -0.118016,0.059 -0.227226,0.18204 -0.312908,0.27996 -0.230068,0.26293 -0.30895,0.58494 -0.461129,0.88928 -0.08997,0.17994 -0.168317,0.37099 -0.181153,0.57639 -0.0078,0.12402 0.01544,0.25527 0,0.37877 -0.01,0.08 -0.04048,0.18345 -0.01647,0.26349 0.06835,0.22783 0.235695,0.4809 0.411725,0.64226 0.09287,0.0851 0.22633,0.14325 0.329373,0.21408 0.156421,0.10753 0.306761,0.26042 0.477595,0.34583 0.05008,0.025 0.118465,0.0351 0.164695,0.0659 0.06295,0.042 0.534098,0.37193 0.543472,0.42818 0.04482,0.26892 0,0.73285 0,1.00455 0,0.6316 0.0037,1.26247 -0.01647,1.89384 -0.02444,0.76571 -0.0175,0.91656 -0.08234,1.59742 -0.08904,0.93487 -0.224325,1.8646 -0.312908,2.79959 -0.119405,1.26032 -0.142578,2.52437 -0.214092,3.78769 -0.06798,1.20084 -0.257939,2.42324 -0.08235,3.623 0.03575,0.24426 0.210782,1.36036 0.131756,1.59742 -0.03665,0.10993 -0.117295,0.0276 -0.18116,0.0659 -0.02893,0.0174 -0.103139,0.17766 -0.115283,0.21409 -0.04262,0.12786 0.226291,-0.12523 0.197626,0.0659 -0.01365,0.091 -0.05275,0.17636 -0.08234,0.26349 -0.179352,0.52808 -0.661489,1.50868 -0.411717,2.09146 0.0066,0.0154 0.02012,0.0961 0.03293,0.11528 0.09233,0.13849 0.354134,0.25972 0.477602,0.32936 0.887776,0.50077 1.811589,0.55458 2.816172,0.59286 0.4132,0.0157 1.223278,0.0278 1.646884,0 0.923126,-0.0605 1.842435,-0.2205 2.766767,-0.26349 0.422192,-0.0221 0.845845,0.0194 1.268098,0 0.659462,-0.0303 1.281784,-0.13864 1.92686,-0.26349 0.511547,-0.099 1.019889,-0.2145 1.531601,-0.3129 0.45517,-0.0875 0.916845,-0.15098 1.366915,-0.26349 0.201056,-0.0503 0.559938,-0.17547 0.559938,-0.21409 0,-0.0226 -0.04324,0.0165 -0.06587,0.0165 -0.09178,0 -0.369807,-0.0913 -0.378786,-0.0823 -0.172014,0.17201 0.289382,-0.0756 0.312908,-0.0823 0.06334,-0.0181 0.132259,-0.008 0.197626,0 0.446498,0.0558 0.854121,0.096 1.268097,0.27996 0.06995,0.0311 0.145398,-0.001 0.214099,0.0329 0.02083,0.0104 0.04204,0.0273 0.0494,0.0494 0.014,0.042 -0.01362,0.0876 -0.01647,0.13174 -0.0092,0.14285 -0.02021,0.2856 -0.03294,0.42818 -0.01541,0.17258 -0.101611,1.00136 -0.115282,1.11983 -0.165547,1.43467 -0.26267,2.87292 -0.345847,4.31467 -0.05033,0.87234 -0.116419,1.74457 -0.131748,2.61844 -0.0086,0.48818 0,0.9775 0,1.46568 0,0.14272 0,0.28545 0,0.42817 0,0.0724 -0.03832,0.48646 -0.04941,0.27996 -0.0072,-0.13497 0,-0.27032 0,-0.40547"
         id="path10" />
      <path
         style="fill:none;stroke:#000000;stroke-width:0.3"
         d="m 79.583774,258.7064 c 0.214098,0.0462 0.425997,0.10419 0.642289,0.13873 0.444447,0.071 0.918244,0.01 1.366914,0.0165 0.918681,0.0139 1.831835,0.0214 2.750296,0 0.200973,-0.005 0.793949,-0.0702 1.004602,0 0.02048,0.007 0.139888,0.0135 0.148212,0.0329 0.01296,0.0303 0.0057,0.0664 0,0.0988 -0.191037,1.08253 -0.753777,2.07729 -1.301036,3.01368 -0.123034,0.21051 -0.25333,0.41671 -0.378785,0.62579 -0.19299,0.32164 -0.370811,0.68475 -0.625817,0.97162 -0.05917,0.0666 -0.586216,0.43052 -0.642281,0.37877 -0.07076,-0.0653 -0.277707,-0.43589 -0.312907,-0.49405 -0.233021,-0.38498 -0.243779,-0.37354 -0.477597,-0.80694 -0.181853,-0.33708 -0.324008,-0.69624 -0.527007,-1.02102 -0.364408,-0.58304 -0.799291,-1.12989 -1.25163,-1.64682 -0.169016,-0.19315 -0.339106,-0.38538 -0.510535,-0.57639 -0.02074,-0.0231 -0.04567,-0.0423 -0.06588,-0.0659 -0.01289,-0.015 -0.02006,-0.0644 -0.03293,-0.0494 -0.03848,0.0449 -0.04392,0.10979 -0.06588,0.16468"
         id="path11" />
      <path
         style="fill:none;stroke:#000000;stroke-width:0.3"
         d="m 83.668062,247.84445 c 1.19063,0.061 2.382528,0.0181 3.573727,0.0329 0.395375,0.005 0.790437,0.041 1.185762,0.0329 0.389464,-0.008 0.769326,-0.10876 1.152813,-0.16469 0.443265,-0.0646 0.886312,-0.0988 1.333977,-0.0988 0.586525,0 1.161351,-0.0914 1.745699,-0.11527 0.02053,-8e-4 0.610008,0.0119 0.625817,0 0.04374,-0.0328 0.01045,-0.26631 0.01646,-0.32937 0.01011,-0.1061 0.05452,-0.20691 0.06588,-0.31289 0.02299,-0.21452 0.03035,-0.88536 0.03294,-0.95516 0.02416,-0.6522 0.03862,-0.73908 0.09881,-1.41626 0.07792,-0.87656 0.115149,-1.50831 0.03294,-2.40436 -0.08092,-0.88198 -0.315761,-1.73892 -0.411718,-2.61844 -0.04632,-0.42459 -0.0512,-0.87537 -0.06588,-1.30099 -0.04068,-1.17949 -0.01177,-2.33061 0.03294,-3.50772 0.01339,-0.35276 0.03486,-0.70248 0.06588,-1.05397 0.0154,-0.17469 0.04281,-0.27007 0.03293,-0.42817 -0.01482,-0.23716 -0.05734,-0.46935 -0.06587,-0.70814 -0.02143,-0.60027 0.03294,-1.19683 0.03294,-1.79503 0,-0.18664 0,-0.37328 0,-0.55992 0,-0.0769 0,-0.1537 0,-0.23055 0,-0.0165 0.0068,-0.0644 0,-0.0494 -0.03377,0.0743 -0.05261,0.15457 -0.08234,0.23056 -0.01971,0.0504 -0.05779,0.20167 -0.06588,0.14821 -0.0291,-0.1924 0,-0.38918 0,-0.58377"
         id="path12" />
      <path
         style="fill:none;stroke:#000000;stroke-width:0.3"
         d="m 93.005888,229.65612 c -1.032553,-0.38325 -1.771351,-0.55256 -2.733829,-0.55256 -0.08307,0 -0.189555,-0.0163 -0.263504,0.0329 -0.01828,0.0122 0.04396,0.001 0.06588,0 0.159284,-0.01 0.318836,-0.0168 0.477594,-0.0329 0.108299,-0.011 1.030266,-0.14055 1.086945,-0.14821 0.543857,-0.0735 0.898901,-0.1227 1.465723,-0.16468 0.459915,-0.0341 0.927116,-0.0149 1.383387,-0.0988 0.33146,-0.061 0.657501,-0.14878 0.988129,-0.21409 0.290021,-0.0573 0.578797,-0.0659 0.872847,-0.0659 0.266388,0 0.178713,0.0102 0.378786,-0.0165 0.03848,-0.005 0.115281,-0.0553 0.115281,-0.0165 0,0.0443 -0.07805,0.0419 -0.115281,0.0659 -0.250434,0.16098 -0.115282,0.19243 -0.115282,-0.41591"
         id="path13" />
      <path
         style="fill:none;stroke:#000000;stroke-width:0.3"
         d="m 89.85524,224.17957 c 0.0072,-0.0933 0.114887,-0.27277 0.02156,-0.27995 -0.09332,-0.007 -0.113672,0.2966 -0.02156,0.27995 0.487151,-0.088 0.910026,-0.39991 1.388483,-0.52698 0.293015,-0.0778 0.603837,-0.0551 0.905785,-0.0823 0.488556,-0.0441 0.977059,-0.0888 1.465723,-0.13174 1.025308,-0.0901 2.051865,-0.17424 3.079676,-0.23056 0.329295,-0.0181 0.659074,-0.0275 0.988134,-0.0494 0.008,-5.3e-4 0.297341,-0.0522 0.329374,-0.0329 0.09461,0.0568 0.02727,0.2759 0.01646,0.3623"
         id="path14" />
      <path
         style="fill:none;stroke:#000000;stroke-width:0.3"
         d="m 80.275471,206.22928 c 1.953853,-0.15805 3.920421,-0.24799 5.879373,-0.13178 1.238406,0.0735 2.466358,0.2851 3.705489,0.32936 0.607497,0.0217 0.393674,-0.0378 0.971664,0.0494 0.403087,0.0608 0.803063,0.16444 1.202227,0.24702 0.08574,0.0178 0.674859,0.0985 0.724625,0.14822 0.138549,0.13854 -0.06563,0.38684 -0.115274,0.57638 -0.238516,0.91065 -0.447804,1.84267 -0.527007,2.78313 -0.108829,1.29224 -0.09039,2.5759 -0.115282,3.87003 -0.01963,1.02069 -0.135329,2.0443 -0.01646,3.06308 0.06616,0.56708 0.193498,1.12254 0.312907,1.67976 0.05732,0.26747 0.06912,0.54079 0.131749,0.80694 0.121462,0.51621 0.309798,1.02818 0.477594,1.53154 0.12419,0.37256 0.15743,0.62208 0.214098,1.00456 0.0038,0.0258 0.102444,0.68985 0.131749,0.6752 0.06353,-0.0318 0.0494,-0.11389 0.0494,-0.16468 0.104305,0.24703 0.208606,0.49407 0.31291,0.74111"
         id="path15" />
      <path
         style="fill:none;stroke:#000000;stroke-width:0.3"
         d="m 80.53897,202.0464 c 0.356825,0.21955 0.700302,0.46244 1.070475,0.65864 0.08944,0.0474 0.197493,0.0445 0.296442,0.0659 0.815446,0.17587 1.619747,0.20427 2.453851,0.21408 0.241528,0.003 0.48323,0.008 0.724633,0 0.549934,-0.0187 1.149292,-0.11174 1.696289,-0.0823 0.587878,0.0316 1.113774,0.35757 1.696294,0.42818 1.134756,0.13754 2.312495,0.18148 3.458453,0.19761 0.473485,0.007 1.12362,-7.9e-4 1.56454,-0.0494 0.345326,-0.038 0.934871,-0.20431 1.284573,-0.26349 0.546293,-0.0925 1.111446,-0.0494 1.663356,-0.0494 0.560197,0 1.120211,-0.0165 1.679821,-0.0165 0.986729,0 1.980173,0.0423 2.931453,-0.26349 0.28897,-0.0929 0.48711,-0.16093 0.7905,-0.18116 0.0387,-0.003 0.083,-0.038 0.11529,-0.0165 0.0521,0.0347 -0.0445,0.11875 -0.0494,0.18115 -0.008,0.1061 0,0.21286 0,0.31929"
         id="path16" />
      <path
         style="fill:none;stroke:#000000;stroke-width:0.3"
         d="m 101.96494,202.68857 c 0.14273,-0.53796 0.96615,-1.47115 0.42819,-1.61388 -0.53796,-0.14273 -0.41902,1.05738 -0.42819,1.61388 -0.008,0.47802 0.30069,0.91167 0.37878,1.38333 0.0601,0.36302 0.003,0.73666 0.0329,1.10337 0.008,0.10221 0.0214,0.21397 0.0824,0.29643 0.11327,0.15325 0.79108,0.0465 0.70816,-0.16468 -0.29975,-0.76332 -0.83442,-1.41201 -1.25163,-2.11801"
         id="path17" />
      <path
         style="fill:none;stroke:#000000;stroke-width:0.3"
         d="m 109.88645,201.91865 c -0.0224,-0.0831 -0.1663,-0.67896 -0.2635,-0.94277 -0.0204,-0.0555 -0.008,-0.15496 -0.0659,-0.16468 -0.0499,-0.008 -0.0474,0.0997 -0.0329,0.14821 0.0974,0.32761 0.31912,0.62018 0.36231,0.95924 0.0685,0.53785 -0.11614,1.09049 -0.0329,1.62627 0.0786,0.5061 0.33585,0.96775 0.51054,1.44921 0.0623,0.17177 0.2635,0.49928 0.2635,0.7001"
         id="path18" />
      <path
         style="fill:none;stroke:#000000;stroke-width:0.3"
         d="m 109.81926,201.65495 c 0.27492,0.70135 0.4524,1.44921 0.82477,2.10406 0.0597,0.10509 0.2415,-0.0118 0.36231,-0.0165 0.82292,-0.0316 1.64696,-0.0348 2.47032,-0.0494 1.14302,-0.0202 2.28657,-0.0111 3.42553,-0.13174 1.39386,-0.14769 2.71549,-0.65704 4.10074,-0.85635 0.3983,-0.0573 1.5192,-0.17717 2.04213,-0.21408 0.40556,-0.0286 0.81333,-0.0182 1.2187,-0.0494 0.68932,-0.053 1.35692,-0.23219 2.04214,-0.29643 0.19025,-0.0178 0.19924,-0.0165 0.32937,-0.0165 0.0334,0 0.0752,-0.0401 0.0988,-0.0165 0.0123,0.0123 -0.0136,0.0323 -0.0165,0.0494 -0.0126,0.076 -0.0118,0.15365 -0.0165,0.23056 -0.0225,0.37182 -0.0256,0.74749 -0.0329,1.11983 -0.0151,0.76864 0.0124,1.53693 -0.0164,2.30555 -0.0299,0.79611 -0.0916,1.59162 -0.11529,2.38789 -0.0195,0.65748 0.0318,1.30463 0.0659,1.95972 0.044,0.8447 0.0105,1.6921 0.0659,2.5361 0.0285,0.43494 0.0923,0.86689 0.13176,1.30098 0.0919,1.0111 0.20385,2.01519 0.24704,3.03015 0.0182,0.42691 -0.004,0.84727 0.0659,1.26806 2.4e-4,0.001 0.0346,0.364 0.0494,0.37876 0.0823,0.0823 -0.0643,-0.40681 -0.0659,-0.4117"
         id="path19" />
      <path
         style="fill:none;stroke:#000000;stroke-width:0.3"
         d="m 132.53113,217.92167 c 0.36159,-0.36162 -0.0821,0.0623 0.26349,-0.21409 0.0136,-0.0108 -0.0325,0.0125 -0.0494,0.0165 -0.0765,0.018 -0.15297,0.0368 -0.23057,0.0494 -0.51788,0.0839 -1.04342,0.12514 -1.56454,0.18114 -1.23742,0.13294 -2.46072,0.29487 -3.68902,0.49405 -0.56129,0.091 -1.70988,0.3002 -2.30564,0.3129 -0.41221,0.009 -0.82317,-0.0819 -1.23517,-0.0659 -0.22969,0.009 -0.45014,0.0934 -0.67522,0.14014 0.19763,0.37048 0.44254,0.71938 0.59288,1.11144 0.057,0.14873 0.0119,0.31836 0.0165,0.47757 0.006,0.21956 0.0133,0.43911 0.0165,0.65873 0.008,0.55413 0,1.10911 0,1.66329 0,0.52013 -0.0408,1.08123 0.0329,1.59742 0.0306,0.21387 0.038,0.43625 0.11528,0.64226 0.0168,0.0447 0.12563,0.27076 0.11528,0.27995 -0.0459,0.0408 -0.10979,0.0549 -0.16468,0.0823"
         id="path20" />
      <path
         style="fill:none;stroke:#000000;stroke-width:0.3"
         d="m 120,225.48298 c 0.64927,0.11293 0.85749,0.18388 1.48052,0.17873 0.77879,-0.006 1.6005,-0.0341 2.37152,-0.18115 1.00986,-0.19266 2.01993,-0.57629 3.04673,-0.69166 0.38092,-0.0428 0.73151,-0.0547 1.10342,0 0.0908,0.0134 0.26349,0.0614 0.26349,0.0659 0,0.0274 -0.0261,0.0513 -0.0494,0.0659 -0.55882,0.34926 -0.56602,0.08 -0.33353,0.56234"
         id="path21" />
      <path
         style="fill:none;stroke:#000000;stroke-width:0.3"
         d="m 128.00229,224.78894 c 0.21916,-0.75503 0.004,-0.32043 0.27996,-0.64226 0.0586,-0.0684 0.11699,-0.13769 0.16469,-0.21409 0.009,-0.014 0,-0.0659 0,-0.0494 0,0.42306 0.0871,0.4965 0.19763,0.88928 0.10312,0.36649 0.12182,0.75809 0.14822,1.13631 0.0474,0.67997 -0.006,1.36184 -0.0165,2.04206 -0.0116,0.78508 0.0329,1.56977 0.0329,2.35494 0,0.42818 0,0.85635 0,1.28453 0,0.12076 0,0.24153 0,0.36229 0,0.0933 0.005,0.18676 0,0.27996 -9e-4,0.0173 -2e-4,0.0434 -0.0165,0.0494 -0.0786,0.0295 -0.16484,0.0323 -0.24704,0.0494 -0.42779,0.0892 -0.84394,0.16215 -1.28456,0.13175 -0.14756,-0.0102 -0.0892,-0.029 -0.18116,-0.0494 -0.32083,-0.0713 -0.55524,-0.19396 -0.88931,-0.18116 -0.82956,0.0319 -1.66031,0.16882 -2.4868,0.24702 -0.73949,0.07 -1.48163,0.0689 -2.2233,0.033 -0.14845,-0.007 -0.29619,-0.026 -0.44465,-0.033 -0.0877,-0.004 -0.17571,0 -0.26351,0 -0.0274,0 -0.0629,0.0194 -0.0823,0 -0.014,-0.014 0.0279,-0.0304 0.0329,-0.0494 0.006,-0.0211 -0.004,-0.0443 0,-0.0659 0.002,-0.0111 0.0609,-0.31417 0.0659,-0.32937 0.0628,-0.18841 0.0823,-0.0544 0.0823,-0.32936 0,-0.75355 -0.009,-1.50214 -0.0329,-2.25615 -0.0346,-1.08956 -0.0431,-0.78425 -0.0659,-2.02558 -0.004,-0.20856 0,-0.41719 0,-0.62579 0,-0.17017 -0.09,-0.3661 0,-0.51052 0.16662,-0.26734 0.47211,-0.41719 0.70816,-0.62579 0.36781,0.3129 0.72002,0.64511 1.10342,0.93869 0.22731,0.17406 0.48348,0.30678 0.72463,0.46111 0.5659,0.36216 1.13846,0.72135 1.67982,1.11983 0.63099,0.46446 1.22313,0.98044 1.7951,1.51508 0.31538,0.29481 0.61653,0.62035 0.9552,0.88928 0.124,0.0985 0.27361,0.16213 0.39525,0.26349 0.21269,0.17723 0.38955,0.4065 0.59287,0.59286 0.16784,0.15384 0.4748,0.26388 0.36232,0.27996 -0.0554,0.008 -0.10946,-0.0237 -0.16468,-0.0329 -0.33659,-0.0561 -0.0442,0.0855 -0.50877,-0.45524"
         id="path22" />
      <path
         style="fill:none;stroke:#000000;stroke-width:0.3"
         d="m 128.64457,224.77247 c -0.21083,1.0324 0.0398,0.58591 -0.56003,1.18567 -0.0961,0.0961 -0.18388,0.20032 -0.27999,0.29643 -0.51786,0.51784 -1.10601,1.07326 -1.71274,1.48213 -0.39817,0.26832 -0.81574,0.50739 -1.23518,0.74107 -0.36343,0.20248 -0.77444,0.26951 -1.15281,0.42817 -0.24661,0.10342 -0.43617,0.31803 -0.65876,0.46112 -0.0736,0.0473 -0.52924,0.29664 -0.55994,0.31289 -0.26616,0.14091 -0.56519,0.27957 -0.83991,0.39524 -0.20188,0.085 -0.42098,0.12595 -0.60934,0.24703 -0.22757,0.14628 -0.13,0.66278 -0.1647,0.90574 -0.008,0.0567 -0.0178,0.14475 -0.0329,0.19762 -0.005,0.0182 -0.0595,0.0707 -0.0494,0.0988 0.0223,0.0625 0.0549,0.12076 0.0823,0.18115"
         id="path23" />
      <path
         style="fill:none;stroke:#000000;stroke-width:0.3"
         d="m 132.74522,217.72408 c 0.0787,0.12921 1.61869,-0.0541 1.74569,0.11524 0.0395,0.0527 0,0.13174 0,0.19762 0,0.0933 0,0.18664 0,0.27996 0,0.35084 0.009,0.70372 -0.0165,1.05396 -0.0114,0.15416 -0.0407,0.30678 -0.0494,0.46111 -0.0399,0.70411 0.0191,1.42236 0.0659,2.1244 0.0457,0.68498 0.0515,1.41277 0.16469,2.09146 0.0393,0.23545 0,0.50256 0,0.74107 0,0.0988 0,0.19762 0,0.29643 0,0.0164 0.0162,0.0521 0,0.0494 -0.0391,-0.007 -0.0641,-0.0469 -0.0988,-0.0659 -0.22072,-0.12039 -0.0823,0.0994 -0.0823,0.41412"
         id="path24" />
      <path
         style="fill:none;stroke:#000000;stroke-width:0.3"
         d="m 134.4745,225.48295 c -2.81139,-0.50495 -0.81302,-0.48813 -0.59293,-0.39762 0.22009,0.0905 0.35497,0.39942 0.59293,0.39762 0.54475,-0.004 1.0521,-0.28342 1.58096,-0.41409 0.37155,-0.0918 0.75569,-0.13541 1.13635,-0.16469 0.0627,-0.005 0.58414,-0.0466 0.59287,0.0165 0.0257,0.18567 0,0.37487 0,0.56231"
         id="path25" />
      <path
         style="fill:none;stroke:#000000;stroke-width:0.3"
         d="m 133.72061,229.79675 c 0.868,-0.13998 0.34254,-0.12614 0.98439,-0.0345 0.83143,0.11877 1.56405,0.24703 2.40446,0.24703 0.32004,0 0.65614,-0.0627 0.97166,-0.11528 0.53733,-0.0896 -0.16917,-0.006 0.51053,-0.13175 0.23375,-0.0433 0.42083,0.0647 0.64229,0.0988 0.0651,0.01 0.13233,-0.009 0.19762,0 0.31848,0.0425 -0.0129,0.0329 0.27997,0.0329 0.0549,0 0.16967,-0.0547 0.1647,0 -0.006,0.0713 -0.0606,0.22731 -0.11528,0.18115 -0.0709,-0.0599 0,-0.18563 0,-0.27844"
         id="path26" />
      <path
         style="fill:none;stroke:#000000;stroke-width:0.3"
         d="m 137.10946,230.00928 c 0.005,0.25801 0.0202,0.51599 0.0165,0.77404 -0.004,0.26438 -0.05,0.52654 -0.0659,0.79047 -0.0668,1.11288 -0.16764,2.22503 -0.34584,3.32658 -0.10607,0.65566 -0.25192,1.30218 -0.34585,1.95972 -0.0776,0.54349 0.0173,-0.003 -0.0823,0.3623 -0.0202,0.0741 0.004,0.15379 0,0.23055 -0.012,0.2528 -0.0291,0.50913 -0.0824,0.75753 -0.0114,0.0531 -0.0683,0.24094 -0.0988,0.24704 -0.0194,0.004 -0.0308,-0.0263 -0.0494,-0.0329 -0.11003,-0.0393 -0.24739,-0.064 -0.36232,-0.0823 -0.3646,-0.0583 -0.73707,-0.0917 -1.10342,-0.13175 -0.54064,-0.0591 -1.08651,-0.14592 -1.63041,-0.16467 -0.71768,-0.0247 -1.44007,0.009 -2.15742,0.0329 -0.79473,0.0265 -1.59473,0.0642 -2.38798,-0.0165 -0.89132,-0.0906 -1.76418,-0.27068 -2.61854,-0.52698 -0.16203,-0.0486 -0.7955,0.0563 -0.88932,0 -0.0349,-0.0209 -0.0165,-0.22491 -0.0165,-0.27995 0,-0.31839 0.005,-0.63682 0,-0.95516 -0.0103,-0.64195 -0.0598,-1.28355 -0.0329,-1.92678 0.009,-0.21681 0.0494,-0.42358 0.0494,-0.64226 0,-0.011 -0.0381,-0.62479 -0.0494,-0.65873 -0.0453,-0.13604 -0.0335,0.0596 -0.0494,-0.13174 -0.008,-0.0926 -0.0165,-0.18697 -0.0165,-0.27996 0,-0.022 0.004,-0.0874 0,-0.0659 -0.12681,0.6339 0.17117,0.40392 -1.08694,-0.11525"
         id="path27" />
      <path
         style="fill:none;stroke:#000000;stroke-width:0.3"
         d="m 130.8019,238.07879 c -0.0988,0.11526 -0.41171,0.24696 -0.29645,0.34578 0.11526,0.0988 0.30767,-0.49719 0.29645,-0.34578 -0.0317,0.42786 -0.25826,0.81883 -0.36233,1.23506 -0.0668,0.26717 -0.1468,1.45314 -0.14821,1.48214 -0.0112,0.23028 0.003,0.46113 0,0.69166 -0.0121,0.84676 -0.0735,1.6884 -0.0823,2.5361 -0.002,0.14821 0,0.29643 0,0.44465 -0.005,0.24702 -0.0128,0.49401 -0.0165,0.74106 -0.003,0.2255 0.0229,0.47957 0,0.70814 -0.0741,0.74116 -0.12564,1.47794 -0.14823,2.2232 -0.0148,0.48811 0.0144,0.97754 0,1.46567 -0.009,0.31617 -0.0615,0.62632 -0.0823,0.93869 -0.009,0.14098 -0.0262,0.83014 0.0329,0.88928 0.0358,0.0358 -0.0239,-0.0984 -0.0329,-0.14822 -0.008,-0.043 0.0421,-0.27385 0.13175,-0.21408 0.0409,0.0273 -0.0443,0.26408 -0.0494,0.29643 -0.10289,0.65164 -0.0987,1.31636 -0.13175,1.97618 -0.005,0.10965 0,0.21958 0,0.32937 0,0.0165 0.0135,0.04 0,0.0494 -0.17998,0.12598 -0.47509,0.0659 -0.65024,0.0659"
         id="path28" />
      <path
         style="fill:none;stroke:#000000;stroke-width:0.3"
         d="m 125.74596,253.95374 c 1.18828,-0.10331 2.38264,-0.0655 3.57374,-0.0655 0.92516,0 1.84224,0.10373 2.76676,0.13175 0.56704,0.0172 1.15003,0.0145 1.71276,-0.0659 0.11617,-0.0166 0.23173,-0.0385 0.34584,-0.0659 0.0789,-0.0189 0.14553,-0.12366 0.11529,-0.0329 -0.009,0.026 -0.0435,0.0335 -0.0659,0.0494 -0.0545,0.0389 -0.11274,0.0729 -0.16469,0.11528 -0.0965,0.0786 -0.19007,0.16095 -0.27997,0.24702 -0.26643,0.25509 -0.56312,0.55423 -0.80697,0.83988 -0.28969,0.33932 -0.51136,0.72453 -0.79051,1.07043 -0.25555,0.31665 -0.47795,0.56323 -0.77403,0.82341 -0.18987,0.16685 -0.27275,0.19118 -0.42819,0.37877 -0.24704,0.29813 -0.4621,0.60394 -0.72463,0.88929 -0.22924,0.24916 -0.50175,0.48129 -0.67522,0.774 -0.0632,0.10657 -0.14931,0.34232 -0.21409,0.32936 -0.0194,-0.004 -0.0272,-0.0305 -0.0329,-0.0494 -0.0329,-0.10826 -0.0516,-0.22044 -0.0823,-0.32935 -0.0989,-0.35076 -0.21304,-0.72171 -0.36232,-1.05397 -0.40514,-0.90172 -0.96865,-1.63593 -1.58101,-2.40436 -0.13143,-0.16493 -0.26714,-0.32652 -0.39525,-0.49404 -0.1574,-0.20583 -0.27391,-0.44667 -0.46113,-0.62579 -0.19697,-0.18847 -0.45015,-0.30764 -0.67522,-0.46145 z"
         id="path29" />
      <path
         style="fill:none;stroke:#000000;stroke-width:0.3"
         d="m 80.473094,197.55054 c 0.318397,0.17565 0.623877,0.37708 0.955191,0.52694 0.133461,0.0604 0.284654,0.0696 0.428188,0.0988 0.722265,0.14712 1.456899,0.11528 2.190356,0.11528 1.911921,0 3.820443,-0.0881 5.731161,-0.13175 0.486494,-0.0111 1.342773,-0.001 1.877448,0.0165 0.509067,0.0168 1.03831,0.0617 1.548075,0.0329 1.298845,-0.0733 2.582241,-0.40193 3.886644,-0.37877 0.912715,-0.009 1.821929,0.0969 2.733829,0.11528 0.941034,0.019 1.892314,-0.009 2.832644,-0.0329 1.56157,-0.0404 3.13714,-0.23653 4.69362,-0.19762 2.37689,0.0594 -1.19294,0.002 1.33398,0.0823 0.63108,0.0201 1.26257,0.0249 1.89392,0.0329 1.14209,0.0145 2.28423,-0.0502 3.42552,-0.0823 0.88154,-0.0248 1.79635,0.0111 2.66795,-0.13175 0.37545,-0.0615 0.58921,-0.17017 0.95519,-0.27996 0.27302,-0.0819 0.54816,-0.1566 0.82344,-0.23055 0.79366,-0.21322 1.59305,-0.3947 2.40446,-0.52699 0.71764,-0.117 1.43849,-0.1759 2.15741,-0.27995 2.1633,-0.3131 -2.03199,0.26587 2.23977,-0.3623 0.63979,-0.0941 1.28759,-0.0673 1.92685,-0.16469 1.75043,-0.26672 0.41773,-0.10836 1.79511,-0.34583 1.07207,-0.18483 2.16532,-0.27683 3.24436,-0.4117 1.01578,-0.12697 2.04142,-0.31255 3.0632,-0.37877 1.07847,-0.0699 2.15097,0.052 3.22791,-0.0494 0.0741,-0.007 0.57409,-0.14352 0.65875,-0.16468 0.48213,-0.12053 0.98049,-0.11895 1.46572,-0.21409 1.30426,-0.25573 0.15215,-0.0623 0.7411,-0.16468 0.28104,-0.0489 0.55625,-0.12768 0.8399,-0.16468 0.077,-0.01 0.16832,0 0.24704,0 0.0165,0 0.0652,-0.005 0.0494,0 -0.28425,0.0812 -0.57213,0.14934 -0.85638,0.23055 -0.17696,0.0506 -0.34423,0.14305 -0.527,0.16469 -0.0339,0.004 0,-0.0682 0,-0.1023"
         id="path30" />
      <path
         style="fill:none;stroke:#000000;stroke-width:0.3"
         d="m 142.66215,190.89735 c -0.0393,0.40621 -0.10087,0.81089 -0.11797,1.21864 -0.0168,0.40042 0.0191,0.80143 0.0165,1.20218 -0.0223,3.38851 -0.0434,-1.01634 -0.0988,2.86547 -0.004,0.24724 -0.0219,0.49995 0.0329,0.74107 0.01,0.0431 0.0878,-0.011 0.13174,-0.0165 0.0165,-0.0165 0.0475,-0.0726 0.0494,-0.0494 0.0132,0.16375 -0.009,0.32843 -0.0138,0.49264"
         id="path31" />
      <path
         style="fill:none;stroke:#000000;stroke-width:0.3"
         d="m 146.72726,192.8251 c 0.006,-0.41203 0.011,-0.82406 0.0165,-1.23609 0.0172,0.0301 0.0816,-0.0631 0.0988,-0.0329 0.022,0.0384 0.0205,0.0877 0.0165,0.13174 -0.0345,0.38006 -0.13865,0.75571 -0.13176,1.13728 0.25407,2.23894 0.17942,0.94831 0.14823,3.19386 -0.005,0.38422 0.0463,0.7713 0,1.15277 -1e-5,8e-5 -0.087,0.25031 -0.13175,0.26349 -0.0254,0.007 0,-0.0529 0,-0.0794"
         id="path32" />
      <path
         style="fill:none;stroke:#000000;stroke-width:0.3"
         d="m 146.72728,192.82388 c 0.14273,0.63136 0.28545,1.26273 0.42818,1.89409 -0.008,0 -0.1139,-0.0137 -0.0823,0.0494 0.0101,0.0202 0.0433,0.0146 0.0659,0.0165 0.24126,0.0201 0.48261,0.0426 0.72462,0.0494 0.63517,0.0178 1.74395,-5.2e-4 2.33858,-0.0823 1.20699,-0.16606 2.40682,-0.38137 3.60668,-0.59286 1.27099,-0.22403 2.52941,-0.55598 3.78783,-0.83988 1.87843,-0.42377 3.77754,-0.8438 5.71469,-0.82341 0.77485,0.008 1.5123,0.22376 2.2727,0.32937 0.434,0.0603 0.86595,0.01 1.30104,0.0329 0.21555,0.0114 0.42664,0.073 0.64229,0.0823 0.91146,0.0396 1.78336,-0.0698 2.68442,-0.16468 0.87055,-0.0916 1.77557,0.0165 2.65148,0.0165 0.35537,0 1.04156,-0.0468 1.35046,0 0.16408,0.0249 -0.2226,0.25598 -0.27997,0.4117 -0.0599,0.16267 0,0.3467 0,0.52005"
         id="path33" />
      <path
         style="fill:none;stroke:#000000;stroke-width:0.3"
         d="m 174.40405,189.11878 c -0.22812,0.35681 -0.54487,0.67056 -0.68435,1.07043 -0.10307,0.29549 5.3e-4,0.62622 -0.0164,0.93869 -0.0214,0.39056 -0.0608,0.77996 -0.0988,1.16924 -0.0319,0.32744 -0.3814,2.7375 -0.29643,3.72182 0.18066,2.09255 0.092,0.8884 0.24703,1.66328 0.0166,0.0832 0.16796,0.77401 0.2141,0.77401 0.0165,0 -0.008,-0.0353 0,-0.0494 0.0102,-0.017 0.0301,-0.0286 0.0494,-0.0329 0.21602,-0.048 0.43795,-0.0676 0.65875,-0.0823 1.01528,-0.0677 2.04587,-0.0196 3.0632,-0.0329 0.44465,-0.006 0.88932,-0.011 1.33398,-0.0165 0.44466,-0.005 0.88994,-0.0407 1.33397,-0.0165 0.56235,0.0307 1.12161,0.10649 1.67983,0.18115 1.71371,0.22922 0.13349,0.11057 1.67983,0.2635 0.80723,0.0798 1.61992,0.0328 2.42091,0.18114 0.0981,0.0182 0.30709,0.0914 0.31292,0.0823 0.12649,-0.19678 0.17854,-1.01698 0.18114,-1.0375 0.0709,-0.55997 0.17266,-1.11683 0.21411,-1.67976 0.0246,-0.33399 -0.0113,-0.6697 -0.0165,-1.00456 -0.006,-0.38425 -0.008,-0.76856 -0.0165,-1.15277 -0.008,-0.40079 -0.0329,-0.8013 -0.0329,-1.20218 0,-2.14818 0.019,-0.85938 0.0659,-2.1244 0.0183,-0.49398 -0.0676,-1.02082 -0.24704,-1.48213 -0.0249,-0.0641 -0.0986,-0.24703 -0.0988,-0.24703 -0.0233,0 -0.0277,0.041 -0.0494,0.0494 -0.0794,0.0309 -0.16356,0.0488 -0.24704,0.0659 -0.097,0.0199 -0.89379,0.14537 -0.92226,0.14821 -0.13342,0.0133 -1.34464,0.0651 -1.39984,0.0659 -1.21368,0.0178 -2.43861,0.0226 -3.63962,-0.18115 -0.54889,-0.0931 -1.08528,-0.24929 -1.63042,-0.3623 -0.5208,-0.10797 -1.05396,-0.19343 -1.56454,-0.34584 -0.50713,-0.15137 -0.76506,-0.28989 -1.2681,-0.51051 -0.0766,-0.0336 -0.14966,-0.0777 -0.23057,-0.0988 -0.29531,-0.077 -0.66997,0.0846 -0.95519,0.0988 -0.0603,0.003 -0.12467,-0.0213 -0.18116,0 -0.19521,0.0737 -0.37329,0.18664 -0.55994,0.27996"
         id="path34" />
      <path
         style="fill:none;stroke:#000000;stroke-width:0.3"
         d="m 177.54055,198.25875 c -0.0988,-0.83443 -0.35332,-1.66495 -0.2965,-2.50329 0.0145,-0.21388 0.32127,-0.28482 0.49406,-0.4117 0.5575,-0.4094 0.72299,-0.48855 1.48219,-0.57638 1.70939,-0.19778 3.41438,0.32641 4.84185,1.25158 0.42777,0.27724 0.43081,0.2949 0.75757,0.69166 0.0426,0.0517 0.10075,0.0993 0.11528,0.16468 0.0346,0.15554 -0.18127,0.17006 -0.13175,0.19762 0.54487,0.30331 1.11992,0.54895 1.67988,0.82342"
         id="path35" />
      <path
         style="fill:none;stroke:#000000;stroke-width:0.3"
         d="m 179.2203,194.76738 c 0.52151,0.10979 1.03793,0.41127 1.56454,0.32936 0.3107,-0.0483 0.43641,-0.45286 0.65876,-0.6752 1.66389,-1.66382 1.02416,-0.98589 2.38798,-2.38789 0.27072,-0.27829 0.53651,-0.56134 0.80698,-0.83988 0.0973,-0.10025 0.26172,-0.16106 0.29644,-0.29642 0.13599,-0.53026 0.1318,-1.08689 0.1977,-1.63033"
         id="path36" />
    </g>
  </g>
</svg>
