<?xml version="1.0" encoding="UTF-8" standalone="no"?>
<!-- Created with Inkscape (http://www.inkscape.org/) -->

<svg
   width="240mm"
   height="120mm"
   viewBox="0 0 240 120"
   version="1.1"
   id="svg8"
   inkscape:version="1.3 (0e150ed6c4, 2023-07-21)"
   sodipodi:docname="double-jj.svg"
   xmlns:inkscape="http://www.inkscape.org/namespaces/inkscape"
   xmlns:sodipodi="http://sodipodi.sourceforge.net/DTD/sodipodi-0.dtd"
   xmlns="http://www.w3.org/2000/svg"
   xmlns:svg="http://www.w3.org/2000/svg"
   xmlns:rdf="http://www.w3.org/1999/02/22-rdf-syntax-ns#"
   xmlns:cc="http://creativecommons.org/ns#"
   xmlns:dc="http://purl.org/dc/elements/1.1/">
  <defs
     id="defs2" />
  <sodipodi:namedview
     id="base"
     pagecolor="#ffffff"
     bordercolor="#666666"
     borderopacity="1.0"
     inkscape:pageopacity="0.0"
     inkscape:pageshadow="2"
     inkscape:zoom="1.9724561"
     inkscape:cx="461.35374"
     inkscape:cy="224.0861"
     inkscape:document-units="mm"
     inkscape:current-layer="layer1"
     showgrid="false"
     showborder="true"
     width="200mm"
     showguides="true"
     inkscape:guide-bbox="true"
     inkscape:window-width="1920"
     inkscape:window-height="1200"
     inkscape:window-x="0"
     inkscape:window-y="0"
     inkscape:window-maximized="1"
     inkscape:showpageshadow="2"
     inkscape:pagecheckerboard="0"
     inkscape:deskcolor="#d1d1d1">
    <inkscape:grid
       type="xygrid"
       id="grid815"
       units="mm"
       spacingx="10"
       spacingy="10"
       empspacing="4"
       dotted="false"
       originx="0"
       originy="0"
       visible="false" />
  </sodipodi:namedview>
  <metadata
     id="metadata5">
    <rdf:RDF>
      <cc:Work
         rdf:about="">
        <dc:format>image/svg+xml</dc:format>
        <dc:type
           rdf:resource="http://purl.org/dc/dcmitype/StillImage" />
        <dc:title />
      </cc:Work>
    </rdf:RDF>
  </metadata>
  <g
     inkscape:label="Layer 1"
     inkscape:groupmode="layer"
     id="layer1"
     transform="translate(0,-177)">
    <path
       style="fill:none;stroke:#000000;stroke-width:0.219904"
       d="m 85.670083,239.03055 c -0.01364,0.0491 -0.0205,0.0982 -0.07859,0.12952 -0.160031,0.0863 -0.65648,-0.0124 -0.825209,-0.0236 -0.314268,-0.0208 -0.629264,-0.0332 -0.94309,-0.0589 -0.661232,-0.054 -1.317092,-0.15363 -1.977876,-0.21194 -0.827425,-0.073 -0.630332,-0.006 -1.584918,-0.0353 -1.062643,-0.0332 -2.107977,-0.15597 -3.169838,-0.20018 0.04366,-0.0706 0.09233,-0.13897 0.130984,-0.21194 0.0352,-0.0664 0,-0.21594 0,-0.29437 0,-0.2102 8.5e-4,-0.31954 -0.0131,-0.58874 -0.02473,-0.47801 -0.05277,-0.83636 -0.0262,-1.31877 0.07198,-1.30709 0.268024,-2.61223 0.301268,-3.92101 0.0082,-0.32214 -0.03493,-0.64369 -0.05239,-0.96553 0.250412,-0.0441 0.965578,-0.17765 1.244357,-0.20017 0.564223,-0.0456 0.443258,-0.006 0.851407,0 0.475938,0.007 0.95364,-0.0218 1.427736,-0.0589 0.04863,-0.003 0.09605,-0.0157 0.144079,-0.0236 0.135351,-0.008 0.270477,-0.0201 0.406055,-0.0236 0.424227,-0.0109 0.858864,-0.006 1.283657,0 0.363246,0.006 0.668861,0.0418 1.021683,-0.0236 0.41233,-0.0763 0.861124,-0.0353 1.283651,-0.0353 0.130986,0 0.261971,0 0.392957,0 0.145041,0 0.138884,-0.007 -0.01309,0.0236 0.07422,0.24727 0.182988,0.48819 0.222661,0.74181 0.03952,0.25267 0.02776,0.51055 0.0131,0.76536 -0.07948,1.38137 -0.168075,1.41824 -0.497742,2.87306 -0.08427,0.37186 -0.215206,0.73955 -0.235776,1.11859 -0.02142,0.3946 0.09998,0.69309 0.130983,1.08329 0.0079,0.0998 -0.06976,0.44282 -0.02619,0.52986 0.02982,0.0596 0.08049,0.10884 0.117881,0.16485 0.166908,0.25007 0.314978,0.50992 0.471544,0.76534 z"
       id="path1" />
    <path
       style="fill:none;stroke:#000000;stroke-width:0.219904"
       d="m 85.591496,239.16007 c -0.320893,-0.96574 -1.001192,-1.73021 -1.598022,-2.5551 -0.60326,-0.83378 -1.069712,-1.70657 -1.925481,-2.35496 -0.32115,-0.24333 -0.714385,-0.38103 -1.060978,-0.58874 -0.11118,-0.0667 -0.595022,-0.42017 -0.759709,-0.55341 -0.08953,-0.0724 -0.167121,-0.157 -0.261973,-0.22372 -0.178031,-0.12526 -0.54095,-0.29876 -0.720416,-0.41213 -0.09599,-0.0606 -0.160014,-0.15486 -0.248873,-0.22372 -0.07541,-0.0585 -0.155764,-0.11157 -0.235768,-0.16484 -0.121556,-0.081 -0.257672,-0.14464 -0.379862,-0.22372 -0.137513,-0.089 -0.309831,-0.26946 -0.471546,-0.31793 -0.293239,-0.0879 -0.270722,-0.008 -0.497742,-0.21194"
       id="path2" />
    <path
       style="fill:none;stroke:#000000;stroke-width:0.219904"
       d="m 85.473619,230.98839 c -0.78077,0.31958 -1.380804,0.86728 -2.017182,1.36588 -0.296324,0.23216 -0.597311,0.45955 -0.890693,0.69471 -0.249168,0.19972 -0.871485,0.75494 -1.205065,0.94198 -0.06282,0.0352 -1.044373,0.44022 -1.218158,0.61229 -0.360109,0.35656 -0.576742,0.80141 -0.812114,1.22458 -0.148503,0.26699 -0.370692,0.47104 -0.523941,0.73003 -0.143377,0.24231 -0.246605,0.50064 -0.39295,0.74182 -0.04687,0.0772 -0.125463,0.13673 -0.170285,0.21195 -0.20997,0.35233 -0.04024,0.15595 -0.24887,0.42388 -0.01955,0.0251 -0.04366,0.0471 -0.0655,0.0707 -0.06986,0.0824 -0.146676,0.16043 -0.209577,0.24728 -0.04086,0.0564 -0.230592,0.45452 -0.340554,0.48276 -0.01327,0.003 -4.1e-4,-0.0307 -0.01311,-0.0353 -0.08826,-0.0325 -0.183379,-0.0471 -0.275069,-0.0707"
       id="path3" />
    <path
       style="fill:none;stroke:#000000;stroke-width:0.219904"
       d="m 81.84532,238.8657 c -0.205207,0.13738 -0.529759,0.19547 -0.615625,0.41214 -0.183737,0.46364 -0.09297,0.98085 -0.13099,1.47185 -0.04495,0.58055 -0.07812,1.1618 -0.117886,1.74266 -0.0301,0.43962 -0.06112,0.87919 -0.09168,1.31878 -0.04367,0.47492 -0.09806,0.94913 -0.13099,1.42475 -0.0464,0.67011 -0.05605,1.65946 -0.130984,2.36673 -0.0226,0.2133 -0.09597,0.42173 -0.104787,0.63584 -0.01035,0.2511 0.04974,0.64582 -0.01311,0.88311 -0.0037,0.0142 -0.07563,0.0985 -0.09169,0.11775 0.257607,0.1256 0.500726,0.27896 0.772822,0.37679 0.105714,0.038 0.226809,0.0192 0.340561,0.0236 0.602386,0.0229 1.204705,0.0528 1.807593,0.0589 2.101729,0.0213 1.184193,0.012 2.973362,-0.0589 1.414684,-0.0559 1.091323,0.022 3.143639,-0.15306 1.044852,-0.0891 1.294963,-0.31051 2.449421,-0.30615 0.621816,0.002 2.717122,0.32116 3.340122,0.34147 0.290086,0.009 0.575953,-0.0658 0.864502,-0.0942 0.741512,-0.073 1.483219,-0.14611 2.226744,-0.20016 0.20038,-0.0146 0.401518,-0.0261 0.602533,-0.0236 0.271931,0.003 0.337498,0.0541 0.589429,0.0589 0.0385,7e-4 0.548604,-0.0222 0.641824,-0.0117 0.11617,0.0131 0.21098,0.0942 0.32747,0.0942"
       id="path4" />
    <path
       style="fill:none;stroke:#000000;stroke-width:0.219904"
       d="m 81.098705,231.04726 c 0.290945,-1.23404 0.658149,-2.45304 0.956193,-3.6855 0.210742,-0.87144 0.711239,-2.93757 0.851401,-4.05053 0.0286,-0.22708 0.02649,-1.65298 0.170282,-1.95461 0.0015,-0.003 0.220381,0.142 0.248872,0.15307 0.162294,0.0631 0.427616,0.0785 0.602529,0.0942 0.252745,0.0227 0.525766,0.0194 0.772811,0.0707 0.01534,0.003 0.02428,0.0193 0.0393,0.0236 0.254667,0.0715 0.827696,0.0966 0.929987,0.10598 0.762365,0.0699 1.513762,0.23673 2.279143,0.27081 0.552726,0.0246 3.994977,-0.0753 4.663069,-0.0942 0.519608,-0.0147 1.040301,-0.0122 1.558719,-0.0471 1.781344,-0.11983 1.910241,-0.22408 3.327017,-0.27082 0.272635,-0.009 0.672723,0.039 0.929989,0.0471 0.203682,0.006 0.411128,-0.0307 0.615637,-0.0118 0.09712,0.009 0.191336,0.0359 0.288167,0.0471 0.112579,0.0131 0.227068,-0.002 0.34056,0 0.06455,0.001 0.615099,0.008 0.694219,0.0589 0.0112,0.007 0.0126,0.0229 0.0131,0.0353 0.004,0.0941 0,0.18839 0,0.28259 0,0.32955 0.004,0.69589 -0.0131,1.02441 -0.0611,1.16941 -0.21653,2.32866 -0.28817,3.49711 -0.0566,0.92356 -0.0554,1.85401 -0.0655,2.77885 -0.005,0.52409 0.005,0.24611 0.0524,1.01263 0.003,0.0509 0.01,0.10281 0,0.15307 -0.008,0.0416 -0.09144,0.0942 -0.0524,0.11775 0.14118,0.0852 0.3231,0.0954 0.48465,0.14317"
       id="path5" />
    <path
       style="fill:none;stroke:#000000;stroke-width:0.219904"
       d="m 95.192696,231.06888 c 1.264617,0.003 2.539378,-0.0155 3.798562,-0.13936 0.391036,-0.0385 0.775802,-0.11849 1.165772,-0.16485 0.29753,-0.0354 1.05831,-0.0267 1.24435,-0.0471 0.28532,-0.0313 0.49704,-0.20388 0.75972,-0.28259 0.11264,-0.0338 0.22966,0.008 0.34056,0.0353 0.068,0.017 0.12956,0.0506 0.19648,0.0707 0.0125,0.003 0.03,0.008 0.0393,0 0.0127,-0.0115 0.0124,-0.0633 0.0131,-0.0471 0.005,0.11828 0,0.23674 0,0.35511"
       id="path6" />
    <path
       style="fill:none;stroke:#000000;stroke-width:0.219904"
       d="m 95.192696,231.06888 c 0.442014,0.79741 0.330933,0.29224 0.222675,0.90859 -0.196777,1.1203 -0.112037,0.96985 -0.301261,1.8251 -0.03551,0.16048 -0.400557,1.61291 -0.45845,2.11945 -0.04295,0.37583 -0.06854,0.75317 -0.09169,1.13039 -0.01178,0.19206 0.0049,0.38528 -0.01309,0.57696 -0.05315,0.56655 -0.103726,0.27974 -0.06549,0.81246 0.01014,0.14122 0.01814,0.28257 0.0262,0.42389 6.14e-4,0.0118 -0.01309,0.0353 0,0.0353 0.0041,0 0.01643,-0.19718 0.0262,-0.18839 0.149891,0.13474 0.130984,0.23495 0.130984,0.0694 1.294343,-0.22555 0.824426,-0.17803 2.10884,-0.26959 2.189669,-0.15608 4.379976,-0.24005 6.575456,-0.29437 0.30564,-0.008 0.61119,-0.0182 0.91689,-0.0236 0.46556,-0.008 0.65818,0.0824 0.35367,-0.2826"
       id="path7" />
    <path
       style="fill:none;stroke:#000000;stroke-width:0.219904"
       d="m 102.75048,230.84891 c 0.25325,0.41936 0.54579,0.8214 0.75977,1.25809 0.077,0.1571 0.0802,0.33607 0.10478,0.50632 0.44789,3.10356 -0.002,0.32451 0.36677,3.01434 0.0685,0.49967 0.20047,0.99295 0.23577,1.4954 0.005,0.0819 0.0152,0.83956 0.0524,1.08327 0.0277,0.18157 0.0697,0.36112 0.10479,0.54165 0.013,0.0667 0.0135,0.13649 0.0393,0.20016 0.009,0.0224 0.0244,-0.049 0.0131,-0.0706 -0.30363,-0.58488 -0.39389,-0.27864 -0.15718,-0.68295"
       id="path8" />
    <path
       style="fill:none;stroke:#000000;stroke-width:0.219904"
       d="m 95.192696,231.06888 c 0.567602,0.18512 1.178281,0.28649 1.702803,0.55535 0.435312,0.22313 0.751379,0.59619 1.126474,0.89489 0.947322,0.75437 2.031277,1.64702 3.038847,2.36673 0.36646,0.26175 0.75352,0.49935 1.12648,0.75358 0.42544,0.29003 0.80403,0.63175 1.23126,0.91843 0.17371,0.11657 0.35799,0.21984 0.53703,0.3297 0.27152,0.16659 0.67879,0.32583 0.83831,0.58874 0.0118,0.0194 0.14709,0.30995 0.1048,0.30615 -0.2487,-0.0224 -0.0302,-0.17074 -0.27507,0.1295"
       id="path9" />
    <path
       style="fill:none;stroke:#000000;stroke-width:0.219904"
       d="m 102.75048,230.4938 c -1.23281,0.62865 -0.65278,0.23041 -1.72894,1.25995 -0.1925,0.18416 -0.39159,0.36297 -0.57635,0.55342 -0.37868,0.39035 -1.1696,1.40499 -1.362241,1.62492 -0.403398,0.46054 -0.945985,0.666 -1.453929,1.00086 -0.666554,0.4394 -0.540484,0.58175 -1.074077,1.16569 -0.09865,0.25148 -0.411126,0.29735 -0.589434,0.471 -0.155859,0.0652 -0.153439,0.22831 -0.248872,0.32969 -0.366953,0.38985 -0.05457,-0.063 -0.550138,0.41212 -0.15782,0.15133 -0.250785,0.3229 -0.340562,0.50632 -0.02952,0.0603 -0.06119,0.1963 -0.117888,0.24727 -0.0352,0.0316 -0.08078,0.0525 -0.117881,0.0824 -0.08022,0.0645 -0.39946,0.37359 -0.406052,0.37679 -0.03642,0.0177 -0.07893,-0.0951 -0.0393,-0.10597 0.108927,-0.0298 0.227048,0.0157 0.340574,0.0236"
       id="path10" />
    <path
       style="fill:none;stroke:#000000;stroke-width:0.219904"
       d="m 96.777614,238.51248 c 2.019286,0.0437 2.049321,-0.38613 2.121954,0.90665 0.0031,0.0543 0.05242,1.08381 0.05242,1.33056 0,0.62407 -0.03927,1.24856 -0.01307,1.87219 0.01848,0.43991 0.0402,0.87991 0.07859,1.31878 0.05064,0.57873 0.159422,1.15037 0.196477,1.73089 0.05582,0.87408 0.10201,1.74378 0.209572,2.614 0.02915,0.23581 0.06803,0.46094 0.09169,0.69472 0.0062,0.0625 -0.01569,0.1272 0,0.18839 0.01368,0.0531 0.06162,0.094 0.09169,0.1413 0.0392,0.0617 0.100372,0.16563 0.104795,0.16484 0.03417,-0.006 0.06432,-0.0992 0.03927,-0.11775 -0.06332,-0.0468 -0.148451,-0.0628 -0.222677,-0.0942"
       id="path11" />
    <path
       style="fill:none;stroke:#000000;stroke-width:0.3"
       d="m 92.612291,221.98078 c -0.600842,-0.14426 -1.658274,-1.03361 -1.80253,-0.43277 -0.144256,0.60084 1.201688,0.28851 1.80253,0.43277"
       id="path12" />
    <path
       style="fill:none;stroke:#000000;stroke-width:0.3"
       d="m 90.809759,221.54801 c 0.05066,-2.55221 0.567841,-5.07095 0.830201,-7.607 0.241665,-2.33603 0.08146,-1.99369 0.203311,-4.93015 0.01225,-0.29536 0.06682,-0.58744 0.101653,-0.88099 0.0047,-0.0397 -0.02109,-0.10643 0.01696,-0.11859 0.129207,-0.0413 0.271209,-0.009 0.406625,-0.0169 0.243004,-0.0145 0.485378,-0.0392 0.728538,-0.0508 1.153248,-0.0549 2.303431,0.0709 3.456324,0.0508 7.182159,-0.12512 -0.222989,-0.0313 6.590729,-0.44049 2.25249,-0.13526 4.53793,-0.0732 6.79405,-0.0339 0.66077,0.0169 1.32154,0.0339 1.98231,0.0508 0.32756,0.0226 0.65451,0.0571 0.98268,0.0678 0.3669,0.0119 0.73486,-0.0223 1.10128,0 1.29876,0.079 1.37219,0.17212 2.59224,0.35578 0.42067,0.0633 0.84779,0.0726 1.27071,0.1186 0.22633,0.0246 0.45068,0.0678 0.67771,0.0847 0.15206,0.0114 0.30497,0 0.45745,0 0.10731,0 0.21461,0 0.32191,0 0.0169,0 0.062,-0.0127 0.0508,0 -0.13191,0.1499 -0.28238,0.28237 -0.42356,0.42356"
       id="path13" />
    <path
       style="fill:none;stroke:#000000;stroke-width:0.3"
       d="m 119.37524,208.19767 c 0.66642,-0.57604 1.47506,-1.02021 1.99926,-1.72813 0.42009,-0.56731 -0.78021,-0.51481 -0.79631,-0.50826 -0.33818,0.13778 -0.65666,0.33598 -0.93185,0.57603 -0.71487,0.62359 -1.50101,2.22515 -1.42318,2.99875 0.0417,0.4146 0.64266,0.76339 1.05044,0.67768 1.20855,-0.25401 2.09275,-1.55118 1.89759,-2.74461 -0.0749,-0.45787 -0.45435,-0.81169 -0.72853,-1.18595 -0.0855,-0.11668 -0.21162,-0.20229 -0.33886,-0.27107 -0.0868,-0.0469 -0.25684,-0.16134 -0.28803,-0.0678 -0.24203,0.72605 -0.29369,1.50222 -0.44053,2.25333"
       id="path14" />
    <text
       xml:space="preserve"
       style="font-size:3.175px;fill:none;stroke:#000000;stroke-width:0.3"
       x="121.61325"
       y="201.99683"
       id="text14"><tspan
         sodipodi:role="line"
         id="tspan14"
         style="stroke-width:0.3"
         x="121.61325"
         y="201.99683">$\varphi$</tspan></text>
    <path
       style="fill:none;stroke:#000000;stroke-width:0.3"
       d="m 119.37524,208.19767 c 0.36145,0.0904 0.71977,0.1943 1.08435,0.27104 0.21554,0.0454 0.44052,0 0.66078,0 0.53252,0 1.06036,-0.003 1.59261,0.0339 0.76727,0.0533 1.52668,0.1963 2.28727,0.30495 0.63284,0.0904 1.26618,0.17042 1.8976,0.27108 0.15833,0.0252 0.84651,0.149 0.99962,0.16942 0.57234,0.0763 1.16752,0.13544 1.7451,0.16942 0.32058,0.0189 0.64545,-0.0229 0.96574,0 0.12395,0.009 0.22945,0.0678 0.3558,0.0678 0.20252,0 0.40819,-0.007 0.60993,0 0.20412,0.007 0.40528,0.0639 0.60995,0.0678 0.37688,0.007 0.80224,-0.0334 1.18599,0 0.19821,0.0172 0.39471,0.0516 0.593,0.0678 0.25205,0.0206 0.50954,-0.008 0.76243,0 0.68884,0.0222 0.0133,-2.7e-4 0.54215,0.0508 0.33691,0.0326 0.57609,-0.0104 0.89798,-0.0847 0.24048,-0.0555 0.48743,-0.0828 0.72854,-0.13554 0.15783,-0.0345 0.48656,-0.0678 0.18637,-0.0678 -0.52773,1.33177 -0.23972,0.43206 -0.50829,1.74498 -0.0442,0.21606 -0.10809,0.42778 -0.15248,0.6438 -0.13007,0.63301 -0.18073,1.27841 -0.28802,1.91446 -0.0497,0.29487 -0.10816,0.58828 -0.16943,0.88098 -0.0404,0.19307 -0.10765,0.38076 -0.13554,0.57603 -0.0973,0.681 -0.0872,1.32198 -0.13555,1.99917 -0.0158,0.22084 -0.0561,0.43965 -0.0678,0.66074 -0.0154,0.2925 0.009,0.58817 0,0.88099 -0.0119,0.39275 -0.0708,0.80216 0.0339,1.18595 0.0454,0.16634 0.0817,0.12862 0.13553,0.25413 0.12688,0.29606 0.24348,0.61409 0.30497,0.93182 0.0792,0.40918 0.0843,0.82826 0.16943,1.23677 0.0523,0.25115 0.15396,0.53709 0.18637,0.79628 0.0137,0.1096 0.0157,0.21294 0.0339,0.3219 0.006,0.0334 0.008,0.13452 0,0.10165 -0.12177,-0.48689 -0.15204,-0.37272 -0.64944,-0.37272 0.11483,0.33319 0.28556,0.65212 0.34448,0.99958 0.052,0.30628 -0.0137,0.62117 -0.0169,0.93181 -0.002,0.23153 -0.002,0.4631 0,0.69463 0.007,0.7229 0.0428,1.44559 0.0339,2.16859 -0.005,0.4232 -0.0339,0.8475 -0.0339,1.27065 0,0.0877 0.007,-0.20789 -0.0678,-0.25413 -0.0736,-0.0457 -0.17316,0 -0.25974,0"
       id="path15" />
    <path
       style="fill:none;stroke:#000000;stroke-width:0.3"
       d="m 132.94641,228.24013 c 0.20332,0.11295 0.38831,0.26833 0.60995,0.33885 0.16154,0.0514 0.33885,0.0225 0.50828,0.0169 0.34505,-0.0114 0.68897,-0.0456 1.0335,-0.0678 0.68872,-0.0442 1.37884,-0.0666 2.06702,-0.1186 0.0766,-0.006 1.26504,-0.15103 1.40625,-0.13554 0.25603,0.0281 0.5022,0.1187 0.74547,0.20331 0.1877,0.0653 1.10103,0.61044 1.25378,0.30496 0.0407,-0.0814 0.0226,-0.18072 0.0339,-0.27108"
       id="path16" />
    <path
       style="fill:none;stroke:#000000;stroke-width:0.3"
       d="m 132.87357,232.83144 c 1.25964,0.11433 2.51855,0.19464 3.78331,0.2033 0.43485,0.003 0.87006,-0.0172 1.30458,0 0.56571,0.0224 1.12959,0.0783 1.69429,0.1186 0.30503,0.0218 0.60937,0.055 0.91491,0.0678 0.50799,0.0212 1.28403,0.17302 1.71122,-0.25413"
       id="path17" />
    <path
       style="fill:none;stroke:#000000;stroke-width:0.3"
       d="m 137.96146,233.03474 c -0.96293,2.13512 -1.75068,4.34753 -2.23643,6.64131 -0.45849,2.16502 -0.89406,4.32271 -1.27072,6.50576 -0.18845,1.09222 -0.23638,1.74516 -0.33885,2.88016 -0.0255,0.28212 -0.0319,0.56611 -0.0678,0.8471 -0.11209,0.87802 -0.42787,1.73499 -0.44051,2.62603 -0.008,0.54235 0.0159,1.08515 0.0508,1.62643 0.0104,0.1603 0.0595,0.31574 0.0847,0.47439 0.0606,0.38141 0.10167,0.60198 0.10167,0.96569 0,0.45374 -0.0847,0.90091 -0.0847,1.35537 0,0.0747 -0.0151,0.17894 0,0.25414 0.12209,0.61023 0.177,1.22965 0.25415,1.84669 0.0109,0.0866 0.0526,0.16807 0.0678,0.25412 0.0457,0.25923 0.0829,0.5167 0.10165,0.77934 0.0514,0.71916 0.0169,1.44804 0.0169,2.16859 0,1.47413 -0.0169,2.94778 -0.0169,4.42188 0,0.14154 0.0229,0.25272 0.0339,0.40661 0.016,0.22339 -0.0278,0.45563 0,0.67768 0.0102,0.0815 0.21148,0.43236 0.16943,0.47439 -0.0287,0.0287 -0.0366,-0.0869 -0.11858,-0.15248 -0.12067,-0.0965 -0.23152,-0.17001 -0.3897,-0.20331 -0.63218,-0.13307 -1.19815,-0.1736 -1.84675,-0.2033 -1.93751,-0.0887 -3.85328,-0.0823 -5.79443,-0.0508 -1.22037,0.0198 -2.43917,0.13553 -3.65964,0.13553 -0.61569,0 -1.2311,-0.0281 -1.84676,-0.0339 -1.21777,-0.0114 -1.88964,-0.0769 -3.03275,0.18636 -1.01168,0.23299 -2.07173,0.78462 -3.13441,0.83017 -1.46828,0.0629 -3.31795,-0.22603 -4.67621,-0.3219 -0.79441,-0.0561 -1.59285,-0.0114 -2.38892,-0.0339 -1.53709,-0.0434 -3.06115,-0.14021 -4.5915,-0.28802 -0.4749,-0.0459 -0.95285,-0.0723 -1.42319,-0.15248 -0.35375,-0.0603 -1.19485,-0.3552 -1.575672,-0.4405 -0.936612,-0.20979 -1.857158,-0.34109 -2.812497,-0.38967 -0.53031,-0.027 -1.061992,-0.0142 -1.592622,-0.0339 -1.038606,-0.0385 -0.377241,-0.044 -1.507903,-0.0339 -0.417896,0.004 -1.405731,0.0795 -1.897594,0.0169 -0.720278,-0.0917 -1.196144,-0.36558 -1.863701,-0.5252 -0.402635,-0.0963 -0.685028,-0.0774 -1.118225,-0.0847 -0.159811,-0.003 -0.339627,-0.025 -0.491336,0.0508 -0.09394,0.047 -0.402143,0.50827 -0.440513,0.50827 -0.01693,0 0,-0.0339 0,-0.0508 0,-0.0621 -0.0019,-0.12427 0,-0.18636 0.0019,-0.0653 0.0295,-0.76518 0.03388,-0.8471 0.07006,-1.30759 0.169426,-2.60349 0.169426,-3.91363 0,-0.87594 -0.01839,-1.03912 0.101653,-2.06693 0.146582,-1.25504 0.478388,-2.52807 0.762426,-3.76115 0.17036,-0.73959 0.351549,-1.47681 0.508286,-2.21941 0.267673,-1.51678 0.108087,-0.70085 0.372737,-1.9314 0.05706,-0.2653 0.10769,-0.53203 0.169434,-0.79628 0.112704,-0.48235 0.304977,-1.03355 0.372739,-1.54173 0.05189,-0.38912 0.06087,-0.45516 0.169426,-0.88099 0.06582,-0.25822 0.178962,-0.51143 0.203311,-0.77933 0.0013,-0.0143 0.0042,-0.125 -0.01693,-0.13554 -0.0709,-0.0354 -0.01244,0.15806 -0.01696,0.23719 -0.0078,0.13579 -0.122751,0.30365 -0.03389,0.40661 0.243494,0.28212 0.617191,0.41786 0.925788,0.62678"
       id="path18" />
    <path
       style="fill:none;stroke:#000000;stroke-width:0.3"
       d="m 114.56353,268.74869 c -0.71725,0.0678 -1.45632,0.0151 -2.15174,0.20329 -0.13486,0.0365 -0.0706,0.27039 -0.10166,0.40661 -0.24701,1.08402 -0.50358,2.16539 -0.64383,3.26983 -0.02,0.15776 -0.0333,0.31632 -0.0508,0.47438 -0.0107,0.0961 0.0568,0.25459 -0.0339,0.28801 -0.10452,0.0385 -0.19202,-0.11294 -0.28803,-0.16942"
       id="path19" />
    <path
       style="fill:none;stroke:#000000;stroke-width:0.3"
       d="m 115.17346,273.1875 c 0.0904,0.0282 0.19028,0.0353 0.27108,0.0847 0.1655,0.10114 -0.13944,0.23035 -0.28803,0.22025 -0.23997,-0.0163 -0.68966,-0.19401 -0.96574,-0.28801 -0.16906,-0.0576 -0.34205,-0.10413 -0.50827,-0.16943 -0.15053,-0.0591 -0.28375,-0.1636 -0.44052,-0.2033 -0.71898,-0.18211 -1.3776,-0.0721 -2.10091,-0.0508 -0.35568,0.0109 -0.71161,0.01 -1.06739,0.0169 -0.61031,0.0119 -1.22242,-0.001 -1.82982,0.0678 0.31062,0.27672 0.6648,0.51119 0.93186,0.83016 0.14762,0.17631 0.19308,0.41742 0.28803,0.62686 0.29068,0.64118 0.56987,1.28163 0.7963,1.94834 0.05,0.14712 0.0918,0.29745 0.15249,0.44049 0.0868,0.12151 0.0859,0.10235 0.13555,0.2372 0.0375,0.10192 0.048,0.31785 0.15247,0.288 0.0272,-0.008 0.0481,-0.0305 0.0678,-0.0508 0.1557,-0.16072 0.30567,-0.32689 0.45745,-0.49132 0.58162,-0.63006 0.13557,-0.17841 0.86408,-0.86405 0.31128,-0.29296 0.62451,-0.5839 0.93185,-0.88098 0.15709,-0.15184 1.06772,-1.06771 1.20294,-1.21984 0.0781,-0.0878 0.10128,-0.22971 0.20331,-0.28801 0.22795,-0.13026 0.49699,-0.16943 0.74549,-0.25414 z"
       id="path20" />
    <text
       xml:space="preserve"
       style="font-size:3.175px;fill:none;stroke:#000000;stroke-width:0.3"
       x="142.28188"
       y="232.96701"
       id="text20"><tspan
         sodipodi:role="line"
         id="tspan20"
         style="stroke-width:0.3"
         x="142.28188"
         y="232.96701">$C_s$</tspan></text>
    <text
       xml:space="preserve"
       style="font-size:3.175px;fill:none;stroke:#000000;stroke-width:0.3"
       x="70.216003"
       y="234.86603"
       id="text21"><tspan
         sodipodi:role="line"
         id="tspan21"
         style="stroke-width:0.3"
         x="70.216003"
         y="234.86603">$C_{J_1}$</tspan></text>
    <text
       xml:space="preserve"
       style="font-size:3.175px;fill:none;stroke:#000000;stroke-width:0.3"
       x="103.9818"
       y="235.62766"
       id="text22"><tspan
         sodipodi:role="line"
         id="tspan22"
         style="stroke-width:0.3"
         x="103.9818"
         y="235.62766">$C_{J_2}$</tspan></text>
    <rect
       style="fill:#003399;stroke:none;stroke-width:0.3;fill-opacity:0.28625879"
       id="rect1"
       width="43.223206"
       height="36.849049"
       x="67.688026"
       y="217.65132" />
    <text
       xml:space="preserve"
       style="font-size:3.175px;fill:#003399;fill-opacity:1;stroke:none;stroke-width:0.3"
       x="69.787415"
       y="215.26151"
       id="text1"><tspan
         sodipodi:role="line"
         id="tspan1"
         style="fill:#003399;fill-opacity:1;stroke-width:0.3"
         x="69.787415"
         y="215.26151">SQUID</tspan></text>
  </g>
</svg>
