<?xml version="1.0" encoding="UTF-8" standalone="no"?>
<!-- Created with Inkscape (http://www.inkscape.org/) -->

<svg
   width="240mm"
   height="120mm"
   viewBox="0 0 240 120"
   version="1.1"
   id="svg8"
   inkscape:version="1.3 (0e150ed6c4, 2023-07-21)"
   sodipodi:docname="figure.svg"
   xmlns:inkscape="http://www.inkscape.org/namespaces/inkscape"
   xmlns:sodipodi="http://sodipodi.sourceforge.net/DTD/sodipodi-0.dtd"
   xmlns="http://www.w3.org/2000/svg"
   xmlns:svg="http://www.w3.org/2000/svg"
   xmlns:rdf="http://www.w3.org/1999/02/22-rdf-syntax-ns#"
   xmlns:cc="http://creativecommons.org/ns#"
   xmlns:dc="http://purl.org/dc/elements/1.1/">
  <defs
     id="defs2">
    <inkscape:path-effect
       effect="bspline"
       id="path-effect33"
       is_visible="true"
       lpeversion="1.3"
       weight="33.333333"
       steps="2"
       helper_size="0"
       apply_no_weight="true"
       apply_with_weight="true"
       only_selected="false"
       uniform="false" />
    <inkscape:path-effect
       effect="bspline"
       id="path-effect32"
       is_visible="true"
       lpeversion="1.3"
       weight="33.333333"
       steps="2"
       helper_size="0"
       apply_no_weight="true"
       apply_with_weight="true"
       only_selected="false"
       uniform="false" />
    <inkscape:path-effect
       effect="bspline"
       id="path-effect31"
       is_visible="true"
       lpeversion="1.3"
       weight="33.333333"
       steps="2"
       helper_size="0"
       apply_no_weight="true"
       apply_with_weight="true"
       only_selected="false"
       uniform="false" />
    <inkscape:path-effect
       effect="bspline"
       id="path-effect30"
       is_visible="true"
       lpeversion="1.3"
       weight="33.333333"
       steps="2"
       helper_size="0"
       apply_no_weight="true"
       apply_with_weight="true"
       only_selected="false"
       uniform="false" />
    <inkscape:path-effect
       effect="bspline"
       id="path-effect29"
       is_visible="true"
       lpeversion="1.3"
       weight="33.333333"
       steps="2"
       helper_size="0"
       apply_no_weight="true"
       apply_with_weight="true"
       only_selected="false"
       uniform="false" />
    <inkscape:path-effect
       effect="bspline"
       id="path-effect28"
       is_visible="true"
       lpeversion="1.3"
       weight="33.333333"
       steps="2"
       helper_size="0"
       apply_no_weight="true"
       apply_with_weight="true"
       only_selected="false"
       uniform="false" />
    <inkscape:path-effect
       effect="bspline"
       id="path-effect27"
       is_visible="true"
       lpeversion="1.3"
       weight="33.333333"
       steps="2"
       helper_size="0"
       apply_no_weight="true"
       apply_with_weight="true"
       only_selected="false"
       uniform="false" />
    <inkscape:path-effect
       effect="bspline"
       id="path-effect26"
       is_visible="true"
       lpeversion="1.3"
       weight="33.333333"
       steps="2"
       helper_size="0"
       apply_no_weight="true"
       apply_with_weight="true"
       only_selected="false"
       uniform="false" />
    <inkscape:path-effect
       effect="bspline"
       id="path-effect23"
       is_visible="true"
       lpeversion="1.3"
       weight="33.333333"
       steps="2"
       helper_size="0"
       apply_no_weight="true"
       apply_with_weight="true"
       only_selected="false"
       uniform="false" />
    <inkscape:path-effect
       effect="bspline"
       id="path-effect22"
       is_visible="true"
       lpeversion="1.3"
       weight="33.333333"
       steps="2"
       helper_size="0"
       apply_no_weight="true"
       apply_with_weight="true"
       only_selected="false"
       uniform="false" />
    <inkscape:path-effect
       effect="bspline"
       id="path-effect21"
       is_visible="true"
       lpeversion="1.3"
       weight="33.333333"
       steps="2"
       helper_size="0"
       apply_no_weight="true"
       apply_with_weight="true"
       only_selected="false"
       uniform="false" />
    <inkscape:path-effect
       effect="bspline"
       id="path-effect20"
       is_visible="true"
       lpeversion="1.3"
       weight="33.333333"
       steps="2"
       helper_size="0"
       apply_no_weight="true"
       apply_with_weight="true"
       only_selected="false"
       uniform="false" />
    <inkscape:path-effect
       effect="bspline"
       id="path-effect19"
       is_visible="true"
       lpeversion="1.3"
       weight="33.333333"
       steps="2"
       helper_size="0"
       apply_no_weight="true"
       apply_with_weight="true"
       only_selected="false"
       uniform="false" />
    <inkscape:path-effect
       effect="bspline"
       id="path-effect18"
       is_visible="true"
       lpeversion="1.3"
       weight="33.333333"
       steps="2"
       helper_size="0"
       apply_no_weight="true"
       apply_with_weight="true"
       only_selected="false"
       uniform="false" />
    <inkscape:path-effect
       effect="bspline"
       id="path-effect17"
       is_visible="true"
       lpeversion="1.3"
       weight="33.333333"
       steps="2"
       helper_size="0"
       apply_no_weight="true"
       apply_with_weight="true"
       only_selected="false"
       uniform="false" />
    <inkscape:path-effect
       effect="bspline"
       id="path-effect16"
       is_visible="true"
       lpeversion="1.3"
       weight="33.333333"
       steps="2"
       helper_size="0"
       apply_no_weight="true"
       apply_with_weight="true"
       only_selected="false"
       uniform="false" />
    <inkscape:path-effect
       effect="bspline"
       id="path-effect15"
       is_visible="true"
       lpeversion="1.3"
       weight="33.333333"
       steps="2"
       helper_size="0"
       apply_no_weight="true"
       apply_with_weight="true"
       only_selected="false"
       uniform="false" />
    <inkscape:path-effect
       effect="bspline"
       id="path-effect14"
       is_visible="true"
       lpeversion="1.3"
       weight="33.333333"
       steps="2"
       helper_size="0"
       apply_no_weight="true"
       apply_with_weight="true"
       only_selected="false"
       uniform="false" />
    <inkscape:path-effect
       effect="bspline"
       id="path-effect13"
       is_visible="true"
       lpeversion="1.3"
       weight="33.333333"
       steps="2"
       helper_size="0"
       apply_no_weight="true"
       apply_with_weight="true"
       only_selected="false"
       uniform="false" />
    <inkscape:path-effect
       effect="bspline"
       id="path-effect12"
       is_visible="true"
       lpeversion="1.3"
       weight="33.333333"
       steps="2"
       helper_size="0"
       apply_no_weight="true"
       apply_with_weight="true"
       only_selected="false"
       uniform="false" />
    <inkscape:path-effect
       effect="bspline"
       id="path-effect11"
       is_visible="true"
       lpeversion="1.3"
       weight="33.333333"
       steps="2"
       helper_size="0"
       apply_no_weight="true"
       apply_with_weight="true"
       only_selected="false"
       uniform="false" />
    <inkscape:path-effect
       effect="bspline"
       id="path-effect10"
       is_visible="true"
       lpeversion="1.3"
       weight="33.333333"
       steps="2"
       helper_size="0"
       apply_no_weight="true"
       apply_with_weight="true"
       only_selected="false"
       uniform="false" />
    <inkscape:path-effect
       effect="bspline"
       id="path-effect9"
       is_visible="true"
       lpeversion="1.3"
       weight="33.333333"
       steps="2"
       helper_size="0"
       apply_no_weight="true"
       apply_with_weight="true"
       only_selected="false"
       uniform="false" />
    <inkscape:path-effect
       effect="bspline"
       id="path-effect8"
       is_visible="true"
       lpeversion="1.3"
       weight="33.333333"
       steps="2"
       helper_size="0"
       apply_no_weight="true"
       apply_with_weight="true"
       only_selected="false"
       uniform="false" />
    <inkscape:path-effect
       effect="bspline"
       id="path-effect7"
       is_visible="true"
       lpeversion="1.3"
       weight="33.333333"
       steps="2"
       helper_size="0"
       apply_no_weight="true"
       apply_with_weight="true"
       only_selected="false"
       uniform="false" />
    <inkscape:path-effect
       effect="bspline"
       id="path-effect6"
       is_visible="true"
       lpeversion="1.3"
       weight="33.333333"
       steps="2"
       helper_size="0"
       apply_no_weight="true"
       apply_with_weight="true"
       only_selected="false"
       uniform="false" />
    <inkscape:path-effect
       effect="bspline"
       id="path-effect5"
       is_visible="true"
       lpeversion="1.3"
       weight="33.333333"
       steps="2"
       helper_size="0"
       apply_no_weight="true"
       apply_with_weight="true"
       only_selected="false"
       uniform="false" />
    <inkscape:path-effect
       effect="bspline"
       id="path-effect4"
       is_visible="true"
       lpeversion="1.3"
       weight="33.333333"
       steps="2"
       helper_size="0"
       apply_no_weight="true"
       apply_with_weight="true"
       only_selected="false"
       uniform="false" />
    <inkscape:path-effect
       effect="bspline"
       id="path-effect3"
       is_visible="true"
       lpeversion="1.3"
       weight="33.333333"
       steps="2"
       helper_size="0"
       apply_no_weight="true"
       apply_with_weight="true"
       only_selected="false"
       uniform="false" />
    <inkscape:path-effect
       effect="bspline"
       id="path-effect2"
       is_visible="true"
       lpeversion="1.3"
       weight="33.333333"
       steps="2"
       helper_size="0"
       apply_no_weight="true"
       apply_with_weight="true"
       only_selected="false"
       uniform="false" />
    <inkscape:path-effect
       effect="bspline"
       id="path-effect1"
       is_visible="true"
       lpeversion="1.3"
       weight="33.333333"
       steps="2"
       helper_size="0"
       apply_no_weight="true"
       apply_with_weight="true"
       only_selected="false"
       uniform="false" />
  </defs>
  <sodipodi:namedview
     id="base"
     pagecolor="#ffffff"
     bordercolor="#666666"
     borderopacity="1.0"
     inkscape:pageopacity="0.0"
     inkscape:pageshadow="2"
     inkscape:zoom="1.9498566"
     inkscape:cx="471.82958"
     inkscape:cy="261.5577"
     inkscape:document-units="mm"
     inkscape:current-layer="layer1"
     showgrid="false"
     showborder="true"
     width="200mm"
     showguides="true"
     inkscape:guide-bbox="true"
     inkscape:window-width="1920"
     inkscape:window-height="1200"
     inkscape:window-x="0"
     inkscape:window-y="0"
     inkscape:window-maximized="1"
     inkscape:showpageshadow="2"
     inkscape:pagecheckerboard="0"
     inkscape:deskcolor="#d1d1d1">
    <inkscape:grid
       type="xygrid"
       id="grid815"
       units="mm"
       spacingx="10"
       spacingy="10"
       empspacing="4"
       dotted="false"
       originx="0"
       originy="0"
       visible="false" />
  </sodipodi:namedview>
  <metadata
     id="metadata5">
    <rdf:RDF>
      <cc:Work
         rdf:about="">
        <dc:format>image/svg+xml</dc:format>
        <dc:type
           rdf:resource="http://purl.org/dc/dcmitype/StillImage" />
        <dc:title />
      </cc:Work>
    </rdf:RDF>
  </metadata>
  <g
     inkscape:label="Layer 1"
     inkscape:groupmode="layer"
     id="layer1"
     transform="translate(0,-177)">
    <path
       style="fill:none;stroke:#000000;stroke-width:0.3"
       d="m 27.653172,272.34277 c 0.734127,0.0886 2.202379,0.26564 3.49924,0.33705 1.296861,0.0714 2.422333,0.0371 3.396409,0.0543 0.974075,0.0171 1.79675,0.0857 2.282362,0.10568 0.485611,0.02 0.634139,-0.009 0.468465,0.1371 -0.165674,0.14567 -0.645571,0.46559 -1.645356,1.14256 -0.999785,0.67697 -2.519456,1.71099 -3.464964,2.49935 -0.945508,0.78837 -1.316856,1.33109 -1.568231,1.75955 -0.251375,0.42847 -0.382774,0.74267 -0.979787,-0.29706 -0.597012,-1.03974 -1.659639,-3.43341 -2.190953,-4.63024 -0.531313,-1.19684 -0.531313,-1.19682 0.202815,-1.10827 z"
       id="path1"
       inkscape:path-effect="#path-effect1"
       inkscape:original-d="m 26.919044,272.25422 c 1.468255,0.1771 2.936507,0.35419 4.404759,0.53129 1.125469,-0.0343 2.250941,-0.0686 3.376409,-0.10283 0.82268,0.0686 1.645359,0.13711 2.468039,0.20566 0.148537,-0.0286 0.297077,-0.0571 0.445616,-0.0857 -0.479896,0.31991 -0.959792,0.63983 -1.439688,0.95975 -1.519671,1.03402 -3.03934,2.06804 -4.559011,3.10205 -0.371348,0.54272 -0.742696,1.08544 -1.114044,1.62816 -0.1314,0.31421 -0.2628,0.62841 -0.3942,0.94261 -1.062625,-2.39367 -2.125252,-4.78734 -3.18788,-7.18101 z" />
    <path
       style="fill:none;stroke:#000000;stroke-width:0.3"
       d="m 31.152412,272.67982 c 0.27994,-1.37012 0.559879,-2.74024 0.688422,-4.66784 0.128544,-1.9276 0.10569,-4.41268 -0.02857,-6.96916 -0.134257,-2.55649 -0.37992,-5.18439 -0.517032,-6.86396 -0.137113,-1.67957 -0.165677,-2.41081 -0.19139,-2.81358 -0.02571,-0.40277 -0.04856,-0.477 -0.15139,-0.43987 -0.102835,0.0371 -0.28565,0.18566 -0.468472,0.3342"
       id="path2"
       inkscape:path-effect="#path-effect2"
       inkscape:original-d="m 31.152412,272.67982 c 0.279939,-1.37012 0.559879,-2.74024 0.839819,-4.11036 -0.02286,-2.48508 -0.0457,-4.97016 -0.06856,-7.45523 -0.245661,-2.6279 -0.491324,-5.2558 -0.736987,-7.8837 -0.02856,-0.73124 -0.05713,-1.46248 -0.08569,-2.19372 -0.02286,-0.0743 -0.0457,-0.14853 -0.06856,-0.2228 -0.182816,0.14853 -0.365633,0.29706 -0.548452,0.4456" />
    <path
       style="fill:none;stroke:#000000;stroke-width:0.3"
       d="m 29.778423,238.47119 c -1.299716,0.94547 -2.482315,3.36213 -2.593719,5.236 -0.111404,1.87388 0.848384,3.20496 1.793894,4.29326 0.945509,1.08829 1.876737,1.93379 2.93365,1.77098 1.056913,-0.16282 2.239512,-1.33395 2.899369,-2.57363 0.659857,-1.23968 0.796971,-2.54792 0.694137,-3.81617 -0.102834,-1.26824 -0.445619,-2.4965 -0.751267,-3.29058 -0.305648,-0.79408 -0.574162,-1.15399 -1.416837,-1.5968 -0.842675,-0.44282 -2.259511,-0.96853 -3.559227,-0.0231 z"
       id="path3"
       inkscape:path-effect="#path-effect3"
       inkscape:original-d="m 29.661307,237 c -1.1826,2.41666 -2.3652,4.83332 -3.547799,7.24998 0.959791,1.33109 1.919583,2.66217 2.879372,3.99326 0.931227,0.8455 1.862455,1.691 2.793682,2.5365 1.182598,-1.17113 2.365198,-2.34226 3.547798,-3.51339 0.137113,-1.30823 0.274228,-2.61647 0.411343,-3.92471 -0.342784,-1.22825 -0.685568,-2.45651 -1.028351,-3.68476 -0.268512,-0.35991 -0.537028,-0.71982 -0.80554,-1.07973 C 32.494976,238.05143 31.078141,237.52571 29.661307,237 Z" />
    <text
       xml:space="preserve"
       style="font-size:3.175px;fill:none;stroke:#000000;stroke-width:0.3"
       x="30.389395"
       y="244.83269"
       id="text3"><tspan
         sodipodi:role="line"
         id="tspan3"
         style="stroke-width:0.3"
         x="30.389395"
         y="244.83269">$V$</tspan></text>
    <path
       style="fill:none;stroke:#000000;stroke-width:0.3"
       d="m 33.33765,238.49425 c -0.499894,-0.52651 -0.999786,-1.05302 -1.246873,-1.42767 -0.247088,-0.37466 -0.241374,-0.59746 -0.224234,-1.04306 0.01714,-0.4456 0.04571,-1.114 0.05142,-2.86212 0.0057,-1.74813 -0.01143,-4.57597 -0.0086,-7.04105 0.0029,-2.46508 0.02571,-4.5674 -0.01428,-6.18127 -0.03999,-1.61387 -0.142826,-2.7393 -0.145682,-3.88186 -0.0029,-1.14257 0.09427,-2.30227 -0.0029,-2.6936 -0.09712,-0.39133 -0.388487,-0.0143 -0.454188,0.0543 -0.0657,0.0685 0.09427,-0.17139 0.1425,-0.23423 0.04824,-0.0628 -0.01526,0.0514 -0.07875,0.16567"
       id="path4"
       inkscape:path-effect="#path-effect4"
       inkscape:original-d="m 33.33765,238.49425 c -0.499893,-0.52651 -0.999783,-1.05302 -1.499674,-1.57952 0.0057,-0.22281 0.01143,-0.44561 0.01714,-0.66841 0.02857,-0.6684 0.05713,-1.3368 0.0857,-2.0052 -0.01714,-2.82785 -0.03428,-5.65569 -0.05142,-8.48354 0.02286,-2.10231 0.0457,-4.20463 0.06856,-6.30695 -0.102836,-1.12542 -0.205671,-2.25085 -0.308504,-3.37627 0.09712,-1.15971 0.194241,-2.31941 0.291364,-3.47911 -0.291367,0.37704 -0.582731,0.75409 -0.874096,1.13114 0.159965,-0.23994 0.319932,-0.47988 0.479896,-0.71982 -0.06349,0.11426 -0.126987,0.22851 -0.190481,0.34277" />
    <path
       style="fill:none;stroke:#000000;stroke-width:0.3"
       d="m 31.746573,213.36362 c 0,0 0,0 0,0"
       id="path5"
       inkscape:path-effect="#path-effect5"
       inkscape:original-d="m 31.746573,213.36362 c 0,0 0,0 0,0" />
    <path
       style="fill:none;stroke:#000000;stroke-width:0.3"
       d="m 31.746573,213.36362 c 3.292615,-0.6903 6.585233,-1.3806 8.654307,-1.77431 2.069074,-0.39371 2.914605,-0.49082 3.620167,-0.47083 0.705562,0.02 1.271152,0.1571 1.945292,0.18567 0.67414,0.0286 1.456825,-0.0514 2.468033,-0.14282 1.011209,-0.0914 2.250941,-0.19424 2.819387,-0.2885 0.568446,-0.0943 0.465616,-0.17995 0.362782,-0.26564"
       id="path6"
       inkscape:path-effect="#path-effect6"
       inkscape:original-d="m 31.746573,213.36362 c 3.292615,-0.6903 6.585233,-1.3806 9.877851,-2.0709 0.845532,-0.0971 1.691061,-0.19423 2.536592,-0.29135 0.565592,0.13711 1.131181,0.27422 1.696773,0.41132 0.782688,-0.08 1.565376,-0.15995 2.348063,-0.23994 1.239729,-0.10283 2.479461,-0.20566 3.719193,-0.30849 -0.102836,-0.0857 -0.205671,-0.17138 -0.308504,-0.25707" />
    <path
       style="fill:none;stroke:#000000;stroke-width:0.3"
       d="m 51.153782,207.6251 c 0.231026,2.20515 0.46205,4.41029 0.693076,6.61544"
       id="path7"
       inkscape:path-effect="#path-effect7"
       inkscape:original-d="m 51.153782,207.6251 c 0.231026,2.20515 0.462049,4.41029 0.693076,6.61544" />
    <path
       style="fill:none;stroke:#000000;stroke-width:0.3"
       d="m 55.661374,207.60947 c -0.177104,1.86759 -0.354208,3.73517 -0.405625,4.84321 -0.05142,1.10803 0.02285,1.45652 0.07141,1.68218 0.04856,0.22565 0.07141,0.32848 0.05427,0.32823 -0.01714,-2.5e-4 -0.07427,-0.10359 -0.1314,-0.20692"
       id="path8"
       inkscape:path-effect="#path-effect8"
       inkscape:original-d="m 55.661374,207.60947 c -0.177104,1.86759 -0.354208,3.73517 -0.531312,5.60276 0.07427,0.34848 0.148539,0.69697 0.222811,1.04545 0.02286,0.10283 0.0457,0.20566 0.06855,0.30849 -0.05713,-0.10333 -0.11426,-0.20667 -0.171389,-0.31" />
    <path
       style="fill:none;stroke:#000000;stroke-width:0.3"
       d="m 55.255749,212.45267 c 0.300887,-0.83225 0.601774,-1.6645 1.337805,-2.10633 0.73603,-0.44183 1.907207,-0.49324 3.986755,-0.56466 2.079548,-0.0714 5.067469,-0.16281 7.349829,-0.33705 2.282361,-0.17424 3.859165,-0.43132 5.547368,-0.52843 1.688204,-0.0971 3.487811,-0.0343 5.09889,-0.1 1.611078,-0.0657 3.033627,-0.25993 3.702053,-0.48484 0.668425,-0.22491 0.582731,-0.48049 0.497036,-0.73607"
       id="path9"
       inkscape:path-effect="#path-effect9"
       inkscape:original-d="m 55.255749,212.45267 c 0.300887,-0.83225 0.601774,-1.6645 0.902658,-2.49674 1.171178,-0.0514 2.342354,-0.10283 3.513529,-0.15425 2.987921,-0.0914 5.975842,-0.18281 8.963763,-0.27422 1.5768,-0.25707 3.153603,-0.51415 4.730406,-0.77122 1.799606,0.0628 3.599212,0.12568 5.39882,0.18852 1.422549,-0.19424 2.845097,-0.38848 4.267645,-0.58271 -0.0857,-0.25558 -0.171392,-0.51116 -0.257085,-0.76674" />
    <path
       style="fill:none;stroke:#000000;stroke-width:0.3"
       d="m 82.775485,207.59531 c -0.07999,-0.0358 -0.159987,-0.0716 -0.159972,-0.0716 1.4e-5,1e-5 0.08001,0.0358 0.05715,0.22145 -0.02286,0.18566 -0.148548,0.52122 -0.242813,1.20886 -0.09426,0.68765 -0.157109,1.72738 -0.342784,4.61522 -0.185674,2.88783 -0.494179,7.62375 -0.46847,11.04002 0.02571,3.41627 0.385631,5.51287 0.528458,6.47833 0.142826,0.96547 0.06856,0.7998 -0.0057,0.63412"
       id="path10"
       inkscape:path-effect="#path-effect10"
       inkscape:original-d="m 82.775485,207.59531 c -0.07998,-0.0358 -0.159967,-0.0716 -0.239948,-0.10732 0.07998,0.0358 0.159964,0.0716 0.239948,0.10732 -0.125688,0.33556 -0.251373,0.67112 -0.377061,1.00668 -0.06284,1.03973 -0.125687,2.07946 -0.188531,3.1192 -0.308507,4.73593 -0.617011,9.47185 -0.925515,14.20778 0.359923,2.09661 0.719846,4.19321 1.079767,6.28981 -0.07427,-0.16567 -0.14854,-0.33134 -0.222811,-0.49702" />
    <path
       style="fill:none;stroke:#000000;stroke-width:0.3"
       d="m 78.147917,231.99683 c 0.868385,-0.14882 1.736764,-0.29763 2.887941,-0.40632 1.151177,-0.10868 2.585156,-0.17724 3.610646,-0.24293 1.02549,-0.0657 1.642505,-0.12854 2.010997,-0.15996 0.368491,-0.0314 0.488467,-0.0314 0.471327,0.10869 -0.01714,0.1401 -0.171393,0.42031 -0.325647,0.70052"
       id="path11"
       inkscape:path-effect="#path-effect11"
       inkscape:original-d="m 78.147917,231.99683 c 0.868384,-0.14882 1.736765,-0.29763 2.605148,-0.44645 1.433973,-0.0685 2.867949,-0.1371 4.301924,-0.20566 0.617009,-0.0628 1.23402,-0.12568 1.851031,-0.18852 0.119972,0 0.239948,0 0.359923,0 -0.154255,0.28021 -0.30851,0.56042 -0.462762,0.84063" />
    <path
       style="fill:none;stroke:#000000;stroke-width:0.3"
       d="m 78.122581,235.50937 c 0.739717,0.08 1.47943,0.15995 2.869066,0.17138 1.389637,0.0114 3.429197,-0.0457 4.914587,-0.1 1.48539,-0.0543 2.416616,-0.10568 2.770821,-0.12852 0.354205,-0.0229 0.131405,-0.0171 -0.0914,-0.0114"
       id="path12"
       inkscape:path-effect="#path-effect12"
       inkscape:original-d="m 78.122581,235.50937 c 0.739714,0.08 1.47943,0.15995 2.219145,0.23993 2.039559,-0.0571 4.079118,-0.11425 6.118674,-0.17138 0.931225,-0.0514 1.86245,-0.10283 2.793675,-0.15425 -0.222808,0.006 -0.445617,0.0114 -0.668425,0.0172" />
    <path
       style="fill:none;stroke:#000000;stroke-width:0.3"
       d="m 80.991645,235.68075 c 0.588901,0.0514 1.177804,0.10283 1.46654,0.1971 0.288736,0.0943 0.27731,0.23136 0.151622,1.17684 -0.125687,0.94547 -0.365635,2.6993 -0.622722,5.67283 -0.257087,2.97352 -0.531311,7.16672 -0.771259,9.72607 -0.239948,2.55934 -0.445619,3.48482 -0.562736,4.18464 -0.117118,0.69982 -0.145685,1.17399 -0.174251,1.64815"
       id="path15"
       inkscape:path-effect="#path-effect15"
       inkscape:original-d="m 80.991645,235.68075 c 0.588902,0.0514 1.177804,0.10283 1.766703,0.15425 -0.01143,0.13711 -0.02286,0.27421 -0.03428,0.41132 -0.239948,1.75384 -0.479896,3.50767 -0.719844,5.26151 -0.274227,4.19321 -0.548452,8.38641 -0.822676,12.57962 -0.205672,0.92548 -0.41134,1.85096 -0.617009,2.77643 -0.02856,0.47417 -0.05713,0.94834 -0.0857,1.4225" />
    <path
       style="fill:none;stroke:#000000;stroke-width:0.3"
       d="m 80.478838,258.28638 c 0.211382,-0.2228 0.422764,-0.4456 0.965506,-0.51702 0.542743,-0.0714 1.416838,0.009 2.887947,0.0943 1.471109,0.0857 3.539227,0.17711 5.932994,0.0257 2.393766,-0.15139 5.113175,-0.54557 6.392898,0.76266 1.279723,1.30823 1.119756,4.31889 0.988357,6.15556 -0.131399,1.83667 -0.234232,2.49936 -0.337065,3.16205"
       id="path16"
       inkscape:path-effect="#path-effect16"
       inkscape:original-d="m 80.478838,258.28638 c 0.211384,-0.2228 0.422767,-0.4456 0.634151,-0.66841 0.874096,0.08 1.748192,0.15997 2.62229,0.23994 2.068121,0.0914 4.136239,0.18282 6.20436,0.27423 2.719412,-0.39419 5.43882,-0.78838 8.158232,-1.18256 -0.159966,3.01065 -0.319931,6.02131 -0.479897,9.03196 -0.102833,0.66269 -0.205666,1.32538 -0.308499,1.98807" />
    <path
       style="fill:none;stroke:#000000;stroke-width:0.3"
       d="m 101.52569,266.15293 c -0.43419,0.16567 -0.86838,0.33135 -2.210945,0.47988 -1.342565,0.14853 -3.593502,0.27993 -4.453316,0.85406 -0.859814,0.57414 -0.328503,1.59102 0.174247,2.60505 0.50275,1.01403 0.97693,2.02519 2.053837,1.36822 1.076907,-0.65697 2.756542,-2.98209 3.607797,-4.28747 0.85125,-1.30538 0.87411,-1.59102 0.86839,-1.74813 -0.006,-0.15712 -0.04,-0.18567 -0.0742,-0.21423"
       id="path17"
       inkscape:path-effect="#path-effect17"
       inkscape:original-d="m 101.52569,266.15293 c -0.43419,0.16567 -0.86838,0.33135 -1.30257,0.49702 -2.25094,0.13139 -4.501877,0.26278 -6.752817,0.39418 0.531313,1.01688 1.062626,2.03376 1.593939,3.05065 0.474182,1.01117 0.948365,2.02233 1.422548,3.0335 1.679633,-2.32511 3.359267,-4.65023 5.0389,-6.97535 0.0229,-0.28564 0.0457,-0.57128 0.0686,-0.85692 -0.0343,-0.0286 -0.0686,-0.0571 -0.10283,-0.0857" />
    <path
       style="fill:none;stroke:#000000;stroke-width:0.3"
       d="m 96.658183,258.652 c 0.93123,0.01 1.862448,0.0191 3.350697,0.0438 1.48825,0.0248 3.53352,0.0648 5.65021,0.12188 2.11668,0.0571 4.30477,0.13139 5.43596,-0.38277 1.13118,-0.51416 1.20545,-1.61674 1.30257,-3.76762 0.0971,-2.15089 0.2171,-5.35007 0.35707,-7.62949 0.13997,-2.27941 0.29993,-3.63906 0.34851,-4.27994 0.0486,-0.64089 -0.0143,-0.56294 0.45131,-1.59982 0.46561,-1.03688 1.45969,-3.18854 0.83697,-4.04443 -0.62272,-0.85589 -2.86224,-0.41601 -3.7849,-0.11323 -0.92265,0.30278 -0.52845,0.46846 1.06263,0.0457 1.59108,-0.42275 4.37905,-1.43392 4.55901,-1.99092 0.17996,-0.557 -2.24809,-0.65984 -2.8908,-0.57414 -0.64272,0.0857 0.49989,0.35991 1.55966,0.0486 1.05977,-0.31135 2.0367,-1.20826 1.27972,-1.87952 -0.75697,-0.67126 -3.24786,-1.11685 -4.21051,-1.21112 -0.96265,-0.0943 -0.39705,0.16282 0.22281,0.25708 0.61985,0.0943 1.294,0.0257 1.92815,-0.0171 0.63415,-0.0428 1.2283,-0.06 1.69106,-0.28563 0.46276,-0.22566 0.79411,-0.65983 0.0343,-1.18256 -0.75983,-0.52272 -2.61086,-1.13399 -2.66513,-1.48247 -0.0543,-0.34848 1.6882,-0.43417 2.33663,-1.06544 0.64843,-0.63126 0.20282,-1.8081 -0.21138,-2.46508 -0.4142,-0.65698 -0.79697,-0.79408 -1.01407,-1.14828 -0.2171,-0.35419 -0.26851,-0.92547 -0.31706,-1.1797 -0.0486,-0.25424 -0.0943,-0.19138 -0.1257,-2.43937 -0.0314,-2.248 -0.0485,-6.80683 -0.13138,-9.6004 -0.0828,-2.79357 -0.23138,-3.82188 -0.33993,-4.07473 -0.10855,-0.25284 -0.1771,0.26976 -0.24566,0.79236"
       id="path18"
       inkscape:path-effect="#path-effect18"
       inkscape:original-d="m 96.658183,258.652 c 0.931225,0.01 1.862449,0.019 2.793677,0.0286 2.04527,0.04 4.09054,0.08 6.13581,0.11997 2.1881,0.0743 4.37619,0.14853 6.56429,0.2228 0.0743,-1.10259 0.14854,-2.20517 0.22281,-3.30776 0.11997,-3.19918 0.23995,-6.39836 0.35992,-9.59754 0.15997,-1.35965 0.31993,-2.7193 0.4799,-4.07895 -0.0628,0.0779 -0.12569,0.15583 -0.18854,0.23374 0.99407,-2.15167 1.98815,-4.30333 2.98222,-6.455 -2.23951,0.43989 -4.47903,0.87978 -6.71854,1.31966 0.3942,0.16567 0.7884,0.33135 1.1826,0.49702 2.78796,-1.01117 5.57593,-2.02234 8.36389,-3.03351 -2.42804,-0.10283 -4.85609,-0.20566 -7.28413,-0.3085 1.14261,0.27422 2.28522,0.54844 3.42783,0.82266 0.97693,-0.89692 1.95386,-1.79383 2.93079,-2.69075 -2.49088,-0.4456 -4.98177,-0.89119 -7.47266,-1.33679 0.56559,0.25707 1.13119,0.51415 1.69678,0.77122 0.67413,-0.0685 1.34827,-0.1371 2.02241,-0.20566 0.59416,-0.0171 1.18831,-0.0343 1.78247,-0.0514 0.33136,-0.43418 0.66272,-0.86835 0.99407,-1.30253 -1.85102,-0.61127 -3.70205,-1.22254 -5.55308,-1.83381 1.74248,-0.0857 3.48496,-0.17138 5.22744,-0.25707 -0.44562,-1.17684 -0.89123,-2.35368 -1.33685,-3.53053 -0.38278,-0.1371 -0.76555,-0.27421 -1.14833,-0.41132 -0.0514,-0.57128 -0.10283,-1.14256 -0.15425,-1.71384 -0.0457,0.0628 -0.0914,0.12568 -0.13711,0.18851 -0.0171,-4.55883 -0.0343,-9.11766 -0.0514,-13.67649 -0.14854,-1.02831 -0.29708,-2.05662 -0.44562,-3.08493 -0.0686,0.52261 -0.13711,1.04522 -0.20567,1.56782" />
    <path
       style="fill:none;stroke:#000000;stroke-width:0.3"
       d="m 82.615512,207.52376 c -0.163762,0.0566 -0.327543,0.11326 -0.327548,0.11326 -4e-6,0 0.163777,-0.0566 0.378016,0.0948 0.21424,0.15139 0.478948,0.5108 0.754128,0.71336 0.275179,0.20255 0.560831,0.24826 2.363297,0.11115 1.802467,-0.13711 5.121744,-0.45703 7.921136,-0.63413 2.799392,-0.1771 5.078896,-0.21137 7.078459,-0.29707 1.99957,-0.0857 3.71919,-0.22279 4.91036,-0.29991 1.19117,-0.0771 1.85389,-0.0943 2.69085,-0.20851 0.83696,-0.11425 1.84817,-0.32563 2.66228,-0.45131 0.81411,-0.12568 1.43111,-0.16567 1.83389,-0.18852 0.40277,-0.0228 0.59129,-0.0285 0.63795,0.0207 0.0467,0.0493 -0.0486,0.15351 0.0914,0.0935 0.13997,-0.06 0.51512,-0.28423 1.11118,-0.40206 0.59606,-0.11783 1.41303,-0.12927 4.16957,-0.006 2.75654,0.12283 7.45267,0.3799 10.32348,0.46179 2.8708,0.0819 3.91628,-0.0114 4.96177,-0.10469"
       id="path19"
       inkscape:path-effect="#path-effect19"
       inkscape:original-d="m 82.615512,207.52376 c -0.163771,0.0566 -0.327543,0.11326 -0.491315,0.16989 0.163772,-0.0566 0.327544,-0.11326 0.491315,-0.16989 0.264708,0.35941 0.529416,0.71882 0.794123,1.07823 0.285653,0.0457 0.571305,0.0914 0.856957,0.13711 3.31928,-0.31992 6.638557,-0.63984 9.957837,-0.95976 2.279504,-0.0343 4.559009,-0.0685 6.838511,-0.10283 1.71963,-0.13711 3.43925,-0.27421 5.15888,-0.41132 0.66271,-0.0171 1.32543,-0.0343 1.98814,-0.0514 1.01121,-0.21137 2.02242,-0.42275 3.03363,-0.63412 0.61701,-0.04 1.23401,-0.08 1.85102,-0.11997 0.18853,-0.006 0.37706,-0.0114 0.56559,-0.0171 -0.0952,0.10424 -0.19042,0.20848 -0.28563,0.31272 0.37515,-0.22423 0.7503,-0.44846 1.12546,-0.67269 0.81696,-0.0114 1.63393,-0.0229 2.45089,-0.0343 4.69612,0.25708 9.39225,0.51415 14.08837,0.77123 1.04549,-0.0933 2.09097,-0.18659 3.13646,-0.27988" />
    <path
       style="fill:none;stroke:#000000;stroke-width:0.3"
       d="m 134.18908,202.17506 c -0.004,1.45488 -0.009,2.90975 -0.009,4.39793 0,1.48819 0.004,3.0097 0.009,4.5312"
       id="path20"
       inkscape:path-effect="#path-effect20"
       inkscape:original-d="m 134.18908,202.17506 c -0.004,1.45488 -0.009,2.90975 -0.0133,4.36462 0.004,1.5215 0.009,3.04301 0.0133,4.56451" />
    <path
       style="fill:none;stroke:#000000;stroke-width:0.3"
       d="m 138.46054,202.1746 c -0.10284,2.61702 -0.20567,5.23403 -0.30851,7.85105"
       id="path21"
       inkscape:path-effect="#path-effect21"
       inkscape:original-d="m 138.46054,202.1746 c -0.10284,2.61702 -0.20567,5.23403 -0.30851,7.85105" />
    <path
       style="fill:none;stroke:#000000;stroke-width:0.3"
       d="m 138.30628,206.10012 c 1.67393,0.0285 3.34785,0.0569 4.78754,0.0312 1.43969,-0.0258 2.64514,-0.10574 4.23622,-0.0686 1.59108,0.0371 3.5678,0.19138 4.84181,0.18567 1.27401,-0.006 1.84531,-0.17139 3.09361,-0.37705 1.2483,-0.20566 3.17359,-0.45131 4.50473,-0.67411 1.33114,-0.2228 2.06812,-0.42275 2.47661,0.56842 0.40848,0.99116 0.48847,3.17344 0.49418,6.15267 0.006,2.97922 -0.0628,6.7554 -0.0286,9.14335 0.0343,2.38796 0.17139,3.38771 0.3085,4.05611 0.13711,0.6684 0.27423,1.00546 0.31708,1.0654 0.0428,0.0599 -0.009,-0.15722 -0.06,-0.37439"
       id="path22"
       inkscape:path-effect="#path-effect22"
       inkscape:original-d="m 138.30628,206.10012 c 1.67393,0.0284 3.34785,0.0569 5.02177,0.0854 1.20546,-0.08 2.41091,-0.15996 3.61636,-0.23994 1.97671,0.15424 3.95343,0.30849 5.93014,0.46274 0.57131,-0.16568 1.14261,-0.33135 1.71391,-0.49702 1.9253,-0.24565 3.85059,-0.4913 5.77588,-0.73695 0.73699,-0.19995 1.47397,-0.3999 2.21096,-0.59985 0.08,2.18228 0.15997,4.36456 0.23995,6.54684 -0.0686,3.77617 -0.13712,7.55235 -0.20568,11.32852 0.13711,0.99974 0.27423,1.99949 0.41134,2.99923 0.13711,0.33706 0.27422,0.67412 0.41134,1.01117 -0.0514,-0.21717 -0.10283,-0.43433 -0.15425,-0.6515" />
    <path
       style="fill:none;stroke:#000000;stroke-width:0.3"
       d="m 180.04007,224.93494 c -0.42276,0.24565 -0.84552,0.4913 -2.49374,0.65983 -1.64821,0.16853 -4.52188,0.25993 -8.40103,0.55414 -3.87916,0.29421 -8.76382,0.79123 -12.16308,1.10258 -3.39926,0.31134 -5.31313,0.43703 -6.43003,0.60556 -1.1169,0.16853 -1.43683,0.3799 -1.60251,0.7341 -0.16568,0.35419 -0.17712,0.8512 -0.18568,2.22514 -0.009,1.37393 -0.0143,3.62478 -0.0257,5.3272 -0.0114,1.70242 -0.0286,2.85641 0.0971,3.8533 0.12569,0.99689 0.3942,1.83667 0.50846,2.44223 0.11426,0.60556 0.0743,0.97689 0.15425,1.31109 0.08,0.3342 0.27994,0.63127 0.32851,0.8612 0.0486,0.22993 -0.0543,0.39273 -0.1571,0.55553"
       id="path23"
       inkscape:path-effect="#path-effect23"
       inkscape:original-d="m 180.04007,224.93494 c -0.42276,0.24565 -0.84552,0.4913 -1.26829,0.73695 -2.87366,0.0914 -5.74733,0.18282 -8.62099,0.27422 -4.88465,0.49701 -9.76931,0.99403 -14.65396,1.49104 -1.91387,0.12568 -3.82774,0.25137 -5.74161,0.37705 -0.31993,0.21138 -0.63986,0.42275 -0.95979,0.63413 -0.0114,0.49701 -0.0229,0.99402 -0.0343,1.49104 -0.006,2.25085 -0.0114,4.5017 -0.0171,6.75255 -0.0171,1.15399 -0.0343,2.30798 -0.0514,3.46197 0.26851,0.83979 0.53702,1.67957 0.80553,2.51936 -0.04,0.37133 -0.08,0.74266 -0.11997,1.11399 0.19995,0.29707 0.39991,0.59414 0.59987,0.89121 -0.10283,0.16279 -0.20566,0.32559 -0.30849,0.48839" />
    <text
       xml:space="preserve"
       style="font-size:3.175px;fill:none;stroke:#000000;stroke-width:0.3"
       x="73.160423"
       y="235.02609"
       id="text24"><tspan
         sodipodi:role="line"
         id="tspan24"
         style="stroke-width:0.3"
         x="73.160423"
         y="235.02609">$C_1$</tspan></text>
    <text
       xml:space="preserve"
       style="font-size:3.175px;fill:none;stroke:#000000;stroke-width:0.3"
       x="51.996044"
       y="203.88173"
       id="text25"><tspan
         sodipodi:role="line"
         id="tspan25"
         style="stroke-width:0.3"
         x="51.996044"
         y="203.88173">$C_g$</tspan></text>
    <text
       xml:space="preserve"
       style="font-size:3.175px;fill:none;stroke:#000000;stroke-width:0.3"
       x="135.05977"
       y="197.78726"
       id="text26"><tspan
         sodipodi:role="line"
         id="tspan26"
         style="stroke-width:0.3"
         x="135.05977"
         y="197.78726">$C_c$</tspan></text>
    <path
       style="fill:none;stroke:#000000;stroke-width:0.3"
       d="m 146.71198,245.24694 c 2.41091,-0.35524 4.82181,-0.71049 6.35862,-0.81955 1.53681,-0.10907 2.19952,0.028 2.53088,0.20566 0.33135,0.17762 0.33135,0.39576 0.33135,0.61389"
       id="path26"
       inkscape:path-effect="#path-effect26"
       inkscape:original-d="m 146.71198,245.24694 c 2.41091,-0.35524 4.82181,-0.71048 7.23272,-1.06573 0.66271,0.13711 1.32542,0.27422 1.98813,0.41132 0,0.21814 0,0.43628 0,0.65441" />
    <path
       style="fill:none;stroke:#000000;stroke-width:0.3"
       d="m 148.58033,250.76684 c 2.10234,0 4.20468,0 6.30702,0"
       id="path27"
       inkscape:path-effect="#path-effect27"
       inkscape:original-d="m 148.58033,250.76684 c 2.10234,0 4.20468,0 6.30702,0" />
    <path
       style="fill:none;stroke:#000000;stroke-width:0.3"
       d="m 151.73384,250.76684 c 0.19421,2.36362 0.38842,4.72724 0.50267,6.11471 0.11424,1.38747 0.14853,1.7988 0.18566,2.0673 0.0371,0.2685 0.0771,0.39419 -0.0371,0.3809 -0.11424,-0.0133 -0.38273,-0.16556 -0.65121,-0.31782"
       id="path28"
       inkscape:path-effect="#path-effect28"
       inkscape:original-d="m 151.73384,250.76684 c 0.19421,2.36362 0.38842,4.72724 0.58263,7.09086 0.0343,0.41132 0.0686,0.82265 0.10285,1.23397 0.04,0.12568 0.08,0.25136 0.11997,0.37705 -0.26848,-0.15227 -0.53697,-0.30453 -0.80545,-0.45679" />
    <path
       style="fill:none;stroke:#000000;stroke-width:0.3"
       d="m 152.38505,259.32975 c 4.00484,0.052 8.00969,0.10407 11.27183,0.3129 3.26215,0.20883 5.7816,0.57445 7.26699,0.77154 1.48539,0.1971 1.93672,0.22566 2.35948,0.0419 0.42277,-0.18377 0.81697,-0.57987 1.21117,-0.97598"
       id="path29"
       inkscape:path-effect="#path-effect29"
       inkscape:original-d="m 152.38505,259.32975 c 4.00484,0.052 8.00969,0.10407 12.01453,0.15611 2.51945,0.36562 5.0389,0.73124 7.55835,1.09686 0.45133,0.0286 0.90266,0.0571 1.35399,0.0857 0.3942,-0.39611 0.7884,-0.79221 1.1826,-1.18832" />
    <path
       style="fill:none;stroke:#000000;stroke-width:0.3"
       d="m 174.49452,259.4801 c 0,2.61268 0,5.22535 -0.006,6.73735 -0.006,1.512 -0.0171,1.92332 -0.0229,2.16039 -0.006,0.23706 -0.006,0.29994 -0.06,0.23424 -0.0543,-0.0657 -0.16283,-0.25993 -0.13941,-0.30718 0.0234,-0.0472 0.17886,0.0525 0.33428,0.15226"
       id="path30"
       inkscape:path-effect="#path-effect30"
       inkscape:original-d="m 174.49452,259.4801 c 0,2.61268 0,5.22535 0,7.83803 -0.0114,0.41132 -0.0229,0.82264 -0.0343,1.23397 0,0.0628 0,0.12568 0,0.18852 -0.10855,-0.19423 -0.2171,-0.38847 -0.32565,-0.5827 0.15542,0.0997 0.31083,0.19949 0.46625,0.29924" />
    <path
       style="fill:none;stroke:#000000;stroke-width:0.3"
       d="m 178.6251,268.7866 c 0.0228,-0.18099 0.0457,-0.36198 -0.1543,-0.46676 -0.19996,-0.10479 -0.62272,-0.13335 -1.87387,-0.17519 -1.25116,-0.0418 -3.33072,-0.0969 -3.99343,0.74856 -0.66271,0.8455 0.0914,2.59159 0.53703,3.58175 0.44562,0.99016 0.58273,1.22439 0.67128,1.39292 0.0885,0.16853 0.12855,0.27136 0.65129,-0.65983 0.52274,-0.93119 1.52824,-2.8964 2.28236,-3.93798 0.75412,-1.04157 1.25687,-1.15952 1.75963,-1.27746"
       id="path31"
       inkscape:path-effect="#path-effect31"
       inkscape:original-d="m 178.6251,268.7866 c 0.0228,-0.18099 0.0456,-0.36199 0.0685,-0.54298 -0.42276,-0.0286 -0.84552,-0.0571 -1.26829,-0.0857 -2.07954,-0.0551 -4.1591,-0.11021 -6.23864,-0.16531 0.75412,1.7461 1.50824,3.49219 2.26237,5.23829 0.13711,0.23422 0.27422,0.46845 0.41133,0.70268 0.04,0.10283 0.08,0.20566 0.11998,0.30849 1.00549,-1.96521 2.01099,-3.93042 3.01648,-5.89563 0.50275,-0.11795 1.0055,-0.23589 1.50826,-0.35383" />
    <path
       style="fill:none;stroke:#000000;stroke-width:0.3"
       d="m 174.49452,259.4801 c 2.78796,0.19044 5.57593,0.38089 7.31841,0.5161 1.74248,0.13521 2.43947,0.21518 3.18502,0.14948 0.74556,-0.0657 1.53967,-0.27707 1.84245,-0.41228 0.30279,-0.13521 0.11427,-0.19425 -0.0743,-0.2533"
       id="path32"
       inkscape:path-effect="#path-effect32"
       inkscape:original-d="m 174.49452,259.4801 c 2.78796,0.19044 5.57593,0.38088 8.36389,0.57133 0.697,0.08 1.39399,0.15995 2.09098,0.23993 0.79412,-0.21137 1.58823,-0.42275 2.38235,-0.63412 -0.18854,-0.0591 -0.37707,-0.11809 -0.56561,-0.17714" />
    <path
       style="fill:none;stroke:#000000;stroke-width:0.3"
       d="m 186.8404,259.7334 c 0.0952,0.17455 0.19044,0.34913 0.19044,0.34913 10e-6,10e-6 -0.0952,-0.17457 -0.0724,-0.50591 0.0229,-0.33135 0.16378,-0.81947 0.24281,-1.68908 0.079,-0.86962 0.0962,-2.12073 0.179,-3.50323 0.0828,-1.3825 0.23137,-2.8964 0.30564,-3.97327 0.0743,-1.07686 0.0743,-1.7167 0.0771,-2.17944 0.003,-0.46274 0.009,-0.74838 0.0257,-0.92546 0.0171,-0.17708 0.0457,-0.24565 -0.0589,-0.29303 -0.10461,-0.0474 -0.3424,-0.0736 -0.76232,0.0349 -0.41991,0.10855 -1.02196,0.35184 -1.60292,0.38779 -0.58096,0.036 -1.14083,-0.13543 -1.55217,-0.3868 -0.41134,-0.25137 -0.67414,-0.58271 -0.79126,-0.9569 -0.11711,-0.37419 -0.0885,-0.79122 0.91695,-1.3168 1.00549,-0.52558 2.98792,-1.15971 4.08768,-1.24254 1.09977,-0.0828 1.31686,0.38561 1.43969,0.85121 0.12284,0.46559 0.1514,0.92833 -0.61414,0.63126 -0.76555,-0.29706 -2.32521,-1.35393 -2.7137,-2.08231 -0.38849,-0.72839 0.3942,-1.12829 1.46254,-1.21683 1.06833,-0.0885 2.42232,0.13424 2.93935,0.39418 0.51703,0.25993 0.19711,0.557 -0.16567,0.83122 -0.36278,0.27421 -0.76841,0.52558 -1.7282,0.47987 -0.95979,-0.0457 -2.47374,-0.38847 -2.85937,-1.1797 -0.38563,-0.79123 0.35706,-2.03091 1.55679,-2.53364 1.19974,-0.50272 2.85653,-0.2685 3.6735,-0.04 0.81698,0.22852 0.79414,0.45131 0.67703,0.72553 -0.11711,0.27421 -0.3285,0.59984 -1.43112,0.69125 -1.10262,0.0914 -3.09647,-0.0514 -4.06769,-0.7798 -0.97121,-0.72839 -0.91979,-2.04234 -0.7284,-2.87927 0.19138,-0.83692 0.52274,-1.19683 0.82267,-1.40249 0.29994,-0.20566 0.56845,-0.25708 0.73125,-0.29134 0.1628,-0.0343 0.21998,-0.0514 0.22391,-0.12294 0.004,-0.0715 -0.0453,-0.19741 0.0404,-0.89437 0.0857,-0.69697 0.30633,-1.96501 0.47377,-3.27028 0.16745,-1.30528 0.2817,-2.64779 0.36454,-3.7018 0.0828,-1.05402 0.13425,-1.81954 0.18567,-2.39939 0.0514,-0.57985 0.10284,-0.97403 0.0914,-1.08257 -0.0114,-0.10854 -0.0857,0.0686 -0.3028,0.23136 -0.21709,0.16282 -0.577,0.31135 -2.07096,0.4199 -1.49396,0.10854 -4.12196,0.1771 -5.72429,0.28425 -1.60234,0.10715 -2.17902,0.25289 -2.75569,0.39864"
       id="path33"
       inkscape:path-effect="#path-effect33"
       inkscape:original-d="m 186.8404,259.7334 c 0.0952,0.17456 0.19044,0.34913 0.28566,0.52369 -0.0952,-0.17456 -0.19044,-0.34913 -0.28566,-0.52369 0.14093,-0.48813 0.28185,-0.97625 0.42278,-1.46438 0.0171,-1.2511 0.0343,-2.50221 0.0514,-3.75332 0.14854,-1.51389 0.29708,-3.02779 0.44561,-4.54169 0,-0.63983 0,-1.27967 0,-1.9195 0.006,-0.28564 0.0114,-0.57129 0.0172,-0.85693 0.0286,-0.0685 0.0571,-0.1371 0.0857,-0.20566 -0.23779,-0.0262 -0.47558,-0.0524 -0.71337,-0.0786 -0.60204,0.24329 -1.20409,0.48658 -1.80613,0.72987 -0.55988,-0.17139 -1.11975,-0.34278 -1.67962,-0.51416 -0.26281,-0.33135 -0.52561,-0.66269 -0.78841,-0.99403 0.0286,-0.41704 0.0571,-0.83407 0.0857,-1.25111 1.98242,-0.63412 3.96485,-1.26825 5.94728,-1.90237 0.2171,0.46845 0.43419,0.9369 0.65129,1.40536 0.0286,0.46273 0.0571,0.92547 0.0857,1.38821 -1.55966,-1.05687 -3.11932,-2.11374 -4.67898,-3.17061 0.78268,-0.3999 1.56537,-0.7998 2.34805,-1.19969 1.35399,0.22279 2.70798,0.44559 4.06197,0.66839 -0.31993,0.29707 -0.63985,0.59414 -0.95978,0.89121 -0.40563,0.25136 -0.81126,0.50272 -1.21688,0.75409 -1.51396,-0.34277 -3.02791,-0.68554 -4.54187,-1.02831 0.74269,-1.23969 1.48539,-2.47937 2.22808,-3.71905 1.65678,0.23422 3.31357,0.46845 4.97035,0.70268 -0.0229,0.2228 -0.0457,0.4456 -0.0685,0.6684 -0.21139,0.32563 -0.42278,0.65126 -0.63416,0.97689 -1.99386,-0.14282 -3.98771,-0.28564 -5.98156,-0.42846 0.0514,-1.31395 0.10284,-2.6279 0.15426,-3.94185 0.33136,-0.3599 0.66271,-0.71981 0.99407,-1.07972 0.26851,-0.0514 0.53702,-0.10283 0.80553,-0.15424 0.0571,-0.0171 0.11426,-0.0343 0.17139,-0.0514 -0.0493,-0.1259 -0.0985,-0.2518 -0.14776,-0.3777 0.22063,-1.26803 0.44126,-2.53607 0.6619,-3.8041 0.11425,-1.34252 0.22851,-2.68503 0.34277,-4.02754 0.0514,-0.76552 0.10283,-1.53104 0.15425,-2.29655 0.0514,-0.39419 0.10284,-0.78837 0.15426,-1.18256 -0.0743,0.1771 -0.14855,0.3542 -0.22282,0.53129 -0.35992,0.14854 -0.71983,0.29707 -1.07975,0.44561 -2.628,0.0685 -5.256,0.1371 -7.884,0.20566 -0.57667,0.14574 -1.15335,0.29149 -1.73002,0.43724" />
    <text
       xml:space="preserve"
       style="font-size:3.175px;fill:none;stroke:#000000;stroke-width:0.3"
       x="116.1768"
       y="232.6501"
       id="text33"><tspan
         sodipodi:role="line"
         id="tspan33"
         style="stroke-width:0.3"
         x="116.1768"
         y="232.6501">$L_1$</tspan></text>
    <text
       xml:space="preserve"
       style="font-size:3.175px;fill:none;stroke:#000000;stroke-width:0.3"
       x="191.6937"
       y="240.39362"
       id="text34"><tspan
         sodipodi:role="line"
         id="tspan34"
         style="stroke-width:0.3"
         x="191.6937"
         y="240.39362">$L_2$</tspan></text>
    <text
       xml:space="preserve"
       style="font-size:3.175px;fill:none;stroke:#000000;stroke-width:0.3"
       x="141.67105"
       y="246.91336"
       id="text35"><tspan
         sodipodi:role="line"
         id="tspan35"
         style="stroke-width:0.3"
         x="141.67105"
         y="246.91336">$C_2$</tspan></text>
    <text
       xml:space="preserve"
       style="font-size:3.175px;fill:none;stroke:#000000;stroke-width:0.3"
       x="177.32831"
       y="268.67209"
       id="text36"><tspan
         sodipodi:role="line"
         id="tspan36"
         style="stroke-width:0.3"
         x="177.32831"
         y="268.67209">$\phi_g$</tspan></text>
    <text
       xml:space="preserve"
       style="font-size:3.175px;fill:none;stroke:#000000;stroke-width:0.3"
       x="28.292677"
       y="207.60947"
       id="text37"><tspan
         sodipodi:role="line"
         id="tspan37"
         style="stroke-width:0.3"
         x="28.292677"
         y="207.60947">$\phi_v$</tspan></text>
    <text
       xml:space="preserve"
       style="font-size:3.175px;fill:none;stroke:#000000;stroke-width:0.3"
       x="99.032784"
       y="203.85335"
       id="text38"><tspan
         sodipodi:role="line"
         id="tspan38"
         style="stroke-width:0.3"
         x="99.032784"
         y="203.85335">$\phi_1$</tspan></text>
    <text
       xml:space="preserve"
       style="font-size:3.175px;fill:none;stroke:#000000;stroke-width:0.3"
       x="159.93211"
       y="201.29034"
       id="text39"><tspan
         sodipodi:role="line"
         id="tspan39"
         style="stroke-width:0.3"
         x="159.93211"
         y="201.29034">$\phi_2$</tspan></text>
  </g>
</svg>
