<?xml version="1.0" encoding="UTF-8" standalone="no"?>
<!-- Created with Inkscape (http://www.inkscape.org/) -->

<svg
   width="240mm"
   height="120mm"
   viewBox="0 0 240 120"
   version="1.1"
   id="svg8"
   inkscape:version="1.3 (0e150ed6c4, 2023-07-21)"
   sodipodi:docname="filtre-purcell.svg"
   xmlns:inkscape="http://www.inkscape.org/namespaces/inkscape"
   xmlns:sodipodi="http://sodipodi.sourceforge.net/DTD/sodipodi-0.dtd"
   xmlns="http://www.w3.org/2000/svg"
   xmlns:svg="http://www.w3.org/2000/svg"
   xmlns:rdf="http://www.w3.org/1999/02/22-rdf-syntax-ns#"
   xmlns:cc="http://creativecommons.org/ns#"
   xmlns:dc="http://purl.org/dc/elements/1.1/">
  <defs
     id="defs2" />
  <sodipodi:namedview
     id="base"
     pagecolor="#ffffff"
     bordercolor="#666666"
     borderopacity="1.0"
     inkscape:pageopacity="0.0"
     inkscape:pageshadow="2"
     inkscape:zoom="1.7405452"
     inkscape:cx="473.41488"
     inkscape:cy="230.38758"
     inkscape:document-units="mm"
     inkscape:current-layer="layer1"
     showgrid="false"
     showborder="true"
     width="200mm"
     showguides="true"
     inkscape:guide-bbox="true"
     inkscape:window-width="1920"
     inkscape:window-height="1200"
     inkscape:window-x="0"
     inkscape:window-y="0"
     inkscape:window-maximized="1"
     inkscape:showpageshadow="2"
     inkscape:pagecheckerboard="0"
     inkscape:deskcolor="#d1d1d1">
    <inkscape:grid
       type="xygrid"
       id="grid815"
       units="mm"
       spacingx="10"
       spacingy="10"
       empspacing="4"
       dotted="false"
       originx="0"
       originy="0"
       visible="false" />
  </sodipodi:namedview>
  <metadata
     id="metadata5">
    <rdf:RDF>
      <cc:Work
         rdf:about="">
        <dc:format>image/svg+xml</dc:format>
        <dc:type
           rdf:resource="http://purl.org/dc/dcmitype/StillImage" />
        <dc:title />
      </cc:Work>
    </rdf:RDF>
  </metadata>
  <g
     inkscape:label="Layer 1"
     inkscape:groupmode="layer"
     id="layer1"
     transform="translate(0,-177)">
    <path
       style="fill:none;stroke:#000000;stroke-width:0.3"
       d="m 35.520561,248.61213 c 3.276142,1.46087 7.625749,-2.13727 10.598517,-0.40319"
       id="path1" />
    <path
       style="fill:none;stroke:#000000;stroke-width:0.3"
       d="m 35.520561,248.61213 c 2.54736,1.72837 3.020348,10.2347 6.432071,5.58704 1.633648,-2.22545 3.487795,-4.12401 4.166446,-5.99023"
       id="path2" />
    <path
       style="fill:none;stroke:#000000;stroke-width:0.3"
       d="m 40.827065,248.3476 c -0.0066,-2.82894 0.640136,-5.63852 0.952767,-8.45203"
       id="path3" />
    <path
       style="fill:none;stroke:#000000;stroke-width:0.3"
       d="m 47.962301,239.879 c -4.021275,2.46039 -11.377832,-2.51661 -15.840178,0 2.165248,-2.77918 1.209613,-7.08995 1.209613,-10.46633"
       id="path4" />
    <path
       style="fill:none;stroke:#000000;stroke-width:0.3"
       d="m 33.331734,229.41267 c -3.765896,-0.56146 3.744368,0.12636 4.492853,0"
       id="path5" />
    <path
       style="fill:none;stroke:#000000;stroke-width:0.3"
       d="m 30.490101,226.28315 c 2.205609,-0.83204 5.062943,-0.85664 7.359455,-0.32639"
       id="path6" />
    <path
       style="fill:none;stroke:#000000;stroke-width:0.3"
       d="m 47.962301,239.879 c 1.051203,-2.84195 1.827715,-7.56029 0.595212,-9.87116"
       id="path7" />
    <path
       style="fill:none;stroke:#000000;stroke-width:0.3"
       d="m 54.279175,229.93725 c -1.049348,-0.0478 -6.501921,-0.0109 -8.908899,0 1.332808,-1.94127 0.875669,-5.63323 0.824382,-7.51319 2.993228,0.20901 6.130577,0.61438 9.178931,0.61438 0.825776,0 -0.637338,1.57448 -0.614407,2.39993 0.04457,1.60433 0.324936,3.06481 -0.480007,4.49888 z"
       id="path8" />
    <path
       style="fill:none;stroke:#000000;stroke-width:0.3"
       d="m 46.194657,222.42406 c 2.799,2.04972 8.340957,4.66483 8.084518,7.51319"
       id="path9" />
    <path
       style="fill:none;stroke:#000000;stroke-width:0.3"
       d="m 54.759182,225.43837 c -0.851612,-1.83211 -8.350221,2.44289 -9.388906,4.49888"
       id="path10" />
    <path
       style="fill:none;stroke:#000000;stroke-width:0.3"
       d="m 34.438166,225.60188 c -0.232785,-2.33071 0.471512,-4.61501 0.679188,-6.94092 0.995966,-11.15447 -3.298568,-5.68823 7.276886,-6.9118 1.936099,-0.22401 5.730332,-1.21974 7.603286,-0.096 0.676455,0.40586 -0.09972,7.71182 0.274378,10.64988"
       id="path11" />
    <path
       style="fill:none;stroke:#000000;stroke-width:0.3"
       d="m 42.39424,211.74916 c -2.012471,-8.76212 1.72965,-7.22289 9.67691,-7.4302 4.046551,-0.10555 9.308209,-0.7144 12.844947,-0.53758"
       id="path12" />
    <path
       style="fill:none;stroke:#000000;stroke-width:0.3"
       d="m 64.923587,199.4807 c -0.648814,2.36819 -1.183481,6.50452 -0.775499,8.21028"
       id="path13" />
    <path
       style="fill:none;stroke:#000000;stroke-width:0.3"
       d="m 69.812158,199.44106 c 0.05021,2.64852 -0.403206,6.17608 -0.403206,8.28481"
       id="path14" />
    <path
       style="fill:none;stroke:#000000;stroke-width:0.3"
       d="m 69.612509,203.58204 c 4.472099,1.44864 9.453666,0.19934 13.947008,0.19934 0.172164,0 0.351776,6.54944 0.345598,6.79661 -0.03951,1.58035 -0.132826,3.08903 -0.384,4.64627 -0.0011,0.006 -0.319738,5.365 -0.422413,5.43345 -0.285525,0.19034 -2.446062,-0.62903 -2.726422,-0.67198 -8.036383,-1.23133 -5.144995,-0.783 -4.819256,4.85643"
       id="path15" />
    <path
       style="fill:none;stroke:#000000;stroke-width:0.3"
       d="m 72.308179,224.85081 c 2.210388,0.14187 5.504212,-0.31077 6.988884,0"
       id="path16" />
    <path
       style="fill:none;stroke:#000000;stroke-width:0.3"
       d="m 72.903394,228.0303 c 2.276157,-0.10541 6.023978,0.5956 7.833691,-0.60678"
       id="path17" />
    <path
       style="fill:none;stroke:#000000;stroke-width:0.3"
       d="m 76.858274,228.28905 c -1.134207,1.1515 -1.167135,2.31365 -1.266848,3.86913 -0.04587,0.71559 -1.144101,9.67718 -0.691216,9.71493 8.796631,0.73326 14.956456,-5.50579 13.132956,6.28457"
       id="path18" />
    <path
       style="fill:none;stroke:#000000;stroke-width:0.3"
       d="m 88.033166,248.15768 c -4.848487,0.17657 2.932739,-0.58332 2.937629,-0.58438"
       id="path19" />
    <path
       style="fill:none;stroke:#000000;stroke-width:0.3"
       d="m 88.074507,247.88421 c -3.626403,-1.95855 -0.293074,3.62927 -0.02215,3.58863 1.723941,-0.25858 2.131976,-5.79128 2.918434,-3.89954"
       id="path20" />
    <path
       style="fill:none;stroke:#000000;stroke-width:0.3"
       d="m 87.070463,241.22062 c 2.251306,-0.85354 8.959525,1.49362 10.601217,-1.13305 3.2635,-5.22154 -2.130391,-6.37927 -2.07363,-6.71981 0.176983,-1.06181 3.152212,-4.43086 3.878445,-2.13115 0.771685,2.44366 -4.257011,1.08211 -3.84004,0.3264 0.518223,-0.93923 5.711365,-3.66508 5.107255,-1.91995 -0.62037,1.79209 -3.595916,-0.1949 -3.36004,-1.72796 0.190672,-1.23925 3.15575,-1.68759 2.84164,-0.90237 -0.1382,0.34547 -0.742854,0.10812 -1.11362,0.0768 -2.177931,-0.18404 -0.234574,-5.22795 -1.44001,-6.22062 -2.68124,-2.20798 -11.038118,-0.731 -14.57298,-0.21119"
       id="path21" />
    <path
       style="fill:none;stroke:#000000;stroke-width:0.3"
       d="m 83.559517,203.78138 c 10.153657,0.74528 19.881343,0.57 30.125143,1.72795 2.12462,0.24016 6.41859,0.54592 7.58409,1.09437 0.74269,3.55411 0.17811,7.22641 0.40321,10.8285 0.0287,0.45993 0.68587,1.29309 0.2304,1.36316 -3.45792,0.53195 -7.70132,-2.44194 -7.31529,-1.22876 0.56312,1.76971 0.1728,8.19308 0.1728,7.4627"
       id="path27" />
    <path
       style="fill:none;stroke:#000000;stroke-width:0.3"
       d="m 114.75987,225.0293 c -4.58442,0.34411 4.16128,-0.10584 5.24013,0.19522"
       id="path28" />
    <path
       style="fill:none;stroke:#000000;stroke-width:0.3"
       d="m 113.3017,228.18379 c 1.46761,-0.50307 3.48027,-0.0569 5.16381,0"
       id="path29" />
    <path
       style="fill:none;stroke:#000000;stroke-width:0.3"
       d="m 113.3017,228.18379 c 3.20992,1.24566 2.19612,1.95561 1.93818,4.89598 -0.75107,8.56205 -3.43249,9.00969 8.7553,9.46532 0.68902,0.0258 5.25657,-0.73974 5.58727,-0.32639 0.20038,0.25047 -0.46869,1.89409 -0.51841,2.28474 -0.079,0.62046 0.0117,4.21596 -0.48001,2.5279"
       id="path30" />
    <path
       style="fill:none;stroke:#000000;stroke-width:0.3"
       d="m 125.416,247.62806 c 0.90035,1.04441 1.7117,0.44547 2.88003,0.40808 7.20499,-0.23057 1.84389,4.91247 1.47842,4.89587 -0.74245,-0.0337 -3.59789,-4.7018 -4.35845,-5.30395 z"
       id="path31" />
    <path
       style="fill:none;stroke:#000000;stroke-width:0.3"
       d="m 129.58245,242.2187 c 1.68155,-3.34515 5.73255,-0.14744 8.19848,-1.99674 1.94855,-1.46129 -0.49423,-7.49075 0.72961,-9.73412 0.40593,-0.7441 -1.66322,0.94835 -2.45763,0.65277 -1.07002,-0.39813 -1.62865,-1.08511 -1.11361,-2.18874 1.0497,-2.24927 6.17715,-4.39193 4.66566,-0.47998 -0.69996,1.8116 -4.37147,-0.14982 -3.84004,-1.47836 0.89276,-2.23184 5.12154,-1.53446 3.74403,0.23039 -1.166,1.49387 -4.9212,-2.65887 -4.03204,-4.12788 0.72279,-1.19414 3.98878,-0.0887 3.76324,0.24959 -0.72178,1.08258 -3.77369,-1.33588 -3.85925,-1.97754 -0.11187,-0.839 1.14857,-2.45858 1.24803,-3.07143 -3.0954,-0.4516 -12.32951,-2.73199 -14.72657,0.4987"
       id="path32" />
    <path
       style="fill:none;stroke:#000000;stroke-width:0.3"
       d="m 121.26875,206.6037 c 7.78044,-1.06464 16.35769,0.25519 24.40347,0.34559 6.47385,0.0727 12.66424,1.26827 19.12344,1.20957 0.67547,-0.006 2.75665,-0.65419 3.24483,-0.28799 0.45375,0.34036 -0.10202,2.12158 -0.1536,2.41913 -0.51617,2.9776 -0.576,6.21275 -0.576,9.23494 0,0.53257 0.54856,1.28401 0.11519,1.59355 -2.20868,1.57761 -6.09058,2.46376 -5.99047,2.49594 1.31133,0.42148 1.80693,0.34439 3.26404,0.28799 10.36521,-0.40122 -3.50185,2.12856 -3.01444,3.5903 0.0936,0.28075 6.34831,-0.0184 6.06727,0.40319 -0.48159,0.72237 -4.77444,2.88591 -4.58885,3.6287 0.0253,0.10138 4.7511,-0.2053 4.62725,0.53758 -0.1477,0.8859 -4.23022,3.20939 -5.06885,3.6287 -0.12373,0.0619 -0.10629,8.58176 0.096,9.40773"
       id="path33" />
    <path
       style="fill:none;stroke:#000000;stroke-width:0.3"
       d="m 162.81803,245.0986 c 5.0926,-2.40977 -2.01976,-0.35964 -3.11044,0.0357 1.93384,-0.25149 2.31015,4.87585 3.93605,4.5146 0.68288,-0.15173 0.94997,-2.00588 1.15202,-2.55353 0.39944,-1.08264 1.16257,-4.35139 1.30561,-3.20631 0.13682,1.09528 -5.27817,0.0885 -4.81927,0.40319 0.47693,0.32702 1.02402,0.53758 1.53603,0.80637"
       id="path34" />
    <text
       xml:space="preserve"
       style="font-size:3.175px;fill:none;stroke:#000000;stroke-width:0.3"
       x="86.244255"
       y="230.53264"
       id="text34"><tspan
         sodipodi:role="line"
         id="tspan34"
         style="stroke-width:0.3;fill:none;stroke:#000000"
         x="86.244255"
         y="230.53264">$a$</tspan></text>
    <text
       xml:space="preserve"
       style="font-size:3.175px;fill:none;stroke:#000000;stroke-width:0.3"
       x="123.87997"
       y="228.33371"
       id="text35"><tspan
         sodipodi:role="line"
         id="tspan35"
         style="stroke-width:0.3;fill:none;stroke:#000000"
         x="123.87997"
         y="228.33371">$f$</tspan></text>
    <text
       xml:space="preserve"
       style="font-size:3.175px;fill:none;stroke:#000000;stroke-width:0.3"
       x="172.37973"
       y="229.61499"
       id="text36"><tspan
         sodipodi:role="line"
         id="tspan36"
         style="stroke-width:0.3;fill:none;stroke:#000000"
         x="172.37973"
         y="229.61499">$R$</tspan></text>
    <text
       xml:space="preserve"
       style="font-size:3.175px;fill:none;stroke:#000000;stroke-width:0.3"
       x="42.338696"
       y="221.38728"
       id="text37"><tspan
         sodipodi:role="line"
         id="tspan37"
         style="stroke-width:0.3;fill:none;stroke:#000000"
         x="42.338696"
         y="221.38728">$q$</tspan></text>
  </g>
</svg>
