<?xml version="1.0" encoding="UTF-8" standalone="no"?>
<!-- Created with Inkscape (http://www.inkscape.org/) -->

<svg
   width="240mm"
   height="120mm"
   viewBox="0 0 240 120"
   version="1.1"
   id="svg8"
   inkscape:version="1.3 (0e150ed6c4, 2023-07-21)"
   sodipodi:docname="gamma-2.svg"
   xmlns:inkscape="http://www.inkscape.org/namespaces/inkscape"
   xmlns:sodipodi="http://sodipodi.sourceforge.net/DTD/sodipodi-0.dtd"
   xmlns="http://www.w3.org/2000/svg"
   xmlns:svg="http://www.w3.org/2000/svg"
   xmlns:rdf="http://www.w3.org/1999/02/22-rdf-syntax-ns#"
   xmlns:cc="http://creativecommons.org/ns#"
   xmlns:dc="http://purl.org/dc/elements/1.1/">
  <defs
     id="defs2" />
  <sodipodi:namedview
     id="base"
     pagecolor="#ffffff"
     bordercolor="#666666"
     borderopacity="1.0"
     inkscape:pageopacity="0.0"
     inkscape:pageshadow="2"
     inkscape:zoom="1.3251746"
     inkscape:cx="465.59902"
     inkscape:cy="199.21903"
     inkscape:document-units="mm"
     inkscape:current-layer="layer1"
     showgrid="false"
     showborder="true"
     width="200mm"
     showguides="true"
     inkscape:guide-bbox="true"
     inkscape:window-width="1920"
     inkscape:window-height="1200"
     inkscape:window-x="0"
     inkscape:window-y="0"
     inkscape:window-maximized="1"
     inkscape:showpageshadow="2"
     inkscape:pagecheckerboard="0"
     inkscape:deskcolor="#d1d1d1">
    <inkscape:grid
       type="xygrid"
       id="grid815"
       units="mm"
       spacingx="10"
       spacingy="10"
       empspacing="4"
       dotted="false"
       originx="0"
       originy="0"
       visible="false" />
  </sodipodi:namedview>
  <metadata
     id="metadata5">
    <rdf:RDF>
      <cc:Work
         rdf:about="">
        <dc:format>image/svg+xml</dc:format>
        <dc:type
           rdf:resource="http://purl.org/dc/dcmitype/StillImage" />
        <dc:title />
      </cc:Work>
    </rdf:RDF>
  </metadata>
  <g
     inkscape:label="Layer 1"
     inkscape:groupmode="layer"
     id="layer1"
     transform="translate(0,-177)">
    <path
       style="fill:none;stroke:#000000;stroke-width:0.3"
       d="m 12.570217,191.30347 v 86.9498 H 220.62247"
       id="path1" />
    <text
       xml:space="preserve"
       style="font-size:3.175px;fill:none;stroke:#000000;stroke-width:0.3"
       x="105.62631"
       y="285.06198"
       id="text1"><tspan
         sodipodi:role="line"
         id="tspan1"
         style="stroke-width:0.3;fill:none;stroke:#000000"
         x="105.62631"
         y="285.06198">t </tspan></text>
    <path
       style="fill:none;stroke:#000000;stroke-width:0.3"
       d="m 12.570217,273.71412 c 23.082675,1.51913 18.219004,-60.07952 33.490108,-65.66626 4.30212,-1.57387 7.083311,3.60852 8.170778,6.98524 1.06935,3.32047 0.909627,6.93432 1.18527,10.36437 0.228888,2.84825 1.913667,5.39079 2.370531,8.24611 0.851935,5.32442 0.465955,10.7429 1.462672,16.08874 0.845815,4.5365 4.725652,8.20191 5.749806,12.81047 0.638477,2.87307 3.372226,8.53757 7.262913,7.54001 0.98874,-0.25351 1.630707,-1.46437 2.420972,-2.06782 11.883102,-9.07395 16.437835,-43.82993 24.966268,-46.42535 13.371155,-4.06919 13.748735,27.86392 24.461905,31.57226 12.07954,4.18131 15.05491,-19.26895 28.57251,-21.58614 4.66861,-0.8003 7.83317,8.93038 9.86041,11.39829 1.89496,2.30687 6.67713,3.3256 9.45692,3.75741 7.77693,1.20803 8.21646,-7.75637 15.81198,-8.3722 4.43128,-0.35928 7.51427,2.8949 11.57526,4.03479 7.52379,2.11188 16.36476,1.94557 24.13405,2.11827"
       id="path2" />
    <path
       style="fill:none;stroke:#000000;stroke-width:0.3"
       d="m 12.570217,191.30347 c 6.044864,6.06883 10.496016,9.53593 18.737306,12.40698 4.588843,1.59864 12.969013,3.83054 17.375516,5.42176 6.394561,2.30911 20.855541,6.58175 27.437681,7.6409 9.227515,1.48483 13.213248,1.16213 22.393986,3.07652 10.522154,2.19411 26.631134,6.58589 31.170024,7.7922 3.19723,0.84974 23.97811,4.08666 22.99922,3.93392 -3.40925,-0.53196 13.96356,2.86694 17.37552,3.27762 9.3434,1.12461 24.82017,4.37494 34.10283,5.89664 7.49984,1.22945 25.71106,-2.91557 29.97726,0"
       id="path3"
       sodipodi:nodetypes="cssssssssc" />
    <text
       xml:space="preserve"
       style="font-size:3.175px;fill:none;stroke:#000000;stroke-width:0.3"
       x="127.99508"
       y="221.5392"
       id="text3"><tspan
         sodipodi:role="line"
         id="tspan3"
         style="stroke-width:0.3;fill:none;stroke:#000000"
         x="127.99508"
         y="221.5392">$e^{-\gamma_2 t}$</tspan></text>
  </g>
</svg>
