<?xml version="1.0" encoding="UTF-8" standalone="no"?>
<!-- Created with Inkscape (http://www.inkscape.org/) -->

<svg
   width="240mm"
   height="120mm"
   viewBox="0 0 240 120"
   version="1.1"
   id="svg8"
   inkscape:version="1.3 (0e150ed6c4, 2023-07-21)"
   sodipodi:docname="graphiques.svg"
   xmlns:inkscape="http://www.inkscape.org/namespaces/inkscape"
   xmlns:sodipodi="http://sodipodi.sourceforge.net/DTD/sodipodi-0.dtd"
   xmlns="http://www.w3.org/2000/svg"
   xmlns:svg="http://www.w3.org/2000/svg"
   xmlns:rdf="http://www.w3.org/1999/02/22-rdf-syntax-ns#"
   xmlns:cc="http://creativecommons.org/ns#"
   xmlns:dc="http://purl.org/dc/elements/1.1/">
  <defs
     id="defs2">
    <marker
       style="overflow:visible"
       id="marker2"
       refX="0"
       refY="0"
       orient="auto-start-reverse"
       inkscape:stockid="Triangle arrow"
       markerWidth="1"
       markerHeight="1"
       viewBox="0 0 1 1"
       inkscape:isstock="true"
       inkscape:collect="always"
       preserveAspectRatio="xMidYMid">
      <path
         transform="scale(0.5)"
         style="fill:context-stroke;fill-rule:evenodd;stroke:context-stroke;stroke-width:1pt"
         d="M 5.77,0 -2.88,5 V -5 Z"
         id="path2" />
    </marker>
    <marker
       style="overflow:visible"
       id="Triangle"
       refX="0"
       refY="0"
       orient="auto-start-reverse"
       inkscape:stockid="Triangle arrow"
       markerWidth="1"
       markerHeight="1"
       viewBox="0 0 1 1"
       inkscape:isstock="true"
       inkscape:collect="always"
       preserveAspectRatio="xMidYMid">
      <path
         transform="scale(0.5)"
         style="fill:context-stroke;fill-rule:evenodd;stroke:context-stroke;stroke-width:1pt"
         d="M 5.77,0 -2.88,5 V -5 Z"
         id="path135" />
    </marker>
    <marker
       style="overflow:visible"
       id="Triangle-3"
       refX="0"
       refY="0"
       orient="auto-start-reverse"
       inkscape:stockid="Triangle arrow"
       markerWidth="1"
       markerHeight="1"
       viewBox="0 0 1 1"
       inkscape:isstock="true"
       inkscape:collect="always"
       preserveAspectRatio="xMidYMid">
      <path
         transform="scale(0.5)"
         style="fill:context-stroke;fill-rule:evenodd;stroke:context-stroke;stroke-width:1pt"
         d="M 5.77,0 -2.88,5 V -5 Z"
         id="path135-6" />
    </marker>
    <marker
       style="overflow:visible"
       id="marker2-7"
       refX="0"
       refY="0"
       orient="auto-start-reverse"
       inkscape:stockid="Triangle arrow"
       markerWidth="1"
       markerHeight="1"
       viewBox="0 0 1 1"
       inkscape:isstock="true"
       inkscape:collect="always"
       preserveAspectRatio="xMidYMid">
      <path
         transform="scale(0.5)"
         style="fill:context-stroke;fill-rule:evenodd;stroke:context-stroke;stroke-width:1pt"
         d="M 5.77,0 -2.88,5 V -5 Z"
         id="path2-5" />
    </marker>
  </defs>
  <sodipodi:namedview
     id="base"
     pagecolor="#ffffff"
     bordercolor="#666666"
     borderopacity="1.0"
     inkscape:pageopacity="0.0"
     inkscape:pageshadow="2"
     inkscape:zoom="1.7416606"
     inkscape:cx="252.63246"
     inkscape:cy="218.75674"
     inkscape:document-units="mm"
     inkscape:current-layer="layer1"
     showgrid="false"
     showborder="true"
     width="200mm"
     showguides="true"
     inkscape:guide-bbox="true"
     inkscape:window-width="1920"
     inkscape:window-height="1200"
     inkscape:window-x="0"
     inkscape:window-y="0"
     inkscape:window-maximized="1"
     inkscape:showpageshadow="2"
     inkscape:pagecheckerboard="0"
     inkscape:deskcolor="#d1d1d1">
    <inkscape:grid
       type="xygrid"
       id="grid815"
       units="mm"
       spacingx="10"
       spacingy="10"
       empspacing="4"
       dotted="false"
       originx="0"
       originy="0"
       visible="false" />
  </sodipodi:namedview>
  <metadata
     id="metadata5">
    <rdf:RDF>
      <cc:Work
         rdf:about="">
        <dc:format>image/svg+xml</dc:format>
        <dc:type
           rdf:resource="http://purl.org/dc/dcmitype/StillImage" />
        <dc:title />
      </cc:Work>
    </rdf:RDF>
  </metadata>
  <g
     inkscape:label="Layer 1"
     inkscape:groupmode="layer"
     id="layer1"
     transform="translate(0,-177)">
    <path
       style="fill:none;stroke:#000000;stroke-width:0.358102;marker-start:url(#Triangle);marker-end:url(#marker2)"
       d="m 28.329744,197.22626 v 81.41836 h 74.803536"
       id="path1" />
    <path
       style="fill:none;stroke:#000000;stroke-width:0.358102;marker-start:url(#Triangle-3);marker-end:url(#marker2-7)"
       d="m 138.82479,197.22626 v 81.41836 h 74.80354"
       id="path1-3" />
    <text
       xml:space="preserve"
       style="font-size:3.175px;fill:none;stroke:#000000;stroke-width:0.3"
       x="100.85749"
       y="286.37839"
       id="text2"><tspan
         sodipodi:role="line"
         id="tspan2"
         style="fill:none;stroke:#000000;stroke-width:0.3"
         x="100.85749"
         y="286.37839">$n_g$</tspan></text>
    <text
       xml:space="preserve"
       style="font-size:3.175px;fill:none;stroke:#000000;stroke-width:0.3"
       x="19.785749"
       y="197.34859"
       id="text3"><tspan
         sodipodi:role="line"
         id="tspan3"
         style="stroke-width:0.3;fill:none;stroke:#000000"
         x="19.785749"
         y="197.34859">$E$</tspan></text>
    <path
       style="fill:none;stroke:#000000;stroke-width:0.3"
       d="m 32.552378,223.52485 c 0.538305,-1.65206 1.551037,-2.96712 2.436865,-4.41304 0.260715,-0.42557 0.497631,-0.86574 0.767517,-1.28555 0.422206,-0.65674 1.233085,-1.19742 1.861227,-1.59253 0.365051,-0.22962 0.814708,-0.19106 1.208841,-0.32618 0.247174,-0.0847 0.477052,-0.21906 0.729142,-0.28781 0.625134,-0.17048 1.047382,-0.15349 1.669349,-0.15349 0.09594,0 0.193185,-0.0158 0.287819,0 0.321394,0.0536 0.691986,0.21417 0.959395,0.40293 0.857782,0.60546 0.890471,1.63223 1.400722,2.49433 0.253897,0.42898 0.574691,0.76134 0.863455,1.17041 0.219273,0.31063 0.352766,0.68679 0.53726,1.01692 0.587499,1.05126 -0.459081,-0.98038 0.479698,0.78667 0.123467,0.2324 0.204499,0.48766 0.345381,0.70993 0.349163,0.55088 1.006655,1.23079 1.573414,1.59254 0.555085,0.35429 1.179341,0.57046 1.765287,0.86342 0.682035,0.341 1.16868,0.71187 1.957168,0.65236 0.556691,-0.042 1.136925,-0.42358 1.611786,-0.67155 0.834977,-0.43602 1.72575,-0.87313 2.379305,-1.57335 0.288359,-0.30894 0.427329,-0.64503 0.633203,-1.01692 0.361273,-0.6526 0.750221,-1.32124 1.247212,-1.88034 0.453686,-0.51038 0.9926,-0.84212 1.515845,-1.26635 0.335161,-0.27174 0.638525,-0.58257 0.997773,-0.82505 0.252754,-0.1706 0.554892,-0.25179 0.825082,-0.38374 0.503666,-0.24597 0.913493,-0.63735 1.477471,-0.76749 0.733565,-0.16928 1.909617,-0.17463 2.628746,-0.0576 0.18991,0.0309 0.359421,0.13761 0.53726,0.21107 0.672174,0.27763 1.421051,0.69474 1.957168,1.1896 0.320969,0.29627 0.712341,0.93519 0.978583,1.26636 0.25097,0.31217 0.493228,0.63137 0.748331,0.94016 0.788387,0.95433 -0.19228,-0.3053 0.652391,0.63319 0.504061,0.56005 0.905754,1.17336 1.362343,1.76521 0.309197,0.4008 0.291909,0.29361 0.709951,0.69074 0.301731,0.28663 0.562197,0.61467 0.863457,0.9018 0.702686,0.66972 0.557226,0.49673 1.228029,1.01692 1.248831,0.96844 1.868874,1.38724 3.549766,1.24716 0.845379,-0.0705 1.873719,-0.33039 2.494431,-0.95936 0.646393,-0.65498 1.15012,-1.64809 1.592599,-2.41758 0.168463,-0.29297 0.338881,-0.58494 0.498885,-0.8826 0.263805,-0.49079 0.361368,-0.77759 0.652386,-1.24717 0.410749,-0.66277 0.89268,-1.23857 1.381527,-1.84197 0.875771,-1.08099 1.180311,-1.55947 2.532811,-1.91872 0.206817,-0.0549 0.724903,-0.13739 0.94021,-0.17268 2.225111,-0.36476 3.852548,-0.14046 5.775566,1.09366 0.778661,0.49972 1.431202,1.14436 2.110668,1.76523 0.915599,0.83664 1.810944,1.73072 2.820625,2.45595 0.816261,0.58631 0.322964,0.0869 1.132089,0.78668 0.827333,0.7155 1.431543,1.5482 2.494433,1.88034 0.18925,0.0591 0.39782,0.0224 0.59483,0 0.0885,-0.0101 0.33658,-0.0774 0.24943,-0.0959 -0.22873,-0.0485 -0.46764,0 -0.70147,0"
       id="path3" />
    <path
       style="fill:none;stroke:#000000;stroke-width:0.3"
       d="m 36.006203,253.28416 c 1.913766,-0.42528 1.912562,-0.44763 5.123175,-0.70993 0.612283,-0.05 2.347206,0.18795 2.935753,0.23024 1.636345,0.11758 3.273571,0.22552 4.912109,0.30699 0.677256,0.0337 1.355984,0.0237 2.033918,0.0384 1.830663,0.0396 3.65605,0.066 5.487752,0.0576 2.208742,-0.0101 4.412755,-0.0981 6.619833,-0.17268 0.492376,-0.0166 0.985821,-0.007 1.47747,-0.0384 1.589344,-0.10172 3.048299,-0.81729 4.64348,-0.9018 1.550717,-0.0821 3.163117,0.0487 4.701037,0.0768 1.15797,0.0211 1.528829,-0.0686 2.724687,-0.0384 1.938949,0.049 3.857249,0.32245 5.794751,0.36456 0.812122,0.0177 1.624941,-0.0442 2.43687,-0.0192 0.641334,0.0198 1.282581,0.0702 1.91879,0.1535 0.440291,0.0576 0.868575,0.18554 1.304782,0.26862 0.638398,0.1216 1.276078,0.24916 1.918791,0.34537 0.73465,0.10997 1.810993,0.16889 2.551993,0.23025 1.216776,0.10075 2.460686,0.26752 3.684082,0.30699 0.965491,0.0311 0.519682,-0.002 1.266404,-0.11513 0.391414,-0.0596 0.773182,-0.0476 1.170467,-0.0192 7.94e-4,6e-5 1.150416,0.15343 1.151273,0.1535 0.26801,0.0223 0.53767,0.0189 0.80589,0.0384 1.76859,0.12861 0.75886,0.11512 1.76529,0.11512 0.53726,0 1.07452,0 1.61179,0 0.10873,0 0.21746,0 0.32619,0 0.0192,0 0.0576,-0.0192 0.0576,0 0,0.20214 -0.13406,0.19188 -0.0254,0.19188"
       id="path4" />
    <text
       xml:space="preserve"
       style="font-size:3.175px;fill:none;stroke:#000000;stroke-width:0.3"
       x="208.08351"
       y="284.13824"
       id="text4"><tspan
         sodipodi:role="line"
         id="tspan4"
         style="stroke-width:0.3;fill:none;stroke:#000000"
         x="208.08351"
         y="284.13824">$E_c/E_J$</tspan></text>
    <text
       xml:space="preserve"
       style="font-size:3.175px;fill:none;stroke:#000000;stroke-width:0.3"
       x="121.99868"
       y="199.94844"
       id="text5"><tspan
         sodipodi:role="line"
         id="tspan5"
         style="fill:none;stroke:#000000;stroke-width:0.3"
         x="121.99868"
         y="199.94844">$\text{dissp</tspan><tspan
         sodipodi:role="line"
         style="fill:none;stroke:#000000;stroke-width:0.3"
         x="121.99868"
         y="203.91719"
         id="tspan1" /><tspan
         sodipodi:role="line"
         style="fill:none;stroke:#000000;stroke-width:0.3"
         x="121.99868"
         y="207.88594"
         id="tspan6">charge}$</tspan></text>
    <path
       style="fill:none;stroke:#000000;stroke-width:0.3"
       id="path6"
       d="m 141.81695,226.66446 c 2.05305,3.15563 4.8483,5.73572 7.5423,8.32962 3.97309,3.70473 7.91535,7.4475 11.66303,11.38233 2.36588,2.48402 3.50067,3.79507 5.76545,6.33192 3.96553,4.57926 7.92586,9.16269 12.01053,13.63664 1.46358,1.54464 2.91385,3.10371 4.41831,4.609 0.5968,0.61747 1.25838,1.15705 1.95321,1.65855 1.0183,0.80807 2.21306,1.30028 3.3911,1.82258 0,0 -0.0623,-0.0501 -0.0623,-0.0501 v 0 c 0.16608,0.0479 0.32588,0.13064 0.49823,0.14357 0.0355,0.003 0.0213,-0.0829 -0.005,-0.1066 -0.29832,-0.26614 -0.68999,-0.41324 -0.98284,-0.68736 -0.69999,-0.49906 -1.38104,-1.01738 -1.99172,-1.62601 -1.65533,-1.55212 -3.25187,-3.16634 -4.85224,-4.77453 -1.56582,-1.62592 -1.77155,-1.82137 -3.38282,-3.57838 -3.10949,-3.39075 -6.09968,-6.88836 -9.19536,-10.29159 -2.53372,-2.76742 -3.35067,-3.69088 -5.97276,-6.42613 -3.76275,-3.92512 -7.66152,-7.7191 -11.67134,-11.39124 -0.76575,-0.74239 -1.54768,-1.46845 -2.29724,-2.22718 -1.43894,-1.45653 -2.81071,-2.99654 -4.02497,-4.64703 -0.1888,-0.25662 -0.35788,-0.52722 -0.54083,-0.78805 -0.12027,-0.17146 -0.24583,-0.33915 -0.36875,-0.50873 z" />
    <path
       style="fill:none;stroke:#000000;stroke-width:0.3"
       id="path7"
       d="m 142.65405,217.11955 c 1.80634,2.68257 4.08974,5.00679 6.34031,7.31262 5.22789,5.28009 11.1402,9.80912 16.95072,14.41733 4.32566,3.46074 8.61947,6.96115 12.92176,10.45087 2.06663,1.67527 4.04685,3.4559 5.92711,5.3379 1.07443,1.07543 1.46281,1.51418 2.54519,2.67477 2.46599,2.79486 4.96246,5.56049 7.58793,8.20671 1.07446,1.22577 2.42645,2.1181 3.76474,3.0202 0,0 0.0738,0.0308 0.0738,0.0308 v 0 c 0.0885,-0.0839 0.28024,-0.13062 0.26546,-0.25165 -0.0641,-0.52496 -1.31783,-1.5758 -1.43912,-1.69531 -2.67117,-2.65765 -5.25823,-5.39691 -7.72219,-8.24896 -0.43649,-0.48931 -0.86163,-0.98899 -1.30948,-1.46792 -2.24509,-2.40087 -4.75746,-4.54655 -7.28518,-6.63889 -4.4272,-3.55536 -8.85573,-7.10996 -13.32249,-10.61539 -5.90908,-4.56494 -11.84677,-9.13949 -17.11381,-14.45336 -0.63989,-0.66167 -1.29172,-1.312 -1.91967,-1.98501 -1.52718,-1.63677 -2.91221,-3.38759 -4.21438,-5.20605 z" />
    <path
       style="fill:none;stroke:#000000;stroke-width:0.3"
       id="path8"
       d="m 147.72879,208.54993 c 0.56926,0.4197 1.16454,0.80365 1.72997,1.22853 1.42502,1.0708 2.70071,2.12631 4.07141,3.2829 1.31988,1.11372 4.93321,4.24472 6.0605,5.21906 5.24948,4.61456 10.58263,9.15569 15.4734,14.15851 3.02468,3.09397 3.7393,4.0344 6.47373,7.2374 2.24658,2.72659 4.33582,5.57606 6.37844,8.45671 1.15707,1.63178 2.07882,2.9935 3.25367,4.60437 0.49693,0.68136 1.01028,1.35058 1.51542,2.02586 2.05525,2.70886 4.29408,5.26989 6.66619,7.70373 1.38797,1.43907 2.77404,2.8789 4.2123,4.26796 1.17599,1.14546 2.35807,2.28423 3.56041,3.40205 0.52201,0.45494 0.94937,0.85964 1.54205,1.23402 0.50116,0.31656 1.02924,0.58836 1.54386,0.88254 0,0 0.0738,0.0307 0.0738,0.0307 v 0 c 0.24574,0.0158 0.54545,0.20204 0.73722,0.0476 0.33894,-0.27299 -1.47059,-0.84598 -0.88451,-0.96034 -1.21161,-1.12082 -2.3968,-2.26926 -3.59041,-3.40914 -1.4933,-1.4121 -2.95481,-2.85682 -4.38843,-4.32957 -2.45463,-2.49377 -4.86258,-5.03601 -7.00556,-7.80883 -0.53215,-0.68469 -1.07269,-1.36294 -1.59645,-2.05407 -1.82032,-2.40206 -1.59508,-2.19294 -3.40637,-4.67097 -2.17264,-2.97241 -4.41596,-5.89557 -6.83629,-8.67245 -2.64146,-2.99922 -3.85377,-4.45573 -6.70418,-7.34993 -4.88268,-4.9577 -10.1604,-9.50196 -15.35706,-14.12095 -2.09935,-1.86124 -3.7183,-3.30741 -5.80262,-5.11835 -1.04843,-0.91092 -2.62201,-2.27094 -3.75812,-3.17475 -0.74432,-0.59214 -0.97642,-0.73575 -1.67214,-1.20845 z" />
  </g>
</svg>
