<?xml version="1.0" encoding="UTF-8" standalone="no"?>
<!-- Created with Inkscape (http://www.inkscape.org/) -->

<svg
   width="240mm"
   height="120mm"
   viewBox="0 0 240 120"
   version="1.1"
   id="svg8"
   inkscape:version="1.3 (0e150ed6c4, 2023-07-21)"
   sodipodi:docname="remplacement-par-une-inductance-non-lineaire.svg"
   xmlns:inkscape="http://www.inkscape.org/namespaces/inkscape"
   xmlns:sodipodi="http://sodipodi.sourceforge.net/DTD/sodipodi-0.dtd"
   xmlns="http://www.w3.org/2000/svg"
   xmlns:svg="http://www.w3.org/2000/svg"
   xmlns:rdf="http://www.w3.org/1999/02/22-rdf-syntax-ns#"
   xmlns:cc="http://creativecommons.org/ns#"
   xmlns:dc="http://purl.org/dc/elements/1.1/">
  <defs
     id="defs2" />
  <sodipodi:namedview
     id="base"
     pagecolor="#ffffff"
     bordercolor="#666666"
     borderopacity="1.0"
     inkscape:pageopacity="0.0"
     inkscape:pageshadow="2"
     inkscape:zoom="1.741127"
     inkscape:cx="429.60679"
     inkscape:cy="156.22065"
     inkscape:document-units="mm"
     inkscape:current-layer="layer1"
     showgrid="false"
     showborder="true"
     width="200mm"
     showguides="true"
     inkscape:guide-bbox="true"
     inkscape:window-width="1920"
     inkscape:window-height="1200"
     inkscape:window-x="0"
     inkscape:window-y="0"
     inkscape:window-maximized="1"
     inkscape:showpageshadow="2"
     inkscape:pagecheckerboard="0"
     inkscape:deskcolor="#d1d1d1">
    <inkscape:grid
       type="xygrid"
       id="grid815"
       units="mm"
       spacingx="10"
       spacingy="10"
       empspacing="4"
       dotted="false"
       originx="0"
       originy="0"
       visible="false" />
  </sodipodi:namedview>
  <metadata
     id="metadata5">
    <rdf:RDF>
      <cc:Work
         rdf:about="">
        <dc:format>image/svg+xml</dc:format>
        <dc:type
           rdf:resource="http://purl.org/dc/dcmitype/StillImage" />
        <dc:title />
      </cc:Work>
    </rdf:RDF>
  </metadata>
  <g
     inkscape:label="Layer 1"
     inkscape:groupmode="layer"
     id="layer1"
     transform="translate(0,-177)">
    <path
       style="fill:none;stroke:#000000;stroke-width:0.3"
       d="m 18.081963,274.75663 c 0.486182,-0.1301 0.967344,-0.28066 1.458544,-0.3903 0.37141,-0.0829 1.355413,-0.18365 1.725602,-0.20542 0.403543,-0.0237 0.807809,-0.0454 1.212026,-0.0411 0.277314,0.003 1.37494,0.14205 1.581801,0.16433 0.444596,0.0479 0.767603,0.0593 1.21203,0 0.06258,-0.008 0.122615,-0.0307 0.184888,-0.0411 0.07368,-0.0123 0.256647,0 0.30814,0 0.02054,0 0.0722,-0.0176 0.06163,0 -0.02752,0.0459 -0.08431,0.066 -0.123257,0.1027 -0.07757,0.073 -0.149674,0.15163 -0.22597,0.22597 -0.409069,0.39856 -0.645768,0.57774 -0.965517,1.0271 -0.290117,0.40772 -0.483484,0.82402 -0.739541,1.25307 -0.369509,0.61915 -0.451602,0.73245 -0.965517,1.29415 -0.09484,0.10366 -0.198062,0.20029 -0.308145,0.28759 -0.330866,0.2624 -0.607792,0.27276 -0.986055,0.43138 -0.117579,0.0493 -0.291812,0.15696 -0.390314,0.2465 -0.002,0.002 -0.08685,0.13539 -0.123257,0.12325 -0.03248,-0.0108 -0.03909,-0.0564 -0.06163,-0.0822 -0.02551,-0.0292 -0.05881,-0.0513 -0.08217,-0.0822 -0.189164,-0.25018 -0.367862,-0.50812 -0.554658,-0.76006 -0.227,-0.30618 -0.465957,-0.56627 -0.616285,-0.92439 -0.160097,-0.3814 -0.266252,-0.78338 -0.410858,-1.17091 -0.0639,-0.17125 -0.178858,-0.34318 -0.308145,-0.47247 -0.04464,-0.0446 -0.101675,-0.0762 -0.1438,-0.12325 -0.252748,-0.28212 -0.493028,-0.57517 -0.739542,-0.86276 z"
       id="path3" />
    <path
       style="fill:none;stroke:#000000;stroke-width:0.3"
       d="m 21.266109,274.16091 c 0.123257,-0.54094 0.285406,-1.07447 0.369771,-1.62283 0.01116,-0.0726 -0.09873,-1.05376 -0.102713,-1.08873 -0.136513,-1.19824 -0.08154,-0.78348 -0.246514,-1.82824 -0.04109,-0.2602 -0.07641,-0.52137 -0.123262,-0.7806 -0.226238,-1.25179 -0.128617,-0.52746 -0.267058,-1.41739 -0.02233,-0.14353 -0.05076,-0.28654 -0.06163,-0.43138 -0.02162,-0.2883 -6.35e-4,-0.47996 0.06163,-0.76006 0.07224,-0.32507 0.06698,-0.0409 0.08218,-0.3903 0.0089,-0.20523 0,-0.41084 0,-0.61627 0,-0.30128 0,-0.60257 0,-0.90385 0,-0.089 0,-0.17803 0,-0.26704 0,-0.0685 -0.0062,-0.13723 0,-0.20542 0.01438,-0.15817 0.04409,-0.31462 0.06163,-0.47247 0.04438,-0.39938 0.07913,-0.80961 0.06163,-1.21198 -0.0042,-0.0966 -0.04134,-0.28354 -0.06163,-0.36976 -0.02485,-0.10562 -0.06566,-0.20086 -0.08217,-0.30813 -0.06094,-0.39607 0.0094,0.0508 -0.02055,-0.30814 -0.0064,-0.0763 -0.03214,-0.14992 -0.04109,-0.22595 -0.0041,-0.0352 -0.04027,-0.44807 -0.04108,-0.47247 -0.0041,-0.12318 0.0041,-0.24657 0,-0.36975 -0.0027,-0.0824 -0.01725,-0.16412 -0.02055,-0.24651 -0.0068,-0.17105 0,-0.34237 0,-0.51355 0,-0.10272 -0.0038,-0.2055 0,-0.30814 0.0059,-0.15835 0.0323,-0.31438 0.04109,-0.47247 0.0027,-0.0478 -0.0048,-0.0961 0,-0.14379 0.0021,-0.0215 0.03585,-0.0463 0.02054,-0.0616 -0.03492,-0.0349 -0.08834,0.0472 -0.123257,0.0822"
       id="path4" />
    <path
       style="fill:none;stroke:#000000;stroke-width:0.3"
       d="m 21.788379,246.38805 c -0.34528,-0.0753 -0.683214,-0.24934 -1.035841,-0.22596 -0.202802,0.0134 -0.341412,0.22064 -0.513576,0.32866 -0.177078,0.11111 -0.360686,0.21196 -0.53411,0.32868 -0.469632,0.31609 -0.826764,0.61335 -1.232574,1.02711 -0.129547,0.13208 -0.240716,0.28153 -0.349228,0.43138 -0.457856,0.63225 -0.501201,0.67613 -0.76009,1.31469 -0.02686,0.0662 -0.04796,0.13525 -0.06163,0.20542 -0.281523,1.44511 -0.246513,0.96421 -0.246513,1.97204 0,0.1175 -0.0099,0.41755 0.02054,0.55463 0.01131,0.0509 0.03723,0.0977 0.06163,0.14379 0.03736,0.0706 0.07534,0.14155 0.123257,0.20543 0.05527,0.0737 0.124027,0.13626 0.184888,0.20542 0.08979,0.10203 0.182148,0.20199 0.267058,0.30813 0.130105,0.17118 0.260209,0.34237 0.390314,0.51355 0.04109,0.0616 0.07882,0.12563 0.123257,0.18488 0.09946,0.13261 0.206665,0.25923 0.30814,0.3903 0.06288,0.0812 0.120259,0.16667 0.184888,0.2465 0.05188,0.0641 0.117058,0.11733 0.164344,0.18488 0.0492,0.0703 0.07911,0.15239 0.123257,0.22596 0.831021,1.38498 -0.308612,-0.57748 0.45194,0.7806 0.06375,0.11384 0.102648,0.14371 0.184888,0.24651 0.04877,0.061 0.09556,0.12348 0.143801,0.18487 0.142259,0.18105 0.02564,0.0274 0.1438,0.18488 0.02054,0.0274 0.03639,0.059 0.06163,0.0822 0.05756,0.0528 0.131488,0.0868 0.184888,0.1438 0.05066,0.054 0.08217,0.12325 0.123257,0.18488 0.109562,0.16433 0.219126,0.32867 0.328688,0.493 0.08443,0.12664 0.222407,0.38585 0.369771,0.49301 0.151059,0.10985 0.245616,0.0608 0.45194,0.0822 0.08959,0.009 0.177543,0.0311 0.267058,0.0411 0.264006,0.0293 0.379416,0.0206 0.657372,0.0206 0.02111,0 0.658636,0.0137 0.801172,-0.0206 0.08656,-0.0208 0.169408,-0.0582 0.246514,-0.1027 0.52472,-0.30271 0.775627,-0.84897 1.027143,-1.37632 0.08211,-0.17217 0.137672,-0.35579 0.205431,-0.5341 0.136294,-0.35865 0.230708,-0.57328 0.30814,-0.94493 0.03674,-0.17635 0.05334,-0.3563 0.08217,-0.5341 0.122759,-0.75697 0.194455,-0.99065 0.22597,-1.70499 0.01,-0.22574 0.022,-0.453 0,-0.67788 -0.03979,-0.40673 -0.117696,-0.80888 -0.184883,-1.21199 -0.04924,-0.29541 -0.09378,-0.59225 -0.164344,-0.88331 -0.03929,-0.16204 -0.101208,-0.31813 -0.164345,-0.47246 -0.189349,-0.46283 -0.460687,-0.90333 -0.821716,-1.25307 -0.06491,-0.0629 -0.493625,-0.34369 -0.575197,-0.3903 -0.02765,-0.0158 -0.508285,-0.25606 -0.554658,-0.26704 -0.391387,-0.0927 -0.614642,-0.0941 -0.986061,0.0616 -1.107672,0.4645 -0.421957,0.41085 -1.153879,0.41085"
       id="path5" />
    <path
       style="fill:none;stroke:#000000;stroke-width:0.3"
       d="m 18.225761,253.8859 c 0.342382,-0.3903 0.709096,-0.76053 1.027145,-1.1709 0.61938,-0.79917 -0.247994,-0.2071 0.780629,-1.08873 0.03537,-0.0303 0.373004,-0.17576 0.493028,-0.12325 0.06669,0.0292 0.115156,0.0901 0.164344,0.1438 0.486201,0.53037 0.107895,0.15155 0.493028,0.67788 0.129457,0.17692 0.259971,0.35451 0.410858,0.51355 0.168502,0.1776 0.64586,0.50734 0.842259,0.59572 0.101653,0.0457 0.222732,0.0963 0.328684,0.0616 0.701428,-0.22931 0.839911,-0.49076 1.232574,-1.06818 0.07929,-0.1166 0.147846,-0.24106 0.205427,-0.36977 0.05925,-0.13244 -8.73e-4,-0.39972 0.1438,-0.41083 0.326086,-0.0251 0.616284,0.21917 0.924426,0.32875"
       id="path6" />
    <path
       style="fill:none;stroke:#000000;stroke-width:0.3"
       d="m 21.820759,247.559 c 0.08902,-0.20544 0.221192,-0.39717 0.267061,-0.61631 0.09364,-0.44739 0.140307,-1.98058 0.143801,-2.40343 0.01024,-1.23933 -0.0074,-2.47876 0,-3.71811 0.01325,-2.21868 0.06353,-4.437 0.08217,-6.65563 0.0039,-0.4656 -0.01513,-0.93149 0,-1.39686 0.01227,-0.3774 0.03435,-0.75526 0.08217,-1.12982 0.201945,-1.58184 0.275543,-1.42259 0.410858,-2.67046 0.02887,-0.26628 0.05801,-0.53333 0.06163,-0.80114 0.0068,-0.50565 -0.05349,-0.84763 -0.143795,-1.33523 -0.03057,-0.16506 -0.0698,-0.32841 -0.102719,-0.49301 -0.01502,-0.0751 -0.0332,-0.14982 -0.04108,-0.22597 -0.02352,-0.22733 -0.0305,-0.70807 -0.02054,-0.90385 0.01152,-0.2266 0.04108,-0.45192 0.06163,-0.67788 0.02054,-0.32868 0.04792,-0.65699 0.06163,-0.98603 0.01197,-0.28734 0,-0.57517 0,-0.86276 0,-0.19857 0,-0.39715 0,-0.59572 0,-0.0999 0.004,-0.16874 -0.02055,-0.26705 -0.0068,-0.0274 -5.82e-4,-0.0622 -0.02054,-0.0822 -0.01452,-0.0145 0.0065,0.0421 0,0.0616 -0.0078,0.0234 -0.04017,0.0369 -0.04109,0.0616 -0.0061,0.16437 0.01653,0.32859 0.02055,0.49302 0.0028,0.11637 0.103122,0.29521 0,0.34921 -0.196957,0.10312 -0.44464,0 -0.66696,0 0.523612,-0.44505 0.978228,-0.98722 1.570836,-1.33515 0.253304,-0.14872 2.187271,-0.62298 2.588406,-0.71898 0.416303,-0.0996 2.141804,-0.49036 2.547313,-0.57517 0.615179,-0.12866 1.22963,-0.26225 1.848858,-0.36976 0.367372,-0.0638 0.739722,-0.0945 1.109318,-0.1438 1.191345,-0.15884 0.879259,-0.13748 2.054285,-0.2465 1.108375,-0.10283 1.127802,-0.0773 2.36243,-0.20542 0.572146,-0.0594 1.05311,-0.14359 1.622889,-0.22596 0.626909,-0.0906 1.522672,-0.20496 2.115916,-0.30813 0.220988,-0.0384 0.438153,-0.0963 0.657372,-0.14379 0.364234,-0.0789 0.681438,-0.15311 1.047686,-0.20543 0.129509,-0.0185 0.259654,-0.0345 0.390314,-0.0411 0.232528,-0.0116 0.465636,0 0.698455,0 0.07532,0 0.15065,0 0.225975,0 0.04109,0 0.146047,-0.0342 0.123257,0 -0.05698,0.0855 -0.164343,0.12326 -0.246514,0.18488"
       id="path7" />
    <path
       style="fill:none;stroke:#000000;stroke-width:0.3"
       d="m 41.870608,218.18378 c -0.0069,-0.54093 0.520391,-1.62965 -0.02053,-1.6228 -0.540933,0.007 0.0019,1.08214 0.02053,1.6228 0.03614,1.04812 0.08035,2.09613 0.143801,3.14296 0.01876,0.30945 0.04295,0.62018 0.102712,0.92439 0.01654,0.0842 0.05344,0.17609 0.123258,0.22596 0.03389,0.0242 -0.02066,-0.11714 0.02053,-0.12325 0.267256,-0.0396 0.540353,0 0.81053,0"
       id="path8" />
    <path
       style="fill:none;stroke:#000000;stroke-width:0.3"
       d="m 49.019523,216.41095 c -0.03234,1.12061 -0.07691,1.9919 -0.02053,3.12863 0.01894,0.38197 0.07648,0.80787 0.225965,1.17089 0.04432,0.10764 0.109567,0.20543 0.164349,0.30814"
       id="path9" />
    <path
       style="fill:none;stroke:#000000;stroke-width:0.3"
       d="m 48.998991,219.53958 c 1.66815,-1.08983 0.947592,-1.00051 2.198079,-1.02711 0.424514,-0.009 0.849122,-0.0284 1.273657,-0.0205 0.510063,0.009 2.278523,0.18135 2.547313,0.20542 0.38346,0.0343 0.766363,0.0757 1.150405,0.10271 1.09609,0.0772 1.861831,0.12325 2.91709,0.12325 0.55835,0 1.386668,-0.0219 1.951572,-0.0822 0.604726,-0.0646 1.20447,-0.16972 1.807771,-0.2465 0.465719,-0.0593 0.93899,-0.0961 1.396918,-0.20542 0.316626,-0.0756 0.627433,-0.17481 0.944967,-0.24651 0.234627,-0.053 0.382534,-0.0411 0.616291,-0.0411 0.314317,0 0.632182,0.0185 0.944968,-0.0205 0.102473,-0.0128 0.283757,-0.0508 0.390313,-0.0822 0.0831,-0.0245 0.161078,-0.0679 0.246515,-0.0822 0.02027,-0.003 0.04132,0.003 0.06163,0 0.144682,-0.0223 0.287006,-0.0581 0.4314,-0.0822 0.04776,-0.008 0.09645,-0.0104 0.143801,-0.0206 0.04874,-0.0104 0.09506,-0.0306 0.143801,-0.0411 0.236699,-0.0507 0.479592,-0.0319 0.719003,-0.0411 0.01733,-8e-4 0.484645,-0.0373 0.513566,-0.0411 0.117216,-0.0153 0.233842,-0.036 0.349237,-0.0616 0.04227,-0.009 0.08053,-0.034 0.123251,-0.0411 0.02027,-0.003 0.04188,0.006 0.06163,0 0.03588,-0.0103 0.122811,-0.0721 0.143801,-0.0616 0.01937,0.01 0.03023,0.0423 0.02056,0.0616 -0.06201,0.12401 -0.199459,0.21312 -0.225975,0.34921 -0.05167,0.26522 0,0.54041 0,0.81062"
       id="path10" />
    <path
       style="fill:none;stroke:#000000;stroke-width:0.3"
       d="m 70.09653,217.58792 c 0.321831,0.22602 0.706877,0.38178 0.965499,0.67805 0.139808,0.16016 0.119409,0.40846 0.164338,0.61626 0.260487,1.20473 0.190024,1.39576 0.349229,2.91697 0.05313,0.50767 0.123221,1.01341 0.184885,1.52012 0.09583,0.78745 0.195882,1.5744 0.287602,2.36233 0.41447,3.56056 -0.06379,-0.43274 0.287602,2.91697 0.05396,0.51442 0.116788,1.02793 0.184889,1.54066 0.04832,0.36383 0.107267,0.72617 0.164338,1.08873 0.18633,1.1837 0.100232,0.79119 0.287602,1.54065 0.03424,0.13695 0.06191,0.27571 0.102711,0.41084 0.06841,0.3912 0.274413,0.73482 0.390316,1.10927 0.04371,0.14121 0.06686,0.28798 0.102714,0.43138 0.03263,0.13052 0.06774,0.2604 0.102711,0.39031 0.490403,1.82142 0.09479,0.28276 0.205428,0.7806 0.0061,0.0276 0.01683,0.0542 0.02056,0.0822 0.01,0.075 0.01056,0.151 0.02053,0.22597 0.0037,0.028 0.015,0.0545 0.02056,0.0822 0.02185,0.1093 0.04133,0.21908 0.06163,0.32868 0.01394,0.0753 0.02061,0.1522 0.04109,0.22596 0.01397,0.0502 0.04791,0.0935 0.06163,0.14379 0.0072,0.0264 -0.0039,0.0551 0,0.0822 0.0031,0.0214 0.01746,0.0402 0.02053,0.0616 0.004,0.028 -0.003,0.1108 0,0.1438 0.04397,0.48353 -0.0026,-0.12816 0.04109,0.30813 0.0055,0.0554 -0.014,0.20451 0,0.2465 0.0078,0.0234 0.03328,0.0382 0.04109,0.0616 0.0065,0.0195 0,0.0411 0,0.0616 0,0.0274 0,0.0548 0,0.0822 0,0.0753 0,0.15064 0,0.22596 0,0.088 1.8e-4,0.24648 0,0.24651 -0.05603,0.007 -0.10837,-0.0336 -0.16434,-0.0411 -0.04751,-0.006 -0.09587,0 -0.143801,0"
       id="path11" />
    <path
       style="fill:none;stroke:#000000;stroke-width:0.3"
       d="m 79.443517,236.99994 c 0,0.21238 -0.13032,0.46944 0,0.63714 0.108778,0.13997 0.397336,-0.23818 0.246515,-0.32868 -0.01762,-0.0106 -0.0411,0 -0.06163,0 -0.02739,0 -0.05478,0 -0.08217,0 -0.102714,0 -0.205428,0 -0.308139,0 -0.225973,0 -0.451945,0 -0.677915,0 -0.09587,0 -0.191732,0 -0.287602,0 -0.08217,0 -0.164925,-0.01 -0.246515,0 -0.09071,0.0109 -0.178563,0.0389 -0.267063,0.0616 -0.178599,0.0458 -0.355028,0.1 -0.534114,0.1438 -0.355068,0.0869 -0.599528,0.13503 -0.965518,0.16433 -0.177601,0.0146 -0.356677,0.004 -0.534114,0.0206 -0.576114,0.0524 -1.151938,0.11028 -1.725597,0.18488 -0.684262,0.089 -0.911778,0.18182 -1.581806,0.32867 -0.238744,0.0523 -0.476043,0.1171 -0.718992,0.1438 -0.493636,0.0543 -1.451885,0.0687 -1.992659,0.0822 -0.267065,0.007 -0.534622,0.003 -0.801179,0.0205 -0.221295,0.0148 -1.657544,0.19483 -1.746134,0.20543 -0.228984,0.0275 -0.737896,0.0968 -0.986065,0.0822 -0.275272,-0.0162 -0.547812,-0.0637 -0.821716,-0.0955 0.273905,0.77135 0.605119,1.52468 0.821716,2.31404 0.100246,0.36533 0.075,0.75405 0.123262,1.1298 0.04762,0.37075 0.102885,0.74057 0.164339,1.10928 0.04813,0.28878 0.109373,0.57521 0.164349,0.86276 0.123044,0.64358 0.03846,0.35011 0.184878,0.76006 0.0073,0.0204 0.0067,0.045 0.02055,0.0616 0.02192,0.0263 0.05478,0.0411 0.08216,0.0616 0.03424,0.0548 0.06848,0.10955 0.102723,0.16433 -0.458792,0.14382 -0.966443,0.18019 -1.376376,0.43145 -0.259255,0.1589 -0.375661,0.47998 -0.534115,0.73951 -0.450739,0.73825 -0.765006,1.22305 -0.862794,2.0542 -0.137945,1.17249 -0.351154,1.51974 0.369766,2.30071 0.06905,0.0748 0.185813,0.10409 0.287601,0.10272 0.412868,-0.006 0.832624,-0.0206 1.232569,-0.12325 0.504692,-0.12952 1.735595,-0.813 2.177548,-1.04766 0.411258,-0.21836 0.823787,-0.43438 1.232569,-0.65734 0.118567,-0.0647 0.240506,-0.12531 0.349237,-0.20542 0.02465,-0.0182 0.06655,-0.0652 0.04108,-0.0822 -0.0637,-0.0425 -0.150385,-0.0533 -0.225965,-0.0411 -0.56613,0.0913 -1.129042,0.20679 -1.68452,0.34922 -0.247653,0.0635 -0.482434,0.17009 -0.719002,0.26704 -0.328139,0.13448 -0.637595,0.24585 -0.862794,0.53409 -0.193965,0.24827 -0.321997,0.82533 -0.369776,1.06819 -0.07448,0.37863 -0.06914,0.72618 -0.06163,1.10927 0.0032,0.16445 -0.008,0.33103 0.02054,0.49301 0.06101,0.3457 0.112099,0.59506 0.390315,0.80114 0.09843,0.0729 0.209664,0.13539 0.328688,0.16434 0.139885,0.034 0.287731,0.0297 0.431402,0.0205 0.608701,-0.0388 0.815827,-0.19073 1.458544,-0.41083 0.190532,-0.0652 0.381219,-0.13074 0.575202,-0.18488 0.100893,-0.0281 0.226344,-0.12705 0.30814,-0.0616 0.06527,0.0522 -0.135302,0.0983 -0.205426,0.14379 -0.1833,0.11889 -0.370982,0.23092 -0.554664,0.34922 -0.53003,0.34136 -0.776846,0.47031 -1.212021,0.92438 -0.145028,0.15133 -0.294252,0.30672 -0.390314,0.49301 -0.132994,0.25792 -0.212306,0.54144 -0.287601,0.82169 -0.06477,0.24109 -0.113673,0.81065 -0.102713,1.06819 0.0065,0.1519 -0.0015,0.31362 0.06163,0.45192 0.08531,0.18687 0.216674,0.35604 0.369765,0.49301 0.211229,0.18899 0.6177,0.27099 0.883342,0.28759 0.290921,0.0182 0.801657,-0.0345 1.06823,-0.14379 0.246786,-0.10114 0.474277,-0.24583 0.698465,-0.39031 0.121213,-0.0781 0.218774,-0.15886 0.267052,-0.28759 0.05744,-0.15316 5.26e-4,-0.12941 -0.246514,-0.1027 -0.369759,0.04 -0.551254,0.06 -0.780629,0.34921 -0.131947,0.16636 -0.253588,0.48297 -0.267052,0.69843 -0.0065,0.10342 -0.01639,0.22192 0.04109,0.30813 0.03966,0.0595 0.151116,0.10812 0.205427,0.0616 0.06013,-0.0515 0,-0.15831 0,-0.23747"
       id="path12" />
    <path
       style="fill:none;stroke:#000000;stroke-width:0.3"
       d="m 79.443515,237.63708 c 0.06848,0.23967 0.160042,0.47393 0.205431,0.71902 0.02368,0.12793 0,0.2602 0,0.3903 0,0.20542 0,0.41084 0,0.61626 0,0.48616 -0.0061,0.97236 0,1.45849 0.0029,0.23289 0.0067,0.46593 0.02053,0.69843 0.03818,0.63951 0.143801,1.28863 0.143801,1.93095 0,0.15764 -0.01397,0.31497 -0.02053,0.47247 -0.02249,0.5397 -0.05797,1.08235 -0.04109,1.62283 0.0043,0.13704 0.0087,0.27423 0.02053,0.41083 0.0019,0.0216 0.01699,0.0403 0.02056,0.0616 0.0034,0.0203 -0.0029,0.0413 0,0.0616 0.004,0.0279 0.015,0.0545 0.02053,0.0822 0.015,0.075 0.05224,0.27579 0.06164,0.36975 0.02188,0.21881 -0.0858,-0.25543 -0.08218,0.30813 0.0016,0.26123 0.05917,0.51911 0.08876,0.77867"
       id="path13" />
    <path
       style="fill:none;stroke:#000000;stroke-width:0.3"
       d="m 79.881496,247.61861 c -0.392507,0.10336 -1.280882,-0.0824 -1.17752,0.31009 0.103365,0.39251 0.777153,-0.24337 1.17752,-0.31009 0.465606,-0.0776 0.94565,-0.0415 1.41088,-0.12129 0.412576,-0.0708 0.807961,-0.21935 1.212033,-0.32868 0.177977,-0.0482 0.358293,-0.0883 0.534114,-0.14379 0.08489,-0.0268 0.157758,-0.10954 0.246512,-0.10271 0.04153,0.003 0.01934,0.0816 0.02053,0.12325 0.0057,0.19665 0,0.39347 0,0.59021"
       id="path14" />
    <path
       style="fill:none;stroke:#000000;stroke-width:0.3"
       d="m 89.01649,246.7717 c -0.232818,0.10492 -0.456176,0.23406 -0.698453,0.31478 -0.79526,0.26494 -0.415136,-0.26372 -1.355831,0.61626 -0.1887,0.17651 -0.315976,0.417 -0.410852,0.65734 -0.374045,0.94754 -0.214787,1.98506 0.102711,2.93752 0.05946,0.17838 0.288777,0.26805 0.472479,0.30813 0.21503,0.0469 0.445535,-0.002 0.657376,-0.0616 0.425461,-0.11984 1.17175,-0.52698 1.520172,-0.80113 0.197868,-0.1557 0.356076,-0.35607 0.534114,-0.5341"
       id="path16" />
    <path
       style="fill:none;stroke:#000000;stroke-width:0.3"
       d="m 78.546147,252.66255 c 0.477163,0.0449 0.953135,0.105 1.431486,0.13462 0.136861,0.008 0.273894,-0.0139 0.410852,-0.0205 0.361194,-0.0176 0.470782,-0.0138 0.821717,-0.0616 0.171781,-0.0234 0.341614,-0.0601 0.513577,-0.0822 0.09533,-0.0122 0.191746,-0.0134 0.287592,-0.0205 0.08904,-0.007 0.177855,-0.0168 0.267062,-0.0206 0.171569,-0.007 0.262356,0.007 0.431401,0 0.09974,-0.004 0.406035,-0.0228 0.534114,-0.0411 0.02795,-0.004 0.05422,-0.0166 0.08217,-0.0206 0.02035,-0.003 0.04214,0.007 0.06163,0 0.02342,-0.008 0.03821,-0.0333 0.06163,-0.0411 0.0195,-0.007 0.04129,0.003 0.06163,0 0.02795,-0.004 0.05439,-0.0155 0.08217,-0.0206 0.04764,-0.009 0.09616,-0.0119 0.143801,-0.0205 0.02778,-0.005 0.05422,-0.0165 0.08217,-0.0205 0.04067,-0.006 0.164336,0 0.123251,0 -0.300379,0 -0.153837,-0.0122 -0.698455,0.30813 -0.06566,0.0386 0.144386,-0.0487 0.21658,-0.073"
       id="path17" />
    <path
       style="fill:none;stroke:#000000;stroke-width:0.3"
       d="m 81.723777,252.63287 c -0.0569,0.62582 -0.07529,0.33165 0.08217,1.02707 0.03888,0.17169 0.08687,0.3413 0.123261,0.51354 0.11474,0.54307 0.213464,1.01761 0.267055,1.5612 0.02762,0.28013 0.03758,0.56176 0.06162,0.84223 0.0036,0.0423 0.115573,1.11707 0.123262,1.1709 0.03439,0.24071 0.08052,0.4796 0.123264,0.71896 0.02574,0.1441 0.05231,0.28809 0.08216,0.43139 0.0044,0.0212 0.01749,0.0402 0.02056,0.0616 0.0039,0.0271 -0.0013,0.0548 0,0.0822 0.0054,0.1028 0.01029,0.20571 0.02053,0.30814 0.01032,0.1031 0.02693,0.20548 0.04109,0.30812 0.0181,0.13124 0.05073,0.33077 0.06163,0.47247 0.0021,0.0273 -0.0039,0.055 0,0.0822 0.0031,0.0214 0.0137,0.0411 0.02056,0.0616 0.0069,0.0274 0.01654,0.0542 0.02053,0.0822 0.0065,0.0456 0.0065,0.20088 0,0.2465 -0.004,0.0279 -0.0182,0.054 -0.02053,0.0822 -0.0046,0.0546 0.0034,0.10966 0,0.16434 -0.0069,0.11019 -0.02429,0.21954 -0.04109,0.32866 -0.0053,0.0345 -0.01669,0.068 -0.02056,0.10272 -0.003,0.0272 0.0034,0.055 0,0.0822 -0.0035,0.028 -0.01773,0.0541 -0.02053,0.0822 -0.02717,0.27174 0.02731,0.0174 -0.02053,0.18488 -0.0078,0.0271 -0.01656,0.0542 -0.02056,0.0822 -0.0029,0.0206 0.0096,0.10818 -0.02053,0.12325 -6e-6,10e-6 -0.123251,-0.0411 -0.123262,-0.0411 -0.02053,-0.007 -0.04027,-0.017 -0.06162,-0.0206 -0.02027,-0.003 -0.04401,0.0105 -0.06163,0 -0.08509,-0.0511 -0.01394,-0.06 -0.04109,-0.12326 -0.01349,-0.0315 -0.04109,-0.0548 -0.06164,-0.0822 -0.383469,-0.14381 -0.746035,-0.36652 -1.150407,-0.43143 -0.17747,-0.0285 -0.339954,0.11782 -0.513576,0.16433 -0.210211,0.0563 -0.422717,0.10487 -0.636828,0.1438 -0.05817,0.0106 -1.411835,0.20029 -1.458545,0.20542 -0.188629,0.0207 -1.131373,0.11089 -1.458544,0.10271 -0.686426,-0.0172 -1.570951,-0.12651 -2.259712,-0.0616 -2.370935,0.37133 -0.949571,0.20677 -2.444599,0.30813 -0.157729,0.0107 -0.314945,0.028 -0.472489,0.0411 -0.08897,0.007 -0.177874,0.0248 -0.267053,0.0205 -0.147399,-0.007 -0.32058,-0.11921 -0.431402,-0.18488 -0.19609,-0.1162 -0.383836,-0.24593 -0.575202,-0.36976 -0.08814,-0.057 -0.18542,-0.10885 -0.267062,0 -0.06271,0.0836 -0.105458,0.18069 -0.16434,0.26705 -0.09097,0.13342 -0.158582,0.21597 -0.287601,0.30813 -0.192801,0.13771 -0.434894,0.21344 -0.657367,0.28759 -0.188537,0.0628 0.104959,-0.0422 -0.1438,0.0822 -0.02525,0.0126 -0.05394,0.0206 -0.08218,0.0206 -0.01041,0 -0.259931,-0.0751 -0.267052,-0.0822 -0.01531,-0.0153 -0.007,-0.0447 -0.02055,-0.0616 -4.6e-5,-6e-5 -0.123215,-0.0821 -0.123252,-0.0822 -0.01732,-0.0303 -0.0137,-0.0685 -0.02055,-0.10272"
       id="path18" />
    <path
       style="fill:none;stroke:#000000;stroke-width:0.3"
       d="m 69.069375,258.26127 c 1.277403,3.60013 -0.03636,-0.16911 0.636823,1.88995 0.04981,0.15236 0.10749,0.30206 0.164338,0.45193 0.01849,0.0488 0.05088,0.0928 0.06163,0.14379 0.02283,0.10841 0.02056,0.219 0.02056,0.32868 0,0.0274 -0.0034,0.055 0,0.0822 0.0035,0.028 0.04877,0.0822 0.02053,0.0822 -0.03873,0 -0.112932,-0.10569 -0.08216,-0.0822 0.146963,0.11238 0.287594,0.2328 0.43139,0.34921"
       id="path19" />
    <path
       style="fill:none;stroke:#000000;stroke-width:0.3"
       d="m 77.039996,261.75351 c -0.178039,0.28759 -0.427152,0.54188 -0.534115,0.86276 -0.05269,0.15806 0.05897,0.32803 0.08217,0.49301 0.03844,0.27334 0.0695,0.54766 0.102714,0.82168 0.02156,0.17792 0.04733,0.35546 0.06163,0.5341 0.0044,0.0552 0.03363,0.86821 0.04109,0.94493 0.03337,0.3432 0.08689,0.6842 0.123262,1.0271 0.0088,0.0832 0.02617,0.4913 0.04109,0.59572 0.01955,0.13694 0.06163,0.17221 0.06163,0.30813 0,0.0217 -0.01461,0.0408 -0.02053,0.0616 -0.0078,0.0271 -0.01704,0.0542 -0.02056,0.0822 -0.01024,0.0818 -0.01598,0.16418 -0.02053,0.24651 -0.0035,0.0632 0.0131,0.18106 0,0.2465 -0.01662,0.083 -0.04109,0.16434 -0.06164,0.2465"
       id="path20" />
    <path
       style="fill:none;stroke:#000000;stroke-width:0.3"
       d="m 76.896205,268.22425 c -0.725847,-0.0616 -1.47475,0.007 -2.177547,-0.18487 -0.339246,-0.0925 0.697307,-0.153 1.047681,-0.12325 0.388977,0.033 0.739894,0.32584 1.129866,0.30812 0.545957,-0.0248 1.046679,-0.32032 1.581796,-0.43138 0.194553,-0.0404 0.397377,-0.009 0.595741,-0.0205 1.349192,-0.0782 0.305858,-0.0516 1.438008,-0.0822 0.232478,-0.006 0.465854,0 0.698452,0 0.02053,0 0.04108,0 0.06163,0 0.02739,0 0.09235,-0.0254 0.08217,0 -0.01987,0.0496 -0.07974,0.0716 -0.123262,0.10271 -0.276537,0.19753 -0.226123,0.009 0.07738,0.46777"
       id="path21" />
    <path
       style="fill:none;stroke:#000000;stroke-width:0.3"
       d="m 74.718658,268.03938 c 0.413414,0.4823 0.952238,1.09172 1.314744,1.60227 0.269393,0.37941 0.521655,0.77131 0.760081,1.17091 0.618781,1.03707 0.717831,1.32328 1.21203,2.36233 0.144425,0.30366 0.354272,0.73743 0.513575,1.04764 0.05318,0.10355 0.08647,0.22161 0.16434,0.30813 0.02336,0.026 0.01336,-0.0685 0.02056,-0.1027 0.02328,-0.11058 0.159345,-0.74184 0.16434,-0.76006 0.210831,-0.76922 0.416089,-1.54049 0.657365,-2.30071 0.12195,-0.38424 0.294574,-0.75062 0.431404,-1.12982 0.142446,-0.39476 0.358433,-1.03951 0.45195,-1.47902 0.04384,-0.20604 0.04917,-0.44686 0.04108,-0.65735 -0.0029,-0.0756 0.0024,-0.15389 -0.02053,-0.22596 -0.02601,-0.0818 -0.158112,-0.14756 -0.123261,-0.22597 0.02837,-0.0638 0.136959,0.0274 0.205438,0.0411"
       id="path22" />
    <path
       style="fill:none;stroke:#000000;stroke-width:0.3"
       d="m 131.86371,262.97061 c 0.48618,-0.1301 0.96734,-0.28066 1.45854,-0.3903 0.37141,-0.0829 1.35542,-0.18365 1.72561,-0.20542 0.40354,-0.0237 0.80781,-0.0454 1.21202,-0.0411 0.27732,0.003 1.37494,0.14205 1.5818,0.16433 0.4446,0.0479 0.76761,0.0593 1.21203,0 0.0626,-0.008 0.12262,-0.0307 0.18489,-0.0411 0.0737,-0.0123 0.25665,0 0.30814,0 0.0205,0 0.0722,-0.0176 0.0616,0 -0.0275,0.0459 -0.0843,0.066 -0.12326,0.1027 -0.0776,0.073 -0.14967,0.15163 -0.22597,0.22597 -0.40906,0.39856 -0.64576,0.57774 -0.96551,1.0271 -0.29012,0.40772 -0.48349,0.82402 -0.73954,1.25307 -0.36951,0.61915 -0.45161,0.73245 -0.96552,1.29415 -0.0948,0.10366 -0.19806,0.20029 -0.30815,0.28759 -0.33086,0.2624 -0.60779,0.27276 -0.98605,0.43138 -0.11758,0.0493 -0.29181,0.15696 -0.39031,0.2465 -0.002,0.002 -0.0868,0.13539 -0.12326,0.12325 -0.0325,-0.0108 -0.0391,-0.0564 -0.0616,-0.0822 -0.0255,-0.0292 -0.0588,-0.0513 -0.0822,-0.0822 -0.18917,-0.25018 -0.36786,-0.50812 -0.55466,-0.76006 -0.227,-0.30618 -0.46596,-0.56627 -0.61628,-0.92439 -0.1601,-0.3814 -0.26626,-0.78338 -0.41086,-1.17091 -0.0639,-0.17125 -0.17886,-0.34318 -0.30815,-0.47247 -0.0446,-0.0446 -0.10167,-0.0762 -0.1438,-0.12325 -0.25275,-0.28212 -0.49303,-0.57517 -0.73954,-0.86276 z"
       id="path3-3" />
    <path
       style="fill:none;stroke:#000000;stroke-width:0.3"
       d="m 135.04786,262.37489 c 0.12325,-0.54094 0.2854,-1.07447 0.36977,-1.62283 0.0112,-0.0726 -0.0987,-1.05376 -0.10272,-1.08873 -0.13651,-1.19824 -0.0815,-0.78348 -0.24651,-1.82824 -0.0411,-0.2602 -0.0764,-0.52137 -0.12326,-0.7806 -0.22624,-1.25179 -0.12862,-0.52746 -0.26706,-1.41739 -0.0223,-0.14353 -0.0508,-0.28654 -0.0616,-0.43138 -0.0216,-0.2883 -6.3e-4,-0.47996 0.0616,-0.76006 0.0722,-0.32507 0.067,-0.0409 0.0822,-0.3903 0.009,-0.20523 0,-0.41084 0,-0.61627 0,-0.30128 0,-0.60257 0,-0.90385 0,-0.089 0,-0.17803 0,-0.26704 0,-0.0685 -0.006,-0.13723 0,-0.20542 0.0144,-0.15817 0.0441,-0.31462 0.0616,-0.47247 0.0444,-0.39938 0.0791,-0.80961 0.0616,-1.21198 -0.004,-0.0966 -0.0413,-0.28354 -0.0616,-0.36976 -0.0248,-0.10562 -0.0657,-0.20086 -0.0822,-0.30813 -0.0609,-0.39607 0.009,0.0508 -0.0206,-0.30814 -0.006,-0.0763 -0.0321,-0.14992 -0.0411,-0.22595 -0.004,-0.0352 -0.0403,-0.44807 -0.0411,-0.47247 -0.004,-0.12318 0.004,-0.24657 0,-0.36975 -0.003,-0.0824 -0.0172,-0.16412 -0.0206,-0.24651 -0.007,-0.17105 0,-0.34237 0,-0.51355 0,-0.10272 -0.004,-0.2055 0,-0.30814 0.006,-0.15835 0.0323,-0.31438 0.0411,-0.47247 0.003,-0.0478 -0.005,-0.0961 0,-0.14379 0.002,-0.0215 0.0358,-0.0463 0.0205,-0.0616 -0.0349,-0.0349 -0.0883,0.0472 -0.12326,0.0822"
       id="path4-6" />
    <path
       style="fill:none;stroke:#000000;stroke-width:0.3"
       d="m 135.57013,234.60203 c -0.34528,-0.0753 -0.68322,-0.24934 -1.03584,-0.22596 -0.20281,0.0134 -0.34142,0.22064 -0.51358,0.32866 -0.17708,0.11111 -0.36069,0.21196 -0.53411,0.32868 -0.46963,0.31609 -0.82676,0.61335 -1.23257,1.02711 -0.12955,0.13208 -0.24072,0.28153 -0.34923,0.43138 -0.45786,0.63225 -0.5012,0.67613 -0.76009,1.31469 -0.0269,0.0662 -0.048,0.13525 -0.0616,0.20542 -0.28153,1.44511 -0.24652,0.96421 -0.24652,1.97204 0,0.1175 -0.01,0.41755 0.0205,0.55463 0.0113,0.0509 0.0372,0.0977 0.0616,0.14379 0.0374,0.0706 0.0753,0.14155 0.12326,0.20543 0.0553,0.0737 0.12403,0.13626 0.18489,0.20542 0.0898,0.10203 0.18215,0.20199 0.26706,0.30813 0.1301,0.17118 0.26021,0.34237 0.39031,0.51355 0.0411,0.0616 0.0788,0.12563 0.12326,0.18488 0.0995,0.13261 0.20666,0.25923 0.30814,0.3903 0.0629,0.0812 0.12026,0.16667 0.18489,0.2465 0.0519,0.0641 0.11705,0.11733 0.16434,0.18488 0.0492,0.0703 0.0791,0.15239 0.12326,0.22596 0.83102,1.38498 -0.30861,-0.57748 0.45194,0.7806 0.0637,0.11384 0.10265,0.14371 0.18489,0.24651 0.0488,0.061 0.0956,0.12348 0.1438,0.18487 0.14226,0.18105 0.0256,0.0274 0.1438,0.18488 0.0205,0.0274 0.0364,0.059 0.0616,0.0822 0.0576,0.0528 0.13148,0.0868 0.18488,0.1438 0.0507,0.054 0.0822,0.12325 0.12326,0.18488 0.10956,0.16433 0.21913,0.32867 0.32869,0.493 0.0844,0.12664 0.22241,0.38585 0.36977,0.49301 0.15106,0.10985 0.24562,0.0608 0.45194,0.0822 0.0896,0.009 0.17754,0.0311 0.26706,0.0411 0.264,0.0293 0.37941,0.0206 0.65737,0.0206 0.0211,0 0.65864,0.0137 0.80117,-0.0206 0.0866,-0.0208 0.16941,-0.0582 0.24652,-0.1027 0.52472,-0.30271 0.77562,-0.84897 1.02714,-1.37632 0.0821,-0.17217 0.13767,-0.35579 0.20543,-0.5341 0.13629,-0.35865 0.23071,-0.57328 0.30814,-0.94493 0.0367,-0.17635 0.0533,-0.3563 0.0822,-0.5341 0.12276,-0.75697 0.19446,-0.99065 0.22597,-1.70499 0.01,-0.22574 0.022,-0.453 0,-0.67788 -0.0398,-0.40673 -0.1177,-0.80888 -0.18488,-1.21199 -0.0492,-0.29541 -0.0938,-0.59225 -0.16435,-0.88331 -0.0393,-0.16204 -0.1012,-0.31813 -0.16434,-0.47246 -0.18935,-0.46283 -0.46069,-0.90333 -0.82172,-1.25307 -0.0649,-0.0629 -0.49362,-0.34369 -0.57519,-0.3903 -0.0276,-0.0158 -0.50829,-0.25606 -0.55466,-0.26704 -0.39139,-0.0927 -0.61464,-0.0941 -0.98606,0.0616 -1.10768,0.4645 -0.42196,0.41085 -1.15388,0.41085"
       id="path5-7" />
    <path
       style="fill:none;stroke:#000000;stroke-width:0.3"
       d="m 132.00751,242.09988 c 0.34238,-0.3903 0.70909,-0.76053 1.02714,-1.1709 0.61938,-0.79917 -0.24799,-0.2071 0.78063,-1.08873 0.0354,-0.0303 0.37301,-0.17576 0.49303,-0.12325 0.0667,0.0292 0.11516,0.0901 0.16434,0.1438 0.48621,0.53037 0.1079,0.15155 0.49303,0.67788 0.12946,0.17692 0.25997,0.35451 0.41086,0.51355 0.1685,0.1776 0.64586,0.50734 0.84226,0.59572 0.10165,0.0457 0.22273,0.0963 0.32868,0.0616 0.70143,-0.22931 0.83991,-0.49076 1.23258,-1.06818 0.0793,-0.1166 0.14784,-0.24106 0.20542,-0.36977 0.0592,-0.13244 -8.7e-4,-0.39972 0.1438,-0.41083 0.32609,-0.0251 0.61629,0.21917 0.92443,0.32875"
       id="path6-5" />
    <path
       style="fill:none;stroke:#000000;stroke-width:0.3"
       d="m 135.60251,235.77298 c 0.089,-0.20544 0.22119,-0.39717 0.26706,-0.61631 0.0936,-0.44739 0.1403,-1.98058 0.1438,-2.40343 0.0102,-1.23933 -0.007,-2.47876 0,-3.71811 0.0132,-2.21868 0.0635,-4.437 0.0822,-6.65563 0.004,-0.4656 -0.0151,-0.93149 0,-1.39686 0.0123,-0.3774 0.0343,-0.75526 0.0822,-1.12982 0.20194,-1.58184 0.27554,-1.42259 0.41086,-2.67046 0.0289,-0.26628 0.058,-0.53333 0.0616,-0.80114 0.007,-0.50565 -0.0535,-0.84763 -0.1438,-1.33523 -0.0306,-0.16506 -0.0698,-0.32841 -0.10272,-0.49301 -0.015,-0.0751 -0.0332,-0.14982 -0.0411,-0.22597 -0.0235,-0.22733 -0.0305,-0.70807 -0.0205,-0.90385 0.0115,-0.2266 0.0411,-0.45192 0.0616,-0.67788 0.0205,-0.32868 0.0479,-0.65699 0.0616,-0.98603 0.012,-0.28734 0,-0.57517 0,-0.86276 0,-0.19857 0,-0.39715 0,-0.59572 0,-0.0999 0.004,-0.16874 -0.0205,-0.26705 -0.007,-0.0274 -5.8e-4,-0.0622 -0.0205,-0.0822 -0.0145,-0.0145 0.007,0.0421 0,0.0616 -0.008,0.0234 -0.0402,0.0369 -0.0411,0.0616 -0.006,0.16437 0.0165,0.32859 0.0206,0.49302 0.003,0.11637 0.10312,0.29521 0,0.34921 -0.19695,0.10312 -0.44464,0 -0.66696,0 0.52361,-0.44505 0.97823,-0.98722 1.57084,-1.33515 0.2533,-0.14872 2.18727,-0.62298 2.5884,-0.71898 0.41631,-0.0996 2.14181,-0.49036 2.54732,-0.57517 0.61518,-0.12866 1.22963,-0.26225 1.84886,-0.36976 0.36737,-0.0638 0.73972,-0.0945 1.10931,-0.1438 1.19135,-0.15884 0.87926,-0.13748 2.05429,-0.2465 1.10837,-0.10283 1.1278,-0.0773 2.36243,-0.20542 0.57214,-0.0594 1.05311,-0.14359 1.62289,-0.22596 0.62691,-0.0906 1.52267,-0.20496 2.11591,-0.30813 0.22099,-0.0384 0.43816,-0.0963 0.65738,-0.14379 0.36423,-0.0789 0.68143,-0.15311 1.04768,-0.20543 0.12951,-0.0185 0.25966,-0.0345 0.39032,-0.0411 0.23252,-0.0116 0.46563,0 0.69845,0 0.0753,0 0.15065,0 0.22598,0 0.0411,0 0.14604,-0.0342 0.12325,0 -0.057,0.0855 -0.16434,0.12326 -0.24651,0.18488"
       id="path7-3" />
    <path
       style="fill:none;stroke:#000000;stroke-width:0.3"
       d="m 155.65236,206.39776 c -0.007,-0.54093 0.52039,-1.62965 -0.0205,-1.6228 -0.54094,0.007 0.002,1.08214 0.0205,1.6228 0.0361,1.04812 0.0804,2.09613 0.1438,3.14296 0.0188,0.30945 0.043,0.62018 0.10271,0.92439 0.0165,0.0842 0.0534,0.17609 0.12326,0.22596 0.0339,0.0242 -0.0207,-0.11714 0.0205,-0.12325 0.26725,-0.0396 0.54035,0 0.81053,0"
       id="path8-5" />
    <path
       style="fill:none;stroke:#000000;stroke-width:0.3"
       d="m 162.80127,204.62493 c -0.0323,1.12061 -0.0769,1.9919 -0.0205,3.12863 0.0189,0.38197 0.0765,0.80787 0.22597,1.17089 0.0443,0.10764 0.10956,0.20543 0.16434,0.30814"
       id="path9-6" />
    <path
       style="fill:none;stroke:#000000;stroke-width:0.3"
       d="m 162.78074,207.75356 c 1.66815,-1.08983 0.94759,-1.00051 2.19808,-1.02711 0.42451,-0.009 0.84912,-0.0284 1.27365,-0.0205 0.51007,0.009 2.27853,0.18135 2.54732,0.20542 0.38346,0.0343 0.76636,0.0757 1.1504,0.10271 1.09609,0.0772 1.86183,0.12325 2.91709,0.12325 0.55835,0 1.38667,-0.0219 1.95157,-0.0822 0.60473,-0.0646 1.20447,-0.16972 1.80778,-0.2465 0.46571,-0.0593 0.93899,-0.0961 1.39691,-0.20542 0.31663,-0.0756 0.62744,-0.17481 0.94497,-0.24651 0.23463,-0.053 0.38253,-0.0411 0.61629,-0.0411 0.31432,0 0.63218,0.0185 0.94497,-0.0205 0.10247,-0.0128 0.28376,-0.0508 0.39031,-0.0822 0.0831,-0.0245 0.16108,-0.0679 0.24652,-0.0822 0.0203,-0.003 0.0413,0.003 0.0616,0 0.14468,-0.0223 0.287,-0.0581 0.4314,-0.0822 0.0478,-0.008 0.0965,-0.0104 0.1438,-0.0206 0.0487,-0.0104 0.0951,-0.0306 0.1438,-0.0411 0.2367,-0.0507 0.47959,-0.0319 0.719,-0.0411 0.0173,-8e-4 0.48465,-0.0373 0.51357,-0.0411 0.11721,-0.0153 0.23384,-0.036 0.34924,-0.0616 0.0423,-0.009 0.0805,-0.034 0.12325,-0.0411 0.0203,-0.003 0.0419,0.006 0.0616,0 0.0359,-0.0103 0.12281,-0.0721 0.1438,-0.0616 0.0194,0.01 0.0302,0.0423 0.0206,0.0616 -0.062,0.12401 -0.19946,0.21312 -0.22598,0.34921 -0.0517,0.26522 0,0.54041 0,0.81062"
       id="path10-2" />
    <path
       style="fill:none;stroke:#000000;stroke-width:0.3"
       d="m 183.87828,205.8019 c 0.32183,0.22602 0.70687,0.38178 0.9655,0.67805 0.1398,0.16016 0.11941,0.40846 0.16433,0.61626 0.26049,1.20473 0.19003,1.39576 0.34923,2.91697 0.0531,0.50767 0.12322,1.01341 0.18489,1.52012 0.0958,0.78745 0.19588,1.5744 0.2876,2.36233 0.41447,3.56056 -0.0638,-0.43274 0.2876,2.91697 0.054,0.51442 0.11679,1.02793 0.18489,1.54066 0.0483,0.36383 0.10727,0.72617 0.16434,1.08873 0.18633,1.1837 0.10023,0.79119 0.2876,1.54065 0.0342,0.13695 0.0619,0.27571 0.10271,0.41084 0.0684,0.3912 0.27442,0.73482 0.39032,1.10927 0.0437,0.14121 0.0669,0.28798 0.10271,0.43138 0.0326,0.13052 0.0677,0.2604 0.10271,0.39031 0.49041,1.82142 0.0948,0.28276 0.20543,0.7806 0.006,0.0276 0.0168,0.0542 0.0206,0.0822 0.01,0.075 0.0106,0.151 0.0205,0.22597 0.004,0.028 0.015,0.0545 0.0206,0.0822 0.0219,0.1093 0.0413,0.21908 0.0616,0.32868 0.0139,0.0753 0.0206,0.1522 0.0411,0.22596 0.014,0.0502 0.0479,0.0935 0.0616,0.14379 0.007,0.0264 -0.004,0.0551 0,0.0822 0.003,0.0214 0.0175,0.0402 0.0205,0.0616 0.004,0.028 -0.003,0.1108 0,0.1438 0.044,0.48353 -0.003,-0.12816 0.0411,0.30813 0.005,0.0554 -0.014,0.20451 0,0.2465 0.008,0.0234 0.0333,0.0382 0.0411,0.0616 0.006,0.0195 0,0.0411 0,0.0616 0,0.0274 0,0.0548 0,0.0822 0,0.0753 0,0.15064 0,0.22596 0,0.088 1.8e-4,0.24648 0,0.24651 -0.056,0.007 -0.10837,-0.0336 -0.16434,-0.0411 -0.0475,-0.006 -0.0959,0 -0.1438,0"
       id="path11-9" />
    <path
       style="fill:none;stroke:#000000;stroke-width:0.3"
       d="m 193.22526,225.85106 c 0.0685,0.23967 0.16004,0.47393 0.20543,0.71902 0.0237,0.12793 0,0.2602 0,0.3903 0,0.20542 0,0.41084 0,0.61626 0,0.48616 -0.006,0.97236 0,1.45849 0.003,0.23289 0.007,0.46593 0.0205,0.69843 0.0382,0.63951 0.1438,1.28863 0.1438,1.93095 0,0.15764 -0.014,0.31497 -0.0205,0.47247 -0.0225,0.5397 -0.058,1.08235 -0.0411,1.62283 0.004,0.13704 0.009,0.27423 0.0205,0.41083 0.002,0.0216 0.017,0.0403 0.0206,0.0616 0.003,0.0203 -0.003,0.0413 0,0.0616 0.004,0.0279 0.015,0.0545 0.0205,0.0822 0.015,0.075 0.0522,0.27579 0.0616,0.36975 0.0219,0.21881 -0.0858,-0.25543 -0.0822,0.30813 0.002,0.26123 0.0592,0.51911 0.0888,0.77867"
       id="path13-2" />
    <path
       style="fill:none;stroke:#000000;stroke-width:0.3"
       d="m 193.66324,235.83259 c -0.3925,0.10336 -1.28088,-0.0824 -1.17752,0.31009 0.10337,0.39251 0.77716,-0.24337 1.17752,-0.31009 0.46561,-0.0776 0.94565,-0.0415 1.41088,-0.12129 0.41258,-0.0708 0.80796,-0.21935 1.21204,-0.32868 0.17797,-0.0482 0.35829,-0.0883 0.53411,-0.14379 0.0849,-0.0268 0.15776,-0.10954 0.24651,-0.10271 0.0415,0.003 0.0193,0.0816 0.0205,0.12325 0.006,0.19665 0,0.39347 0,0.59021"
       id="path14-7" />
    <path
       style="fill:none;stroke:#000000;stroke-width:0.3"
       d="m 202.79824,234.98568 c -0.23282,0.10492 -0.45618,0.23406 -0.69846,0.31478 -0.79526,0.26494 -0.41513,-0.26372 -1.35583,0.61626 -0.1887,0.17651 -0.31597,0.417 -0.41085,0.65734 -0.37404,0.94754 -0.21479,1.98506 0.10271,2.93752 0.0595,0.17838 0.28878,0.26805 0.47248,0.30813 0.21503,0.0469 0.44554,-0.002 0.65738,-0.0616 0.42546,-0.11984 1.17175,-0.52698 1.52017,-0.80113 0.19787,-0.1557 0.35608,-0.35607 0.53411,-0.5341"
       id="path16-0" />
    <path
       style="fill:none;stroke:#000000;stroke-width:0.3"
       d="m 192.32789,240.87653 c 0.47717,0.0449 0.95314,0.105 1.43149,0.13462 0.13686,0.008 0.27389,-0.0139 0.41085,-0.0205 0.3612,-0.0176 0.47078,-0.0138 0.82172,-0.0616 0.17178,-0.0234 0.34161,-0.0601 0.51358,-0.0822 0.0953,-0.0122 0.19174,-0.0134 0.28759,-0.0205 0.089,-0.007 0.17785,-0.0168 0.26706,-0.0206 0.17157,-0.007 0.26236,0.007 0.4314,0 0.0997,-0.004 0.40604,-0.0228 0.53412,-0.0411 0.028,-0.004 0.0542,-0.0166 0.0822,-0.0206 0.0204,-0.003 0.0421,0.007 0.0616,0 0.0234,-0.008 0.0382,-0.0333 0.0616,-0.0411 0.0195,-0.007 0.0413,0.003 0.0616,0 0.028,-0.004 0.0544,-0.0155 0.0822,-0.0206 0.0476,-0.009 0.0962,-0.0119 0.1438,-0.0205 0.0278,-0.005 0.0542,-0.0165 0.0822,-0.0205 0.0407,-0.006 0.16433,0 0.12325,0 -0.30038,0 -0.15384,-0.0122 -0.69846,0.30813 -0.0657,0.0386 0.14439,-0.0487 0.21658,-0.073"
       id="path17-9" />
    <path
       style="fill:none;stroke:#000000;stroke-width:0.3"
       d="m 195.50552,240.84685 c -0.0569,0.62582 -0.0753,0.33165 0.0822,1.02707 0.0389,0.17169 0.0869,0.3413 0.12327,0.51354 0.11474,0.54307 0.21346,1.01761 0.26705,1.5612 0.0276,0.28013 0.0376,0.56176 0.0616,0.84223 0.004,0.0423 0.11557,1.11707 0.12326,1.1709 0.0344,0.24071 0.0805,0.4796 0.12327,0.71896 0.0257,0.1441 0.0523,0.28809 0.0822,0.43139 0.004,0.0212 0.0175,0.0402 0.0206,0.0616 0.004,0.0271 -0.001,0.0548 0,0.0822 0.005,0.1028 0.0103,0.20571 0.0205,0.30814 0.0103,0.1031 0.0269,0.20548 0.0411,0.30812 0.0181,0.13124 0.0507,0.33077 0.0616,0.47247 0.002,0.0273 -0.004,0.055 0,0.0822 0.003,0.0214 0.0137,0.0411 0.0206,0.0616 0.007,0.0274 0.0165,0.0542 0.0205,0.0822 0.006,0.0456 0.006,0.20088 0,0.2465 -0.004,0.0279 -0.0182,0.054 -0.0205,0.0822 -0.005,0.0546 0.003,0.10966 0,0.16434 -0.007,0.11019 -0.0243,0.21954 -0.0411,0.32866 -0.005,0.0345 -0.0167,0.068 -0.0206,0.10272 -0.003,0.0272 0.003,0.055 0,0.0822 -0.003,0.028 -0.0177,0.0541 -0.0205,0.0822 -0.0272,0.27174 0.0273,0.0174 -0.0205,0.18488 -0.008,0.0271 -0.0166,0.0542 -0.0206,0.0822 -0.003,0.0206 0.01,0.10818 -0.0205,0.12325 -1e-5,10e-6 -0.12325,-0.0411 -0.12327,-0.0411 -0.0205,-0.007 -0.0403,-0.017 -0.0616,-0.0206 -0.0203,-0.003 -0.044,0.0105 -0.0616,0 -0.0851,-0.0511 -0.0139,-0.06 -0.0411,-0.12326 -0.0135,-0.0315 -0.0411,-0.0548 -0.0616,-0.0822 -0.38346,-0.14381 -0.74603,-0.36652 -1.1504,-0.43143 -0.17747,-0.0285 -0.33996,0.11782 -0.51358,0.16433 -0.21021,0.0563 -0.42272,0.10487 -0.63683,0.1438 -0.0582,0.0106 -1.41183,0.20029 -1.45854,0.20542 -0.18863,0.0207 -1.13137,0.11089 -1.45855,0.10271 -0.68642,-0.0172 -1.57095,-0.12651 -2.25971,-0.0616 -2.37093,0.37133 -0.94957,0.20677 -2.4446,0.30813 -0.15773,0.0107 -0.31494,0.028 -0.47249,0.0411 -0.089,0.007 -0.17787,0.0248 -0.26705,0.0205 -0.1474,-0.007 -0.32058,-0.11921 -0.4314,-0.18488 -0.19609,-0.1162 -0.38384,-0.24593 -0.5752,-0.36976 -0.0881,-0.057 -0.18542,-0.10885 -0.26706,0 -0.0627,0.0836 -0.10546,0.18069 -0.16434,0.26705 -0.091,0.13342 -0.15859,0.21597 -0.28761,0.30813 -0.1928,0.13771 -0.43489,0.21344 -0.65736,0.28759 -0.18854,0.0628 0.10496,-0.0422 -0.1438,0.0822 -0.0252,0.0126 -0.0539,0.0206 -0.0822,0.0206 -0.0104,0 -0.25993,-0.0751 -0.26705,-0.0822 -0.0153,-0.0153 -0.007,-0.0447 -0.0206,-0.0616 -5e-5,-6e-5 -0.12322,-0.0821 -0.12326,-0.0822 -0.0173,-0.0303 -0.0137,-0.0685 -0.0206,-0.10272"
       id="path18-3" />
    <path
       style="fill:none;stroke:#000000;stroke-width:0.3"
       d="m 182.85112,246.47525 c 1.27741,3.60013 -0.0364,-0.16911 0.63683,1.88995 0.0498,0.15236 0.10749,0.30206 0.16433,0.45193 0.0185,0.0488 0.0509,0.0928 0.0616,0.14379 0.0228,0.10841 0.0206,0.219 0.0206,0.32868 0,0.0274 -0.003,0.055 0,0.0822 0.004,0.028 0.0488,0.0822 0.0205,0.0822 -0.0387,0 -0.11293,-0.10569 -0.0822,-0.0822 0.14697,0.11238 0.2876,0.2328 0.43139,0.34921"
       id="path19-6" />
    <path
       style="fill:none;stroke:#000000;stroke-width:0.3"
       d="m 190.82174,249.96749 c -0.17804,0.28759 -0.42715,0.54188 -0.53411,0.86276 -0.0527,0.15806 0.059,0.32803 0.0822,0.49301 0.0384,0.27334 0.0695,0.54766 0.10271,0.82168 0.0216,0.17792 0.0473,0.35546 0.0616,0.5341 0.004,0.0552 0.0336,0.86821 0.0411,0.94493 0.0334,0.3432 0.0869,0.6842 0.12326,1.0271 0.009,0.0832 0.0262,0.4913 0.0411,0.59572 0.0196,0.13694 0.0616,0.17221 0.0616,0.30813 0,0.0217 -0.0146,0.0408 -0.0205,0.0616 -0.008,0.0271 -0.017,0.0542 -0.0206,0.0822 -0.0102,0.0818 -0.016,0.16418 -0.0205,0.24651 -0.004,0.0632 0.0131,0.18106 0,0.2465 -0.0166,0.083 -0.0411,0.16434 -0.0616,0.2465"
       id="path20-0" />
    <path
       style="fill:none;stroke:#000000;stroke-width:0.3"
       d="m 190.67795,256.43823 c -0.72584,-0.0616 -1.47475,0.007 -2.17754,-0.18487 -0.33925,-0.0925 0.6973,-0.153 1.04768,-0.12325 0.38897,0.033 0.73989,0.32584 1.12986,0.30812 0.54596,-0.0248 1.04668,-0.32032 1.5818,-0.43138 0.19455,-0.0404 0.39738,-0.009 0.59574,-0.0205 1.34919,-0.0782 0.30586,-0.0516 1.43801,-0.0822 0.23248,-0.006 0.46585,0 0.69845,0 0.0205,0 0.0411,0 0.0616,0 0.0274,0 0.0923,-0.0254 0.0822,0 -0.0199,0.0496 -0.0797,0.0716 -0.12326,0.10271 -0.27654,0.19753 -0.22613,0.009 0.0774,0.46777"
       id="path21-6" />
    <path
       style="fill:none;stroke:#000000;stroke-width:0.3"
       d="m 188.50041,256.25336 c 0.41341,0.4823 0.95223,1.09172 1.31474,1.60227 0.26939,0.37941 0.52165,0.77131 0.76008,1.17091 0.61878,1.03707 0.71783,1.32328 1.21203,2.36233 0.14443,0.30366 0.35427,0.73743 0.51358,1.04764 0.0532,0.10355 0.0865,0.22161 0.16434,0.30813 0.0234,0.026 0.0134,-0.0685 0.0206,-0.1027 0.0233,-0.11058 0.15934,-0.74184 0.16434,-0.76006 0.21083,-0.76922 0.41608,-1.54049 0.65736,-2.30071 0.12195,-0.38424 0.29457,-0.75062 0.4314,-1.12982 0.14245,-0.39476 0.35844,-1.03951 0.45195,-1.47902 0.0438,-0.20604 0.0492,-0.44686 0.0411,-0.65735 -0.003,-0.0756 0.002,-0.15389 -0.0205,-0.22596 -0.026,-0.0818 -0.15811,-0.14756 -0.12326,-0.22597 0.0284,-0.0638 0.13696,0.0274 0.20544,0.0411"
       id="path22-2" />
    <path
       style="fill:none;stroke:#000000;stroke-width:0.3"
       d="m 193.22526,225.85106 c 0.0154,-0.1044 0.15069,-0.29778 0.0463,-0.31321 -0.1044,-0.0154 0.053,0.2774 -0.0463,0.31321 -0.38091,0.13737 -0.80514,0.0876 -1.20682,0.13872 -0.40723,0.0519 0.007,0.0417 -0.45195,0.0616 -0.10424,0.005 -0.34911,-0.0114 -0.45193,0.0205 -0.1387,0.043 -0.58026,0.27244 -0.719,0.32868 -0.39842,0.16151 -0.81886,0.25795 -1.23258,0.36975 -0.29249,0.079 -0.31973,0.11261 -0.5752,0.12326 -0.29411,0.0122 -0.51522,-0.0119 -0.82171,-0.0616 -0.0771,-0.0125 -0.14941,-0.0463 -0.22597,-0.0616 -0.0269,-0.005 -0.0548,0 -0.0822,0 -0.0685,0 -0.13842,-0.0141 -0.20542,0 -0.71053,0.14958 0.35627,0.009 -0.36978,0.18488 -0.16096,0.039 -0.32771,0.0515 -0.49303,0.0616 -0.17087,0.0105 -0.34238,0 -0.51357,0 -0.60904,0 -1.21943,-0.009 -1.82831,0 -0.17207,0.003 -0.70377,0.0202 -0.90388,0.0616 -0.0392,0.008 -0.34734,0.14285 -0.39033,0.16434 -0.58035,0.29017 -0.11467,0.0873 -0.6779,0.32867 -0.12976,0.0556 -0.25925,0.11191 -0.39033,0.16434 -0.39249,0.15699 -0.48073,0.16846 -0.80116,0.32867 -0.0631,0.0315 -0.12282,0.0693 -0.18489,0.10271 -0.0213,0.0115 -0.12358,0.0569 -0.1438,0.0822 -0.0548,0.0685 0.004,0.0848 0.0411,0.1438 0.10893,0.17116 0.1581,0.37582 0.2876,0.53408 0.0217,0.0265 0.0603,0.0353 0.0822,0.0616 0.0139,0.0166 0.0131,0.0413 0.0205,0.0616 0.0796,0.21903 0.0588,0.13246 0.12326,0.3903 0.0495,0.19818 0.0933,0.39777 0.1438,0.59572 0.33629,1.23287 -0.065,-0.27918 0.20544,0.86277 0.0295,0.12447 0.0713,0.24575 0.10271,0.36975 0.0987,0.38959 0.19472,0.77988 0.2876,1.1709 0.057,0.23989 0.15417,0.69929 0.18488,0.94493 0.0333,0.26679 0.0668,0.99292 0.0822,1.21198 0.0313,0.44596 0.084,0.89008 0.12327,1.33524 0.009,0.10254 0.01,0.20576 0.0205,0.30814 0.0166,0.15794 0.0428,0.31475 0.0616,0.47245 0.0155,0.12991 0.0249,0.2605 0.0411,0.39031 0.0557,0.44556 0.12137,0.8907 0.18488,1.33523 0.0747,0.52295 0.0393,0.28633 0.10272,0.69843 0.0137,0.089 0.0311,0.17754 0.0411,0.26705 0.0175,0.15712 0.0224,0.31549 0.0411,0.47247 0.0473,0.39773 0.14003,0.79055 0.16432,1.19143 0.0133,0.21871 -0.011,0.43851 0,0.65735 0.008,0.15789 0.0312,0.31469 0.0411,0.47247 0.004,0.0615 0,0.12325 0,0.18487 0,0.21146 -0.009,0.42547 0,0.63681 -0.0129,0.20039 0.0324,0.39687 0.0411,0.59572 0.007,0.16293 0.002,0.29237 -0.0206,0.45192 -0.011,0.0772 -0.0649,0.34929 -0.0822,0.43139 -0.013,0.0618 -0.0361,0.12194 -0.0411,0.18488 -0.0142,0.17746 0,0.35606 0,0.53409 0,0.0274 0.004,0.0551 0,0.0822 -0.003,0.0214 -0.0163,0.0404 -0.0206,0.0616 -0.18224,0.91123 0.0568,-0.24058 -0.0616,0.41083 -0.004,0.0213 -0.0175,0.0402 -0.0205,0.0616 -0.004,0.0271 0.004,0.0551 0,0.0822 -0.003,0.0214 -0.0175,0.0402 -0.0206,0.0616 -0.004,0.0271 0.002,0.0549 0,0.0822 -0.005,0.0618 -0.0183,0.12292 -0.0206,0.18488 -0.005,0.13002 0,0.26021 0,0.39031 0,0.0479 0.0429,0.12236 0,0.14379 -0.0392,0.0196 -0.0563,-0.0673 -0.0822,-0.10271 -0.23437,-0.32071 -1.00405,-0.71173 -0.69846,-0.96548 0.31077,-0.25806 0.62652,0.51006 0.93977,0.76509"
       id="path23" />
    <path
       style="fill:none;stroke:#000000;stroke-width:0.3"
       d="m 182.36326,237.10295 c -0.89703,0.0685 -1.79405,0.137 -2.69108,0.2055 -0.0411,-0.0479 -0.18486,-0.12994 -0.12327,-0.14379 0.9138,-0.20546 1.84883,-0.30135 2.77325,-0.45202"
       id="path24" />
    <path
       style="fill:none;stroke:#000000;stroke-width:0.3"
       d="m 179.54891,237.16466 c 0.35805,0.46539 0.18722,0.27324 0.84228,0.86277 0.5071,0.45637 1.40139,1.294 2.05428,1.68445 0.7704,0.46071 1.20479,0.65159 1.99266,0.88331 0.23048,0.16237 0.50712,0.12164 0.76008,0.18488 0.021,0.005 0.04,0.0205 0.0616,0.0205 0.0451,0 0.2501,-0.0826 0.24652,-0.0822 -0.8714,0.10248 -1.73932,0.23275 -2.60898,0.34912"
       id="path25" />
    <path
       style="fill:none;stroke:#000000;stroke-width:0.3"
       d="m 182.24006,235.93205 c 0.36291,0.79432 0.81441,1.55387 1.08875,2.38297 0.0463,0.14003 -0.10569,0.27551 -0.16433,0.41084 -0.28571,0.6593 -0.59654,1.33653 -0.96553,1.95149 -0.21302,0.35503 -0.46407,0.68581 -0.69846,1.02711 -0.15592,0.22704 -0.31969,0.44871 -0.47248,0.67788 -0.1075,0.16125 -0.19334,0.33688 -0.30814,0.49301 -0.0574,0.078 -0.30207,0.19917 -0.20543,0.20543 0.80658,0.0522 1.61602,-0.0412 2.42404,-0.0617"
       id="path26" />
    <path
       style="fill:none;stroke:#000000;stroke-width:0.3"
       d="m 98.158071,228.05804 c 1.13152,-1.0566 0.340754,-0.63709 2.280259,-0.60977 0.45195,0.006 0.90402,-0.008 1.35583,-0.0205 1.95944,-0.0552 1.24013,-0.0507 3.28686,-0.20543 0.60227,-0.0455 1.20628,-0.0683 1.80777,-0.12325 1.67652,-0.15314 2.31803,-0.24192 3.80043,-0.45192 0.66402,-0.0941 1.36945,-0.19608 2.03375,-0.30813 0.26754,-0.0451 0.53353,-0.0992 0.80116,-0.1438 0.0612,-0.0102 0.24155,-0.0457 0.18489,-0.0205 -0.11689,0.052 -0.24767,0.0646 -0.36977,0.10271 -0.0972,0.0304 -0.24284,0.0113 -0.2876,0.1027 -0.071,0.14515 0,0.32321 0,0.48481"
       id="path29" />
    <path
       style="fill:none;stroke:#000000;stroke-width:0.3"
       d="m 100.3493,234.22374 c 1.855,0.092 1.02303,0.0762 2.49518,0.0762 0.84903,0 1.37552,0.0185 2.22649,-0.0576 1.14346,-0.10225 1.35014,-0.19398 2.49519,-0.36467 1.57624,-0.23495 1.53006,-0.21191 2.82149,-0.36466 0.26243,-0.031 0.52416,-0.0681 0.78696,-0.096 1.13868,-0.12056 0.49946,0.007 1.40114,-0.21112 0.0256,-0.006 0.0539,-0.006 0.0768,-0.0192 0.17386,-0.0993 -0.027,-0.0114 0.0768,-0.11516 0.0143,-0.0143 0.0395,-0.0102 0.0576,-0.0192 0,0 0.11516,-0.0768 0.11516,-0.0768 -0.15682,-0.34499 -0.15355,-0.23901 -0.15355,-0.15797"
       id="path31" />
    <path
       style="fill:none;stroke:#000000;stroke-width:0.3"
       d="m 115.39723,222.6269 c 0.21114,0.0524 0.43501,0.068 0.6334,0.1572 0.16688,0.0751 0.29442,0.21737 0.44146,0.32628 0.19845,0.147 0.40552,0.28307 0.59501,0.44145 0.62044,0.51856 1.17566,1.1238 1.70825,1.72737 0.50872,0.57652 1.39112,1.62894 1.93858,2.32236 0.49997,0.63327 0.70063,0.95415 1.19001,1.47786 0.2255,0.24132 0.46756,0.4669 0.69097,0.71015 0.0634,0.069 0.23652,0.27305 0.24952,0.40305 0.0144,0.14417 -0.0146,0.31813 -0.0384,0.46064 -0.002,0.0136 -0.0313,0.12871 -0.0384,0.13434 -0.0514,0.0412 -0.1169,0.0611 -0.17276,0.096 -0.1631,0.10193 -0.30602,0.23248 -0.46065,0.34547 -0.1003,0.0733 -0.20816,0.13601 -0.30709,0.21113 -0.24671,0.18731 -0.48486,0.38563 -0.72937,0.57579 -0.45757,0.35588 -0.92758,0.69568 -1.38196,1.05562 -0.69793,0.55289 -1.21789,1.00804 -1.88099,1.6506 -0.25349,0.24564 -0.49341,0.50519 -0.72936,0.76772 -0.45867,0.51034 -0.70304,0.81533 -1.07486,1.36271 -0.0888,0.13071 -0.16282,0.27095 -0.24952,0.40305 -0.23152,0.35279 -0.0795,0.0668 -0.26871,0.40306 -0.0106,0.0188 -0.0782,0.16767 -0.096,0.17273 -0.0741,0.0212 -0.15355,0.0128 -0.23032,0.0192 -0.24312,0.0768 -0.48624,0.15354 -0.72937,0.23031"
       id="path32" />
  </g>
</svg>
