<?xml version="1.0" encoding="UTF-8" standalone="no"?>
<!-- Created with Inkscape (http://www.inkscape.org/) -->

<svg
   width="240mm"
   height="120mm"
   viewBox="0 0 240 120"
   version="1.1"
   id="svg8"
   inkscape:version="1.3 (0e150ed6c4, 2023-07-21)"
   sodipodi:docname="transmission-en-fonction-de-la-fréquance.svg"
   xmlns:inkscape="http://www.inkscape.org/namespaces/inkscape"
   xmlns:sodipodi="http://sodipodi.sourceforge.net/DTD/sodipodi-0.dtd"
   xmlns="http://www.w3.org/2000/svg"
   xmlns:svg="http://www.w3.org/2000/svg"
   xmlns:rdf="http://www.w3.org/1999/02/22-rdf-syntax-ns#"
   xmlns:cc="http://creativecommons.org/ns#"
   xmlns:dc="http://purl.org/dc/elements/1.1/">
  <defs
     id="defs2">
    <inkscape:path-effect
       effect="bspline"
       id="path-effect4"
       is_visible="true"
       lpeversion="1.3"
       weight="33.333333"
       steps="2"
       helper_size="0"
       apply_no_weight="true"
       apply_with_weight="true"
       only_selected="false"
       uniform="false" />
    <marker
       style="overflow:visible"
       id="marker3"
       refX="0"
       refY="0"
       orient="auto-start-reverse"
       inkscape:stockid="Wide arrow"
       markerWidth="1"
       markerHeight="1"
       viewBox="0 0 1 1"
       inkscape:isstock="true"
       inkscape:collect="always"
       preserveAspectRatio="xMidYMid">
      <path
         style="fill:none;stroke:context-stroke;stroke-width:1;stroke-linecap:butt"
         d="M 3,-3 0,0 3,3"
         transform="rotate(180,0.125,0)"
         sodipodi:nodetypes="ccc"
         id="path3" />
    </marker>
    <marker
       style="overflow:visible"
       id="ArrowWide"
       refX="0"
       refY="0"
       orient="auto-start-reverse"
       inkscape:stockid="Wide arrow"
       markerWidth="1"
       markerHeight="1"
       viewBox="0 0 1 1"
       inkscape:isstock="true"
       inkscape:collect="always"
       preserveAspectRatio="xMidYMid">
      <path
         style="fill:none;stroke:context-stroke;stroke-width:1;stroke-linecap:butt"
         d="M 3,-3 0,0 3,3"
         transform="rotate(180,0.125,0)"
         sodipodi:nodetypes="ccc"
         id="path2" />
    </marker>
  </defs>
  <sodipodi:namedview
     id="base"
     pagecolor="#ffffff"
     bordercolor="#666666"
     borderopacity="1.0"
     inkscape:pageopacity="0.0"
     inkscape:pageshadow="2"
     inkscape:zoom="1.7079072"
     inkscape:cx="428.59472"
     inkscape:cy="235.37579"
     inkscape:document-units="mm"
     inkscape:current-layer="layer1"
     showgrid="false"
     showborder="true"
     width="200mm"
     showguides="true"
     inkscape:guide-bbox="true"
     inkscape:window-width="1920"
     inkscape:window-height="1200"
     inkscape:window-x="0"
     inkscape:window-y="0"
     inkscape:window-maximized="1"
     inkscape:showpageshadow="2"
     inkscape:pagecheckerboard="0"
     inkscape:deskcolor="#d1d1d1">
    <inkscape:grid
       type="xygrid"
       id="grid815"
       units="mm"
       spacingx="10"
       spacingy="10"
       empspacing="4"
       dotted="false"
       originx="0"
       originy="0"
       visible="false" />
  </sodipodi:namedview>
  <metadata
     id="metadata5">
    <rdf:RDF>
      <cc:Work
         rdf:about="">
        <dc:format>image/svg+xml</dc:format>
        <dc:type
           rdf:resource="http://purl.org/dc/dcmitype/StillImage" />
        <dc:title />
      </cc:Work>
    </rdf:RDF>
  </metadata>
  <g
     inkscape:label="Layer 1"
     inkscape:groupmode="layer"
     id="layer1"
     transform="translate(0,-177)">
    <path
       style="fill:none;stroke:#000000;stroke-width:0.3;marker-start:url(#ArrowWide);marker-end:url(#marker3)"
       d="m 12.768411,189.34285 v 93.78159 H 215.44481"
       id="path1" />
    <text
       xml:space="preserve"
       style="font-size:3.175px;fill:none;stroke:#000000;stroke-width:0.3"
       x="208.96809"
       y="288.85739"
       id="text3"><tspan
         sodipodi:role="line"
         id="tspan3"
         style="stroke-width:0.3;fill:none;stroke:#000000"
         x="208.96809"
         y="288.85739">$\omega$</tspan></text>
    <text
       xml:space="preserve"
       style="font-size:3.175px;fill:none;stroke:#000000;stroke-width:0.3"
       x="3.7832806"
       y="201.35164"
       id="text4"><tspan
         sodipodi:role="line"
         id="tspan4"
         style="stroke-width:0.3;fill:none;stroke:#000000"
         x="3.7832806"
         y="201.35164">$T$</tspan></text>
    <path
       style="fill:none;stroke:#000000;stroke-width:0.3"
       d="m 12.768411,283.12444 c 0.371777,-0.60656 0.743554,-1.21312 1.66647,-1.78707 0.922916,-0.57394 2.396975,-1.11528 5.472275,-2.52731 3.075301,-1.41204 7.751849,-3.69479 10.631479,-6.14058 2.879631,-2.4458 3.962347,-5.05465 4.979838,-7.74502 1.017491,-2.69038 1.969756,-5.46228 2.961157,-8.49507 0.9914,-3.03278 2.021937,-6.32645 2.367624,-7.9048 0.345686,-1.57836 0.0065,-1.44139 -0.127185,-1.38921 -0.133712,0.0522 -0.06196,0.0196 0.117401,-0.30652 0.179363,-0.32609 0.466351,-0.9457 1.027274,-2.06424 0.560924,-1.11854 1.395789,-2.73603 2.820928,-1.91098 1.42514,0.82505 3.440557,4.09263 5.11681,8.57333 1.676252,4.4807 3.013338,10.17451 4.105835,13.81059 1.092497,3.63608 1.94041,5.21444 2.667655,6.57104 0.727245,1.3566 1.333827,2.49145 2.807883,3.80892 1.474055,1.31746 3.81559,2.81755 5.504889,3.5513 1.689299,0.73375 2.726357,0.70115 3.835161,0.72724 1.108805,0.0261 2.289353,0.11088 4.754811,-1.3305 2.465458,-1.44139 6.21583,-4.40896 8.612805,-6.91671 2.396975,-2.50776 3.440551,-4.5557 4.42217,-6.50256 0.981619,-1.94685 1.901277,-3.79261 2.576342,-5.46879 0.675066,-1.67619 1.105541,-3.1828 2.080637,-6.43082 0.975096,-3.24802 2.494812,-8.23744 3.548176,-12.26811 1.053365,-4.03067 1.64038,-7.10259 2.16543,-9.62991 0.525051,-2.52732 0.988141,-4.51005 1.539281,-7.60154 0.55114,-3.09148 1.190332,-7.29173 1.747993,-10.86911 0.55767,-3.57738 1.0338,-6.5319 2.40024,-9.15379 1.36644,-2.6219 3.62318,-4.91116 5.10376,-6.02971 1.48058,-1.11854 2.185,-1.06637 3.77646,0.89027 1.59145,1.95664 4.06996,5.81773 5.75925,9.76036 1.6893,3.94262 2.58939,7.96677 3.22206,11.15935 0.63267,3.19258 0.99793,5.55358 1.17404,7.75154 0.17611,2.19795 0.16307,4.23285 0.3131,6.42429 0.15002,2.19143 0.46309,4.53939 1.46428,11.0289 1.00119,6.48951 2.69048,17.12057 4.68959,23.35246 1.99911,6.23189 4.30804,8.0646 7.91491,7.17107 3.60688,-0.89353 8.5117,-4.5133 11.83159,-8.73312 3.31989,-4.21981 5.05484,-9.03966 5.99406,-12.37247 0.93923,-3.3328 1.08272,-5.17856 2.31545,-8.00263 1.23273,-2.82408 3.5547,-6.62648 4.91788,-8.6092 1.36317,-1.98273 1.76756,-2.14579 2.54699,-2.03491 0.77942,0.11088 1.93388,0.49568 2.76874,0.84462 0.83487,0.34893 1.35014,0.662 2.21435,3.67195 0.86421,3.00996 2.07738,8.71682 2.86332,12.6464 0.78595,3.92957 1.14468,6.08187 1.39253,8.07438 0.24785,1.99251 0.38482,3.82522 1.37296,6.25797 0.98814,2.43276 2.82746,5.46554 5.41684,7.70589 2.58939,2.24035 5.92885,3.68827 10.72605,4.66332 4.79721,0.97506 11.05217,1.47727 14.68513,1.81315 3.63297,0.33589 4.64394,0.50547 5.14943,0.80548 0.50549,0.30002 0.50549,0.73048 0.50549,1.16094"
       id="path4"
       inkscape:path-effect="#path-effect4"
       inkscape:original-d="m 12.768411,283.12444 c 0.371777,-0.60656 0.743554,-1.21312 1.115331,-1.81968 1.474056,-0.54133 2.948113,-1.08267 4.42217,-1.624 4.676546,-2.28274 9.353092,-4.56549 14.029637,-6.84823 1.082715,-2.60885 2.165429,-5.2177 3.248147,-7.82654 0.952267,-2.77191 1.904534,-5.54381 2.856798,-8.31571 1.030537,-3.29367 2.061073,-6.58734 3.091609,-9.88101 -0.339164,0.13696 -0.678325,0.27392 -1.017487,0.41089 0.07174,-0.0326 0.143492,-0.0652 0.215236,-0.0978 0.286986,-0.61959 0.573969,-1.2392 0.860954,-1.8588 0.834864,-1.61748 1.669725,-3.23497 2.504588,-4.85245 2.015419,3.26758 4.030835,6.53516 6.046253,9.80274 1.337085,5.69382 2.674173,11.38763 4.011258,17.08144 0.84791,1.57835 1.695821,3.15671 2.543731,4.73506 0.606578,1.13485 1.213159,2.2697 1.81974,3.40454 2.341536,1.50009 4.683072,3.00018 7.024608,4.50028 1.037059,-0.0326 2.074117,-0.0652 3.111175,-0.0978 1.18055,0.0848 2.361099,0.16957 3.541646,0.25436 3.750371,-2.96756 7.500739,-5.93513 11.25111,-8.90269 1.04358,-2.04795 2.087158,-4.09589 3.130738,-6.14384 0.919657,-1.84576 1.839314,-3.69152 2.758972,-5.53728 0.430474,-1.50661 0.860948,-3.01322 1.291423,-4.51983 1.519716,-4.98943 3.039433,-9.97885 4.559149,-14.96827 0.587013,-3.07192 1.174028,-6.14384 1.761043,-9.21576 0.46309,-1.98272 0.926176,-3.96545 1.389266,-5.94818 0.639194,-4.20024 1.278385,-8.40049 1.917574,-12.60073 0.47614,-2.95452 0.95227,-5.90904 1.42841,-8.86356 2.25674,-2.28927 4.51348,-4.57853 6.77022,-6.8678 0.70442,0.0522 1.40884,0.10435 2.11325,0.15653 2.4785,3.8611 4.95701,7.72219 7.43551,11.58329 0.90009,4.02415 1.80018,8.0483 2.70027,12.07245 0.36525,2.36101 0.73051,4.72201 1.09576,7.08302 -0.013,2.0349 -0.0261,4.0698 -0.0391,6.1047 0.31308,2.34797 0.62615,4.69593 0.93923,7.04389 1.6893,10.63106 3.37859,21.26212 5.06789,31.89318 2.30892,1.83272 4.61785,3.66543 6.92677,5.49815 4.90483,-3.61978 9.80965,-7.23955 14.71448,-10.85933 1.73495,-4.81985 3.4699,-9.6397 5.20485,-14.45955 0.1435,-1.84576 0.28699,-3.69152 0.43049,-5.53728 2.32196,-3.80239 4.64393,-7.60479 6.9659,-11.40719 0.40438,-0.16305 0.80877,-0.32611 1.21316,-0.48916 1.15446,0.38481 2.30892,0.76961 3.46338,1.15442 0.51527,0.31306 1.03054,0.62612 1.5458,0.93919 1.21316,5.70685 2.42633,11.41371 3.63949,17.12056 0.35873,2.1523 0.71746,4.3046 1.07619,6.4569 0.13697,1.83272 0.27394,3.66543 0.41091,5.49815 1.83931,3.03279 3.67863,6.06557 5.51794,9.09836 3.33946,1.44791 6.67892,2.89582 10.01838,4.34374 6.25495,0.5022 12.50991,1.0044 18.76487,1.50661 1.01097,0.16957 2.02194,0.33915 3.03292,0.50872 0,0.43046 0,0.86092 0,1.29138" />
    <path
       style="fill:none;stroke:#000000;stroke-width:0.3;marker-start:url(#marker3);marker-end:url(#marker3)"
       d="M 43.629094,235.48042 H 163.59521"
       id="path5" />
    <text
       xml:space="preserve"
       style="font-size:3.175px;fill:none;stroke:#000000;stroke-width:0.3"
       x="106.26178"
       y="231.82143"
       id="text5"><tspan
         sodipodi:role="line"
         id="tspan5"
         style="stroke-width:0.3;fill:none;stroke:#000000"
         x="106.26178"
         y="231.82143">$2g$</tspan></text>
  </g>
</svg>
