<?xml version="1.0" encoding="UTF-8" standalone="no"?>
<!-- Created with Inkscape (http://www.inkscape.org/) -->

<svg
   width="240mm"
   height="120mm"
   viewBox="0 0 240 120"
   version="1.1"
   id="svg8"
   inkscape:version="1.3 (0e150ed6c4, 2023-07-21)"
   sodipodi:docname="éléments-de-circuits.svg"
   xmlns:inkscape="http://www.inkscape.org/namespaces/inkscape"
   xmlns:sodipodi="http://sodipodi.sourceforge.net/DTD/sodipodi-0.dtd"
   xmlns="http://www.w3.org/2000/svg"
   xmlns:svg="http://www.w3.org/2000/svg"
   xmlns:rdf="http://www.w3.org/1999/02/22-rdf-syntax-ns#"
   xmlns:cc="http://creativecommons.org/ns#"
   xmlns:dc="http://purl.org/dc/elements/1.1/">
  <defs
     id="defs2" />
  <sodipodi:namedview
     id="base"
     pagecolor="#ffffff"
     bordercolor="#666666"
     borderopacity="1.0"
     inkscape:pageopacity="0.0"
     inkscape:pageshadow="2"
     inkscape:zoom="1.7188362"
     inkscape:cx="454.37721"
     inkscape:cy="234.46097"
     inkscape:document-units="mm"
     inkscape:current-layer="layer1"
     showgrid="false"
     showborder="true"
     width="200mm"
     showguides="true"
     inkscape:guide-bbox="true"
     inkscape:window-width="1920"
     inkscape:window-height="1200"
     inkscape:window-x="0"
     inkscape:window-y="0"
     inkscape:window-maximized="1"
     inkscape:showpageshadow="2"
     inkscape:pagecheckerboard="0"
     inkscape:deskcolor="#d1d1d1">
    <inkscape:grid
       type="xygrid"
       id="grid815"
       units="mm"
       spacingx="10"
       spacingy="10"
       empspacing="4"
       dotted="false"
       originx="0"
       originy="0"
       visible="false" />
  </sodipodi:namedview>
  <metadata
     id="metadata5">
    <rdf:RDF>
      <cc:Work
         rdf:about="">
        <dc:format>image/svg+xml</dc:format>
        <dc:type
           rdf:resource="http://purl.org/dc/dcmitype/StillImage" />
        <dc:title />
      </cc:Work>
    </rdf:RDF>
  </metadata>
  <g
     inkscape:label="Layer 1"
     inkscape:groupmode="layer"
     id="layer1"
     transform="translate(0,-177)">
    <path
       style="fill:none;stroke:#000000;stroke-width:0.3"
       d="m 52.154951,191.80356 c 0.326809,0.076 0.840953,0.2333 1.224892,0.2333 1.1558,0 2.306444,-0.15614 3.460802,-0.21386 0.563285,-0.0282 1.127681,-0.0259 1.691521,-0.0389 0.933249,-0.0389 1.867054,-0.0662 2.79975,-0.11666 0.587253,-0.0318 5.986007,-0.45622 7.407679,-0.31107 1.283677,0.13106 2.555105,0.38331 3.810773,0.68047 0.694079,0.16426 1.343602,0.47982 2.022044,0.69991 1.01977,0.33083 2.02774,0.70975 3.071947,0.95266 2.085234,0.48509 1.829033,0.29711 3.13028,0.3694 0.274034,0.0152 0.584002,0.0504 0.855475,0.0972 0.05267,0.009 0.102177,0.0361 0.155548,0.0389 0.232037,0.0122 0.438343,-0.099 0.661049,-0.13609"
       id="path1" />
    <path
       style="fill:none;stroke:#000000;stroke-width:0.3"
       d="m 82.471366,198.04446 c 0.102782,0 0.203612,-0.0491 0.305884,-0.0389 0.01934,0.002 0.0061,0.0767 0,0.0583 -0.01245,-0.0374 -0.01295,-0.0778 -0.01945,-0.11665 -0.0065,-0.0324 -0.009,-0.0658 -0.01945,-0.0972 -0.08997,-0.26991 -0.264942,-0.50564 -0.349962,-0.77768 -0.08515,-0.27248 -0.136623,-0.56134 -0.213873,-0.83601 -0.0457,-0.1625 -0.108302,-0.33873 -0.136102,-0.50549 -0.06092,-0.36542 0.05418,-0.76042 0.03889,-1.12763 -0.01579,-0.37879 -0.06477,-0.99127 -0.136099,-1.41926 -0.02173,-0.13038 -0.06436,-0.25734 -0.07777,-0.38884 -0.138319,-1.35549 0.220403,-2.70326 0.607917,-3.9856 0.426007,-0.13609 0.83826,-0.32695 1.27802,-0.40828 0.236141,-0.0437 0.479408,0.0299 0.719385,0.0389 0.278558,0.0104 0.557281,0.0194 0.836035,0.0194 1.276805,0 2.553567,-0.0189 3.830216,-0.0389 1.131089,-0.0177 1.41995,-0.0518 2.566442,-0.11665 0.400422,-0.0227 2.063187,-0.14547 2.702542,-0.0972 1.475352,0.11134 0.685907,0.11758 1.808171,0.31107 0.500081,0.0862 1.489112,0.20049 2.119257,0.33051 0.463802,0.0957 0.943548,0.24838 1.41932,0.29163 0.472511,0.043 0.946391,0.002 1.419311,0.0195 0.16243,0.006 0.32359,0.0346 0.48607,0.0389 0.17494,0.005 0.20381,-0.007 0.33053,-0.0389 0.0445,-0.0111 0.11804,-0.0616 0.1361,-0.0195 0.0179,0.0417 0.002,0.0908 0,0.1361 -0.005,0.11026 -0.013,0.22034 -0.0194,0.33051 -0.0194,0.33051 -0.036,0.66121 -0.0583,0.99154 -0.0887,1.30923 -0.2004,2.61701 -0.2722,3.92727 -0.10143,1.85108 -0.19553,3.68904 -0.21387,5.54096 -0.003,0.33698 0,0.67399 0,1.01098 0,0.0519 0,0.10369 0,0.15554 0,0.0194 0.0184,0.0522 0,0.0583 -0.0222,0.007 -0.0362,-0.0315 -0.0583,-0.0389 -0.1047,-0.0349 -0.22021,-0.0161 -0.33052,-0.0194 -0.43156,-0.0131 -0.83559,0.0344 -1.263773,0.0778 -1.018085,0.10309 -2.048442,0.1974 -3.071954,0.0972 -0.566466,-0.0555 -1.124544,-0.18321 -1.69151,-0.2333 -1.49713,-0.13227 -2.992821,-0.0942 -4.471826,-0.3694 -1.071683,-0.19937 -2.090883,-0.63464 -3.169166,-0.79712 -0.546108,-0.0823 -1.103752,-0.0957 -1.652633,-0.15553 -0.795465,-0.0868 -1.576184,-0.25987 -2.372007,-0.34996 -0.383617,-0.0434 -0.784735,-0.0606 -1.108245,-0.29163 -0.08683,-0.062 -0.118369,-0.18556 -0.213864,-0.2333 -0.122444,-0.0612 -0.347767,-0.0389 -0.25276,-0.0389 0.18968,0 0.37936,0 0.56904,0"
       id="path2" />
    <path
       style="fill:none;stroke:#000000;stroke-width:0.3"
       d="m 102.12275,189.13998 c 0.48606,-0.006 0.97213,-0.0129 1.4582,-0.0194 0.25276,0.0194 0.50482,0.053 0.75827,0.0583 0.68034,0.0142 1.361,0.004 2.04148,0 1.21003,-0.008 2.40594,-0.0368 3.61635,0.0389 1.12225,0.0701 2.23819,0.22805 3.36359,0.27218 0.5407,0.0212 1.79908,0.0703 2.56643,0.0583 0.53098,-0.008 1.06306,-0.055 1.59431,-0.0389 1.25771,0.0381 2.51342,0.19442 3.77189,0.19442 0.34351,0 0.67135,-0.001 1.01102,0.0389 0.18565,0.0218 0.21389,0.0388 0.21387,0.0389 -0.0193,0.0289 -0.20587,0.0538 -0.23332,0.0583"
       id="path3" />
    <path
       style="fill:none;stroke:#000000;stroke-width:0.3"
       d="m 122.51816,189.78158 c 0.0583,0.35644 0.16268,0.70835 0.17498,1.06932 0.007,0.21725 -0.0806,0.42724 -0.11665,0.64159 -0.0741,0.44022 -0.15804,0.87914 -0.21387,1.32205 -0.19982,1.58514 -0.13497,3.19372 -0.29164,4.78272 -0.0239,0.24274 -0.0696,0.56943 -0.11666,0.81656 -0.0158,0.0828 -0.0718,0.15297 -0.0972,0.2333 -0.0473,0.14986 -0.0918,0.31891 -0.1361,0.46661 -0.12167,0.40556 -0.0778,0.89968 -0.0778,1.32206 0,0.10574 -0.0166,0.37541 0,0.52493 0.011,0.099 0.0921,0.21585 0.0389,0.13609 -0.20713,-0.31067 -0.11665,-0.51004 -0.11665,0.50385"
       id="path4" />
    <path
       style="fill:none;stroke:#000000;stroke-width:0.3"
       d="m 101.55891,201.07734 c 0.74471,0.57035 1.37547,0.57739 2.25536,0.6805 0.55169,0.0647 1.10079,0.15048 1.65263,0.21386 1.37975,0.15848 2.75665,0.15812 4.14129,0.0583 0.33769,-0.0243 0.67317,-0.0752 1.01102,-0.0972 1.07993,-0.0702 2.16946,-0.004 3.24694,-0.0972 0.72775,-0.0629 1.46314,-0.35498 2.17758,-0.46661 0.23087,-0.0361 0.46691,-0.0216 0.69994,-0.0389 0.3941,-0.0292 0.70714,-0.11391 1.0888,-0.21386 0.46005,-0.12049 1.05564,-0.22645 1.53597,-0.27219 0.0883,-0.008 0.20212,0.0179 0.29164,0 0.16588,-0.0332 0.32381,-0.11129 0.48607,-0.15554 0.24787,-0.0676 0.88617,-0.10345 1.14712,0.0389 0.16211,0.0884 0.3273,0.21736 0.50551,0.27219 0.0685,0.0211 0.14165,-0.005 0.21386,0.0194 0.13112,0.0437 0.10853,0.0439 0.25277,0.0583 0.0193,0.002 0.0645,-0.0184 0.0583,0 -0.14255,0.42762 -0.22743,0.19467 -0.64162,0.0194"
       id="path5" />
    <path
       style="fill:none;stroke:#000000;stroke-width:0.3"
       d="m 122.69314,190.8509 c 1.06288,-0.46422 1.43343,-0.72032 2.39146,-0.93321 0.41697,-0.0927 1.13803,-0.12385 1.49709,-0.15553 3.28765,-0.29008 -0.051,0.0118 4.16075,-0.52494 1.11347,-0.14191 2.22632,-0.16755 3.34414,-0.2333 1.46123,-0.0859 1.73203,-0.1648 3.34415,-0.15554 0.47381,0.003 0.94552,0.0738 1.41932,0.0778 0.64466,0.005 1.2807,-0.12146 1.92483,-0.13609 0.14483,-0.003 0.61015,-0.0393 0.64161,0 0.0471,0.0588 -0.0847,0.12539 -0.1361,0.18044"
       id="path6" />
    <path
       style="fill:none;stroke:#000000;stroke-width:0.3"
       d="m 121.64323,200.96072 c 0.38886,-0.14906 0.76588,-0.3337 1.16657,-0.44716 0.33523,-0.0949 0.68585,-0.12376 1.03046,-0.17498 1.02263,-0.15201 2.0466,-0.29542 3.07196,-0.42772 2.47477,-0.31932 4.98585,-0.63603 7.48545,-0.6027 0.55764,0.007 1.1153,0.026 1.67207,0.0583 1.18302,0.0686 0.80154,0.12304 1.94428,0.17498 0.40145,0.0182 0.80478,0.0505 1.20544,0.0194 1.98928,-0.1541 0.9467,-0.22671 2.06093,-0.27219 0.35247,-0.0144 0.74118,0.0549 1.08879,0 0.0635,-0.01 0.37872,-0.0456 0.21387,-0.15554"
       id="path7" />
    <path
       style="fill:none;stroke:#000000;stroke-width:0.3"
       d="m 141.28039,188.97053 c 0.20739,0.84065 0.4502,1.67335 0.62217,2.52196 0.0555,0.27378 0.043,0.55708 0.0583,0.836 0.0235,0.42752 0.0378,0.8555 0.0583,1.28317 0.0396,0.8245 0.0869,1.64279 0.0389,2.46913 -0.0252,0.433 -0.11,0.78328 -0.19443,1.2054 -0.039,0.19521 -0.0918,0.42147 -0.0583,0.62214 0.0341,0.20469 0.34996,0.39651 0.34996,0.64159 0,0.49172 -0.16593,0.32981 0.21387,0.73873"
       id="path8" />
    <path
       style="fill:none;stroke:#000000;stroke-width:0.3"
       d="m 142.01916,193.61166 c 0.76476,-0.0324 1.53059,-0.0454 2.29429,-0.0972 1.91595,-0.12989 0.37893,-0.16577 2.39146,-0.2333 1.24793,-0.0419 3.1852,0.0715 4.31629,-0.0195 0.97298,-0.0782 1.93992,-0.23567 2.89696,-0.42772 0.95089,-0.19081 1.87809,-0.48504 2.81919,-0.71935 2.00174,-0.49837 2.45736,-0.61534 4.6857,-0.91377 1.57547,-0.21099 3.16758,-0.16888 4.74402,-0.38884 0.26943,-0.0376 0.53105,-0.11844 0.79715,-0.17498 0.34936,-0.0742 0.70191,-0.13355 1.04992,-0.21386 0.33788,-0.078 0.65637,-0.2506 1.01102,-0.2333 0.52469,0.0256 0.47336,0.0655 0.97213,0.17498 0.26252,0.0576 0.57575,0.0913 0.83604,0.11665 0.31018,0.0303 0.6221,0.0194 0.93325,0.0194 0.0648,0 0.12962,0 0.19442,0 0.0259,0 0.0911,-0.0222 0.0778,0 -0.1859,0.30983 -0.3111,-0.14258 -0.3111,0.48741"
       id="path9" />
    <text
       xml:space="preserve"
       style="font-size:3.175px;fill:none;stroke:#000000;stroke-width:0.3"
       x="89.765762"
       y="194.34598"
       id="text9"><tspan
         sodipodi:role="line"
         id="tspan9"
         style="stroke-width:0.3"
         x="89.765762"
         y="194.34598">SC</tspan></text>
    <text
       xml:space="preserve"
       style="font-size:3.175px;fill:none;stroke:#000000;stroke-width:0.3"
       x="110.29536"
       y="195.679"
       id="text10"><tspan
         sodipodi:role="line"
         id="tspan10"
         style="stroke-width:0.3"
         x="110.29536"
         y="195.679">I</tspan></text>
    <text
       xml:space="preserve"
       style="font-size:3.175px;fill:none;stroke:#000000;stroke-width:0.3"
       x="128.19357"
       y="195.679"
       id="text11"><tspan
         sodipodi:role="line"
         id="tspan11"
         style="stroke-width:0.3"
         x="128.19357"
         y="195.679">SC</tspan></text>
    <path
       style="fill:none;stroke:#000000;stroke-width:0.3"
       d="m 54.242996,223.03165 c 1.078722,-0.0219 2.147194,-0.2174 3.227493,-0.19441 1.189164,0.0253 1.494959,0.14788 2.877524,0.36939 2.040048,0.32684 4.084095,0.62548 6.1439,0.79712 1.909392,0.15911 3.825158,0.16969 5.7356,0.29163 3.053453,0.19489 6.076593,0.53181 9.118637,0.836 1.140857,0.11409 1.678286,0.13119 2.858082,0.29163 1.574117,0.21407 0.115787,0.12386 1.905384,0.29163 0.271317,0.0254 0.54429,0.0284 0.816596,0.0389 0.140719,0.005 0.256652,-0.004 0.252752,0 -0.501296,0.56394 -0.447178,-0.0609 -0.447178,0.94224"
       id="path11" />
    <path
       style="fill:none;stroke:#000000;stroke-width:0.3"
       d="m 99.272343,221.04857 c 0.550873,0.23978 1.124877,0.43221 1.652617,0.71935 1.49823,0.81519 2.79057,2.59247 3.88855,3.8884 1.27657,1.5067 2.58593,3.06716 3.908,4.51053 0.54921,0.59961 1.27336,1.27829 1.92482,1.82754 0.3058,0.25783 0.54137,0.44077 0.58328,0.34996 0.15376,-0.33312 -0.60281,-0.61653 -1.03046,-0.8749"
       id="path13" />
    <path
       style="fill:none;stroke:#000000;stroke-width:0.3"
       d="m 108.50763,222.68534 c -0.28516,-0.0207 -0.59223,-0.17351 -0.85548,-0.062 -0.23869,0.10113 -0.31141,0.41452 -0.46663,0.62214 -0.34381,0.45989 -0.65733,0.94395 -1.03046,1.38038 -1.45608,1.70311 -3.09776,3.23869 -4.49126,4.99658 -0.18681,0.23565 -0.36312,0.47944 -0.5444,0.71936 -0.0531,0.0703 -0.08,0.1685 -0.15555,0.21386 -0.0167,0.01 -0.0565,-0.0193 -0.0583,0 -0.0129,0.13564 -0.0637,0.30034 0.0195,0.40828 0.06,0.0779 0.19667,0 0.295,0"
       id="path14" />
    <path
       style="fill:none;stroke:#000000;stroke-width:0.3"
       d="m 99.272343,221.04857 c 0.03888,0.48605 0.08935,0.97131 0.116649,1.45815 0.05611,1.00059 -0.02167,2.01131 0,3.0135 0.03219,1.48847 0.06455,2.95623 0.233312,4.43277 0.0051,0.0447 0.09899,0.86464 0.136099,0.89433 0.02088,0.0167 0.05486,0.006 0.07778,0.0195 0.152495,0.0915 0.190327,0.32125 0.213877,0.48604 0.009,0.0642 -0.005,0.12981 0,0.19442 0.0332,0.4319 0.20269,0.86778 0.36941,1.26373 0.021,0.0498 0.12031,0.26126 0.17497,0.27219 0.0229,0.005 0.0359,-0.0325 0.0583,-0.0389 0.0697,-0.0199 0.1424,-0.027 0.21387,-0.0389 0.26997,-0.045 1.03172,-0.15922 1.16657,-0.17498 1.43061,-0.16721 2.87686,-0.31455 4.31628,-0.38884 0.81027,-0.0418 2.0636,-0.10735 2.93585,0 2.60382,0.32046 0.46927,0.14398 2.06093,0.38884 0.28366,0.0436 0.5701,0.0669 0.85548,0.0972 0.0387,0.004 0.0892,0.0275 0.11666,0 0.0643,-0.0643 0.0173,-0.18125 0.0195,-0.27219 0.005,-0.2139 -0.005,-0.42905 0.0194,-0.64158 0.0274,-0.23609 0.0884,-0.46707 0.1361,-0.69991 0.35712,-1.74349 0.54486,-3.47603 0.73882,-5.24933 0.072,-0.658 0.11589,-1.05474 0.1361,-1.69145 0.0158,-0.49645 -0.031,-1.00087 0,-1.49703 0.0132,-0.21064 0.0545,-0.4127 0.0778,-0.62214 0.0408,-0.36722 0.0778,-0.71912 0.0778,-1.08875 0,-0.12313 0,-0.24626 0,-0.36939 0,-0.0454 0.0321,-0.16818 0,-0.1361 -0.15024,0.15023 -0.01,0.10427 -0.1361,0.19442 -0.64938,0.4638 -2.17041,0.33582 -2.87753,0.34996 -0.7222,0.0144 -0.70627,0.0121 -1.38043,0.0583 -0.26581,0.0182 -0.53115,0.0735 -0.79715,0.0583 -0.5345,-0.0304 -1.06468,-0.11613 -1.5943,-0.19442 -0.69257,-0.10238 -0.50565,-0.1605 -1.12768,-0.19442 -0.39559,-0.0216 -0.63161,0.007 -1.01102,0.0194 -0.2527,0.008 -0.50546,0.0155 -0.75826,0.0195 -0.16201,0.003 -0.33421,-0.0565 -0.48608,0 -0.0935,0.0348 -1.07409,0.61029 -1.41932,0.75824 -0.52543,0.22517 -1.0872,0.25514 -1.65262,0.29162 -0.17474,0.0113 -0.349891,0.0231 -0.524961,0.0195 -0.182324,-0.004 -0.521639,-0.0451 -0.524949,-0.0583 -0.01111,-0.0445 0.01754,-0.0903 0.01945,-0.1361 0.01106,-0.26555 0.01296,-0.53141 0.01945,-0.79712 z"
       id="path16" />
    <path
       style="fill:none;stroke:#000000;stroke-width:0.3"
       d="m 87.178964,225.75354 c 1.035682,0.45306 0.5179,0.29599 2.138703,0.46659 1.176605,0.12385 2.344238,-0.13816 3.519131,-0.0583 0.397012,0.027 0.794755,0.0635 1.186008,0.13609 0.239866,0.0445 0.46261,0.15736 0.699936,0.21386 0.67445,0.16058 1.428867,0.32638 2.138696,0.36939 0.431144,0.0261 0.853236,-0.087 1.283221,-0.0972 0.226767,-0.005 0.454166,-0.0151 0.680498,0 0.09505,0.006 0.15108,0.0389 0.252749,0.0389 0.25029,0 0.491143,-0.0389 0.738825,-0.0389 0.04536,0 0.130468,-0.045 0.136099,0 0.0066,0.053 -0.01712,0.20433 -0.03888,0.15553 -0.205526,-0.46064 -0.349975,-0.94617 -0.52496,-1.41926"
       id="path17" />
    <path
       style="fill:none;stroke:#000000;stroke-width:0.3"
       d="m 113.23223,226.06461 c 0.55087,-0.0195 1.10143,-0.0645 1.65261,-0.0583 0.0367,5.3e-4 0.11441,0.0765 0.0778,0.0778 -0.57647,0.0204 -1.15359,-0.0129 -1.73038,-0.0194"
       id="path18" />
    <path
       style="fill:none;stroke:#000000;stroke-width:0.3"
       d="m 113.23223,226.06471 c -1e-5,0.0583 -0.0515,0.14744 -2e-5,0.17486 0.42521,0.22672 2.17926,0.69036 2.66365,0.79712 1.25366,0.27631 2.50352,0.57961 3.77189,0.77769 2.44513,0.38184 3.91778,0.45567 6.22167,0.50548 3.70095,0.08 -2.19284,-0.28023 5.61895,0.19442 2.30217,0.13989 4.59971,0.3509 6.90217,0.48605 1.98271,0.11638 3.96676,0.002 5.94947,0.0583 0.75217,0.0214 1.50462,0.0459 2.25535,0.0972 2.05208,0.1404 0.82718,0.19161 2.89696,0.25274 1.04953,0.031 2.10008,0.0121 3.14972,0.0389 0.47366,0.0121 0.94766,0.0327 1.41932,0.0778 1.5031,0.14377 0.16105,0.12198 1.49709,0.23331 0.8696,0.0725 1.73534,0.008 2.60532,0.0389 0.7202,0.0254 1.41605,0.19321 2.1387,0.21386 0.1571,0.005 1.21527,-0.0568 1.26379,-0.0583 0.64237,-0.0204 1.30796,0.0702 1.94427,-0.0389 0.31945,-0.0548 0.63204,-0.14726 0.9527,-0.19442 0.12182,-0.0179 0.24627,0 0.3694,0 0.46662,0 0.93325,0 1.39987,0 0.28517,0 0.5743,-0.0474 0.8555,0 1.07806,0.18184 0.90404,0.26821 1.73039,0.3694 0.4848,0.0594 0.99258,0.004 1.47765,0.0194 0.9959,0.0316 0.0401,0.0772 1.34155,0.0583 0.46228,-0.007 0.55339,-0.0429 0.99157,-0.1361 0.0384,-0.008 0.59053,-0.16162 0.71938,-0.0972 0.10255,0.0513 0.15554,0.16849 0.23332,0.25274"
       id="path19" />
    <path
       style="fill:none;stroke:#000000;stroke-width:0.3"
       d="m 100.72835,243.48459 c 1.56957,-0.0571 3.14425,0.004 4.70733,0.15553 0.42246,0.0409 0.85548,0.0396 1.26378,0.15554 0.13673,0.0388 0.23116,0.17409 0.31109,0.29163 0.0366,0.0538 0.0816,0.17508 0.0195,0.19442 -0.20523,0.0638 -0.42984,0 -0.64476,0"
       id="path20" />
    <path
       style="fill:none;stroke:#000000;stroke-width:0.3"
       d="m 100.72289,247.66461 c 0.51455,0 1.02938,-0.0174 1.54363,0 3.8042,0.12903 -0.70369,0.0736 2.29424,0.13609 0.6609,0.0138 1.32215,-0.008 1.98315,0 0.18157,0.002 0.36458,-0.006 0.5444,0.0194 0.19147,0.0269 0.37491,0.095 0.56384,0.1361 0.54317,0.11808 1.07609,0.25274 1.63319,0.25274 0.25924,0 0.50825,0.0813 0.23331,-0.27218"
       id="path21" />
    <path
       style="fill:none;stroke:#000000;stroke-width:0.3"
       d="m 59.861944,265.74562 c 0.52737,-0.0892 1.02331,-0.37665 1.555416,-0.44717 1.860521,-0.24656 3.748932,-0.0586 5.618943,-0.0972 1.524625,-0.0314 0.268349,-0.0227 2.85808,-0.15554 0.479721,-0.0246 2.017699,-0.0271 2.33313,-0.0194 1.439111,0.0348 2.874224,0.22622 4.316288,0.1361 1.502659,-0.0939 2.983391,-0.279 4.491265,-0.31108 0.336992,-0.007 0.673957,0.0174 1.011021,0.0194 0.706405,0.004 1.412838,0 2.119257,0 0.361666,0 1.474216,-0.006 1.80817,0.0194 0.695817,0.0526 1.3843,0.18418 2.080371,0.23331 0.697077,0.0492 1.401157,0.0481 2.099818,0.0389 0.499152,-0.007 1.002906,0.0317 1.497087,-0.0389 0.662315,-0.0946 1.255728,-0.36944 1.905391,-0.48605 0.341022,-0.0612 0.686877,-0.0915 1.030462,-0.1361 0.357598,-0.0464 0.727327,-0.0986 1.088795,-0.11665 0.25971,-0.013 0.517657,0.001 0.7777,-0.0194 0.05119,-0.004 0.588754,-0.0614 0.583285,-0.0778 -0.0092,-0.0275 -0.05066,-0.0491 -0.07777,-0.0389 -0.222298,0.0841 -0.427734,0.20738 -0.641599,0.31107 0.07129,-0.3629 0.138245,-0.72667 0.21386,-1.0887 0.138259,-0.66194 0.303965,-1.31827 0.427737,-1.98307 0.193804,-1.04096 0.307292,-2.07972 0.408298,-3.13016 0.03142,-0.32673 0.04559,-0.46729 0.1361,-0.73879 0.02183,-0.0655 -0.0045,-0.24659 0,-0.29163 0.02411,-0.24109 0.07777,-0.45796 0.07777,-0.69991 0,-0.12004 -0.03055,-0.49875 0,-0.52494 0.231908,-0.19877 1.635997,0.12867 1.924831,0.15554 0.148559,0.0138 0.298118,0.013 0.447176,0.0194 0.278684,0.0259 0.557784,0.0477 0.836044,0.0778 0.88692,0.0959 1.77208,0.20322 2.66365,0.25274 0.63973,0.0355 1.2662,0.0264 1.90539,0.0389 0.67775,0.0133 0.0613,0.0192 0.73882,0.0583 1.13235,0.0653 2.26842,0.0972 3.40247,0.0972 0.67478,0 1.34736,-0.007 2.02205,-0.0195 0.36995,-0.007 0.72597,-0.0183 1.08879,-0.0972 0.33297,-0.0724 0.60511,-0.0964 0.9527,-0.1361 0.17298,-0.0198 0.23831,-0.0633 0.34996,-0.17498 0.0165,-0.0165 0.0813,-0.0349 0.0583,-0.0389 -0.0923,-0.0161 -0.18744,0 -0.28115,0"
       id="path22" />
    <path
       style="fill:none;stroke:#000000;stroke-width:0.3"
       d="m 111.39686,253.24444 c 0.31366,0.33052 0.62988,0.65863 0.94099,0.99155 0.39142,0.41886 0.76586,0.85373 1.16656,1.26372 0.5376,0.55009 1.21755,0.95888 1.71095,1.55536 0.29494,0.35655 0.55592,0.73989 0.83605,1.10819 0.21176,0.27841 0.4881,0.63114 0.79715,0.81657 0.0988,0.0592 0.26389,0.15271 0.2722,0.13609 0.0641,-0.12827 -0.30107,-0.66462 -0.31109,-0.68047"
       id="path23" />
    <path
       style="fill:none;stroke:#000000;stroke-width:0.3"
       d="m 119.15309,253.14118 c -0.47006,0.0604 -0.95514,0.0486 -1.41017,0.18104 -0.11574,0.0337 -0.13633,0.19932 -0.21386,0.29163 -0.0589,0.0702 -0.12814,0.13113 -0.19444,0.19441 -0.26031,0.24846 -0.3344,0.28729 -0.62216,0.58326 -0.4576,0.47065 -0.82709,1.0045 -1.32211,1.43871 -0.26583,0.23317 -0.51259,0.49 -0.79715,0.69991 -0.30341,0.22382 -0.66251,0.12717 -0.93324,0.36939 -0.28534,0.25529 -0.4819,0.63671 -0.6805,0.95266 -0.1053,0.1675 -0.19372,0.34622 -0.31109,0.50549 -0.11527,0.15643 -0.53322,0.26794 -0.73882,0.52493 -0.0835,0.10433 -0.35566,0.28844 -0.36941,0.15554 -0.0774,-0.74791 -0.0259,-1.50357 -0.0389,-2.25536"
       id="path24" />
    <path
       style="fill:none;stroke:#000000;stroke-width:0.3"
       d="m 114.5932,256.53014 c 1.25493,-0.99652 0.45428,-0.56769 3.03307,-0.66103 0.64122,-0.0232 1.28337,-0.0348 1.92483,-0.0195 1.98796,0.0476 3.96512,0.5724 5.93002,0.77768 0.63199,0.066 1.2703,0.0376 1.90539,0.0583 1.06936,0.0349 2.13861,0.0638 3.20805,0.0972 0.91836,0.0287 1.82773,0.009 2.74143,-0.0778 0.2974,-0.0283 0.49352,-0.0392 0.7777,-0.11665 0.24973,-0.0681 0.53679,0.0232 0.77771,-0.0972 0.44607,-0.22305 0.94266,-0.33386 1.43875,-0.40828 0.13945,-0.0209 0.21105,-0.0346 0.29165,-0.15553 0.08,-0.12007 0.1084,-0.21507 0.11665,-0.17498 0.0243,0.11787 0,0.24069 0,0.36104 0.31781,2.13012 0.32862,0.90162 0.0778,2.24429 -0.0675,0.36133 -0.12939,0.72402 -0.17499,1.08875 -0.0322,0.25795 -0.0436,0.51814 -0.0583,0.77768 -0.10029,1.76747 -0.14788,3.53867 -0.19443,5.30765 -0.003,0.11985 -0.0237,0.79712 0.0778,0.79712 0.0705,0 -0.001,-0.11706 0.0972,-0.0778 0.0716,0.0286 0.0601,0.18802 0.0778,0.25274 0.15257,0.55942 0.211,1.16977 0.23332,1.74978 0.0112,0.29138 0.0466,0.58394 0.0778,0.87488 0.0132,0.12311 0.10756,0.47243 0.0389,0.3694 -0.0501,-0.0751 -0.0648,-0.1685 -0.0972,-0.25275"
       id="path25" />
    <path
       style="fill:none;stroke:#000000;stroke-width:0.3"
       d="m 97.036423,264.28744 c -0.22035,0.39533 -0.460552,0.78023 -0.661048,1.18599 -0.110464,0.22356 -0.317905,1.08856 -0.349973,1.22485 -0.163409,0.69446 -0.2722,1.33134 -0.2722,2.0414 0,0.0538 -0.0449,1.01393 0,1.08875 0.01201,0.02 0.03645,0.0307 0.05833,0.0389 0.912958,0.34234 1.946735,0.27296 2.896957,0.25275 0.564402,-0.012 1.126826,-0.0264 1.691521,-0.0195 0.33705,0.004 0.67451,1.1e-4 1.01102,0.0195 0.53308,0.0306 1.06147,0.12093 1.59431,0.15553 0.66739,0.0433 1.35424,0.0583 2.02203,0.0583 0.916,0 1.8061,-0.24342 2.722,-0.29163 0.55662,-0.0293 1.11469,-0.0155 1.67207,-0.0194 1.53358,-0.0109 3.07716,0.0632 4.60792,-0.0389 0.2889,-0.0193 0.26528,-0.002 0.50551,-0.0583 0.0459,-0.0108 0.0923,-0.0213 0.1361,-0.0389 0.0217,-0.009 0.067,-0.0606 0.0583,-0.0389 -0.0721,0.18031 -0.10038,0.64534 -0.25276,0.52493 -0.18479,-0.14603 0.0156,-0.4708 0.0234,-0.70619"
       id="path26" />
    <path
       style="fill:none;stroke:#000000;stroke-width:0.3"
       d="m 114.49993,269.66662 c 0.21256,-0.47748 1.11515,-1.21987 0.63767,-1.43242 -0.47747,-0.21256 -0.69678,0.91312 -0.63767,1.43242 0.0498,0.4378 0.61268,0.63361 0.90987,0.95893 0.0138,0.0151 0.007,0.0421 0.0194,0.0583 0.0338,0.0434 0.16894,0.13371 0.11666,0.11665 -0.36495,-0.11916 -0.7129,-0.28515 -1.06936,-0.42772"
       id="path27" />
    <path
       style="fill:none;stroke:#000000;stroke-width:0.3"
       d="m 119.17221,268.06225 c -0.38239,1.11767 -0.39566,2.27403 -0.41827,3.43819 -0.006,0.33045 0,0.66103 0,0.99154 0,0.0713 0.0188,0.14509 0,0.21386 -0.005,0.0188 -0.0778,0 -0.0583,0 0.15887,0 0.31773,0 0.4766,0"
       id="path28" />
    <path
       style="fill:none;stroke:#000000;stroke-width:0.3"
       d="m 118.75394,271.50044 c 0.22035,-0.22034 0.37495,-0.53755 0.66106,-0.66103 0.36535,-0.15767 0.7928,-0.0749 1.186,-0.13609 0.40703,-0.0633 0.79899,-0.20524 1.20544,-0.27219 1.10852,-0.18256 1.34513,-0.15383 2.60533,-0.2333 0.82486,-0.052 1.64362,-0.20828 2.46923,-0.2333 0.55192,-0.0167 1.10105,-8e-4 1.65263,-0.0389 0.69198,-0.0477 1.36988,-0.22203 2.06093,-0.25274 0.82349,-0.0366 1.66425,-0.009 2.48867,-0.0195 0.48134,-0.006 1.21977,0.0743 1.69152,-0.0389 0.14091,-0.0338 0.25176,-0.14743 0.38885,-0.19443 0.14572,-0.05 0.29655,-0.0844 0.44718,-0.11665 0.45856,-0.0983 0.95345,-0.0756 1.41932,-0.0583 0.17534,0.006 0.34979,0.0286 0.52495,0.0389 0.0194,10e-4 0.0765,-0.007 0.0583,0 -0.205,0.0778 -0.41469,0.14255 -0.62203,0.21382"
       id="path29" />
    <path
       style="fill:none;stroke:#000000;stroke-width:0.3"
       d="m 136.58296,260.22411 c 0.45365,0.82304 0.58323,1.94154 1.36095,2.46913 0.69319,0.47024 1.67105,0.1243 2.50811,0.15553 1.48007,0.0552 3.04026,0.0433 4.53016,0.0194 0.60278,-0.01 1.20688,0.005 1.80817,-0.0389 4.83189,-0.34953 0.88094,-0.15791 4.56904,-0.56382 1.45575,-0.16022 2.91382,-0.3036 4.37461,-0.40828 0.53011,-0.038 1.06284,-0.0164 1.5943,-0.0194 1.4645,-0.008 2.91095,0.01 4.37461,-0.0583 0.87682,-0.0408 1.74922,-0.19708 2.62477,-0.2333 0.68651,-0.0284 1.37384,-0.0434 2.06092,-0.0389 1.07894,0.007 2.14894,0.21618 3.2275,0.25274 0.777,0.0595 1.55578,-0.005 2.33313,0.0195 0.54381,0.0172 1.39935,0.10372 1.92483,0.15553 0.11681,0.0115 0.23268,0.0344 0.34997,0.0389 0.0522,0.002 0.15553,-0.0717 0.15553,-0.0194 0,0.0554 -0.10369,0.0389 -0.15553,0.0583"
       id="path30" />
    <text
       xml:space="preserve"
       style="font-size:3.175px;fill:none;stroke:#000000;stroke-width:0.3"
       x="80.521637"
       y="270.54242"
       id="text30"><tspan
         sodipodi:role="line"
         id="tspan30"
         style="stroke-width:0.3"
         x="80.521637"
         y="270.54242">$N_1 2e$</tspan></text>
    <text
       xml:space="preserve"
       style="font-size:3.175px;fill:none;stroke:#000000;stroke-width:0.3"
       x="141.13477"
       y="268.0137"
       id="text31"><tspan
         sodipodi:role="line"
         id="tspan31"
         style="stroke-width:0.3"
         x="141.13477"
         y="268.0137">$N_2 2 e$</tspan></text>
  </g>
</svg>
