<?xml version="1.0" encoding="UTF-8" standalone="no"?>
<!-- Created with Inkscape (http://www.inkscape.org/) -->

<svg
   width="210mm"
   height="297mm"
   viewBox="0 0 210 297"
   version="1.1"
   id="svg5"
   inkscape:version="1.1.1 (3bf5ae0d25, 2021-09-20)"
   sodipodi:docname="cycloide.svg"
   xmlns:inkscape="http://www.inkscape.org/namespaces/inkscape"
   xmlns:sodipodi="http://sodipodi.sourceforge.net/DTD/sodipodi-0.dtd"
   xmlns="http://www.w3.org/2000/svg"
   xmlns:svg="http://www.w3.org/2000/svg">
  <sodipodi:namedview
     id="namedview7"
     pagecolor="#ffffff"
     bordercolor="#666666"
     borderopacity="1.0"
     inkscape:pageshadow="2"
     inkscape:pageopacity="0.0"
     inkscape:pagecheckerboard="0"
     inkscape:document-units="mm"
     showgrid="false"
     inkscape:zoom="1.2810466"
     inkscape:cx="464.85429"
     inkscape:cy="424.26248"
     inkscape:window-width="1920"
     inkscape:window-height="991"
     inkscape:window-x="1911"
     inkscape:window-y="-9"
     inkscape:window-maximized="1"
     inkscape:current-layer="layer1" />
  <defs
     id="defs2" />
  <g
     inkscape:label="Layer 1"
     inkscape:groupmode="layer"
     id="layer1">
    <path
       style="fill:none;stroke:#000000;stroke-width:0.264583px;stroke-linecap:butt;stroke-linejoin:miter;stroke-opacity:1"
       d="m 24.838583,57.708222 c 0.102728,7.46048 -1.325463,14.824099 -2.081761,22.229159 -0.26162,2.561572 -0.557255,5.124241 -0.421309,7.707099 0.256711,4.877268 1.412624,9.623708 1.412624,14.52206"
       id="path49" />
    <path
       style="fill:none;stroke:#000000;stroke-width:0.264583px;stroke-linecap:butt;stroke-linejoin:miter;stroke-opacity:1"
       d="m 17.378939,60.48377 c 1.647533,-0.406463 6.840962,-5.909982 7.955302,-5.352841 0.447751,0.223864 0.469959,1.002322 0.495657,1.387774 0.0806,1.208929 -0.0806,2.433977 0,3.642905 0.107278,1.609085 0.530479,3.222035 0.991316,4.758082"
       id="path51" />
    <path
       style="fill:none;stroke:#000000;stroke-width:0.264583px;stroke-linecap:butt;stroke-linejoin:miter;stroke-opacity:1"
       d="m 23.748137,102.16654 c -0.42957,-0.0909 -1.197843,-0.70217 -1.28871,-0.2726 -0.09087,0.42957 0.852442,0.22303 1.28871,0.2726 0.657471,0.0747 1.321157,0.0817 1.98263,0.0991 3.681935,0.0969 7.373301,-0.0287 11.053161,-0.0991 0.825944,-0.0158 1.652328,-0.015 2.478288,0 0.991701,0.018 1.982793,0.0615 2.973946,0.0991 16.97278,0.64451 33.971817,0.77201 50.953587,1.0904"
       id="path53" />
    <path
       style="fill:none;stroke:#000000;stroke-width:0.264583px;stroke-linecap:butt;stroke-linejoin:miter;stroke-opacity:1"
       d="m 93.189747,103.35604 c 2.494811,0.0991 4.992224,0.14636 7.484433,0.2974 6.30644,0.3822 12.58878,1.03414 18.90933,1.28865 5.63072,0.22673 11.27287,0.22759 16.90192,0.49563 5.08331,0.24205 10.14347,0.82058 15.21668,1.18952 3.28357,0.23879 6.59799,0.47079 9.86359,0.89214 1.10255,0.14226 2.17836,0.49517 3.27134,0.69388 0.33156,0.0603 2.89959,0.36196 2.89959,-0.0991"
       id="path55" />
    <path
       style="fill:none;stroke:#000000;stroke-width:0.264583px;stroke-linecap:butt;stroke-linejoin:miter;stroke-opacity:1"
       d="m 169.71926,102.66217 c 0.72613,2.05095 3.95307,1.5454 4.56005,3.56856 1.28826,4.294 -1.83071,7.55733 -5.55136,8.79749 -0.39545,0.13181 -1.06672,0 -1.48698,0"
       id="path57" />
    <path
       style="fill:none;stroke:#000000;stroke-width:0.264583px;stroke-linecap:butt;stroke-linejoin:miter;stroke-opacity:1"
       d="m 30.117335,78.648734 c -1.988709,-1.239473 -4.565546,-1.573914 -6.765724,-0.693886 -2.69015,1.076007 -4.950955,3.73879 -6.270067,6.244979 -1.76653,3.356245 -2.175599,6.942195 -1.883498,10.680901 0.07235,0.926071 0.06289,1.74204 0.594789,2.552512 1.032914,1.573887 3.118855,2.169832 4.857443,2.57729 1.512474,0.35447 3.432216,0.81605 4.981357,0.39651 4.072265,-1.102852 6.1445,-6.88766 5.87354,-10.680901 -0.162195,-2.270628 -0.826457,-4.184745 -1.784365,-6.220198 -0.903653,-1.920168 -1.697236,-4.159864 -3.296123,-5.625438"
       id="path59" />
    <path
       style="fill:none;stroke:#000000;stroke-width:0.264583px;stroke-linecap:butt;stroke-linejoin:miter;stroke-opacity:1"
       d="m 15.371526,72.230281 c 2.51333,0.03241 4.96115,-0.564716 7.484427,-0.396505 3.961084,0.264057 7.296307,2.908954 9.640539,5.922817 0.638096,0.82037 2.081761,2.363872 2.081761,3.469434"
       id="path61" />
    <path
       style="fill:none;stroke:#000000;stroke-width:0.264583px;stroke-linecap:butt;stroke-linejoin:miter;stroke-opacity:1"
       d="m 34.578253,81.226027 c -0.726964,0.925181 -1.584302,1.761389 -2.180892,2.775548 -0.247632,0.420952 1.308883,4.142062 2.998727,2.84989 1.420492,-1.086204 1.56275,-3.537572 1.685234,-5.129805 0.08024,-1.04313 -0.107077,-0.162497 0.09913,-1.090393 0.05779,-0.260051 0.339572,-0.907711 0.09913,-0.793012 -0.91368,0.435862 -1.800889,0.925179 -2.701332,1.387772"
       id="path63" />
    <path
       style="fill:none;stroke:#000000;stroke-width:0.264583px;stroke-linecap:butt;stroke-linejoin:miter;stroke-opacity:1"
       d="m 23.748137,102.16654 c 0.262129,-1.19796 1.30208,-5.465153 0,0"
       id="path131" />
    <path
       style="fill:none;stroke:#000000;stroke-width:0.264583px;stroke-linecap:butt;stroke-linejoin:miter;stroke-opacity:1"
       d="m 23.748137,102.16654 c 1.178357,6.80597 0.328668,1.18315 0,0"
       id="path133" />
    <path
       style="fill:none;stroke:#fff903;stroke-width:0.264583px;stroke-linecap:butt;stroke-linejoin:miter;stroke-opacity:1"
       d="m 23.748137,102.16654 c 0.297394,0.16521 0.553377,0.46483 0.892183,0.49563 0.086,0.008 0.936183,-1.57461 0.991315,-1.66037 1.147548,-1.784988 3.078797,-3.374414 4.584832,-4.857208 1.825043,-1.796878 3.631903,-3.66567 5.576146,-5.32806 2.483536,-2.123498 5.363731,-3.998706 8.054435,-5.848472 1.53152,-1.052869 3.269592,-1.744577 4.882224,-2.651638 3.331041,-1.87362 6.628728,-3.598799 10.334461,-4.634174 4.873075,-1.361528 9.850149,-0.92574 14.721025,0.198255 1.074674,0.247988 2.177434,0.430427 3.196992,0.867357 2.276544,0.975614 4.519303,2.419921 6.369198,4.064196 1.433912,1.274524 2.712559,3.027484 3.766997,4.634171 0.569643,0.867987 0.874909,1.88994 1.412624,2.775546 0.65001,1.070551 1.5279,2.096518 1.982629,3.271181 1.137769,2.939092 2.280026,6.723676 2.280026,9.863106 0,0.79301 0,1.58603 0,2.37904 0,0.36346 0,0.72693 0,1.09039 0,0.0991 0.09913,0.29738 0,0.29738 -0.720895,0 0.06732,-3.25021 0.123912,-3.56856 0.762021,-4.286153 3.269361,-8.641634 5.749628,-12.143016 6.205526,-8.760322 14.337876,-19.012886 25.972456,-19.775773 6.41305,-0.420507 15.16956,2.417596 19.20672,7.607972 1.20056,1.543505 2.16123,3.49291 2.97395,5.253715 0.49516,1.072793 1.28081,1.991529 1.80915,3.048145 0.37124,0.742448 0.65958,1.521706 0.99131,2.279912 0.3259,0.744869 0.80894,1.367994 1.18958,2.081663 0.94929,1.779841 1.93336,3.661333 2.70133,5.526312 2.06076,5.00445 2.47829,9.64879 2.47829,14.91856 0,-0.72693 0,-1.45385 0,-2.18078 1.33727,-8.43879 5.77417,-16.177381 10.73099,-23.022173 1.8341,-2.532692 4.2045,-6.022387 6.88964,-7.707099 1.05252,-0.660375 7.09007,-3.814208 8.15356,-2.750765"
       id="path135" />
    <path
       style="fill:none;stroke:#000000;stroke-width:0.264583px;stroke-linecap:butt;stroke-linejoin:miter;stroke-opacity:1"
       d="m 21.066759,88.810848 c 0,0.757301 0,1.514604 0,2.271905 0,1.055002 0.264057,2.776474 -0.206537,3.717663 -0.02528,0.05055 -0.413073,2.739668 -0.413073,1.652294"
       id="path2140" />
    <path
       style="fill:none;stroke:#000000;stroke-width:0.264583px;stroke-linecap:butt;stroke-linejoin:miter;stroke-opacity:1"
       d="m 20.447149,96.45271 c -0.619611,-0.06885 -1.418006,-0.647364 -1.858832,-0.206536 -0.351045,0.351046 0.570724,0.813517 0.826147,1.239221 0.06396,0.106603 0.458955,1.812951 1.032685,1.239221 0.716864,-0.716865 0.896548,-1.861164 1.445758,-2.684979 0.137691,-0.206536 0.237551,-0.444087 0.413073,-0.619609 0.04868,-0.04868 0.266719,-0.03343 0.206537,0 -0.672854,0.373806 -1.376912,0.688454 -2.065368,1.032682"
       id="path2142" />
    <path
       style="fill:none;stroke:#000000;stroke-width:0.264583px;stroke-linecap:butt;stroke-linejoin:miter;stroke-opacity:1"
       d="m 20.447149,96.45271 c -1.10153,-1.101529 -2.464853,-1.9925 -3.30459,-3.304588 -0.334004,-0.52188 0,-1.239221 0,-1.858832 0,-0.04973 -0.06234,-1.114542 0,-1.239221 0.298008,-0.596017 3.257591,-1.048761 3.9242,-1.239221"
       id="path2144" />
    <path
       style="fill:none;stroke:#000000;stroke-width:0.264583px;stroke-linecap:butt;stroke-linejoin:miter;stroke-opacity:1"
       d="m 57.874153,80.036508 c -6.125892,-4.655191 -10.18219,2.225095 -12.441002,7.508845 -1.341755,3.138599 -2.774799,6.819376 -2.08176,10.284391 0.454377,2.271786 2.379081,4.201326 3.89091,5.823696 0.932452,1.00063 1.842063,2.11272 3.073077,2.77555 1.094036,0.58906 2.273281,0.83854 3.469603,1.09039 4.302765,0.9058 7.616145,0.17373 11.449687,-1.98253 4.28253,-2.40881 6.9415,-6.066662 8.054433,-10.780032 0.326956,-1.384689 0.473525,-2.917478 0.223046,-4.336791 C 72.384416,84.029859 66.966348,78.682418 60.550705,77.880503"
       id="path2148" />
    <path
       style="fill:none;stroke:#000000;stroke-width:0.264583px;stroke-linecap:butt;stroke-linejoin:miter;stroke-opacity:1"
       d="m 48.927538,76.492729 c 0.476139,3.536153 3.171058,6.053828 5.080487,8.89662 1.463709,2.17919 2.59121,4.647961 4.460917,6.517579 0.239568,0.421288 0.565441,0.804097 0.718705,1.263865 0.04595,0.13783 -0.767009,4.450621 -0.817835,4.857207"
       id="path2150" />
    <path
       style="fill:none;stroke:#000000;stroke-width:0.264583px;stroke-linecap:butt;stroke-linejoin:miter;stroke-opacity:1"
       d="m 58.36981,98.027999 c -0.120475,2.422301 -1.189577,4.700231 -1.189577,7.112341"
       id="path2152" />
    <path
       style="fill:none;stroke:#000000;stroke-width:0.264583px;stroke-linecap:butt;stroke-linejoin:miter;stroke-opacity:1"
       d="m 53.487587,87.347098 c -1.685846,3.660826 -1.523768,8.183174 0.817832,11.473913 0.451392,0.634357 0.900221,1.264229 1.486974,1.784279 0.370925,0.32876 1.09465,0.40567 1.189577,0.89214 0.232908,1.19359 0.132176,2.42861 0.198263,3.64291"
       id="path2154" />
    <path
       style="fill:none;stroke:#000000;stroke-width:0.264583px;stroke-linecap:butt;stroke-linejoin:miter;stroke-opacity:1"
       d="m 45.631414,91.807801 c 0.142582,2.143184 0.869956,4.148752 1.38784,6.220198"
       id="path2156" />
    <path
       style="fill:none;stroke:#000000;stroke-width:0.264583px;stroke-linecap:butt;stroke-linejoin:miter;stroke-opacity:1"
       d="m 41.740502,94.385094 c 1.353037,0.967396 2.710947,0.701075 4.188307,0.173472 0.265879,-0.09495 0.519154,-0.22891 0.793051,-0.297381 0.225687,-0.05642 0.788405,0.138234 0.69392,-0.07435 -0.402614,-0.905838 -1.189577,-1.586026 -1.784366,-2.37904"
       id="path2158" />
    <path
       style="fill:none;stroke:#000000;stroke-width:0.264583px;stroke-linecap:butt;stroke-linejoin:miter;stroke-opacity:1"
       d="m 25.829898,108.60977 c -0.45157,2.69095 -0.887714,5.38697 -1.189578,8.10361 -0.05825,0.52427 0.02965,0.9718 -0.09913,1.4869"
       id="path2160" />
    <path
       style="fill:none;stroke:#000000;stroke-width:0.264583px;stroke-linecap:butt;stroke-linejoin:miter;stroke-opacity:1"
       d="m 24.54119,118.20028 c -0.363483,-0.8591 -0.914277,-1.66125 -1.090447,-2.5773 -0.0044,-0.0228 0.839839,0.0532 1.982629,-0.0991 1.643665,-0.21915 3.324518,-0.42661 4.981358,-0.49564 5.313973,-0.2214 10.685454,-0.61834 16.009736,-0.3965 4.619834,0.19248 9.196604,0.3965 13.828844,0.3965"
       id="path2162" />
    <path
       style="fill:none;stroke:#000000;stroke-width:0.264583px;stroke-linecap:butt;stroke-linejoin:miter;stroke-opacity:1"
       d="m 62.06246,108.01501 c -0.360762,0.68329 -0.650206,1.3942 -0.793052,2.15601 -0.300535,1.60277 -0.239628,3.24347 -0.396525,4.8572 -0.271968,2.79725 -0.693923,5.58777 -0.693923,8.40099"
       id="path2164" />
    <path
       style="fill:none;stroke:#000000;stroke-width:0.264583px;stroke-linecap:butt;stroke-linejoin:miter;stroke-opacity:1"
       d="m 37.477848,119.16676 c 0.02045,3.6731 0.49566,7.29842 0.49566,10.97828"
       id="path2166" />
    <path
       style="fill:none;stroke:#000000;stroke-width:0.264583px;stroke-linecap:butt;stroke-linejoin:miter;stroke-opacity:1"
       d="m 32.000835,122.43794 c 2.038086,-0.004 4.039759,-0.59476 6.071804,-0.59476 0.587102,0 1.105172,0.002 1.685234,0.0991 0.198263,0.033 0.722374,0.25444 0.594789,0.0991 -0.860203,-1.04716 -1.916544,-1.91646 -2.874814,-2.87468"
       id="path2168" />
    <path
       style="fill:none;stroke:#000000;stroke-width:0.264583px;stroke-linecap:butt;stroke-linejoin:miter;stroke-opacity:1"
       d="m 45.631414,123.82572 c -0.09851,0.49019 -0.157533,1.31477 -0.09913,1.38777 -0.165219,0.46259 -0.330439,0.92518 -0.495658,1.38777"
       id="path2170" />
    <path
       style="fill:none;stroke:#000000;stroke-width:0.264583px;stroke-linecap:butt;stroke-linejoin:miter;stroke-opacity:1"
       d="m 49.621458,130.54155 c -0.109591,-1.41422 0.113779,-2.76281 0.371742,-4.13854 0.05766,-0.11182 0.693102,-1.56042 1.11523,-1.98253 1.116645,-1.11659 3.234818,-2.82495 4.981358,-2.37904 1.394679,0.35607 2.717771,0.95053 4.089172,1.38777"
       id="path2172" />
    <path
       style="fill:none;stroke:#000000;stroke-width:0.264583px;stroke-linecap:butt;stroke-linejoin:miter;stroke-opacity:1"
       d="m 51.405824,111.9553 c -0.35324,0.072 0.41919,1.27731 0,1.4869 -0.421624,0.2108 -1.594215,-0.3009 -1.982629,-0.39651 -3.24634,-0.79906 -6.001194,-2.02171 -8.17835,-4.63417 -3.232039,-3.87826 -3.0445,-9.123985 -2.577417,-13.852954 0.475067,-4.809829 1.304329,-10.397612 4.584829,-14.224677 1.610617,-1.87896 3.669385,-2.606823 5.675281,-3.84116"
       id="path2174" />
    <path
       style="fill:none;stroke:#000000;stroke-width:0.264583px;stroke-linecap:butt;stroke-linejoin:miter;stroke-opacity:1"
       d="m 45.135757,69.652988 c 1.18454,-0.254106 2.307114,0.01334 3.469603,0.198255 2.524781,0.401648 5.383972,2.257075 4.58483,5.253712 -0.272669,1.022464 -0.839936,1.77846 -1.387841,2.651638 -0.602982,0.960959 -1.169736,2.069756 -2.180891,2.676422 -0.06336,0.03801 -0.185449,0.171894 -0.198263,0.09913 -0.235283,-1.336011 -0.330438,-2.692942 -0.495657,-4.039412"
       id="path2176" />
    <path
       style="fill:none;stroke:#000000;stroke-width:0.264583px;stroke-linecap:butt;stroke-linejoin:miter;stroke-opacity:1"
       d="m 34.404773,62.268052 c -0.0084,2.971813 1.0457,5.81819 1.759583,8.673584"
       id="path2178" />
    <path
       style="fill:none;stroke:#000000;stroke-width:0.264583px;stroke-linecap:butt;stroke-linejoin:miter;stroke-opacity:1"
       d="m 30.612992,68.959102 c 3.295444,0.21721 6.471478,-0.300493 9.640539,-1.164738"
       id="path2180" />
    <path
       style="fill:none;stroke:#000000;stroke-width:0.264583px;stroke-linecap:butt;stroke-linejoin:miter;stroke-opacity:1"
       d="m 51.306692,53.94141 c -0.0055,1.022096 0.07142,2.058252 0.198263,3.072927 0.150686,1.205426 1.061503,5.514017 0.594789,6.914086 -0.142425,0.427257 -0.396526,0.843243 -0.396526,1.288645"
       id="path2182" />
    <path
       style="fill:none;stroke:#000000;stroke-width:0.264583px;stroke-linecap:butt;stroke-linejoin:miter;stroke-opacity:1"
       d="m 51.703218,65.217068 c 3.04019,-0.744886 -0.51213,-2.197552 -0.297394,-3.271178 0.249859,-1.249231 2.075042,-4.105971 3.469603,-4.535046 0.283935,-0.08736 0.69977,0.195175 0.916966,0.297378"
       id="path2184" />
  </g>
</svg>
