<?xml version="1.0" encoding="UTF-8" standalone="no"?>
<!-- Created with Inkscape (http://www.inkscape.org/) -->

<svg
   width="240mm"
   height="120mm"
   viewBox="0 0 240 120"
   version="1.1"
   id="svg8"
   inkscape:version="1.2.1 (9c6d41e410, 2022-07-14, custom)"
   sodipodi:docname="difféomorphisme.svg"
   xmlns:inkscape="http://www.inkscape.org/namespaces/inkscape"
   xmlns:sodipodi="http://sodipodi.sourceforge.net/DTD/sodipodi-0.dtd"
   xmlns="http://www.w3.org/2000/svg"
   xmlns:svg="http://www.w3.org/2000/svg"
   xmlns:rdf="http://www.w3.org/1999/02/22-rdf-syntax-ns#"
   xmlns:cc="http://creativecommons.org/ns#"
   xmlns:dc="http://purl.org/dc/elements/1.1/">
  <defs
     id="defs2" />
  <sodipodi:namedview
     id="base"
     pagecolor="#ffffff"
     bordercolor="#666666"
     borderopacity="1.0"
     inkscape:pageopacity="0.0"
     inkscape:pageshadow="2"
     inkscape:zoom="1.406257"
     inkscape:cx="442.66445"
     inkscape:cy="228.62108"
     inkscape:document-units="mm"
     inkscape:current-layer="layer1"
     showgrid="false"
     showborder="true"
     width="200mm"
     showguides="true"
     inkscape:guide-bbox="true"
     inkscape:window-width="1920"
     inkscape:window-height="1200"
     inkscape:window-x="0"
     inkscape:window-y="0"
     inkscape:window-maximized="1"
     inkscape:showpageshadow="2"
     inkscape:pagecheckerboard="0"
     inkscape:deskcolor="#d1d1d1"
     inkscape:lockguides="true">
    <inkscape:grid
       type="xygrid"
       id="grid815"
       units="mm"
       spacingx="10"
       spacingy="10"
       empspacing="4"
       dotted="false" />
  </sodipodi:namedview>
  <metadata
     id="metadata5">
    <rdf:RDF>
      <cc:Work
         rdf:about="">
        <dc:format>image/svg+xml</dc:format>
        <dc:type
           rdf:resource="http://purl.org/dc/dcmitype/StillImage" />
        <dc:title />
      </cc:Work>
    </rdf:RDF>
  </metadata>
  <g
     inkscape:label="Layer 1"
     inkscape:groupmode="layer"
     id="layer1"
     transform="translate(0,-177)">
    <path
       style="fill:none;stroke:#4d4d4d;stroke-width:0.273768"
       d="m 155.53092,190.07069 0.0772,91.89571"
       id="path250-35" />
    <path
       style="fill:none;stroke:#4d4d4d;stroke-width:0.273768"
       d="m 137.83388,190.07727 0.0772,91.89572"
       id="path250-3-62" />
    <path
       style="fill:none;stroke:#4d4d4d;stroke-width:0.273768"
       d="m 120.13688,190.08387 0.0772,91.89571"
       id="path250-3-6-9" />
    <path
       style="fill:none;stroke:#4d4d4d;stroke-width:0.273768"
       d="m 102.43985,190.09045 0.0772,91.8957"
       id="path250-3-7-1" />
    <path
       style="fill:none;stroke:#4d4d4d;stroke-width:0.273768"
       d="m 84.742836,190.09703 0.0772,91.89572"
       id="path250-3-7-5-2" />
    <path
       style="fill:none;stroke:#4d4d4d;stroke-width:0.273768"
       d="M 166.83759,273.34659 73.273207,273.17974"
       id="path250-35-7" />
    <path
       style="fill:none;stroke:#4d4d4d;stroke-width:0.273768"
       d="M 166.87763,255.96524 73.313227,255.7984"
       id="path250-3-62-0" />
    <path
       style="fill:none;stroke:#4d4d4d;stroke-width:0.273768"
       d="M 166.91763,238.58392 73.353248,238.41708"
       id="path250-3-6-9-9" />
    <path
       style="fill:none;stroke:#4d4d4d;stroke-width:0.273768"
       d="M 166.95765,221.20257 73.39328,221.03573"
       id="path250-3-7-1-3" />
    <path
       style="fill:none;stroke:#4d4d4d;stroke-width:0.273768"
       d="M 166.99767,203.82125 73.433288,203.6544"
       id="path250-3-7-5-2-6" />
    <path
       style="fill:none;stroke:#ff6600;stroke-width:0.3"
       d="m 73.413722,203.84849 c 1.052936,0.91429 2.472619,0.99394 3.754779,0.45151 1.722046,-0.72853 3.048302,-1.96386 4.871696,-2.54269 3.622223,-1.14987 12.068344,-1.31861 15.898394,-0.80796 3.070399,0.40937 5.071869,2.35596 8.317529,2.40011 2.91162,0.0396 5.7975,-0.64569 8.72154,-0.61785 6.7731,0.0645 13.60206,0.61785 20.41361,0.61785 2.74762,0 5.43766,-1.20514 8.19873,-0.99807 1.32035,0.099 2.40127,0.99547 3.75477,1.0456 8.62878,0.31957 12.48466,-3.144 21.15031,0.87924"
       id="path896" />
    <path
       style="fill:none;stroke:#ff6600;stroke-width:0.3"
       d="m 85.248392,189.35278 c -1.229747,5.75755 -2.04578,11.52591 -1.758564,17.44238 0.579993,11.94748 3.215706,23.48286 4.562766,35.33627 0.613376,5.39738 0.201441,10.91207 0.617874,16.32549 0.383098,4.98006 -0.11684,9.58896 -1.140688,14.40067 -0.513128,2.41151 -1.572339,4.71384 -2.210086,7.10527 -0.08836,0.33132 0.187868,0.86845 -0.118821,1.02183 -0.361593,0.18084 -0.03407,-0.80788 -0.04753,-1.21194"
       id="path898" />
    <path
       style="fill:none;stroke:#ff6600;stroke-width:0.3"
       d="m 103.97475,189.51913 c -3.49535,8.31046 -2.8042,18.13535 -2.8042,27.01906 0,3.03264 1.35721,5.86957 1.56845,8.91129 0.37555,5.40785 0.21737,10.84244 0.57034,16.25421 0.41915,6.42654 1.13934,12.69428 0.83176,19.15335 -0.22767,4.78086 -0.7826,9.60065 -0.61788,14.3769 0.0222,0.6443 0.13768,7.56623 0.42776,5.60817"
       id="path900" />
    <path
       style="fill:none;stroke:#ff6600;stroke-width:0.3"
       d="m 121.53663,190.30332 c -2.75961,5.32902 -1.95256,11.87624 -2.16256,17.70378 -0.23272,6.45838 0.13207,12.87566 0.19012,19.31969 0.0371,4.12245 -0.18609,8.23411 -0.0238,12.35701 0.16773,4.26039 0.75311,8.52053 0.90304,12.8085 0.27034,7.73146 0.81928,15.49405 0.45152,23.2169 -0.0484,1.01616 0.29301,5.81376 -0.95057,5.48936"
       id="path902" />
    <path
       style="fill:none;stroke:#ff6600;stroke-width:0.3"
       d="m 139.52629,190.89741 c -0.53124,-2.27638 0.0564,-0.1115 0,0 -0.53582,1.05883 -1.86375,1.41369 -2.37645,3.20806 -1.02397,3.58376 -0.77833,7.53186 -0.83175,11.21636 -0.0449,3.09358 -0.73163,6.31053 -0.47529,9.38656 0.15709,1.88497 0.74817,3.61492 1.16446,5.44184 0.74637,3.27555 0.97593,7.00487 1.4021,10.36087 0.62523,4.92364 -0.34171,9.84441 -0.0713,14.75711 0.14542,2.6419 0.63257,5.24711 0.92681,7.8657 0.43692,3.8885 -0.0399,8.04652 -0.19012,11.95302 -0.23918,6.21883 -0.97201,12.17274 -0.14259,18.39293 0.0739,0.55442 -0.23069,-1.09468 -0.35646,-1.63969"
       id="path904" />
    <path
       style="fill:none;stroke:#ff6600;stroke-width:0.3"
       d="m 158.25263,190.11321 c -0.28517,-0.13466 -0.54077,-0.38431 -0.85553,-0.40398 -0.82054,-0.0513 -1.33603,4.05981 -1.37833,4.44377 -0.68621,6.22862 0.33752,12.43921 0.26142,18.67808 -0.0712,5.83672 -0.39113,11.78234 -0.11884,17.60873 0.1286,2.75162 0.94556,5.41 0.97436,8.17462 0.0872,8.36989 -0.25805,16.73087 -0.35647,25.09423 -0.0826,7.01535 1.07006,15.98356 -1.23575,22.74162"
       id="path906" />
    <path
       style="fill:none;stroke:#ff6600;stroke-width:0.3"
       d="m 73.485022,221.74238 c -0.07129,0.26932 -0.483203,0.73667 -0.213881,0.80796 0.269322,0.0713 -0.0016,-0.6312 0.213881,-0.80796 1.054949,-0.86597 3.591938,-1.6439 4.895456,-2.0199 3.400232,-0.98079 6.764642,-0.56306 10.2187,-0.76043 8.590595,-0.49087 16.805812,1.1011 25.261552,2.06743 1.71435,0.19591 3.44276,-0.33631 5.15688,-0.21387 2.13455,0.15246 4.25782,0.74961 6.39262,0.83172 4.02287,0.15473 8.16557,-0.23218 12.19113,-0.28516 7.2556,-0.0955 14.57004,0.60506 21.81573,0.14258 1.13795,-0.0726 4.91405,-1.11994 4.96675,0.35645"
       id="path908" />
    <path
       style="fill:none;stroke:#ff6600;stroke-width:0.3"
       d="m 74.53065,239.6125 c 4.316196,-1.3636 9.1205,-0.32031 13.593233,-1.04559 6.290884,-1.0201 12.503237,-3.42308 18.940237,-3.06549 2.07825,0.11546 3.97666,1.09599 6.03616,1.28323 1.92838,0.17531 3.84515,-0.53984 5.75098,-0.33268 6.48142,0.70449 10.94603,1.8911 17.63319,1.28322 3.13241,-0.28474 6.4095,0.5252 9.55328,0.64161 5.1541,0.19085 9.40533,-0.19433 14.42499,-0.38021 1.05122,-0.0389 5.81038,-0.24941 5.48957,1.35451"
       id="path910" />
    <path
       style="fill:none;stroke:#ff6600;stroke-width:0.3"
       d="m 73.485022,257.24499 c 0.759024,-2.60488 11.38995,-1.08802 14.092288,-1.4258 3.264188,-0.40802 6.501669,-1.17578 9.814695,-1.52087 3.375885,-0.35163 6.769905,-1.26134 10.171155,-1.35451 9.45239,-0.25892 18.56898,-0.0567 27.89942,1.63967 3.69364,0.67154 7.30076,0.85275 10.97914,1.82979 5.55521,1.47555 10.79586,0.38863 16.32615,-0.33269 1.18794,-0.15495 2.46339,-0.21183 1.7348,1.16441"
       id="path912" />
    <path
       style="fill:none;stroke:#ff6600;stroke-width:0.3"
       d="m 72.059151,274.40221 c 4.66389,-0.56975 9.459626,0.0851 14.139817,-0.42774 7.871624,-0.86262 15.417842,-3.44007 23.384172,-3.80216 6.67847,-0.30355 11.74019,0.79444 18.25106,1.25946 8.16254,0.583 16.51745,0.65224 24.57239,2.16248 3.0712,0.57583 10.31306,-1.58486 11.73961,-0.23763"
       id="path914" />
  </g>
</svg>
