<?xml version="1.0" encoding="UTF-8" standalone="no"?>
<!-- Created with Inkscape (http://www.inkscape.org/) -->

<svg
   width="240mm"
   height="120mm"
   viewBox="0 0 240 120"
   version="1.1"
   id="svg8"
   inkscape:version="1.2.1 (9c6d41e410, 2022-07-14, custom)"
   sodipodi:docname="géodésique-2.svg"
   xmlns:inkscape="http://www.inkscape.org/namespaces/inkscape"
   xmlns:sodipodi="http://sodipodi.sourceforge.net/DTD/sodipodi-0.dtd"
   xmlns="http://www.w3.org/2000/svg"
   xmlns:svg="http://www.w3.org/2000/svg"
   xmlns:rdf="http://www.w3.org/1999/02/22-rdf-syntax-ns#"
   xmlns:cc="http://creativecommons.org/ns#"
   xmlns:dc="http://purl.org/dc/elements/1.1/">
  <defs
     id="defs2">
    <inkscape:path-effect
       effect="bspline"
       id="path-effect5909"
       is_visible="true"
       lpeversion="1"
       weight="33.333333"
       steps="2"
       helper_size="0"
       apply_no_weight="true"
       apply_with_weight="true"
       only_selected="false" />
    <inkscape:path-effect
       effect="bspline"
       id="path-effect928"
       is_visible="true"
       lpeversion="1"
       weight="33.333333"
       steps="2"
       helper_size="0"
       apply_no_weight="true"
       apply_with_weight="true"
       only_selected="false" />
    <inkscape:path-effect
       effect="bspline"
       id="path-effect867"
       is_visible="true"
       lpeversion="1"
       weight="33.333333"
       steps="2"
       helper_size="0"
       apply_no_weight="true"
       apply_with_weight="true"
       only_selected="false" />
    <inkscape:path-effect
       effect="bspline"
       id="path-effect863"
       is_visible="true"
       lpeversion="1"
       weight="33.333333"
       steps="2"
       helper_size="0"
       apply_no_weight="true"
       apply_with_weight="true"
       only_selected="false" />
    <inkscape:path-effect
       effect="bspline"
       id="path-effect859"
       is_visible="true"
       lpeversion="1"
       weight="33.333333"
       steps="2"
       helper_size="0"
       apply_no_weight="true"
       apply_with_weight="true"
       only_selected="false" />
    <inkscape:path-effect
       effect="bspline"
       id="path-effect855"
       is_visible="true"
       lpeversion="1"
       weight="33.333333"
       steps="2"
       helper_size="0"
       apply_no_weight="true"
       apply_with_weight="true"
       only_selected="false" />
    <inkscape:path-effect
       effect="bspline"
       id="path-effect854"
       is_visible="true"
       lpeversion="1"
       weight="33.333333"
       steps="2"
       helper_size="0"
       apply_no_weight="true"
       apply_with_weight="true"
       only_selected="false" />
  </defs>
  <sodipodi:namedview
     id="base"
     pagecolor="#ffffff"
     bordercolor="#666666"
     borderopacity="1.0"
     inkscape:pageopacity="0.0"
     inkscape:pageshadow="2"
     inkscape:zoom="1.406257"
     inkscape:cx="455.4644"
     inkscape:cy="263.46536"
     inkscape:document-units="mm"
     inkscape:current-layer="layer1"
     showgrid="false"
     showborder="true"
     width="200mm"
     showguides="true"
     inkscape:guide-bbox="true"
     inkscape:window-width="1920"
     inkscape:window-height="1200"
     inkscape:window-x="0"
     inkscape:window-y="0"
     inkscape:window-maximized="1"
     inkscape:showpageshadow="2"
     inkscape:pagecheckerboard="0"
     inkscape:deskcolor="#d1d1d1">
    <inkscape:grid
       type="xygrid"
       id="grid815"
       units="mm"
       spacingx="10"
       spacingy="10"
       empspacing="4"
       dotted="false" />
  </sodipodi:namedview>
  <metadata
     id="metadata5">
    <rdf:RDF>
      <cc:Work
         rdf:about="">
        <dc:format>image/svg+xml</dc:format>
        <dc:type
           rdf:resource="http://purl.org/dc/dcmitype/StillImage" />
        <dc:title />
      </cc:Work>
    </rdf:RDF>
  </metadata>
  <g
     inkscape:label="Layer 1"
     inkscape:groupmode="layer"
     id="layer1"
     transform="translate(0,-177)">
    <path
       style="fill:none;stroke:#000000;stroke-width:0.361"
       d="m 21.058936,285.71457 c 1.363859,-0.54711 2.726348,-1.09367 4.321648,-2.69715 1.5953,-1.60348 3.425158,-4.26498 5.89282,-7.32671 2.467661,-3.06174 5.572872,-6.52328 8.808884,-9.87799 3.236013,-3.3547 6.602638,-6.60237 10.531938,-9.77893 3.9293,-3.17655 8.420767,-6.28164 16.968533,-9.98485 8.547766,-3.70322 21.15082,-8.00441 30.586,-9.66735 9.435181,-1.66295 15.701061,-0.68865 24.739321,-0.0274 9.03827,0.66122 20.84917,1.00975 30.88907,-0.1708 10.0399,-1.18056 18.30992,-3.88959 25.38351,-6.73329 7.07358,-2.84369 12.9513,-5.82204 18.14751,-8.92705 5.19621,-3.105 9.71145,-6.33684 13.69195,-9.232 3.98051,-2.89517 7.42634,-5.4537 10.87174,-8.01191"
       id="path852"
       inkscape:path-effect="#path-effect854"
       inkscape:original-d="m 21.058936,285.71457 c 1.365138,-0.54392 2.72763,-1.09047 4.087477,-1.63968 1.832504,-2.65886 3.662359,-5.32037 5.489572,-7.98452 3.107862,-3.4589 6.213075,-6.92044 9.315645,-10.38464 3.369271,-3.24502 6.735895,-6.49269 10.099874,-9.74301 4.494114,-3.10245 8.985583,-6.20754 13.474406,-9.31528 12.6057,-4.29854 25.208753,-8.59973 37.80916,-12.90356 6.26853,0.97695 12.53441,1.95125 18.79764,2.9229 11.81356,0.35118 23.62446,0.69971 35.43273,1.04559 8.27265,-2.70639 16.54267,-5.41542 24.81004,-8.1271 5.88037,-2.97571 11.75809,-5.95406 17.63317,-8.93506 4.51788,-3.22918 9.03312,-6.46101 13.5457,-9.69549 3.44848,-2.55589 6.89432,-5.11442 10.33751,-7.6756" />
    <text
       xml:space="preserve"
       style="font-size:3.175px;fill:none;stroke:#000000;stroke-width:0.361"
       x="19.134016"
       y="291.798"
       id="text910"><tspan
         sodipodi:role="line"
         id="tspan908"
         style="stroke-width:0.361;fill:none"
         x="19.134016"
         y="291.798">A</tspan></text>
    <text
       xml:space="preserve"
       style="font-size:3.175px;fill:none;stroke:#000000;stroke-width:0.361"
       x="226.50217"
       y="198.69278"
       id="text914"><tspan
         sodipodi:role="line"
         id="tspan912"
         style="stroke-width:0.361"
         x="226.50217"
         y="198.69278">B</tspan></text>
    <ellipse
       style="fill:#ff0000;stroke:#000000;stroke-width:0.361"
       id="path968"
       cx="20.856937"
       cy="285.80963"
       rx="1.4139835"
       ry="1.4020436" />
    <ellipse
       style="fill:#ff0000;stroke:#000000;stroke-width:0.361"
       id="path968-3"
       cx="222.00586"
       cy="203.85558"
       rx="1.4139835"
       ry="1.4020436" />
    <text
       xml:space="preserve"
       style="font-size:3.175px;fill:none;stroke:#000000;stroke-width:0.361"
       x="108.51192"
       y="227.06635"
       id="text1236"><tspan
         sodipodi:role="line"
         id="tspan1234"
         style="stroke-width:0.361;fill:none"
         x="108.51192"
         y="227.06635">S=L</tspan></text>
    <path
       style="fill:#ff0000;stroke:#000000;stroke-width:0.361"
       d="m 23.932459,281.08069 c 1.259808,1.00622 2.519318,2.01221 3.778538,3.01796"
       id="path853"
       inkscape:path-effect="#path-effect855"
       inkscape:original-d="m 23.932459,281.08069 c 1.259778,1.00626 2.519291,2.01224 3.778538,3.01796" />
    <path
       style="fill:#ff0000;stroke:#000000;stroke-width:0.361"
       d="m 27.996171,275.71015 c 1.109266,1.15676 2.218267,2.31325 3.327016,3.46947"
       id="path857"
       inkscape:path-effect="#path-effect859"
       inkscape:original-d="m 27.996171,275.71015 c 1.109268,1.15676 2.218274,2.31324 3.327016,3.46947" />
    <path
       style="fill:#ff0000;stroke:#000000;stroke-width:0.361"
       d="m 33.034224,270.17327 c 1.188493,1.11714 2.376711,2.23402 3.564657,3.35065"
       id="path861"
       inkscape:path-effect="#path-effect863"
       inkscape:original-d="m 33.034224,270.17327 c 1.188484,1.11715 2.376704,2.23403 3.564657,3.35065" />
    <path
       style="fill:#ff0000;stroke:#000000;stroke-width:0.361"
       d="m 37.644519,264.54132 c 1.426091,1.82216 2.851955,3.64403 4.277588,5.4656"
       id="path865"
       inkscape:path-effect="#path-effect867"
       inkscape:original-d="m 37.644519,264.54132 c 1.426128,1.82213 2.851989,3.644 4.277588,5.4656" />
    <text
       xml:space="preserve"
       style="font-size:3.175px;fill:none;stroke:#000000;stroke-width:0.361"
       x="29.379526"
       y="268.00986"
       id="text923"><tspan
         sodipodi:role="line"
         id="tspan921"
         style="stroke-width:0.361;fill:none"
         x="29.379526"
         y="268.00986">$\dd S$</tspan></text>
    <path
       style="fill:none;stroke:#4646db;stroke-width:0.261;stroke-dasharray:0.522, 1.044;stroke-dashoffset:0;stroke-opacity:1"
       d="m 21.26888,285.49874 c 1.815292,-0.77682 3.62931,-1.55309 4.484235,-3.45253 0.854924,-1.89944 0.751946,-4.92532 1.675385,-6.85973 0.923438,-1.9344 2.872118,-2.77404 4.880801,-3.26496 2.008683,-0.49092 4.076187,-0.6335 5.405828,-0.97804 1.32964,-0.34454 1.923744,-0.89109 2.850226,-2.75183 0.926482,-1.86073 2.185994,-5.03711 3.774388,-7.83776 1.588393,-2.80064 3.505385,-5.22452 6.16408,-6.88837 2.658694,-1.66386 6.057005,-2.56687 8.398282,-2.98241 2.341277,-0.41555 3.624557,-0.34426 5.818358,-0.68517 2.1938,-0.34092 5.299014,-1.09342 8.130258,-2.36472 2.831243,-1.27131 5.389875,-3.06149 7.068831,-4.45527 1.678957,-1.39378 2.479023,-2.39184 4.357035,-3.6636 1.878013,-1.27177 4.83272,-2.8164 6.623713,-3.60833 1.790992,-0.79193 2.41679,-0.83154 3.565148,-1.03763 1.148358,-0.20609 2.819788,-0.57838 4.341178,-0.6889 1.521394,-0.11052 2.891804,0.04 4.428554,0.19839 1.53675,0.1584 3.23986,0.32475 4.65399,0.59445 1.41414,0.26971 2.53899,0.642 3.59643,0.919 1.05744,0.27699 2.04763,0.45918 2.90322,0.66933 0.85559,0.21016 1.57645,0.44779 2.52289,0.60976 0.94644,0.16196 2.11882,0.2491 4.50717,0.47489 2.38835,0.22579 5.99261,0.59016 8.79656,0.681 2.80395,0.0908 4.80808,-0.0913 6.09447,-0.36473 1.28638,-0.27339 1.85673,-0.63776 2.55827,-0.95069 0.70154,-0.31293 1.53329,-0.57432 2.17401,-0.96606 0.64072,-0.39173 1.09225,-0.91454 2.08691,-1.6159 0.99466,-0.70137 2.53143,-1.58061 3.65679,-2.10736 1.12536,-0.52674 1.8383,-0.70101 3.28389,-1.10105 1.4456,-0.40004 3.624,-1.02581 5.21275,-1.32255 1.58874,-0.29674 2.58685,-0.26504 3.90963,-0.28494 1.32279,-0.0199 2.97045,-0.0912 4.72511,-0.13074 1.75467,-0.0396 3.61621,-0.0475 5.52535,1e-4 1.90914,0.0476 3.86574,0.15058 5.69932,0.0989 1.83358,-0.0517 3.54462,-0.25765 5.92492,-0.63791 2.3803,-0.38027 5.43007,-0.93475 8.35999,-2.56634 2.92992,-1.63159 5.74204,-4.34063 7.65508,-6.17834 1.91304,-1.83772 2.92699,-2.8041 4.04397,-3.82202 1.11699,-1.01792 2.33689,-2.08727 3.51363,-2.91521 1.17675,-0.82794 2.30953,-1.41411 3.67166,-2.36054 1.36214,-0.94644 2.95435,-2.25343 4.73337,-3.2358 1.77902,-0.98237 3.74354,-1.63982 5.1535,-2.12698 1.40996,-0.48716 2.26548,-0.80401 2.85922,-1.06536 0.59375,-0.26135 0.92645,-0.4673 1.11635,-0.58998 0.18989,-0.12267 0.2374,-0.16226 0.18703,-0.17805 -0.0504,-0.0158 -0.20089,-0.008 -0.35389,2.1e-4"
       id="path926"
       inkscape:path-effect="#path-effect928"
       inkscape:original-d="m 21.26888,285.49874 c 1.816661,-0.77362 3.630677,-1.5499 5.442045,-2.32882 -0.100332,-3.02324 -0.203311,-6.04912 -0.308936,-9.07765 1.951327,-0.83699 3.900007,-1.67663 5.846038,-2.51892 2.070151,-0.13994 4.137655,-0.28252 6.202514,-0.42774 0.596757,-0.54392 1.190865,-1.09047 1.782328,-1.63968 1.262161,-3.17374 2.521673,-6.35012 3.778541,-9.52915 1.91964,-2.42123 3.836633,-4.8451 5.750983,-7.27162 3.400955,-0.90037 6.799266,-1.80338 10.194928,-2.70904 1.285925,0.0739 2.569202,0.14523 3.849836,0.21387 3.107859,-0.74986 6.213072,-1.50237 9.31564,-2.25752 2.561278,-1.78754 5.119912,-3.57772 7.675898,-5.37055 0.802717,-0.99542 1.602785,-1.99348 2.40021,-2.9942 2.957352,-1.54197 5.912057,-3.0866 8.864116,-4.63387 0.628446,-0.037 1.254244,-0.0766 1.877396,-0.11882 1.674077,-0.36964 3.345506,-0.74194 5.014288,-1.11688 1.373055,0.15315 2.743465,0.30365 4.111235,0.45151 1.70576,0.16899 3.40887,0.33534 5.10935,0.49903 1.12749,0.37494 2.25234,0.74724 3.37454,1.11689 0.99283,0.18483 1.98302,0.36702 2.97056,0.54656 0.72349,0.24028 1.44435,0.47791 2.16255,0.7129 1.17503,0.0898 2.34741,0.17691 3.51714,0.2614 3.60691,0.36702 7.21117,0.73139 10.81279,1.09311 2.00678,-0.17954 4.01091,-0.36172 6.0124,-0.54655 0.57299,-0.36173 1.14334,-0.7261 1.71104,-1.09312 0.8344,-0.25875 1.66615,-0.52015 2.49526,-0.78419 0.45417,-0.52015 0.90569,-1.04296 1.35457,-1.5684 1.53941,-0.8766 3.07618,-1.75584 4.6103,-2.63773 0.71557,-0.17163 1.42851,-0.34589 2.13879,-0.52281 2.18105,-0.62312 4.35946,-1.24889 6.53521,-1.87731 1.00075,0.0343 1.99886,0.066 2.99432,0.0951 1.65031,-0.0686 3.29797,-0.13993 4.94299,-0.21387 1.8642,-0.005 3.72574,-0.0132 5.58464,-0.0238 1.95924,0.10563 3.91584,0.2086 5.86979,0.30893 1.71369,-0.2033 3.42473,-0.40925 5.13312,-0.61785 3.05241,-0.55183 6.10218,-1.10631 9.1493,-1.66344 2.81476,-2.70639 5.62688,-5.41543 8.43636,-8.12711 1.01659,-0.96373 2.03054,-1.93011 3.04184,-2.89914 1.22255,-1.06671 2.44245,-2.13606 3.65971,-3.20807 1.13541,-0.58352 2.26819,-1.16968 3.39831,-1.75849 1.59487,-1.30435 3.18708,-2.61134 4.77665,-3.92097 1.96717,-0.65481 3.93169,-1.31227 5.89356,-1.97237 0.85817,-0.3142 1.71369,-0.63105 2.56656,-0.95054 0.33535,-0.20331 0.66806,-0.40925 0.99811,-0.61785 0.0502,-0.037 0.0977,-0.0766 0.14258,-0.11882 -0.14785,0.0106 -0.29836,0.0185 -0.45151,0.0238" />
    <path
       style="fill:#0000ff;stroke:#4646db;stroke-width:0.261;stroke-dasharray:0.521999, 1.044;stroke-dashoffset:0;stroke-opacity:1"
       d="m 156.44079,307.33736 c -0.36385,0.2531 -0.72824,0.50658 -1.09317,0.76043"
       id="path5907"
       inkscape:path-effect="#path-effect5909"
       inkscape:original-d="m 156.44079,307.33736 c -0.36175,0.25612 -0.72614,0.5096 -1.09317,0.76043" />
  </g>
</svg>
