<?xml version="1.0" encoding="UTF-8" standalone="no"?>
<!-- Created with Inkscape (http://www.inkscape.org/) -->

<svg
   width="240mm"
   height="120mm"
   viewBox="0 0 240 120"
   version="1.1"
   id="svg8"
   inkscape:version="1.2.1 (9c6d41e410, 2022-07-14, custom)"
   sodipodi:docname="holonomie.svg"
   xmlns:inkscape="http://www.inkscape.org/namespaces/inkscape"
   xmlns:sodipodi="http://sodipodi.sourceforge.net/DTD/sodipodi-0.dtd"
   xmlns="http://www.w3.org/2000/svg"
   xmlns:svg="http://www.w3.org/2000/svg"
   xmlns:rdf="http://www.w3.org/1999/02/22-rdf-syntax-ns#"
   xmlns:cc="http://creativecommons.org/ns#"
   xmlns:dc="http://purl.org/dc/elements/1.1/">
  <defs
     id="defs2">
    <inkscape:path-effect
       effect="bspline"
       id="path-effect1518"
       is_visible="true"
       lpeversion="1"
       weight="33.333333"
       steps="2"
       helper_size="0"
       apply_no_weight="true"
       apply_with_weight="true"
       only_selected="false" />
    <inkscape:path-effect
       effect="bspline"
       id="path-effect1514"
       is_visible="true"
       lpeversion="1"
       weight="33.333333"
       steps="2"
       helper_size="0"
       apply_no_weight="true"
       apply_with_weight="true"
       only_selected="false" />
    <inkscape:path-effect
       effect="bspline"
       id="path-effect1510"
       is_visible="true"
       lpeversion="1"
       weight="33.333333"
       steps="2"
       helper_size="0"
       apply_no_weight="true"
       apply_with_weight="true"
       only_selected="false" />
    <inkscape:path-effect
       effect="bspline"
       id="path-effect1506"
       is_visible="true"
       lpeversion="1"
       weight="33.333333"
       steps="2"
       helper_size="0"
       apply_no_weight="true"
       apply_with_weight="true"
       only_selected="false" />
    <inkscape:path-effect
       effect="bspline"
       id="path-effect820"
       is_visible="true"
       lpeversion="1"
       weight="33.333333"
       steps="2"
       helper_size="0"
       apply_no_weight="true"
       apply_with_weight="true"
       only_selected="false" />
    <inkscape:path-effect
       effect="bspline"
       id="path-effect816"
       is_visible="true"
       lpeversion="1"
       weight="33.333333"
       steps="2"
       helper_size="0"
       apply_no_weight="true"
       apply_with_weight="true"
       only_selected="false" />
    <inkscape:path-effect
       effect="bspline"
       id="path-effect812"
       is_visible="true"
       lpeversion="1"
       weight="33.333333"
       steps="2"
       helper_size="0"
       apply_no_weight="true"
       apply_with_weight="true"
       only_selected="false" />
    <inkscape:path-effect
       effect="bspline"
       id="path-effect808"
       is_visible="true"
       lpeversion="1"
       weight="33.333333"
       steps="2"
       helper_size="0"
       apply_no_weight="true"
       apply_with_weight="true"
       only_selected="false" />
  </defs>
  <sodipodi:namedview
     id="base"
     pagecolor="#ffffff"
     bordercolor="#666666"
     borderopacity="1.0"
     inkscape:pageopacity="0.0"
     inkscape:pageshadow="2"
     inkscape:zoom="1.406257"
     inkscape:cx="453.33107"
     inkscape:cy="225.77665"
     inkscape:document-units="mm"
     inkscape:current-layer="layer1"
     showgrid="false"
     showborder="true"
     width="200mm"
     showguides="true"
     inkscape:guide-bbox="true"
     inkscape:window-width="1920"
     inkscape:window-height="1200"
     inkscape:window-x="0"
     inkscape:window-y="0"
     inkscape:window-maximized="1"
     inkscape:showpageshadow="2"
     inkscape:pagecheckerboard="0"
     inkscape:deskcolor="#d1d1d1"
     inkscape:lockguides="true">
    <inkscape:grid
       type="xygrid"
       id="grid815"
       units="mm"
       spacingx="10"
       spacingy="10"
       empspacing="4"
       dotted="false" />
  </sodipodi:namedview>
  <metadata
     id="metadata5">
    <rdf:RDF>
      <cc:Work
         rdf:about="">
        <dc:format>image/svg+xml</dc:format>
        <dc:type
           rdf:resource="http://purl.org/dc/dcmitype/StillImage" />
        <dc:title />
      </cc:Work>
    </rdf:RDF>
  </metadata>
  <g
     inkscape:label="Layer 1"
     inkscape:groupmode="layer"
     id="layer1"
     transform="translate(0,-177)">
    <path
       style="fill:none;stroke:#0000ff;stroke-width:0.3"
       d="m 37.387045,262.52832 c 3.303143,-3.604 6.606394,-7.20813 15.803568,-14.09583 9.197175,-6.8877 24.287564,-17.05847 36.585877,-24.50442 12.29831,-7.44595 21.80407,-12.16695 31.32987,-16.19882 9.5258,-4.03187 19.07117,-7.3746 25.62286,-8.92678 6.55169,-1.55219 10.10842,-1.31456 13.66235,-1.07711"
       id="path806"
       inkscape:path-effect="#path-effect808"
       inkscape:original-d="m 37.387045,262.52832 c 3.305898,-3.60148 6.609149,-7.2056 9.909757,-10.81237 15.093037,-10.16812 30.183428,-20.33888 45.271176,-30.51229 9.508402,-4.71836 19.014162,-9.43937 28.517282,-14.16302 9.54801,-3.34008 19.09338,-6.68281 28.63611,-10.02818 3.55938,0.24028 7.11611,0.47791 10.6702,0.7129" />
    <path
       style="fill:none;stroke:#0000ff;stroke-width:0.3"
       d="m 82.49187,278.18845 c 2.218343,-1.76668 4.436348,-3.5331 7.513973,-5.73921 3.077625,-2.20612 7.014593,-4.85178 12.488297,-8.6262 5.4737,-3.77441 12.4842,-8.67761 20.00206,-12.82046 7.51785,-4.14285 15.5423,-7.52518 21.75667,-10.18273 6.21436,-2.65755 10.61869,-4.59031 15.1973,-6.60625 4.5786,-2.01593 9.33148,-4.11503 13.24131,-5.29115 3.90983,-1.17612 6.97544,-1.4296 10.03864,-1.68288"
       id="path810"
       inkscape:path-effect="#path-effect812"
       inkscape:original-d="m 82.49187,278.18845 c 2.220656,-1.76378 4.438666,-3.53019 6.65403,-5.29926 3.939617,-2.64302 7.876588,-5.28868 11.81091,-7.937 7.01314,-4.90054 14.02364,-9.80374 21.03149,-14.70957 8.0271,-3.37969 16.05155,-6.76203 24.07335,-10.14701 4.40698,-1.93012 8.81131,-3.86288 13.213,-5.79829 4.75553,-2.09646 9.50841,-4.19556 14.25865,-6.29731 3.06825,-0.25083 6.13386,-0.50431 9.19682,-0.76044" />
    <path
       style="fill:none;stroke:#0000ff;stroke-width:0.3"
       d="m 27.786226,230.01627 c 5.547662,-0.0226 11.092688,-0.0451 16.657776,1.47323 5.565087,1.51837 11.149717,4.57593 17.787931,7.70459 6.638214,3.12866 14.32996,6.32881 21.431512,9.90549 7.101552,3.57668 13.612993,7.52933 18.453015,10.46412 4.84001,2.93478 8.00859,4.8517 12.48792,8.84437 4.47933,3.99267 10.26993,10.06028 16.05793,16.12517"
       id="path814"
       inkscape:path-effect="#path-effect816"
       inkscape:original-d="m 27.786226,230.01627 c 5.547673,-0.0199 11.092699,-0.0425 16.635077,-0.0677 5.58728,3.06022 11.171914,6.11778 16.753903,9.17271 7.694393,3.20279 15.38614,6.40293 23.075238,9.60043 6.514089,3.95531 13.025533,7.90796 19.534326,11.85797 3.17124,1.91957 6.33982,3.83648 9.50577,5.75076 5.79323,6.07024 11.58383,12.13785 17.37177,18.2028" />
    <path
       style="fill:none;stroke:#0000ff;stroke-width:0.3"
       d="m 70.276978,193.09149 c 1.285052,-0.35695 2.568325,-0.7134 7.912066,1.02223 5.34374,1.73563 14.746518,5.56155 22.065936,8.29419 7.31943,2.73265 12.55551,4.37232 19.77591,7.7273 7.22041,3.35498 16.42516,8.42453 23.1544,12.33374 6.72925,3.90922 10.98307,6.65785 16.39312,11.83871 5.41005,5.18085 11.97695,12.79308 16.03053,17.91927 4.05359,5.12618 5.59448,7.76602 7.13354,10.40274"
       id="path818"
       inkscape:path-effect="#path-effect820"
       inkscape:original-d="m 70.276978,193.09149 c 1.285923,-0.35381 2.569197,-0.71026 3.849828,-1.06936 9.405429,3.82857 18.80821,7.65448 28.208344,11.47776 5.23874,1.64232 10.47482,3.282 15.70826,4.91903 9.20739,5.07218 18.41214,10.14172 27.61423,15.20862 4.25648,2.75128 8.5103,5.49992 12.76148,8.24592 6.56955,7.61487 13.13645,15.2271 19.7007,22.83669 1.54353,2.64248 3.08442,5.28232 4.62266,7.91952" />
    <text
       xml:space="preserve"
       style="font-size:3.175px;fill:#000000;stroke:#000000;stroke-width:0.3"
       x="111.34185"
       y="197.40286"
       id="text876"><tspan
         sodipodi:role="line"
         id="tspan874"
         style="stroke-width:0.3;stroke:#000000;fill:#000000"
         x="111.34185"
         y="197.40286" /></text>
    <text
       xml:space="preserve"
       style="font-size:3.175px;fill:#000000;stroke:#000000;stroke-width:0.3"
       x="108.65128"
       y="199.96587"
       id="text1040"><tspan
         sodipodi:role="line"
         id="tspan1038"
         style="stroke-width:0.3"
         x="108.65128"
         y="199.96587">$x+\dd x'$</tspan></text>
    <text
       xml:space="preserve"
       style="font-size:3.175px;fill:#000000;stroke:#000000;stroke-width:0.3"
       x="63.385628"
       y="247.56076"
       id="text1044"><tspan
         sodipodi:role="line"
         id="tspan1042"
         style="stroke-width:0.3"
         x="63.385628"
         y="247.56076">$x$</tspan></text>
    <text
       xml:space="preserve"
       style="font-size:3.175px;fill:#000000;stroke:#000000;stroke-width:0.3"
       x="104.47761"
       y="268.1282"
       id="text1098"><tspan
         sodipodi:role="line"
         id="tspan1096"
         style="stroke-width:0.3"
         x="104.47761"
         y="268.1282">$x+\ddx $</tspan></text>
    <text
       xml:space="preserve"
       style="font-size:3.175px;fill:#000000;stroke:#000000;stroke-width:0.3"
       x="145.6553"
       y="244.66678"
       id="text1102"><tspan
         sodipodi:role="line"
         id="tspan1100"
         style="stroke-width:0.3"
         x="145.6553"
         y="244.66678">$x+\dd x + \dd x'$</tspan></text>
    <path
       style="fill:none;stroke:#0000ff;stroke-width:0.3"
       d="m 136.36576,224.43549 c -0.11801,-0.4563 -0.23683,-0.91572 -0.3084,-1.27627 -0.0716,-0.36054 -0.0953,-0.62194 -0.11909,-0.87145 -0.0237,-0.2495 -0.0475,-0.48715 -0.0752,-0.7287 -0.0277,-0.24156 -0.0594,-0.48712 -0.0793,-0.6654 -0.0199,-0.17827 -0.0278,-0.28919 -0.0396,-0.39605 -0.0118,-0.10686 -0.0276,-0.20983 -0.0357,-0.3209 -0.008,-0.11106 -0.008,-0.22988 -0.004,-0.44379 0.004,-0.2139 0.0119,-0.52283 0.0236,-0.72897 0.0118,-0.20614 0.0276,-0.30912 0.0394,-0.37277 0.0118,-0.0636 0.0197,-0.0875 0.024,-0.11069 0.004,-0.0232 0.004,-0.047 0.004,-0.0866 0,-0.0396 0,-0.0951 0,-0.14656 0,-0.0515 0,-0.099 0,-0.13464 0,-0.0356 0,-0.0594 -0.007,-0.083 -0.007,-0.0236 -0.0227,-0.0473 -0.042,-0.0676 -0.0193,-0.0203 -0.0431,-0.0361 -0.0235,-0.0451 0.0196,-0.009 0.083,-0.009 0.17398,-0.013 0.091,-0.004 0.20983,-0.012 0.39177,-0.0438 0.18193,-0.0318 0.4275,-0.0873 0.74049,-0.14664 0.313,-0.0594 0.69323,-0.12274 0.98652,-0.15826 0.29328,-0.0355 0.49925,-0.0435 0.79231,-0.0593 0.29305,-0.0159 0.6733,-0.0397 1.16053,-0.0554 0.48724,-0.0158 1.08135,-0.0237 1.50913,-0.0277 0.42778,-0.004 0.68919,-0.004 0.92287,-0.004 0.23368,0 0.43964,0 0.65336,-0.012 0.21373,-0.012 0.43553,-0.0358 0.57408,-0.0516 0.13856,-0.0159 0.19404,-0.0238 0.27752,-0.0236 0.0835,2.6e-4 0.19437,0.008 0.27773,0.0246 0.0834,0.0164 0.13882,0.0402 0.1821,0.0514 0.0433,0.0112 0.075,0.0112 0.0655,0.0992 -0.009,0.088 -0.057,0.26229 -0.10402,0.43477"
       id="path1504"
       inkscape:path-effect="#path-effect1506"
       inkscape:original-d="m 136.36576,224.43549 c -0.11617,-0.45678 -0.23499,-0.9162 -0.35646,-1.37827 -0.0211,-0.25876 -0.0449,-0.52016 -0.0713,-0.78421 -0.0211,-0.23498 -0.0449,-0.47262 -0.0713,-0.7129 -0.029,-0.2429 -0.0607,-0.48846 -0.0951,-0.73666 -0.005,-0.10825 -0.0132,-0.21915 -0.0238,-0.33269 -0.0132,-0.10033 -0.029,-0.20331 -0.0475,-0.30893 0.003,-0.11617 0.003,-0.23499 0,-0.35645 0.0106,-0.30628 0.0185,-0.61521 0.0238,-0.92678 0.0185,-0.10032 0.0343,-0.2033 0.0475,-0.30892 0.0105,-0.0211 0.0185,-0.0449 0.0238,-0.0713 0.003,-0.0211 0.003,-0.0449 0,-0.0713 0.003,-0.0528 0.003,-0.10826 0,-0.16636 0.003,-0.0449 0.003,-0.0924 0,-0.14258 0.003,-0.0211 0.003,-0.0449 0,-0.0713 -0.0132,-0.0211 -0.029,-0.0449 -0.0475,-0.0713 -0.0211,-0.0132 -0.0449,-0.029 -0.0713,-0.0475 0.066,0.003 0.12939,0.003 0.19012,0 0.12147,-0.005 0.24029,-0.0132 0.35646,-0.0238 0.24821,-0.0528 0.49378,-0.10824 0.7367,-0.16634 0.38287,-0.0607 0.7631,-0.12409 1.14069,-0.19011 0.2086,-0.005 0.41456,-0.0132 0.61787,-0.0238 0.38287,-0.0211 0.76311,-0.0449 1.14069,-0.0713 0.59676,-0.005 1.19087,-0.0132 1.78233,-0.0238 0.26406,0.003 0.52547,0.003 0.78423,0 0.2086,0.003 0.41456,0.003 0.61787,0 0.22445,-0.0211 0.44625,-0.0449 0.66541,-0.0713 0.0581,-0.005 0.11355,-0.0132 0.16635,-0.0238 0.11355,0.0106 0.22445,0.0185 0.3327,0.0238 0.0581,0.0264 0.11355,0.0502 0.16635,0.0713 0.0343,0.003 0.066,0.003 0.0951,0 -0.0449,0.17692 -0.0924,0.35118 -0.14258,0.5228" />
    <path
       style="fill:none;stroke:#0000ff;stroke-width:0.3"
       d="m 83.822682,245.01465 c 0.541607,0.41416 1.080265,0.82606 1.432714,1.10339 0.35245,0.27733 0.518801,0.41991 0.661469,0.53465 0.142667,0.11473 0.261474,0.20185 0.423887,0.31667 0.162413,0.11481 0.368369,0.25739 0.680953,0.57857 0.312583,0.32119 0.732425,0.82023 1.064756,1.30357 0.332332,0.48335 0.577893,0.95069 0.707979,1.23971 0.130086,0.28903 0.145929,0.39993 0.149606,0.52246 0.0037,0.12254 -0.0042,0.2572 -0.0081,0.34439 -0.0039,0.0872 -0.0039,0.12689 -0.01202,0.18599 -0.0081,0.0591 -0.02396,0.13827 -0.0398,0.22148 -0.01583,0.0832 -0.03167,0.17032 -0.04754,0.24945 -0.01587,0.0791 -0.03172,0.15045 -0.04759,0.21371 -0.01588,0.0633 -0.03172,0.11872 -0.05048,0.14927 -0.01876,0.0306 -0.04252,0.0385 -0.07789,0.0465 -0.03537,0.008 -0.08289,0.016 -0.111953,0.0328 -0.02906,0.0168 -0.03699,0.0406 -0.05177,0.0554 -0.01478,0.0148 -0.03854,0.0227 -0.05934,0.0391 -0.0208,0.0164 -0.03666,0.0402 -0.05493,0.0518 -0.01827,0.0116 -0.04204,0.0116 -0.133136,0.0116 -0.0911,0 -0.249528,0 -0.531004,0.0355 -0.281476,0.0355 -0.685474,0.10675 -1.414407,0.28492 -0.728933,0.17816 -1.782485,0.46332 -2.88749,0.7485 -1.105005,0.28517 -2.261541,0.57033 -3.457519,0.80407 -1.195979,0.23374 -2.431728,0.41593 -3.108794,0.50718 -0.677065,0.0913 -0.795886,0.0913 -0.883234,0.0951 -0.08735,0.004 -0.142796,0.0117 -0.175858,0.0285 -0.03306,0.0168 -0.04099,0.0406 -0.09645,0.1751 -0.05546,0.13451 -0.158436,0.38006 -0.26087,0.62431"
       id="path1508"
       inkscape:path-effect="#path-effect1510"
       inkscape:original-d="m 83.822682,245.01465 c 0.541306,0.41455 1.079965,0.82645 1.615982,1.23571 0.168998,0.14522 0.335349,0.2878 0.499055,0.42774 0.121465,0.0898 0.240286,0.1769 0.35646,0.26139 0.208605,0.14523 0.414562,0.28781 0.617876,0.42775 0.422481,0.50167 0.842319,1.00071 1.259509,1.49709 0.248211,0.47 0.493776,0.93734 0.736695,1.40205 0.0185,0.11354 0.03433,0.22444 0.04753,0.33269 -0.0053,0.1373 -0.0132,0.27196 -0.02376,0.40398 0.0026,0.0422 0.0026,0.0819 0,0.11881 -0.0132,0.0819 -0.02904,0.16107 -0.04753,0.23764 -0.0132,0.0898 -0.02904,0.1769 -0.04753,0.26139 -0.0132,0.0739 -0.02904,0.14522 -0.04753,0.21387 -0.0132,0.0581 -0.02904,0.11355 -0.04753,0.16635 -0.02111,0.0106 -0.04488,0.0185 -0.07129,0.0238 -0.04488,0.0106 -0.09241,0.0185 -0.142581,0.0238 -0.0053,0.0264 -0.0132,0.0502 -0.02376,0.0713 -0.02111,0.0106 -0.04488,0.0185 -0.07129,0.0238 -0.0132,0.0264 -0.02904,0.0502 -0.04753,0.0713 -0.02111,0.003 -0.04488,0.003 -0.07129,0 -0.155786,0.003 -0.314216,0.003 -0.475294,0 -0.401347,0.0739 -0.805339,0.14523 -1.21198,0.21387 -1.050909,0.28781 -2.104461,0.57297 -3.160662,0.85548 -1.15389,0.28781 -2.310426,0.57297 -3.469608,0.85548 -1.233104,0.18484 -2.468854,0.36702 -3.707249,0.54656 -0.116174,0.003 -0.234995,0.003 -0.356463,0 -0.0528,0.0106 -0.108254,0.0185 -0.166351,0.0238 -0.0053,0.0264 -0.0132,0.0502 -0.02376,0.0713 -0.100335,0.2482 -0.203316,0.49375 -0.308943,0.73666" />
    <path
       style="fill:none;stroke:#0000ff;stroke-width:0.3"
       d="m 94.445372,216.07076 c -0.799941,0.72863 -1.600009,1.45737 -2.218142,2.13893 -0.618133,0.68156 -1.053811,1.31525 -1.421683,1.73459 -0.367871,0.41935 -0.668883,0.6253 -0.874493,0.75196 -0.20561,0.12666 -0.316501,0.17419 -0.427698,0.23365 -0.111197,0.0595 -0.222116,0.13076 -0.293992,0.22294 -0.07188,0.0922 -0.103564,0.20308 -0.143182,0.33373 -0.03962,0.13065 -0.08714,0.28115 -0.118838,0.38014 -0.03169,0.099 -0.04753,0.1465 -0.07125,0.24174 -0.02372,0.0952 -0.05541,0.23783 -0.07504,0.41238 -0.01963,0.17456 -0.02755,0.3805 -0.03146,0.52711 -0.0039,0.14661 -0.0039,0.23372 -0.0039,0.31692 0,0.0832 0,0.16235 0,0.21384 0,0.0515 0,0.0753 -0.01203,0.10187 -0.01203,0.0266 -0.0358,0.0583 -0.0517,0.0948 -0.01589,0.0365 -0.02383,0.0761 -0.03167,0.13169 -0.0078,0.0556 -0.01576,0.12688 -0.01959,0.17456 -0.0038,0.0477 -0.0038,0.0715 0.03313,0.082 0.03697,0.0105 0.108259,0.0105 0.282275,-0.0134 0.174015,-0.0239 0.451262,-0.0715 0.672957,-0.11508 0.221696,-0.0436 0.388046,-0.0832 0.566259,-0.12679 0.178212,-0.0436 0.368319,-0.0911 0.914954,-0.21386 0.546634,-0.12277 1.44968,-0.3208 2.043732,-0.45548 0.594052,-0.13467 0.879235,-0.20597 1.334801,-0.30495 0.455565,-0.099 1.081363,-0.22572 1.755026,-0.28093 0.673662,-0.0552 1.394514,-0.0394 1.885808,-0.007 0.491295,0.0319 0.752698,0.0795 0.918985,0.10708 0.166288,0.0276 0.237588,0.0356 0.268215,0.0251 0.03063,-0.0105 0.0227,-0.0421 -0.0079,-0.0783 -0.03058,-0.0361 -0.08603,-0.0757 -0.144465,-0.11746"
       id="path1512"
       inkscape:path-effect="#path-effect1514"
       inkscape:original-d="m 94.445372,216.07076 c -0.797423,0.73139 -1.597494,1.46013 -2.400208,2.18623 -0.433035,0.63634 -0.868714,1.27003 -1.307041,1.90108 -0.298368,0.2086 -0.599385,0.41454 -0.903047,0.61785 -0.108254,0.0502 -0.219154,0.0977 -0.3327,0.14258 -0.108257,0.0739 -0.219157,0.14523 -0.332703,0.21387 -0.02904,0.11354 -0.06073,0.22444 -0.09506,0.33269 -0.04488,0.15315 -0.09241,0.30365 -0.142582,0.4515 -0.0132,0.0502 -0.02904,0.0977 -0.04753,0.14258 -0.02904,0.14523 -0.06073,0.28781 -0.09506,0.42774 -0.0053,0.2086 -0.0132,0.41455 -0.02376,0.61786 0.0026,0.0898 0.0026,0.17691 0,0.2614 0.0026,0.0819 0.0026,0.16106 0,0.23763 0.0026,0.0264 0.0026,0.0502 0,0.0713 -0.02111,0.0343 -0.04489,0.066 -0.0713,0.0951 -0.0053,0.0422 -0.0132,0.0819 -0.02376,0.11882 -0.0053,0.0739 -0.0132,0.14522 -0.02376,0.21387 0.0026,0.0264 0.0026,0.0502 0,0.0713 0.07393,0.003 0.145224,0.003 0.21387,0 0.279898,-0.0449 0.557149,-0.0924 0.831755,-0.14258 0.168997,-0.037 0.335349,-0.0766 0.499055,-0.11882 0.192762,-0.0449 0.382875,-0.0924 0.570343,-0.14258 0.905696,-0.19539 1.808742,-0.39342 2.709143,-0.5941 0.287817,-0.0686 0.57299,-0.13993 0.855514,-0.21387 0.628447,-0.12409 1.254245,-0.25082 1.877396,-0.3802 0.723498,0.0185 1.44435,0.0343 2.162556,0.0475 0.264055,0.0502 0.525463,0.0977 0.784228,0.14259 0.07394,0.0105 0.145233,0.0185 0.213881,0.0238 -0.0053,-0.029 -0.0132,-0.0607 -0.02376,-0.095 -0.05281,-0.037 -0.108257,-0.0766 -0.166352,-0.11882" />
    <path
       style="fill:none;stroke:#0000ff;stroke-width:0.3"
       d="m 122.1309,247.29595 c -0.40171,0.0473 -0.80569,0.0948 -1.08278,0.11868 -0.27708,0.0239 -0.42759,0.0239 -0.53078,0.0277 -0.10319,0.004 -0.15863,0.0117 -0.19559,0.0281 -0.037,0.0163 -0.0528,0.0401 -0.0716,0.0554 -0.0188,0.0153 -0.0426,0.0232 -0.0509,0.0448 -0.008,0.0216 -3.9e-4,0.0533 0.0521,0.0717 0.0525,0.0184 0.14759,0.0263 0.29007,0.0302 0.14249,0.004 0.33261,0.004 0.83152,-0.0359 0.49891,-0.0397 1.3069,-0.11893 1.87709,-0.1903 0.5702,-0.0714 0.90291,-0.13475 1.20404,-0.18222 0.30113,-0.0475 0.57046,-0.0792 0.83979,-0.11085 0.26932,-0.0317 0.53866,-0.0634 0.73271,-0.0871 0.19405,-0.0238 0.31289,-0.0396 0.41593,-0.0514 0.10303,-0.0118 0.19017,-0.0198 0.2773,-0.0277 0.0871,-0.008 0.17428,-0.0159 0.24905,-0.0319 0.0748,-0.016 0.13818,-0.0398 0.20555,-0.0635 0.0674,-0.0238 0.13872,-0.0475 0.21404,-0.0713 0.0753,-0.0238 0.15452,-0.0475 0.21042,-0.0591 0.0559,-0.0116 0.0876,-0.0116 0.15892,-0.0116 0.0713,0 0.18222,0 0.2535,0 0.0713,0 0.10298,0 0.13098,0.004 0.028,0.004 0.0518,0.0124 0.0756,0.0204 0.0238,0.008 0.0475,0.0159 0.071,0.0193 0.0235,0.003 0.0473,0.003 0.11857,0.003 0.0713,0 0.19012,0 0.40796,0 0.21784,0 0.5347,0 0.73671,0 0.202,0 0.28912,0 0.34456,0 0.0554,0 0.0792,0 0.10652,-0.004 0.0273,-0.004 0.059,-0.0121 0.1028,-0.02 0.0438,-0.008 0.0992,-0.0158 0.13906,-0.0196 0.0398,-0.004 0.0636,-0.004 0.0185,0.11957 -0.0452,0.12338 -0.15607,0.36893 -0.25509,0.59074 -0.099,0.22182 -0.18615,0.41984 -0.28115,0.75289 -0.095,0.33305 -0.19798,0.8004 -0.26129,1.12532 -0.0633,0.32491 -0.0871,0.5071 -0.13062,0.87149 -0.0436,0.3644 -0.10693,0.91096 -0.19412,1.49307 -0.0872,0.5821 -0.19809,1.19995 -0.26534,1.6516 -0.0673,0.45166 -0.091,0.73682 -0.11891,0.91846 -0.0279,0.18163 -0.0596,0.26088 -0.0863,0.30351 -0.0267,0.0426 -0.0505,0.0506 -0.10512,0.0357 -0.0547,-0.0149 -0.14179,-0.0545 -0.2321,-0.0955"
       id="path1516"
       inkscape:path-effect="#path-effect1518"
       inkscape:original-d="m 122.1309,247.29595 c -0.40136,0.0502 -0.80535,0.0977 -1.21199,0.14258 -0.14787,0.003 -0.29838,0.003 -0.45153,0 -0.0528,0.0106 -0.10825,0.0185 -0.16635,0.0238 -0.0132,0.0264 -0.029,0.0502 -0.0475,0.0713 -0.0211,0.0106 -0.0449,0.0185 -0.0713,0.0238 0.0106,0.0343 0.0185,0.066 0.0238,0.0951 0.0977,0.0106 0.19276,0.0185 0.28517,0.0238 0.19276,0.003 0.38288,0.003 0.57035,0 0.81063,-0.0766 1.61862,-0.15578 2.42396,-0.23763 0.33535,-0.0607 0.66806,-0.1241 0.99811,-0.19011 0.27198,-0.029 0.54131,-0.0607 0.80799,-0.0951 0.27197,-0.029 0.5413,-0.0607 0.80798,-0.095 0.12147,-0.0132 0.2403,-0.0291 0.35648,-0.0475 0.0898,-0.005 0.17691,-0.0132 0.2614,-0.0238 0.0898,-0.005 0.17692,-0.0132 0.26141,-0.0238 0.066,-0.0211 0.12939,-0.0449 0.19011,-0.0713 0.0739,-0.0211 0.14523,-0.0449 0.21388,-0.0713 0.0819,-0.0211 0.16108,-0.0449 0.23764,-0.0713 0.0343,0.003 0.066,0.003 0.0951,0 0.11354,0.003 0.22444,0.003 0.3327,0 0.0343,0.003 0.066,0.003 0.0951,0 0.0264,0.0105 0.0502,0.0185 0.0713,0.0238 0.0264,0.0106 0.0502,0.0185 0.0713,0.0238 0.0264,0.003 0.0502,0.003 0.0713,0 0.12147,0.003 0.2403,0.003 0.35648,0 0.3195,0.003 0.63636,0.003 0.95057,0 0.0898,0.003 0.17692,0.003 0.2614,0 0.0264,0.003 0.0502,0.003 0.0713,0 0.0343,-0.005 0.066,-0.0132 0.0951,-0.0238 0.0581,-0.005 0.11355,-0.0132 0.16636,-0.0238 0.0264,0.003 0.0502,0.003 0.0713,0 -0.10825,0.2482 -0.21915,0.49375 -0.3327,0.73666 -0.0845,0.20068 -0.17162,0.39871 -0.2614,0.59409 -0.10033,0.46999 -0.20332,0.93734 -0.30894,1.40204 -0.0211,0.18484 -0.0449,0.36702 -0.0713,0.54657 -0.0607,0.5492 -0.1241,1.09576 -0.19011,1.63967 -0.10826,0.6205 -0.21916,1.23835 -0.33271,1.85355 -0.0211,0.28781 -0.0449,0.57297 -0.0713,0.85549 -0.029,0.0818 -0.0607,0.16106 -0.0951,0.23763 -0.0211,0.0105 -0.0449,0.0185 -0.0713,0.0238 -0.0845,-0.037 -0.17163,-0.0766 -0.26141,-0.11882" />
    <text
       xml:space="preserve"
       style="font-size:3.175px;fill:#000000;stroke:#000000;stroke-width:0.3"
       x="79.854034"
       y="217.33022"
       id="text1522"><tspan
         sodipodi:role="line"
         id="tspan1520"
         style="stroke-width:0.3;fill:#000000;stroke:#000000"></tspan></text>
    <text
       xml:space="preserve"
       style="font-size:3.175px;fill:#000000;stroke:#000000;stroke-width:0.3"
       x="83.775146"
       y="218.39957"
       id="text1526"><tspan
         sodipodi:role="line"
         id="tspan1524"
         style="stroke-width:0.3"
         x="83.775146"
         y="218.39957">4</tspan></text>
    <text
       xml:space="preserve"
       style="font-size:3.175px;fill:#000000;stroke:#000000;stroke-width:0.3"
       x="78.998505"
       y="259.84305"
       id="text1530"><tspan
         sodipodi:role="line"
         id="tspan1528"
         style="stroke-width:0.3"
         x="78.998505"
         y="259.84305">1</tspan></text>
    <text
       xml:space="preserve"
       style="font-size:3.175px;fill:#000000;stroke:#000000;stroke-width:0.3"
       x="130.4722"
       y="258.13208"
       id="text1534"><tspan
         sodipodi:role="line"
         id="tspan1532"
         style="stroke-width:0.3"
         x="130.4722"
         y="258.13208">2</tspan></text>
    <text
       xml:space="preserve"
       style="font-size:3.175px;fill:#000000;stroke:#000000;stroke-width:0.3"
       x="144.99225"
       y="214.40732"
       id="text1538"><tspan
         sodipodi:role="line"
         id="tspan1536"
         style="stroke-width:0.3"
         x="144.99225"
         y="214.40732">3</tspan></text>
  </g>
</svg>
