<?xml version="1.0" encoding="UTF-8" standalone="no"?>
<!-- Created with Inkscape (http://www.inkscape.org/) -->

<svg
   width="240mm"
   height="120mm"
   viewBox="0 0 240 120"
   version="1.1"
   id="svg8"
   inkscape:version="1.1.1 (3bf5ae0d25, 2021-09-20, custom)"
   sodipodi:docname="cfc.svg"
   xmlns:inkscape="http://www.inkscape.org/namespaces/inkscape"
   xmlns:sodipodi="http://sodipodi.sourceforge.net/DTD/sodipodi-0.dtd"
   xmlns="http://www.w3.org/2000/svg"
   xmlns:svg="http://www.w3.org/2000/svg"
   xmlns:rdf="http://www.w3.org/1999/02/22-rdf-syntax-ns#"
   xmlns:cc="http://creativecommons.org/ns#"
   xmlns:dc="http://purl.org/dc/elements/1.1/">
  <defs
     id="defs2">
    <inkscape:perspective
       sodipodi:type="inkscape:persp3d"
       inkscape:vp_x="0 : 60 : 1"
       inkscape:vp_y="0 : 1000 : 0"
       inkscape:vp_z="240 : 60 : 1"
       inkscape:persp3d-origin="120 : 40 : 1"
       id="perspective118" />
  </defs>
  <sodipodi:namedview
     id="base"
     pagecolor="#ffffff"
     bordercolor="#666666"
     borderopacity="1.0"
     inkscape:pageopacity="0.0"
     inkscape:pageshadow="2"
     inkscape:zoom="1.8491742"
     inkscape:cx="376.65461"
     inkscape:cy="243.08148"
     inkscape:document-units="mm"
     inkscape:current-layer="layer1"
     showgrid="false"
     showborder="true"
     width="200mm"
     showguides="true"
     inkscape:guide-bbox="true"
     inkscape:window-width="1920"
     inkscape:window-height="1127"
     inkscape:window-x="0"
     inkscape:window-y="0"
     inkscape:window-maximized="1"
     inkscape:pagecheckerboard="0">
    <inkscape:grid
       type="xygrid"
       id="grid815"
       units="mm"
       spacingx="10"
       spacingy="10"
       empspacing="4"
       dotted="false" />
  </sodipodi:namedview>
  <metadata
     id="metadata5">
    <rdf:RDF>
      <cc:Work
         rdf:about="">
        <dc:format>image/svg+xml</dc:format>
        <dc:type
           rdf:resource="http://purl.org/dc/dcmitype/StillImage" />
        <dc:title />
      </cc:Work>
    </rdf:RDF>
  </metadata>
  <g
     inkscape:label="Layer 1"
     inkscape:groupmode="layer"
     id="layer1"
     transform="translate(0,-177)">
    <g
       sodipodi:type="inkscape:box3d"
       id="g120"
       style="fill:#ffd42a"
       inkscape:perspectiveID="#perspective118"
       inkscape:corner0="0.83632892 : 0.059584679 : 0 : 1"
       inkscape:corner7="0.1773551 : -0.027562647 : 0.25 : 1">
      <path
         sodipodi:type="inkscape:box3dside"
         id="path132"
         style="fill:#e9e9ff;fill-rule:evenodd;stroke:none;stroke-linejoin:round"
         inkscape:box3dsidetype="11"
         d="m 86.275945,218.02664 39.831425,-8.75953 v 61.05511 L 86.275945,259.79729 Z"
         points="126.10737,209.26711 126.10737,270.32222 86.275945,259.79729 86.275945,218.02664 " />
      <path
         sodipodi:type="inkscape:box3dside"
         id="path122"
         style="fill:#353564;fill-rule:evenodd;stroke:none;stroke-linejoin:round"
         inkscape:box3dsidetype="6"
         d="m 65.34777,215.44358 v 47.45736 l 20.928175,-3.10365 v -41.77065 z"
         points="65.34777,262.90094 86.275945,259.79729 86.275945,218.02664 65.34777,215.44358 " />
      <path
         sodipodi:type="inkscape:box3dside"
         id="path130"
         style="fill:#afafde;fill-rule:evenodd;stroke:none;stroke-linejoin:round"
         inkscape:box3dsidetype="13"
         d="m 65.34777,262.90094 36.5756,14.49694 24.184,-7.07566 -39.831425,-10.52493 z"
         points="101.92337,277.39788 126.10737,270.32222 86.275945,259.79729 65.34777,262.90094 " />
      <path
         sodipodi:type="inkscape:box3dside"
         id="path124"
         style="fill:#4d4d9f;fill-rule:evenodd;stroke:none;stroke-linejoin:round"
         inkscape:box3dsidetype="5"
         d="m 65.34777,215.44358 36.5756,-12.06528 24.184,5.88881 -39.831425,8.75953 z"
         points="101.92337,203.3783 126.10737,209.26711 86.275945,218.02664 65.34777,215.44358 " />
      <path
         sodipodi:type="inkscape:box3dside"
         id="path128"
         style="fill:#d7d7ff;fill-rule:evenodd;stroke:none;stroke-linejoin:round"
         inkscape:box3dsidetype="14"
         d="m 101.92337,203.3783 v 74.01958 l 24.184,-7.07566 v -61.05511 z"
         points="101.92337,277.39788 126.10737,270.32222 126.10737,209.26711 101.92337,203.3783 " />
      <path
         sodipodi:type="inkscape:box3dside"
         id="path126"
         style="fill:#8686bf;fill-rule:evenodd;stroke:none;stroke-linejoin:round"
         inkscape:box3dsidetype="3"
         d="m 65.34777,215.44358 36.5756,-12.06528 v 74.01958 l -36.5756,-14.49694 z"
         points="101.92337,203.3783 101.92337,277.39788 65.34777,262.90094 65.34777,215.44358 " />
    </g>
    <ellipse
       style="fill:#ffd42a;stroke-width:0.264583"
       id="path189"
       cx="66.089775"
       cy="263.23087"
       rx="5.0295925"
       ry="4.4738445" />
    <ellipse
       style="fill:#ffd42a;stroke-width:0.264583"
       id="path191"
       cx="81.117958"
       cy="242.4285"
       rx="3.5269918"
       ry="6.4316363" />
    <ellipse
       style="fill:#ffd42a;stroke-width:0.264583"
       id="path193"
       cx="102.19328"
       cy="276.72229"
       rx="4.8927751"
       ry="5.6981854" />
    <ellipse
       style="fill:#ffd42a;stroke-width:0.264583"
       id="path195"
       cx="82.68029"
       cy="269.77121"
       rx="3.2031839"
       ry="4.6475282" />
    <ellipse
       style="fill:#ffd42a;stroke-width:0.264583"
       id="path197"
       cx="103.33005"
       cy="240.22546"
       rx="3.9394877"
       ry="6.7735319" />
    <ellipse
       style="fill:#ffd42a;stroke-width:0.264583"
       id="path199"
       cx="102.63599"
       cy="203.27567"
       rx="5.0990138"
       ry="4.5694366" />
    <ellipse
       style="fill:#ffd42a;stroke-width:0.264583"
       id="path225"
       cx="65.459534"
       cy="215.39932"
       rx="2.9309208"
       ry="4.1565509" />
    <ellipse
       style="fill:#ffd42a;stroke-width:0.264583"
       id="path227"
       cx="65.972435"
       cy="240.66156"
       rx="3.9114654"
       ry="4.6678591" />
    <ellipse
       style="fill:#ffd42a;stroke-width:0.264583"
       id="path229"
       cx="81.833733"
       cy="210.37279"
       rx="3.482368"
       ry="3.032829" />
    <ellipse
       style="fill:#ffd42a;stroke-width:0.264583"
       id="path231"
       cx="125.84681"
       cy="240.90656"
       rx="3.8126643"
       ry="3.6442478" />
    <ellipse
       style="fill:#ffd42a;stroke-width:0.264583"
       id="path233"
       cx="126.97388"
       cy="209.83086"
       rx="2.7460997"
       ry="3.331944" />
    <ellipse
       style="fill:#ffd42a;stroke-width:0.264583"
       id="path239"
       cx="126.2583"
       cy="271.05042"
       rx="3.3844664"
       ry="3.059943" />
    <ellipse
       style="fill:#ffd42a;stroke-width:0.264583"
       id="path241"
       cx="116.07146"
       cy="241.45546"
       rx="4.2291942"
       ry="3.8981388" />
    <path
       style="fill:#ffd42a;stroke-width:0.264583"
       id="path298"
       d="m 27.001475,207.2633 c 0.950367,-0.0498 1.902804,-0.0193 2.853293,-0.0656 0.219456,-0.0107 0.443055,0.002 0.657593,-0.0454 0.29763,-0.0658 0.577802,-0.1944 0.866703,-0.29161 0,0 0.06472,-0.047 0.06472,-0.047 v 0 c -0.02133,-0.0972 0.02267,-0.24268 -0.06397,-0.29161 -0.155192,-0.0876 -0.354806,-0.0353 -0.532749,-0.0453 -0.890064,-0.0501 -1.782736,-0.0124 -2.672692,-0.0656 0,0 -1.1729,0.85216 -1.1729,0.85216 z" />
    <path
       style="fill:#ffd42a;stroke-width:0.264583"
       id="path300"
       d="m 132.82428,219.97737 c 0.0238,0.1855 0.0287,0.3744 0.0713,0.55649 0.26606,1.13672 0.79692,2.2265 1.24631,3.29464 0.73566,1.74853 0.57837,1.37711 1.29354,3.13992 0.37795,0.83038 0.65286,1.70389 1.01944,2.53898 0.10649,0.24258 0.20371,0.49375 0.35569,0.71075 0.0778,0.11106 0.19332,0.30353 0.31895,0.2525 1.9687,-0.79971 1.7416,-0.59301 2.08338,-1.84451 0.15994,-0.7347 0.28739,-1.8924 0.76959,-2.50177 0.10241,-0.12942 0.53813,-0.37908 0.4169,-0.26709 -1.30979,1.20994 -1.53463,0.54103 -0.83526,1.50722 0.43515,0.65788 0.62632,1.43832 0.98802,2.13064 0.11989,0.22947 0.32435,0.6275 0.66096,0.63946 0.15281,0.005 0.28907,-0.0998 0.4336,-0.14972 3.63568,-2.71263 1.48691,-0.2844 1.44533,-1.6284 -0.007,-0.22661 0.10064,-0.44214 0.15095,-0.66322 0,0 -0.0725,0.0337 -0.0725,0.0337 v 0 c -0.12988,0.25686 -0.21827,0.53932 -0.38964,0.77058 -0.69632,0.93966 -1.45426,1.08718 0.18689,0.43087 -0.0864,0.0653 -0.15338,0.17327 -0.25933,0.19584 -0.32037,0.0683 -0.54765,-0.24478 -0.68654,-0.45986 -0.43066,-0.66689 -0.5975,-1.47602 -0.95228,-2.17888 -0.12221,-0.21077 -0.12301,-0.63524 -0.36663,-0.63232 -0.0882,10e-4 -1.85219,0.29101 -2.19651,0.94978 -0.10917,0.20886 -0.16511,0.44171 -0.23604,0.66644 -0.67478,2.13778 0.17831,-0.3296 -0.60365,1.87583 -0.36549,0.76099 -0.86789,1.42411 0.99405,0.12376 0.10495,-0.0733 -0.27049,-0.0294 -0.36678,-0.11375 -0.19539,-0.17113 -0.33652,-0.39846 -0.47143,-0.6204 -0.49465,-0.81372 -0.76603,-1.58115 -1.1334,-2.46688 -0.91567,-2.29693 -1.89321,-4.59519 -2.46623,-7.00682 0,0 -1.39863,0.71619 -1.39863,0.71619 z" />
    <path
       style="fill:#ffd42a;stroke-width:0.264583"
       id="path302"
       d="m 147.53411,218.90608 c 0.29427,1.48003 0.4434,2.98358 0.67297,4.47334 0.0861,0.55895 0.12907,1.12988 0.2929,1.67118 0.13731,0.45362 0.40181,0.85852 0.60271,1.28778 0.0717,0.38408 0.14331,0.76815 0.21496,1.15222 0,0 0.0708,-0.0372 0.0708,-0.0372 v 0 c -0.0237,-0.40922 -0.0474,-0.81844 -0.0711,-1.22767 0.0801,-0.57658 0.21888,-1.14803 0.24026,-1.72976 0.0217,-0.58929 -0.0654,-1.17767 -0.11179,-1.76553 -0.0452,-0.57268 -0.11437,-1.14325 -0.16276,-1.71566 -0.0822,-0.97206 -0.1313,-1.94659 -0.20837,-2.91903 0,0 -1.54057,0.8103 -1.54057,0.8103 z" />
    <path
       style="fill:#ffd42a;stroke-width:0.264583"
       id="path304"
       d="m 142.92862,218.79963 c 1.94708,0.20677 3.91364,-0.0221 5.85783,-0.16823 0.97926,-0.11609 2.00223,-0.0993 2.9583,-0.3788 0.32295,-0.0944 0.62687,-0.245 0.94406,-0.3572 0.19262,-0.0681 0.38986,-0.12241 0.58478,-0.18361 0,0 0.0644,-0.0474 0.0644,-0.0474 v 0 c -0.0504,-0.0464 -0.10912,-0.0851 -0.15117,-0.1391 -0.0572,-0.0735 -0.0544,-0.21283 -0.14352,-0.23959 -0.20178,-0.0605 -0.42168,-0.006 -0.63197,0.007 -0.26382,0.0159 -1.93598,0.18989 -2.09111,0.20573 -1.96035,0.16416 -3.92497,0.31636 -5.89374,0.23111 0,0 -1.4979,1.0702 -1.4979,1.0702 z" />
    <path
       style="fill:#ffd42a;stroke-width:0.264583"
       id="path306"
       d="m 156.39336,218.88904 c 0.14462,1.28556 0.24913,2.57452 0.32417,3.86605 0.0238,0.40889 0.0247,0.81926 0.0615,1.22719 0.03,0.33248 0.0924,0.66125 0.13853,0.99188 0.26318,0.12342 0.52635,0.24683 0.78954,0.37025 0,0 0.0711,-0.0367 0.0711,-0.0367 v 0 c 0.23783,-0.38249 0.47565,-0.76497 0.71347,-1.14745 0.005,-0.35715 0.0261,-0.71441 0.0157,-1.07145 -0.0118,-0.40619 -0.0585,-0.81063 -0.082,-1.2163 -0.0769,-1.32583 -0.11509,-2.65307 -0.0957,-3.98113 0,0 -1.9363,0.99763 -1.9363,0.99763 z" />
    <path
       style="fill:#ffd42a;stroke-width:0.264583"
       id="path308"
       d="m 156.02275,217.36465 c 1.23289,0.33479 2.49557,0.49877 3.76743,0.58155 0.40479,0.0248 0.81027,0.0201 1.21546,0.0296 0.18658,0.004 0.31437,0.007 0.49149,-0.0504 0.61863,-0.42528 0.29321,-0.19468 0.97362,-0.6955 0,0 0.0721,-0.0346 0.0721,-0.0346 v 0 c 0.66221,-0.55256 0.3698,-0.30858 0.8772,-0.73193 -0.14347,-0.009 -0.33158,0.06 -0.46925,0.0807 -0.44919,0.0675 -0.90321,0.091 -1.3569,0.10223 -1.30151,-0.017 -2.60785,-0.0969 -3.86868,-0.44684 0,0 -1.70249,1.16523 -1.70249,1.16523 z" />
    <path
       style="fill:#ffd42a;stroke-width:0.264583"
       id="path310"
       d="m 156.83811,224.40844 c 1.20627,-0.13922 2.28813,-0.79923 3.33701,-1.37045 0.936,-0.52957 1.53842,-0.86773 2.64208,-1.53277 0.037,-0.0223 0.13029,-0.10291 0.0878,-0.0951 -0.19841,0.0365 -0.38419,0.12326 -0.57628,0.18488 0,0 -0.0746,0.0288 -0.0746,0.0288 v 0 c -0.31541,0.13468 -0.63419,0.26172 -0.94622,0.40405 -0.1519,0.0693 -0.58764,0.31669 -0.44471,0.23041 0.31586,-0.19067 2.36378,-1.36629 0.96043,-0.55015 -0.97637,0.54831 -1.98489,1.14341 -3.06766,1.4586 -0.10594,0.0308 -0.2171,0.0395 -0.32565,0.0592 0,0 -1.59219,1.18256 -1.59219,1.18256 z" />
    <path
       style="fill:#ffd42a;stroke-width:0.264583"
       id="path312"
       d="m 156.29261,225.39108 c 0.26565,0.44827 0.46413,0.93118 0.68119,1.40358 0.0666,0.14506 0.12172,0.29635 0.20289,0.43381 0.0675,0.11423 0.11564,0.27234 0.24053,0.31706 0.19539,0.0699 0.41503,-0.005 0.62254,-0.008 0.0373,0.0558 0.0745,0.11154 0.11173,0.16731 0,0 0.0706,-0.0376 0.0706,-0.0376 v 0 c 0.0117,-0.0834 0.0235,-0.1669 0.0352,-0.25035 0.13825,-0.19181 0.33684,-0.35219 0.41475,-0.57543 0.06,-0.1718 -0.19786,-0.74528 -0.24617,-0.86361 -0.19966,-0.48906 -0.41805,-0.97028 -0.6171,-1.4596 0,0 -1.5162,0.8729 -1.5162,0.8729 z" />
    <circle
       id="path349"
       style="fill:#ffd42a;stroke:#000000;stroke-width:0.264583"
       cx="189.21927"
       cy="178.75697"
       r="0.019058367" />
    <circle
       id="path351"
       style="fill:#ffd42a;stroke:#000000;stroke-width:0.264583"
       cx="189.21927"
       cy="178.75697"
       r="0.019058367" />
  </g>
</svg>
