<?xml version="1.0" encoding="UTF-8" standalone="no"?>
<!-- Created with Inkscape (http://www.inkscape.org/) -->

<svg
   width="240mm"
   height="120mm"
   viewBox="0 0 240 120"
   version="1.1"
   id="svg8"
   inkscape:version="1.1.1 (3bf5ae0d25, 2021-09-20, custom)"
   sodipodi:docname="cscl.svg"
   xmlns:inkscape="http://www.inkscape.org/namespaces/inkscape"
   xmlns:sodipodi="http://sodipodi.sourceforge.net/DTD/sodipodi-0.dtd"
   xmlns="http://www.w3.org/2000/svg"
   xmlns:svg="http://www.w3.org/2000/svg"
   xmlns:rdf="http://www.w3.org/1999/02/22-rdf-syntax-ns#"
   xmlns:cc="http://creativecommons.org/ns#"
   xmlns:dc="http://purl.org/dc/elements/1.1/">
  <defs
     id="defs2" />
  <sodipodi:namedview
     id="base"
     pagecolor="#ffffff"
     bordercolor="#666666"
     borderopacity="1.0"
     inkscape:pageopacity="0.0"
     inkscape:pageshadow="2"
     inkscape:zoom="1.5004828"
     inkscape:cx="450.85488"
     inkscape:cy="212.26501"
     inkscape:document-units="mm"
     inkscape:current-layer="layer1"
     showgrid="false"
     showborder="true"
     width="200mm"
     showguides="true"
     inkscape:guide-bbox="true"
     inkscape:window-width="1920"
     inkscape:window-height="1127"
     inkscape:window-x="0"
     inkscape:window-y="0"
     inkscape:window-maximized="1"
     inkscape:pagecheckerboard="0">
    <inkscape:grid
       type="xygrid"
       id="grid815"
       units="mm"
       spacingx="10"
       spacingy="10"
       empspacing="4"
       dotted="false" />
  </sodipodi:namedview>
  <metadata
     id="metadata5">
    <rdf:RDF>
      <cc:Work
         rdf:about="">
        <dc:format>image/svg+xml</dc:format>
        <dc:type
           rdf:resource="http://purl.org/dc/dcmitype/StillImage" />
        <dc:title />
      </cc:Work>
    </rdf:RDF>
  </metadata>
  <g
     inkscape:label="Layer 1"
     inkscape:groupmode="layer"
     id="layer1"
     transform="translate(0,-177)">
    <path
       style="fill:#000000;stroke-width:0.264583"
       id="path386"
       d="m 45.732594,226.66854 c -0.445503,3.2732 -0.546442,6.58346 -0.637236,9.88191 -0.03016,4.06081 -0.01124,8.12274 -0.19517,12.18065 -0.132403,2.92094 -0.238458,4.00901 -0.462711,6.96091 -0.113382,1.21452 -0.221179,2.42957 -0.340146,3.64355 -0.233013,2.37775 -0.508733,4.75124 -0.734367,7.12969 -0.302633,3.19014 -0.536948,6.38486 -0.734946,9.58286 -0.146204,2.80875 -0.127315,5.62392 0.0098,8.43244 0.06715,0.26638 -0.01966,0.62069 0.123307,0.86373 0.515861,-0.34401 1.039082,-0.67723 1.547579,-1.03203 0.01312,-0.009 0.01521,-0.13014 -0.0039,-0.11777 -0.504552,0.32686 -1.001622,0.66512 -1.502431,0.99768 1.605735,0.002 3.200344,-0.26931 4.783939,-0.50858 2.872925,-0.42701 5.658419,-1.26977 8.466587,-1.98759 3.543538,-0.86421 7.181657,-1.21919 10.807734,-1.52623 2.495005,-0.15515 4.998437,-0.29637 7.499626,-0.23296 1.77398,0.045 2.162209,0.11026 3.930851,0.27274 3.163011,0.36636 6.312656,0.88586 9.495448,1.06283 0.528447,0.0294 1.057926,0.0356 1.586889,0.0535 2.925366,0.0571 5.739683,-0.82141 8.571111,-1.42882 1.861219,-0.38053 3.748662,-0.60951 5.640412,-0.76765 0.52598,-0.0872 1.11905,0.02 1.6207,-0.20888 0.30069,-0.13718 0.56729,-0.33926 0.85094,-0.50889 0,0 0.063,-0.0494 0.063,-0.0494 v 0 c 0.0587,-0.0841 0.22304,-0.16118 0.1761,-0.25241 -0.0495,-0.0961 -0.21458,-0.0341 -0.32266,-0.0324 -0.36828,0.006 -0.73214,0.0961 -1.10056,0.0987 -1.93352,0.18761 -3.86143,0.44356 -5.764783,0.83777 -2.839596,0.60732 -5.651783,1.5099 -8.58543,1.48198 -1.543413,-0.0302 -1.778641,-0.0133 -3.356303,-0.13573 -2.60893,-0.20245 -5.19357,-0.6126 -7.790252,-0.92318 -1.804752,-0.17278 -2.117161,-0.23153 -3.926345,-0.29008 -2.486869,-0.0805 -4.972989,0.0638 -7.455797,0.18657 -3.601442,0.24273 -7.204771,0.62564 -10.728348,1.43478 -2.779432,0.70388 -5.537658,1.52689 -8.380606,1.94255 -1.515179,0.22112 -3.04078,0.46359 -4.576831,0.43055 -0.567637,0.31979 -1.133182,0.64332 -1.702914,0.95935 -0.02045,0.0114 -0.02971,0.0806 -0.009,0.0696 0.518718,-0.27589 1.024049,-0.57625 1.536073,-0.86438 0.0584,0.13467 0.01733,0.13561 -0.0087,0.0686 -0.07426,-0.19106 -0.0794,-0.4052 -0.132167,-0.6008 -0.429533,-2.72447 -0.357979,-5.49902 -0.32589,-8.24732 0.112842,-2.73053 0.10832,-3.25312 0.339582,-6.07058 0.390496,-4.75743 0.988264,-9.4959 1.407732,-14.25063 0.104529,-1.20206 0.224533,-2.40289 0.313584,-3.6062 0.385551,-5.20966 0.404717,-10.43357 0.564464,-15.65231 0.139341,-3.36607 0.271328,-6.76729 1.061818,-10.0569 0,0 -1.619707,0.77876 -1.619707,0.77876 z" />
    <path
       style="fill:#000000;stroke-width:0.264583"
       id="path388"
       d="m 47.34955,227.841 c 0.571701,-0.33457 1.154197,-0.65133 1.715103,-1.0037 0.583872,-0.36678 1.766178,-1.29048 2.228985,-1.66002 1.794954,-1.43325 3.525321,-2.94858 5.280191,-4.43007 2.445814,-2.02137 4.867259,-4.08382 7.511479,-5.84625 1.247447,-0.83145 2.117921,-1.32687 3.390214,-2.08157 1.249038,-0.7036 2.509597,-1.39204 3.828413,-1.957 0.120618,-0.0881 0.298738,-0.0793 0.422939,-0.16088 0.05452,-0.0358 0.09563,-0.0907 0.152461,-0.12267 0.10651,-0.06 0.222694,-0.10087 0.334041,-0.1513 0,0 0.07326,-0.0321 0.07326,-0.0321 v 0 c 0.186992,-0.16641 0.381841,-0.32439 0.560977,-0.49924 0.03761,-0.0367 0.08314,-0.0797 0.08596,-0.13218 0.0016,-0.0275 -0.05401,0.0116 -0.07998,0.0208 -0.112111,0.0397 -0.318121,0.13384 -0.410101,0.17437 -2.054487,0.94538 -4.001209,2.10541 -5.95412,3.24043 -1.256109,0.75539 -2.074391,1.22762 -3.310252,2.05834 -2.626852,1.76572 -5.035719,3.82194 -7.469545,5.83859 -1.801048,1.51112 -3.584323,3.04967 -5.443339,4.49001 -0.449183,0.34802 -0.910973,0.67946 -1.366459,1.01918 -0.346527,0.23179 -0.709409,0.44083 -1.039582,0.69538 -0.161507,0.12451 0.354158,-0.20231 0.531236,-0.30346 0,0 -1.041879,0.84335 -1.041879,0.84335 z" />
    <path
       style="fill:#000000;stroke-width:0.264583"
       id="path390"
       d="m 71.59953,209.94462 c 1.529659,0.13516 3.066195,0.11974 4.599964,0.0997 2.216893,-0.0726 4.427857,-0.30981 6.621631,-0.6308 3.153432,-0.57985 6.357332,-0.73798 9.554816,-0.84725 4.075769,-0.13815 8.144139,0.21183 12.206409,0.49079 2.42843,0.14181 4.83267,0.51881 7.24603,0.80281 1.23522,0.14536 1.7552,0.18733 2.97156,0.30153 2.10537,0.22508 4.21729,0.35162 6.33353,0.39622 0.82093,-0.0529 1.78329,0.13788 2.59234,-0.0533 0.32662,-0.0772 0.63021,-0.23104 0.94531,-0.34656 0,0 0.0648,-0.0469 0.0648,-0.0469 v 0 c 0.0106,-0.12126 0.13027,-0.29229 0.0318,-0.36378 -0.16959,-0.12307 -0.41581,-0.0558 -0.62506,-0.0668 -0.5888,-0.0309 -1.17998,0.0111 -1.76873,-0.02 -2.13966,-0.0436 -4.27856,-0.13271 -6.41034,-0.32902 -1.23412,-0.0987 -1.7594,-0.1327 -3.01199,-0.26688 -2.4397,-0.26134 -4.86814,-0.63994 -7.32205,-0.75751 -4.05125,-0.26464 -8.103473,-0.66286 -12.168396,-0.53423 -3.166933,0.089 -6.34021,0.21444 -9.467858,0.76298 -2.188985,0.31932 -4.393311,0.53486 -6.603328,0.64034 -1.512946,0.037 -3.033834,0.0753 -4.538096,-0.12562 0,0 -1.252302,0.8942 -1.252302,0.8942 z" />
    <path
       style="fill:#000000;stroke-width:0.264583"
       id="path392"
       d="m 46.636963,228.38402 c 0.129829,-0.0156 0.260313,-0.0264 0.38948,-0.0467 0.8084,-0.12721 0.647446,-0.14317 1.558698,-0.26687 1.212585,-0.16462 2.440437,-0.1983 3.660399,-0.27767 3.515349,-0.22078 7.035114,-0.36361 10.554335,-0.50624 4.083788,-0.21857 8.156773,0.16473 12.219196,0.52805 4.144007,0.4369 8.301858,0.68918 12.459282,0.95105 3.86652,0.25478 7.721917,0.63974 11.575029,1.04404 2.039998,0.18599 4.082548,0.36312 6.127408,0.48831 0.60753,-0.0569 0.24002,0.0273 1.03371,-0.45914 0,0 0.0642,-0.0478 0.0642,-0.0478 v 0 c 0.49711,-0.45364 0.63036,-0.37923 0.18326,-0.41958 -2.15066,0.0292 -4.30018,-0.0503 -6.44274,-0.24881 -3.85758,-0.37213 -7.711067,-0.78985 -11.578913,-1.04716 -4.174794,-0.23775 -8.352893,-0.43967 -12.510365,-0.91025 -4.06161,-0.37031 -8.132064,-0.7873 -12.21663,-0.548 -3.502802,0.14043 -7.006846,0.25682 -10.506352,0.46815 -1.885006,0.10407 -3.778927,0.17709 -5.627214,0.5957 0,0 -0.942753,0.70291 -0.942753,0.70291 z" />
    <path
       style="fill:#000000;stroke-width:0.264583"
       id="path394"
       d="m 122.3048,208.06438 c -1.4639,2.29741 -3.39302,4.22426 -5.33155,6.11654 -3.39565,3.06195 -6.84184,6.0671 -10.22555,9.14274 -1.80152,1.66636 -3.61361,3.33674 -5.1083,5.29087 -0.12391,0.18003 -0.39522,0.56439 -0.52123,0.77762 -0.0367,0.0621 -0.13894,0.13475 -0.0971,0.19351 0.0334,0.0468 0.39142,-0.0573 0.5695,-0.10206 0,0 0.0728,-0.0331 0.0728,-0.0331 v 0 c 0.14337,-0.0849 0.65987,-0.38006 0.79634,-0.50129 0.26488,-0.23531 0.35762,-0.71534 0.61263,-0.95546 0.35307,-0.52472 0.46482,-0.71662 0.89292,-1.22886 1.16308,-1.39167 2.53035,-2.6 3.82208,-3.86664 3.34964,-3.09882 6.79429,-6.08955 10.19355,-9.13299 0.51498,-0.49713 1.04066,-0.98342 1.54494,-1.4914 1.44997,-1.46061 2.77449,-3.04027 3.95434,-4.72645 0,0 -1.17546,0.51697 -1.17546,0.51697 z" />
    <path
       style="fill:#000000;stroke-width:0.264583"
       id="path396"
       d="m 107.08949,229.29233 c -0.31576,3.45657 -0.5853,6.9171 -0.91967,10.37232 -0.0884,0.97281 -0.18569,1.94486 -0.26527,2.91843 -0.16655,2.03746 -0.28864,3.8691 -0.35325,5.91247 -0.0948,2.99727 -0.0436,5.99511 0.001,8.99255 0.15861,5.39892 0.15482,10.79781 -0.0367,16.19528 -0.10135,2.62516 -0.22734,5.25145 -0.46605,7.86824 -0.0733,0.75046 -0.28403,0.69891 0.5884,0.35406 0,0 0.0717,-0.0355 0.0717,-0.0355 v 0 c 0.77514,-0.47096 0.69071,-0.24303 0.67053,-0.98793 0.0257,-2.58032 0.12863,-5.1593 0.20139,-7.73852 0.0862,-5.37816 0.0435,-10.75831 -0.0921,-16.13537 -0.0673,-2.98349 -0.14304,-5.96734 -0.0678,-8.95171 0.0508,-2.01674 0.16181,-3.88235 0.32489,-5.89312 0.079,-0.97441 0.18083,-1.94683 0.27124,-2.92024 0.38536,-3.5265 0.75934,-7.05948 1.32688,-10.56205 0,0 -1.25564,0.61111 -1.25564,0.61111 z" />
    <path
       style="fill:#000000;stroke-width:0.264583"
       id="path398"
       d="m 106.93279,280.20078 c 0.1984,-0.0851 0.40287,-0.15721 0.5952,-0.25525 0.3042,-0.15505 0.59891,-0.32836 0.89233,-0.50297 0.70442,-0.4192 1.40802,-0.84014 2.10082,-1.27827 1.39217,-0.88041 2.71074,-1.87798 4.02824,-2.86371 3.85963,-3.05759 7.50754,-6.36851 11.23311,-9.58519 1.7968,-1.57401 3.65945,-3.07119 5.46394,-4.63596 0.43085,-0.34674 0.75617,-0.77921 1.02721,-1.2551 0.10546,-0.26315 -0.16381,-0.0907 -0.36679,-0.0809 -0.0944,0.005 -0.18782,-0.0213 -0.28172,-0.032 0,0 -0.0706,0.0377 -0.0706,0.0377 v 0 c -0.0726,0.0955 -0.13031,0.20433 -0.21772,0.28643 -0.17219,0.16173 -0.39352,0.204 -0.47592,0.42729 -0.19619,0.46108 -0.56797,0.81334 -0.92637,1.1512 -1.66432,1.53114 -3.40891,2.97254 -5.09178,4.48304 -3.70369,3.26244 -7.3657,6.58244 -11.27933,9.595 -1.40401,1.03494 -1.49169,1.1216 -2.88722,2.06899 -0.41457,0.28144 -0.84271,0.54279 -1.25344,0.82982 -0.024,0.0168 -0.0185,0.0609 -0.0433,0.0764 -0.60783,0.37964 -0.85087,0.48078 -1.44893,0.76961 0,0 -0.99776,0.76382 -0.99776,0.76382 z" />
    <path
       style="fill:#000000;stroke-width:0.264583"
       id="path400"
       d="m 123.97441,209.82246 c 0.64578,2.9157 1.17316,5.85426 1.65084,8.80153 0.51856,3.34692 1.02123,6.69748 1.30389,10.07412 0.19364,2.31328 0.19589,2.90165 0.29592,5.21412 0.14177,4.91401 -0.008,9.82918 -0.16301,14.74075 -0.0883,3.61956 -0.10252,7.24151 -0.26023,10.85903 -0.0389,1.00778 -0.11044,2.01881 -0.0376,3.02663 -0.004,0.3189 -0.008,0.14185 0.57404,-0.0964 0,0 0.0716,-0.0356 0.0716,-0.0356 v 0 c 0.55417,-0.34039 0.59263,-0.15868 0.58465,-0.49444 0.0731,-1.00311 0.0408,-2.00929 0.0154,-3.01389 -0.0719,-3.59993 0.0516,-7.19951 0.1436,-10.79808 0.0872,-4.90054 0.18969,-9.80444 0.0751,-14.70499 -0.10857,-2.35395 -0.10989,-2.85912 -0.30722,-5.2148 -0.21559,-2.5736 -0.5355,-5.12691 -0.92944,-7.67865 -0.12358,-0.80044 -0.2539,-1.59981 -0.38085,-2.39971 -0.21867,-1.42356 -0.41995,-2.84978 -0.64474,-4.27237 -0.20671,-1.30817 -0.47203,-2.60452 -0.70339,-3.90805 -0.0424,-0.2387 -0.0761,-0.47885 -0.1142,-0.71828 0,0 -1.17439,0.61909 -1.17439,0.61909 z" />
    <path
       style="fill:#000000;stroke-width:0.264583"
       id="path402"
       d="m 49.849187,281.55777 c 0.233895,-1.44378 0.845553,-2.79435 1.678184,-3.9903 0.188338,-0.27052 0.399502,-0.52441 0.599254,-0.78661 0.4077,-0.18291 0.480825,-0.70718 0.814721,-0.96255 0.174501,-0.13346 0.386755,-0.20848 0.580134,-0.31272 0,0 0.0623,-0.0502 0.0623,-0.0502 v 0 c -0.936606,0.51287 -1.898578,1.00367 -2.61566,1.8216 -0.224822,0.27803 -0.466881,0.54296 -0.674465,0.83409 -0.866498,1.21521 -1.453349,2.64786 -1.772166,4.09929 0,0 1.327697,-0.65261 1.327697,-0.65261 z" />
    <path
       style="fill:#000000;stroke-width:0.264583"
       id="path404"
       d="m 61.627781,271.10667 c 1.667481,-1.1712 3.377599,-2.27978 5.070763,-3.41308 1.123411,-0.88654 0.590537,-0.42498 1.602063,-1.38069 0,0 -0.07427,0.0297 -0.07427,0.0297 v 0 c -1.762572,1.23162 -0.893371,0.64171 -2.605445,1.7729 -1.680032,1.12671 -3.404108,2.19518 -5.024278,3.40691 0,0 1.031168,-0.41577 1.031168,-0.41577 z" />
    <path
       style="fill:#000000;stroke-width:0.264583"
       id="path406"
       d="m 76.110236,263.03682 c 1.388761,-1.20054 3.006374,-2.09712 4.528717,-3.1132 0.136716,-0.11206 0.273431,-0.22412 0.410147,-0.33617 0,0 -0.07452,0.0291 -0.07452,0.0291 v 0 c -0.303427,0.17672 -0.606854,0.35343 -0.910278,0.53015 -1.678749,1.006 -3.386701,2.00431 -4.883266,3.27327 0,0 0.9292,-0.38314 0.9292,-0.38314 z" />
    <path
       style="fill:#000000;stroke-width:0.264583"
       id="path408"
       d="m 73.093889,213.43674 c 0.675547,2.31125 0.983623,4.69991 1.279929,7.08242 0.04771,0.32038 0.393341,2.67267 0.465794,3.03886 0.416782,1.71546 0.230545,0.85873 0.560306,2.56983 0,0 0.07094,-0.037 0.07094,-0.037 v 0 c -0.0038,-1.89689 -0.01865,-0.9347 0.04761,-2.88655 0.0016,-0.68447 -0.08664,-2.5661 -0.114633,-3.2239 -0.218427,-2.42867 -0.542335,-4.84358 -1.012772,-7.23737 0,0 -1.297178,0.69368 -1.297178,0.69368 z" />
    <path
       style="fill:#000000;stroke-width:0.264583"
       id="path410"
       d="m 77.110891,236.10204 c 0.244538,1.59926 0.49422,3.1951 0.667443,4.80456 0.05134,0.44723 0.125063,1.38472 0.300302,1.83074 0.09806,0.2496 0.278077,0.45862 0.417118,0.68792 0,0 0.07086,-0.0371 0.07086,-0.0371 v 0 c 0.07376,-0.33965 0.174588,-0.67454 0.221276,-1.01896 0.100333,-0.74012 0.03337,-1.24271 -0.01085,-1.98474 -0.166735,-1.60984 -0.408397,-3.20661 -0.670877,-4.80342 0,0 -0.995265,0.52103 -0.995265,0.52103 z" />
    <path
       style="fill:#000000;stroke-width:0.264583"
       id="path412"
       d="m 80.771859,251.0821 c 0.02106,1.60063 0.115763,3.19877 0.175715,4.7981 0.01476,0.70084 0.01125,1.40229 0.004,2.10322 -0.0021,0.21428 -0.03038,0.42899 -0.01461,0.6427 0.02535,0.34338 0.145309,0.70632 0.239276,1.03548 0,0 0.07172,-0.0354 0.07172,-0.0354 v 0 c 0.163655,-0.40021 0.425217,-1.00168 0.530807,-1.41914 0.233339,-0.92252 0.185865,-1.89021 0.14551,-2.82956 -0.07116,-1.57359 -0.173201,-3.14404 -0.347916,-4.70993 0,0 -0.804466,0.41457 -0.804466,0.41457 z" />
    <path
       style="fill:#000000;stroke-width:0.264583"
       id="path414"
       d="m 84.571609,258.57102 c 1.394275,0.6095 2.990535,0.49212 4.478438,0.511 1.329571,-0.016 2.666875,0.0524 3.990427,-0.11986 1.900071,-0.34268 1.007414,-0.21914 2.674083,-0.39771 0,0 0.06429,-0.0476 0.06429,-0.0476 v 0 c -2.087078,0.15807 -0.140234,0.0783 -2.095166,-0.0256 -1.273321,-0.0676 -2.54956,0.0671 -3.823158,0.004 -1.498383,-0.0427 -3.035998,-0.0193 -4.485428,-0.45343 0,0 -0.803484,0.52875 -0.803484,0.52875 z" />
    <path
       style="fill:#000000;stroke-width:0.264583"
       id="path416"
       d="m 99.98422,259.78565 c 1.66163,-0.0894 3.31182,0.14412 4.96275,0.28285 0.48251,0.0405 0.96625,0.0647 1.44937,0.0971 1.86856,-0.0486 3.63858,-0.63548 5.43224,-1.08017 0.56838,-0.14092 1.14295,-0.25555 1.71443,-0.38332 0,0 0.0637,-0.0484 0.0637,-0.0484 v 0 c -2.16976,0.47858 -4.34685,1.08554 -6.58607,1.06475 -0.4811,-0.0327 -0.96283,-0.0572 -1.4433,-0.0981 -1.63567,-0.13926 -3.26685,-0.36601 -4.91324,-0.3286 0,0 -0.67986,0.49395 -0.67986,0.49395 z" />
    <path
       style="fill:#000000;stroke-width:0.264583"
       id="path418"
       d="m 118.7438,261.47893 c 0.8455,0.12979 1.69747,0.29875 2.55599,0.31346 0.33727,0.006 2.18443,-0.095 2.55584,-0.11419 0,0 0.0648,-0.0469 0.0648,-0.0469 v 0 c -0.33308,-0.0345 -0.66784,-0.0554 -0.99925,-0.10336 -0.33179,-0.048 -0.658,-0.12928 -0.98871,-0.18426 -0.81577,-0.13564 -1.63821,-0.23404 -2.45179,-0.38446 0,0 -0.73688,0.51971 -0.73688,0.51971 z" />
    <path
       style="fill:#000000;stroke-width:0.264583"
       id="path420"
       d="m 51.073102,280.79648 c 1.728616,-1.67739 3.534823,-3.27081 5.336741,-4.86829 4.063513,-3.58948 7.866653,-7.45659 11.811712,-11.17232 0.905772,-0.85312 1.824138,-1.69277 2.736207,-2.53915 5.025623,-4.46788 9.835398,-9.16606 14.62419,-13.88408 2.92663,-2.82453 5.798661,-5.70877 8.795374,-8.45977 0.610119,-0.5346 0.502333,-0.45047 1.047398,-0.89622 0.140285,-0.11473 0.589942,-0.41864 0.431366,-0.33091 -1.32062,0.7306 -1.665747,1.0857 -1.022585,0.49194 0.08631,-0.0364 0.172625,-0.0727 0.258937,-0.10912 0,0 0.07271,-0.0334 0.07271,-0.0334 v 0 c 0.108135,-0.0866 0.21627,-0.17313 0.324403,-0.2597 0.07619,-0.0927 0.338182,-0.32698 0.228557,-0.27816 -1.255919,0.55926 -1.725697,1.03776 -2.618401,1.94066 -2.814018,2.7552 -5.590892,5.54868 -8.406524,8.30234 -4.723736,4.71213 -9.503418,9.3682 -14.4756,13.8198 -2.763975,2.57094 -2.729516,2.52169 -5.474759,5.14488 -3.085589,2.9484 -6.149575,5.92225 -9.396512,8.6956 -1.896243,1.64682 -3.783214,3.30355 -5.644544,4.9897 0,0 1.371332,-0.55383 1.371332,-0.55383 z" />
    <path
       style="fill:#000000;stroke-width:0.264583"
       id="path422"
       d="m 89.652286,246.93309 c -1.574469,1.00169 -0.743021,0.20603 -0.524383,0.50206 0.05357,0.0725 0.105825,0.16773 0.0874,0.25599 -0.03496,0.16743 -0.130405,0.32106 -0.235976,0.45562 -0.130919,0.16687 -0.38077,0.24064 -0.46349,0.43594 -0.07137,0.1685 0.283785,-0.23111 0.425678,-0.34667 -0.236387,0.006 -0.478081,0.0667 -0.709163,0.0166 -0.41748,-0.0905 -0.839314,-0.39744 -0.970237,-0.82409 -0.05665,-0.18462 -0.04536,-0.39704 0.01926,-0.57901 0.06081,-0.17123 0.519078,-0.41042 0.33818,-0.42754 -0.214251,-0.0203 -0.331086,0.27503 -0.496628,0.41254 0.136303,0.0298 0.279212,0.0379 0.408913,0.0893 0.83161,0.32966 0.405596,1.18608 1.587617,-0.74644 0.0945,-0.1545 -0.118586,-0.34588 -0.135303,-0.52622 -0.01741,-0.18771 0.02281,-0.37634 0.0342,-0.56451 0.761262,-0.89089 -0.330306,-0.001 -0.415454,0.11477 -0.05284,0.0718 0.09286,0.15953 0.09898,0.24848 0.0086,0.12462 -0.0019,0.25806 -0.05642,0.37049 -0.159578,0.32957 -1.315336,1.0773 0.605192,-0.32941 -0.540589,-0.11812 -0.607933,-0.0585 -1.039421,-0.49725 -0.13594,-0.13824 -0.26203,-0.29751 -0.329589,-0.47924 -0.03914,-0.10529 0.132432,-0.37341 0.02655,-0.33593 -1.189588,0.42112 -0.547799,0.5965 -0.0977,0.88713 0.180028,0.20697 0.371229,0.40472 0.540088,0.62089 0.283324,0.36273 0.537488,0.76986 0.768319,1.16922 0.0394,0.0682 0.03695,0.2426 0.108534,0.2098 1.558462,-0.71417 1.593242,-0.45057 1.207842,-1.13796 -0.0393,-0.15971 -0.152003,-0.39204 0.0024,-0.55012 0.069,-0.0707 0.349536,-0.17647 0.27396,-0.11288 -0.78369,0.65938 -1.288399,0.63641 -0.423516,0.65444 0.525357,-0.31494 1.050716,-0.62989 1.576076,-0.94483 -0.02752,-0.0697 -0.008,-0.2011 -0.08256,-0.20908 -0.245729,-0.0264 -0.487558,0.0812 -0.731337,0.12183 0,0 -0.07018,0.0384 -0.07018,0.0384 v 0 c -0.952254,0.88963 -1.05701,0.98326 0.71292,-0.0356 -0.977014,0.0888 -0.957154,0.17968 -2.159267,0.82948 -0.0864,0.0467 -0.172072,0.10677 -0.226404,0.1886 -0.156472,0.23566 -0.117475,0.43481 -0.119531,0.69926 0.03551,0.75638 -0.06407,0.64295 1.398887,-0.34704 0.06634,-0.0449 -0.118976,-0.10786 -0.171448,-0.16839 -0.132448,-0.15276 -0.248671,-0.31921 -0.382611,-0.47067 -0.579078,-0.65484 -0.568992,-0.60713 -1.236784,-1.18822 -0.200338,-0.12962 -0.364567,-0.42095 -0.601012,-0.38886 -0.49008,0.0665 -0.942374,0.34813 -1.333111,0.65132 -0.117007,0.0908 -0.08933,0.29152 -0.07142,0.43853 0.05999,0.4924 0.267245,0.82453 0.679807,1.10331 0.161753,0.10931 0.364511,0.13993 0.546764,0.2099 0.592712,-0.31063 1.221441,-0.56054 1.77813,-0.93187 0.398409,-0.26576 0.159782,-1.14729 -0.234741,-1.04584 -0.462867,0.11903 -0.886238,0.37894 -1.272971,0.65974 -0.131377,0.0954 -0.15216,0.28685 -0.228238,0.43028 -0.04294,0.21417 -0.104156,0.42547 -0.128823,0.6425 -0.02384,0.20984 -0.222866,0.58996 -0.01619,0.63337 0.446391,0.0937 0.903713,-0.17378 1.320321,-0.3595 0.07267,-0.0324 -0.119856,-0.10695 -0.190066,-0.14437 -0.429453,-0.22888 -0.450805,-0.18253 -0.957353,-0.25129 -0.476853,0.25373 -0.991603,0.44642 -1.430562,0.7612 -0.147812,0.106 -0.234651,0.29147 -0.282202,0.46703 -0.05572,0.20574 -0.05864,0.43009 -0.01741,0.63922 0.188257,0.95499 0.762813,1.05787 1.610493,1.05923 0.587303,-0.30885 1.202901,-0.56902 1.76191,-0.92654 0.345345,-0.22087 0.904817,-0.93865 0.415253,-1.33993 -0.399399,-0.32737 -1.593995,0.59631 -1.434306,0.58566 0,0 0.942226,-0.39287 0.942226,-0.39287 z" />
    <path
       style="fill:#000000;stroke-width:0.264583"
       id="path424"
       d="m 93.819304,240.76106 c 1.665722,-2.05053 3.459083,-3.9941 5.180732,-5.99788 1.634814,-1.95169 3.102384,-4.034 4.656494,-6.04873 1.14342,-1.48233 1.08231,-1.38402 2.25515,-2.79991 2.13344,-2.60423 4.52066,-4.9747 6.99844,-7.24694 1.7562,-1.56233 3.25217,-3.3734 4.71452,-5.20416 0.75624,-0.9982 1.59281,-1.92868 2.43994,-2.84914 0.21199,-0.32228 0.71124,-0.48123 -0.0279,-0.31008 0,0 -0.0742,0.03 -0.0742,0.03 v 0 c -0.47158,0.24321 -0.81935,0.37961 -1.12784,0.79741 -0.80001,0.91716 -1.59189,1.84175 -2.32943,2.8106 -1.42228,1.80369 -2.8763,3.5879 -4.58695,5.13184 -2.43546,2.28386 -4.80559,4.64157 -6.92174,7.22999 -2.36747,2.89624 -4.5223,5.95566 -6.901846,8.84194 -1.763019,2.03249 -3.585204,4.01277 -5.324948,6.06531 0,0 1.049578,-0.45023 1.049578,-0.45023 z" />
    <path
       style="fill:#000000;stroke-width:0.264583"
       id="path426"
       d="m 68.991389,214.99831 c 0.07218,-0.75837 -0.03503,-1.5167 -0.03053,-2.27431 0.0019,-0.32391 0.05305,-0.96857 0.07651,-1.29699 0.03988,-0.43406 -0.08713,-0.9315 0.227885,-1.29474 0.07523,-0.0867 0.371089,-0.27041 0.280943,-0.1993 -0.812366,0.64084 -1.015598,0.48787 -0.212955,0.61262 2.463069,1.11756 4.462518,3.0227 6.445443,4.81733 2.50572,2.43305 4.674706,5.20174 6.505363,8.17426 0.349171,0.56696 0.670192,1.15078 1.005287,1.72618 1.673826,3.05069 2.905257,6.31178 4.148026,9.55372 1.074285,2.862 2.243855,5.68361 3.480737,8.47865 1.286431,2.95146 3.035826,5.64631 4.831162,8.3051 1.372367,1.98001 2.76938,3.94499 4.011456,6.01119 0.805064,1.33924 1.060284,1.85225 1.799464,3.22546 1.56988,3.05302 2.95759,6.19512 4.388,9.31483 1.02583,2.2573 2.08048,4.50207 3.0537,6.78276 0.3884,0.9838 0.23661,0.71178 0.73121,1.5655 0.10024,0.17303 0.16142,0.38075 0.31191,0.51242 0.13031,0.11402 0.32356,0.12344 0.48534,0.18516 0,0 0.0706,-0.0377 0.0706,-0.0377 v 0 c 0.10927,-0.21048 0.27802,-0.39958 0.32782,-0.63144 0.0467,-0.21724 -0.0163,-0.44503 -0.0494,-0.66474 -0.13209,-0.87707 -0.18302,-0.84022 -0.54505,-1.67955 -1.03188,-2.25366 -2.05589,-4.511 -3.11691,-6.75117 -1.49508,-3.08969 -2.94913,-6.19924 -4.47888,-9.27189 -0.78196,-1.44526 -0.96352,-1.81602 -1.80577,-3.2312 -1.233509,-2.0726 -2.630205,-4.04038 -4.000027,-6.02373 -0.726914,-1.08599 -1.247196,-1.83772 -1.925796,-2.95234 -1.053087,-1.72973 -1.97644,-3.53583 -2.801663,-5.38434 -1.261797,-2.78174 -2.45959,-5.58895 -3.491507,-8.46562 -1.330608,-3.20627 -2.64336,-6.43506 -4.32412,-9.47747 -0.340715,-0.57453 -0.666948,-1.15789 -1.022146,-1.72357 -1.860759,-2.96342 -4.060381,-5.72399 -6.549208,-8.18274 -1.192762,-1.13984 -2.383171,-2.26361 -3.695107,-3.26778 -0.561488,-0.42978 -1.315326,-0.96553 -1.949818,-1.30708 -0.249277,-0.13419 -0.516501,-0.23197 -0.77475,-0.34795 -1.011767,-0.17543 -0.568127,-0.20918 -1.988497,0.60196 -0.07465,0.0426 -0.125751,0.12689 -0.151045,0.20906 -0.027,0.0877 7.93e-4,0.18356 0.0019,0.27533 0.0063,0.48354 0.0066,0.40066 0.02574,0.92705 0.02045,0.17316 0.123216,1.03264 0.136207,1.18996 0.06028,0.73009 0.05662,1.46639 0.195747,2.1891 0,0 0.372721,-0.19202 0.372721,-0.19202 z" />
    <path
       style="fill:#000000;stroke-width:0.264583"
       id="path428"
       d="m 48.636549,226.07668 c 2.102789,1.58867 4.516072,2.71983 6.88761,3.84347 2.38493,1.04605 4.739804,2.16861 7.167358,3.11526 0.8475,0.33049 3.054602,1.11836 3.899411,1.42242 4.308602,1.57173 8.478387,3.49293 12.603969,5.48856 2.772074,1.36306 5.4889,2.84265 8.314711,4.09506 1.777556,0.78782 2.491534,1.03203 4.311444,1.72548 3.097003,1.07527 6.206013,2.12092 9.227718,3.39782 1.7809,0.75257 2.27748,1.00906 4.00076,1.8244 1.64372,0.78614 3.24513,1.65676 4.87938,2.46172 1.27819,0.62958 2.57722,1.21796 3.86736,1.82245 1.78007,0.82799 3.54261,1.69252 5.28547,2.59605 1.0212,0.58707 2.09198,1.06034 3.19086,1.47833 1.03482,0.36646 2.04738,0.79051 3.0685,1.19263 0.98678,0.37317 1.98444,0.72525 2.99628,1.02534 0.27824,0.0825 0.55238,0.18678 0.83888,0.2331 0.32312,0.0522 0.65338,0.0406 0.98007,0.061 0.27988,0.0129 0.55976,0.0259 0.83964,0.0388 0,0 0.0663,-0.0447 0.0663,-0.0447 v 0 c -0.10913,-0.12888 -0.21826,-0.25776 -0.32739,-0.38663 -0.15208,-0.13935 -0.27737,-0.31533 -0.45625,-0.41804 -0.23594,-0.13548 -0.50832,-0.19441 -0.76542,-0.28342 -0.98696,-0.3417 -1.99592,-0.62409 -2.95672,-1.0393 -1.01505,-0.41729 -2.02191,-0.85577 -3.06574,-1.19847 -1.11017,-0.41333 -2.20647,-0.85749 -3.25191,-1.41916 -1.77752,-0.87727 -3.55803,-1.74985 -5.37492,-2.54352 -1.31597,-0.58266 -2.63641,-1.15547 -3.93738,-1.77134 -1.10689,-0.524 -2.05948,-1.00799 -3.16531,-1.54489 -0.59844,-0.29054 -1.19937,-0.57592 -1.79905,-0.86388 -1.51391,-0.69861 -2.486,-1.16458 -4.03681,-1.80766 -3.029499,-1.25624 -6.150646,-2.2671 -9.225977,-3.4011 -1.77365,-0.67677 -2.571919,-0.95608 -4.307819,-1.71892 -2.832417,-1.24469 -5.545495,-2.7379 -8.329448,-4.08347 -4.125585,-1.98645 -8.279064,-3.93277 -12.578519,-5.51873 -1.176999,-0.42485 -2.714562,-0.97113 -3.883756,-1.42737 -2.42457,-0.94611 -4.785121,-2.04592 -7.156733,-3.11496 -2.157706,-1.03289 -4.401293,-2.06764 -6.27336,-3.58512 -0.137163,-0.11118 -0.259927,-0.23903 -0.38989,-0.35855 0,0 -1.143339,0.70739 -1.143339,0.70739 z" />
    <path
       style="fill:#000000;stroke-width:0.264583"
       id="path430"
       d="m 108.95931,230.1579 c -0.17478,0.0535 -0.35365,0.0951 -0.52434,0.16056 -2.0443,0.7835 -3.98437,2.21052 -5.62613,3.66441 -0.43368,0.38405 -0.84486,0.79279 -1.26729,1.18919 -2.676031,2.68926 -4.989984,5.70593 -7.336137,8.67916 -1.888148,2.3563 -3.670554,4.79392 -5.474917,7.21414 -1.46196,1.92548 -2.85411,3.90223 -4.355198,5.7979 -0.850264,0.96879 -1.697709,1.93776 -2.51706,2.93297 -0.726975,0.91759 -1.595895,1.7045 -2.434138,2.51672 -0.593026,0.59561 -1.222851,1.15215 -1.85793,1.70205 -0.247034,0.25529 -0.809694,0.54374 -0.04463,0.26004 0.187113,-0.0397 0.374227,-0.0794 0.56134,-0.1191 0,0 0.0727,-0.0334 0.0727,-0.0334 v 0 c 0.224306,-0.12575 0.448612,-0.2515 0.67292,-0.37725 0.374801,-0.16474 0.701731,-0.31583 0.962139,-0.64183 0.531603,-0.53502 1.063194,-1.0698 1.598469,-1.60117 0.832403,-0.8112 1.683227,-1.60816 2.399957,-2.52761 0.80642,-0.97621 1.642993,-1.9262 2.442178,-2.90813 1.433647,-1.90555 2.796111,-3.86344 4.247795,-5.75565 1.77695,-2.4001 3.520644,-4.82576 5.376505,-7.16627 2.336218,-2.97729 4.632977,-6.00756 7.350617,-8.65445 1.12673,-1.02648 1.35062,-1.27805 2.5227,-2.17314 0.37214,-0.28419 0.81976,-0.47844 1.14158,-0.81856 0.18842,-0.19913 -0.56498,0.16176 -0.72839,0.38187 -0.2464,0.33188 1.16727,-0.7107 1.14972,-0.46456 0,0 1.66754,-1.25791 1.66754,-1.25791 z" />
    <path
       style="fill:#ffff00;stroke-width:0.264583"
       id="path432"
       d="m 94.823898,242.16742 c -0.882975,0.18251 -1.257827,-0.26479 -1.921108,-0.72516 -0.04483,-0.0477 -0.09472,-0.0911 -0.134482,-0.14307 -0.02484,-0.0325 -0.03163,-0.0768 -0.05776,-0.10831 -0.08309,-0.10007 -0.553424,-0.13766 -0.669594,-0.19459 -0.167572,-0.0821 -0.310351,-0.20729 -0.465527,-0.31094 -0.312999,-0.38803 -0.542017,-0.57494 -0.646462,-1.0844 -0.03303,-0.1611 0.182457,-0.52004 0.02024,-0.49295 -0.320929,0.0536 -0.661212,0.30514 -0.757179,0.61603 -0.05785,0.18742 0.333653,0.22125 0.449985,0.37917 0.17839,0.24217 0.278857,0.53302 0.418287,0.79953 0.12541,0.77066 0.331724,1.16129 -0.07615,1.89035 -0.121295,0.2168 -0.637918,0.74155 -0.540718,0.51292 0.118237,-0.2781 0.594648,-0.37023 0.608399,-0.67212 0.01056,-0.23188 -0.414679,-0.23354 -0.558856,-0.41546 -0.178903,-0.22574 -0.255955,-0.51608 -0.383934,-0.77412 -1.219078,0.0394 0.750512,-1.4158 0.288901,-1.36344 -0.315912,0.0358 -0.593884,0.31749 -0.742717,0.59844 -0.06427,0.12133 0.224094,0.19036 0.253841,0.32441 0.117192,0.5281 -0.142383,0.76596 -0.39252,1.18226 -1.282552,0.70774 0.0079,0.0711 0.06983,-0.36983 0.02596,-0.18485 -0.349477,-0.15552 -0.479192,-0.28975 -0.10409,-0.1077 -0.193794,-0.25602 -0.192982,-0.4058 0.0013,-0.23165 1.125903,-1.1261 -0.447598,0.26815 0.141856,0.0908 0.318775,0.14227 0.425566,0.27255 0.234302,0.28583 0.365022,0.81871 0.296077,1.18131 -0.03167,0.16657 -0.399997,0.49125 -0.235302,0.45096 1.68166,-0.41141 0.840417,-0.5972 0.413753,-0.75976 -0.185571,-0.29674 -0.500396,-0.56615 -0.203518,-0.95501 0.117602,-0.15404 0.450229,-0.47615 0.503939,-0.28994 0.07076,0.24531 -0.406593,0.39863 -0.398971,0.65383 0.0072,0.24314 0.352634,0.35668 0.435978,0.5852 0.102711,0.28163 0.06884,0.59559 0.103262,0.89338 -0.09377,0.31679 -0.187547,0.63359 -0.281321,0.95039 -0.192201,0.25501 -0.460478,0.46756 -0.576601,0.76503 -0.05426,0.13899 0.446487,-0.11558 0.373983,-0.24599 -0.09105,-0.16377 -0.396306,0.0161 -0.556167,-0.0817 -0.406699,-0.24868 -0.150173,-0.54201 -0.03344,-0.81747 -0.149582,0.1109 -0.5167,0.15932 -0.448749,0.33269 0.0819,0.20894 0.453668,0.0683 0.649142,0.17859 0.584859,0.32984 1.161063,1.16586 0.767254,1.85712 -0.08802,0.1545 -0.287163,0.2098 -0.430741,0.31471 0.216508,-0.25035 0.622805,-0.42113 0.649531,-0.75103 0.01998,-0.24664 -0.408726,-0.29616 -0.548143,-0.50059 -0.148656,-0.21797 -0.251124,-0.47447 -0.294346,-0.73474 -0.03447,-0.20759 0.262839,-0.54787 0.0681,-0.62762 -0.211793,-0.0867 -0.543869,0.21118 -0.527539,0.43946 0.01498,0.20917 0.384617,0.16724 0.576924,0.25086 0.394171,0.46086 0.67465,0.66165 0.791424,1.28519 0.03064,0.16361 -0.219572,0.53778 -0.05847,0.49593 1.936141,-0.50301 0.971756,-0.59604 0.640905,-1.17352 -0.148153,-0.25859 -0.221689,-0.55329 -0.332536,-0.82994 -0.0448,-0.57906 -0.200456,-1.17058 0.157972,-1.70761 0.122714,-0.18386 0.675836,-0.5559 0.545137,-0.37762 -0.225224,0.3072 -0.681313,0.42977 -0.837938,0.777 -0.06502,0.14415 0.233092,0.21473 0.336701,0.3342 0.117348,0.1353 0.216357,0.28548 0.324538,0.42822 0.156874,0.0737 0.313748,0.14749 0.470622,0.22123 0,0 0.0714,-0.0361 0.0714,-0.0361 v 0 c 0.167957,-0.25473 0.335915,-0.50946 0.50387,-0.76419 -0.01098,-0.11755 0.02463,-1.12893 -0.44844,-1.07663 -0.238993,0.0264 -1.830845,0.39915 -2.151655,1.05682 -0.342881,0.7029 -0.227356,1.05602 -0.197239,1.82029 0.08788,0.30792 0.134662,0.63068 0.263642,0.92377 0.101737,0.23119 0.170449,0.66735 0.42033,0.63048 1.611418,-0.23776 2.116463,-1.098 1.267894,-2.17834 -0.178964,-0.22784 -0.431311,-0.38695 -0.646967,-0.58043 -1.031079,-0.38253 -1.020699,-0.5885 -2.227678,0.58203 -0.173146,0.16791 -0.133858,0.47499 -0.110652,0.71507 0.0186,0.19247 0.38516,1.44794 0.785477,1.44904 0.657521,0.002 1.247362,-0.41646 1.871043,-0.62468 0.146775,-0.14622 0.355955,-0.24943 0.440322,-0.43865 0.346126,-0.77629 -0.295542,-1.68063 -0.987734,-1.98203 -0.265721,-0.1157 -0.583676,-0.22378 -0.859126,-0.13365 -0.590553,0.19321 -1.072679,0.62745 -1.609016,0.94118 -0.06929,0.18863 -0.218498,0.36521 -0.207872,0.56588 0.02029,0.38321 0.475728,0.80249 0.891979,0.64224 0.952344,-0.36663 2.074407,-1.00339 2.56835,-1.98372 0.159417,-0.31639 0.187462,-0.68331 0.281194,-1.02497 -0.06856,-0.31742 -0.145611,-1.51308 -0.816256,-1.52779 -0.147172,-0.003 -1.90119,0.36786 -2.26804,0.92517 -0.121372,0.18439 -0.193339,0.4179 -0.177308,0.63807 0.01561,0.21445 0.1777,0.39161 0.266549,0.58742 0.156771,0.0929 0.29603,0.33182 0.470311,0.27863 0.618564,-0.18877 1.184245,-0.54624 1.697196,-0.94012 0.155868,-0.11968 0.21037,-0.34646 0.232635,-0.54171 0.05349,-0.46907 -0.160192,-0.91547 -0.507185,-1.21954 -0.157454,-0.13798 -0.372946,-0.19036 -0.559422,-0.28553 -0.490636,0.22932 -1.020011,0.38946 -1.471912,0.68795 -0.400753,0.26471 -0.06761,1.38296 0.438153,1.32395 0.640395,-0.0747 1.229506,-0.39577 1.820407,-0.65369 0.207704,-0.0907 0.373407,-0.25692 0.560113,-0.38538 0.110934,-0.2158 0.27777,-0.41108 0.332803,-0.64741 0.01323,-0.0567 0.104995,-1.20347 -0.411279,-1.10758 -0.883536,0.1641 -1.623528,0.50339 -1.789848,1.3538 -0.05864,0.29986 -0.02894,0.6104 -0.04341,0.91561 0.07834,0.20601 0.392956,1.45391 0.936683,1.40111 0.580861,-0.0564 2.06969,-0.55115 2.443779,-1.35294 0.133572,-0.28629 0.200446,-0.61294 0.189248,-0.92866 -0.01222,-0.34467 -0.171812,-0.66804 -0.25772,-1.00205 -0.0255,-0.0454 -0.644847,-1.35376 -0.989753,-1.30413 -1.422138,0.20462 -1.836433,0.90357 -1.319424,1.9949 0.09743,0.20567 0.258778,0.37444 0.388167,0.56166 0.311905,0.272 0.426718,0.44602 0.815986,0.55441 0.174734,0.0487 0.317251,-0.1 0.484566,-0.0212 0.06212,0.0292 0.108881,0.0837 0.163322,0.12552 0.311539,0.36433 0.727212,0.77038 1.202335,0.90626 0.236615,0.0677 0.461217,0.0211 0.695638,-0.006 0,0 1.144804,-0.87081 1.144804,-0.87081 z" />
    <ellipse
       style="fill:#ffff00;stroke-width:0.264583"
       id="path500"
       cx="89.299171"
       cy="244.03369"
       rx="7.3801246"
       ry="6.1097727" />
    <ellipse
       style="fill:#ff0000;stroke-width:0.264583"
       id="path526"
       cx="47.948811"
       cy="280.66541"
       rx="6.6643186"
       ry="9.2360678" />
    <ellipse
       style="fill:#ff0000;stroke-width:0.264583"
       id="path530"
       cx="46.552109"
       cy="227.7487"
       rx="5.8597875"
       ry="6.3431511" />
    <ellipse
       style="fill:#ff0000;stroke-width:0.264583"
       id="path532"
       cx="69.814095"
       cy="210.28604"
       rx="3.2797964"
       ry="3.1506958" />
    <ellipse
       style="fill:#ff0000;stroke-width:0.264583"
       id="path534"
       cx="122.47281"
       cy="210.82903"
       rx="4.9312239"
       ry="6.4173875" />
    <ellipse
       style="fill:#ff0000;stroke-width:0.264583"
       id="path536"
       cx="130.79906"
       cy="260.12799"
       rx="7.2050247"
       ry="7.7613416" />
    <ellipse
       style="fill:#ff0000;stroke-width:0.264583"
       id="path538"
       cx="109.46125"
       cy="277.06097"
       rx="8.7594843"
       ry="5.9976172" />
    <text
       xml:space="preserve"
       style="font-style:normal;font-weight:normal;font-size:10.5833px;line-height:1.25;font-family:sans-serif;fill:#000000;fill-opacity:1;stroke:none;stroke-width:0.264583"
       x="66.715813"
       y="200.6566"
       id="text9915"><tspan
         sodipodi:role="line"
         id="tspan9913"
         style="stroke-width:0.264583"
         x="66.715813"
         y="200.6566">CsCl</tspan></text>
    <text
       xml:space="preserve"
       style="font-size:4.23333px;line-height:1.25;font-family:sans-serif;stroke-width:0.264583"
       x="151.84615"
       y="222.11421"
       id="text857"><tspan
         sodipodi:role="line"
         id="tspan855"
         style="stroke-width:0.264583"
         x="151.84615"
         y="222.11421">$\alpha$</tspan></text>
  </g>
</svg>
