<?xml version="1.0" encoding="UTF-8" standalone="no"?>
<!-- Created with Inkscape (http://www.inkscape.org/) -->

<svg
   width="240mm"
   height="120mm"
   viewBox="0 0 240 120"
   version="1.1"
   id="svg8"
   inkscape:version="1.1.1 (3bf5ae0d25, 2021-09-20, custom)"
   sodipodi:docname="ex3_pontentiel.svg"
   xmlns:inkscape="http://www.inkscape.org/namespaces/inkscape"
   xmlns:sodipodi="http://sodipodi.sourceforge.net/DTD/sodipodi-0.dtd"
   xmlns="http://www.w3.org/2000/svg"
   xmlns:svg="http://www.w3.org/2000/svg"
   xmlns:rdf="http://www.w3.org/1999/02/22-rdf-syntax-ns#"
   xmlns:cc="http://creativecommons.org/ns#"
   xmlns:dc="http://purl.org/dc/elements/1.1/">
  <defs
     id="defs2" />
  <sodipodi:namedview
     id="base"
     pagecolor="#ffffff"
     bordercolor="#666666"
     borderopacity="1.0"
     inkscape:pageopacity="0.0"
     inkscape:pageshadow="2"
     inkscape:zoom="1.2307409"
     inkscape:cx="357.9145"
     inkscape:cy="226.28647"
     inkscape:document-units="mm"
     inkscape:current-layer="layer1"
     showgrid="false"
     showborder="true"
     width="200mm"
     showguides="true"
     inkscape:guide-bbox="true"
     inkscape:window-width="1920"
     inkscape:window-height="1127"
     inkscape:window-x="0"
     inkscape:window-y="0"
     inkscape:window-maximized="1"
     inkscape:pagecheckerboard="0">
    <inkscape:grid
       type="xygrid"
       id="grid815"
       units="mm"
       spacingx="10"
       spacingy="10"
       empspacing="4"
       dotted="false" />
  </sodipodi:namedview>
  <metadata
     id="metadata5">
    <rdf:RDF>
      <cc:Work
         rdf:about="">
        <dc:format>image/svg+xml</dc:format>
        <dc:type
           rdf:resource="http://purl.org/dc/dcmitype/StillImage" />
        <dc:title />
      </cc:Work>
    </rdf:RDF>
  </metadata>
  <g
     inkscape:label="Layer 1"
     inkscape:groupmode="layer"
     id="layer1"
     transform="translate(0,-177)">
    <path
       style="fill:none;stroke:#000000;stroke-width:0.264583px;stroke-linecap:butt;stroke-linejoin:miter;stroke-opacity:1"
       d="m 24.32959,198.19102 c -0.110917,2.07353 -0.301203,4.14223 -0.4088,6.21587 -0.327507,6.31186 -0.01825,12.67007 -0.06722,18.98848 -0.08111,10.46481 -0.319007,20.92784 -0.537715,31.38981 -0.09759,4.66826 -0.509185,9.3414 -0.336092,14.01451 0.170338,4.59873 1.71245,9.03664 2.453383,13.544 0.056,0.3407 0.91252,3.20322 0.235256,3.20322"
       id="path41" />
    <path
       style="fill:none;stroke:#000000;stroke-width:0.264583px;stroke-linecap:butt;stroke-linejoin:miter;stroke-opacity:1"
       d="m 6.2272605,255.21003 c 4.2388485,0.96077 8.7055565,0.42917 12.9424275,-0.31228 3.604801,-0.63085 7.163874,-1.5103 10.788156,-2.05009 6.150126,-0.91598 12.352465,-1.61334 18.450748,-2.85668 5.495261,-1.1204 10.952911,-2.6994 16.501496,-3.52883 4.250904,-0.63544 8.075359,0.48825 12.266898,0.80659 2.855555,0.21688 6.095627,0.1607 8.939707,-0.10082 5.391142,-0.49574 10.732662,-1.85833 16.165437,-1.88205 3.36717,-0.0147 6.7471,0.23412 10.11599,0.26886 10.65014,0.1098 21.37438,0.51081 31.96115,1.78123 5.54473,0.66537 11.017,1.71643 16.56869,2.31894 4.54064,0.49279 9.30788,1.09137 13.88009,0.70577 3.66453,-0.30905 7.51753,-0.94491 11.12422,-1.57957 2.56709,-0.45173 5.04213,-1.29927 7.5954,-1.81484 0.46756,-0.0944 0.93735,-0.18339 1.41151,-0.23525 0.38407,-0.042 1.53658,0.0206 1.15777,-0.0554 -0.28728,-0.0576 -0.5855,-0.0246 -0.87824,-0.0368"
       id="path43" />
    <path
       style="fill:none;stroke:#000000;stroke-width:0.264583px;stroke-linecap:butt;stroke-linejoin:miter;stroke-opacity:1"
       d="m 195.21871,246.63881 c 0.24635,-1.66559 -0.0427,-3.50554 0.73906,-4.99677 0.49094,-0.93649 4.60704,0.43507 5.04117,0.70576 0.62768,0.39137 2.45112,2.79558 2.58782,2.99111 3.24136,4.63639 1.97721,12.81295 -3.96574,14.8547 -0.7858,0.26997 -1.65798,-0.11202 -2.48697,-0.16804"
       id="path45" />
    <path
       style="fill:none;stroke:#000000;stroke-width:0.264583px;stroke-linecap:butt;stroke-linejoin:miter;stroke-opacity:1"
       d="m 181.6352,278.88756 c -0.50364,-0.18488 1.36279,-5.03828 0.65575,-1.87942 -0.14493,0.64749 -0.64702,1.21596 -0.65575,1.87942 0.70288,3.85626 0.69105,2.41958 0.45411,6.11928 -0.0692,1.0804 -0.25648,3.88876 -0.47052,5.41086 -0.0318,0.22627 -0.059,0.88787 -0.13443,0.67217 -0.36762,-1.05191 0.0108,-2.22934 0.0672,-3.3422 0.22679,-4.47888 0.69396,-8.68839 1.98287,-13.00627 0.50244,-1.68318 0.95419,-3.59715 1.42083,-3.40368 1.81528,0.75263 2.57209,4.93191 2.07891,6.65794 -0.43607,1.52619 -2.50194,0.22598 -3.18874,-0.33595 -0.23102,-0.18901 -0.74982,-0.9291 -0.5648,-0.69487 2.88348,3.65065 3.80036,8.56425 7.25195,11.80449 0.97926,0.9193 4.4216,2.90605 3.5711,1.86647"
       id="path47" />
    <path
       style="fill:none;stroke:#000000;stroke-width:0.264583px;stroke-linecap:butt;stroke-linejoin:miter;stroke-opacity:1"
       d="m 24.32959,198.19102 c -0.734688,-0.20452 -1.891598,0.0821 -2.204062,-0.61355 -0.03835,-0.0854 1.197382,-7.44558 3.294417,-5.87729 2.17413,1.62596 3.08634,4.77614 3.765562,7.26665 0.239363,0.87767 0.998212,2.63926 0.459812,3.53648"
       id="path49" />
    <path
       style="fill:none;stroke:#000000;stroke-width:0.264583px;stroke-linecap:butt;stroke-linejoin:miter;stroke-opacity:1"
       d="m 4.317829,201.10902 c -0.3313771,0.4496 -0.813654,0.82024 -0.9941311,1.34881 -0.350666,1.02701 -0.7357779,5.409 -0.1009981,6.58674 0.3479364,0.64554 1.6115028,0.91836 2.2004084,1.03735 0.6074685,0.12273 1.6847166,0.30656 2.3777032,0.13332 2.5459326,-0.6365 2.8002526,-5.15156 3.0919336,-7.22572 7.67e-4,-0.005 0.276523,-2.44285 0.276523,-1.44463"
       id="path57" />
    <path
       style="fill:none;stroke:#000000;stroke-width:0.264583px;stroke-linecap:butt;stroke-linejoin:miter;stroke-opacity:1"
       d="m 17.768722,200.95109 c -0.374711,0.15402 -0.856308,0.15807 -1.124134,0.46204 -1.762263,2.00009 -3.451355,9.97007 0.157531,11.61053"
       id="path59" />
    <path
       style="fill:none;stroke:#000000;stroke-width:0.264583px;stroke-linecap:butt;stroke-linejoin:miter;stroke-opacity:1"
       d="m 16.802119,213.02366 c 1.06503,-2.74167 0.86881,-5.61547 1.595182,-8.46911 0.112197,-0.44078 0.138722,-1.42069 0.558275,-1.24506 2.145083,0.89797 3.457575,5.78402 -0.430448,5.6285 -0.418301,-0.0167 -0.788225,0.0177 -1.109956,-0.27541 -0.264267,-0.24079 0.580246,0.4222 0.835545,0.67248 0.824135,0.80794 1.501455,1.60499 2.150908,2.5542 0.125327,0.18318 0.521753,0.68606 0.471828,0.4698 -0.309316,-1.33983 -2.748043,0.2908 -4.071334,0.6646"
       id="path61" />
    <path
       style="fill:none;stroke:#000000;stroke-width:0.264583px;stroke-linecap:butt;stroke-linejoin:miter;stroke-opacity:1"
       d="m 22.334897,204.08636 c 0.574808,1.16235 1.405507,5.04584 0.670512,6.23369 -0.323461,0.52275 -0.792342,0.94259 -1.140716,1.44908 -0.296826,0.43155 -0.571647,1.15487 -0.959555,1.37252 -0.819139,0.45961 -1.373675,1.87239 -1.392829,1.86342 -1.013556,-0.4744 -1.806794,-1.32094 -2.71019,-1.98141"
       id="path69" />
    <path
       style="fill:none;stroke:#000000;stroke-width:0.264583px;stroke-linecap:butt;stroke-linejoin:miter;stroke-opacity:1"
       d="m 29.645319,202.50331 c 0.494683,3.35749 1.055089,6.79265 2.24778,9.99798 0.652003,1.75224 0.714502,1.28462 1.713998,3.19276 0.490252,0.93594 1.055232,2.54654 1.478756,3.49523 1.035984,2.3206 2.321891,4.5185 3.394406,6.82241 4.797771,10.30626 9.647118,20.79844 16.333459,30.04549 6.143704,8.49661 14.058098,15.50657 23.391114,20.2992 2.753354,1.41389 5.427141,2.79929 8.502814,3.32719 6.981184,1.19825 14.137104,-0.93346 20.030324,-4.70512 3.05668,-1.95628 5.35341,-4.63481 8.0323,-7.02406 1.76824,-1.57706 3.81465,-2.79438 5.61253,-4.33542 2.56834,-2.20141 4.93199,-4.61328 7.49456,-6.82242 0.75835,-0.65375 1.43349,-1.4231 2.28536,-1.94925 2.83748,-1.75253 6.04433,-2.55314 9.27578,-3.22637 8.7329,-1.81938 17.6743,-1.13197 26.51667,-1.20988 4.80135,-0.0423 7.34812,-0.0269 11.9308,1.2771 0.38757,0.11028 4.74059,1.51322 4.86155,1.12327 0.10024,-0.32313 -0.52296,-0.42958 -0.79171,-0.63509"
       id="path75" />
    <path
       style="fill:none;stroke:#000000;stroke-width:0.264583px;stroke-linecap:butt;stroke-linejoin:miter;stroke-opacity:1"
       d="m 88.517491,189.241 c 0.103812,2.08976 0.302442,4.14713 0.302442,6.2415"
       id="path77" />
    <path
       style="fill:none;stroke:#000000;stroke-width:0.264583px;stroke-linecap:butt;stroke-linejoin:miter;stroke-opacity:1"
       d="m 89.057918,201.83905 c -0.361408,2.38815 -0.510183,4.80333 -0.599509,7.21509"
       id="path79" />
    <path
       style="fill:none;stroke:#000000;stroke-width:0.264583px;stroke-linecap:butt;stroke-linejoin:miter;stroke-opacity:1"
       d="m 91.406452,217.43333 c 0.120947,1.92555 0.128678,3.83522 0.266034,5.75811"
       id="path81" />
    <path
       style="fill:none;stroke:#000000;stroke-width:0.264583px;stroke-linecap:butt;stroke-linejoin:miter;stroke-opacity:1"
       d="m 93.25159,229.80368 c 0.02096,3.03733 -0.01786,6.07701 -0.201655,9.10937"
       id="path83" />
    <path
       style="fill:none;stroke:#000000;stroke-width:0.264583px;stroke-linecap:butt;stroke-linejoin:miter;stroke-opacity:1"
       d="m 93.92374,246.18449 c 0.605243,3.70933 1.090388,7.32882 1.090388,11.09291"
       id="path85" />
    <path
       style="fill:none;stroke:#000000;stroke-width:0.264583px;stroke-linecap:butt;stroke-linejoin:miter;stroke-opacity:1"
       d="m 95.956942,266.52411 c -0.09894,1.6832 0.220657,3.34344 0.336073,5.01736"
       id="path87" />
    <path
       style="fill:none;stroke:#000000;stroke-width:0.264583px;stroke-linecap:butt;stroke-linejoin:miter;stroke-opacity:1"
       d="m 96.947499,279.74204 c 0.345448,1.18322 0.04925,2.70613 0.562885,3.90451"
       id="path89" />
    <path
       style="fill:none;stroke:#000000;stroke-width:0.264583px;stroke-linecap:butt;stroke-linejoin:miter;stroke-opacity:1"
       d="m 94.219087,288.4071 c -0.810625,1.48415 -0.715082,3.16002 -0.870254,4.80229 -0.09306,0.98492 -0.244385,1.94314 -0.244385,2.93258 0,0.0734 -0.107987,1.13169 -0.157427,1.11114 -0.300681,-0.12498 -0.200023,-0.62329 -0.243703,-0.94597 -0.397743,-2.93816 -0.286721,-6.14451 0.353002,-9.04209 0.384122,-1.73986 1.252889,-3.71357 1.303073,-3.69221 0.851667,0.36254 2.434063,5.95198 2.01119,7.11211 -0.234029,0.64204 -1.720503,0.85841 -2.235184,0.63331 -0.0098,-0.004 -0.752774,-0.52207 -0.743267,-0.52752 0.348879,-0.20026 3.480175,4.50391 3.991123,5.08361"
       id="path162" />
    <path
       style="fill:none;stroke:#000000;stroke-width:0.264583px;stroke-linecap:butt;stroke-linejoin:miter;stroke-opacity:1"
       d="m 106.13663,290.72609 c -2.34722,0.95158 -3.74685,2.20594 -4.41181,4.67184 -0.0521,0.19305 -0.19613,0.45644 -0.0543,0.59739 0.17447,0.17339 0.4927,0.12662 0.73381,0.0779 1.55103,-0.31335 1.87727,-2.39151 1.95217,-3.66475 0.0216,-0.36663 0,-1.46907 0,-1.1018"
       id="path164" />
  </g>
</svg>
