<?xml version="1.0" encoding="UTF-8" standalone="no"?>
<!-- Created with Inkscape (http://www.inkscape.org/) -->

<svg
   width="240mm"
   height="120mm"
   viewBox="0 0 240 120"
   version="1.1"
   id="svg8"
   inkscape:version="1.1.1 (3bf5ae0d25, 2021-09-20, custom)"
   sodipodi:docname="exercice_helium.svg"
   xmlns:inkscape="http://www.inkscape.org/namespaces/inkscape"
   xmlns:sodipodi="http://sodipodi.sourceforge.net/DTD/sodipodi-0.dtd"
   xmlns="http://www.w3.org/2000/svg"
   xmlns:svg="http://www.w3.org/2000/svg"
   xmlns:rdf="http://www.w3.org/1999/02/22-rdf-syntax-ns#"
   xmlns:cc="http://creativecommons.org/ns#"
   xmlns:dc="http://purl.org/dc/elements/1.1/">
  <defs
     id="defs2" />
  <sodipodi:namedview
     id="base"
     pagecolor="#ffffff"
     bordercolor="#666666"
     borderopacity="1.0"
     inkscape:pageopacity="0.0"
     inkscape:pageshadow="2"
     inkscape:zoom="1.6076602"
     inkscape:cx="469.31559"
     inkscape:cy="182.87447"
     inkscape:document-units="mm"
     inkscape:current-layer="layer1"
     showgrid="false"
     showborder="true"
     width="200mm"
     showguides="true"
     inkscape:guide-bbox="true"
     inkscape:window-width="1920"
     inkscape:window-height="1127"
     inkscape:window-x="0"
     inkscape:window-y="0"
     inkscape:window-maximized="1"
     inkscape:pagecheckerboard="0">
    <inkscape:grid
       type="xygrid"
       id="grid815"
       units="mm"
       spacingx="10"
       spacingy="10"
       empspacing="4"
       dotted="false" />
  </sodipodi:namedview>
  <metadata
     id="metadata5">
    <rdf:RDF>
      <cc:Work
         rdf:about="">
        <dc:format>image/svg+xml</dc:format>
        <dc:type
           rdf:resource="http://purl.org/dc/dcmitype/StillImage" />
        <dc:title />
      </cc:Work>
    </rdf:RDF>
  </metadata>
  <g
     inkscape:label="Layer 1"
     inkscape:groupmode="layer"
     id="layer1"
     transform="translate(0,-177)">
    <path
       style="fill:#000000;stroke-width:0.264583"
       id="path41"
       d="m 38.661355,204.70766 c -0.09293,2.95006 -0.138893,5.9006 -0.141938,8.85209 0.01458,0.95293 0.01066,1.906 0.02027,2.85896 0.004,0.40299 -0.07477,1.22601 0.211606,1.63687 0.09526,0.13667 0.28353,0.17498 0.425296,0.26247 0,0 0.07146,-0.0359 0.07146,-0.0359 v 0 c 0.158432,-0.2418 0.365836,-0.45784 0.475297,-0.7254 0.262948,-0.64271 0.120899,-1.11251 0.06725,-1.7815 -0.118017,-1.47168 -0.08937,-1.19187 -0.149431,-2.78762 -0.02883,-2.99273 0.0195,-5.99522 0.399899,-8.96798 0,0 -1.379712,0.68806 -1.379712,0.68806 z" />
    <path
       style="fill:#000000;stroke-width:0.264583"
       id="path43"
       d="m 38.659278,211.9186 c 1.588207,1.06499 3.564266,1.32007 5.407965,1.63005 0.583184,0.0682 1.164968,0.14967 1.749549,0.20462 1.240531,0.1166 2.818619,0.19546 4.057615,0.25524 2.124827,0.10252 4.250487,0.16927 6.376742,0.2328 4.674155,0.0648 9.298789,0.80805 13.956755,1.10414 1.361469,0.0865 2.725256,0.1316 4.087884,0.1974 4.844182,0.1312 9.694314,0.23838 14.539952,0.0972 3.378692,-0.0984 7.780329,-0.38474 11.144488,-0.56742 1.896182,-0.10297 3.792842,-0.19725 5.689262,-0.29587 10.37723,-0.53812 20.76449,-0.0904 31.14026,0.22123 5.23779,0.11741 10.47689,0.22022 15.7163,0.20381 0.95699,-0.003 5.38124,-0.0507 6.45412,-0.0619 3.45439,-0.0483 6.90901,-0.0746 10.36351,-0.1124 1.58132,0.0424 3.10498,-0.37433 4.6164,-0.78457 0.52797,-0.14795 1.05555,-0.29742 1.58238,-0.44939 0.0645,-0.0186 0.42364,-0.11916 0.50415,-0.16204 0.13316,-0.0709 0.2548,-0.16166 0.3822,-0.24249 0.16764,-0.12056 0.33528,-0.24112 0.50292,-0.36169 0,0 0.0639,-0.0482 0.0639,-0.0482 v 0 c 0.13763,-0.11516 0.27526,-0.2303 0.41289,-0.34545 0.052,-0.0588 0.16645,-0.0986 0.15584,-0.17626 -0.008,-0.0592 -0.11652,0.0271 -0.17392,0.0438 -0.0984,0.0287 -0.19554,0.0616 -0.29335,0.0923 -0.53696,0.16839 -1.07596,0.32994 -1.61754,0.48289 -1.49496,0.40317 -3.00358,0.7793 -4.56202,0.80007 -3.57684,0.18093 -7.1573,0.28175 -10.73694,0.38818 -7.46074,0.17174 -14.92437,0.21474 -22.38548,0.0211 -4.77565,-0.0923 -9.55138,-0.19229 -14.32767,-0.24618 -3.58532,-0.0404 -7.83218,-0.0819 -11.41175,-0.008 -1.88115,0.0389 -3.76079,0.13179 -5.64119,0.19768 -1.89393,0.0967 -3.78795,0.19148 -5.68179,0.29001 -4.151123,0.21597 -6.899834,0.4008 -11.038939,0.49574 -3.27502,0.0751 -6.595917,0.05 -9.870932,-0.0354 -1.50449,-0.0392 -3.007958,-0.11084 -4.511937,-0.16626 -3.767624,-0.22824 -3.886504,-0.20942 -7.469129,-0.51964 -3.529653,-0.30563 -7.055369,-0.70422 -10.601579,-0.76688 -4.026837,-0.11903 -8.070617,-0.20047 -12.066352,-0.75346 -1.809226,-0.33302 -3.67058,-0.67814 -5.273087,-1.63472 0,0 -1.241447,0.77955 -1.241447,0.77955 z" />
    <path
       style="fill:#000000;stroke-width:0.264583"
       id="path45"
       d="m 171.82687,204.73094 c 0.88844,2.01785 1.08154,4.24819 1.31187,6.41471 0.40623,5.00695 -0.0635,-1.00758 0.28012,4.15371 0.0429,0.644 0.0388,1.29513 0.15454,1.93011 0.0878,0.48169 0.30116,0.93177 0.45174,1.39766 0,0 0.0713,-0.0363 0.0713,-0.0363 v 0 c 0.14814,-0.61971 0.37226,-1.22607 0.44441,-1.85914 0.0759,-0.66548 0.0134,-1.33979 -0.004,-2.00936 -0.0207,-0.81514 -0.17115,-3.36075 -0.21831,-4.19285 -0.1177,-1.26533 -0.1668,-2.00974 -0.35414,-3.24306 -0.16868,-1.11043 -0.37071,-2.25793 -0.9047,-3.25931 0,0 -1.23328,0.70387 -1.23328,0.70387 z" />
    <path
       style="fill:#000000;stroke-width:0.264583"
       id="path47"
       d="m 83.694782,205.46732 c -0.544777,2.29469 -0.6976,4.64662 -0.831789,6.99301 -0.18705,3.70811 -0.02265,7.41971 -0.07759,11.12991 0.0011,0.2496 -0.01106,1.48742 0.04653,1.84389 0.0249,0.15412 0.01847,0.36332 0.152908,0.44268 0.151297,0.0893 0.350253,-0.0282 0.52538,-0.0423 0,0 0.423159,-0.21648 0.423159,-0.21648 v 0 c 0.172659,-0.16612 0.398283,-0.2908 0.517978,-0.49836 0.26535,-0.46013 -0.02545,-1.90151 -0.01291,-2.37916 -0.325488,-3.66106 -0.362651,-7.34172 -0.118353,-11.01018 0.189179,-2.39138 0.38636,-4.8126 1.150834,-7.10313 0,0 -1.776132,0.84009 -1.776132,0.84009 z" />
    <path
       style="fill:#000000;stroke-width:0.264583"
       id="path49"
       d="m 130.73164,206.52746 c -0.14631,2.33191 -0.35415,4.65942 -0.53365,6.98899 -0.0594,0.6902 -0.11473,1.38076 -0.17834,2.07058 -0.14861,1.61166 -0.27138,2.82513 -0.47726,4.43123 -0.22026,1.71827 -0.50673,3.42544 -0.7211,5.1444 -0.0124,1.13651 -0.26255,0.74886 0.50263,1.28957 0,0 0.0719,-0.0351 0.0719,-0.0351 v 0 c 0.96177,-1.26927 0.64539,-0.58302 1.0033,-2.03289 0.0608,-0.4501 0.13162,-0.89898 0.1825,-1.35032 0.13896,-1.23262 0.22904,-2.47027 0.35053,-3.70473 0.16166,-1.64274 0.28664,-2.78282 0.462,-4.42591 0.0745,-0.69795 0.14902,-1.39588 0.22353,-2.09382 0.25282,-2.36099 0.43746,-4.72935 0.73655,-7.08474 0,0 -1.62257,0.80274 -1.62257,0.80274 z" />
    <ellipse
       style="fill:#ffff00;stroke-width:0.264583"
       id="path95"
       cx="104.4086"
       cy="215.58669"
       rx="4.3309956"
       ry="3.8521976" />
    <ellipse
       style="fill:#ffff00;stroke-width:0.264583"
       id="path97"
       cx="154.20863"
       cy="214.85406"
       rx="4.4655576"
       ry="4.2385769" />
    <ellipse
       style="fill:#ffff00;stroke-width:0.264583"
       id="path99"
       cx="59.891834"
       cy="214.14987"
       rx="4.877336"
       ry="5.5736856" />
    <text
       xml:space="preserve"
       style="font-size:4.23333px;line-height:1.25;font-family:sans-serif;stroke-width:0.264583"
       x="96.381233"
       y="229.29839"
       id="text3029"><tspan
         sodipodi:role="line"
         id="tspan3027"
         style="stroke-width:0.264583"
         x="96.381233"
         y="229.29839">He</tspan></text>
    <path
       style="fill:none;stroke:#000000;stroke-width:0.264583px;stroke-linecap:butt;stroke-linejoin:miter;stroke-opacity:1"
       d="m 85.201465,231.7334 c -0.07359,1.72301 1.80693,5.08753 0.829794,6.06472"
       id="path16126" />
    <path
       style="fill:none;stroke:#000000;stroke-width:0.264583px;stroke-linecap:butt;stroke-linejoin:miter;stroke-opacity:1"
       d="m 85.201465,231.7334 c 0.497184,0.74302 0.79796,1.66497 1.491557,2.22907 0.548042,0.44571 5.555456,0.89743 5.841225,0.91463 2.162513,0.13015 4.344307,-0.14469 6.506413,-0.18709 3.18061,-0.0624 6.32501,-0.24961 9.49978,-0.41574 4.2647,-0.22315 -0.75928,-0.0121 3.28438,-0.43653 1.96227,-0.20599 4.23527,-0.28447 6.21539,-0.14551 0.58222,0.0409 1.9704,0.35711 2.47369,0.41575 0.42287,0.0493 0.87282,0.002 1.28881,-0.0832 0.12447,-0.0346 0.24893,-0.0692 0.37339,-0.10376 0.0305,0.0122 0.059,0.041 0.0916,0.0366 0.0436,-0.006 0.0256,-0.15015 0.0567,-0.11906 0.0395,0.0395 0.0831,0.20138 0.0831,0.14551 0,-0.24224 -0.033,-0.18442 0.1663,-0.1663 0.26751,0.0243 0.31248,-0.18699 0.51324,-0.30341 0.21045,-0.12204 0.71712,0.081 0.95181,0.0272 0.19424,-0.0445 0.5034,-0.29393 0.69028,-0.36342 0.23576,-0.0876 0.20268,0.15657 0.38565,0.20304 0.0315,0.008 1.25817,-0.65784 1.46505,-0.69506 0.77637,-0.13967 1.72264,-0.15552 2.44869,-0.15552 0.0696,0 0.007,-0.14387 -0.0208,-0.20787"
       id="path16128" />
    <path
       style="fill:none;stroke:#000000;stroke-width:0.264583px;stroke-linecap:butt;stroke-linejoin:miter;stroke-opacity:1"
       d="m 129.00772,232.32273 c -0.24437,0.0208 -0.61274,-0.15119 -0.73312,0.0625 -0.30418,0.53997 -0.19876,1.22414 -0.33259,1.82927 -0.4853,2.19442 -0.95396,4.52023 -1.60062,6.67272 -0.0656,0.21827 0.0376,-0.45427 0.0563,-0.6814"
       id="path16130" />
    <text
       xml:space="preserve"
       style="font-size:4.23333px;line-height:1.25;font-family:sans-serif;stroke-width:0.264583"
       x="95.574196"
       y="242.57175"
       id="text20184"><tspan
         sodipodi:role="line"
         id="tspan20182"
         style="stroke-width:0.264583"
         x="95.574196"
         y="242.57175">$L$</tspan></text>
  </g>
</svg>
