<?xml version="1.0" encoding="UTF-8" standalone="no"?>
<!-- Created with Inkscape (http://www.inkscape.org/) -->

<svg
   width="240mm"
   height="120mm"
   viewBox="0 0 240 120"
   version="1.1"
   id="svg8"
   inkscape:version="1.1.2 (0a00cf5339, 2022-02-04)"
   sodipodi:docname="fonction-dentsitée.svg"
   xmlns:inkscape="http://www.inkscape.org/namespaces/inkscape"
   xmlns:sodipodi="http://sodipodi.sourceforge.net/DTD/sodipodi-0.dtd"
   xmlns="http://www.w3.org/2000/svg"
   xmlns:svg="http://www.w3.org/2000/svg"
   xmlns:rdf="http://www.w3.org/1999/02/22-rdf-syntax-ns#"
   xmlns:cc="http://creativecommons.org/ns#"
   xmlns:dc="http://purl.org/dc/elements/1.1/">
  <defs
     id="defs2">
    <marker
       style="overflow:visible;"
       id="Arrow1Lend"
       refX="0.0"
       refY="0.0"
       orient="auto"
       inkscape:stockid="Arrow1Lend"
       inkscape:isstock="true">
      <path
         transform="scale(0.8) rotate(180) translate(12.5,0)"
         style="fill-rule:evenodd;fill:context-stroke;stroke:context-stroke;stroke-width:1.0pt;"
         d="M 0.0,0.0 L 5.0,-5.0 L -12.5,0.0 L 5.0,5.0 L 0.0,0.0 z "
         id="path894" />
    </marker>
    <marker
       style="overflow:visible"
       id="Arrow1Lstart"
       refX="0.0"
       refY="0.0"
       orient="auto"
       inkscape:stockid="Arrow1Lstart"
       inkscape:isstock="true">
      <path
         transform="scale(0.8) translate(12.5,0)"
         style="fill-rule:evenodd;fill:context-stroke;stroke:context-stroke;stroke-width:1.0pt"
         d="M 0.0,0.0 L 5.0,-5.0 L -12.5,0.0 L 5.0,5.0 L 0.0,0.0 z "
         id="path891" />
    </marker>
  </defs>
  <sodipodi:namedview
     id="base"
     pagecolor="#ffffff"
     bordercolor="#666666"
     borderopacity="1.0"
     inkscape:pageopacity="0.0"
     inkscape:pageshadow="2"
     inkscape:zoom="0.99437388"
     inkscape:cx="463.10549"
     inkscape:cy="164.42508"
     inkscape:document-units="mm"
     inkscape:current-layer="layer1"
     showgrid="false"
     showborder="true"
     width="200mm"
     showguides="true"
     inkscape:guide-bbox="true"
     inkscape:window-width="1920"
     inkscape:window-height="1127"
     inkscape:window-x="0"
     inkscape:window-y="0"
     inkscape:window-maximized="1"
     inkscape:pagecheckerboard="0">
    <inkscape:grid
       type="xygrid"
       id="grid815"
       units="mm"
       spacingx="10"
       spacingy="10"
       empspacing="4"
       dotted="false" />
  </sodipodi:namedview>
  <metadata
     id="metadata5">
    <rdf:RDF>
      <cc:Work
         rdf:about="">
        <dc:format>image/svg+xml</dc:format>
        <dc:type
           rdf:resource="http://purl.org/dc/dcmitype/StillImage" />
      </cc:Work>
    </rdf:RDF>
  </metadata>
  <g
     inkscape:label="Layer 1"
     inkscape:groupmode="layer"
     id="layer1"
     transform="translate(0,-177)">
    <path
       style="fill:none;stroke:#000000;stroke-width:0.264583px;stroke-linecap:butt;stroke-linejoin:miter;stroke-opacity:1;marker-start:url(#Arrow1Lstart);marker-end:url(#Arrow1Lend)"
       d="m 64.878267,195.02046 v 82.6846 H 170.13456"
       id="path889" />
    <path
       style="fill:none;stroke:#000000;stroke-width:0.264583px;stroke-linecap:butt;stroke-linejoin:miter;stroke-opacity:1"
       d="m 64.878267,277.70506 c 0,0 5.88273,-16.8273 33.955293,-35.61462 28.07256,-18.78733 67.67688,-18.6247 67.67688,-18.6247"
       id="path1167" />
    <text
       xml:space="preserve"
       style="font-size:4.23333px;line-height:1.25;font-family:sans-serif;stroke-width:0.264583"
       x="188.21159"
       y="229.1366"
       id="text2513"><tspan
         sodipodi:role="line"
         id="tspan2511"
         style="stroke-width:0.264583"
         x="188.21159"
         y="229.1366">$T=0$</tspan></text>
    <text
       xml:space="preserve"
       style="font-size:4.23333px;line-height:1.25;font-family:sans-serif;stroke-width:0.264583"
       x="163.16205"
       y="284.61157"
       id="text7995"><tspan
         sodipodi:role="line"
         id="tspan7993"
         style="stroke-width:0.264583"
         x="163.16205"
         y="284.61157">$\epsilon_f$</tspan></text>
    <text
       xml:space="preserve"
       style="font-size:4.23333px;line-height:1.25;font-family:sans-serif;stroke-width:0.264583"
       x="46.564861"
       y="198.67497"
       id="text11255"><tspan
         sodipodi:role="line"
         id="tspan11253"
         style="stroke-width:0.264583"
         x="46.564861"
         y="198.67497">$D(\espilon)$</tspan></text>
    <path
       style="fill:#fb0000;fill-opacity:1;stroke:none;stroke-width:0.264583;stroke-dasharray:0.79375, 0.79375"
       id="path13948"
       d="m 80.638509,262.00594 c 2.021062,1.65224 4.147037,3.17237 6.249082,4.7191 1.23544,0.91325 2.45295,1.85012 3.657672,2.8034 0.02929,0.0232 1.270788,1.02672 1.409562,1.08848 0.239662,0.10668 0.513503,0.10762 0.770255,0.16143 0,0 0.06779,-0.0425 0.06779,-0.0425 v 0 c -0.04115,-0.19014 -0.01215,-0.41086 -0.123442,-0.57042 -0.06893,-0.0988 -1.432496,-1.06342 -1.440495,-1.06918 -1.256064,-0.90517 -2.503619,-1.8219 -3.742404,-2.75061 -2.059461,-1.53206 -4.161406,-3.04652 -5.963311,-4.8847 0,0 -0.884711,0.54497 -0.884711,0.54497 z" />
    <path
       style="fill:#fb0000;fill-opacity:1;stroke:none;stroke-width:0.264583;stroke-dasharray:0.79375, 0.79375"
       id="path14016"
       d="m 91.902125,256.48483 c 2.264191,1.5689 4.781831,2.75816 7.230753,4.00136 5.368852,2.72553 3.062392,1.59402 8.750592,4.22623 1.48294,0.6035 2.96588,1.20699 4.44882,1.81049 0,0 0.0666,-0.0443 0.0666,-0.0443 v 0 c -1.38777,-0.66599 -2.77555,-1.33198 -4.16332,-1.99798 -2.98429,-1.59826 -5.36738,-2.8418 -8.284242,-4.52794 -2.067491,-1.19515 -4.190891,-2.43774 -6.092063,-3.89902 -0.180834,-0.13899 -0.346749,-0.29638 -0.520126,-0.44458 0,0 -1.437034,0.87572 -1.437034,0.87572 z" />
    <path
       style="fill:#fb0000;fill-opacity:1;stroke:none;stroke-width:0.264583;stroke-dasharray:0.79375, 0.79375"
       id="path14018"
       d="m 110.70912,245.32446 c 0.28532,0.23924 0.55852,0.49374 0.85597,0.71772 1.29952,0.9785 2.45388,1.70037 3.90535,2.50786 2.43529,1.3548 4.54027,2.39228 7.2054,3.33438 1.52199,0.53801 3.09367,0.92345 4.6405,1.38518 1.36743,0.43582 2.73486,0.87163 4.10228,1.30745 0,0 0.0661,-0.045 0.0661,-0.045 v 0 c -1.36735,-0.4357 -2.7347,-0.87141 -4.10206,-1.30712 -2.46085,-1.13338 -5.36162,-2.42711 -7.76273,-3.69788 -2.69408,-1.42582 -5.27452,-3.0898 -7.67541,-4.96696 0,0 -1.23544,0.76438 -1.23544,0.76438 z" />
    <path
       style="fill:#fb0000;fill-opacity:1;stroke:none;stroke-width:0.264583;stroke-dasharray:0.79375, 0.79375"
       id="path14020"
       d="m 130.94409,235.81038 c 6.23234,0.82 12.08234,3.2852 17.9356,5.44782 5.6628,2.03044 2.97409,0.9637 8.08167,3.1608 0,0 0.0666,-0.0444 0.0666,-0.0444 v 0 c -5.00768,-2.15417 -2.47567,-0.99577 -7.58892,-3.49069 -3.72335,-1.66302 -4.40076,-2.02352 -8.15871,-3.478 -2.91478,-1.12815 -5.89728,-2.16688 -9.0167,-2.54093 0,0 -1.31952,0.94536 -1.31952,0.94536 z" />
    <path
       style="fill:#fb0000;fill-opacity:1;stroke:none;stroke-width:0.264583;stroke-dasharray:0.79375, 0.79375"
       id="path14022"
       d="m 123.51351,261.68383 c 2.06053,0.78943 4.18642,1.40515 6.31037,1.99508 1.46326,0.40642 2.92255,0.8321 4.403,1.17057 1.68901,0.38616 3.40288,0.65461 5.10026,1.00216 1.57919,0.32336 3.15275,0.67366 4.72913,1.01048 0,0 0.0657,-0.0457 0.0657,-0.0457 v 0 c -1.57633,-0.33675 -3.16958,-0.60221 -4.72898,-1.01024 -1.52278,-0.39846 -3.00873,-0.92652 -4.50776,-1.40666 -3.38596,-1.08454 -6.74322,-2.24545 -10.01955,-3.62998 0,0 -1.35217,0.91424 -1.35217,0.91424 z" />
    <path
       style="fill:#fb0000;fill-opacity:1;stroke:none;stroke-width:0.264583;stroke-dasharray:0.79375, 0.79375"
       id="path14024"
       d="m 143.76561,251.96307 c 2.38284,1.22888 4.84442,2.29797 7.3027,3.36412 1.55618,0.67491 3.13836,1.291 4.67768,2.00354 1.65531,0.76624 3.26832,1.62072 4.90248,2.43107 0,0 0.0669,-0.0439 0.0669,-0.0439 v 0 c -14.10369,-7.52717 3.88706,2.11401 -8.92385,-4.86801 -2.2676,-1.23586 -4.59256,-2.36909 -6.82382,-3.67199 0,0 -1.20207,0.78516 -1.20207,0.78516 z" />
  </g>
</svg>
