<?xml version="1.0" encoding="UTF-8" standalone="no"?>
<!-- Created with Inkscape (http://www.inkscape.org/) -->

<svg
   width="240mm"
   height="120mm"
   viewBox="0 0 240 120"
   version="1.1"
   id="svg8"
   inkscape:version="1.1.1 (3bf5ae0d25, 2021-09-20, custom)"
   sodipodi:docname="force.svg"
   xmlns:inkscape="http://www.inkscape.org/namespaces/inkscape"
   xmlns:sodipodi="http://sodipodi.sourceforge.net/DTD/sodipodi-0.dtd"
   xmlns="http://www.w3.org/2000/svg"
   xmlns:svg="http://www.w3.org/2000/svg"
   xmlns:rdf="http://www.w3.org/1999/02/22-rdf-syntax-ns#"
   xmlns:cc="http://creativecommons.org/ns#"
   xmlns:dc="http://purl.org/dc/elements/1.1/">
  <defs
     id="defs2">
    <rect
       x="573.10289"
       y="223.32561"
       width="70.420609"
       height="37.372187"
       id="rect35421" />
    <rect
       x="326.43348"
       y="225.15819"
       width="84.042413"
       height="36.531274"
       id="rect31587" />
    <rect
       x="142.43103"
       y="208.33232"
       width="70.54914"
       height="56.929361"
       id="rect25949" />
    <rect
       x="242.53334"
       y="118.66469"
       width="39.900961"
       height="54.926779"
       id="rect15729" />
    <rect
       x="469.14079"
       y="124.99756"
       width="68.596626"
       height="51.869645"
       id="rect11565" />
  </defs>
  <sodipodi:namedview
     id="base"
     pagecolor="#ffffff"
     bordercolor="#666666"
     borderopacity="1.0"
     inkscape:pageopacity="0.0"
     inkscape:pageshadow="2"
     inkscape:zoom="0.99437388"
     inkscape:cx="284.6012"
     inkscape:cy="182.02409"
     inkscape:document-units="mm"
     inkscape:current-layer="layer1"
     showgrid="false"
     showborder="true"
     width="200mm"
     showguides="true"
     inkscape:guide-bbox="true"
     inkscape:window-width="1920"
     inkscape:window-height="1127"
     inkscape:window-x="0"
     inkscape:window-y="0"
     inkscape:window-maximized="1"
     inkscape:pagecheckerboard="0">
    <inkscape:grid
       type="xygrid"
       id="grid815"
       units="mm"
       spacingx="10"
       spacingy="10"
       empspacing="4"
       dotted="false" />
  </sodipodi:namedview>
  <metadata
     id="metadata5">
    <rdf:RDF>
      <cc:Work
         rdf:about="">
        <dc:format>image/svg+xml</dc:format>
        <dc:type
           rdf:resource="http://purl.org/dc/dcmitype/StillImage" />
        <dc:title />
      </cc:Work>
    </rdf:RDF>
  </metadata>
  <g
     inkscape:label="Layer 1"
     inkscape:groupmode="layer"
     id="layer1"
     transform="translate(0,-177)">
    <path
       style="fill:#000000;stroke-width:0.264583"
       id="path41"
       d="m 47.342022,225.21695 c 0.214098,-0.56653 1.042982,-1.80504 1.755122,-1.73153 0.166309,0.0172 0.561094,0.30292 0.394065,0.3103 -0.304514,0.0135 -0.578295,-0.19292 -0.867442,-0.28938 -0.131953,0.28987 -0.212114,0.60947 -0.395856,0.8696 -0.430533,0.60954 -1.159497,1.24416 -1.900304,1.44742 -0.659641,0.181 -1.857221,-0.10282 -1.651299,-0.56423 0.113789,-0.25496 0.53834,0.14833 0.807508,0.2225 0.06539,-1.01054 0.289986,-1.72088 1.320745,-2.11251 0.21694,-0.0824 0.457761,-0.11213 0.689366,-0.0974 0.183825,0.0117 0.63255,0.32356 0.524299,0.17454 -0.283663,-0.39051 -0.726628,-0.63549 -1.089943,-0.95323 -0.08898,0.19945 -0.04401,0.19721 -0.326266,0.25043 -0.08052,0.0152 -0.298675,-0.0639 -0.245822,-0.001 0.591307,0.70055 0.907466,0.99227 1.605595,1.28869 0.180062,0.12992 0.661572,0.57568 0.540192,0.38975 -0.17562,-0.269 -0.413832,-0.5282 -0.710716,-0.65095 -0.115797,-0.0479 0.08598,0.25709 0.04025,0.37376 -0.04492,0.1146 -0.16496,0.19814 -0.280765,0.23986 -0.40762,0.14683 -0.792811,0.005 -1.190744,-0.0729 -0.205735,-0.0798 -0.419037,-0.14237 -0.617204,-0.23947 -0.118359,-0.058 -2.382227,-1.57187 0.538773,0.61539 0.0406,0.0304 -0.01934,-0.10787 0.0056,-0.15206 0.05247,-0.0931 0.250971,-0.1367 0.329714,-0.16267 0.151222,-0.40942 0.09785,-0.12016 -0.403456,-0.78479 0,0 -0.05789,-0.0552 -0.05789,-0.0552 v 0 c -0.615566,-0.54013 -0.305975,-0.46174 -0.815658,-0.50261 -1.385062,1.22485 1.182209,2.23861 2.14606,2.65015 0.48991,0.0876 1.507381,0.36192 1.745342,-0.36889 0.05616,-0.17247 0.04212,-0.3969 -0.06976,-0.53967 -0.986616,-1.259 -1.152605,-1.30444 -2.107907,-1.88718 -0.166759,-0.0608 -0.323601,-0.16536 -0.500279,-0.18231 -1.419987,-0.13623 1.10453,2.30339 1.810335,0.87886 -0.474105,-0.4841 -0.887897,-1.03573 -1.422308,-1.4523 -0.136485,-0.10639 -0.343619,-0.0753 -0.51585,-0.0585 -0.847082,0.0828 -1.632199,0.64991 -1.960216,1.44538 -0.128849,0.31247 -0.124195,0.66449 -0.186293,0.99673 0.181978,0.27281 1.137148,2.26752 2.056969,2.47659 0.330864,0.0752 0.692028,0.0241 1.014682,-0.0809 1.207979,-0.39301 1.914864,-1.37922 2.32514,-2.51746 -0.327504,-0.54571 -0.590338,-1.13587 -0.982506,-1.63713 -0.650068,-0.83091 -2.100557,1.03867 -2.391521,1.50692 0,0 1.040288,0.95771 1.040288,0.95771 z" />
    <path
       style="fill:#000000;stroke-width:0.264583"
       id="path45"
       d="m 49.496456,224.33833 c 1.809093,-0.11884 3.513523,-0.79457 5.150995,-1.52727 0.455946,-0.15887 0.689486,-0.29887 1.173472,-0.26226 0.798812,0.0604 1.648301,0.7957 2.290837,1.22143 0.241564,0.11388 0.466383,0.27383 0.724693,0.34164 1.295033,0.33993 2.626718,-0.23961 3.892958,-0.41425 0.293703,-0.0405 0.591606,-0.0402 0.88741,-0.0603 0.86905,0.0392 1.45143,0.50137 2.128125,0.97012 0.197681,0.13693 0.376976,0.31703 0.605296,0.39252 0.709908,0.23471 1.052197,-0.0282 1.728972,-0.26338 1.538486,-0.76975 2.902863,-2.06709 4.694545,-2.1922 0.864957,-0.0604 1.1734,0.12337 1.953651,0.38503 0.758844,0.317 1.435121,0.89257 2.27969,0.98665 0.910405,0.10142 1.891633,-0.29197 2.74352,-0.53851 1.253797,-0.43657 2.561743,-0.55815 3.823909,-0.086 0.256154,0.0958 1.282102,0.61543 1.532887,0.74053 0.768395,0.38341 1.589204,0.56034 2.444142,0.59236 0.498896,0.0187 1.375547,-0.0547 1.875134,-0.0108 0.303294,0.0267 0.599831,0.10486 0.899744,0.15729 0.259816,0.0965 0.530342,0.16794 0.77945,0.28942 0.461851,0.22523 0.825121,0.53016 1.198541,0.87436 0.143954,0.13269 0.488341,0.63089 0.770755,0.60582 0,0 -0.04762,-0.0643 -0.04762,-0.0643 v 0 c -0.988116,-1.02755 -1.895872,-2.16152 -3.359028,-2.49676 -1.808448,-0.16453 -3.503261,0.12012 -5.186117,-0.75115 -0.748072,-0.36648 -1.516943,-0.8216 -2.365176,-0.90596 -0.981046,-0.0976 -1.923894,0.26886 -2.850504,0.51821 -0.913562,0.23294 -1.85482,0.54896 -2.812553,0.38898 -0.837504,-0.1399 -1.526855,-0.67454 -2.289281,-1.00238 -0.797121,-0.2524 -1.097095,-0.43636 -1.972029,-0.33233 -1.761472,0.20943 -3.143822,1.4981 -4.72684,2.1669 -0.717372,0.20544 -0.997384,0.42882 -1.711669,0.15175 -0.232232,-0.0901 -0.414837,-0.27592 -0.619291,-0.4182 -0.694283,-0.48316 -1.304391,-0.92473 -2.194746,-0.93669 -0.292438,0.0294 -0.586433,0.0462 -0.877316,0.0883 -1.274095,0.18448 -2.624224,0.68123 -3.9127,0.28381 -0.256453,-0.0791 -0.479923,-0.24035 -0.719884,-0.36054 -0.697367,-0.46959 -1.497803,-1.19765 -2.390343,-1.21589 -0.484042,-0.01 -0.728853,0.14091 -1.175883,0.3149 -1.62555,0.74343 -3.352633,1.43933 -5.17009,1.39911 0,0 0.802349,0.97004 0.802349,0.97004 z" />
    <path
       style="fill:#000000;stroke-width:0.264583"
       id="path47"
       d="m 101.12438,220.75235 c -0.23691,-0.004 -0.47786,-0.0565 -0.71074,-0.0127 -2.13041,0.40024 -3.908032,2.27672 -4.798299,4.16576 -0.289653,0.61461 -0.420177,1.29229 -0.630264,1.93844 -0.05718,0.59101 -0.198427,1.17987 -0.171548,1.77303 0.05241,1.15662 0.707623,2.26095 2.026547,2.50816 0.472493,0.0886 0.8857,-0.41105 1.240689,-0.7352 1.01532,-0.92714 1.516145,-2.088 2.160215,-3.26525 0.61064,-1.68616 0.82364,-1.73761 0.7444,-3.50613 -0.0213,-0.47459 -0.15685,-0.9371 -0.23527,-1.40565 0,0 -0.0604,-0.0525 -0.0604,-0.0525 v 0 c -0.64474,1.20887 -1.329337,2.39904 -1.796617,3.69363 -0.634587,1.21773 -1.093285,2.26992 -1.981515,3.32826 -0.269767,0.32143 -0.733078,0.47115 -0.942105,0.83502 -0.101261,0.17627 0.20138,0.78393 0.118796,0.59818 -0.619697,-1.39382 -0.396425,-1.37051 -0.276363,-3.01725 0.220369,-0.62301 0.3625,-1.27952 0.661109,-1.86904 0.93794,-1.85174 2.75028,-3.62588 4.899745,-3.85424 0.23878,-0.0254 0.47837,0.0424 0.71755,0.0636 0,0 -0.96595,-1.18614 -0.96595,-1.18614 z" />
    <path
       style="fill:#000000;stroke-width:0.264583"
       id="path49"
       d="m 102.20059,225.73254 c 0.67464,-0.63442 1.3038,-1.31906 2.02909,-1.89811 0.16581,-0.13238 0.32193,-0.28418 0.51245,-0.37756 0.16554,-0.0811 0.35733,-0.0909 0.536,-0.13631 0.39134,0.14484 0.93339,0.26674 1.12327,0.72251 0.078,0.18714 -0.53426,-0.5482 -0.49828,-0.34869 0.0202,0.11208 1.1366,1.57409 1.20974,1.65093 0.56997,0.59876 1.1906,1.14718 1.78589,1.72077 1.37332,0.89169 2.84519,-0.13712 4.30014,0.0776 0.26649,0.0393 0.51364,0.16253 0.77046,0.2438 0.22506,0.16999 0.40944,0.41551 0.6752,0.50997 0.20584,0.0732 -0.63657,-0.59826 -0.48392,-0.44198 0.32388,0.33155 1.43503,1.89736 2.4038,1.90049 0.79678,0.003 1.59967,-0.63656 2.20504,-0.99899 1.60714,-1.01908 3.41698,-2.45634 5.46511,-2.17574 0.78593,0.10768 1.36656,0.51113 2.03391,0.88461 0.38979,0.2509 1.21244,0.83914 1.70308,0.93286 0.69631,0.133 1.46248,-0.14911 2.1099,-0.3175 1.59504,-0.41487 0.75715,-0.2577 2.39722,-0.45664 0.40118,0.0244 0.80629,0.0121 1.20354,0.0733 0.3847,0.0592 0.76206,0.16546 1.13207,0.2863 0.99763,0.32579 1.96267,0.98505 3.0551,0.96774 0.39561,-0.006 0.77952,-0.13622 1.16928,-0.20434 1.66742,-0.47676 3.24322,-1.5491 5.03476,-1.50795 0.7426,0.0171 1.10239,0.22776 1.75946,0.49461 0.47725,0.20715 0.88754,0.45676 1.43277,0.42478 0.5374,-0.0315 1.27149,-0.38557 1.74729,-0.56483 1.17447,-0.44249 0.78535,-0.31128 2.00419,-0.5787 1.15926,-0.0124 0.80388,-0.0858 1.90373,0.19884 0.25223,0.0653 0.48973,0.20423 0.74973,0.22104 0.16777,0.0109 0.32279,-0.0942 0.48418,-0.14125 0,0 -0.0502,-0.0623 -0.0502,-0.0623 v 0 c -1.35707,-0.75786 -2.30321,-1.34643 -3.92113,-1.15003 -1.3818,0.31529 -0.68058,0.12102 -2.03508,0.5685 -0.48624,0.16064 -1.21221,0.44917 -1.75386,0.45206 -0.50212,0.003 -0.96294,-0.2496 -1.406,-0.43659 -0.71098,-0.28067 -1.02766,-0.48333 -1.82832,-0.46764 -1.78039,0.0349 -3.33203,1.15889 -5.04329,1.5019 -0.38723,0.0474 -0.77167,0.151 -1.16169,0.1421 -0.67612,-0.0154 -1.3712,-0.32589 -1.98464,-0.55996 -0.88763,-0.33869 -1.25594,-0.55676 -2.21563,-0.68023 -0.39893,-0.0513 -0.80402,-0.0257 -1.20604,-0.0385 -1.91332,0.25465 -0.54541,0.0286 -2.41984,0.45314 -0.71618,0.16219 -1.34958,0.36571 -2.08972,0.19032 -0.45059,-0.10677 -1.30645,-0.68311 -1.67352,-0.91064 -0.70565,-0.36849 -1.25562,-0.73875 -2.08167,-0.81531 -2.05445,-0.19039 -3.78254,1.37323 -5.46771,2.26745 -0.61048,0.30588 -1.43041,0.86888 -2.2021,0.81032 -0.24765,-0.0188 -0.50449,-0.45219 -0.68834,-0.28521 -0.16638,0.15111 0.62778,0.64354 0.46942,0.48404 -1.94657,-1.96056 -1.01951,-1.27326 -2.42734,-2.20985 -0.26507,-0.066 -0.52321,-0.17279 -0.7952,-0.19806 -1.44436,-0.13419 -2.83338,0.77965 -4.20358,-0.14766 0.12709,0.15554 0.50025,0.62846 0.38128,0.46662 -0.20119,-0.2737 -0.42805,-0.52796 -0.62815,-0.80246 -0.19989,-0.27421 -0.35298,-0.58278 -0.57112,-0.84271 -0.53822,-0.64135 -1.10393,-1.26051 -1.69314,-1.85536 -0.19012,-0.19195 -0.39759,-0.37715 -0.63878,-0.4989 -0.18683,-0.0943 -0.40903,-0.0888 -0.61354,-0.13324 -0.18816,0.0631 -0.39007,0.0946 -0.56448,0.18924 -0.18901,0.10261 -0.34467,0.25759 -0.51061,0.39439 -0.71511,0.58952 -1.36138,1.26035 -2.10265,1.81929 0,0 1.17247,1.19377 1.17247,1.19377 z" />
    <path
       style="fill:#000000;stroke-width:0.264583"
       id="path51"
       d="m 160.24204,223.42975 c -0.2625,0.12143 -0.55325,0.19465 -0.78751,0.36429 -0.41412,0.29989 -0.77899,0.66456 -1.13714,1.02947 -0.43144,0.4396 -0.88014,0.87241 -1.22819,1.3806 -0.66844,0.97596 -1.30066,2.43127 -1.49051,3.6155 -0.0745,0.46474 0.0106,0.9413 0.0159,1.41195 0.70341,0.88068 0.91249,1.40494 2.55489,1.23937 0.49443,-0.0499 0.83328,-0.55286 1.18724,-0.90166 0.57456,-0.5662 1.40698,-1.68385 1.47291,-2.5557 0.0383,-0.507 -0.20064,-0.99691 -0.30097,-1.49537 -0.35866,-0.5256 -0.71733,-1.0512 -1.07599,-1.5768 0,0 -0.0633,-0.0489 -0.0633,-0.0489 v 0 c 0.0626,0.27527 0.12519,0.55054 0.18778,0.82581 -0.0342,0.34962 -0.0152,0.70864 -0.10276,1.04885 -0.25153,0.97747 -0.71845,1.77565 -1.34356,2.56183 -0.2948,0.37075 -0.80159,0.58911 -0.982,1.02707 -0.16442,0.39915 0.32045,0.97955 0.0256,1.29482 -0.20575,0.21996 -0.42722,-0.42469 -0.64083,-0.63704 -0.0103,-0.45754 -0.11174,-0.92218 -0.0308,-1.37262 0.38973,-2.16807 2.25201,-4.46757 4.13826,-5.56012 0.24789,-0.14358 0.54301,-0.18279 0.81452,-0.27418 0,0 -1.21352,-1.37712 -1.21352,-1.37712 z" />
    <text
       xml:space="preserve"
       transform="matrix(0.26458333,0,0,0.26458333,0,177)"
       id="text11563"
       style="font-size:16px;line-height:1.25;font-family:sans-serif;white-space:pre;shape-inside:url(#rect11565)"><tspan
         x="469.14062"
         y="139.1543"
         id="tspan52838">$C$</tspan></text>
    <text
       xml:space="preserve"
       transform="matrix(0.26458333,0,0,0.26458333,0,177)"
       id="text15727"
       style="font-size:16px;line-height:1.25;font-family:sans-serif;white-space:pre;shape-inside:url(#rect15729)"><tspan
         x="242.5332"
         y="132.82031"
         id="tspan52840">$C$</tspan></text>
    <text
       xml:space="preserve"
       transform="matrix(0.26458333,0,0,0.26458333,0,177)"
       id="text25947"
       style="font-size:16px;line-height:1.25;font-family:sans-serif;white-space:pre;shape-inside:url(#rect25949)"><tspan
         x="142.43164"
         y="222.48828"
         id="tspan52842">$S-1$</tspan></text>
    <text
       xml:space="preserve"
       transform="matrix(0.26458333,0,0,0.26458333,0,177)"
       id="text31585"
       style="font-size:16px;line-height:1.25;font-family:sans-serif;white-space:pre;shape-inside:url(#rect31587)"><tspan
         x="326.43359"
         y="239.31445"
         id="tspan52844">$S$</tspan></text>
    <text
       xml:space="preserve"
       transform="matrix(0.26458333,0,0,0.26458333,0,177)"
       id="text35419"
       style="font-size:16px;line-height:1.25;font-family:sans-serif;white-space:pre;shape-inside:url(#rect35421)"><tspan
         x="573.10352"
         y="237.48242"
         id="tspan52846">$S+1$</tspan></text>
    <text
       xml:space="preserve"
       style="font-size:4.23333px;line-height:1.25;font-family:sans-serif;stroke-width:0.264583"
       x="87.108543"
       y="247.57654"
       id="text43193"><tspan
         sodipodi:role="line"
         id="tspan43191"
         style="stroke-width:0.264583"></tspan></text>
    <path
       style="fill:none;stroke:#000000;stroke-width:0.264583px;stroke-linecap:butt;stroke-linejoin:miter;stroke-opacity:1"
       d="m 78.447185,246.12203 c -1.946598,1.56533 -3.373065,3.66591 -4.692492,5.765 -0.589274,0.93748 -1.07338,1.88192 -1.713997,2.78946 -0.102761,0.14558 -0.563724,0.27004 -0.404333,0.34972 0.350218,0.17506 2.736021,0.40901 2.839479,0.42565 2.437257,0.392 3.210597,0.47861 5.478097,0.97463 0.369178,0.0808 4.819917,0.80027 2.975377,0.80027"
       id="path49918" />
    <path
       style="fill:none;stroke:#000000;stroke-width:0.264583px;stroke-linecap:butt;stroke-linejoin:miter;stroke-opacity:1"
       d="m 74.563459,252.36085 c 2.037752,0.32082 2.65857,0.49668 4.825402,0.47614 3.521871,-0.0334 6.993172,-0.30742 10.519282,-0.26888 3.518236,0.0385 6.945842,-0.19291 10.452067,-0.30246 1.36078,-0.0425 2.67955,0.0379 4.01746,-0.15269 1.22174,-0.17408 5.44694,-1.84873 5.78581,-0.78729"
       id="path49920" />
    <path
       style="fill:none;stroke:#000000;stroke-width:0.264583px;stroke-linecap:butt;stroke-linejoin:miter;stroke-opacity:1"
       d="m 105.36541,244.4894 c 2.27852,0 4.55704,0 6.83557,0 1.43199,0 4.7801,-0.61491 5.61253,1.10905 1.17004,2.42313 -1.64411,6.05343 -2.79251,7.82824 -0.22289,0.34446 -3.04292,4.51511 -3.52633,4.53527 -0.0822,0.003 -0.86598,-0.67715 -0.92977,-0.73112"
       id="path49922" />
    <path
       style="fill:none;stroke:#000000;stroke-width:0.264583px;stroke-linecap:butt;stroke-linejoin:miter;stroke-opacity:1"
       d="m 82.929316,257.22676 c 1.873962,-1.8153 6.094929,9.39159 8.753369,7.55113 2.173857,-1.50498 2.589586,-4.58335 3.125534,-6.82241 0.352017,-1.47066 0.235257,-3.0735 0.235257,-2.48419"
       id="path49924" />
    <path
       style="fill:none;stroke:#000000;stroke-width:0.264583px;stroke-linecap:butt;stroke-linejoin:miter;stroke-opacity:1"
       d="m 100.0256,259.75499 c -0.36324,0.31456 -0.770352,0.58464 -1.089709,0.94366 -0.174747,0.19645 1.480069,1.30053 1.613519,1.41396 2.28469,1.94199 -1.457952,4.65293 -3.424682,4.65293"
       id="path49926" />
    <path
       style="fill:none;stroke:#000000;stroke-width:0.264583px;stroke-linecap:butt;stroke-linejoin:miter;stroke-opacity:1"
       d="m 98.987095,208.96555 c -0.06371,3.69612 -1.014311,7.65665 -0.454678,11.3493 0.131291,0.86631 1.727233,0.29606 2.591943,0.43748"
       id="path49928" />
    <path
       style="fill:none;stroke:#000000;stroke-width:0.264583px;stroke-linecap:butt;stroke-linejoin:miter;stroke-opacity:1"
       d="m 96.833443,217.38454 c 0.533286,-0.20271 1.066575,-0.40543 1.599861,-0.60815 0.593709,-0.34726 1.139881,-0.79302 1.781136,-1.04177 3.34851,-1.29897 8.5322,-0.69932 12.09886,-0.73939 7.69649,-0.0865 15.36335,0.30247 23.05504,0.30247 3.34446,0 5.68457,0.27047 9.10776,-0.13443 3.22257,-0.38118 6.41897,0.0562 9.64086,-0.0953 0.39406,-0.0185 2.07485,-0.20657 2.18906,0.19271"
       id="path49930" />
    <path
       style="fill:none;stroke:#000000;stroke-width:0.264583px;stroke-linecap:butt;stroke-linejoin:miter;stroke-opacity:1"
       d="m 152.40046,202.71972 c 0.0822,4.14091 1.17171,8.20621 2.23665,12.18408 0.0929,0.34703 0.38764,0.67278 0.32714,1.0269 -0.001,0.006 -0.20538,-0.2065 -0.19297,-0.2114 0.49667,-0.19597 1.02316,-0.30575 1.53474,-0.45862"
       id="path49932" />
    <text
       xml:space="preserve"
       style="font-size:4.23333px;line-height:1.25;font-family:sans-serif;stroke-width:0.264583"
       x="137.54634"
       y="220.47658"
       id="text52798"><tspan
         sodipodi:role="line"
         id="tspan52796"
         style="stroke-width:0.264583"
         x="137.54634"
         y="220.47658">$a$</tspan></text>
  </g>
</svg>
