<?xml version="1.0" encoding="UTF-8" standalone="no"?>
<!-- Created with Inkscape (http://www.inkscape.org/) -->

<svg
   width="240mm"
   height="120mm"
   viewBox="0 0 240 120"
   version="1.1"
   id="svg8"
   inkscape:version="1.1.1 (3bf5ae0d25, 2021-09-20, custom)"
   sodipodi:docname="relation-de-dispertion.svg"
   xmlns:inkscape="http://www.inkscape.org/namespaces/inkscape"
   xmlns:sodipodi="http://sodipodi.sourceforge.net/DTD/sodipodi-0.dtd"
   xmlns="http://www.w3.org/2000/svg"
   xmlns:svg="http://www.w3.org/2000/svg"
   xmlns:rdf="http://www.w3.org/1999/02/22-rdf-syntax-ns#"
   xmlns:cc="http://creativecommons.org/ns#"
   xmlns:dc="http://purl.org/dc/elements/1.1/">
  <defs
     id="defs2">
    <rect
       x="519.3267"
       y="76.43559"
       width="127.60881"
       height="109.0805"
       id="rect24297" />
    <rect
       x="258.25188"
       y="289.40031"
       width="33.232963"
       height="58.730061"
       id="rect13071" />
    <rect
       x="596.0382"
       y="302.22391"
       width="71.729732"
       height="76.351008"
       id="rect9435" />
    <rect
       x="284.10584"
       y="53.585613"
       width="87.858033"
       height="78.865751"
       id="rect4215" />
  </defs>
  <sodipodi:namedview
     id="base"
     pagecolor="#ffffff"
     bordercolor="#666666"
     borderopacity="1.0"
     inkscape:pageopacity="0.0"
     inkscape:pageshadow="2"
     inkscape:zoom="0.99437388"
     inkscape:cx="284.6012"
     inkscape:cy="182.02409"
     inkscape:document-units="mm"
     inkscape:current-layer="layer1"
     showgrid="false"
     showborder="true"
     width="200mm"
     showguides="true"
     inkscape:guide-bbox="true"
     inkscape:window-width="1920"
     inkscape:window-height="1127"
     inkscape:window-x="0"
     inkscape:window-y="0"
     inkscape:window-maximized="1"
     inkscape:pagecheckerboard="0">
    <inkscape:grid
       type="xygrid"
       id="grid815"
       units="mm"
       spacingx="10"
       spacingy="10"
       empspacing="4"
       dotted="false" />
  </sodipodi:namedview>
  <metadata
     id="metadata5">
    <rdf:RDF>
      <cc:Work
         rdf:about="">
        <dc:format>image/svg+xml</dc:format>
        <dc:type
           rdf:resource="http://purl.org/dc/dcmitype/StillImage" />
        <dc:title />
      </cc:Work>
    </rdf:RDF>
  </metadata>
  <g
     inkscape:label="Layer 1"
     inkscape:groupmode="layer"
     id="layer1"
     transform="translate(0,-177)">
    <path
       style="fill:#000000;stroke-width:0.264583"
       id="path41"
       d="m 28.586665,208.5567 c 0.04146,0.65436 0.343101,1.25651 0.430856,1.89995 0.04277,0.31362 0,0.63304 0,0.94956 0,0 0.06083,0.052 0.06083,0.052 v 0 c 0,-0.31652 -0.05541,-0.63793 0,-0.94956 0.07242,-0.40734 0.443068,-0.7248 0.430852,-1.16399 0,0 -0.922541,-0.78792 -0.922541,-0.78792 z" />
    <path
       style="fill:#000000;stroke-width:0.264583"
       id="path43"
       d="m 29.165605,226.52655 c -0.141285,0.72435 0.1494,1.43223 0.184251,2.14147 0.01312,0.26727 -0.05194,0.53265 -0.07791,0.79898 0,0 0.06032,0.0525 0.06032,0.0525 v 0 c 0.02598,-0.26635 0.0063,-0.5412 0.07796,-0.79904 0.05697,-0.20495 0.223223,-0.36477 0.300638,-0.56291 0.147905,-0.37855 0.1422,-0.6255 0.172117,-1.01154 0,0 -0.717376,-0.61951 -0.717376,-0.61951 z" />
    <path
       style="fill:#000000;stroke-width:0.264583"
       id="path45"
       d="m 29.801341,238.08993 c 0.03432,0.23186 0.06864,0.46373 0.102957,0.69559 0,0 0.05991,0.053 0.05991,0.053 v 0 c 0.09613,-0.11627 0.192267,-0.23254 0.288401,-0.34881 0,0 -0.451268,-0.3998 -0.451268,-0.3998 z" />
    <path
       style="fill:#000000;stroke-width:0.264583"
       id="path47"
       d="m 28.277753,218.81556 c 0.03053,2.0311 -0.09335,4.05404 -0.224234,6.07971 -0.04071,1.5761 -0.187156,3.19489 0.07024,4.76292 0.08687,0.52917 0.23395,1.04668 0.350925,1.57002 0,0 0.06061,0.0522 0.06061,0.0522 v 0 c 0.151336,-0.29506 0.36775,-0.565 0.454009,-0.88519 0.09359,-0.34738 0.0701,-0.71698 0.07453,-1.07672 0.01513,-1.22869 -0.185661,-2.45451 -0.152475,-3.6842 0.0093,-0.42871 0.0054,-0.85791 0.0279,-1.28613 0.0803,-1.52644 0.433168,-3.01811 0.488889,-4.54539 0,0 -1.150401,-0.98723 -1.150401,-0.98723 z" />
    <path
       style="fill:#000000;stroke-width:0.264583"
       id="path49"
       d="m 28.105938,240.47387 c 0.01529,0.20241 0.03057,0.40482 0.04585,0.60724 0.0792,0.34991 0.195879,0.6934 0.237593,1.04973 0.04329,0.36983 0.01069,0.74463 0.01603,1.11694 0,0 0.0601,0.0528 0.0601,0.0528 v 0 c 0.0978,-0.28291 0.163438,-0.57907 0.293386,-0.84873 0.546073,-1.13318 0.273383,0.0461 0.454967,-1.02669 0,0 -1.107938,-0.9513 -1.107938,-0.9513 z" />
    <path
       style="fill:#000000;stroke-width:0.264583"
       id="path51"
       d="m 27.156777,248.42162 c 0.116523,0.64544 0.172636,1.33851 0.365509,1.96686 0.13458,0.43843 0.325869,0.85741 0.488802,1.28612 0,0 0.06106,0.0517 0.06106,0.0517 v 0 c 0.135726,-0.18159 0.352828,-0.32466 0.407178,-0.54476 0.104011,-0.42121 -0.255749,-1.63092 -0.440311,-2.05305 0,0 -0.882238,-0.70685 -0.882238,-0.70685 z" />
    <path
       style="fill:#000000;stroke-width:0.264583"
       id="path53"
       d="m 28.642363,262.30748 c 0.110961,0.30542 0.221924,0.61085 0.332885,0.91628 0,0 0.06056,0.0523 0.06056,0.0523 v 0 c 0.131763,-0.0969 0.263523,-0.19388 0.395285,-0.29082 0,0 -0.788733,-0.67773 -0.788733,-0.67773 z" />
    <path
       style="fill:#000000;stroke-width:0.264583"
       id="path55"
       d="m 32.866806,212.22261 c 1.89907,-0.67424 3.908814,-0.73794 5.900719,-0.68561 3.10566,0.16667 5.665105,1.62965 8.234743,3.23661 2.095262,1.37446 4.05637,2.94844 5.824268,4.72582 0.124042,0.12471 0.215185,0.27852 0.330165,0.41163 0.492607,0.57029 0.994873,1.13216 1.492308,1.69824 2.561747,3.07921 5.034302,6.26042 7.033538,9.74118 0.403942,0.70329 0.768803,1.42831 1.153203,2.14246 2.135142,4.22337 3.389074,8.81068 4.646752,13.35199 0.505166,1.82871 0.912942,3.68121 1.288786,5.5399 -0.0041,0.15393 0.125764,0.37098 0.06212,0.52214 0.07738,0.12556 0.09044,0.26831 0.114175,0.41082 0.0061,0.15333 0.06356,0.31079 0.06003,0.46384 0.0087,0.0561 0.01021,0.0771 -0.03571,0.11077 5.29e-4,0.0314 -0.0145,0.0532 -0.03295,0.0727 -0.08322,-0.0543 -0.0024,-0.2316 -0.131138,-0.293 -0.134178,-0.0311 -0.26843,7.9e-4 -0.396293,-0.0572 -0.03617,-0.009 -0.05912,-0.0244 -0.08238,-0.0444 0.643787,0.61516 1.287574,1.23032 1.931358,1.84547 0.03186,-0.10825 -0.06041,-0.0319 -0.05623,-0.0544 0.0084,-0.0455 0.02223,-0.0899 0.03334,-0.13488 0.141549,-0.63796 0.288494,-1.27523 0.497276,-1.89488 0.404768,-1.03691 0.899608,-2.03552 1.342462,-3.05659 1.031745,-2.51726 2.22006,-4.95967 3.569486,-7.32074 2.040993,-3.17781 4.330792,-6.19289 6.602502,-9.20838 2.011341,-2.60277 4.16224,-5.11069 6.572472,-7.35492 0.478393,-0.44544 0.976233,-0.86953 1.46435,-1.30429 2.985677,-2.58983 6.370254,-4.62861 9.837322,-6.49542 4.17563,-2.20262 8.34035,-4.42606 12.62141,-6.4183 3.39517,-1.57045 6.91922,-2.82568 10.51009,-3.86141 2.28228,-0.6552 4.65117,-0.92473 6.99107,-1.29645 0.80713,-0.39106 0.56815,-0.0704 0.69397,-0.97868 0,0 -0.0529,-0.0601 -0.0529,-0.0601 v 0 c -1.42379,-0.62716 -0.7294,-0.4752 -2.05516,-0.56898 -2.39212,0.3207 -4.80061,0.55989 -7.14334,1.17049 -3.59704,1.02067 -7.08404,2.37325 -10.47007,3.96001 -4.26616,2.04684 -8.47215,4.21008 -12.680567,6.3728 -3.480202,1.87643 -6.872912,3.94285 -9.881023,6.52782 -1.30097,1.15724 -1.664105,1.44758 -2.899699,2.67774 -1.876268,1.86801 -3.561101,3.91293 -5.169251,6.01336 -2.290199,3.00858 -4.624179,5.99373 -6.700052,9.15649 -1.354833,2.35156 -2.560127,4.78191 -3.673938,7.25675 -0.466437,1.0096 -0.988015,1.9932 -1.423077,3.01648 -0.206518,0.61726 -0.355574,1.25085 -0.540729,1.8746 -0.358005,1.14053 -0.671026,-0.24183 1.89761,2.31925 0.01254,-0.009 0.02395,-0.0317 0.04282,-0.037 0.07519,-0.0922 0.262467,0.0224 0.360035,-0.0452 0.08113,-0.0883 0.07435,-0.23405 0.0019,-0.32585 -0.0108,-0.0437 -0.03385,-0.0832 -0.032,-0.12983 -0.02336,-0.0673 -0.05078,-0.1241 -0.04279,-0.19648 -0.02222,-0.14735 0.0019,-0.30446 -0.02942,-0.45263 -0.01199,-0.12949 -0.02347,-0.25086 -0.0059,-0.3744 -0.0428,0.0191 -0.100531,-0.49372 -0.131847,-0.55105 -0.48859,-1.93047 -1.044551,-3.84387 -1.555559,-5.76838 -1.312683,-4.54701 -2.583598,-9.15156 -4.671494,-13.41592 -0.383797,-0.71727 -0.748334,-1.44519 -1.15139,-2.15183 -1.984994,-3.48008 -4.438859,-6.66296 -6.989149,-9.7421 -2.959256,-3.39482 -6.096923,-6.67038 -9.930606,-9.08807 -2.624031,-1.63032 -5.064863,-3.02276 -8.243003,-3.11017 -2.015525,-0.0144 -4.046967,0.0366 -5.981362,0.67233 0,0 1.078675,1.1858 1.078675,1.1858 z" />
    <path
       style="fill:#000000;stroke-width:0.264583"
       id="path57"
       d="m 129.94131,207.01322 c 0.5047,1.59126 0.82898,3.2317 1.31557,4.82816 0.20994,0.6888 0.4492,1.36832 0.67379,2.05248 0,0 0.0616,0.0511 0.0616,0.0511 v 0 c 0.0535,-0.4563 0.1617,-0.90948 0.16036,-1.3689 -0.004,-1.52258 -0.53956,-2.99743 -0.85981,-4.46721 0,0 -1.35151,-1.09558 -1.35151,-1.09558 z" />
    <path
       style="fill:#000000;stroke-width:0.264583"
       id="path59"
       d="m 131.19999,230.53127 c 0.0348,0.17298 0.35654,1.77458 0.35941,1.78757 0.0943,0.42639 0.24224,0.84215 0.30279,1.27464 0.0484,0.34564 0.0148,0.69786 0.0222,1.04679 0,0 0.061,0.0518 0.061,0.0518 v 0 c -0.007,-0.34895 -0.0626,-0.70017 -0.0222,-1.04685 0.0328,-0.28161 0.17598,-0.53984 0.23949,-0.81616 0.0714,-0.31078 0.15011,-0.97506 0.19463,-1.32311 0,0 -1.1573,-0.97471 -1.1573,-0.97471 z" />
    <path
       style="fill:#000000;stroke-width:0.264583"
       id="path61"
       d="m 131.28414,241.38519 c 0.0343,0.91947 -0.0543,0.38001 0.47929,1.56842 0,0 0.0607,0.0521 0.0607,0.0521 v 0 c 0.63146,-0.28254 0.46633,-0.0403 0.52409,-0.70639 0,0 -1.06412,-0.9141 -1.06412,-0.9141 z" />
    <path
       style="fill:#000000;stroke-width:0.264583"
       id="path63"
       d="m 131.34822,219.98985 c 0.0541,0.71364 0.0564,1.46425 0.22882,2.16251 0.1267,0.51321 0.37376,0.99415 0.47554,1.51288 0.0835,0.42542 0.0507,0.86557 0.076,1.29835 0,0 0.0609,0.0519 0.0609,0.0519 v 0 c 0.12882,-3.79705 -0.18113,0.8663 0.40468,-2.00941 0.11745,-0.57656 -0.12127,-1.47208 -0.1345,-2.07983 0,0 -1.11149,-0.93637 -1.11149,-0.93637 z" />
    <path
       style="fill:#000000;stroke-width:0.264583"
       id="path65"
       d="m 129.99005,246.47272 c 0.17558,1.12134 0.2252,2.25733 0.34908,3.38422 0.19797,1.80091 0.32603,2.20058 0.43999,4.05141 0.0407,0.66093 0.0366,1.32387 0.0549,1.9858 0,0 0.0606,0.0522 0.0606,0.0522 v 0 c 0.35114,-2.83852 0.72214,-5.54915 0.36502,-8.41367 0,0 -1.26957,-1.05998 -1.26957,-1.05998 z" />
    <path
       style="fill:#000000;stroke-width:0.264583"
       id="path67"
       d="m 17.184215,259.8119 c 0.138498,-0.0882 0.271336,-0.18593 0.415495,-0.2645 0.628533,-0.34259 1.070553,-0.4986 1.778753,-0.74811 1.57554,-0.55511 3.177625,-0.98934 4.792654,-1.41129 4.775971,-1.14418 9.649853,-1.7855 14.52791,-2.29719 5.050716,-0.45112 10.116592,-0.70803 15.177878,-1.00985 5.68656,-0.28115 11.360452,-0.75337 17.031361,-1.25208 5.409192,-0.47448 10.79336,-1.18286 16.195881,-1.72158 5.70093,-0.50958 11.424095,-0.70933 17.139553,-0.98854 5.71965,-0.30282 11.44731,-0.36556 17.17236,-0.49204 6.32754,-0.19897 12.65333,-0.35317 18.98281,-0.18266 3.64608,0.1526 7.28674,0.42212 10.92243,0.73311 0.9045,0.0694 1.80457,0.18536 2.70805,0.26519 0.37649,0.0333 0.75417,0.11594 1.13077,0.0839 0.51269,-0.0437 0.70238,-0.2634 1.05739,-0.54593 0,0 -0.0509,-0.0617 -0.0509,-0.0617 v 0 c -0.83892,-0.42928 -1.47021,-0.80462 -2.3935,-1.05626 -0.40084,-0.10926 -0.81889,-0.14163 -1.23018,-0.20039 -0.89002,-0.12717 -1.86839,-0.22311 -2.76039,-0.31827 -3.60175,-0.31639 -7.21254,-0.52637 -10.82802,-0.59689 -6.32562,-0.0574 -12.64898,0.11462 -18.97361,0.20618 -5.70408,0.094 -11.40404,0.31602 -17.10258,0.58204 -5.7172,0.24849 -11.440799,0.46516 -17.139371,1.00783 -5.359366,0.60762 -10.696773,1.40584 -16.073625,1.85704 -5.650995,0.52295 -11.304897,1.02872 -16.974238,1.30919 -5.032753,0.29462 -10.066504,0.61332 -15.081792,1.13383 -4.85584,0.55893 -9.713963,1.22194 -14.462974,2.40572 -2.40356,0.63124 -4.887636,1.21599 -7.085172,2.41103 0,0 1.123047,1.15228 1.123047,1.15228 z" />
    <path
       style="fill:#000000;stroke-width:0.264583"
       id="path93"
       d="m 150.97449,243.82448 c 2.33801,1.01619 4.69037,1.99166 6.96842,3.13957 0.72975,0.37045 1.48429,0.70759 2.15761,1.1789 0.10223,0.0716 0.38088,0.32162 0.29304,0.23299 -1.55092,-1.56494 -1.55264,-2.1189 -1.46724,-1.2097 -0.0719,0.14222 -0.12537,0.29536 -0.21567,0.42666 -0.65352,0.9502 -1.62519,1.70589 -2.51695,2.40964 -1.16114,0.91634 -1.53131,1.14785 -2.74413,1.99371 -0.32179,0.22266 -1.92537,1.2527 -2.18789,1.70881 -0.2143,0.37233 -0.1853,0.83897 -0.27795,1.25846 0,0 0.0555,0.0576 0.0555,0.0576 v 0 c 0.50676,0.0126 1.02193,0.13059 1.52028,0.0378 0.70613,-0.13153 1.9731,-1.03655 2.51175,-1.38298 1.3563,-0.94883 2.71648,-1.88408 3.95187,-2.991 0.42069,-0.37694 1.04797,-0.99112 1.40033,-1.47636 0.11156,-0.15363 0.18707,-0.33044 0.2806,-0.49566 0.0257,-0.12557 0.15589,-0.27548 0.0772,-0.37672 -1.3121,-1.68903 -2.28352,-2.22305 -4.10429,-2.9914 -2.33174,-0.97219 -4.6673,-1.95299 -6.91935,-3.09926 0,0 1.21683,1.57895 1.21683,1.57895 z" />
    <path
       style="fill:#000000;stroke-width:0.264583"
       id="path95"
       d="m 70.530296,250.8202 c -0.215405,-6.81598 -0.459941,-13.6299 -0.600102,-20.44836 -0.117647,-9.15534 0.0964,-18.31045 -0.242197,-27.46208 -0.119062,-3.05524 -0.400743,-6.10015 -0.600834,-9.15018 -0.230605,-1.40123 -0.405201,-2.80823 -0.537961,-4.22233 -0.139584,-1.24395 -0.128604,-2.49752 -0.206926,-3.7448 -0.190817,-0.51608 -0.500157,-0.65622 -0.9701,-0.93578 0,0 0.05692,0.0562 0.05692,0.0562 v 0 c -0.151075,-0.18256 -0.439153,-0.77602 -0.789808,-0.56088 0.0417,1.27315 0.217257,2.5407 0.274614,3.81321 0.114644,1.39637 0.204004,2.80372 0.47289,4.18059 0.606401,3.13066 0.756216,6.33488 1.047329,9.50321 0.06653,1.16549 0.148458,2.33021 0.199594,3.49649 0.352205,8.03266 0.170111,16.07664 0.224612,24.11361 0.06064,6.69445 0.165566,13.3886 0.173842,20.08342 0,0 1.498132,1.27766 1.498132,1.27766 z" />
    <path
       style="fill:#000000;stroke-width:0.264583"
       id="path97"
       d="m 59.824188,187.20477 c 1.62174,-1.19308 3.22658,-2.45935 4.994439,-3.43549 0.38019,-0.20993 0.779965,-0.38226 1.169948,-0.57338 0.371811,-0.11406 0.732152,-0.27625 1.115435,-0.34217 1.507795,-0.25933 3.035464,0.34698 4.221816,1.24268 0.339344,0.25621 0.637294,0.56306 0.955943,0.8446 -0.02946,0.0443 -0.112088,0.0852 -0.08838,0.13278 0.234563,0.47097 0.569423,0.88579 0.824785,1.34581 0.274572,0.49463 0.503746,1.01319 0.763641,1.51568 0.315436,0.60989 0.698933,1.18718 0.962279,1.8213 0.181313,0.43659 0.242276,0.91392 0.363415,1.37088 0,0 0.06216,0.0504 0.06216,0.0504 v 0 c -0.120996,-0.45714 -0.277519,-0.90632 -0.362992,-1.37141 -0.06948,-0.37808 0.0019,-0.77826 -0.100177,-1.14887 -0.135662,-0.4926 -0.374213,-0.95245 -0.604178,-1.40871 -0.862161,-1.71057 -1.161336,-1.76455 -2.669313,-3.45891 -0.325125,-0.27732 -0.62934,-0.58122 -0.97537,-0.83197 -1.216216,-0.88133 -2.756059,-1.45333 -4.265002,-1.10408 -0.377182,0.0873 -0.727858,0.26414 -1.091787,0.39621 -2.192388,1.14662 -4.235876,2.54309 -6.305349,3.89514 0,0 1.028695,1.05954 1.028695,1.05954 z" />
    <text
       xml:space="preserve"
       transform="matrix(0.26458333,0,0,0.26458333,0,177)"
       id="text4213"
       style="font-size:16px;line-height:1.25;font-family:sans-serif;white-space:pre;shape-inside:url(#rect4215)"><tspan
         x="284.10547"
         y="67.742188"
         id="tspan31938">$\omega$</tspan></text>
    <text
       xml:space="preserve"
       transform="matrix(0.26458333,0,0,0.26458333,0,177)"
       id="text9433"
       style="font-size:16px;line-height:1.25;font-family:sans-serif;white-space:pre;shape-inside:url(#rect9435)"><tspan
         x="596.03906"
         y="316.38086"
         id="tspan31940">$k$</tspan></text>
    <text
       xml:space="preserve"
       transform="matrix(0.26458333,0,0,0.26458333,0,177)"
       id="text13069"
       style="font-size:16px;line-height:1.25;font-family:sans-serif;white-space:pre;shape-inside:url(#rect13071)"><tspan
         x="258.25195"
         y="303.55664"
         id="tspan31942">0</tspan></text>
    <text
       xml:space="preserve"
       transform="matrix(0.26458333,0,0,0.26458333,0,177)"
       id="text24295"
       style="font-size:16px;line-height:1.25;font-family:sans-serif;white-space:pre;shape-inside:url(#rect24297)"><tspan
         x="519.32617"
         y="90.591797"
         id="tspan31944">$2\sqrt{\frac{c</tspan><tspan
         x="519.32617"
         y="110.5918"
         id="tspan31946">}{m}}$</tspan></text>
    <text
       xml:space="preserve"
       style="font-size:4.23333px;line-height:1.25;font-family:sans-serif;stroke-width:0.264583"
       x="125.47736"
       y="261.17197"
       id="text28659"><tspan
         sodipodi:role="line"
         id="tspan28657"
         style="stroke-width:0.264583"
         x="125.47736"
         y="261.17197">$\frac\pi a$</tspan></text>
    <text
       xml:space="preserve"
       style="font-size:4.23333px;line-height:1.25;font-family:sans-serif;stroke-width:0.264583"
       x="21.953186"
       y="262.84598"
       id="text31897"><tspan
         sodipodi:role="line"
         id="tspan31895"
         style="stroke-width:0.264583"
         x="21.953186"
         y="262.84598">$-\frac\pi a$</tspan></text>
  </g>
</svg>
