<?xml version="1.0" encoding="UTF-8" standalone="no"?>
<!-- Created with Inkscape (http://www.inkscape.org/) -->

<svg
   width="240mm"
   height="120mm"
   viewBox="0 0 240 120"
   version="1.1"
   id="svg8"
   inkscape:version="1.1.2 (0a00cf5339, 2022-02-04, custom)"
   sodipodi:docname="semiconducteur.svg"
   xmlns:inkscape="http://www.inkscape.org/namespaces/inkscape"
   xmlns:sodipodi="http://sodipodi.sourceforge.net/DTD/sodipodi-0.dtd"
   xmlns="http://www.w3.org/2000/svg"
   xmlns:svg="http://www.w3.org/2000/svg"
   xmlns:rdf="http://www.w3.org/1999/02/22-rdf-syntax-ns#"
   xmlns:cc="http://creativecommons.org/ns#"
   xmlns:dc="http://purl.org/dc/elements/1.1/">
  <defs
     id="defs2">
    <inkscape:path-effect
       effect="bspline"
       id="path-effect1194"
       is_visible="true"
       lpeversion="1"
       weight="33.333333"
       steps="2"
       helper_size="0"
       apply_no_weight="true"
       apply_with_weight="true"
       only_selected="false" />
    <inkscape:path-effect
       effect="bspline"
       id="path-effect1190"
       is_visible="true"
       lpeversion="1"
       weight="33.333333"
       steps="2"
       helper_size="0"
       apply_no_weight="true"
       apply_with_weight="true"
       only_selected="false" />
    <marker
       style="overflow:visible;"
       id="Arrow1Lend"
       refX="0.0"
       refY="0.0"
       orient="auto"
       inkscape:stockid="Arrow1Lend"
       inkscape:isstock="true">
      <path
         transform="scale(0.8) rotate(180) translate(12.5,0)"
         style="fill-rule:evenodd;fill:context-stroke;stroke:context-stroke;stroke-width:1.0pt;"
         d="M 0.0,0.0 L 5.0,-5.0 L -12.5,0.0 L 5.0,5.0 L 0.0,0.0 z "
         id="path880" />
    </marker>
    <marker
       style="overflow:visible"
       id="Arrow1Lstart"
       refX="0.0"
       refY="0.0"
       orient="auto"
       inkscape:stockid="Arrow1Lstart"
       inkscape:isstock="true">
      <path
         transform="scale(0.8) translate(12.5,0)"
         style="fill-rule:evenodd;fill:context-stroke;stroke:context-stroke;stroke-width:1.0pt"
         d="M 0.0,0.0 L 5.0,-5.0 L -12.5,0.0 L 5.0,5.0 L 0.0,0.0 z "
         id="path877" />
    </marker>
    <inkscape:path-effect
       effect="bspline"
       id="path-effect1190-3"
       is_visible="true"
       lpeversion="1"
       weight="33.333333"
       steps="2"
       helper_size="0"
       apply_no_weight="true"
       apply_with_weight="true"
       only_selected="false" />
    <inkscape:path-effect
       effect="bspline"
       id="path-effect1194-7"
       is_visible="true"
       lpeversion="1"
       weight="33.333333"
       steps="2"
       helper_size="0"
       apply_no_weight="true"
       apply_with_weight="true"
       only_selected="false" />
  </defs>
  <sodipodi:namedview
     id="base"
     pagecolor="#ffffff"
     bordercolor="#666666"
     borderopacity="1.0"
     inkscape:pageopacity="0.0"
     inkscape:pageshadow="2"
     inkscape:zoom="0.99437388"
     inkscape:cx="461.09417"
     inkscape:cy="182.02409"
     inkscape:document-units="mm"
     inkscape:current-layer="layer1"
     showgrid="false"
     showborder="true"
     width="200mm"
     showguides="true"
     inkscape:guide-bbox="true"
     inkscape:window-width="1920"
     inkscape:window-height="1171"
     inkscape:window-x="0"
     inkscape:window-y="0"
     inkscape:window-maximized="1"
     inkscape:pagecheckerboard="0">
    <inkscape:grid
       type="xygrid"
       id="grid815"
       units="mm"
       spacingx="10"
       spacingy="10"
       empspacing="4"
       dotted="false" />
  </sodipodi:namedview>
  <metadata
     id="metadata5">
    <rdf:RDF>
      <cc:Work
         rdf:about="">
        <dc:format>image/svg+xml</dc:format>
        <dc:type
           rdf:resource="http://purl.org/dc/dcmitype/StillImage" />
      </cc:Work>
    </rdf:RDF>
  </metadata>
  <g
     inkscape:label="Layer 1"
     inkscape:groupmode="layer"
     id="layer1"
     transform="translate(0,-177)">
    <path
       style="fill:none;stroke:#000000;stroke-width:0.264583px;stroke-linecap:butt;stroke-linejoin:miter;stroke-opacity:1;marker-end:url(#Arrow1Lend);marker-start:url(#Arrow1Lstart)"
       d="m 25.76043,189.01285 v 91.34276 h 176.57609"
       id="path875" />
    <path
       style="fill:none;stroke:#000000;stroke-width:0.264583px;stroke-linecap:butt;stroke-linejoin:miter;stroke-opacity:1"
       d="m 25.76043,280.35561 c 0.640021,-0.23579 1.278569,-0.47103 2.012711,-0.65016 0.734141,-0.17913 1.563139,-0.30235 3.791962,-1.18744 2.228824,-0.88508 5.858483,-2.53181 8.636684,-3.82566 2.778202,-1.29384 4.705057,-2.23482 6.598113,-3.28779 1.893057,-1.05296 3.752694,-2.21799 5.556395,-3.29903 1.803702,-1.08103 3.551313,-2.07803 7.057212,-5.67917 3.5059,-3.60114 8.771142,-9.80716 13.453678,-17.31218 4.682535,-7.50501 8.782702,-16.30994 12.917068,-22.07987 4.134365,-5.76992 8.301745,-8.50325 12.190334,-9.00638 3.888593,-0.50313 7.495853,1.22201 11.545533,3.59714 4.04969,2.37513 8.54195,5.39973 12.12616,9.28744 3.5842,3.8877 6.26163,8.63743 8.21659,11.98687 1.95495,3.34943 3.18724,5.29861 6.50932,8.3564 3.32207,3.05779 8.73296,7.22501 12.654,9.95806 3.92103,2.73305 6.35201,4.0325 8.64294,5.2928 2.29093,1.26029 4.44184,2.48133 6.2847,3.36037 1.84286,0.87904 3.37761,1.41674 5.67976,2.29058 2.30215,0.87385 5.37168,2.08369 7.52813,2.82836 2.15646,0.74466 3.39995,1.02472 5.61809,2.12873 2.21813,1.10401 5.41088,3.03078 7.66266,4.25712 2.25177,1.22635 3.56248,1.75285 4.86999,2.27807"
       id="path1188"
       inkscape:path-effect="#path-effect1190"
       inkscape:original-d="m 25.76043,280.35561 c 0.641196,-0.2326 1.279746,-0.46784 1.91565,-0.70574 0.831644,-0.12058 1.660642,-0.2438 2.486994,-0.36967 3.6323,-1.64408 7.261958,-3.29081 10.888969,-4.94018 1.9295,-0.93833 3.856355,-1.87931 5.780564,-2.82294 1.862285,-1.16239 3.721923,-2.32742 5.578917,-3.4951 1.750261,-0.99435 3.497873,-1.99134 5.24284,-2.99098 5.267888,-6.20337 10.533131,-12.40939 15.795728,-18.61806 4.102814,-8.80229 8.202983,-17.60722 12.300505,-26.4148 4.170029,-2.73069 8.33741,-5.46402 12.502147,-8.2 3.609896,1.72778 7.217156,3.45292 10.821756,5.17541 4.49491,3.02724 8.98717,6.05184 13.47678,9.07379 2.68008,4.75238 5.35751,9.50211 8.0323,14.2492 1.23494,1.95183 2.46723,3.90101 3.69687,5.84755 5.41352,4.16986 10.8244,8.33709 16.23264,12.50166 2.43362,1.3021 4.8646,2.60155 7.29293,3.89836 2.15355,1.22369 4.30446,2.44473 6.45272,3.66312 1.53741,0.54035 3.07216,1.07806 4.60428,1.61311 3.07217,1.21249 6.1417,2.42233 9.20858,3.62952 1.24614,0.2827 2.48963,0.56276 3.73048,0.84018 3.1954,1.92942 6.38815,3.85619 9.57826,5.78032 1.31335,0.52915 2.62406,1.05566 3.93212,1.57951" />
    <path
       style="fill:none;stroke:#0000ff;stroke-width:0.264583px;stroke-linecap:butt;stroke-linejoin:miter;stroke-opacity:1"
       d="m 46.708884,280.13108 c 0.640021,-0.23579 1.278569,-0.47103 2.012711,-0.65016 0.734141,-0.17913 1.563139,-0.30235 3.791962,-1.18744 2.228824,-0.88508 5.858483,-2.53181 8.636684,-3.82566 2.778202,-1.29384 4.705057,-2.23482 6.598113,-3.28779 1.893057,-1.05296 3.752694,-2.21799 5.556395,-3.29903 1.803702,-1.08103 3.551313,-2.07803 7.057212,-5.67917 3.505899,-3.60114 8.77114,-9.80716 13.453677,-17.31218 4.682537,-7.50501 8.782712,-16.30994 12.917072,-22.07987 4.13437,-5.76992 8.30175,-8.50326 12.19034,-9.00638 3.88859,-0.50313 7.49585,1.22201 11.54553,3.59714 4.04969,2.37513 8.54195,5.39973 12.12616,9.28744 3.5842,3.8877 6.26163,8.63743 8.21659,11.98687 1.95495,3.34943 3.18724,5.29861 6.50932,8.3564 3.32207,3.05779 8.73296,7.22501 12.654,9.95806 3.92103,2.73305 6.35201,4.0325 8.64294,5.2928 2.29093,1.26029 4.44184,2.48133 6.2847,3.36037 1.84286,0.87904 3.37761,1.41674 5.67976,2.29058 2.30215,0.87385 5.37168,2.08369 7.52813,2.82836 2.15646,0.74466 3.39995,1.02472 5.61809,2.12873 2.21813,1.10401 5.41088,3.03078 7.66266,4.25712 2.25177,1.22635 3.56248,1.75285 4.86999,2.27807"
       id="path1188-6"
       inkscape:path-effect="#path-effect1190-3"
       inkscape:original-d="m 46.708884,280.13108 c 0.641196,-0.2326 1.279746,-0.46784 1.91565,-0.70574 0.831644,-0.12058 1.660642,-0.2438 2.486994,-0.36967 3.6323,-1.64408 7.261958,-3.29081 10.888969,-4.94018 1.9295,-0.93833 3.856355,-1.87931 5.780564,-2.82294 1.862285,-1.16239 3.721923,-2.32742 5.578917,-3.4951 1.750261,-0.99435 3.497873,-1.99134 5.24284,-2.99098 5.267888,-6.20337 10.533127,-12.40939 15.795727,-18.61806 4.10281,-8.80229 8.202985,-17.60722 12.300515,-26.4148 4.17003,-2.73069 8.33741,-5.46402 12.50214,-8.2 3.6099,1.72778 7.21716,3.45292 10.82176,5.17541 4.49491,3.02724 8.98717,6.05184 13.47678,9.07379 2.68008,4.75238 5.35751,9.50211 8.0323,14.2492 1.23494,1.95183 2.46723,3.90101 3.69687,5.84755 5.41352,4.16986 10.8244,8.33709 16.23264,12.50166 2.43362,1.3021 4.8646,2.60155 7.29293,3.89836 2.15355,1.22369 4.30446,2.44473 6.45272,3.66312 1.53741,0.54035 3.07216,1.07806 4.60428,1.61311 3.07217,1.21249 6.1417,2.42233 9.20858,3.62952 1.24614,0.2827 2.48963,0.56276 3.73048,0.84018 3.1954,1.92942 6.38815,3.85619 9.57826,5.78032 1.31335,0.52915 2.62406,1.05566 3.93212,1.57951" />
    <path
       style="fill:none;stroke:#000000;stroke-width:0.264583px;stroke-linecap:butt;stroke-linejoin:miter;stroke-opacity:1"
       d="m 26.768665,194.3227 c 1.201838,0.65143 2.400523,1.30116 5.105857,1.89981 2.705333,0.59865 6.917528,1.14756 11.465814,1.77491 4.548286,0.62735 9.43264,1.33308 13.426356,1.86514 3.993716,0.53206 7.096847,0.89053 9.393303,1.09765 2.296456,0.20713 3.786408,0.26314 6.407988,0.68349 2.621581,0.42036 6.374468,1.20451 11.168956,1.51782 4.794488,0.31331 10.631067,0.15647 16.876531,-0.0452 6.24546,-0.20165 12.89982,-0.4481 18.01909,-1.0196 5.11927,-0.5715 8.70412,-1.46768 12.06487,-2.34706 3.36075,-0.87939 6.4975,-1.74195 9.08546,-2.36362 2.58795,-0.62167 4.62683,-1.00254 6.07712,-1.3947 1.45028,-0.39215 2.31289,-0.79544 3.88694,-1.47317 1.57405,-0.67774 3.85939,-1.62993 6.33482,-2.99093 2.47544,-1.361 5.14167,-3.13094 6.92282,-4.34075 1.78115,-1.2098 2.67736,-1.85953 3.5731,-2.50891"
       id="path1192"
       inkscape:path-effect="#path-effect1194"
       inkscape:original-d="m 26.768665,194.3227 c 1.20133,0.65237 2.400017,1.30209 3.596056,1.94917 4.214839,0.55156 8.427034,1.10047 12.636582,1.64673 4.886999,0.70838 9.771353,1.41412 14.653061,2.11721 3.105777,0.36112 6.208908,0.71959 9.309393,1.07541 1.492597,0.0587 2.98255,0.11468 4.469855,0.16804 3.755533,0.7868 7.50842,1.57096 11.258661,2.35247 5.839227,-0.15419 11.675806,-0.31102 17.509737,-0.4705 6.65702,-0.2438 13.31138,-0.49024 19.96311,-0.73934 3.58749,-0.89353 7.17234,-1.78971 10.75454,-2.68854 3.13938,-0.85992 6.27613,-1.72249 9.41022,-2.5877 2.04153,-0.37823 4.08041,-0.7591 6.11665,-1.14262 0.86525,-0.40064 1.72786,-0.80392 2.58782,-1.20985 2.28798,-0.94954 4.57332,-1.90172 6.85602,-2.85656 2.66887,-1.7673 5.3351,-3.53724 7.99868,-5.30984 0.89886,-0.64708 1.79507,-1.29681 2.68864,-1.94918" />
    <path
       style="fill:none;stroke:#0000ff;stroke-width:0.264583px;stroke-linecap:butt;stroke-linejoin:miter;stroke-opacity:1"
       d="m 95.019014,194.82042 c 1.201838,0.65143 2.400522,1.30116 5.105856,1.89981 2.70534,0.59865 6.91754,1.14756 11.46582,1.77491 4.54828,0.62735 9.43264,1.33308 13.42635,1.86514 3.99372,0.53206 7.09685,0.89053 9.3933,1.09765 2.29646,0.20713 3.78642,0.26314 6.40799,0.68349 2.62158,0.42036 6.37447,1.20451 11.16896,1.51782 4.79449,0.31331 10.63107,0.15647 16.87653,-0.0452 6.24546,-0.20165 12.89982,-0.4481 18.01909,-1.0196 5.11927,-0.5715 8.70412,-1.46768 12.06487,-2.34706 3.36075,-0.87939 6.4975,-1.74195 9.08546,-2.36362 2.58795,-0.62167 4.62683,-1.00254 6.07712,-1.3947 1.45028,-0.39215 2.31289,-0.79544 3.88694,-1.47317 1.57405,-0.67774 3.85939,-1.62993 6.33482,-2.99093 2.47544,-1.361 5.14167,-3.13094 6.92282,-4.34075 1.78115,-1.2098 2.67736,-1.85953 3.5731,-2.50891"
       id="path1192-5"
       inkscape:path-effect="#path-effect1194-7"
       inkscape:original-d="m 95.019014,194.82042 c 1.20133,0.65237 2.400015,1.30209 3.596055,1.94917 4.214841,0.55156 8.427041,1.10047 12.636581,1.64673 4.887,0.70838 9.77136,1.41412 14.65306,2.11721 3.10578,0.36112 6.20891,0.71959 9.3094,1.07541 1.49259,0.0587 2.98255,0.11468 4.46985,0.16804 3.75553,0.7868 7.50842,1.57096 11.25866,2.35247 5.83923,-0.15419 11.67581,-0.31102 17.50974,-0.4705 6.65702,-0.2438 13.31138,-0.49024 19.96311,-0.73934 3.58749,-0.89353 7.17234,-1.78971 10.75454,-2.68854 3.13938,-0.85992 6.27613,-1.72249 9.41022,-2.5877 2.04153,-0.37823 4.08041,-0.7591 6.11665,-1.14262 0.86525,-0.40064 1.72786,-0.80392 2.58782,-1.20985 2.28798,-0.94954 4.57332,-1.90172 6.85602,-2.85656 2.66887,-1.7673 5.3351,-3.53724 7.99868,-5.30984 0.89886,-0.64708 1.79507,-1.29681 2.68864,-1.94918" />
    <path
       style="fill:none;stroke:#000000;stroke-width:0.264583px;stroke-linecap:butt;stroke-linejoin:miter;stroke-opacity:1;marker-end:url(#Arrow1Lend);marker-start:url(#Arrow1Lstart)"
       d="m 103.52919,205.0432 0.94102,7.32624"
       id="path1248" />
    <text
       xml:space="preserve"
       style="font-size:4.23333px;line-height:1.25;font-family:sans-serif;stroke-width:0.264583"
       x="110.3852"
       y="209.09575"
       id="text11702"><tspan
         sodipodi:role="line"
         id="tspan11700"
         style="stroke-width:0.264583"
         x="110.3852"
         y="209.09575">gap direct</tspan></text>
    <path
       style="fill:none;stroke:#0000fb;stroke-width:0.265;stroke-linecap:butt;stroke-linejoin:miter;stroke-opacity:1;stroke-miterlimit:4;stroke-dasharray:none;marker-end:url(#Arrow1Lend);marker-start:url(#Arrow1Lstart)"
       d="m 161.46928,207.5637 -26.61748,8.23362"
       id="path15715" />
    <text
       xml:space="preserve"
       style="font-size:4.23333px;line-height:1.25;font-family:sans-serif;stroke-width:0.264583"
       x="160.12497"
       y="214.10312"
       id="text18480"><tspan
         sodipodi:role="line"
         id="tspan18478"
         style="stroke-width:0.264583"
         x="160.12497"
         y="214.10312">\textcolor{blue}{gap indirecte}</tspan></text>
    <text
       xml:space="preserve"
       style="font-size:4.23333px;line-height:1.25;font-family:sans-serif;stroke-width:0.264583"
       x="149.09846"
       y="321.78415"
       id="text19631"><tspan
         sodipodi:role="line"
         id="tspan19629"
         style="stroke-width:0.264583"></tspan></text>
    <text
       xml:space="preserve"
       style="font-size:4.23333px;line-height:1.25;font-family:sans-serif;stroke-width:0.264583"
       x="177.09959"
       y="224.55101"
       id="text24519"><tspan
         sodipodi:role="line"
         id="tspan24517"
         style="stroke-width:0.264583"
         x="177.09959"
         y="224.55101">$k' = k +G$</tspan></text>
  </g>
</svg>
