<?xml version="1.0" encoding="UTF-8" standalone="no"?>
<!-- Created with Inkscape (http://www.inkscape.org/) -->

<svg
   width="240mm"
   height="120mm"
   viewBox="0 0 240 120"
   version="1.1"
   id="svg8"
   inkscape:version="1.3.2 (091e20ef0f, 2023-11-25, custom)"
   sodipodi:docname="exemples-de-iagrammes-de-coxeters.svg"
   xmlns:inkscape="http://www.inkscape.org/namespaces/inkscape"
   xmlns:sodipodi="http://sodipodi.sourceforge.net/DTD/sodipodi-0.dtd"
   xmlns="http://www.w3.org/2000/svg"
   xmlns:svg="http://www.w3.org/2000/svg"
   xmlns:rdf="http://www.w3.org/1999/02/22-rdf-syntax-ns#"
   xmlns:cc="http://creativecommons.org/ns#"
   xmlns:dc="http://purl.org/dc/elements/1.1/">
  <defs
     id="defs2">
    <marker
       style="overflow:visible"
       id="ArrowWide"
       refX="0"
       refY="0"
       orient="auto-start-reverse"
       inkscape:stockid="Wide arrow"
       markerWidth="1"
       markerHeight="1"
       viewBox="0 0 1 1"
       inkscape:isstock="true"
       inkscape:collect="always"
       preserveAspectRatio="xMidYMid">
      <path
         style="fill:none;stroke:context-stroke;stroke-width:1;stroke-linecap:butt"
         d="M 3,-3 0,0 3,3"
         transform="rotate(180,0.125,0)"
         sodipodi:nodetypes="ccc"
         id="path1" />
    </marker>
  </defs>
  <sodipodi:namedview
     id="base"
     pagecolor="#ffffff"
     bordercolor="#666666"
     borderopacity="1.0"
     inkscape:pageopacity="0.0"
     inkscape:pageshadow="2"
     inkscape:zoom="1.6152712"
     inkscape:cx="599.58971"
     inkscape:cy="217.92006"
     inkscape:document-units="mm"
     inkscape:current-layer="layer1"
     showgrid="false"
     showborder="true"
     width="200mm"
     showguides="true"
     inkscape:guide-bbox="true"
     inkscape:window-width="1920"
     inkscape:window-height="1200"
     inkscape:window-x="0"
     inkscape:window-y="0"
     inkscape:window-maximized="1"
     inkscape:showpageshadow="2"
     inkscape:pagecheckerboard="0"
     inkscape:deskcolor="#d1d1d1">
    <inkscape:grid
       type="xygrid"
       id="grid815"
       units="mm"
       spacingx="10"
       spacingy="10"
       empspacing="4"
       dotted="false"
       originx="0"
       originy="0"
       visible="false" />
  </sodipodi:namedview>
  <metadata
     id="metadata5">
    <rdf:RDF>
      <cc:Work
         rdf:about="">
        <dc:format>image/svg+xml</dc:format>
        <dc:type
           rdf:resource="http://purl.org/dc/dcmitype/StillImage" />
        <dc:title />
      </cc:Work>
    </rdf:RDF>
  </metadata>
  <g
     inkscape:label="Layer 1"
     inkscape:groupmode="layer"
     id="layer1"
     transform="translate(0,-177)">
    <path
       style="fill:none;stroke:#00cc00;stroke-width:0.3;marker-end:url(#ArrowWide)"
       d="M 53.311385,229.00974 52.463123,204.78351"
       id="path13" />
    <path
       style="fill:none;stroke:#000000;stroke-width:0.3;marker-end:url(#ArrowWide)"
       d="M 53.435522,229.65109 70.835233,214.85881"
       id="path14" />
    <path
       style="fill:none;stroke:#00cc00;stroke-width:0.3;marker-end:url(#ArrowWide)"
       d="m 53.807928,228.69942 13.137716,13.71647"
       id="path15" />
    <path
       style="fill:none;stroke:#000000;stroke-width:0.3;marker-end:url(#ArrowWide)"
       d="M 53.890685,228.59597 53.787238,251.2085"
       id="path16" />
    <path
       style="fill:none;stroke:#000000;stroke-width:0.3;marker-end:url(#ArrowWide)"
       d="m 53.704481,229.87866 -14.15149,9.82704"
       id="path17" />
    <path
       style="fill:none;stroke:#000000;stroke-width:0.41188;marker-end:url(#ArrowWide)"
       d="M 54.208577,230.95338 38.97667,216.04301"
       id="path18" />
    <path
       style="fill:none;stroke:#ff6600;stroke-width:0.32082"
       d="m 43.866165,207.27041 19.428364,44.65791"
       id="path19" />
    <path
       style="fill:none;stroke:#ff6600;stroke-width:0.32082"
       d="m 159.3579,209.68612 19.42837,44.65791"
       id="path19-5" />
    <path
       style="fill:none;stroke:#00cc00;stroke-width:0.3"
       d="m 53.145869,218.33448 c 0.879113,0.85135 2.148261,1.14381 3.04133,1.96541 0.197676,0.18185 0.343905,0.41421 0.537922,0.59997 0.304371,0.2914 0.805709,0.57877 1.075846,0.91029 0.620286,0.76123 0.991632,1.67945 1.593077,2.44124 0.352849,0.44692 0.819227,0.79189 1.117219,1.28269 0.190199,0.31325 0.241163,0.69226 0.372409,1.03442 0.472432,1.23166 0.562454,2.47449 0.662062,3.786 0.09296,1.22392 0.179858,2.44468 0.06207,3.66186 -0.0105,0.10854 -0.210259,0.7835 -0.227587,0.78616 -0.07528,0.0116 -0.151717,-0.0138 -0.227576,-0.0207"
       id="path20" />
    <text
       xml:space="preserve"
       style="font-size:3.175px;fill:none;stroke:#00cc00;stroke-width:0.3"
       x="69.166969"
       y="245.40514"
       id="text20"><tspan
         sodipodi:role="line"
         id="tspan20"
         style="stroke-width:0.3"
         x="69.166969"
         y="245.40514">$v_2$</tspan></text>
    <text
       xml:space="preserve"
       style="font-size:3.175px;fill:none;stroke:#00cc00;stroke-width:0.3"
       x="50.898949"
       y="200.18748"
       id="text21"><tspan
         sodipodi:role="line"
         id="tspan21"
         style="stroke-width:0.3"
         x="50.898949"
         y="200.18748">$v_1$</tspan></text>
    <text
       xml:space="preserve"
       style="font-size:3.175px;fill:none;stroke:#00cc00;stroke-width:0.3"
       x="64.869331"
       y="227.15855"
       id="text22"><tspan
         sodipodi:role="line"
         id="tspan22"
         style="stroke-width:0.3"
         x="64.869331"
         y="227.15855">$\frac{2\pi}{3}$</tspan></text>
    <text
       xml:space="preserve"
       style="font-size:3.175px;fill:none;stroke:#00cc00;stroke-width:0.3"
       x="178.35817"
       y="226.18304"
       id="text22-3"><tspan
         sodipodi:role="line"
         id="tspan22-5"
         style="stroke-width:0.3"
         x="178.35817"
         y="226.18304">$\frac{\pi}{2}$</tspan></text>
    <ellipse
       style="fill:#00cc00;stroke:#00cc00;stroke-width:0.3"
       id="path22"
       cx="36.377178"
       cy="272.64178"
       rx="1.9758292"
       ry="2.337801" />
    <ellipse
       style="fill:#00cc00;stroke:#00cc00;stroke-width:0.3"
       id="path22-3"
       cx="60.569782"
       cy="272.83331"
       rx="1.9758292"
       ry="2.337801" />
    <path
       style="fill:none;stroke:#00cc00;stroke-width:0.3"
       d="m 36.697864,272.66248 c 24.165123,0.14481 24.537524,0.5379 24.537524,0.5379"
       id="path23" />
    <ellipse
       style="fill:#00cc00;stroke:#00cc00;stroke-width:0.3"
       id="path22-6"
       cx="156.02072"
       cy="263.77786"
       rx="1.9758292"
       ry="2.337801" />
    <ellipse
       style="fill:#00cc00;stroke:#00cc00;stroke-width:0.3"
       id="path22-3-2"
       cx="180.21332"
       cy="263.96939"
       rx="1.9758292"
       ry="2.337801" />
    <path
       style="fill:none;stroke:#00cc00;stroke-width:0.3"
       d="m 156.17011,263.06885 c 24.16513,0.14481 24.53753,0.5379 24.53753,0.5379"
       id="path23-9" />
    <path
       style="fill:none;stroke:#00cc00;stroke-width:0.3"
       d="m 156.22849,264.21575 c 24.16513,0.14481 24.53753,0.5379 24.53753,0.5379"
       id="path23-9-1" />
    <text
       xml:space="preserve"
       style="font-size:3.175px;fill:none;stroke:#00cc00;stroke-width:0.3"
       x="43.772934"
       y="187.38676"
       id="text23"><tspan
         sodipodi:role="line"
         id="tspan23"
         style="fill:#000000;stroke:#000000;stroke-width:0.3"
         x="43.772934"
         y="187.38676">$\mathfrak{sl},(3,\mathds{C})$</tspan></text>
    <text
       xml:space="preserve"
       style="font-size:3.175px;fill:#000000;stroke:#00cc00;stroke-width:0.3"
       x="149.94756"
       y="187.32674"
       id="text23-6"><tspan
         sodipodi:role="line"
         id="tspan23-7"
         style="fill:#000000;stroke:#000000;stroke-width:0.3"
         x="149.94756"
         y="187.32674">$\mathfrak{sp},(4,\mathds{C})$</tspan></text>
    <path
       style="fill:none;stroke:#00cc00;stroke-width:0.281446;marker-end:url(#ArrowWide)"
       d="m 169.29932,233.83878 -0.10717,-26.16925"
       id="path24" />
    <path
       style="fill:none;stroke:#00cc00;stroke-width:0.3;marker-end:url(#ArrowWide)"
       d="m 169.50257,233.25089 25.36511,-0.22758"
       id="path25" />
    <path
       style="fill:#000000;stroke:#000000;stroke-width:0.3;marker-end:url(#ArrowWide)"
       d="m 169.97844,233.3957 12.49634,-14.77159"
       id="path26" />
    <path
       style="fill:#000000;stroke:#000000;stroke-width:0.3;marker-end:url(#ArrowWide)"
       d="m 169.02672,233.35433 10.79982,13.15789"
       id="path28" />
    <path
       style="fill:#000000;stroke:#000000;stroke-width:0.3;marker-end:url(#ArrowWide)"
       d="m 169.50257,232.40266 0.14482,22.77803"
       id="path29" />
    <path
       style="fill:#000000;stroke:#000000;stroke-width:0.33898;marker-end:url(#ArrowWide)"
       d="m 168.7861,233.2033 -12.72475,11.68339"
       id="path30" />
    <path
       style="fill:#000000;stroke:#000000;stroke-width:0.3;marker-end:url(#ArrowWide)"
       d="M 169.08879,233.08538 156.03382,218.00346"
       id="path31" />
    <path
       style="fill:#000000;stroke:#000000;stroke-width:0.3;marker-end:url(#ArrowWide)"
       d="m 169.37844,232.71299 -17.93764,-0.1862"
       id="path32" />
    <path
       style="fill:none;stroke:#00cc00;stroke-width:0.3"
       d="m 169.79222,222.30667 c 1.99719,-0.59832 2.61435,-0.57514 4.13786,0.76548 0.88873,0.78205 1.32312,1.92463 1.96549,2.89639 0.30449,0.46061 0.69239,0.83469 1.01378,1.28268 0.72279,1.0075 1.30201,2.41807 1.61376,3.62049 0.1437,0.55426 0.29112,1.10677 0.51724,1.6344 0.14437,0.33685 0.27553,0.68261 0.43448,1.01373 0.0348,0.0725 0.16465,0.27635 0.12413,0.20689 -0.21574,-0.36982 -0.10511,-0.23826 -0.37242,-0.47584"
       id="path33" />
  </g>
</svg>
