<?xml version="1.0" encoding="UTF-8" standalone="no"?>
<!-- Created with Inkscape (http://www.inkscape.org/) -->

<svg
   width="240mm"
   height="120mm"
   viewBox="0 0 240 120"
   version="1.1"
   id="svg8"
   inkscape:version="1.3.2 (091e20ef0f, 2023-11-25, custom)"
   sodipodi:docname="exemple-lemme.svg"
   xmlns:inkscape="http://www.inkscape.org/namespaces/inkscape"
   xmlns:sodipodi="http://sodipodi.sourceforge.net/DTD/sodipodi-0.dtd"
   xmlns="http://www.w3.org/2000/svg"
   xmlns:svg="http://www.w3.org/2000/svg"
   xmlns:rdf="http://www.w3.org/1999/02/22-rdf-syntax-ns#"
   xmlns:cc="http://creativecommons.org/ns#"
   xmlns:dc="http://purl.org/dc/elements/1.1/">
  <defs
     id="defs2" />
  <sodipodi:namedview
     id="base"
     pagecolor="#ffffff"
     bordercolor="#666666"
     borderopacity="1.0"
     inkscape:pageopacity="0.0"
     inkscape:pageshadow="2"
     inkscape:zoom="1.7179672"
     inkscape:cx="332.07852"
     inkscape:cy="208.38582"
     inkscape:document-units="mm"
     inkscape:current-layer="layer1"
     showgrid="false"
     showborder="true"
     width="200mm"
     showguides="true"
     inkscape:guide-bbox="true"
     inkscape:window-width="1920"
     inkscape:window-height="1200"
     inkscape:window-x="0"
     inkscape:window-y="0"
     inkscape:window-maximized="1"
     inkscape:showpageshadow="2"
     inkscape:pagecheckerboard="0"
     inkscape:deskcolor="#d1d1d1">
    <inkscape:grid
       type="xygrid"
       id="grid815"
       units="mm"
       spacingx="10"
       spacingy="10"
       empspacing="4"
       dotted="false"
       originx="0"
       originy="0"
       visible="false" />
  </sodipodi:namedview>
  <metadata
     id="metadata5">
    <rdf:RDF>
      <cc:Work
         rdf:about="">
        <dc:format>image/svg+xml</dc:format>
        <dc:type
           rdf:resource="http://purl.org/dc/dcmitype/StillImage" />
        <dc:title />
      </cc:Work>
    </rdf:RDF>
  </metadata>
  <g
     inkscape:label="Layer 1"
     inkscape:groupmode="layer"
     id="layer1"
     transform="translate(0,-177)">
    <path
       style="fill:none;stroke:#000000;stroke-width:0.3"
       d="m 31.922434,207.25628 c -0.03242,-0.24638 0.04059,-0.53239 -0.09726,-0.73917 -0.241453,-0.36216 -1.180745,0.2861 -1.186606,0.29178 -0.856189,0.83073 -2.476463,2.89886 -1.264415,4.22104 0.205981,0.2247 0.640154,0.1528 0.914265,0.0195 1.349651,-0.65656 2.157625,-2.22234 1.634017,-3.7931 -0.144997,-0.43497 -0.922068,-0.32477 -1.361678,-0.19452 -0.22216,0.0658 -0.142653,0.44091 -0.213977,0.66136"
       id="path1" />
    <path
       style="fill:none;stroke:#000000;stroke-width:0.3"
       d="m 31.397217,208.44284 c 0.317725,0.49927 0.606775,1.01798 0.953175,1.49779 2.923318,4.04918 3.860062,5.8578 7.450328,8.34482 0.274476,0.19013 2.340427,1.25855 2.723359,1.98408 0.224025,0.42446 0.283527,0.60713 -0.136168,0.81698"
       id="path2" />
    <path
       style="fill:none;stroke:#000000;stroke-width:0.3"
       d="m 44.021919,220.73638 c -2.09986,-1.44204 -1.992177,3.38225 -1.167148,3.57912 0.421018,0.10047 1.064112,0.17839 1.283869,-0.19451 3.392737,-5.75714 1.83546,-4.46911 -0.116721,-3.38461 z"
       id="path3" />
    <path
       style="fill:none;stroke:#000000;stroke-width:0.3"
       d="m 45.850465,222.21471 c 5.965151,0.98916 2.24567,0.71791 9.531755,0.0778 0.112784,-0.01 2.18368,0.0846 2.645545,-0.31123"
       id="path4" />
    <path
       style="fill:none;stroke:#000000;stroke-width:0.3"
       d="m 62.462946,220.5224 c -3.359351,0.45601 -6.325071,-0.60055 -3.87106,4.2794 0.349041,0.69409 1.658779,-0.56167 1.945264,-1.28382 0.419399,-1.0572 0.320445,-2.12623 -0.05836,-3.19009 -0.18061,-0.50723 -1.573925,-1.71971 -1.653469,-0.44739"
       id="path5" />
    <path
       style="fill:none;stroke:#000000;stroke-width:0.3"
       d="m 60.751121,222.03964 c 3.410683,-4.16268 6.655306,-8.46715 10.232046,-12.48805 0.937808,-1.05426 1.831943,-1.36475 2.917883,-1.88682 0.364985,-0.17546 0.566307,-0.44053 0.408504,-0.44739 -0.147722,-0.006 -0.285303,0.0778 -0.427953,0.11671"
       id="path6" />
    <path
       style="fill:none;stroke:#000000;stroke-width:0.3"
       d="m 76.177004,206.3226 c -1.024501,1.10875 -2.723324,1.85782 -3.073506,3.32626 -0.1969,0.82566 1.02012,1.68082 1.86744,1.7312 0.765993,0.0456 1.295225,-0.88583 1.731283,-1.51724 1.033737,-1.49684 1.713658,-3.32768 1.186608,-5.15472 -0.373195,-1.29369 -2.210067,-0.48911 -2.762266,-0.27233 -0.277704,0.10902 -0.44092,0.40201 -0.661381,0.60301"
       id="path7" />
    <path
       style="fill:none;stroke:#000000;stroke-width:0.3"
       d="m 60.148094,224.91851 c 1.089342,1.0893 2.152583,2.20535 3.26803,3.2679 3.114635,2.96694 3.663375,3.46643 6.244267,5.58267 0.413393,0.33896 2.389648,1.97217 3.190226,2.54818 0.186905,0.13447 0.38698,0.24972 0.583571,0.36959 0.06937,0.0423 0.262731,0.0517 0.213982,0.11671 -0.08124,0.10831 -0.259371,0.0778 -0.389057,0.11671"
       id="path8" />
    <path
       style="fill:none;stroke:#000000;stroke-width:0.3"
       d="m 74.620796,233.67182 c 0.583579,1.90627 0.40966,4.2437 1.750732,5.71882 0.648412,0.71323 0.892575,-1.76267 0.972627,-2.72325 0.103307,-1.23965 -2.013198,-0.86323 -3.4042,-0.0584 -0.427414,0.24732 -0.492797,0.85588 -0.739196,1.28383"
       id="path9" />
    <path
       style="fill:none;stroke:#000000;stroke-width:0.3"
       d="m 43.243828,224.06263 c -0.544674,0.5252 -1.067224,1.07435 -1.634022,1.57559 -2.616311,2.31371 -5.142881,4.39737 -7.956095,6.39964 -0.907672,0.64602 -1.795177,1.3201 -2.703904,1.96464 -0.757259,0.5371 -1.454854,0.7744 -1.964708,1.55614"
       id="path10" />
    <path
       style="fill:none;stroke:#000000;stroke-width:0.3"
       d="m 28.245903,232.54361 c -0.888333,2.28883 -3.388944,4.52047 -2.665003,6.86648 0.468464,1.51811 3.338037,0.63833 4.765879,-0.0584 1.056175,-0.51534 1.240356,-2.00804 1.69237,-3.09283 0.236239,-0.56695 0.718678,-1.31767 0.35015,-1.80902 -0.49594,-0.66123 -1.508281,-0.80718 -2.33431,-0.83642 -1.136015,-0.0402 -2.13029,0.72543 -3.015144,1.30327"
       id="path11" />
    <text
       xml:space="preserve"
       style="font-size:3.175px;fill:none;stroke:#000000;stroke-width:0.3"
       x="33.492584"
       y="256.60675"
       id="text11"><tspan
         sodipodi:role="line"
         id="tspan11"
         style="stroke-width:0.3"
         x="33.492584"
         y="256.60675">admissible</tspan></text>
    <path
       style="fill:none;stroke:#000000;stroke-width:0.3"
       d="m 90.824774,231.18198 c 0.363117,0.0908 0.715102,0.26644 1.089348,0.27233 0.466846,0.007 0.923779,-0.13945 1.38113,-0.23342 3.385553,-0.69563 3.913587,-0.96137 6.905648,-1.34217 1.7194,-0.21883 1.21603,-0.31303 2.27596,0.0973"
       id="path12" />
    <path
       style="fill:none;stroke:#000000;stroke-width:0.3"
       d="m 91.23328,236.04493 c 4.025156,-1.33948 8.257598,-1.2588 12.37182,-2.04243"
       id="path13" />
    <path
       style="fill:none;stroke:#000000;stroke-width:0.3"
       d="m 106.13394,228.98393 c 0.38256,0.0389 0.76466,0.0828 1.1477,0.11671 0.9333,0.0828 1.8702,0.12764 2.80117,0.23342 0.23191,0.0264 0.99098,0.24905 0.99207,0.25287 0.0466,0.16308 -0.73696,1.15057 -0.95317,1.4978 -0.88803,1.42618 -1.26275,2.1202 -2.23704,3.75419 -0.57274,0.96053 -1.66484,3.29287 -3.15131,2.99558"
       id="path14" />
    <path
       style="fill:none;stroke:#000000;stroke-width:0.3"
       d="m 144.06643,218.92736 c -1.12177,1.12172 -2.79354,1.88539 -3.3653,3.36516 -0.95859,2.48097 1.19721,3.3007 2.19814,2.04244 0.67396,-0.84723 1.18702,-1.82954 1.57566,-2.83997 0.14434,-0.37525 0.23134,-0.89176 -0.0195,-1.20601 -1.34903,-1.69028 -1.55921,-0.86235 -2.25648,0.0194"
       id="path15" />
    <path
       style="fill:none;stroke:#000000;stroke-width:0.3"
       d="m 144.22203,223.42072 c 1.07348,0.89617 3.935,3.31622 4.92151,3.98761 0.72685,0.49468 1.53093,0.86627 2.31486,1.26437 0.93221,0.47341 1.97454,0.72037 2.87897,1.24492 0.1468,0.0851 -0.33771,-0.082 -0.50576,-0.0584 -0.25587,0.036 -0.49279,0.15561 -0.73919,0.23342"
       id="path16" />
    <path
       style="fill:none;stroke:#000000;stroke-width:0.3"
       d="m 157.29416,227.13602 c -0.8624,1.72472 -2.60319,3.24592 -2.58718,5.17417 0.007,0.89021 1.9596,0.1039 2.62609,-0.48629 0.61105,-0.54109 0.71713,-1.56496 0.60303,-2.37313 -0.0374,-0.26476 -1.17543,-1.2997 -1.75073,-0.97259 -0.19664,0.11181 -0.2075,0.40201 -0.31125,0.60302"
       id="path17" />
    <path
       style="fill:none;stroke:#000000;stroke-width:0.3"
       d="m 158.36405,230.2872 c 2.08935,-2.37733 4.04477,-4.8703 6.14701,-7.23606 0.62648,-0.70502 1.31981,-1.6793 2.37322,-1.51724"
       id="path18" />
    <path
       style="fill:none;stroke:#000000;stroke-width:0.3"
       d="m 170.1523,216.70985 c -1.0245,1.64043 -2.84375,3.00093 -3.0735,4.9213 -0.10753,0.89882 1.41062,1.37744 2.31485,1.41999 0.53511,0.0252 0.77999,-0.77244 0.99209,-1.26437 0.26734,-0.62005 0.72758,-1.38899 0.4085,-1.98408 -1.08115,-2.01644 -2.04145,-1.2853 -3.22912,-0.79753"
       id="path19" />
    <path
       style="fill:none;stroke:#000000;stroke-width:0.3"
       d="m 156.90511,230.8124 c 2.15987,3.30338 5.48726,5.44177 8.30623,8.1114 0.70947,0.67188 1.46056,1.30111 2.1398,2.00353 0.0871,0.09 0.21252,0.25088 0.13617,0.35013 -0.16821,0.21866 -0.47984,0.27233 -0.71976,0.40849"
       id="path20" />
    <path
       style="fill:none;stroke:#000000;stroke-width:0.3"
       d="m 170.36628,237.11478 c -1.08286,1.35514 -2.84355,2.37873 -3.24858,4.06542 -0.22529,0.93821 0.74877,2.39342 1.71183,2.33422 1.33517,-0.0821 2.17534,-1.60078 3.0346,-2.62599 0.32329,-0.38573 0.65366,-1.03078 0.38905,-1.45889 -0.43979,-0.71154 -1.30268,-1.16574 -2.12034,-1.34217 -0.54452,-0.1175 -1.72127,0.6296 -2.27594,0.95314"
       id="path21" />
    <path
       style="fill:none;stroke:#000000;stroke-width:0.3"
       d="m 156.34098,230.65678 c -0.36311,0.19452 -0.75758,0.33936 -1.08933,0.58356 -0.14631,0.10769 -0.20638,0.29904 -0.31125,0.44739 -0.16099,0.22773 -0.31584,0.4601 -0.48632,0.68081 -0.44568,0.57702 -0.92635,1.12689 -1.36166,1.71176 -1.34607,1.80852 -2.57951,3.6992 -3.92943,5.50485 -0.18691,0.25003 -0.76907,1.16449 -1.34222,0.85588 -0.2174,-0.11705 -0.19453,-0.45387 -0.2918,-0.68081"
       id="path22" />
    <path
       style="fill:none;stroke:#000000;stroke-width:0.3"
       d="m 147.54843,238.39859 c -0.78459,1.27086 -2.15041,2.33293 -2.35376,3.81256 -0.1445,1.05143 0.74831,2.03457 1.4395,2.83996 0.19959,0.23257 0.68171,0.10236 0.91426,-0.0973 0.55707,-0.47818 0.95256,-1.13441 1.28387,-1.78956 0.44181,-0.87366 0.60492,-2.35125 0.42796,-3.30681 -0.052,-0.28091 -0.5942,-0.6598 -0.89482,-0.52519 -0.31455,0.14083 -0.51874,0.45387 -0.77811,0.68081"
       id="path23" />
    <text
       xml:space="preserve"
       style="font-size:3.175px;fill:none;stroke:#000000;stroke-width:0.3"
       x="143.53157"
       y="257.87619"
       id="text23"><tspan
         sodipodi:role="line"
         id="tspan23"
         style="stroke-width:0.3"
         x="143.53157"
         y="257.87619">admissible</tspan></text>
    <text
       xml:space="preserve"
       style="font-size:3.175px;fill:none;stroke:#000000;stroke-width:0.3"
       x="100.62917"
       y="280.42691"
       id="text24"><tspan
         sodipodi:role="line"
         id="tspan24"
         style="stroke-width:0.3"
         x="100.62917"
         y="280.42691">\lightning</tspan><tspan
         sodipodi:role="line"
         style="stroke-width:0.3"
         x="100.62917"
         y="284.39566"
         id="tspan25" /></text>
  </g>
</svg>
