<?xml version="1.0" encoding="UTF-8" standalone="no"?>
<!-- Created with Inkscape (http://www.inkscape.org/) -->

<svg
   width="240mm"
   height="120mm"
   viewBox="0 0 240 120"
   version="1.1"
   id="svg8"
   inkscape:version="1.3.2 (091e20ef0f, 2023-11-25, custom)"
   sodipodi:docname="ladder.svg"
   xmlns:inkscape="http://www.inkscape.org/namespaces/inkscape"
   xmlns:sodipodi="http://sodipodi.sourceforge.net/DTD/sodipodi-0.dtd"
   xmlns="http://www.w3.org/2000/svg"
   xmlns:svg="http://www.w3.org/2000/svg"
   xmlns:rdf="http://www.w3.org/1999/02/22-rdf-syntax-ns#"
   xmlns:cc="http://creativecommons.org/ns#"
   xmlns:dc="http://purl.org/dc/elements/1.1/">
  <defs
     id="defs2" />
  <sodipodi:namedview
     id="base"
     pagecolor="#ffffff"
     bordercolor="#666666"
     borderopacity="1.0"
     inkscape:pageopacity="0.0"
     inkscape:pageshadow="2"
     inkscape:zoom="1.4834345"
     inkscape:cx="477.94493"
     inkscape:cy="260.20697"
     inkscape:document-units="mm"
     inkscape:current-layer="layer1"
     showgrid="false"
     showborder="true"
     width="200mm"
     showguides="true"
     inkscape:guide-bbox="true"
     inkscape:window-width="1920"
     inkscape:window-height="1200"
     inkscape:window-x="0"
     inkscape:window-y="0"
     inkscape:window-maximized="1"
     inkscape:showpageshadow="2"
     inkscape:pagecheckerboard="0"
     inkscape:deskcolor="#d1d1d1">
    <inkscape:grid
       type="xygrid"
       id="grid815"
       units="mm"
       spacingx="10"
       spacingy="10"
       empspacing="4"
       dotted="false"
       originx="0"
       originy="0"
       visible="false" />
  </sodipodi:namedview>
  <metadata
     id="metadata5">
    <rdf:RDF>
      <cc:Work
         rdf:about="">
        <dc:format>image/svg+xml</dc:format>
        <dc:type
           rdf:resource="http://purl.org/dc/dcmitype/StillImage" />
        <dc:title />
      </cc:Work>
    </rdf:RDF>
  </metadata>
  <g
     inkscape:label="Layer 1"
     inkscape:groupmode="layer"
     id="layer1"
     transform="translate(0,-177)">
    <path
       style="fill:none;stroke:#000000;stroke-width:0.3"
       d="m 199.68471,221.71952 c 0.60546,1.43793 0.2832,0.45159 0.56321,2.5681 0.17995,1.36019 0.34889,2.72221 0.56318,4.07741 0.0625,0.39498 0.32076,1.43878 0.47309,1.91481 0.0442,0.13812 0.0498,0.50234 0.1577,0.40549 0.34257,-0.30742 1.06656,-1.91025 1.26157,-2.34282 0.56394,-1.25087 1.39521,-3.24848 1.86983,-4.37027 0.18749,-0.44314 0.37366,-0.88684 0.56321,-1.3291 0.0857,-0.19991 0.28445,-0.85993 0.5632,-1.10383 0.0674,-0.059 0.43896,-0.18739 0.47309,-0.20275 0.0552,-0.0248 0.10513,-0.0601 0.1577,-0.0901"
       id="path1" />
    <path
       style="fill:none;stroke:#000000;stroke-width:0.3"
       d="m 204.84364,234.24462 c 0.16118,-0.89547 0.29899,-1.75187 0.54067,-2.63568 0.12715,-0.46498 0.28195,-0.92256 0.45055,-1.37416 0.25215,-0.67538 0.52701,-1.34229 0.811,-2.00491 0.0724,-0.16898 0.42763,-1.00889 0.69839,-1.21646 0.17358,-0.13307 0.47132,-0.22322 0.63076,0 0.34013,0.47617 0.35429,0.75159 0.383,1.30656 0.0112,0.21747 0.007,0.43565 0,0.65329 -0.007,0.21497 0.0363,0.77405 -0.18023,0.87857 -0.38154,0.18418 -0.95438,0.091 -1.32915,0.11263 -0.12205,0.007 -0.24101,0.0416 -0.36047,0.0676 -0.1047,0.0228 -0.18696,0.0444 -0.27032,0.11264 -0.0499,0.0408 -0.16284,0.15544 -0.20274,0.22526 -0.0118,0.0206 -0.0456,0.0618 -0.0225,0.0676 0.0947,0.0237 0.19622,0.0138 0.29286,0 0.11541,-0.0165 0.22361,-0.0672 0.33793,-0.0901 0.19903,-0.0398 0.84452,-0.16781 0.74341,0.27032 -0.0514,0.2229 -0.0983,0.47995 -0.27032,0.63077 -0.34111,0.29911 -0.76736,0.49897 -1.19399,0.65328 -0.29167,0.10549 -0.6166,0.0688 -0.92365,0.11264 -0.009,0.001 -0.49191,0.0185 -0.45056,0.22527 0.0449,0.22431 0.18022,0.42051 0.27033,0.63076"
       id="path2" />
    <path
       style="fill:none;stroke:#000000;stroke-width:0.3"
       d="m 196.84617,217.25915 c -0.53041,-0.92769 -0.62131,-0.39458 -1.05881,-0.67581 -0.1474,-0.0948 -0.1403,-0.15593 -0.29285,-0.22527 -0.49828,-0.22648 -0.58134,-0.24253 -1.05884,-0.38297 -0.18703,-0.055 -0.37977,-0.0917 -0.5632,-0.15769 -0.10762,-0.0387 -0.2083,-0.095 -0.31539,-0.13516 -0.0734,-0.0275 -0.15019,-0.0451 -0.22528,-0.0676 -0.15019,-0.0451 -0.2982,-0.0981 -0.45056,-0.13516 -0.12596,-0.0306 -0.25586,-0.0422 -0.38297,-0.0676 -0.76982,-0.15395 -0.0289,-0.0388 -1.0363,-0.20274 -0.40999,-0.0667 -0.43489,-0.0436 -0.92364,-0.0901 -0.26335,-0.0251 -0.52526,-0.0638 -0.78849,-0.0901 -0.67257,-0.0673 -0.77149,-0.0811 -1.46431,-0.11263 -0.16504,-0.008 -0.33042,0 -0.49563,0 -0.31539,0 -0.63077,0 -0.94616,0 -0.67584,0 -1.35168,0 -2.02752,0 -0.27034,0 -0.54068,0 -0.81102,0 -0.12015,0 -0.24047,-0.006 -0.36044,0 -0.24847,0.0134 -0.49515,0.051 -0.74344,0.0676 -1.11425,0.0743 0.1707,-0.0109 -0.69836,0.0225 -0.22561,0.009 -0.45078,0.0271 -0.67584,0.0451 -0.25405,0.0203 -0.12738,0.0206 -0.40551,0.0901 -0.1398,0.0349 -0.2879,0.0357 -0.42803,0.0676 -0.11367,0.0258 -0.22583,0.0581 -0.33792,0.0901 -0.35497,0.10141 -0.66838,0.36732 -0.9687,0.56318 -0.17818,0.1162 -0.17624,0.0846 -0.38298,0.20274 -0.0326,0.0186 -0.0583,0.0477 -0.0901,0.0676 -0.0285,0.0178 -0.0628,0.0255 -0.0901,0.0451 -0.11623,0.083 -0.016,0.0531 -0.13517,0.11263 -0.0875,0.0438 -0.0568,0.002 -0.15769,0.0451 -0.087,0.0373 -0.0956,0.10931 -0.18024,0.1577 -0.0292,0.0167 -0.0592,0.0318 -0.0901,0.0451 -0.0218,0.009 -0.0478,0.009 -0.0676,0.0225 -0.11176,0.0745 -0.16425,0.21511 -0.2478,0.31537 -0.0748,0.0897 -0.16138,0.16922 -0.24781,0.2478 -0.035,0.0318 -0.17872,0.11188 -0.22528,0.13517 -0.14642,0.0732 0.0113,-0.0282 -0.13518,0.0451 -10e-4,5.3e-4 -0.13385,0.0894 -0.13516,0.0901 -0.0213,0.0106 -0.0463,0.0119 -0.0676,0.0225 -0.0317,0.0159 -0.2365,0.14714 -0.2478,0.15769 -0.16335,0.15245 -0.30007,0.4163 -0.51815,0.49559 -0.0282,0.0103 -0.0601,0 -0.0901,0 -0.1652,0.0601 -0.34037,0.0977 -0.49561,0.18022 -0.0892,0.0474 -0.15018,0.13516 -0.22528,0.20275"
       id="path3" />
    <path
       style="fill:none;stroke:#000000;stroke-width:0.3"
       d="m 181.09909,213.29437 c 0.015,-0.29285 0.002,-0.58856 0.0451,-0.87855 0.0674,-0.44947 0.39585,-1.49906 0.51813,-1.91481 0.3158,-1.07367 0.62767,-2.14851 0.94619,-3.22138 0.22777,-0.76721 0.48477,-1.63761 0.81101,-2.36535 0.11011,-0.24563 0.25334,-0.47629 0.40549,-0.69834 0.27693,-0.40416 0.46986,-0.66091 0.96871,-0.76592 0.75519,-0.15898 1.13798,1.83852 1.01377,2.04996 -0.95579,1.62704 -1.62913,2.05313 -3.01877,1.8247 -0.2626,-0.0432 -0.5272,-0.10768 -0.76594,-0.22527 -0.27098,-0.13346 -0.49562,-0.34542 -0.74343,-0.51813"
       id="path8" />
    <path
       style="fill:none;stroke:#000000;stroke-width:0.3"
       d="m 189.81742,204.62143 c -0.13516,-0.25531 -0.11936,-0.80577 -0.40548,-0.76593 -1.24322,0.17311 -2.25263,2.45247 -2.59073,3.17633 -0.47153,1.00951 -1.21322,2.7822 0.54067,3.51423 0.5304,0.22138 1.00626,-0.55566 1.50938,-0.8335"
       id="path9" />
    <path
       style="fill:none;stroke:#000000;stroke-width:0.3"
       d="m 191.32681,205.0945 c 0.34525,1.18368 0.1633,0.81908 0.63079,1.68953 0.10974,0.20433 0.21002,0.41475 0.33792,0.60823 0.16564,0.25057 0.32372,0.51315 0.54068,0.72087 0.1433,0.1372 0.34542,0.19524 0.51813,0.29286"
       id="path10" />
    <path
       style="fill:none;stroke:#000000;stroke-width:0.3"
       d="m 194.68349,205.74778 c -3.43595,3.59198 -0.65065,0.66047 -4.95616,5.27135 -0.17036,0.18245 -0.66025,0.74589 -0.51816,0.54066 0.20909,-0.30202 0.4806,-0.55567 0.7209,-0.83351"
       id="path11" />
    <path
       style="fill:none;stroke:#000000;stroke-width:0.3"
       d="m 196.66596,204.48626 c 0.24781,-0.13516 0.46333,-0.37047 0.74342,-0.40548 0.14313,-0.0179 0.25243,0.15414 0.33793,0.27032 0.40489,0.55021 0.74324,1.22162 0.81099,1.91481 0.065,0.66517 0.0819,1.33921 0.0225,2.00491 -0.0797,0.89343 -0.47603,2.09001 -0.90112,2.88348 -0.22227,0.4149 -0.4391,0.85601 -0.78848,1.17141 -0.2186,0.19734 -0.5557,0.19523 -0.83355,0.29285"
       id="path12" />
    <path
       style="fill:none;stroke:#000000;stroke-width:0.3"
       d="m 208.02008,235.9792 c 1.33272,0.85064 0.95419,0.71819 2.68083,1.26152 0.38837,0.12222 2.31979,0.64512 2.86107,0.67581 1.03463,0.0587 2.07635,0.0883 3.10887,0 1.05873,-0.0906 3.19377,-1.59274 3.60449,-1.84722 0.57537,-0.35651 1.1213,-0.75866 1.68959,-1.12636 0.0822,-0.0532 0.16545,-0.10474 0.24781,-0.15768 0.0228,-0.0146 0.0451,-0.0601 0.0676,-0.0451 0.025,0.0167 0.025,0.0735 0,0.0901 -0.079,0.0527 -0.18024,0.0601 -0.27035,0.0901"
       id="path13" />
    <path
       style="fill:none;stroke:#000000;stroke-width:0.3"
       d="m 222.25779,231.58641 c 6.17585,0.55509 0.56338,0.22665 2.38796,0.11263 0.0421,-0.003 0.38105,-0.0586 0.40551,0.11264 0.0107,0.0747 0.003,0.15423 -0.0225,0.22527 -0.11813,0.32951 -0.26922,0.64625 -0.40551,0.96867 -0.17161,0.40596 -0.38601,0.796 -0.51816,1.21646 -0.2818,0.8966 -0.48134,1.817 -0.72088,2.7258 -0.0158,0.0599 2e-5,0.22264 -0.0451,0.1802 -0.15476,-0.14565 -0.22527,-0.36043 -0.33791,-0.54065"
       id="path14" />
    <path
       style="fill:none;stroke:#000000;stroke-width:0.3"
       d="m 231.35911,226.54033 c -1.76985,0.34155 -1.42811,-0.0333 -2.54566,2.04997 -0.2672,0.49809 -0.47306,1.04143 -0.56321,1.59943 -0.16016,0.99146 -0.009,2.10629 1.48686,1.84722 1.3802,-0.23909 2.55904,-2.60939 2.88358,-3.4917 0.16593,-0.45109 0.27852,-1.03493 0.0225,-1.44174 -0.574,-0.9122 -2.17202,-0.46171 -2.86106,-0.38296"
       id="path15" />
    <path
       style="fill:none;stroke:#000000;stroke-width:0.3"
       d="m 174.1154,215.50204 c -0.34543,0.14267 -0.7479,0.1903 -1.03629,0.42801 -0.15207,0.12535 -0.98013,1.52906 -1.12641,1.75712 -0.52737,0.82222 -1.0669,1.63659 -1.59948,2.45545 -0.55605,0.85497 -0.39523,0.569 -0.81102,1.35163 -0.0236,0.0445 -0.0676,0.0848 -0.0676,0.13517 0,0.0238 0.0441,-0.0187 0.0676,-0.0225 0.25474,-0.0413 0.50873,-0.0919 0.76596,-0.11264 0.20958,-0.0169 0.42052,0 0.63078,0 0.60132,0 0.94987,0.0211 1.57697,-0.0901 1.54587,-0.27426 3.11551,-0.71408 4.61824,-1.17141 0.19766,-0.0602 0.3908,-0.13427 0.58573,-0.20275 0.0829,-0.0291 0.16022,-0.0974 0.24781,-0.0901 0.0382,0.003 0.015,0.0751 0.0225,0.11264"
       id="path17" />
    <path
       style="fill:none;stroke:#000000;stroke-width:0.3"
       d="m 159.35954,223.34148 c 0.0751,0.36043 0.13889,0.72341 0.22528,1.0813 0.0714,0.29579 0.17178,0.58393 0.24781,0.87856 0.27011,1.04661 0.5445,2.39364 0.81101,3.37907 0.12958,0.47912 0.30604,0.94438 0.45056,1.41921 0.27601,0.90688 0.54556,1.81574 0.811,2.72578 0.05,0.17135 0.0861,0.34651 0.13518,0.51813 0.0111,0.0389 0.008,0.0976 0.0451,0.11263 0.0296,0.0118 0.0604,-0.0365 0.0676,-0.0676 0.0616,-0.26703 0.0703,-0.5447 0.13517,-0.81097 0.0781,-0.32077 0.18182,-0.63524 0.29286,-0.94615 0.15196,-0.42547 0.33256,-0.84017 0.49561,-1.26152 2.03299,-5.25356 0.95367,-2.30605 1.91489,-5.13618 0.13288,-0.39125 0.25611,-0.78616 0.4055,-1.17141 0.009,-0.0222 0.0257,0.044 0.0225,0.0676 -0.0123,0.0921 -0.0451,0.18021 -0.0676,0.27032"
       id="path18" />
    <path
       style="fill:none;stroke:#000000;stroke-width:0.3"
       d="m 164.51845,236.58743 c 0.14268,-0.45054 0.23477,-0.92035 0.42804,-1.35162 0.68668,-1.53233 2.00486,-4.03213 2.92864,-5.60926 0.12138,-0.20721 0.72787,-1.26739 1.1264,-1.44174 0.17888,-0.0782 0.48482,-0.16714 0.58573,0 0.6504,1.07717 -0.29448,2.02654 -1.1264,2.50052 -0.35384,0.20159 -0.74584,0.32809 -1.1264,0.47306 -0.0936,0.0357 -0.29286,0.16777 -0.29286,0.0676 0,-0.10214 0.19491,-0.0612 0.29286,-0.0901 0.27695,-0.0818 1.31301,-0.39207 1.55443,-0.40549 0.39104,-0.0217 0.79884,-0.0304 1.17146,0.0901 0.64023,0.20712 0.29801,0.9627 0.0225,1.26152 -0.26013,0.28216 -0.64067,0.42952 -0.99123,0.5857 -0.41213,0.18362 -0.84537,0.32272 -1.2841,0.42801 -0.50299,0.12072 -1.02198,0.16089 -1.53191,0.24781 -0.15098,0.0257 -0.34225,-0.0182 -0.45055,0.0901 -0.0619,0.0619 0.0901,0.15018 0.13516,0.22527"
       id="path19" />
    <path
       style="fill:none;stroke:#000000;stroke-width:0.3"
       d="m 171.65984,233.00562 c 0.25532,-0.12766 0.49933,-0.28102 0.76595,-0.38297 0.60614,-0.23174 1.58696,-0.3379 2.1627,-0.3379 0.28889,0 0.58643,0.0315 0.85606,0.13516 0.2314,0.089 0.40551,0.28535 0.60826,0.42802"
       id="path20" />
    <path
       style="fill:none;stroke:#000000;stroke-width:0.3"
       d="m 176.63854,231.11335 c 0.70631,-0.3027 1.07518,-0.67228 1.8473,-0.22528 0.19647,0.11374 0.42358,0.33982 0.38297,0.56318 -0.3763,2.06959 -0.55668,2.43138 -1.8473,3.42412 -0.18171,0.13977 -0.44818,0.17704 -0.58573,0.36044 -0.0631,0.0841 0.21147,0.0159 0.31539,0 0.5358,-0.0819 1.06233,-0.22039 1.59949,-0.29286 0.79021,-0.10661 1.68288,-0.14486 2.47809,-0.0225"
       id="path21" />
    <path
       style="fill:none;stroke:#000000;stroke-width:0.3"
       d="m 172.1104,236.74513 c 0.2403,0.42051 0.46734,0.84888 0.7209,1.26152 0.55141,0.89735 1.33452,1.69311 2.20774,2.27524 0.34092,0.22726 0.70588,0.44336 1.10388,0.54065 2.51808,0.61551 3.59521,0.77275 5.85729,0.72087 1.67813,-0.0385 3.43286,-0.0828 5.09132,-0.42801 2.15438,-0.44841 2.75378,-0.67983 4.59572,-1.32911 0.48164,-0.16978 0.96869,-0.32585 1.4418,-0.51812 0.93174,-0.37866 1.83771,-0.81899 2.77094,-1.19394 0.74951,-0.30113 1.51505,-0.56075 2.27534,-0.83351 0.22352,-0.0802 0.45796,-0.13085 0.67585,-0.22526 0.24453,-0.10596 0.69789,-0.32615 0.92365,-0.56319 0.14985,-0.0621 0.15689,-0.23186 0.24779,-0.3379 0.0277,-0.0323 0.0481,-0.0961 0.0901,-0.0901 0.0433,0.006 0.0451,0.0751 0.0676,0.11263"
       id="path22" />
    <path
       style="fill:none;stroke:#000000;stroke-width:0.3"
       d="m 198.76107,232.60013 c 0.6226,0.18866 0.67122,0.23427 1.23904,0.31538 0.20195,0.0288 0.40687,0.035 0.60825,0.0676 0.3194,0.0517 1.05473,0.12596 1.3742,0.40548 0.37076,0.3244 0.34274,0.78211 0.27035,1.21647 -0.13859,0.83157 -0.29767,1.06233 -0.78849,1.77964 -0.12721,0.18592 -0.24285,0.38478 -0.4055,0.54065 -0.2017,0.19329 -0.45056,0.3304 -0.67584,0.4956"
       id="path23" />
    <path
       style="fill:none;stroke:#000000;stroke-width:0.3"
       d="m 177.11163,252.31139 c -0.03,-0.59322 -0.13071,-1.18707 -0.0901,-1.77965 0.0351,-0.51277 0.14621,-1.02399 0.31539,-1.50932 0.42938,-1.23176 0.94176,-2.72608 2.07258,-3.55929 0.99764,-0.73508 2.24379,-0.52184 3.31162,0.0225 0.82558,0.42086 -0.46217,1.16671 -0.51814,1.19394 -0.87401,0.42517 -1.59751,0.35468 -2.5682,0.38295 -0.26271,0.008 -0.52565,0 -0.78847,0"
       id="path24" />
    <path
       style="fill:none;stroke:#000000;stroke-width:0.3"
       d="m 188.6685,244.33677 c -0.73591,0.12015 -1.53375,0.0415 -2.20773,0.36044 -0.38426,0.18185 -0.57457,0.64611 -0.74344,1.03624 -0.52532,1.21362 -1.01453,2.52468 0.1577,3.62687 0.19914,0.18725 0.54399,-0.10302 0.78848,-0.22526 0.34835,-0.17417 0.6458,-0.43553 0.9687,-0.65329"
       id="path25" />
    <path
       style="fill:none;stroke:#000000;stroke-width:0.3"
       d="m 190.56086,245.21533 c 1.73398,2.24767 -0.44015,-0.64046 1.08134,1.59943 0.36543,0.53798 0.75179,1.06188 1.14893,1.57689 0.31943,0.31941 0.21004,0.18242 0.36046,0.38297"
       id="path26" />
    <path
       style="fill:none;stroke:#000000;stroke-width:0.3"
       d="m 190.17789,249.11252 c 0.34543,-0.61574 0.6557,-1.25257 1.03629,-1.84722 0.38937,-0.60836 1.04485,-1.31615 1.62202,-1.75711 0.11669,-0.0892 1.58755,-1.02253 1.89233,-1.21648"
       id="path27" />
    <path
       style="fill:none;stroke:#000000;stroke-width:0.3"
       d="m 195.9676,243.95381 c 0.21776,0.28534 0.5119,0.5261 0.65329,0.85603 0.13764,0.32114 0.16951,0.68706 0.1577,1.03625 -0.041,1.21283 -0.11129,2.43064 -0.31539,3.62687 -0.069,0.40435 -0.20731,0.83456 -0.4956,1.12636 -0.3614,0.36579 -0.90113,0.4956 -1.35169,0.74339"
       id="path28" />
    <path
       style="fill:none;stroke:#000000;stroke-width:0.3"
       d="m 154.38084,220.86349 c -0.33041,-0.0901 -0.65427,-0.20906 -0.99123,-0.27033 -0.16254,-0.0296 -0.33226,0.0247 -0.49561,0 -0.63493,-0.0958 -1.26131,-0.24167 -1.89236,-0.36042 -1.40399,-0.26421 -2.80451,-0.54789 -4.21275,-0.78845 -0.39481,-0.0675 -0.79687,-0.0828 -1.19398,-0.13517 -0.57171,-0.0753 -1.1426,-0.1574 -1.71212,-0.2478 -0.37679,-0.0598 -0.74684,-0.16434 -1.1264,-0.20274 -0.88363,-0.0894 -1.77033,-0.16387 -2.65832,-0.18022 -0.33994,-0.006 -0.67976,0.049 -1.01376,0.11264 -0.0569,0.0108 -1.85085,0.45231 -2.16268,0.56317 -2.4739,0.87958 -0.15275,0.14428 -2.02753,0.83351 -0.62067,0.22818 -1.06146,0.31261 -1.73466,0.42801 -0.18636,0.0319 -0.44445,-0.0796 -0.56319,0.0676 -0.27325,0.33858 -0.3154,0.81098 -0.4731,1.21647"
       id="path29" />
    <path
       style="fill:none;stroke:#000000;stroke-width:0.3"
       d="m 129.12693,219.84977 c -0.21026,0.26282 -0.48026,0.48741 -0.63079,0.78845 -0.14906,0.2981 -0.17596,0.64322 -0.24781,0.96867 -0.0559,0.25315 -0.10065,0.50898 -0.13516,0.76592 -0.0794,0.59123 -0.18531,1.06688 0.29286,1.5769 0.1593,0.16991 0.42041,0.24549 0.65331,0.2478 1.67211,0.0166 2.83325,-0.73197 4.43803,-1.26152 1.21988,-0.40255 1.22481,-0.38857 2.02751,-0.4956"
       id="path30" />
    <path
       style="fill:none;stroke:#000000;stroke-width:0.3"
       d="m 118.53875,236.76765 c 0.0186,0.23634 0.42072,1.27557 -0.22528,1.39669 -0.13788,0.0258 -0.42784,0.0258 -0.4055,-0.11264 0.0759,-0.47079 0.42052,-0.85603 0.63078,-1.28405 z"
       id="path31" />
    <path
       style="fill:none;stroke:#000000;stroke-width:0.3"
       d="m 123.94548,237.62369 c 0.2403,-0.0751 0.4806,-0.15019 0.72089,-0.22528 0.008,0.045 0.0661,0.12154 0.0225,0.13516 -0.23826,0.0745 -0.49562,0.0601 -0.74343,0.0901 z"
       id="path32" />
    <path
       style="fill:none;stroke:#000000;stroke-width:0.3"
       d="m 129.71266,237.96159 c -0.0376,-0.24029 -0.12256,-0.47786 -0.11264,-0.72087 0.006,-0.13794 0.0857,-0.26516 0.1577,-0.38296 0.0161,-0.0264 0.0914,-0.0535 0.0901,-0.0225 -0.0154,0.37784 -0.0901,0.75091 -0.13516,1.12636 z"
       id="path33" />
    <path
       style="fill:none;stroke:#000000;stroke-width:0.3"
       d="m 125.16199,242.35438 c -0.03,0.27784 -0.15789,0.5624 -0.0901,0.83351 0.0378,0.15126 1.00242,0.93765 1.01376,0.94614 0.80104,0.59927 1.57005,1.2511 2.43302,1.75712 0.7675,0.45003 2.36006,0.94788 3.2891,1.1714 1.38935,0.33427 2.61719,0.49405 4.07757,0.54065 0.57871,0.0185 1.15845,-0.0334 1.73466,-0.0901 1.7555,-0.17281 2.70355,-0.36266 4.34791,-0.60823 0.57768,-0.0863 1.15384,-0.18615 1.73466,-0.24781 1.74069,-0.18476 2.05141,-0.16724 3.5369,-0.22526 0.91086,-0.0356 2.71551,-0.0657 3.55943,-0.31538 0.66687,-0.1973 1.28144,-0.54624 1.89235,-0.87856 0.33127,-0.1802 0.61806,-0.43233 0.92365,-0.65329 0.56083,-0.40551 0.4497,-0.36815 0.99124,-0.69835 0.15507,-0.0945 0.31783,-0.17607 0.47309,-0.27032 0.0552,-0.0335 0.16063,-0.0481 0.1577,-0.11263 -0.006,-0.14094 -0.12016,-0.25531 -0.18024,-0.38296"
       id="path34" />
    <path
       style="fill:none;stroke:#000000;stroke-width:0.3"
       d="m 154.92152,241.63351 c 0.88785,0.48426 0.48105,0.43753 1.32916,0.36044 0.47822,-0.0435 1.38414,-0.19784 1.77971,0.045 0.19713,0.12104 0.17108,0.44488 0.15769,0.67582 -0.0176,0.30377 -0.13246,0.59699 -0.24781,0.87856 -0.54176,1.32246 -0.80603,1.26617 -2.02752,2.43293"
       id="path35" />
    <path
       style="fill:none;stroke:#000000;stroke-width:0.3"
       d="m 136.426,216.60586 c 1.11609,-2.1091 2.30336,-4.21279 3.94241,-5.96969 1.311,-1.40526 2.23832,-2.24557 4.39296,-2.23018 0.28544,0.002 0.41005,0.48176 0.38299,0.76592 -0.0606,0.6363 -1.64095,1.25407 -1.8473,1.3291 -0.85986,0.31266 -1.75116,0.53235 -2.63578,0.76592 -1.75338,0.46296 -0.93124,-0.0578 -1.91489,0.72087"
       id="path36" />
    <path
       style="fill:none;stroke:#000000;stroke-width:0.3"
       d="m 151.00164,208.45104 c -0.47309,0.0676 -0.9893,-0.006 -1.41926,0.20274 -0.37275,0.18084 -0.65486,0.53893 -0.85607,0.90109 -0.48047,0.86482 -1.24959,2.69963 -1.1264,3.87467 0.0468,0.44665 0.0433,1.13128 0.47308,1.26152 0.59088,0.17904 1.17146,-0.39047 1.75719,-0.58571"
       id="path37" />
    <path
       style="fill:none;stroke:#000000;stroke-width:0.3"
       d="m 157.3996,207.30215 c -0.38623,2.34948 -0.3677,2.75513 -1.55443,5.58674 -0.23024,0.54934 -0.66083,0.99119 -0.99124,1.48679"
       id="path40" />
    <path
       style="fill:none;stroke:#000000;stroke-width:0.3"
       d="m 132.03304,260.9618 c -0.48004,-1.70671 -0.40176,-0.92391 0.81101,-3.94224 0.88041,-2.19115 2.20079,-3.22975 4.34791,-4.57301 0.54847,-0.34313 1.70014,0.14402 1.93741,0.67581 0.11137,0.24962 -0.0563,0.57362 -0.22528,0.78845 -0.80168,1.01904 -2.7789,1.71693 -3.78471,1.95985 -0.85715,0.20702 -1.77144,0.0507 -2.63577,0.22528 -0.15156,0.0306 0.27033,0.15018 0.40549,0.22527"
       id="path41" />
    <path
       style="fill:none;stroke:#000000;stroke-width:0.3"
       d="m 144.01795,252.04105 c -0.34543,0.0826 -0.79074,-0.009 -1.03629,0.2478 -1.51458,1.58286 -2.87841,3.53489 -1.80224,5.85706 0.41906,0.90426 1.43513,0.73005 2.14016,0.67582"
       id="path42" />
    <path
       style="fill:none;stroke:#000000;stroke-width:0.3"
       d="m 145.77514,254.58662 c 1.44634,1.09275 0.73388,0.32605 1.62202,1.93733 0.31338,0.56854 0.49708,1.24343 0.9687,1.68954 0.17131,0.16204 0.46558,-0.0751 0.69837,-0.11264"
       id="path43" />
    <path
       style="fill:none;stroke:#000000;stroke-width:0.3"
       d="m 151.09176,254.36135 c -0.78872,1.20017 -1.17197,1.86929 -2.09511,2.95105 -0.5866,0.6874 -1.19651,1.35538 -1.82477,2.00492 -0.67067,0.69338 -0.52292,0.61028 -0.99124,0.81098"
       id="path44" />
    <path
       style="fill:none;stroke:#000000;stroke-width:0.3"
       d="m 154.04292,251.88336 c 0.19869,1.08507 0.43709,1.89282 0.3154,2.99611 -0.16761,1.51951 -0.63307,2.68607 -1.71213,3.87467 -0.4061,0.44732 -1.02128,0.64578 -1.53191,0.96866"
       id="path45" />
    <path
       style="fill:none;stroke:#000000;stroke-width:0.3"
       d="m 117.11949,227.73428 c 0.015,-0.51062 0.14524,-1.03094 0.0451,-1.53185 -0.0572,-0.28594 -0.28375,-0.52051 -0.49562,-0.72087 -1.95114,-1.8452 -2.08496,-1.86475 -4.07757,-2.99611 -2.81271,-1.59699 0.69187,0.43058 -1.86983,-1.01372 -0.41622,-0.23468 -0.82706,-0.4788 -1.23903,-0.72087 -0.31645,-0.18595 -0.60668,-0.42372 -0.94619,-0.56318 -1.05456,-0.43321 -2.12294,-0.84403 -3.2215,-1.14888 -0.56352,-0.15638 -3.18811,-0.242 -3.5369,-0.22528 -1.26008,0.0604 -2.147737,0.58631 -3.289094,1.17142 -0.949555,0.48677 -1.891493,1.20267 -2.906112,1.5769 -1.272646,0.46939 -1.013714,0.51815 -1.689606,0.11263"
       id="path46" />
    <path
       style="fill:none;stroke:#000000;stroke-width:0.3"
       d="m 91.617759,221.4492 c -0.270335,-0.18773 -0.481973,-0.57083 -0.811006,-0.56318 -0.202134,0.005 -0.123415,0.38644 -0.157697,0.58571 -0.08607,0.50027 -0.158004,1.00367 -0.202755,1.50932 -0.03046,0.34415 -0.186889,0.73235 -0.02252,1.03624 0.267803,0.49516 0.684818,0.98648 1.216517,1.17141 0.304564,0.10593 0.607414,-0.24522 0.856064,-0.45054 2.952218,-2.43771 1.141593,-1.54944 2.455556,-2.16261"
       id="path47" />
    <path
       style="fill:none;stroke:#000000;stroke-width:0.3"
       d="m 78.957008,230.25731 c -0.06759,0.33791 -0.187249,0.66947 -0.202756,1.01372 -0.02233,0.496 0.05527,0.99151 0.09012,1.48679 0.07029,0.99905 0.122066,1.99992 0.225277,2.99612 0.0696,0.6718 0.156369,1.34345 0.292865,2.00491 0.156802,0.75986 0.358997,1.51071 0.585729,2.25271 0.02304,0.0754 0.56052,1.40141 0.698368,1.62195 0.06754,0.10806 0.170825,0.19072 0.270335,0.27033 0.0176,0.0141 0.05871,0.0207 0.06759,0 0.06461,-0.15074 0.08944,-0.31558 0.135168,-0.47307 0.08944,-0.30807 0.176815,-0.61676 0.270335,-0.92362 0.428194,-1.40495 0.864671,-2.83064 1.531903,-4.14498 1.230696,-2.42428 1.154245,-2.8284 2.793479,-3.78456"
       id="path48" />
    <path
       style="fill:none;stroke:#000000;stroke-width:0.3"
       d="m 84.431319,239.89892 c 0.650621,0.0835 1.308272,0.016 1.959935,0.0676 0.655566,0.0519 1.306629,0.15019 1.959943,0.22528"
       id="path49" />
    <path
       style="fill:none;stroke:#000000;stroke-width:0.3"
       d="m 88.869339,243.41316 c 1.50717,-2.08676 1.081728,-1.58797 2.410497,-3.17633 0.335,-0.40044 0.662384,-0.80779 1.013762,-1.19394 0.394242,-0.43325 1.19956,-1.34385 1.82477,-1.75711 0.198967,-0.13152 0.740632,-0.60117 0.901121,-0.36044 0.162755,0.24412 0.247814,0.58961 0.247814,0.87857 0,0.29371 0.0086,0.5949 -0.06758,0.87855 -0.126487,0.47079 -0.514615,0.93136 -0.991238,1.0813 -0.433596,0.13641 -0.89776,0.15633 -1.351679,0.18022 -0.05739,0.003 -0.971076,-0.0345 -1.171456,-0.18022 -0.04074,-0.0296 0.08493,-0.0639 0.135162,-0.0676 0.157443,-0.0117 0.315447,0.0139 0.473089,0.0225 0.255378,0.0139 0.511291,0.0214 0.76595,0.045 0.07568,0.007 0.420595,0.0342 0.112649,0.22528 -0.605452,0.37578 -1.235808,0.71098 -1.869832,1.03624 -0.230772,0.11839 -0.477755,0.20255 -0.720897,0.29286 -0.02111,0.008 -0.08773,-0.0101 -0.06758,0 0.03425,0.0171 0.07509,0.015 0.112639,0.0225"
       id="path50" />
    <path
       style="fill:none;stroke:#000000;stroke-width:0.3"
       d="m 97.925611,239.65112 c 0.942925,-0.31428 0.583917,-0.25526 1.644539,-0.3379 0.27741,-0.0216 0.55589,-0.0633 0.83354,-0.0451 0.2969,0.0195 0.58572,0.10512 0.87859,0.15768"
       id="path51" />
    <path
       style="fill:none;stroke:#000000;stroke-width:0.3"
       d="m 99.885541,236.70007 c -0.07544,1.2499 -0.207613,2.49951 -0.382974,3.7395 -0.04477,0.31659 -0.05266,0.64416 -0.157697,0.94615 -0.04694,0.13494 -0.015,-0.28535 -0.02252,-0.42802"
       id="path52" />
    <path
       style="fill:none;stroke:#000000;stroke-width:0.3"
       d="m 102.04824,237.46599 c 0.3448,0.0325 1.47401,-0.0545 1.75719,0.4956 0.39547,0.76831 0.26564,1.6017 -0.20276,2.29777 -2.13073,3.1664 -0.47343,0.46994 -1.59949,1.50931 -0.0281,0.026 0.0761,0.0338 0.11264,0.0226 0.38126,-0.11784 0.74399,-0.29144 1.1264,-0.40549 2.50949,-0.74842 1.82207,-0.67886 3.04128,-0.76593"
       id="path53" />
    <path
       style="fill:none;stroke:#000000;stroke-width:0.3"
       d="m 95.064547,215.70478 c 0.05768,-0.12247 1.750846,-3.82779 2.2528,-4.61807 0.40345,-0.63519 0.832871,-1.25906 1.329156,-1.82469 0.56579,-0.64486 1.527257,-1.02764 2.185217,-0.22527 0.14668,0.17887 0.19663,0.44779 0.1577,0.67581 -0.15538,0.91004 -0.47713,1.39136 -1.306632,1.73459 -0.960006,0.39723 -1.695063,0.20486 -2.725891,0.22527 -0.226356,0.004 -0.450556,0.0451 -0.675833,0.0676"
       id="path54" />
    <path
       style="fill:none;stroke:#000000;stroke-width:0.3"
       d="m 105.08952,208.63125 c -0.59324,0.72088 -1.30675,1.3577 -1.77972,2.16261 -0.83785,1.42591 -0.75799,4.00721 -0.22528,5.33894 0.20979,0.52444 1.38132,-0.19023 1.62203,-0.31539"
       id="path55" />
    <path
       style="fill:none;stroke:#000000;stroke-width:0.3"
       d="m 105.878,214.8938 c 0.12766,-0.32289 0.18788,-0.68145 0.38298,-0.96867 0.52984,-0.78 1.43347,-1.69202 2.2528,-2.23018 0.40724,-0.26749 0.8483,-0.48045 1.2841,-0.69834 0.0913,-0.0457 0.19524,-0.0601 0.29286,-0.0901"
       id="path57" />
    <path
       style="fill:none;stroke:#000000;stroke-width:0.3"
       d="m 111.57759,209.23949 c 0.17278,0.93588 0.60917,3.13111 0.5632,3.87467 -0.0791,1.27903 -0.37278,2.53943 -0.67584,3.78456 -0.0469,0.19262 -0.2403,0.31538 -0.36045,0.47307"
       id="path58" />
    <path
       style="fill:none;stroke:#000000;stroke-width:0.3"
       d="m 98.691561,246.74718 c 0.29336,0.63016 0.530045,1.48721 1.171459,1.9148 0.92027,0.61349 1.56707,0.83299 2.63577,0.90109 1.11703,0.0712 2.23744,0.0786 3.35668,0.0901 0.34574,0.004 0.69466,0.008 1.03629,-0.045 0.4805,-0.0749 0.95455,-0.19458 1.41927,-0.3379 0.45094,-0.13907 1.50056,-0.64377 1.9374,-0.83351 0.31359,-0.1362 1.70735,-0.70489 2.14017,-0.92361 0.41988,-0.2122 0.83439,-0.43585 1.23905,-0.67581 0.136,-0.0806 1.1272,-0.76132 1.28409,-0.9011 0.34398,-0.30644 0.67981,-0.72483 1.01377,-1.05877 0.13146,-0.13146 0.26888,-0.25685 0.40549,-0.38295 0.0587,-0.0541 0.14678,-0.0852 0.18024,-0.1577 0.0439,-0.0951 -0.0868,-0.16646 -0.13518,-0.20274"
       id="path59" />
    <path
       style="fill:none;stroke:#000000;stroke-width:0.3"
       d="m 115.33978,241.65605 c 2.64861,1.12888 0.34574,0.22511 2.14016,0.78845 0.39424,0.12377 0.79071,0.24493 1.17146,0.40548 0.24463,0.10316 0.48793,0.2211 0.69836,0.38297 0.35305,0.27156 0.9294,0.95518 0.51814,1.48678 -0.96491,1.24728 -1.41031,1.28943 -2.47808,1.57691"
       id="path60" />
    <path
       style="fill:none;stroke:#000000;stroke-width:0.3"
       d="m 106.23845,209.89277 c 0.15585,0.28337 0.40987,0.83458 0.67584,1.14889 0.0175,0.0207 0.0468,0.0277 0.0676,0.0451 0.0245,0.0204 0.0431,0.0472 0.0676,0.0676 0.17205,0.14336 0.36828,0.26182 0.54069,0.40549 0.22485,0.18736 0.0107,0.005 0.11263,0.15769 0.0353,0.053 0.0878,0.0925 0.13517,0.13516 0.12095,0.10885 0.15154,0.1073 0.22528,0.22527 0.0356,0.057 0.0545,0.12326 0.0901,0.18022 0.0199,0.0318 0.0431,0.0616 0.0676,0.0901 0.0207,0.0242 0.0697,0.0358 0.0676,0.0676 -0.006,0.0948 -0.0601,0.18022 -0.0901,0.27032"
       id="path61" />
    <path
       style="fill:none;stroke:#000000;stroke-width:0.3"
       d="m 150.75384,208.72137 c -0.0676,0.39797 -0.21412,0.79042 -0.20276,1.19393 0.004,0.15834 0.14994,0.28094 0.24781,0.40549 0.16261,0.20696 0.51878,0.62522 0.81101,0.76592 0.0903,0.0435 0.19524,0.0451 0.29286,0.0676"
       id="path62" />
    <path
       style="fill:none;stroke:#000000;stroke-width:0.3"
       d="m 154.06546,208.74389 c -0.30038,0.31538 -0.64146,0.59648 -0.90113,0.94614 -0.30711,0.41357 -0.51827,0.89053 -0.78848,1.3291 -0.24802,0.40257 -0.49454,0.80675 -0.76595,1.19394 -0.43616,0.62224 -1.58465,2.06272 -2.05006,2.59063 -0.42089,0.47741 -0.30652,0.4213 -0.63078,0.0676"
       id="path63" />
    <path
       style="fill:none;stroke:#000000;stroke-width:0.3"
       d="m 100.67403,261.16454 c 0.37546,-1.03625 0.67456,-2.10344 1.1264,-3.10874 0.47986,-1.06766 1.80351,-3.49222 2.74842,-4.55048 0.30932,-0.34642 0.61808,-0.84577 1.08135,-0.87856 0.53942,-0.0382 1.45313,0.15768 1.46431,0.69834 0.0202,0.97425 -0.78074,1.81304 -1.39673,2.5681 -0.34519,0.42312 -0.87623,0.69093 -1.39674,0.85603 -2.11188,0.66987 -1.95603,0.66631 -3.08634,0.40549"
       id="path64" />
    <path
       style="fill:none;stroke:#000000;stroke-width:0.3"
       d="m 111.46495,250.93723 c -1.6389,2.04854 -1.72316,1.83698 -2.68083,4.61806 -0.21721,0.63077 -0.38566,1.29303 -0.40551,1.95986 -0.0183,0.61574 -0.10661,1.35577 0.29287,1.8247 0.2727,0.32012 0.84104,0 1.26156,0"
       id="path65" />
    <path
       style="fill:none;stroke:#000000;stroke-width:0.3"
       d="m 113.24466,254.27124 c 0.14222,0.32111 1.01116,2.25955 1.19399,2.74832 0.21964,0.58717 0.40551,1.18642 0.60826,1.77964"
       id="path66" />
    <path
       style="fill:none;stroke:#000000;stroke-width:0.3"
       d="m 112.81663,257.67283 c 0.58598,-0.84486 1.17212,-1.75784 1.86983,-2.52303 0.37566,-0.41201 0.75537,-0.8272 1.19399,-1.17141 0.16456,-0.12914 0.39049,-0.15019 0.58573,-0.22528"
       id="path67" />
    <path
       style="fill:none;stroke:#000000;stroke-width:0.3"
       d="m 116.84915,251.7482 c 0.28536,0.24029 0.62441,0.42846 0.85607,0.72087 0.94296,1.19025 1.24514,4.62799 1.30662,5.15872 0.17277,1.49159 -0.30296,2.38466 -1.05881,3.67191 -0.11564,0.19695 -0.33042,0.31539 -0.49563,0.47307"
       id="path68" />
    <path
       style="fill:none;stroke:#000000;stroke-width:0.3"
       d="m 148.70378,258.41624 c 0.97558,0.55139 0.77379,0.53001 1.59949,0.76591 0.1261,0.036 0.26984,0.0238 0.38297,0.0901 0.30454,0.17852 0.26677,0.2571 0.29287,0.51811"
       id="path69" />
    <path
       style="fill:none;stroke:#000000;stroke-width:0.3"
       d="m 76.861905,226.02221 c -0.08261,-0.24029 -0.150657,-0.48609 -0.247815,-0.72087 -0.250301,-0.60486 -0.631639,-1.16289 -1.1264,-1.59943 -1.222179,-1.07835 -3.334673,-1.3258 -4.708355,-1.53184 -1.996752,-0.2995 -3.576799,-0.10901 -5.541899,-0.0901 -0.758444,0.007 -1.516954,-0.01 -2.275329,-0.0225 -0.585838,-0.01 -1.171586,-0.0644 -1.757188,-0.0451 -1.458352,0.0483 -2.91364,0.1649 -4.370433,0.24781 -0.846674,0.0482 -1.270489,0.18373 -2.050052,-0.13517 -0.07155,-0.0293 -0.07509,-0.13516 -0.112639,-0.20274"
       id="path70" />
    <path
       style="fill:none;stroke:#000000;stroke-width:0.3"
       d="m 50.504111,220.39042 c 0.01767,1.94394 -0.06903,2.41405 0.225276,4.16752 0.08655,0.51568 0.170228,1.03658 0.337924,1.53185 0.05968,0.17626 0.455721,1.79655 1.261567,1.50932 1.247198,-0.44453 2.130272,-1.46357 3.108865,-2.27525 1.58106,-1.31137 1.14068,-0.97341 2.861061,-1.84722"
       id="path71" />
    <path
       style="fill:none;stroke:#000000;stroke-width:0.3"
       d="m 38.203803,229.69413 c 0.180227,0.45805 0.371685,0.91184 0.540674,1.37416 0.59173,1.61881 0.714991,1.97616 1.081347,3.60434 0.211015,0.93781 0.626091,3.23354 0.991232,4.37026 0.232505,0.72381 0.474419,1.44775 0.788482,2.14009 0.0286,0.0631 0.161211,0.10043 0.20275,0.045 0.167434,-0.22323 0.231505,-0.50795 0.337921,-0.76591 0.285906,-0.69308 0.678855,-1.76697 0.92365,-2.43294 0.510685,-1.3893 1.574223,-4.46213 2.275332,-5.72189 0.06532,-0.11737 0.120147,0.24029 0.180221,0.36043"
       id="path72" />
    <path
       style="fill:none;stroke:#000000;stroke-width:0.3"
       d="m 46.786982,240.21431 c 1.075682,-0.22497 1.541505,-0.35241 2.500611,-0.11264"
       id="path73" />
    <path
       style="fill:none;stroke:#000000;stroke-width:0.3"
       d="m 47.440296,244.71973 c 3.892582,-5.36887 0.510252,-0.62252 2.928647,-4.16752 0.825164,-1.20956 1.121502,-1.76966 2.320382,-2.6582 0.344546,-0.25536 0.905251,-0.30775 1.216515,0.0676 0.143002,0.17244 0.151111,0.42937 0.157697,0.65329 0.03563,1.21135 -0.64004,2.13802 -1.779717,2.52304 -0.266669,0.0901 -0.554345,0.17096 -0.833536,0.13516 -0.08327,-0.0107 -0.113921,-0.19978 -0.04506,-0.2478 0.545666,-0.38051 1.125056,-0.73889 1.757188,-0.94613 0.585724,-0.19204 1.530956,0.0863 1.757187,0.74339 0.198189,0.57566 -1.148852,1.2983 -1.284096,1.35163 -0.708287,0.27932 -1.457135,0.45815 -2.20775,0.5857 -0.904893,0.15376 -1.239205,-0.12589 -2.072574,0.0451 -0.04652,0.01 -0.03004,0.0901 -0.04506,0.13517"
       id="path74" />
    <path
       style="fill:none;stroke:#000000;stroke-width:0.3"
       d="m 51.517872,247.94112 c 0.41525,0.93175 0.992301,2.53864 1.779709,3.35654 0.620829,0.64486 1.29839,1.2485 2.050053,1.73458 0.517565,0.3347 1.11638,0.5403 1.712129,0.69835 1.24084,0.32919 3.175849,0.53887 4.528137,0.67581 0.577649,0.0585 1.154928,0.12584 1.734659,0.1577 2.10698,0.11576 4.234474,0.0891 6.330376,-0.18022 0.843632,-0.1084 2.404568,-0.49157 3.221503,-0.72087 0.754827,-0.21187 1.513559,-0.41473 2.252808,-0.67581 1.026914,-0.36269 2.030867,-0.78753 3.041277,-1.19394 0.151998,-0.0611 1.503045,-0.63529 1.734658,-0.78845 0.239827,-0.15859 0.462921,-0.34775 0.653318,-0.56319 0.10007,-0.11323 0.136429,-0.2697 0.202747,-0.40548 0.09139,-0.18711 0.152368,-0.39159 0.270343,-0.56318 0.106815,-0.15536 0.313013,-0.18162 0.473083,-0.22527"
       id="path75" />
    <path
       style="fill:none;stroke:#000000;stroke-width:0.3"
       d="m 80.691666,245.64335 c 0.428033,-0.0901 0.866929,-0.13879 1.284097,-0.27033 1.680723,-0.52994 0.821672,-0.72327 2.83853,-0.67581 0.1187,0.003 0.234325,0.0994 0.292864,0.20274 0.262149,0.46259 -0.117816,1.44667 -0.202747,1.71207 -0.231222,0.72254 -0.563777,1.23548 -0.878594,1.91479 -0.144278,0.31133 -0.270336,0.63077 -0.405503,0.94615"
       id="path76" />
    <path
       style="fill:none;stroke:#000000;stroke-width:0.3"
       d="m 58.636725,264.18318 c 2.057056,-2.78547 0.663583,-0.8118 3.559426,-5.49662 0.349462,-0.56535 0.696886,-1.1321 1.05882,-1.68954 0.436356,-0.67206 1.088292,-1.81746 1.892356,-2.20766 0.167129,-0.0811 0.410644,0.002 0.540671,0.13517 0.497818,0.50796 0.732165,1.19955 0.5632,1.89228 -0.349542,1.43307 -1.993075,2.36942 -3.33415,2.68073 -0.605962,0.14066 -0.942906,0.13516 -1.441794,0.13516"
       id="path77" />
    <path
       style="fill:none;stroke:#000000;stroke-width:0.3"
       d="m 73.415109,256.38879 c -0.458068,0.14267 -0.949643,0.20457 -1.374206,0.42802 -1.111584,0.58502 -2.215158,2.00966 -2.725891,3.01863 -0.238768,0.4717 -0.537943,1.07482 -0.315394,1.55438 0.377751,0.81399 1.089496,1.54013 1.914885,1.89227 0.469722,0.20041 0.976214,-0.30036 1.464323,-0.45054"
       id="path78" />
    <path
       style="fill:none;stroke:#000000;stroke-width:0.3"
       d="m 74.068426,259.81292 c 1.492879,2.10942 0.640421,0.70873 1.576961,2.6582 0.380781,0.79262 0.665843,1.29126 1.081342,2.04997"
       id="path79" />
    <path
       style="fill:none;stroke:#000000;stroke-width:0.3"
       d="m 74.203593,263.7777 c 1.433076,-1.24225 2.471688,-2.8308 3.581956,-4.34775 0.25369,-0.34661 0.510638,-0.69083 0.765956,-1.03625"
       id="path80" />
    <path
       style="fill:none;stroke:#000000;stroke-width:0.3"
       d="m 80.263634,256.52395 c 0.09011,0.27784 0.203094,0.54927 0.270335,0.83351 0.335362,1.41762 0.342564,2.52188 0.247806,4.07741 -0.0334,0.54838 -0.04566,1.13132 -0.292864,1.62196 -0.267968,0.53185 -0.795986,0.88606 -1.19398,1.3291"
       id="path81" />
    <path
       style="fill:none;stroke:#000000;stroke-width:0.3"
       d="m 58.681783,216.06521 c 0.09011,-0.34541 0.114036,-0.71531 0.270336,-1.03625 0.831045,-1.70643 1.717423,-3.38819 2.680832,-5.02355 0.549796,-0.93325 1.226476,-1.53481 2.275337,-1.84722 0.259485,-0.0773 0.555453,-0.0444 0.811006,0.0451 1.242351,0.4348 0.398862,1.99736 -0.202755,2.77084 -0.655336,0.84254 -1.99998,0.94079 -2.951168,1.0813 -0.967073,0.14286 -0.627655,-0.0989 -1.103879,0.45054"
       id="path82" />
    <path
       style="fill:none;stroke:#000000;stroke-width:0.3"
       d="m 70.756806,207.57248 c -0.495618,0.23278 -1.140717,0.27406 -1.486853,0.69834 -0.636939,0.78074 -0.998664,1.76641 -1.306626,2.72579 -0.55345,1.72415 -2.011527,4.83158 -0.09011,6.5554 0.366061,0.32841 0.976214,0.12014 1.464323,0.18021"
       id="path83" />
    <path
       style="fill:none;stroke:#000000;stroke-width:0.3"
       d="m 72.221129,212.14549 c 1.055872,1.37426 1.260194,1.79125 2.387968,2.83842 0.2931,0.27215 0.586922,0.55008 0.923652,0.76592 0.254847,0.16336 0.555691,0.24029 0.833535,0.36044"
       id="path84" />
    <path
       style="fill:none;stroke:#000000;stroke-width:0.3"
       d="m 78.123472,211.13177 c -0.629573,2.21709 -1.342514,4.83208 -2.18522,6.82572 -0.247422,0.58535 -0.735915,1.03625 -1.103871,1.55438"
       id="path85" />
    <path
       style="fill:none;stroke:#000000;stroke-width:0.3"
       d="m 81.412563,207.05436 c 0.217771,1.03625 0.533495,2.05666 0.653309,3.10874 0.215324,1.89072 0.108138,4.26429 -0.360444,6.12739 -0.249603,0.99242 -2.6685,2.83253 -2.74842,2.90599"
       id="path86" />
    <path
       style="fill:none;stroke:#000000;stroke-width:0.3"
       d="m 37.482907,227.55406 c -0.120979,-0.63219 -0.08697,-1.2783 -0.157697,-1.91481 -0.0218,-0.19633 0.03657,-0.43415 -0.09011,-0.58571 -0.318902,-0.38153 -0.725924,-0.70279 -1.171458,-0.92361 -0.665914,-0.33005 -1.798709,-0.40717 -2.545667,-0.47307 -0.390123,-0.0344 -0.780352,-0.0697 -1.171456,-0.0901 -0.615339,-0.0322 -1.2313,-0.0824 -1.8473,-0.0676 -1.973315,0.0474 -2.332217,0.11044 -3.852291,0.31538 -1.233062,0.16625 -2.493334,0.30774 -3.58196,0.96866 -0.505911,0.30715 -0.988316,0.65593 -1.441794,1.03625 -0.248471,0.20839 -0.458734,0.46144 -0.653313,0.72087 -0.830242,1.10695 -0.346972,1.1528 -1.216513,1.26153"
       id="path87" />
    <path
       style="fill:none;stroke:#000000;stroke-width:0.3"
       d="m 16.689537,226.54033 c -0.307882,0.32289 -0.6941,0.5861 -0.923648,0.96867 -0.248483,0.41412 -0.806574,3.17716 -0.81101,3.19885 -0.06408,0.31325 -0.13996,0.62691 -0.157697,0.94615 -0.01256,0.22604 -0.137408,0.57972 0.06758,0.67581 0.414767,0.19441 0.937263,0.13749 1.37421,0 0.669999,-0.21083 1.242887,-0.6559 1.847298,-1.01372 2.87136,-1.6999 1.623404,-1.76317 2.928645,-1.64448"
       id="path88" />
    <path
       style="fill:none;stroke:#000000;stroke-width:0.3"
       d="m 19.459411,238.58956 c -2.100183,0.07 -2.567674,-0.41229 -3.694598,2.00491 -0.644612,1.38266 -1.049863,2.88534 -1.284097,4.39279 -0.06905,0.44439 0.529343,2.1225 1.464323,1.75712 1.088686,-0.42545 2.299713,-1.0022 2.861059,-2.02745 1.166121,-2.12981 1.620115,-4.59778 2.072581,-6.98341 0.06443,-0.33969 -0.33455,-0.61844 -0.585729,-0.85603 -0.68971,-0.6524 -0.92158,-0.66974 -1.644549,-0.90109"
       id="path89" />
    <path
       style="fill:none;stroke:#000000;stroke-width:0.3"
       d="m 26.962317,218.47562 c 1.054549,-2.30925 1.958866,-4.70531 3.379205,-6.82573 0.208108,-0.31068 0.592873,-0.75466 1.05882,-0.60823 0.129143,0.0406 0.185862,0.2084 0.22528,0.33791 0.287223,0.9437 -0.06627,2.00788 -1.036291,2.38787 -0.04422,0.0173 -2.083657,0.45292 -2.387971,0.51813"
       id="path90" />
    <path
       style="fill:none;stroke:#000000;stroke-width:0.3"
       d="m 37.753242,210.14058 c -3.254481,0.36743 -2.171406,-0.16143 -3.942403,5.87958 -0.352525,1.20249 -0.102407,2.61361 0.811009,3.46918 0.317778,0.29765 0.715502,0.5015 1.103873,0.69834 0.165704,0.084 0.36045,0.0901 0.540674,0.13516"
       id="path91" />
    <path
       style="fill:none;stroke:#000000;stroke-width:0.3"
       d="m 39.104927,212.5735 c 0.157697,0.29286 0.315391,0.58571 0.473088,0.87857 0.405503,0.90108 0.765826,1.82389 1.216512,2.70325 0.16723,0.32629 0.36069,0.65314 0.630785,0.90109 0.202874,0.18624 0.495617,0.24029 0.743426,0.36043"
       id="path92" />
    <path
       style="fill:none;stroke:#000000;stroke-width:0.3"
       d="m 43.880867,213.60976 c -1.529418,2.26766 -0.137543,0.12877 -2.613249,4.68564 -0.568952,1.04723 -0.365662,0.78861 -1.081347,1.37416"
       id="path93" />
    <path
       style="fill:none;stroke:#000000;stroke-width:0.3"
       d="m 47.237541,209.87025 c -0.07217,2.55006 -0.132945,2.0313 0.06759,4.41532 0.07841,0.93218 0.345755,1.86094 0.270335,2.79336 -0.09193,1.13658 -0.510635,2.22268 -0.765955,3.33402"
       id="path94" />
  </g>
</svg>
