<?xml version="1.0" encoding="UTF-8" standalone="no"?>
<!-- Created with Inkscape (http://www.inkscape.org/) -->

<svg
   width="240mm"
   height="120mm"
   viewBox="0 0 240 120"
   version="1.1"
   id="svg8"
   inkscape:version="1.3.2 (091e20ef0f, 2023-11-25, custom)"
   sodipodi:docname="matrice.svg"
   xmlns:inkscape="http://www.inkscape.org/namespaces/inkscape"
   xmlns:sodipodi="http://sodipodi.sourceforge.net/DTD/sodipodi-0.dtd"
   xmlns="http://www.w3.org/2000/svg"
   xmlns:svg="http://www.w3.org/2000/svg"
   xmlns:rdf="http://www.w3.org/1999/02/22-rdf-syntax-ns#"
   xmlns:cc="http://creativecommons.org/ns#"
   xmlns:dc="http://purl.org/dc/elements/1.1/">
  <defs
     id="defs2" />
  <sodipodi:namedview
     id="base"
     pagecolor="#ffffff"
     bordercolor="#666666"
     borderopacity="1.0"
     inkscape:pageopacity="0.0"
     inkscape:pageshadow="2"
     inkscape:zoom="1.5675423"
     inkscape:cx="423.59303"
     inkscape:cy="196.48593"
     inkscape:document-units="mm"
     inkscape:current-layer="layer1"
     showgrid="false"
     showborder="true"
     width="200mm"
     showguides="true"
     inkscape:guide-bbox="true"
     inkscape:window-width="1920"
     inkscape:window-height="1200"
     inkscape:window-x="0"
     inkscape:window-y="0"
     inkscape:window-maximized="1"
     inkscape:showpageshadow="2"
     inkscape:pagecheckerboard="0"
     inkscape:deskcolor="#d1d1d1">
    <inkscape:grid
       type="xygrid"
       id="grid815"
       units="mm"
       spacingx="10"
       spacingy="10"
       empspacing="4"
       dotted="false"
       originx="0"
       originy="0"
       visible="false" />
  </sodipodi:namedview>
  <metadata
     id="metadata5">
    <rdf:RDF>
      <cc:Work
         rdf:about="">
        <dc:format>image/svg+xml</dc:format>
        <dc:type
           rdf:resource="http://purl.org/dc/dcmitype/StillImage" />
        <dc:title />
      </cc:Work>
    </rdf:RDF>
  </metadata>
  <g
     inkscape:label="Layer 1"
     inkscape:groupmode="layer"
     id="layer1"
     transform="translate(0,-177)">
    <path
       style="fill:none;stroke:#000000;stroke-width:0.3"
       d="m 32.40211,205.79417 c 1.009907,0.20792 0.535149,0.15688 1.556044,0.18306 0.93055,0.0239 1.862622,0.0116 2.791727,0.0686 1.427099,0.0877 2.856815,0.40796 4.279127,0.57206 0.426763,0.0492 0.854276,0.0917 1.281449,0.13729 0.351337,0.0375 0.356417,0.0168 0.617842,0.0915 0.044,0.0126 -0.09153,0 -0.137298,0"
       id="path1" />
    <path
       style="fill:none;stroke:#000000;stroke-width:0.3"
       d="m 31.509472,204.71896 c -0.662673,0.16566 -0.522158,-0.0142 -0.705739,0.83887 -0.106368,0.49428 -0.91884,2.91576 1.344904,1.79757 0.180382,-0.0891 1.268949,-2.26903 0.306266,-2.56986 -0.899121,-0.28097 -0.997969,-0.0372 -1.731069,0.37283"
       id="path2" />
    <path
       style="fill:none;stroke:#000000;stroke-width:0.3"
       d="m 42.015711,205.02521 c 0.446275,-0.0121 0.486008,0.0355 0.772324,0.22636 0.02246,0.015 0.102092,-0.002 0.07989,0.0133 -0.357365,0.2474 -0.217432,-0.026 -0.545952,0.58588 -0.341313,0.63575 -0.572408,1.33318 -0.492689,2.0772 0.02416,0.22554 0.136232,0.50005 0.346216,0.58587 1.163372,0.47545 2.42172,-0.57274 2.636546,-1.69105 0.084,-0.43727 0.196368,-1.00517 -0.106529,-1.33153 -0.987026,-1.0635 -1.380408,-0.66186 -2.063964,-0.23968"
       id="path3" />
    <path
       style="fill:none;stroke:#000000;stroke-width:0.3"
       d="m 44.891944,207.14236 c 5.864833,-0.46572 2.728396,-0.43107 6.870998,-0.21305 0.399146,0.021 0.798865,0.0296 1.198431,0.04 0.150926,0.004 0.342363,-0.0897 0.452739,0.0133 0.04791,0.0447 0.06214,0.1154 0.09321,0.1731"
       id="path4" />
    <path
       style="fill:none;stroke:#000000;stroke-width:0.3"
       d="m 54.213069,205.99724 c 1.007361,0.23701 1.354542,0.0239 1.118531,1.5579 -0.07063,0.45909 -0.337833,0.87707 -0.612529,1.25164 -0.129659,0.1768 -0.454718,0.53891 -0.559268,0.3462 -0.388662,-0.71643 -0.798436,-1.60849 -0.545949,-2.38345 0.165756,-0.50875 1.003128,-0.37284 1.50469,-0.55925 -0.0044,-0.23968 -0.01123,-0.47932 -0.01331,-0.71903 -0.0096,-1.10452 -0.0063,-2.21116 0,-3.31552 0.0033,-0.58325 -0.05386,-1.66218 0.173104,-1.26496"
       id="path5" />
    <path
       style="fill:none;stroke:#000000;stroke-width:0.3"
       d="m 55.877549,199.27298 c -0.368406,0.0178 -0.913574,-0.26188 -1.105217,0.0533 -0.741693,1.21962 0.354272,3.91043 1.491385,2.02393 0.231055,-0.38333 0.25491,-0.89149 0.173103,-1.33153 -0.05679,-0.30547 -0.386122,-0.48769 -0.559271,-0.74566 -0.876035,-1.30525 -0.409821,-1.58269 -1.038632,-0.98534"
       id="path6" />
    <path
       style="fill:none;stroke:#000000;stroke-width:0.3"
       d="m 55.344919,199.61918 c 0.162095,-0.75645 0.192331,-0.84948 0.319582,-1.81089 0.47098,-3.55833 0.103783,-1.17365 0.439426,-3.62178 0.01834,-0.13374 0.04189,-0.26675 0.06658,-0.39946 0.01082,-0.0582 0.06327,-0.22753 0.03995,-0.1731 -0.03651,0.0852 -0.05327,0.17754 -0.0799,0.26631"
       id="path7" />
    <path
       style="fill:none;stroke:#000000;stroke-width:0.3"
       d="m 57.102612,190.37831 c -0.07102,1.04748 -0.612812,2.17163 -0.213055,3.14243 0.183213,0.44492 0.893503,-0.46871 1.145172,-0.87882 0.48255,-0.78634 -0.662035,-1.64103 -1.304962,-1.41142"
       id="path8" />
    <path
       style="fill:none;stroke:#000000;stroke-width:0.3"
       d="m 55.17181,207.36872 c 1.95815,-0.33244 3.882229,-0.16255 5.845675,-0.17311 0.244316,-10e-4 0.756841,-0.12798 0.372846,0"
       id="path9" />
    <path
       style="fill:none;stroke:#000000;stroke-width:0.3"
       d="m 63.907037,205.9706 c -0.794517,0.49267 -1.854211,0.70744 -2.383549,1.47801 -0.11244,0.16369 0.227592,2.02967 1.091906,1.37148 0.449466,-0.34227 0.812612,-0.81292 1.065273,-1.31822 0.212707,-0.4254 -0.715862,-1.33793 -1.03864,-0.6924"
       id="path10" />
    <path
       style="fill:none;stroke:#000000;stroke-width:0.3"
       d="m 64.572832,207.84807 c 1.442929,0.001 2.872181,-0.0582 4.314343,0.0266"
       id="path11" />
    <path
       style="fill:none;stroke:#000000;stroke-width:0.3"
       d="m 72.921891,206.64969 c -1.140727,0.73678 -2.67639,1.07549 -3.422182,2.21035 -0.309274,0.47062 1.050817,0.76537 1.58459,0.58588 0.676391,-0.22745 1.032891,-1.00149 1.4248,-1.59785 1.238686,-1.88488 -0.657276,-2.19225 -1.717747,-1.13181"
       id="path12" />
    <path
       style="fill:none;stroke:#000000;stroke-width:0.3"
       d="m 103.33232,218.68826 c -0.85278,0.15634 -1.77377,0.10005 -2.55832,0.46901 -1.157296,0.54426 -2.20344,2.0782 -2.984696,3.1125 -1.561079,2.06669 -2.598039,3.91806 -3.666911,6.28893 -0.482597,1.07045 -1.003774,2.13324 -1.343118,3.26172 -1.080926,3.59458 -1.394748,7.32544 -1.556308,11.06425 -0.168497,3.89938 -0.245253,7.83681 0.383752,11.70382 0.454779,2.79593 1.252767,5.54738 1.854779,8.31419 0.403733,1.85555 0.747631,3.64411 1.385747,5.4362 0.403064,1.13196 1.01762,1.87866 1.598949,2.92062 0.475268,0.85187 0.663728,1.91373 1.044638,2.81404 0.320236,0.7569 0.896512,1.36169 1.215208,2.13184 0.260006,0.62833 0.443849,1.2924 0.703527,1.91866 0.04718,0.11378 1.333243,2.96012 1.577633,1.98261"
       id="path13" />
    <path
       style="fill:none;stroke:#000000;stroke-width:0.3"
       d="m 106.43178,216.55794 c 0.0735,2.03711 -1.61054,4.18814 0.064,5.86256"
       id="path14" />
    <path
       style="fill:none;stroke:#000000;stroke-width:0.3"
       d="m 113.31791,215.30016 c 0.0829,0.73042 0.064,1.46303 0.064,2.19579"
       id="path15" />
    <path
       style="fill:none;stroke:#000000;stroke-width:0.3"
       d="m 111.95348,220.73635 c 1.95622,-0.47594 3.03676,-2.62828 5.03134,-3.02722"
       id="path16" />
    <path
       style="fill:none;stroke:#000000;stroke-width:0.3"
       d="m 114.38387,222.50578 c 2.96101,-1.73386 2.88368,-2.16011 1.19387,0.40505 -0.19733,0.29955 -0.78309,0.58876 -0.59693,0.89537 0.093,0.15325 2.23021,-0.79932 2.49435,-0.89537"
       id="path17" />
    <path
       style="fill:none;stroke:#000000;stroke-width:0.3"
       d="m 105.60033,225.25585 c -0.0995,1.35728 -0.19898,2.71455 -0.29847,4.07182"
       id="path18" />
    <path
       style="fill:none;stroke:#000000;stroke-width:0.3"
       d="m 102.65827,233.01576 c 2.40357,-1.06206 3.60741,-3.7669 5.8628,-4.9885"
       id="path19" />
    <path
       style="fill:none;stroke:#000000;stroke-width:0.3"
       d="m 105.40846,234.46541 c 0.42638,-0.15633 1.23133,-0.92061 1.27915,-0.469 0.0887,0.83764 -0.74644,1.5108 -1.08728,2.28107 -0.10114,0.22856 0.47548,0.20871 0.72485,0.19187 1.01362,-0.0685 2.11117,-0.51358 3.0913,-0.74615"
       id="path20" />
    <path
       style="fill:none;stroke:#000000;stroke-width:0.3"
       d="m 117.11274,229.51954 c 0,4.63634 0.43702,3.10558 -0.064,4.77533"
       id="path21" />
    <path
       style="fill:none;stroke:#000000;stroke-width:0.3"
       d="m 127.53786,239.66711 c 1.11958,0.92709 0.11674,2.49889 0.91672,3.53886"
       id="path22" />
    <path
       style="fill:none;stroke:#000000;stroke-width:0.3"
       d="m 137.64319,247.64021 c -0.043,5.0287 -1.21855,6.16428 0.0426,4.90324"
       id="path23" />
    <path
       style="fill:none;stroke:#000000;stroke-width:0.3"
       d="m 147.87644,259.3227 c 0.43677,1.10237 0.25662,2.20034 0.4477,3.34699"
       id="path24" />
    <path
       style="fill:none;stroke:#000000;stroke-width:0.3"
       d="m 155.55137,265.93141 c 0.29261,1.91813 0.19188,0.83368 0.19188,3.26172"
       id="path25" />
    <path
       style="fill:none;stroke:#000000;stroke-width:0.3"
       d="m 166.99981,273.37155 c 1.0666,1.35433 1.1874,2.7917 1.23654,4.41291"
       id="path26" />
    <path
       style="fill:none;stroke:#000000;stroke-width:0.3"
       d="m 132.99559,217.58122 c -0.48324,-0.16344 -0.94155,-0.53506 -1.44971,-0.49032 -0.6954,0.0612 -1.30166,0.50632 -1.94005,0.78878 -1.24325,0.55009 -2.1606,1.78312 -2.55832,3.04853 -0.52281,1.66342 -0.74437,3.39984 -0.72485,5.13774 0.0105,0.93533 0.19114,1.66108 0.5543,2.5369 0.77528,1.8697 3.29529,5.11929 5.69224,3.94391 1.51599,-0.74338 3.0063,-1.92972 3.96539,-3.32567 0.97697,-1.42198 0.8952,-3.82263 0.91673,-5.37225 0.021,-1.50989 0.0166,-2.51892 -0.76749,-3.90127 -0.20353,-0.35883 -0.56952,-0.60865 -0.91673,-0.83142 -2.54624,-1.63365 -2.05518,-1.37921 -4.24254,-1.8547"
       id="path27" />
    <path
       style="fill:none;stroke:#000000;stroke-width:0.3"
       d="m 154.97576,219.86229 c -2.00934,-0.35198 -2.759,-0.92295 -4.47705,-0.064 -1.4169,0.70841 -2.24297,4.43091 -2.30248,5.75597 -0.1104,2.45815 -0.31321,5.18539 1.91874,6.88586 2.61078,1.98908 8.05766,-1.01825 8.89013,-3.70941 0.80007,-2.58643 -2.18678,-4.66726 -3.85879,-5.73466 -0.33805,-0.21581 -1.94392,-1.01621 -2.53699,-0.93801 -0.32264,0.0425 -0.55431,0.3411 -0.83146,0.51165"
       id="path28" />
    <path
       style="fill:#808080;stroke:#808080;stroke-width:0.3"
       d="m 122.78366,216.08893 0.46902,62.14322"
       id="path29" />
    <path
       style="fill:#808080;stroke:#808080;stroke-width:0.3"
       d="m 143.80446,218.30605 -0.34111,61.46102"
       id="path30" />
    <path
       style="fill:#808080;stroke:#808080;stroke-width:0.3"
       d="m 162.69333,220.16075 -1.36444,58.66831"
       id="path31" />
    <path
       style="fill:#808080;stroke:#808080;stroke-width:0.3"
       d="m 100.07864,270.66411 74.19106,0.59691"
       id="path32" />
    <path
       style="fill:#808080;stroke:#808080;stroke-width:0.3"
       d="M 96.539644,258.17151 175.29302,256.4234"
       id="path33" />
    <path
       style="fill:#808080;stroke:#808080;stroke-width:0.3"
       d="m 96.177218,239.00624 80.565502,0.51164"
       id="path34" />
    <path
       style="fill:none;stroke:#000000;stroke-width:0.3"
       d="m 169.79264,223.87016 c -0.25583,-0.24872 -0.43587,-0.61448 -0.76748,-0.74615 -0.21787,-0.0865 -0.53957,-0.0154 -0.68223,0.17055 -0.9783,1.27558 -2.63105,3.30368 -0.42638,4.69006 0.34897,0.21944 0.74627,-0.40152 1.002,-0.72484 0.96751,-1.22323 1.20278,-2.74488 1.23653,-4.26368 0.009,-0.41009 0.0145,-0.92868 -0.29847,-1.19383 -1.13297,-0.95982 -1.21697,-0.16805 -1.38576,0.36241"
       id="path35" />
    <path
       style="fill:none;stroke:#000000;stroke-width:0.3"
       d="m 167.27698,231.01183 c -0.0355,0.90959 -0.0711,1.81918 -0.1066,2.72876"
       id="path36" />
    <path
       style="fill:none;stroke:#000000;stroke-width:0.3"
       d="m 166.74399,236.5333 c 4.34004,-3.66718 2.40786,-3.73535 4.56233,-3.58149"
       id="path37" />
    <path
       style="fill:none;stroke:#000000;stroke-width:0.3"
       d="m 171.64742,235.68057 c -0.69941,-0.88238 1.41366,-1.89131 1.85478,-0.98065 0.50434,1.04119 -0.47816,1.32803 -1.12993,1.59888 -0.18791,0.0781 -0.39923,0.0797 -0.59692,0.12792 -0.0939,0.0229 -0.35534,0.0284 -0.27717,0.0853 0.43563,0.31682 1.68511,0.0265 2.23853,0.12791 0.21028,0.0385 0.39796,0.15633 0.59694,0.2345"
       id="path38" />
    <path
       style="fill:none;stroke:#000000;stroke-width:0.3"
       d="m 133.14482,243.63235 c 0.85988,-0.19898 1.71976,-0.39795 2.57964,-0.59693"
       id="path39" />
    <path
       style="fill:none;stroke:#000000;stroke-width:0.3"
       d="m 138.06957,239.66711 c 0.25519,2.99248 0.12702,1.83636 0.3198,3.47491"
       id="path40" />
    <path
       style="fill:none;stroke:#000000;stroke-width:0.3"
       d="m 137.79243,245.18858 c 3.96029,-3.73765 2.05633,-3.63584 4.47704,-3.56017"
       id="path41" />
    <path
       style="fill:none;stroke:#000000;stroke-width:0.3"
       d="m 139.94567,245.25254 c 0.51877,0.21318 1.39767,0.10159 1.5563,0.63956 0.0693,0.23492 -2.01594,1.68824 -0.91672,0.93801 0.33708,-0.23006 0.64154,-0.51217 1.00201,-0.70352 0.49589,-0.26324 0.57956,-0.22528 0.98068,-0.19186"
       id="path42" />
    <path
       style="fill:none;stroke:#000000;stroke-width:0.3"
       d="m 125.83231,251.98917 c 0.78882,-0.23451 1.57763,-0.46901 2.36644,-0.70351"
       id="path43" />
    <path
       style="fill:none;stroke:#000000;stroke-width:0.3"
       d="m 130.11749,248.30107 c 0.34854,1.95718 0.0197,1.09653 0.87409,2.62217"
       id="path44" />
    <path
       style="fill:none;stroke:#000000;stroke-width:0.3"
       d="m 129.39264,253.56673 c 4.30476,-2.51284 2.68207,-1.88245 4.54099,-2.57953"
       id="path45" />
    <path
       style="fill:none;stroke:#000000;stroke-width:0.3"
       d="m 131.54588,253.84386 c 0.4477,0.0355 1.0961,-0.26848 1.34312,0.1066 0.35942,0.54576 -2.08405,1.17491 -0.6609,0.89537 0.23523,-0.0462 0.46662,-0.11259 0.70354,-0.14923 0.45296,-0.07 0.90962,-0.1137 1.36443,-0.17055"
       id="path46" />
    <path
       style="fill:none;stroke:#000000;stroke-width:0.3"
       d="m 152.41744,258.89633 c 0.8812,-0.29135 1.76239,-0.5827 2.64359,-0.87405"
       id="path47" />
    <path
       style="fill:none;stroke:#000000;stroke-width:0.3"
       d="m 156.53206,256.16758 c 1.13335,1.02848 1.60177,2.2927 1.96138,3.73072"
       id="path48" />
    <path
       style="fill:none;stroke:#000000;stroke-width:0.3"
       d="m 157.61935,261.00686 c 1.15834,-0.67509 2.31669,-1.35017 3.47503,-2.02526"
       id="path49" />
    <path
       style="fill:none;stroke:#000000;stroke-width:0.3"
       d="m 158.91982,260.79367 c 4.222,-2.15488 0.61464,-0.94399 1.27917,1.66284 0.11734,0.46035 0.88119,-0.35531 1.32179,-0.53296"
       id="path50" />
    <path
       style="fill:none;stroke:#000000;stroke-width:0.3"
       d="m 144.38008,267.25315 c 2.35711,-1.19118 1.24262,-0.97688 3.24052,-1.04459"
       id="path51" />
    <path
       style="fill:none;stroke:#000000;stroke-width:0.3"
       d="m 149.11296,264.58836 c -0.76332,-0.619 0.28785,4.31706 0.63957,3.26171"
       id="path52" />
    <path
       style="fill:none;stroke:#000000;stroke-width:0.3"
       d="m 147.85512,269.47028 c 1.59946,-1.23602 2.24865,-2.64201 4.41309,-2.32371"
       id="path53" />
    <path
       style="fill:none;stroke:#000000;stroke-width:0.3"
       d="m 152.26821,269.34237 c -2.15601,1.8649 0.0205,0.58229 1.06596,0.95932 0.2262,0.0816 0.39796,0.27003 0.59694,0.40505"
       id="path54" />
    <path
       style="fill:none;stroke:#000000;stroke-width:0.3"
       d="m 151.94842,275.82316 c 2.05146,-1.05341 1.00187,-0.67602 3.13393,-1.17251"
       id="path55" />
    <path
       style="fill:none;stroke:#000000;stroke-width:0.3"
       d="m 157.06504,272.0498 c 0.94534,1.68623 0.76493,0.86987 0.83146,2.36635"
       id="path56" />
    <path
       style="fill:none;stroke:#000000;stroke-width:0.3"
       d="m 156.19096,276.39876 c 0.6053,-0.30119 2.39866,-2.19563 3.13392,-1.70547 0.0953,0.0636 0.1137,0.19897 0.17056,0.29846"
       id="path57" />
    <path
       style="fill:none;stroke:#000000;stroke-width:0.3"
       d="m 157.32088,277.2515 c 2.00455,0.42747 -0.5801,1.5119 -0.25584,1.68416 0.68495,0.36385 2.33841,-0.39095 2.98471,-0.5756"
       id="path58" />
    <path
       style="fill:none;stroke:#000000;stroke-width:0.3"
       d="m 163.88722,265.1 c 1.14954,0.0656 1.92277,-0.92702 3.04864,-0.53296"
       id="path59" />
    <path
       style="fill:none;stroke:#000000;stroke-width:0.3"
       d="m 167.44752,261.53982 c 1.19519,0.41829 0.78721,0.0288 1.25784,1.40702 0.16092,0.47123 0.19206,0.6403 0.29847,1.08724"
       id="path60" />
    <path
       style="fill:none;stroke:#000000;stroke-width:0.3"
       d="m 167.10642,266.50701 c 1.30048,-0.78878 2.60095,-1.57756 3.90142,-2.36634"
       id="path61" />
    <path
       style="fill:none;stroke:#000000;stroke-width:0.3"
       d="m 168.89724,266.1446 c 3.33401,-1.76501 0.85933,-1.13535 1.79081,1.59888 0.099,0.2905 0.45481,-0.41216 0.68222,-0.61824"
       id="path62" />
    <path
       style="fill:none;stroke:#000000;stroke-width:0.3"
       d="m 167.17038,248.87667 c 0.5543,1.00908 1.10859,2.01815 1.66289,3.02723"
       id="path63" />
    <path
       style="fill:none;stroke:#000000;stroke-width:0.3"
       d="m 167.0851,253.50277 c 1.57762,-1.0446 3.15525,-2.0892 4.73288,-3.13381"
       id="path64" />
    <path
       style="fill:none;stroke:#000000;stroke-width:0.3"
       d="m 171.11443,254.16365 c 0.30558,-0.43348 0.61116,-0.86695 0.91674,-1.30043 0.0924,-0.007 0.29025,-0.11305 0.27714,-0.0213 -0.061,0.42733 -0.15835,0.89481 -0.4477,1.21515 -0.16842,0.18645 -0.97886,0.0118 -0.74618,0.1066 1.67192,0.68111 2.39933,-0.02 3.81616,0.40504"
       id="path65" />
    <path
       style="fill:none;stroke:#000000;stroke-width:0.3"
       d="m 112.91284,274.90647 c -0.47218,2.81194 0.89953,1.05696 2.51567,0.89538"
       id="path66" />
    <path
       style="fill:none;stroke:#000000;stroke-width:0.3"
       d="m 118.2853,272.58276 c 1.51076,2.39936 1.33724,1.40246 1.49234,2.64349"
       id="path67" />
    <path
       style="fill:none;stroke:#000000;stroke-width:0.3"
       d="m 116.85691,277.78446 c 1.13576,-0.70476 2.14418,-2.10247 3.539,-2.34503"
       id="path68" />
    <path
       style="fill:none;stroke:#000000;stroke-width:0.3"
       d="m 118.30661,278.70115 c 0.40507,-0.0142 0.92095,-0.32139 1.2152,-0.0426 0.3409,0.32295 -1.72137,1.96399 -0.5543,1.91866 0.64623,-0.0251 1.26894,-0.25251 1.89742,-0.40505 0.10519,-0.0255 0.19898,-0.0853 0.29847,-0.12791"
       id="path69" />
    <path
       style="fill:none;stroke:#000000;stroke-width:0.3"
       d="m 131.99358,277.12359 c 0.73907,-0.0213 1.47814,-0.0426 2.21721,-0.064"
       id="path70" />
    <path
       style="fill:none;stroke:#000000;stroke-width:0.3"
       d="m 136.79042,272.22035 c -0.10479,1.10505 -0.0141,2.11576 0.21319,3.17644"
       id="path71" />
    <path
       style="fill:none;stroke:#000000;stroke-width:0.3"
       d="m 135.51127,278.59456 c 3.46049,-2.74522 1.92867,-2.04653 4.13593,-2.89931"
       id="path72" />
    <path
       style="fill:none;stroke:#000000;stroke-width:0.3"
       d="m 136.91833,279.89498 c 0.70354,-0.40504 1.31682,-1.38523 2.11061,-1.21514 0.47448,0.10167 -1.47517,2.60618 -1.36443,2.87799 0.0461,0.11322 0.17898,0.18729 0.29847,0.21318 0.89099,0.19303 1.43453,0.0235 2.08928,-0.53297"
       id="path73" />
    <path
       style="fill:none;stroke:#000000;stroke-width:0.3"
       d="m 180.43096,218.2421 c 0.85781,1.71591 1.78023,2.91018 2.40907,4.79664 0.16967,0.50901 0.23474,1.0478 0.31979,1.57756 0.25027,1.55873 0.57114,4.02145 0.68223,5.64938 0.1473,2.15863 0.28397,4.31859 0.36242,6.48081 0.0353,0.97293 -0.0181,1.94706 -0.0213,2.92062 -0.009,2.66368 0.022,5.31439 0.19188,7.9731 0.11135,1.74214 0.28796,3.47994 0.38373,5.22301 0.1135,2.0656 0.15116,4.1367 0.23452,6.20366 0.1009,2.50218 0.26415,4.9804 0.064,7.48277 -0.17989,2.24861 -0.94188,4.3926 -1.49233,6.56608 -0.53261,2.10302 -0.8856,4.23635 -1.44972,6.33157 -0.13139,0.488 -0.43422,1.86247 -1.04465,2.02525 -0.49729,0.1326 -0.98069,-0.31267 -1.47103,-0.469"
       id="path74" />
    <path
       style="fill:none;stroke:#000000;stroke-width:0.3"
       d="m 32.688434,209.67209 c -0.149235,1.16541 -0.298471,2.33082 -0.447706,3.49622"
       id="path75" />
    <path
       style="fill:none;stroke:#000000;stroke-width:0.3"
       d="m 42.793766,211.22834 c 0.291364,-0.15634 0.623311,-0.68452 0.874093,-0.46902 0.433113,0.37219 0.50082,1.07056 0.490342,1.64152 -0.0054,0.29455 -1.64927,1.47833 -1.215199,1.47098 1.131972,-0.0192 2.576642,-0.67358 3.666913,-0.27715"
       id="path76" />
    <path
       style="fill:none;stroke:#000000;stroke-width:0.3"
       d="m 59.277476,188.49794 c 1.109245,0.75892 1.043834,0.38402 0.788816,2.15316 -0.03954,0.27431 -0.193554,0.52074 -0.319792,0.76746 -0.03204,0.0626 -0.213894,0.17695 -0.149233,0.14924 0.575435,-0.24661 0.0087,-0.20059 0.639575,-0.38374 0.664385,-0.19288 0.505629,1.0841 0.277151,1.44966 -0.175741,0.28117 -0.257365,0.0897 -0.511662,0.31977 -0.256643,0.23219 -0.243446,0.64862 -0.341106,0.98065"
       id="path77" />
    <path
       style="fill:none;stroke:#000000;stroke-width:0.3"
       d="m 60.126334,202.31723 c 0.187608,-2.46563 -0.117914,-1.36254 0.76749,-3.34699 -0.383745,0.36952 -0.726503,0.78699 -1.151236,1.10856 -0.09083,0.0688 -0.227407,0.0284 -0.341111,0.0213 -0.994347,-0.0622 -0.408859,-1.35443 -0.639576,-2.04656"
       id="path78" />
    <path
       style="fill:none;stroke:#000000;stroke-width:0.3"
       d="m 74.452881,200.63307 c -0.504555,0.064 -1.006795,0.15007 -1.513668,0.19187 -0.296272,0.0244 -1.076947,-0.21463 -1.321792,-0.064 -0.130125,0.0801 -0.405717,1.59291 -0.469032,1.81207 -0.06653,0.2303 -0.387768,0.67966 -0.149236,0.70351 0.654069,0.0654 1.367491,-0.78258 1.407073,0.40505 0.02638,0.79162 -0.688512,0.85589 -1.236512,1.12988"
       id="path79" />
    <path
       style="fill:none;stroke:#000000;stroke-width:0.3"
       d="m 61.703957,212.08107 c -0.206086,0.41926 -0.534683,0.79814 -0.618257,1.25778 -0.106852,0.58767 -0.07355,1.2095 0.06395,1.79076 0.162113,0.68526 1.863143,-0.37581 1.769499,-0.72483 -0.125833,-0.46901 -1.894229,-0.49764 -2.110605,-0.25583 -0.157014,0.17548 -0.04264,0.46901 -0.06396,0.70351"
       id="path80" />
    <path
       style="fill:none;stroke:#000000;stroke-width:0.3"
       d="m 53.325487,210.07714 c 0.653791,0.0995 1.302033,0.24735 1.961369,0.29845 0.375394,0.0291 1.247693,-0.18108 1.598949,-0.25582 0.06408,-0.0136 0.141539,-0.0846 0.19187,-0.0426 0.04126,0.0344 -0.169587,0.28995 -0.426386,0.66087 -0.20083,0.29008 -0.424463,0.56627 -0.596935,0.87406 -0.290517,0.51844 -0.553635,1.0531 -0.788818,1.59887 -0.334518,0.7763 -0.407029,2.21844 -1.172556,2.72877 -0.351595,0.23438 -0.886381,0.29339 -1.300475,0.36241"
       id="path81" />
    <path
       style="fill:none;stroke:#000000;stroke-width:0.3"
       d="m 98.223863,229.69009 c 2.760007,0.83094 1.336185,0.83859 4.263847,-0.25582"
       id="path82" />
    <path
       style="fill:none;stroke:#000000;stroke-width:0.3"
       d="m 109.73627,217.49595 c 1.34219,-0.11931 0.65662,0.0216 2.04664,-0.46901"
       id="path83" />
  </g>
</svg>
