<?xml version="1.0" encoding="UTF-8" standalone="no"?>
<!-- Created with Inkscape (http://www.inkscape.org/) -->

<svg
   width="240mm"
   height="120mm"
   viewBox="0 0 240 120"
   version="1.1"
   id="svg8"
   inkscape:version="1.3.2 (091e20ef0f, 2023-11-25, custom)"
   sodipodi:docname="resaux.svg"
   xmlns:inkscape="http://www.inkscape.org/namespaces/inkscape"
   xmlns:sodipodi="http://sodipodi.sourceforge.net/DTD/sodipodi-0.dtd"
   xmlns="http://www.w3.org/2000/svg"
   xmlns:svg="http://www.w3.org/2000/svg"
   xmlns:rdf="http://www.w3.org/1999/02/22-rdf-syntax-ns#"
   xmlns:cc="http://creativecommons.org/ns#"
   xmlns:dc="http://purl.org/dc/elements/1.1/">
  <defs
     id="defs2" />
  <sodipodi:namedview
     id="base"
     pagecolor="#ffffff"
     bordercolor="#666666"
     borderopacity="1.0"
     inkscape:pageopacity="0.0"
     inkscape:pageshadow="2"
     inkscape:zoom="3.6403176"
     inkscape:cx="444.74141"
     inkscape:cy="148.3387"
     inkscape:document-units="mm"
     inkscape:current-layer="layer1"
     showgrid="false"
     showborder="true"
     width="200mm"
     showguides="true"
     inkscape:guide-bbox="true"
     inkscape:window-width="1920"
     inkscape:window-height="1200"
     inkscape:window-x="0"
     inkscape:window-y="0"
     inkscape:window-maximized="1"
     inkscape:showpageshadow="2"
     inkscape:pagecheckerboard="0"
     inkscape:deskcolor="#d1d1d1">
    <inkscape:grid
       type="xygrid"
       id="grid815"
       units="mm"
       spacingx="10"
       spacingy="10"
       empspacing="4"
       dotted="false"
       originx="0"
       originy="0"
       visible="false" />
  </sodipodi:namedview>
  <metadata
     id="metadata5">
    <rdf:RDF>
      <cc:Work
         rdf:about="">
        <dc:format>image/svg+xml</dc:format>
        <dc:type
           rdf:resource="http://purl.org/dc/dcmitype/StillImage" />
        <dc:title />
      </cc:Work>
    </rdf:RDF>
  </metadata>
  <g
     inkscape:label="Layer 1"
     inkscape:groupmode="layer"
     id="layer1"
     transform="translate(0,-177)">
    <path
       style="fill:#000000;stroke:#000000;stroke-width:0.3"
       d="M 29.820893,196.62468 H 199.58477"
       id="path1" />
    <ellipse
       style="fill:none;stroke:#000000;stroke-width:0.3"
       id="path2"
       cx="114.70284"
       cy="196.62468"
       rx="1.6976354"
       ry="1.6438509" />
    <ellipse
       style="fill:none;stroke:#000000;stroke-width:0.3"
       id="path2-3"
       cx="97.739632"
       cy="196.62468"
       rx="1.6976354"
       ry="1.6438509" />
    <ellipse
       style="fill:#ff6600;stroke:none;stroke-width:0.3"
       id="path2-3-6"
       cx="106.22124"
       cy="196.62468"
       rx="1.6976354"
       ry="1.6438509" />
    <ellipse
       style="fill:#ff6600;stroke:none;stroke-width:0.199646"
       id="path2-3-6-3"
       cx="115.07098"
       cy="196.90446"
       rx="1.1389185"
       ry="1.0851548" />
    <ellipse
       style="fill:#ff6600;stroke:none;stroke-width:0.199646"
       id="path2-3-6-3-5"
       cx="133.69789"
       cy="196.99438"
       rx="1.1389185"
       ry="1.0851548" />
    <ellipse
       style="fill:#ff6600;stroke:none;stroke-width:0.199646"
       id="path2-3-6-3-6"
       cx="98.001762"
       cy="197.97263"
       rx="1.1389185"
       ry="1.0851548" />
    <ellipse
       style="fill:none;stroke:#000000;stroke-width:0.3"
       id="path2-7"
       cx="133.71957"
       cy="196.62468"
       rx="1.6976354"
       ry="1.6438509" />
    <ellipse
       style="fill:#ff6600;stroke:none;stroke-width:0.3"
       id="path2-3-6-5"
       cx="125.23798"
       cy="196.62468"
       rx="1.6976354"
       ry="1.6438509" />
    <text
       xml:space="preserve"
       style="font-size:3.175px;fill:#ff6600;stroke:#ff6600;stroke-width:0.3"
       x="99.603409"
       y="183.50945"
       id="text2"><tspan
         sodipodi:role="line"
         id="tspan2"
         style="stroke-width:0.3;fill:#ff6600;stroke:#ff6600"
         x="99.603409"
         y="183.50945">$\Lambda_w$</tspan></text>
    <text
       xml:space="preserve"
       style="font-size:3.175px;fill:none;stroke:#000000;stroke-width:0.3"
       x="99.587265"
       y="188.30894"
       id="text3"><tspan
         sodipodi:role="line"
         id="tspan3"
         style="stroke-width:0.3;stroke:#000000;fill:none"
         x="99.587265"
         y="188.30894">$\Lambda_R$</tspan><tspan
         sodipodi:role="line"
         style="stroke-width:0.3;stroke:#000000;fill:none"
         x="99.587265"
         y="192.27769"
         id="tspan4" /></text>
    <path
       style="fill:#000000;stroke:none;stroke-width:0.3"
       d="m 142.18738,199.63303 c 0.93179,-0.41411 0.65684,-0.6007 0.98851,0.12893"
       id="path4" />
    <path
       style="fill:#000000;stroke:none;stroke-width:0.3"
       d="m 148.22582,199.91238 c 1.03117,-0.49494 0.78474,-0.53748 1.65467,-0.55869 0.10051,-0.002 0.20132,0.007 0.30085,0.0215 0.14553,0.0208 0.15213,0.0854 0.27935,0.043"
       id="path5" />
    <path
       style="fill:#000000;stroke:none;stroke-width:0.3"
       d="m 154.7585,199.93387 c 0.0315,1.88049 1.323,-1.62099 2.06295,-1.28929 0.2333,0.10458 0.29597,0.39365 0.36532,0.60167"
       id="path6" />
    <path
       style="fill:#000000;stroke:none;stroke-width:0.3"
       d="m 85.176803,199.48262 c -0.652274,0.0202 -1.084685,0.13313 -1.654656,0.40827 -0.06086,0.0294 -0.129701,0.0547 -0.171918,0.10745 -0.01791,0.0224 0.05731,0 0.08596,0"
       id="path7" />
    <path
       style="fill:#000000;stroke:none;stroke-width:0.3"
       d="m 76.624142,200.60001 c -0.100282,0.22921 -0.530058,0.58734 -0.30085,0.68762 0.229209,0.10029 0.348943,-0.4421 0.30085,-0.68762 -0.100375,-0.51241 -0.47276,-0.93116 -0.709142,-1.39674"
       id="path8" />
    <path
       style="fill:#000000;stroke:none;stroke-width:0.3"
       d="m 67.577236,202.23312 c -0.599741,-1.19944 -0.411609,-0.61993 -0.66616,-2.0199 -0.08504,-0.46772 -0.0754,-0.421 -0.107444,-0.77358"
       id="path9" />
    <path
       style="fill:#000000;stroke:#000000;stroke-width:0.3"
       d="m 73.508225,252.58008 1.332331,0.10745 H 181.70583"
       id="path10" />
    <path
       style="fill:#000000;stroke:#000000;stroke-width:0.3"
       d="m 73.508225,242.53011 1.332331,0.10745 H 181.70583"
       id="path10-2" />
    <path
       style="fill:#000000;stroke:#000000;stroke-width:0.3"
       d="m 73.50823,262.63005 1.33233,0.10745 h 106.86527"
       id="path10-2-9" />
    <path
       style="fill:#000000;stroke:#000000;stroke-width:0.3"
       d="m 95.939875,204.69324 0.63246,1.17755 57.969895,89.77571"
       id="path10-6" />
    <path
       style="fill:#000000;stroke:#000000;stroke-width:0.3"
       d="m 104.38269,199.24155 0.63246,1.17756 57.96989,89.77571"
       id="path10-2-1" />
    <path
       style="fill:#000000;stroke:#000000;stroke-width:0.3"
       d="m 87.497065,210.14493 0.63246,1.17755 57.969895,89.77571"
       id="path10-2-9-8" />
    <path
       style="fill:#000000;stroke:#000000;stroke-width:0.3"
       d="m 93.726892,296.3361 0.88836,-0.99873 64.375098,-85.29968"
       id="path10-7" />
    <path
       style="fill:#000000;stroke:#000000;stroke-width:0.3"
       d="m 85.705022,290.28205 0.88835,-0.99874 64.375108,-85.29967"
       id="path10-2-92" />
    <path
       style="fill:#000000;stroke:#000000;stroke-width:0.3"
       d="m 101.74876,302.39014 0.88835,-0.99874 64.37511,-85.29966"
       id="path10-2-9-0" />
    <path
       style="fill:none;stroke:#ff6600;stroke-width:0.3"
       d="m 127.0576,251.0654 c -0.11824,-0.21158 -0.13116,-0.24628 -0.25157,-0.42689 -0.15291,-0.25164 -0.33927,-0.48017 -0.50315,-0.7242 -0.1556,-0.2317 -0.30728,-0.46604 -0.4574,-0.70132 -0.25654,-0.40207 -0.40622,-0.68065 -0.68611,-1.06724 -0.29043,-0.40114 -0.96974,-1.31167 -1.36459,-1.77619 -0.0885,-0.10408 -0.18476,-0.20143 -0.28207,-0.2973 -0.25058,-0.24689 -0.26552,-0.19953 -0.49552,-0.50313 -0.0783,-0.10332 -0.21346,-0.40871 -0.26682,-0.50312 -0.0461,-0.0816 -0.10544,-0.15523 -0.15247,-0.23632 -0.0268,-0.0462 -0.0447,-0.0971 -0.0686,-0.14484 -0.0422,-0.0844 -0.0524,-0.0938 -0.10673,-0.17533 -0.0154,-0.0231 -0.0211,-0.0349 -0.0457,-0.0534 -0.009,-0.007 -0.0212,-0.009 -0.0305,-0.0152 -0.0391,-0.028 -0.0211,-0.0396 -0.0762,-0.0534"
       id="path14" />
    <path
       style="fill:none;stroke:#ff6600;stroke-width:0.3"
       d="m 121.77457,245.9884 c 0.20095,-0.54374 0.12557,-0.23949 0.17534,-0.991 0.0558,-0.84229 0.002,-0.20277 0.0838,-1.19683 0.0175,-0.21149 0.0267,-0.33641 0.061,-0.53362 0.008,-0.0486 0.005,-0.10231 0.0305,-0.14484 0.008,-0.0139 0.0324,0.006 0.0457,0.0152 0.0255,0.017 0.0435,0.0435 0.0686,0.061 0.13347,0.0928 0.14387,0.0657 0.33543,0.10672 0.0663,0.0142 0.1334,0.0258 0.1982,0.0457 0.20252,0.0623 0.28669,0.0976 0.45741,0.18295 0.0386,0.0193 0.0796,0.0354 0.11435,0.061 0.0522,0.0384 0.099,0.0838 0.14485,0.1296 0.0255,0.0255 0.0602,0.0487 0.0686,0.0838 0.006,0.0266 -0.0203,0.0508 -0.0305,0.0762"
       id="path15" />
    <path
       style="fill:none;stroke:#ff6600;stroke-width:0.3"
       d="m 125.11363,243.16785 c -0.0178,0.0839 -0.0423,0.16656 -0.0534,0.25156 -0.0118,0.0908 -0.008,0.1831 -0.0152,0.27443 -0.0305,0.35829 -0.061,0.71658 -0.0915,1.07486 -0.0152,0.12197 -0.0337,0.24359 -0.0457,0.36592 -0.008,0.0836 -0.0106,0.16768 -0.0152,0.25156 -5.3e-4,0.008 -0.007,0.026 0,0.0229 0.0315,-0.0143 0.0523,-0.047 0.0839,-0.061 0.0383,-0.017 0.081,-0.0218 0.12197,-0.0305 0.30454,-0.0644 0.21167,-0.0306 0.47265,-0.10672 0.0563,-0.0164 0.11193,-0.0352 0.16772,-0.0534 0.10238,-0.0333 0.18369,-0.0686 0.28969,-0.0686"
       id="path16" />
    <path
       style="fill:none;stroke:#ff6600;stroke-width:0.3"
       d="m 126.76029,244.74583 c -0.5384,0.74283 0.51852,-0.46796 0.54888,-0.2668 0.0215,0.14213 -0.008,0.29343 -0.061,0.42689 -0.0513,0.12836 -0.1636,0.22292 -0.24395,0.33542 -0.0848,0.11874 -0.19436,0.22404 -0.25158,0.35828 -0.0156,0.0366 0.0167,0.0912 0.0534,0.10673 0.0775,0.0329 0.1678,0.0314 0.25157,0.0229 1.20607,-0.12213 0.59906,-0.20382 1.13589,-0.11435"
       id="path17" />
    <path
       style="fill:none;stroke:#ff6600;stroke-width:0.3"
       d="m 127.40065,253.64964 c 0.12198,0.0229 0.24428,0.0441 0.36593,0.0686 0.16806,0.0339 0.33414,0.0779 0.50315,0.10673 0.15908,0.0271 0.31954,0.0466 0.48027,0.061 0.67859,0.0607 0.88639,0.0609 1.51707,0.0839 0.74973,0.0273 1.50132,0.048 2.2489,0.11434 0.32314,0.0287 0.64529,0.0677 0.96818,0.0991 0.20059,0.0195 0.40182,0.0323 0.60225,0.0534 0.64412,0.0678 0.59473,0.10093 1.31885,0.11434 0.15771,0.003 0.3151,-0.0154 0.47265,-0.0229 0.32272,-0.0154 0.64515,-0.0398 0.96818,-0.0457 0.21005,-0.004 0.31795,0.0509 0.52601,0.0305 0.048,-0.005 0.0936,-0.0252 0.13723,-0.0457 0.0813,-0.0382 0.15535,-0.0907 0.23632,-0.1296 0.0981,-0.0471 0.18156,-0.0656 0.28208,-0.0991 0.10451,-0.0348 0.10986,-0.0305 0.0457,-0.0305"
       id="path18" />
    <path
       style="fill:none;stroke:#ff6600;stroke-width:0.3"
       d="m 137.66941,253.64202 c 0.27613,-0.0673 0.39694,-0.11216 0.69373,-0.11435 0.33478,-0.002 0.66905,-0.0253 0.96818,0.14484 0.0547,0.0311 0.13573,0.0746 0.12959,0.13722 -0.01,0.1003 -0.0913,0.18589 -0.16771,0.25156 -0.10878,0.0935 -0.24356,0.15286 -0.37355,0.21345 -0.20871,0.0973 -0.42643,0.17398 -0.64037,0.25919 -0.0859,0.0342 -0.17618,0.0583 -0.25919,0.0991 -0.12055,0.0593 -0.18032,0.11356 -0.27445,0.19058"
       id="path19" />
    <path
       style="fill:none;stroke:#ff6600;stroke-width:0.3"
       d="m 137.96673,255.89847 c -0.008,0.13213 -0.0129,0.26442 -0.0229,0.3964 -0.008,0.10438 -0.0146,0.20909 -0.0305,0.31255 -0.0197,0.12806 -0.0508,0.2541 -0.0762,0.38115 -0.0381,0.19058 -0.0832,0.37989 -0.11436,0.57174 -0.007,0.0414 -0.0439,0.35969 -0.008,0.44214 0.01,0.0221 0.0446,0.0206 0.0686,0.0229 0.11909,0.0113 0.19336,-0.0601 0.30493,-0.10672 0.0675,-0.0282 0.1347,-0.0591 0.20584,-0.0762 0.20064,-0.0482 0.49748,-0.0823 0.70898,-0.10672 0.006,-5.3e-4 0.53399,-0.0571 0.54888,-0.061 0.043,-0.0112 0.0762,-0.0457 0.11435,-0.0686"
       id="path20" />
    <path
       style="fill:none;stroke:#ff6600;stroke-width:0.3"
       d="m 140.36811,257.45358 c 0,0.81839 0.006,0.3406 -0.0305,1.43315"
       id="path21" />
    <path
       style="fill:none;stroke:#ff6600;stroke-width:0.3"
       d="m 127.16433,254.27474 c -0.21572,0.43436 -0.49977,0.82404 -0.77759,1.2197 -0.28665,0.40825 -0.43793,0.61354 -0.72423,1.02913 -0.19192,0.27859 -0.36721,0.56906 -0.57175,0.83854 -0.33207,0.4375 -0.67684,0.86581 -1.03679,1.28068 -0.12369,0.14257 -0.27687,0.25666 -0.41166,0.38878 -0.12192,0.1195 -0.24597,0.23738 -0.3583,0.36591 -0.29372,0.33607 -0.42199,0.5043 -0.63275,0.84617 -0.0508,0.0824 -0.0966,0.16768 -0.14484,0.25156 -0.0102,0.0178 -0.0179,0.0372 -0.0305,0.0534 -0.006,0.007 -0.0152,0.0102 -0.0229,0.0152 -0.0152,0.0229 -0.0322,0.0447 -0.0457,0.0686 -0.0743,0.13107 -0.0885,0.17335 -0.15247,0.30493 -0.0199,0.0409 -0.0376,0.083 -0.061,0.12197 -0.0149,0.0248 -0.0346,0.0465 -0.0534,0.0686 -0.009,0.011 -0.0305,0.0449 -0.0305,0.0305 0,-0.0346 0.0203,-0.0661 0.0305,-0.0991"
       id="path22" />
    <path
       style="fill:none;stroke:#ff6600;stroke-width:0.3"
       d="m 121.97278,260.49521 c -0.0737,0.11435 -0.15778,0.22263 -0.22108,0.34304 -0.0415,0.079 -0.0595,0.16826 -0.0915,0.25156 -0.0519,0.13525 -0.10233,0.27118 -0.16009,0.40403 -0.044,0.10109 -0.0991,0.19702 -0.14485,0.2973 -0.0184,0.0403 -0.0299,0.0913 0.0229,0.12197 0.12088,0.0703 0.24337,0.15143 0.38117,0.17534 0.12111,0.021 0.24579,-0.0197 0.36592,-0.0457 0.37324,-0.0809 0.72841,-0.34722 0.99105,-0.60985"
       id="path23" />
    <path
       style="fill:none;stroke:#ff6600;stroke-width:0.3"
       d="m 126.0132,258.19303 c -0.0643,0.3805 -0.18359,0.7483 -0.28207,1.1206 -0.0671,0.25382 -0.136,0.50723 -0.19821,0.76231 -0.014,0.0576 -0.0403,0.11682 -0.0305,0.17533 0.003,0.0202 0.0412,0.0128 0.061,0.008 0.30276,-0.0797 0.14719,-0.0998 0.45741,-0.12197 0.13689,-0.01 0.27442,-0.009 0.41166,-0.008 0.14747,10e-4 0.2947,0.0131 0.44216,0.0152 0.0281,5.3e-4 0.0673,0.015 0.0839,-0.008 0.021,-0.0287 0,-0.0711 0,-0.10672"
       id="path24" />
    <path
       style="fill:none;stroke:#ff6600;stroke-width:0.3"
       d="m 128.21636,259.16116 c 0.0966,0 0.21111,-0.0561 0.28969,0 0.10645,0.076 0.17942,0.21271 0.19059,0.34305 0.007,0.0795 -0.0851,0.13767 -0.14485,0.19057 -0.0325,0.0288 -0.081,0.0314 -0.12197,0.0457 -0.01,0.003 -0.0403,0.0112 -0.0305,0.008 0.18264,-0.067 0.65333,-0.27381 0.79283,0 0.0412,0.0808 -0.014,0.18508 -0.0534,0.26681 -0.0593,0.12325 -0.14124,0.2371 -0.23632,0.33542 -0.18404,0.1903 -0.34111,0.35427 -0.587,0.41165 -0.0247,0.006 -0.0508,0 -0.0762,0"
       id="path25" />
    <path
       style="fill:none;stroke:#000000;stroke-width:0.3"
       d="m 127.21007,253.90121 c -0.0254,0.12197 -0.063,0.24202 -0.0762,0.36591 -0.0149,0.13899 -0.004,0.27953 -0.008,0.41927 -0.0212,0.8848 -0.0343,1.06594 -0.0381,1.82955 -0.009,1.73282 0.0156,3.4677 -0.0762,5.19897 -0.031,0.58379 -0.0504,0.67407 -0.10673,1.36454 -0.0519,0.63683 -0.0245,0.46846 -0.0991,1.16634 -0.0125,0.11721 -0.0295,0.23391 -0.0457,0.35066 -0.0142,0.1018 -0.0371,0.20251 -0.0457,0.30493 -0.0194,0.23077 -0.0272,0.46238 -0.0381,0.6937 -0.009,0.19813 -0.009,0.39676 -0.0229,0.59461 -0.0142,0.19859 -0.0518,0.1019 -0.0381,0.2973 0.014,0.19933 0.0609,0.39537 0.0762,0.5946 0.008,0.10618 0,0.22016 0,0.3278 0,0.0498 -0.004,0.0211 0.0229,0.0839 0.008,0.0178 0.0414,0.0477 0.0229,0.0534 -0.0395,0.0122 -0.0813,-0.0152 -0.12198,-0.0229"
       id="path26" />
    <path
       style="fill:none;stroke:#000000;stroke-width:0.3"
       d="m 125.82261,267.09684 c -0.0457,0.16008 -0.11057,0.31591 -0.13723,0.48025 -0.0195,0.1204 -0.0101,0.24437 0,0.36592 0.0382,0.45873 0.10433,0.99994 0.56414,1.23494 0.10461,0.0535 0.24147,0.009 0.32781,-0.0534 0.0868,-0.0628 0.2974,-0.37152 0.33542,-0.44214 0.27298,-0.50694 0.23027,-0.48549 0.39642,-0.99101 0.22435,-0.68257 0.0632,-0.47366 0.34306,-0.76993"
       id="path27" />
    <path
       style="fill:none;stroke:#000000;stroke-width:0.3"
       d="m 125.1365,253.02455 c -0.17788,0.0966 -0.35576,0.19312 -0.53364,0.28967 -0.0889,0.0635 -0.1729,0.13468 -0.26682,0.19059 -0.12012,0.0715 -0.24592,0.13356 -0.37355,0.19057 -0.25379,0.11336 -0.51381,0.21225 -0.76996,0.32018 -0.5532,0.23308 -0.91916,0.39287 -1.48657,0.67083 -0.20619,0.10101 -0.40656,0.2135 -0.60988,0.32017 -0.20834,0.10932 -0.41556,0.22081 -0.62512,0.3278 -0.51215,0.26147 -1.02705,0.51751 -1.53993,0.77755 -0.20881,0.10587 -0.41572,0.21548 -0.62512,0.32018 -0.32761,0.16379 -1.12264,0.5654 -1.53993,0.73181 -0.81996,0.327 -0.46267,0.16393 -1.05966,0.35829 -0.80765,0.26295 0.31226,-0.0754 -0.70135,0.25156 -0.10033,0.0324 -0.20324,0.0561 -0.30494,0.0839 -0.17782,0.0485 -0.35718,0.0916 -0.53364,0.14484 -0.3704,0.11175 -0.72282,0.27669 -1.0749,0.43452 -0.29001,0.13 -0.30432,0.13651 -0.62513,0.30492 -0.0795,0.0418 -0.16079,0.0809 -0.23632,0.12959 -0.22292,0.14357 -0.31608,0.25298 -0.49552,0.47264 -0.0589,0.0721 -0.10631,0.15276 -0.16009,0.22869 -0.1273,0.17971 -0.21435,0.33065 -0.37355,0.47264 -0.11438,0.102 -0.20989,0.13543 -0.35068,0.20582 -0.0356,0.0178 -0.0734,0.0317 -0.10673,0.0534 -0.0266,0.0173 -0.11888,0.13323 -0.12197,0.13722 -0.0791,0.10169 -0.15213,0.20894 -0.22871,0.31255 -0.0151,0.0204 -0.029,0.0419 -0.0457,0.061 -0.0848,0.097 -0.2077,0.1706 -0.30494,0.24394 -0.0637,0.0481 -0.12751,0.096 -0.19058,0.14484 -0.0386,0.0299 -0.0742,0.0638 -0.11435,0.0915 -0.1022,0.0705 -0.20964,0.11678 -0.33543,0.10672 -0.0333,-0.003 -0.0659,-0.0111 -0.0991,-0.0152 -0.008,-10e-4 -0.0206,-0.007 -0.0229,0 -0.0373,0.11666 -0.0378,0.18591 -0.0457,0.2973"
       id="path28" />
    <path
       style="fill:none;stroke:#000000;stroke-width:0.3"
       d="m 109.16542,260.66292 c -0.11181,0.0966 -0.23544,0.18092 -0.33543,0.28968 -0.0469,0.0511 -0.0657,0.12218 -0.0991,0.18295 -0.0862,0.15679 -0.18097,0.30169 -0.23632,0.47263 -0.0644,0.19891 -0.11601,0.40175 -0.17534,0.60223 -0.0144,0.0485 -0.0302,0.0966 -0.0457,0.14484 -0.007,0.0229 -0.0379,0.0498 -0.0229,0.0686 0.0175,0.0219 0.0558,0.008 0.0839,0.008 0.0483,0 0.0967,-0.003 0.14484,-0.008 0.12468,-0.011 0.249,-0.0258 0.37355,-0.0381 0.36117,-0.0357 0.37221,-0.0348 0.77759,-0.0686"
       id="path29" />
    <path
       style="fill:none;stroke:#000000;stroke-width:0.3"
       d="m 126.96612,251.32459 c -0.033,-0.20074 -0.0743,-0.4003 -0.0991,-0.60222 -0.0336,-0.27355 -0.0532,-0.54866 -0.0762,-0.8233 -0.0373,-0.4449 -0.0651,-0.86388 -0.0686,-1.31118 -0.008,-0.9997 0.0362,-1.98746 -0.008,-2.98827 -0.008,-0.18992 -0.0564,-0.37599 -0.0838,-0.56411 -0.0259,-0.17779 -0.0595,-0.35472 -0.0762,-0.53362 -0.0486,-0.52042 -0.061,-0.92501 -0.061,-1.43314 0,-0.24396 -0.006,-0.48823 0.008,-0.73182 0.0101,-0.18438 0.0778,-0.5334 0.1296,-0.71658 0.073,-0.25833 0.17312,-0.50902 0.23633,-0.76993 0.11597,-0.47875 0.0443,-0.97115 0.061,-1.45602 0.009,-0.26192 0.0358,-0.2417 0.061,-0.51075 0.007,-0.0734 0.008,-0.14733 0.008,-0.22107 0,-0.0357 -0.003,-0.0713 -0.008,-0.10672 -10e-4,-0.008 -0.005,-0.0151 -0.008,-0.0229 -0.003,-0.0101 -0.005,-0.0407 -0.008,-0.0305 -0.005,0.0197 0,0.0407 0,0.061 0,0.0203 0,0.0406 0,0.061"
       id="path30" />
    <path
       style="fill:none;stroke:#000000;stroke-width:0.3"
       d="m 126.22665,238.31192 c 0.29791,-0.33671 0.64022,-0.63104 0.93768,-0.96814 0.0504,-0.0572 0.0926,-0.12112 0.13722,-0.18295 0.0152,-0.0211 0.13181,-0.21694 0.19059,-0.2287 0.0357,-0.007 0.0757,0.0178 0.0991,0.0457 0.0837,0.1 0.15322,0.21215 0.21346,0.32779 0.0674,0.12933 0.11171,0.26939 0.16771,0.40403 0.0634,0.1525 0.11633,0.30985 0.19059,0.45739 0.11918,0.23677 0.25919,0.46247 0.38879,0.6937"
       id="path31" />
    <path
       style="fill:none;stroke:#000000;stroke-width:0.3"
       d="m 125.44906,251.77436 c -0.13976,-0.061 -0.28814,-0.10516 -0.41929,-0.18296 -0.17048,-0.10113 -0.30648,-0.25532 -0.48027,-0.35066 -0.19487,-0.1069 -0.41006,-0.17178 -0.6175,-0.25156 -0.62439,-0.24014 -0.90735,-0.29033 -1.58567,-0.61748 -0.46289,-0.22325 -0.91935,-0.4624 -1.35697,-0.73182 -0.29503,-0.18162 -1.07111,-0.78764 -1.41034,-1.06724 -0.2463,-0.203 -0.48652,-0.41329 -0.73185,-0.61747 -0.34134,-0.28409 -0.62353,-0.5347 -1.02154,-0.73945 -0.25606,-0.13172 -0.52436,-0.23891 -0.79283,-0.34303 -1.48957,-0.57775 0.78902,0.40857 -1.08253,-0.37354 -1.08604,-0.45385 0.25519,0.0517 -0.78521,-0.38878 -0.15174,-0.0642 -0.30819,-0.11717 -0.46503,-0.1677 -0.0722,-0.0233 -0.14705,-0.037 -0.22108,-0.0534 -0.27697,-0.0611 -0.4373,-0.0734 -0.7166,-0.19057 -0.1029,-0.0432 -0.19711,-0.10544 -0.28969,-0.16771 -0.24181,-0.16267 -0.0177,-0.0683 -0.25158,-0.19821 -0.0458,-0.0255 -0.16408,-0.0505 -0.20583,-0.061 -0.061,-0.0152 -0.12311,-0.0265 -0.18296,-0.0457 -0.14949,-0.048 -0.29796,-0.11202 -0.44216,-0.17533 -0.0687,-0.0302 -0.13868,-0.0579 -0.20583,-0.0915 -0.18826,-0.0941 -0.0992,-0.0746 -0.28969,-0.16008 -0.0822,-0.0369 -0.25496,-0.097 -0.35068,-0.14484 -0.0519,-0.0259 -0.10014,-0.0588 -0.15247,-0.0839 -0.0647,-0.031 -0.13252,-0.055 -0.19821,-0.0839 -0.0385,-0.0169 -0.0761,-0.036 -0.11435,-0.0534 -0.0176,-0.008 -0.0357,-0.0149 -0.0534,-0.0229 -0.0104,-0.005 -0.0407,-0.0102 -0.0305,-0.0152 0.0228,-0.0114 0.0508,-0.005 0.0762,-0.008"
       id="path32" />
    <path
       style="fill:none;stroke:#000000;stroke-width:0.3"
       d="m 111.04841,245.592 c -0.0229,-0.0864 -0.0306,-0.17832 -0.0686,-0.25919 -0.16689,-0.35462 -0.41039,-0.68125 -0.62513,-1.00625 -0.08,-0.12114 -0.15948,-0.24271 -0.23632,-0.36591 -0.0706,-0.11315 -0.15013,-0.22188 -0.20583,-0.34304 -0.0897,-0.1951 -0.16209,-0.39809 -0.22871,-0.60223 -0.0126,-0.0387 -0.0193,-0.0829 -0.008,-0.12196 0.006,-0.0196 0.0337,-0.0249 0.0534,-0.0305 0.0345,-0.01 0.0708,-0.0138 0.10673,-0.0152 0.19499,-0.008 0.34889,-0.003 0.54126,0.0305 0.11788,0.0204 0.23459,0.0474 0.35068,0.0762 0.38458,0.0957 0.764,0.21257 1.15114,0.29731 0.72878,0.10664 0.42081,0.0404 0.93005,0.1677"
       id="path33" />
    <path
       style="fill:none;stroke:#000000;stroke-width:0.3"
       d="m 127.88855,252.33085 c 0.0772,0 0.39895,0.0111 0.48028,-0.0305 0.38844,-0.19857 0.75544,-0.43669 1.12827,-0.66321 0.78817,-0.47887 1.30683,-0.88065 2.12693,-1.44839 0.37436,-0.25916 0.74674,-0.52145 1.12827,-0.76994 0.29819,-0.19421 1.72947,-1.15389 2.47761,-1.53225 0.28703,-0.14515 0.57753,-0.28342 0.86908,-0.41927 0.19388,-0.0903 0.3963,-0.16231 0.587,-0.25919 0.28496,-0.14476 0.56719,-0.29615 0.83858,-0.46501 0.36293,-0.22582 0.67208,-0.53172 1.03678,-0.75469 0.36009,-0.22014 0.73216,-0.42044 1.1054,-0.61747 0.12777,-0.0674 0.26427,-0.11689 0.39641,-0.17533 0.19059,-0.0966 0.38426,-0.18726 0.57176,-0.28968 0.11513,-0.0629 0.22277,-0.13864 0.33543,-0.20582 0.35986,-0.21459 0.48699,-0.29835 0.83858,-0.45739 0.0976,-0.0442 0.19912,-0.0792 0.29732,-0.12197 0.08,-0.0349 0.28778,-0.11001 0.38116,-0.1982 0.0879,0.003 0.0362,-0.0693 0.061,-0.0991 0.007,-0.009 0.0305,-0.004 0.0305,-0.0152 0,-0.0114 -0.0203,-0.0102 -0.0305,-0.0152"
       id="path34" />
    <path
       style="fill:none;stroke:#000000;stroke-width:0.3"
       d="m 142.26634,242.90866 c 0.0864,-0.0178 0.17129,-0.046 0.25919,-0.0534 0.52953,-0.0446 0.91378,-0.11787 1.39509,0.0152 0.11325,0.0313 0.2249,0.0729 0.32781,0.12959 0.0259,0.0143 0.0574,0.049 0.0457,0.0762 -0.14206,0.33146 -0.469,0.88656 -0.70898,1.19683 -0.36268,0.46889 -0.27511,0.39352 -0.55651,0.58698"
       id="path35" />
    <path
       style="fill:none;stroke:#000000;stroke-width:0.3"
       d="m 128.41457,253.65727 c 0.094,0.0381 0.1907,0.0702 0.28207,0.11435 0.13004,0.0628 0.25153,0.14222 0.38117,0.20582 0.25311,0.12416 0.74224,0.32685 0.99105,0.40402 1.52555,0.47319 0.62834,0.12472 2.12693,0.57174 0.40505,0.12082 0.80441,0.26005 1.2045,0.3964 0.16666,0.0568 0.33027,0.12219 0.49553,0.18296 0.65381,0.24042 1.07663,0.38228 1.74576,0.6937 0.51011,0.23741 0.82484,0.49126 1.31123,0.79281 0.21447,0.13296 0.59645,0.33603 0.82333,0.45738 0.19547,0.10455 0.40114,0.19175 0.587,0.31255 0.32347,0.21025 0.63325,0.44148 0.93768,0.67846 0.17268,0.13442 0.45643,0.44405 0.62513,0.5946 0.13593,0.12132 0.27554,0.23871 0.41928,0.35067 0.0979,0.0762 0.20325,0.14236 0.30494,0.21345 0.16005,0.11187 0.32181,0.22132 0.48028,0.33541 0.79584,0.57299 -0.41838,-0.26929 0.76234,0.59461 0.044,0.0322 0.0984,0.0476 0.14485,0.0762 0.12271,0.0755 0.12355,0.0883 0.21345,0.15246 0.0149,0.0107 0.0314,0.019 0.0457,0.0305 0.0239,0.0191 0.0445,0.0422 0.0686,0.061 0.0217,0.0169 0.0463,0.0296 0.0686,0.0457 0.0515,0.0373 0.10148,0.0765 0.15247,0.11434 0.0277,0.0206 0.16514,0.12353 0.20583,0.14484 0.0214,0.0112 0.0552,0.0429 0.0686,0.0229 0.013,-0.0195 -0.0356,-0.0305 -0.0534,-0.0457"
       id="path36" />
    <path
       style="fill:none;stroke:#000000;stroke-width:0.3"
       d="m 142.76186,260.13692 c 0.0966,0.12451 0.18754,0.25356 0.28969,0.37353 0.0582,0.0684 0.12218,0.13235 0.19059,0.19058 0.26202,0.22307 0.37781,0.31749 0.67848,0.44215 0.10392,0.0431 0.21206,0.0757 0.32018,0.10672 0.11314,0.0325 0.22911,0.0543 0.34306,0.0838 0.0233,0.006 0.0516,0.006 0.0686,0.0229 0.009,0.009 -0.0252,0.008 -0.0381,0.008 -0.11705,-0.005 -0.23386,-0.0142 -0.35068,-0.0229 -0.38897,-0.029 -0.44724,-0.0705 -0.86907,0.0457 -0.14243,0.0392 -0.2517,0.16852 -0.39641,0.1982 -0.0474,0.01 -0.0966,-0.005 -0.14485,-0.008"
       id="path37" />
  </g>
</svg>
