<?xml version="1.0" encoding="UTF-8" standalone="no"?>
<!-- Created with Inkscape (http://www.inkscape.org/) -->

<svg
   width="240mm"
   height="120mm"
   viewBox="0 0 240 120"
   version="1.1"
   id="svg8"
   inkscape:version="1.2.1 (9c6d41e410, 2022-07-14)"
   sodipodi:docname="atlas.svg"
   xmlns:inkscape="http://www.inkscape.org/namespaces/inkscape"
   xmlns:sodipodi="http://sodipodi.sourceforge.net/DTD/sodipodi-0.dtd"
   xmlns="http://www.w3.org/2000/svg"
   xmlns:svg="http://www.w3.org/2000/svg"
   xmlns:rdf="http://www.w3.org/1999/02/22-rdf-syntax-ns#"
   xmlns:cc="http://creativecommons.org/ns#"
   xmlns:dc="http://purl.org/dc/elements/1.1/">
  <defs
     id="defs2">
    <marker
       style="overflow:visible"
       id="Arrow1"
       refX="0"
       refY="0"
       orient="auto-start-reverse"
       inkscape:stockid="Arrow1"
       markerWidth="4.0606599"
       markerHeight="6.7071061"
       viewBox="0 0 4.0606602 6.7071068"
       inkscape:isstock="true"
       inkscape:collect="always"
       preserveAspectRatio="xMidYMid">
      <path
         style="fill:none;stroke:context-stroke;stroke-width:1;stroke-linecap:butt"
         d="M 3,-3 0,0 3,3"
         id="path5057"
         transform="rotate(180,0.125,0)"
         sodipodi:nodetypes="ccc" />
    </marker>
    <inkscape:path-effect
       effect="bspline"
       id="path-effect1502"
       is_visible="true"
       lpeversion="1"
       weight="33.333333"
       steps="2"
       helper_size="0"
       apply_no_weight="true"
       apply_with_weight="true"
       only_selected="false" />
    <inkscape:path-effect
       effect="bspline"
       id="path-effect1498"
       is_visible="true"
       lpeversion="1"
       weight="33.333333"
       steps="2"
       helper_size="0"
       apply_no_weight="true"
       apply_with_weight="true"
       only_selected="false" />
    <rect
       x="93.066657"
       y="34.169078"
       width="819.41142"
       height="447.18715"
       id="rect1438" />
    <inkscape:path-effect
       effect="bspline"
       id="path-effect808"
       is_visible="true"
       lpeversion="1"
       weight="33.333333"
       steps="2"
       helper_size="0"
       apply_no_weight="true"
       apply_with_weight="true"
       only_selected="false" />
    <marker
       style="overflow:visible"
       id="Arrow1-3"
       refX="0"
       refY="0"
       orient="auto-start-reverse"
       inkscape:stockid="Arrow1"
       markerWidth="4.0606599"
       markerHeight="6.7071061"
       viewBox="0 0 4.0606602 6.7071068"
       inkscape:isstock="true"
       inkscape:collect="always"
       preserveAspectRatio="xMidYMid">
      <path
         style="fill:none;stroke:context-stroke;stroke-width:1;stroke-linecap:butt"
         d="M 3,-3 0,0 3,3"
         id="path5057-6"
         transform="rotate(180,0.125,0)"
         sodipodi:nodetypes="ccc" />
    </marker>
  </defs>
  <sodipodi:namedview
     id="base"
     pagecolor="#ffffff"
     bordercolor="#666666"
     borderopacity="1.0"
     inkscape:pageopacity="0.0"
     inkscape:pageshadow="2"
     inkscape:zoom="1.406257"
     inkscape:cx="465.41991"
     inkscape:cy="248.5321"
     inkscape:document-units="mm"
     inkscape:current-layer="layer1"
     showgrid="false"
     showborder="true"
     width="200mm"
     showguides="true"
     inkscape:guide-bbox="true"
     inkscape:window-width="1920"
     inkscape:window-height="1200"
     inkscape:window-x="0"
     inkscape:window-y="0"
     inkscape:window-maximized="1"
     inkscape:showpageshadow="2"
     inkscape:pagecheckerboard="0"
     inkscape:deskcolor="#d1d1d1">
    <inkscape:grid
       type="xygrid"
       id="grid815"
       units="mm"
       spacingx="10"
       spacingy="10"
       empspacing="4"
       dotted="false" />
  </sodipodi:namedview>
  <metadata
     id="metadata5">
    <rdf:RDF>
      <cc:Work
         rdf:about="">
        <dc:format>image/svg+xml</dc:format>
        <dc:type
           rdf:resource="http://purl.org/dc/dcmitype/StillImage" />
        <dc:title />
      </cc:Work>
    </rdf:RDF>
  </metadata>
  <g
     inkscape:label="Layer 1"
     inkscape:groupmode="layer"
     id="layer1"
     transform="translate(0,-177)">
    <path
       style="fill:none;stroke:#000000;stroke-width:0.236827"
       d="m 43.446151,200.81361 c 2.402,-1.47058 7.204823,-4.41102 12.372256,-6.83375 5.167432,-2.42273 10.698728,-4.3278 15.167175,-5.61747 4.468446,-1.28967 7.873618,-1.96414 12.659711,-2.39585 4.786093,-0.43171 10.95268,-0.62103 15.238883,-0.64161 4.286204,-0.0206 6.691864,0.12733 10.893264,0.34622 4.2014,0.21889 10.19857,0.50879 15.35722,0.95266 5.15866,0.44387 9.47865,1.04142 13.28619,1.60647 3.80754,0.56505 7.1026,1.09753 9.48286,1.52064 2.38026,0.42311 3.84567,0.73668 6.13274,1.34026 2.28707,0.60359 5.39578,1.49696 9.02542,2.45535 3.62965,0.95839 7.78024,1.98192 11.83763,3.36961 4.0574,1.38769 8.02164,3.13894 11.38022,4.66541 3.35857,1.52647 6.11152,2.82808 8.03851,3.81036 1.92699,0.98228 3.02816,1.64491 5.52687,3.491 2.49871,1.84608 6.39518,4.87526 8.14293,9.10825 1.74776,4.23299 1.34964,9.67015 0.1512,13.62724 -1.19845,3.95709 -3.19751,6.43605 -4.90425,8.43274 -1.70673,1.9967 -3.12131,3.51129 -4.57393,4.97849 -1.45262,1.46721 -2.94346,2.88714 -4.52279,4.04662 -1.57933,1.15948 -3.24804,2.05877 -5.73776,2.66544 -2.48972,0.60668 -5.80172,0.92025 -8.66455,0.89102 -2.86284,-0.0292 -5.27696,-0.40195 -8.04264,-0.74223 -2.76568,-0.34028 -5.88286,-0.64793 -8.64846,-1.00872 -2.7656,-0.36078 -5.17972,-0.77492 -8.20373,-1.27783 -3.02401,-0.50291 -6.65789,-1.09454 -9.16092,-1.64739 -2.50303,-0.55284 -3.87527,-1.06757 -5.41268,-1.64147 -1.53741,-0.57389 -3.24,-1.20694 -5.88705,-2.02059 -2.64706,-0.81365 -6.23859,-1.8076 -8.95341,-2.56193 -2.71482,-0.75434 -4.55294,-1.26906 -6.82314,-1.64802 -2.2702,-0.37896 -4.97231,-0.62153 -7.46283,-0.6484 -2.49052,-0.0269 -4.76911,0.16246 -7.22566,0.44638 -2.45656,0.28392 -5.090906,0.66256 -7.949938,1.30141 -2.859032,0.63884 -5.94232,1.53813 -9.275769,2.84559 -3.333449,1.30746 -6.916516,3.02321 -10.892957,4.16527 -3.976442,1.14207 -8.347264,1.71004 -11.934385,1.96169 -3.587121,0.25164 -6.390885,0.18656 -10.151695,-0.5023 -3.76081,-0.68885 -8.47893,-2.00229 -11.596196,-3.10821 -3.117267,-1.10593 -4.633496,-2.00521 -6.124759,-3.36261 -1.491263,-1.3574 -2.95668,-3.17374 -3.182344,-5.84278 -0.225664,-2.66904 0.790807,-6.18929 2.095379,-9.24554 1.304572,-3.05626 2.897045,-5.64764 4.536569,-7.59157 1.639524,-1.94394 3.325174,-3.23962 4.773168,-4.89875 1.447994,-1.65912 2.659285,-3.68252 3.303049,-5.22592 0.643764,-1.5434 0.719999,-2.60834 0.196379,-3.46329 -0.52362,-0.85495 -1.650204,-1.49983 -2.480245,-1.90253 -0.83004,-0.4027 -1.363689,-0.56244 -1.876212,-0.7692 -0.512523,-0.20676 -1.003815,-0.46116 -1.397739,-0.67701 -0.393923,-0.21585 -0.690395,-0.39334 -0.827492,-0.60047 -0.137097,-0.20713 -0.111686,-0.44379 -0.09889,-0.56295 0.01279,-0.11915 0.0128,-0.11915 2.414801,-1.58973 z"
       id="path806"
       inkscape:path-effect="#path-effect808"
       inkscape:original-d="m 41.044151,202.28419 c 4.805653,-2.93846 9.608476,-5.8789 14.408471,-8.82132 5.534125,-1.9031 11.065419,-3.80818 16.593884,-5.71522 3.408004,-0.6725 6.813178,-1.34696 10.215523,-2.02341 6.16942,-0.18735 12.336007,-0.37667 18.499771,-0.56797 2.40847,0.14988 4.81413,0.29779 7.21694,0.44372 6.00001,0.29189 11.99718,0.58178 17.99153,0.86972 4.32283,0.59953 8.64282,1.19708 12.96,1.79265 3.29788,0.53445 6.59294,1.06693 9.88518,1.59743 1.46824,0.31555 2.93365,0.62912 4.39623,0.94071 3.11153,0.89535 6.22024,1.78872 9.32613,2.68011 4.15341,1.02552 8.304,2.04905 12.45176,3.07061 3.96706,1.75323 7.9313,3.50447 11.89271,5.25374 2.75576,1.30359 5.50871,2.60519 8.25882,3.90482 1.104,0.66461 2.20517,1.32724 3.30352,1.98791 3.8993,3.03116 7.79577,6.06034 11.68941,9.08755 -0.39529,5.43913 -0.7934,10.87629 -1.19434,16.31147 -1.99623,2.48094 -3.99529,4.9599 -5.99719,7.43689 -1.41175,1.51657 -2.82633,3.03116 -4.24374,4.54378 -1.488,1.42191 -2.97884,2.84184 -4.4725,4.2598 -1.66587,0.90126 -3.33458,1.80055 -5.00612,2.69787 -3.30915,0.31555 -6.62115,0.62911 -9.93597,0.9407 -2.41129,-0.37076 -4.82541,-0.74349 -7.24237,-1.1182 -3.11434,-0.30567 -6.23152,-0.61332 -9.35152,-0.92295 -2.41128,-0.41217 -4.8254,-0.82632 -7.24235,-1.24244 -3.63106,-0.58966 -7.26494,-1.1813 -10.90165,-1.77491 -1.36941,-0.51275 -2.74165,-1.02748 -4.11671,-1.54418 -1.69976,-0.63108 -3.40235,-1.26413 -5.10776,-1.89916 -3.58871,-0.99197 -7.18024,-1.98593 -10.7746,-2.98185 -1.83528,-0.51275 -3.6734,-1.02748 -5.51436,-1.54418 -2.69928,-0.2406 -5.40139,-0.48317 -8.10634,-0.72772 -2.27576,0.1913 -4.55435,0.38063 -6.83578,0.56798 -2.63152,0.38062 -5.26587,0.75927 -7.903054,1.13594 -3.080462,0.90127 -6.163753,1.80055 -9.249876,2.69787 -3.580231,1.71772 -7.163294,3.43348 -10.749183,5.14725 -4.367994,0.56995 -8.738815,1.13793 -13.112466,1.70393 -2.800935,-0.0631 -5.604699,-0.1282 -8.411292,-0.19525 -4.71529,-1.31146 -9.433409,-2.6249 -14.154358,-3.94031 -1.513406,-0.89732 -3.029639,-1.7966 -4.548704,-2.69787 -1.462584,-1.81435 -2.927996,-3.63069 -4.396235,-5.44899 1.019297,-3.51827 2.035768,-7.03852 3.049411,-10.56074 1.5953,-2.5894 3.187771,-5.18078 4.777414,-7.77413 1.688476,-1.29371 3.374123,-2.5894 5.056941,-3.88705 1.214122,-2.02143 2.425414,-4.04483 3.633878,-6.07021 0.07907,-1.06298 0.155303,-2.12792 0.228708,-3.19485 -1.123756,-0.64291 -2.250344,-1.28779 -3.379762,-1.93466 -0.530817,-0.15776 -1.064466,-0.3175 -1.600942,-0.47922 -0.488464,-0.25244 -0.979759,-0.50684 -1.47388,-0.76322 -0.293645,-0.17551 -0.590116,-0.353 -0.889416,-0.53247 0.02824,-0.23468 0.05366,-0.47134 0.07623,-0.70997 z" />
    <ellipse
       style="fill:none;stroke:#008000;stroke-width:0.236827"
       id="path1114"
       cx="91.410263"
       cy="218.83528"
       rx="31.485174"
       ry="11.031093" />
    <ellipse
       style="fill:none;stroke:#ff6600;stroke-width:0.236827"
       id="path1116"
       cx="143.83473"
       cy="218.2318"
       rx="28.105408"
       ry="9.9128971" />
    <text
       xml:space="preserve"
       style="font-size:2.83747px;fill:#ff7f2a;stroke:#008000;stroke-width:0.236827"
       x="152.89621"
       y="249.87372"
       id="text1434"
       transform="scale(1.1965205,0.83575669)"><tspan
         sodipodi:role="line"
         id="tspan1432"
         style="fill:none;stroke:#000000;stroke-width:0.236828"
         x="152.89621"
         y="249.87372">M</tspan></text>
    <text
       xml:space="preserve"
       transform="matrix(0.26458333,0,0,0.26458333,0,177)"
       id="text1436"
       style="fill:none;stroke:#000000;stroke-width:1.0015748;white-space:pre;shape-inside:url(#rect1438)" />
    <path
       style="fill:none;stroke:#008000;stroke-width:0.264999;marker-end:url(#Arrow1)"
       d="m 78.070021,221.82834 c -0.02378,0.34086 -0.04754,0.68147 -1.639806,5.87781 -1.592263,5.19634 -4.752863,15.24808 -5.17655,23.22086 -0.423686,7.97277 1.889336,13.86599 4.202278,19.75901"
       id="path1496"
       inkscape:path-effect="#path-effect1498"
       inkscape:original-d="m 78.070021,221.82834 c -0.02349,0.34088 -0.04726,0.68149 -0.07129,1.02184 -3.160461,10.05241 -6.321062,20.10415 -9.481992,30.15583 2.313379,5.89372 4.626401,11.78694 6.939204,17.68001" />
    <path
       style="fill:none;stroke:#f98f00;stroke-width:0.264999;stroke-opacity:1;marker-end:url(#Arrow1)"
       d="m 155.23302,222.51748 c 4.91936,11.92957 9.83858,23.85883 10.24245,32.94433 0.40387,9.0855 -3.70728,15.32724 -7.81848,21.56905"
       id="path1500"
       inkscape:path-effect="#path-effect1502"
       inkscape:original-d="m 155.23302,222.51748 c 4.91949,11.92952 9.83872,23.85877 14.75768,35.78777 -4.11105,6.24226 -8.22221,12.484 -12.33371,18.72561" />
    <path
       style="fill:none;stroke:#008000;stroke-width:0.3;stroke-dasharray:none;stroke-opacity:1;marker-start:url(#Arrow1);marker-end:url(#Arrow1)"
       d="m 62.718216,267.50171 c 0.213884,0.85548 0,22.97926 0,22.97926 h 27.519178"
       id="path6809" />
    <path
       style="fill:none;stroke:#ff6600;stroke-width:0.3;stroke-dasharray:none;stroke-opacity:1;marker-start:url(#Arrow1-3);marker-end:url(#Arrow1-3)"
       d="m 140.72655,267.446 c 0.21388,0.85548 0,22.97926 0,22.97926 h 27.51917"
       id="path6809-7" />
    <path
       style="fill:none;stroke:none;stroke-width:0;stroke-dasharray:none;stroke-opacity:1"
       d="m 108.82114,248.5147 c -0.16635,0.99807 1.82987,25.80712 1.82987,25.80712 l 23.81192,-13.28378 -24.95261,-11.33517"
       id="path6811" />
    <path
       style="fill:none;stroke:#000000;stroke-width:0;opacity:1;stroke-dasharray:none"
       d="m 60.244756,263.20052 v 25.28433 h 32.343341"
       id="path871" />
    <ellipse
       style="opacity:1;fill:none;stroke:#008000;stroke-width:0.3;stroke-dasharray:none"
       id="path1207"
       cx="76.51149"
       cy="278.40915"
       rx="8.7571774"
       ry="8.6974268" />
    <ellipse
       style="fill:none;stroke:#ff6600;stroke-width:0.3;stroke-dasharray:none"
       id="path1207-5"
       cx="154.36748"
       cy="278.04724"
       rx="8.7571774"
       ry="8.6974268" />
  </g>
</svg>
