<?xml version="1.0" encoding="UTF-8" standalone="no"?>
<!-- Created with Inkscape (http://www.inkscape.org/) -->

<svg
   width="240mm"
   height="120mm"
   viewBox="0 0 240 120"
   version="1.1"
   id="svg8"
   inkscape:version="1.2.1 (9c6d41e410, 2022-07-14, custom)"
   sodipodi:docname="la-complexité.svg"
   xmlns:inkscape="http://www.inkscape.org/namespaces/inkscape"
   xmlns:sodipodi="http://sodipodi.sourceforge.net/DTD/sodipodi-0.dtd"
   xmlns="http://www.w3.org/2000/svg"
   xmlns:svg="http://www.w3.org/2000/svg"
   xmlns:rdf="http://www.w3.org/1999/02/22-rdf-syntax-ns#"
   xmlns:cc="http://creativecommons.org/ns#"
   xmlns:dc="http://purl.org/dc/elements/1.1/">
  <defs
     id="defs2">
    <marker
       style="overflow:visible"
       id="Arrow4"
       refX="0"
       refY="0"
       orient="auto-start-reverse"
       inkscape:stockid="Arrow4"
       markerWidth="5"
       markerHeight="6"
       viewBox="0 0 5 6"
       inkscape:isstock="true"
       inkscape:collect="always"
       preserveAspectRatio="xMidYMid">
      <path
         style="fill:context-stroke;fill-rule:evenodd;stroke:none"
         d="m 1,0 -3,3 h -2 l 3,-3 -3,-3 h 2 z"
         id="path1741" />
    </marker>
    <inkscape:path-effect
       effect="bspline"
       id="path-effect3756"
       is_visible="true"
       lpeversion="1"
       weight="33.333333"
       steps="2"
       helper_size="0"
       apply_no_weight="true"
       apply_with_weight="true"
       only_selected="false" />
    <inkscape:path-effect
       effect="bspline"
       id="path-effect1113"
       is_visible="true"
       lpeversion="1"
       weight="33.333333"
       steps="2"
       helper_size="0"
       apply_no_weight="true"
       apply_with_weight="true"
       only_selected="false" />
    <inkscape:path-effect
       effect="bspline"
       id="path-effect939"
       is_visible="true"
       lpeversion="1"
       weight="33.333333"
       steps="2"
       helper_size="0"
       apply_no_weight="true"
       apply_with_weight="true"
       only_selected="false" />
    <inkscape:path-effect
       effect="bspline"
       id="path-effect931"
       is_visible="true"
       lpeversion="1"
       weight="33.333333"
       steps="2"
       helper_size="0"
       apply_no_weight="true"
       apply_with_weight="true"
       only_selected="false" />
    <inkscape:path-effect
       effect="bspline"
       id="path-effect864"
       is_visible="true"
       lpeversion="1"
       weight="33.333333"
       steps="2"
       helper_size="0"
       apply_no_weight="true"
       apply_with_weight="true"
       only_selected="false" />
  </defs>
  <sodipodi:namedview
     id="base"
     pagecolor="#ffffff"
     bordercolor="#666666"
     borderopacity="1.0"
     inkscape:pageopacity="0.0"
     inkscape:pageshadow="2"
     inkscape:zoom="3.9774955"
     inkscape:cx="493.65235"
     inkscape:cy="270.89911"
     inkscape:document-units="mm"
     inkscape:current-layer="layer1"
     showgrid="false"
     showborder="true"
     width="200mm"
     showguides="true"
     inkscape:guide-bbox="true"
     inkscape:window-width="1920"
     inkscape:window-height="1200"
     inkscape:window-x="0"
     inkscape:window-y="0"
     inkscape:window-maximized="1"
     inkscape:showpageshadow="2"
     inkscape:pagecheckerboard="0"
     inkscape:deskcolor="#d1d1d1">
    <inkscape:grid
       type="xygrid"
       id="grid815"
       units="mm"
       spacingx="10"
       spacingy="10"
       empspacing="4"
       dotted="false" />
  </sodipodi:namedview>
  <metadata
     id="metadata5">
    <rdf:RDF>
      <cc:Work
         rdf:about="">
        <dc:format>image/svg+xml</dc:format>
        <dc:type
           rdf:resource="http://purl.org/dc/dcmitype/StillImage" />
        <dc:title />
      </cc:Work>
    </rdf:RDF>
  </metadata>
  <g
     inkscape:label="Layer 1"
     inkscape:groupmode="layer"
     id="layer1"
     transform="translate(0,-177)">
    <path
       style="fill:none;stroke:#000000;stroke-width:0.361"
       d="m 32.406833,239.65504 c 0.494844,-1.78137 1.485027,-5.34589 3.861526,-9.81404 2.376499,-4.46816 6.139199,-9.83871 9.97387,-13.54633 3.83467,-3.70762 7.739952,-5.75128 11.40754,-7.73156 3.667588,-1.98028 7.097583,-3.8972 10.195512,-5.08134 3.097929,-1.18414 5.862522,-1.63564 8.322305,-1.92069 2.459783,-0.28506 4.614419,-0.40388 8.214456,-1.0298 3.600036,-0.62592 8.646011,-1.75864 15.530179,-2.07915 6.884169,-0.32051 15.605709,0.1706 22.402449,2.0964 6.79674,1.92581 11.66845,5.28438 15.49424,8.52052 3.8258,3.23614 6.60623,6.34915 7.99124,13.69199 1.385,7.34284 1.37707,18.91565 -1.0627,26.99387 -2.43978,8.07821 -7.31147,12.66456 -10.52311,15.3298 -3.21164,2.66524 -4.76425,3.40982 -6.6452,4.04356 -1.88095,0.63373 -4.09103,1.15652 -7.95264,1.89323 -3.86161,0.73671 -9.37495,1.68725 -13.99689,2.19437 -4.62195,0.50712 -8.352958,0.57049 -12.575137,0.70511 -4.222179,0.13463 -8.935452,0.34057 -12.44452,0.36844 -3.509068,0.0279 -5.814211,-0.12263 -9.260053,-0.34046 -3.445841,-0.21784 -8.032369,-0.503 -11.006745,-0.79187 -2.974376,-0.28888 -4.336865,-0.58197 -5.952971,-0.79607 -1.616105,-0.2141 -3.485571,-0.34876 -6.606449,-1.46102 -3.120878,-1.11226 -7.493526,-3.20344 -10.147951,-5.10766 -2.654425,-1.90423 -3.589156,-3.62311 -4.116519,-4.81135 -0.527362,-1.18824 -0.646183,-1.84569 -0.978727,-3.16847 -0.332545,-1.32278 -0.879128,-3.311 -1.018272,-6.15108 -0.139145,-2.84008 0.130185,-6.53134 0.264939,-8.37818 0.134754,-1.84685 0.134783,-1.84685 0.629628,-3.62822 z"
       id="path862"
       inkscape:path-effect="#path-effect864"
       inkscape:original-d="m 31.911988,241.43641 c 0.992831,-3.56187 1.983012,-7.12639 2.970549,-10.69356 3.765343,-5.36789 7.528041,-10.73844 11.28809,-16.11163 3.907928,-2.04101 7.813209,-4.08467 11.715845,-6.13097 3.432644,-1.91427 6.862638,-3.83119 10.28999,-5.75076 2.767237,-0.44886 5.531831,-0.90036 8.29378,-1.35451 2.15728,-0.11618 4.311917,-0.23499 6.463908,-0.35646 5.04862,-1.13008 10.094595,-2.2628 15.137926,-3.39817 8.724174,0.49375 17.445714,0.98487 26.164594,1.47333 4.87435,3.36122 9.74606,6.71979 14.61512,10.07571 2.78308,3.11566 5.56351,6.22867 8.3413,9.33904 -0.005,11.57545 -0.0132,23.14826 -0.0238,34.71842 -4.86905,4.589 -9.74075,9.17534 -14.6151,13.75905 -1.54996,0.74723 -3.10257,1.49182 -4.65783,2.23376 -2.20744,0.52544 -4.41752,1.04824 -6.63026,1.56838 -5.51069,0.95319 -11.02403,1.90373 -16.54002,2.85162 -3.72837,0.066 -7.459382,0.12939 -11.193039,0.19011 -4.710626,0.2086 -9.4239,0.41454 -14.139818,0.61784 -2.302499,-0.14785 -4.607642,-0.29835 -6.915433,-0.4515 -4.583885,-0.28251 -9.170413,-0.56767 -13.75959,-0.85548 -1.359847,-0.29044 -2.722337,-0.58352 -4.087476,-0.87925 -1.866821,-0.13202 -3.736287,-0.26668 -5.608399,-0.40398 -4.370004,-2.08854 -8.742654,-4.17972 -13.117949,-6.27355 -0.932088,-1.71624 -1.866818,-3.43513 -2.804197,-5.15667 -0.116176,-0.65481 -0.235001,-1.31226 -0.356468,-1.97237 -0.543936,-1.98556 -1.090515,-3.97378 -1.639742,-5.96463 0.271976,-3.68861 0.541306,-7.37987 0.80799,-11.07377 z" />
    <path
       style="fill:none;stroke:#000000;stroke-width:0.361"
       d="m 66.824827,211.38393 c -1.980423,-0.26149 -3.818203,-0.44368 -5.534003,-0.19458 -1.715799,0.2491 -3.30801,0.93032 -5.625944,4.29365 -2.317934,3.36332 -5.359779,9.40716 -6.694127,14.17266 -1.334348,4.7655 -0.962038,8.25081 0.864895,11.96978 1.826932,3.71896 5.10642,7.67162 7.748387,10.61419 2.641967,2.94258 4.6461,4.87534 7.391016,6.07826 2.744916,1.20291 6.230363,1.67818 11.449732,0.33904 5.219369,-1.33915 12.174416,-4.49177 15.971956,-7.67874 3.797539,-3.18698 4.439177,-6.41089 4.297068,-10.58484 -0.14211,-4.17396 -1.06892,-9.29895 -3.167126,-13.66363 -2.098205,-4.36469 -5.369769,-7.96881 -7.76176,-9.95011 -2.391992,-1.98131 -3.904995,-2.33776 -5.378359,-2.72975 -1.473364,-0.39199 -2.907148,-0.81974 -4.123173,-1.11305 -1.216026,-0.29332 -2.214131,-0.45174 -3.774659,-0.70126 -1.560527,-0.24951 -3.68348,-0.59012 -5.663903,-0.85162 z"
       id="path929"
       inkscape:path-effect="#path-effect931"
       inkscape:original-d="m 66.679307,211.30434 c -1.835137,-0.17954 -3.672917,-0.36173 -5.513343,-0.54656 -1.589572,0.68387 -3.181786,1.36508 -4.776647,2.04366 -3.039197,6.04648 -6.08104,12.09032 -9.125532,18.13151 0.374957,3.48796 0.747265,6.97327 1.116931,10.45593 3.282132,3.9553 6.561618,7.90796 9.838459,11.85797 2.006777,1.93541 4.010912,3.86817 6.012397,5.79828 3.488089,0.47792 6.973536,0.95319 10.456333,1.42581 6.957693,-3.14997 13.912739,-6.30259 20.86514,-9.45785 0.644284,-3.22127 1.285922,-6.44518 1.924915,-9.67174 -0.924163,-5.12234 -1.850975,-10.24733 -2.78043,-15.37496 -3.268919,-3.60148 -6.540484,-7.2056 -9.814695,-10.81237 -1.510358,-0.3538 -3.023359,-0.71026 -4.539006,-1.06935 -1.431139,-0.4251 -2.864921,-0.85285 -4.301352,-1.28323 -0.995458,-0.15578 -1.993562,-0.31421 -2.994314,-0.47527 -2.120307,-0.33797 -4.24326,-0.67858 -6.368856,-1.02183 z" />
    <path
       style="fill:none;stroke:#000000;stroke-width:0.361"
       d="m 243.55773,182.907 c -14.73167,1.96415 -29.4656,3.92859 -39.21316,5.50482 -9.74756,1.57623 -14.50837,2.7644 -18.54046,3.83374 -4.03208,1.06934 -7.33533,2.01988 -11.28055,3.61597 -3.94521,1.5961 -8.53174,3.83778 -14.13674,8.36897 -5.60501,4.53118 -12.22735,11.3513 -16.24371,15.77551 -4.01635,4.42422 -5.42637,6.45204 -6.44028,9.6966 -1.01392,3.24455 -1.63179,7.70416 -1.57146,10.69883 0.0603,2.99468 0.79703,4.52345 2.96425,6.69737 2.16722,2.17391 5.76356,4.99384 9.01546,7.04498 3.2519,2.05114 6.15907,3.33436 9.00284,4.32419 2.84377,0.98983 5.6242,1.6869 8.75322,2.72481 3.12902,1.03792 6.60654,2.4162 10.09195,3.58436 3.48542,1.16817 6.97879,2.12663 10.34939,3.10495 3.37059,0.97832 6.61839,1.97638 9.1493,2.77646 2.53092,0.80008 4.34494,1.40209 8.81649,2.19388 4.47156,0.79179 11.60089,1.77401 16.05673,2.40774 4.45585,0.63373 6.23818,0.91889 8.82027,0.90666 2.5821,-0.0122 5.96457,-0.32115 10.92754,-0.36853 4.96297,-0.0474 11.5061,0.1665 18.0465,0.38028"
       id="path937"
       inkscape:path-effect="#path-effect939"
       inkscape:original-d="m 243.55773,182.907 c -14.73128,1.96709 -29.46521,3.93154 -44.20178,5.89334 -4.75816,1.19082 -9.51897,2.37899 -14.28242,3.56452 -3.3006,0.95318 -6.60385,1.90372 -9.90975,2.85162 -4.58388,2.24433 -9.17041,4.48601 -13.75958,6.72505 -6.6197,6.82276 -13.24205,13.64287 -19.86704,20.46034 -1.40738,2.03046 -2.8174,4.05828 -4.23006,6.08345 -0.61523,4.46225 -1.23311,8.92186 -1.85363,13.37883 0.73935,1.53143 1.47604,3.06021 2.2101,4.58635 3.59899,2.82258 7.19533,5.64251 10.78903,8.45979 2.90983,1.28588 5.817,2.5691 8.72154,3.84968 2.78308,0.69971 5.56351,1.39677 8.3413,2.09119 3.48017,1.38093 6.95769,2.75921 10.43256,4.13484 3.49602,0.96111 6.98939,1.91956 10.48011,2.87538 3.25045,1.00071 6.49824,1.99878 9.7434,2.9942 1.81666,0.60465 3.63068,1.20666 5.44205,1.80602 7.13196,0.98487 14.26129,1.96709 21.38796,2.94667 1.78498,0.2878 3.56731,0.57296 5.34699,0.85548 3.38512,-0.30628 6.76759,-0.6152 10.14741,-0.92677 6.54578,0.21651 13.08891,0.43038 19.62939,0.64161" />
    <text
       xml:space="preserve"
       style="font-size:3.175px;fill:none;stroke:#000000;stroke-width:0.361"
       x="170.22079"
       y="223.18607"
       id="text995"><tspan
         sodipodi:role="line"
         id="tspan993"
         style="stroke-width:0.361"
         x="170.22079"
         y="223.18607">NP-hard</tspan></text>
    <text
       xml:space="preserve"
       style="font-size:3.175px;fill:none;stroke:#000000;stroke-width:0.361"
       x="71.72094"
       y="236.25864"
       id="text999"><tspan
         sodipodi:role="line"
         id="tspan997"
         style="stroke-width:0.361"
         x="71.72094"
         y="236.25864">P</tspan></text>
    <text
       xml:space="preserve"
       style="font-size:3.175px;fill:none;stroke:#000000;stroke-width:0.361"
       x="101.03062"
       y="262.06973"
       id="text1003"><tspan
         sodipodi:role="line"
         id="tspan1001"
         style="stroke-width:0.361"
         x="101.03062"
         y="262.06973">NP</tspan></text>
    <path
       style="stroke:#000000;stroke-width:0.361;fill-opacity:1;fill:#0000ff"
       d="m 144.57628,219.46127 c -0.32776,0.37396 -0.98311,1.12171 -1.47893,1.73661 -0.49583,0.6149 -0.83191,1.09659 -1.20991,1.58514 -0.378,0.48854 -0.79809,0.98423 -1.30795,1.73225 -0.50986,0.74802 -1.1092,1.74782 -1.64836,2.87256 -0.53917,1.12475 -1.01808,2.3738 -1.32336,3.14384 -0.30527,0.77004 -0.4369,1.0613 -0.66084,2.26603 -0.22395,1.20474 -0.54042,3.32196 -0.70693,4.672 -0.16651,1.35005 -0.18331,1.93256 -0.13404,2.6091 0.0493,0.67654 0.1641,1.44669 0.25088,2.06139 0.0868,0.61471 0.1456,1.07399 0.36214,1.56272 0.21654,0.48873 0.58904,1.00683 0.89295,1.42129 0.30391,0.41446 0.53916,0.72532 0.98049,1.19564 0.44132,0.47032 1.08828,1.10044 1.86409,1.83415 0.77582,0.73371 1.68043,1.57107 2.25339,2.02963 0.57296,0.45856 0.8138,0.53977 1.04202,0.64661 0.22822,0.10683 0.44387,0.23845 0.55567,0.21214 0.1118,-0.0263 0.123,-0.21115 0.16626,-0.46069 0.0433,-0.24955 0.11887,-0.5632 0.22251,-1.01825 0.10364,-0.45506 0.23527,-1.05158 0.36405,-1.55024 0.12879,-0.49865 0.25482,-0.89912 0.38094,-1.50238 0.12612,-0.60326 0.25215,-1.40982 0.39776,-2.27382 0.14562,-0.86401 0.31086,-1.78539 0.45235,-2.78368 0.14149,-0.99828 0.25912,-2.07369 0.32922,-2.93335 0.0701,-0.85966 0.0925,-1.50378 0.0772,-2.19258 -0.0153,-0.68881 -0.0685,-1.42254 -0.0449,-2.13139 0.0235,-0.70885 0.12437,-1.39219 0.15967,-1.91277 0.0353,-0.52058 0.005,-0.87905 -0.0166,-1.23198 -0.0211,-0.35294 -0.0323,-0.7002 -0.0754,-1.06271 -0.0431,-0.36251 -0.11876,-0.74057 -0.16658,-1.07256 -0.0478,-0.33199 -0.0674,-0.61764 -0.21701,-1.39186 -0.14958,-0.77422 -0.42965,-2.03728 -0.56446,-2.88889 -0.13481,-0.85162 -0.12361,-1.29131 -0.2437,-2.14664 -0.12009,-0.85533 -0.37215,-2.12677 -0.49849,-2.76403 -0.12633,-0.63725 -0.12637,-0.63725 -0.45413,-0.26328 z"
       id="path1111"
       inkscape:path-effect="#path-effect1113"
       inkscape:original-d="m 144.90404,219.0873 c -0.65271,0.75039 -1.30806,1.49814 -1.96606,2.24324 -0.33344,0.48434 -0.66952,0.96604 -1.00824,1.44509 -0.41745,0.49834 -0.83755,0.99403 -1.2603,1.48709 -0.59669,1.00244 -1.19603,2.00224 -1.79802,2.99939 -0.47627,1.25169 -0.95518,2.50074 -1.43674,3.74713 -0.12899,0.29391 -0.26062,0.58517 -0.39489,0.87378 -0.31383,2.11986 -0.63031,4.23708 -0.94943,6.35165 -0.0142,0.58516 -0.031,1.16767 -0.0504,1.74754 0.11747,0.7728 0.2323,1.54295 0.34448,2.31046 0.0615,0.46193 0.12027,0.92122 0.17644,1.37787 0.37514,0.52074 0.74763,1.03885 1.11747,1.5543 0.2379,0.31351 0.47315,0.62437 0.70576,0.93258 0.6496,0.63277 1.29655,1.2629 1.94086,1.89038 0.90726,0.84001 1.81187,1.67737 2.71384,2.51209 0.24351,0.0839 0.48436,0.16508 0.72257,0.24365 0.2183,0.13427 0.43395,0.26589 0.64696,0.39487 0.0138,-0.18219 0.025,-0.36702 0.0336,-0.5545 0.0783,-0.31102 0.15389,-0.62468 0.22686,-0.94099 0.13427,-0.59387 0.2659,-1.19039 0.39489,-1.78955 0.12867,-0.39784 0.2547,-0.79831 0.37809,-1.20144 0.12867,-0.80391 0.2547,-1.61047 0.37809,-2.41967 0.16788,-0.91874 0.33312,-1.84012 0.49571,-2.76415 0.12028,-1.07276 0.23791,-2.14817 0.35289,-3.22623 0.0251,-0.64148 0.0474,-1.28561 0.0672,-1.93238 -0.0506,-0.7311 -0.10378,-1.46484 -0.15964,-2.20123 0.10348,-0.68069 0.2043,-1.36403 0.30248,-2.05001 -0.0282,-0.35582 -0.059,-0.71429 -0.0924,-1.07541 -0.009,-0.34462 -0.0198,-0.69189 -0.0336,-1.04181 -0.073,-0.37542 -0.14859,-0.75349 -0.22685,-1.13421 -0.017,-0.28302 -0.0366,-0.56867 -0.0588,-0.85697 -0.27742,-1.26041 -0.55749,-2.52346 -0.8402,-3.78915 0.0138,-0.43704 0.0251,-0.87673 0.0336,-1.31906 -0.24942,-1.2688 -0.50147,-2.54025 -0.75618,-3.81435 z" />
    <text
       xml:space="preserve"
       style="font-size:3.175px;fill:#0000ff;stroke:#000000;stroke-width:0.361"
       x="140.28865"
       y="267.51297"
       id="text3296"><tspan
         sodipodi:role="line"
         id="tspan3294"
         style="fill:#0000ff;stroke:#0000ff;stroke-width:0.361"
         x="140.28865"
         y="267.51297">NP-complete</tspan></text>
    <path
       style="fill:none;stroke:#0000ff;stroke-width:0.361;marker-end:url(#Arrow4)"
       d="m 144.44082,264.38038 c 1.02633,-0.43463 2.05138,-0.86872 2.60519,-1.78439 0.5538,-0.91567 0.63783,-2.31595 0.50332,-3.21477 -0.13452,-0.89882 -0.49021,-1.2965 -0.82516,-1.74583 -0.33496,-0.44934 -0.64863,-0.95064 -0.90113,-1.4897 -0.25251,-0.53906 -0.44296,-1.11598 -0.63445,-1.69607"
       id="path3754"
       inkscape:path-effect="#path-effect3756"
       inkscape:original-d="m 144.44082,264.38038 c 1.02768,-0.43144 2.05273,-0.86553 3.07512,-1.30226 0.0867,-1.39763 0.17069,-2.79791 0.25207,-4.20083 -0.35304,-0.39503 -0.70873,-0.79271 -1.06706,-1.19303 -0.31103,-0.49865 -0.6247,-0.99995 -0.94102,-1.5039 -0.1878,-0.57426 -0.37825,-1.15118 -0.57134,-1.73074" />
  </g>
</svg>
