<?xml version="1.0" encoding="UTF-8" standalone="no"?>
<!-- Created with Inkscape (http://www.inkscape.org/) -->

<svg
   width="240mm"
   height="120mm"
   viewBox="0 0 240 120"
   version="1.1"
   id="svg8"
   inkscape:version="1.2.1 (9c6d41e410, 2022-07-14, custom)"
   sodipodi:docname="qbit-transoms.svg"
   xmlns:inkscape="http://www.inkscape.org/namespaces/inkscape"
   xmlns:sodipodi="http://sodipodi.sourceforge.net/DTD/sodipodi-0.dtd"
   xmlns="http://www.w3.org/2000/svg"
   xmlns:svg="http://www.w3.org/2000/svg"
   xmlns:rdf="http://www.w3.org/1999/02/22-rdf-syntax-ns#"
   xmlns:cc="http://creativecommons.org/ns#"
   xmlns:dc="http://purl.org/dc/elements/1.1/">
  <defs
     id="defs2">
    <marker
       style="overflow:visible"
       id="Arrow1"
       refX="0"
       refY="0"
       orient="auto-start-reverse"
       inkscape:stockid="Arrow1"
       markerWidth="4.0606604"
       markerHeight="6.7071066"
       viewBox="0 0 4.0606602 6.7071068"
       inkscape:isstock="true"
       inkscape:collect="always"
       preserveAspectRatio="xMidYMid">
      <path
         style="fill:none;stroke:context-stroke;stroke-width:1;stroke-linecap:butt"
         d="M 3,-3 0,0 3,3"
         id="path5057"
         transform="rotate(180,0.125,0)"
         sodipodi:nodetypes="ccc" />
    </marker>
    <inkscape:path-effect
       effect="spiro"
       id="path-effect528"
       is_visible="true"
       lpeversion="1" />
    <inkscape:path-effect
       effect="spiro"
       id="path-effect528-6"
       is_visible="true"
       lpeversion="1" />
  </defs>
  <sodipodi:namedview
     id="base"
     pagecolor="#ffffff"
     bordercolor="#666666"
     borderopacity="1.0"
     inkscape:pageopacity="0.0"
     inkscape:pageshadow="2"
     inkscape:zoom="1.406257"
     inkscape:cx="449.06442"
     inkscape:cy="244.26545"
     inkscape:document-units="mm"
     inkscape:current-layer="layer1"
     showgrid="false"
     showborder="true"
     width="200mm"
     showguides="true"
     inkscape:guide-bbox="true"
     inkscape:window-width="1920"
     inkscape:window-height="1200"
     inkscape:window-x="0"
     inkscape:window-y="0"
     inkscape:window-maximized="1"
     inkscape:showpageshadow="2"
     inkscape:pagecheckerboard="0"
     inkscape:deskcolor="#d1d1d1">
    <inkscape:grid
       type="xygrid"
       id="grid815"
       units="mm"
       spacingx="10"
       spacingy="10"
       empspacing="4"
       dotted="false" />
  </sodipodi:namedview>
  <metadata
     id="metadata5">
    <rdf:RDF>
      <cc:Work
         rdf:about="">
        <dc:format>image/svg+xml</dc:format>
        <dc:type
           rdf:resource="http://purl.org/dc/dcmitype/StillImage" />
        <dc:title />
      </cc:Work>
    </rdf:RDF>
  </metadata>
  <g
     inkscape:label="Layer 1"
     inkscape:groupmode="layer"
     id="layer1"
     transform="translate(0,-177)">
    <path
       style="fill:none;stroke:#000000;stroke-width:0.3;stroke-dasharray:none"
       d="m 23.57993,226.40442 v -16.68194 h 55.679986 v 15.47001"
       id="path237" />
    <path
       style="fill:none;stroke:#000000;stroke-width:0.3;stroke-dasharray:none"
       d="M 72.534594,225.16873 H 86.056538"
       id="path293" />
    <path
       style="fill:none;stroke:#000000;stroke-width:0.3;stroke-dasharray:none"
       d="M 72.948944,232.36312 H 86.470888"
       id="path293-3" />
    <path
       style="fill:none;stroke:#000000;stroke-width:0.3;stroke-dasharray:none"
       d="m 79.709914,232.36312 v 23.05649 l -56.579984,0.19011 v -17.01463"
       id="path445" />
    <path
       style="fill:none;stroke:#000000;stroke-width:0.3;stroke-dasharray:none"
       d="m 23.12993,238.59509 c 0.736712,-0.28737 1.445591,-0.64604 2.113508,-1.06937 0.30592,-0.19389 0.605556,-0.40326 0.855516,-0.66537 0.575941,-0.60394 0.845333,-1.44876 0.903047,-2.2813 0.01645,-0.23726 0.01721,-0.47569 0,-0.7129 -0.03175,-0.43767 -0.126511,-0.87518 -0.323329,-1.2674 -0.196817,-0.39221 -0.500623,-0.73767 -0.888656,-0.9426 -0.293405,-0.15496 -0.624539,-0.22573 -0.954657,-0.2592 -0.330118,-0.0335 -0.662722,-0.0313 -0.994022,-0.0497 -0.478899,-0.0266 -0.975533,-0.0938 -1.425867,0.0713 -0.320925,0.11764 -0.588337,0.3434 -0.879281,0.5228 -0.277879,0.17134 -0.586536,0.30669 -0.807986,0.54655 -0.264411,0.2864 -0.368926,0.68403 -0.427764,1.06935 -0.0062,0.0403 -0.01193,0.081 -0.01019,0.1217 0.0017,0.0407 0.01142,0.082 0.03396,0.11594 0.02304,0.0347 0.05822,0.06 0.09586,0.0779 0.03764,0.0179 0.07805,0.0291 0.118018,0.0409 0.223433,0.0661 0.439976,0.15485 0.6654,0.21386 0.433868,0.11357 0.896943,0.11357 1.330811,0 0.251533,-0.11369 0.514781,-0.20143 0.78422,-0.2614 0.626918,-0.13953 1.29556,-0.13201 1.87739,-0.40398 0.179877,-0.0841 0.346889,-0.19311 0.522819,-0.28516 0.35906,-0.18787 0.760267,-0.3083 1.0694,-0.57032 0.186306,-0.15792 0.330836,-0.36179 0.434636,-0.58286 0.103799,-0.22108 0.167865,-0.4593 0.206997,-0.70037 0.02347,-0.14458 0.03815,-0.29146 0.02738,-0.43753 -0.01077,-0.14607 -0.04787,-0.29188 -0.122439,-0.41795 -0.04038,-0.0683 -0.09107,-0.1298 -0.142586,-0.19011 -0.234061,-0.27397 -0.492422,-0.53108 -0.794597,-0.72738 -0.302174,-0.19631 -0.651356,-0.33003 -1.011498,-0.34198 -0.09501,-0.003 -0.19011,0 -0.285172,0 h -0.546585 c -0.36585,0 -0.734391,0.0202 -1.087806,0.11479 -0.353415,0.0946 -0.686193,0.2518 -1.027225,0.38425 -0.08644,0.0336 -0.173602,0.0653 -0.261406,0.0951 -0.152567,0.0835 -0.303132,0.17068 -0.451524,0.2614 -0.03031,0.0185 -0.06098,0.0374 -0.09505,0.0475 -0.02414,0.007 -0.05024,0.01 -0.0713,0.0238 -0.0164,0.0107 -0.02839,0.0275 -0.03491,0.046 -0.0065,0.0185 -0.0078,0.0386 -0.0055,0.058 0.0047,0.0389 0.0231,0.0746 0.04038,0.10981 0.164682,0.33523 0.255475,0.71493 0.499054,0.99807 0.193144,0.22451 0.470334,0.36826 0.760461,0.42774 0.362567,0.0743 0.739123,0.0232 1.100559,-0.0564 0.361437,-0.0797 0.717923,-0.1878 1.085762,-0.22872 0.208169,-0.0232 0.418486,-0.0246 0.626021,-0.0529 0.207536,-0.0283 0.416292,-0.0857 0.585963,-0.20855 0.136561,-0.0988 0.242233,-0.23586 0.380233,-0.33269 0.07019,-0.0493 0.148082,-0.0876 0.213878,-0.14258 0.06477,-0.0541 0.115704,-0.12259 0.166352,-0.19011 0.274685,-0.3662 0.561825,-0.72822 0.76046,-1.14065 0.09319,-0.19349 0.166615,-0.39905 0.188499,-0.6127 0.02188,-0.21365 -0.01045,-0.43664 -0.117209,-0.62299 -0.13183,-0.23012 -0.361028,-0.38371 -0.570343,-0.54657 -0.358515,-0.27895 -0.684106,-0.61042 -1.093164,-0.80795 -0.185514,-0.0896 -0.38418,-0.14941 -0.570344,-0.23763 -0.314471,-0.14903 -0.592533,-0.37853 -0.926812,-0.47527 -0.367819,-0.10645 -0.759919,-0.0404 -1.140694,0 -0.149986,0.0159 -0.300747,0.0277 -0.451524,0.0238 -0.166639,-0.004 -0.3347,-0.0278 -0.499054,0 -0.214012,0.0363 -0.410188,0.16179 -0.538528,0.33685 -0.12834,0.17505 -0.188924,0.39711 -0.174402,0.61368 0.02057,0.30683 0.194986,0.59949 0.455066,0.76358 0.260081,0.1641 0.599314,0.19552 0.885111,0.082 0.285796,-0.11353 0.510996,-0.36917 0.587579,-0.667 0.07658,-0.29784 0.0026,-0.6304 -0.192953,-0.86771"
       id="path526"
       inkscape:path-effect="#path-effect528"
       inkscape:original-d="m 23.12993,238.59509 c 0.372587,-1.07579 1.433537,-0.66809 2.113508,-1.06937 0.311129,-0.18361 0.59537,-0.41469 0.855516,-0.66537 0.640393,-0.61708 0.822455,-1.42936 0.903047,-2.2813 0.02238,-0.23657 0.02989,-0.47715 0,-0.7129 -0.109566,-0.86433 -0.404002,-1.7635 -1.211985,-2.21 -0.458212,-0.25322 -1.816752,-0.29806 -1.948679,-0.30892 -0.296011,-0.0244 -1.123024,-0.0423 -1.425867,0.0713 -0.307984,0.11549 -0.602781,0.35163 -0.879281,0.5228 -0.279438,0.17298 -0.552875,0.33647 -0.807986,0.54655 -0.34576,0.28473 -0.427764,0.63879 -0.427764,1.06935 0,0.0417 -0.01153,0.18824 0.02377,0.23764 0.04143,0.058 0.152808,0.0985 0.213882,0.11883 0.22102,0.0737 0.437285,0.16652 0.6654,0.21386 0.389939,0.0809 0.932901,0.0909 1.330811,0 0.28653,-0.01 0.517308,-0.19296 0.78422,-0.2614 0.617419,-0.15831 1.273729,-0.18839 1.87739,-0.40398 0.186945,-0.0668 0.343734,-0.19952 0.522819,-0.28516 0.364982,-0.17454 0.743396,-0.31794 1.0694,-0.57032 0.436123,-0.33763 0.581519,-0.76225 0.641633,-1.28323 0.03362,-0.29134 0.02983,-0.58074 -0.09506,-0.85548 -0.03278,-0.0721 -0.0935,-0.12794 -0.142586,-0.19011 -0.44972,-0.56962 -1.100425,-0.90223 -1.806095,-1.06936 -0.0925,-0.0219 -0.190114,0 -0.285172,0 -0.182195,0 -0.36439,0 -0.546585,0 -0.918722,0 -1.307037,0.16239 -2.115031,0.49904 -0.08559,0.0357 -0.178477,0.0536 -0.261406,0.0951 -0.354174,0.21795 -0.200796,0.13604 -0.451524,0.2614 -0.03168,0.0159 -0.06249,0.0336 -0.09505,0.0475 -0.02303,0.01 -0.0641,-2.2e-4 -0.0713,0.0238 -0.02049,0.0683 0,0.14258 0,0.21387 0,0.46337 0.09514,0.74376 0.499054,0.99807 0.175737,0.11065 0.543803,0.3465 0.760461,0.42774 0.611778,0.22941 1.584685,-0.15147 2.186321,-0.28516 0.399651,-0.0888 0.838775,-0.0748 1.211984,-0.2614 0.150631,-0.0753 0.248049,-0.22833 0.380233,-0.33269 0.06725,-0.0531 0.149394,-0.0862 0.213878,-0.14258 0.06337,-0.0555 0.1109,-0.12674 0.166352,-0.19011 0.432474,-0.49424 0.562922,-0.53395 0.76046,-1.14065 0.08941,-0.27459 0.158125,-0.95351 0.07129,-1.23569 -0.05241,-0.17032 -0.553976,-0.53368 -0.570343,-0.54657 -0.160364,-0.12623 -0.830968,-0.64016 -1.093164,-0.80795 -0.171379,-0.10968 -0.390882,-0.15787 -0.570344,-0.23763 -0.314362,-0.13972 -0.594755,-0.3731 -0.926812,-0.47527 -0.295421,-0.0909 -0.828003,-0.0174 -1.140694,0 -0.150484,0.008 -0.300855,0.02 -0.451524,0.0238 -0.166299,0.004 -0.335551,-0.0307 -0.499054,0 -0.131744,0.0247 -1.457943,0.88156 -0.71293,0.95053 0.619575,0.0574 1.156536,-0.45943 1.734803,-0.68914" />
    <path
       style="fill:none;stroke:#000000;stroke-width:0.3;stroke-dasharray:none"
       d="m 163.11653,226.40442 v -16.68194 h 55.67999 v 15.47001"
       id="path237-7" />
    <path
       style="fill:none;stroke:#000000;stroke-width:0.3;stroke-dasharray:none"
       d="m 212.0712,225.16873 h 13.52194"
       id="path293-5" />
    <path
       style="fill:none;stroke:#000000;stroke-width:0.3;stroke-dasharray:none"
       d="m 212.48555,232.36312 h 13.52194"
       id="path293-3-3" />
    <path
       style="fill:none;stroke:#000000;stroke-width:0.3;stroke-dasharray:none"
       d="m 219.24652,232.36312 v 23.05649 l -56.57999,0.19011 v -17.01463"
       id="path445-5" />
    <path
       style="fill:none;stroke:#000000;stroke-width:0.3;stroke-dasharray:none;marker-end:url(#Arrow1)"
       d="m 93.06703,228.73324 h 57.50985"
       id="path1084" />
    <rect
       style="fill:none;stroke:#000000;stroke-width:0.280269;stroke-dasharray:none"
       id="rect1552"
       width="12.109381"
       height="11.637145"
       x="156.62695"
       y="226.54456" />
    <path
       style="fill:none;stroke:#000000;stroke-width:0.3;stroke-dasharray:none"
       d="m 156.62695,226.54455 c 0,0 12.10938,11.63715 12.10938,11.63715"
       id="path1554" />
    <path
       style="fill:none;stroke:#000000;stroke-width:0.3;stroke-dasharray:none"
       d="M 168.73633,226.54455 156.62695,238.1817"
       id="path1556" />
  </g>
</svg>
