<?xml version="1.0" encoding="UTF-8" standalone="no"?>
<!-- Created with Inkscape (http://www.inkscape.org/) -->

<svg
   width="240mm"
   height="120mm"
   viewBox="0 0 240 120"
   version="1.1"
   id="svg8"
   inkscape:version="1.2.1 (9c6d41e410, 2022-07-14, custom)"
   sodipodi:docname="téléportation-quantique-2.svg"
   xmlns:inkscape="http://www.inkscape.org/namespaces/inkscape"
   xmlns:sodipodi="http://sodipodi.sourceforge.net/DTD/sodipodi-0.dtd"
   xmlns="http://www.w3.org/2000/svg"
   xmlns:svg="http://www.w3.org/2000/svg"
   xmlns:rdf="http://www.w3.org/1999/02/22-rdf-syntax-ns#"
   xmlns:cc="http://creativecommons.org/ns#"
   xmlns:dc="http://purl.org/dc/elements/1.1/">
  <defs
     id="defs2">
    <marker
       style="overflow:visible"
       id="marker1901"
       refX="0"
       refY="0"
       orient="auto-start-reverse"
       markerWidth="4.0606604"
       markerHeight="6.7071066"
       viewBox="0 0 4.0606602 6.7071068"
       preserveAspectRatio="xMidYMid">
      <path
         style="fill:none;stroke:context-stroke;stroke-width:1;stroke-linecap:butt"
         d="M 3,-3 0,0 3,3"
         id="path1899"
         transform="rotate(180,0.125,0)" />
    </marker>
    <marker
       style="overflow:visible"
       id="Arrow1"
       refX="0"
       refY="0"
       orient="auto-start-reverse"
       markerWidth="4.0606604"
       markerHeight="6.7071066"
       viewBox="0 0 4.0606602 6.7071068"
       preserveAspectRatio="xMidYMid">
      <path
         style="fill:none;stroke:context-stroke;stroke-width:1;stroke-linecap:butt"
         d="M 3,-3 0,0 3,3"
         id="path5057"
         transform="rotate(180,0.125,0)" />
    </marker>
  </defs>
  <sodipodi:namedview
     id="base"
     pagecolor="#ffffff"
     bordercolor="#666666"
     borderopacity="1.0"
     inkscape:pageopacity="0.0"
     inkscape:pageshadow="2"
     inkscape:zoom="0.99437388"
     inkscape:cx="286.10969"
     inkscape:cy="183.53258"
     inkscape:document-units="mm"
     inkscape:current-layer="layer1"
     showgrid="false"
     showborder="true"
     width="200mm"
     showguides="true"
     inkscape:guide-bbox="true"
     inkscape:window-width="1920"
     inkscape:window-height="1200"
     inkscape:window-x="0"
     inkscape:window-y="0"
     inkscape:window-maximized="1"
     inkscape:showpageshadow="2"
     inkscape:pagecheckerboard="0"
     inkscape:deskcolor="#d1d1d1">
    <inkscape:grid
       type="xygrid"
       id="grid815"
       units="mm"
       spacingx="10"
       spacingy="10"
       empspacing="4"
       dotted="false" />
  </sodipodi:namedview>
  <metadata
     id="metadata5">
    <rdf:RDF>
      <cc:Work
         rdf:about="">
        <dc:format>image/svg+xml</dc:format>
        <dc:type
           rdf:resource="http://purl.org/dc/dcmitype/StillImage" />
        <dc:title />
      </cc:Work>
    </rdf:RDF>
  </metadata>
  <g
     inkscape:label="Layer 1"
     inkscape:groupmode="layer"
     id="layer1"
     transform="translate(0,-177)">
    <g
       id="g867"
       transform="translate(-10.861772,12.267913)">
      <text
         xml:space="preserve"
         style="font-size:3.175px;fill:#ff0000;stroke:#000000;stroke-width:0.3"
         x="52.427788"
         y="216.938"
         id="text739"><tspan
           id="tspan737"
           style="stroke-width:0.3"
           x="52.427788"
           y="216.938">A</tspan></text>
      <text
         xml:space="preserve"
         style="font-size:3.175px;fill:#ff0000;stroke:#000000;stroke-width:0.3"
         x="53.440613"
         y="246.85619"
         id="text743"><tspan
           id="tspan741"
           style="stroke-width:0.3"
           x="53.440613"
           y="246.85619">B</tspan></text>
      <path
         style="fill:#ff0000;stroke:#000000;stroke-width:0.3"
         d="m 68.658871,211.23477 -0.07129,44.9367"
         id="path849" />
      <path
         style="fill:#ff0000;stroke:#000000;stroke-width:0.3"
         d="M 23.767922,233.70312 H 212.00573"
         id="path853" />
      <path
         style="fill:none;stroke:#000000;stroke-width:0.3"
         d="m 83.74796,219.04905 c -0.685475,0.0195 -1.659814,0.10665 -2.338493,0.43182 -0.678679,0.32517 -1.058907,0.88757 -1.157643,2.67094 -0.09874,1.78336 0.08346,4.78548 0.94819,6.99138 0.864736,2.2059 2.409428,3.61587 3.490807,4.55438 1.081379,0.93852 1.699248,1.40586 2.264566,2.62221 0.565317,1.21634 1.080211,3.18079 1.158762,4.48667 0.07855,1.30589 -0.277914,1.95542 -1.101274,2.75879 -0.82336,0.80338 -2.114562,1.76185 -3.282313,2.38754 -1.167752,0.62568 -2.213383,0.91876 -3.00569,0.47306 -0.792306,-0.44571 -1.330966,-1.63388 -1.050744,-3.81698 0.280221,-2.1831 1.381305,-5.35948 2.585857,-7.4318 1.204552,-2.07232 2.511594,-3.03871 3.48149,-4.52689 0.969896,-1.48819 1.603614,-3.50016 1.995845,-5.10784 0.392231,-1.60768 0.54274,-2.8117 0.08492,-3.81375 -0.457821,-1.00206 -1.527223,-1.80209 -2.259979,-2.22681 -0.732756,-0.42471 -1.128826,-0.47224 -1.814301,-0.45272 z"
         id="path920" />
      <ellipse
         style="fill:none;stroke:#000000;stroke-width:0.3"
         id="path1039"
         cx="80.350723"
         cy="207.60252"
         rx="0.90130574"
         ry="0.86736733" />
      <text
         xml:space="preserve"
         style="font-size:3.175px;fill:none;stroke:#000000;stroke-width:0.3"
         x="80.350723"
         y="206.73515"
         id="text1095"><tspan
           id="tspan1093"
           style="stroke-width:0.3"
           x="80.350723"
           y="206.73515">$\ket{\psi}$</tspan></text>
      <ellipse
         style="fill:none;stroke:#000000;stroke-width:0.3"
         id="path1149"
         cx="83.901764"
         cy="224.64091"
         rx="1.6516222"
         ry="1.5089787" />
      <ellipse
         style="fill:none;stroke:#000000;stroke-width:0.3"
         id="path1151"
         cx="84.139412"
         cy="241.34663"
         rx="1.0337532"
         ry="1.2713429" />
      <path
         style="fill:none;stroke:#000000;stroke-width:0.3"
         d="m 85.125633,224.74785 c 1.848228,-0.0793 3.693928,-0.15853 6.284022,-0.51116 2.590094,-0.35263 5.925034,-0.9784 8.313445,-1.38629 2.38841,-0.40789 3.83012,-0.598 5.62026,-0.90698 1.79014,-0.30899 3.92893,-0.73673 9.24448,-1.14849 5.31554,-0.41175 13.80735,-0.80781 20.06514,-1.3228 6.25779,-0.51498 10.28189,-1.14867 12.92785,-1.48519 2.64597,-0.33651 3.91341,-0.37612 5.17828,-0.41564"
         id="path1153" />
      <path
         style="fill:none;stroke:#000000;stroke-width:0.3"
         d="m 81.846146,208.61247 c 0.683367,-0.11919 1.364611,-0.238 2.038286,-0.27336 0.673675,-0.0354 1.339073,0.0122 2.73725,0.15084 1.398178,0.13867 3.529056,0.36838 6.29751,0.51876 2.768454,0.15037 6.174682,0.22166 9.275558,-0.0637 3.10087,-0.28541 5.89715,-0.92703 8.39218,-1.65186 2.49503,-0.72484 4.68927,-1.53279 6.71717,-2.28134 2.02789,-0.74855 3.88943,-1.43769 5.80295,-1.85733 1.91351,-0.41965 3.87803,-0.57015 6.25057,-0.69287 2.37255,-0.12273 5.15298,-0.21778 7.26005,-0.30891 2.10707,-0.0911 3.54086,-0.17826 4.4759,-0.17389 0.93503,0.004 1.37071,0.0994 1.82567,0.0989 0.45497,-5.4e-4 0.93026,-0.0956 2.01567,-0.22224 1.0854,-0.12665 2.7806,-0.28507 3.80653,-0.36817 1.02593,-0.0831 1.3824,-0.091 1.6676,-0.095 0.28521,-0.004 0.49909,-0.004 0.62581,-0.004 0.12672,0 0.16642,0 0.0979,0.0712 -0.0685,0.0712 -0.2428,0.21375 0.48309,0.22567 0.72588,0.0119 2.34978,-0.10689 3.5656,-0.22974 1.21581,-0.12285 2.0238,-0.24959 2.82961,-0.37599"
         id="path1157" />
      <rect
         style="fill:#ffffff;stroke:#000000;stroke-width:0.259926"
         id="rect1213"
         width="53.283298"
         height="37.657631"
         x="148.77042"
         y="191.22134" />
      <text
         xml:space="preserve"
         style="font-size:3.175px;fill:#ffffff;stroke:#000000;stroke-width:0.3"
         x="153.25816"
         y="200.5329"
         id="text1321"><tspan
           id="tspan1319"
           style="stroke-width:0.3"
           x="153.25816"
           y="200.5329">Mesure dans la base de Bell</tspan></text>
      <path
         style="fill:#ffffff;stroke:#000000;stroke-width:0.248394;marker-end:url(#Arrow1)"
         d="m 205.71301,209.3067 c 0.82765,0 1.65331,0 3.11486,0.54379 1.46154,0.54379 3.55839,1.63005 5.46443,4.37539 1.90603,2.74533 3.62272,7.14829 4.23375,10.09508 0.61103,2.94679 0.118,4.43859 -0.47898,5.74173 -0.59698,1.30313 -1.29791,2.41837 -3.12393,3.72492 -1.82601,1.30656 -4.77823,2.80559 -6.70832,3.64202 -1.9301,0.83644 -2.83893,1.01024 -3.88458,1.29263 -1.04565,0.28239 -2.22775,0.67345 -3.00641,1.01759 -0.77866,0.34414 -1.15289,0.64105 -1.59759,0.822 -0.44469,0.18095 -0.96148,0.24613 -1.47992,0.31151"
         id="path1648" />
      <text
         xml:space="preserve"
         style="font-size:3.175px;fill:#ffffff;stroke:#000000;stroke-width:0.3"
         x="206.79935"
         y="232.13829"
         id="text1871"><tspan
           id="tspan1869"
           style="stroke-width:0.3"
           x="206.79935"
           y="232.13829">2 bits</tspan></text>
      <path
         style="fill:#ffffff;stroke:#000000;stroke-width:0.3;marker-end:url(#marker1901)"
         d="M 83.438359,241.5011 H 230.96774"
         id="path1889" />
      <rect
         style="fill:none;stroke:#000000;stroke-width:0.3"
         id="rect1951"
         width="14.781476"
         height="6.4636559"
         x="189.85532"
         y="238.69701" />
      <text
         xml:space="preserve"
         style="font-size:3.175px;fill:none;stroke:#000000;stroke-width:0.3"
         x="196.36678"
         y="250.07971"
         id="text1955"><tspan
           id="tspan1953"
           style="stroke-width:0.3"
           x="196.36678"
           y="250.07971">U</tspan></text>
      <text
         xml:space="preserve"
         style="font-size:3.175px;fill:none;stroke:#000000;stroke-width:0.3"
         x="215.11688"
         y="246.49142"
         id="text1959"><tspan
           id="tspan1957"
           style="stroke-width:0.3"
           x="215.11688"
           y="246.49142">$\psi$</tspan></text>
    </g>
  </g>
</svg>
