<?xml version="1.0" encoding="UTF-8" standalone="no"?>
<!-- Created with Inkscape (http://www.inkscape.org/) -->

<svg
   width="240mm"
   height="120mm"
   viewBox="0 0 240 120"
   version="1.1"
   id="svg8"
   inkscape:version="1.2.1 (9c6d41e410, 2022-07-14, custom)"
   sodipodi:docname="un-graphique-tout-a-fait-quelconque.svg"
   xmlns:inkscape="http://www.inkscape.org/namespaces/inkscape"
   xmlns:sodipodi="http://sodipodi.sourceforge.net/DTD/sodipodi-0.dtd"
   xmlns="http://www.w3.org/2000/svg"
   xmlns:svg="http://www.w3.org/2000/svg"
   xmlns:rdf="http://www.w3.org/1999/02/22-rdf-syntax-ns#"
   xmlns:cc="http://creativecommons.org/ns#"
   xmlns:dc="http://purl.org/dc/elements/1.1/">
  <defs
     id="defs2">
    <marker
       style="overflow:visible"
       id="marker1650"
       refX="0"
       refY="0"
       orient="auto-start-reverse"
       inkscape:stockid="Arrow1"
       markerWidth="4.0606599"
       markerHeight="6.7071066"
       viewBox="0 0 4.0606602 6.7071068"
       inkscape:isstock="true"
       inkscape:collect="always"
       preserveAspectRatio="xMidYMid">
      <path
         style="fill:none;stroke:context-stroke;stroke-width:1;stroke-linecap:butt"
         d="M 3,-3 0,0 3,3"
         id="path1648"
         transform="rotate(180,0.125,0)"
         sodipodi:nodetypes="ccc" />
    </marker>
    <inkscape:path-effect
       effect="bspline"
       id="path-effect1632"
       is_visible="true"
       lpeversion="1"
       weight="33.333333"
       steps="2"
       helper_size="0"
       apply_no_weight="true"
       apply_with_weight="true"
       only_selected="false" />
    <inkscape:path-effect
       effect="bspline"
       id="path-effect1616"
       is_visible="true"
       lpeversion="1"
       weight="33.333333"
       steps="2"
       helper_size="0"
       apply_no_weight="true"
       apply_with_weight="true"
       only_selected="false" />
    <inkscape:path-effect
       effect="bspline"
       id="path-effect1600"
       is_visible="true"
       lpeversion="1"
       weight="33.333333"
       steps="2"
       helper_size="0"
       apply_no_weight="true"
       apply_with_weight="true"
       only_selected="false" />
    <inkscape:path-effect
       effect="bspline"
       id="path-effect1584"
       is_visible="true"
       lpeversion="1"
       weight="33.333333"
       steps="2"
       helper_size="0"
       apply_no_weight="true"
       apply_with_weight="true"
       only_selected="false" />
    <inkscape:path-effect
       effect="bspline"
       id="path-effect1540"
       is_visible="true"
       lpeversion="1"
       weight="33.333333"
       steps="2"
       helper_size="0"
       apply_no_weight="true"
       apply_with_weight="true"
       only_selected="false" />
    <marker
       style="overflow:visible"
       id="marker1014"
       refX="0"
       refY="0"
       orient="auto-start-reverse"
       inkscape:stockid="Arrow1"
       markerWidth="4.0606604"
       markerHeight="6.7071066"
       viewBox="0 0 4.0606602 6.7071068"
       inkscape:isstock="true"
       inkscape:collect="always"
       preserveAspectRatio="xMidYMid">
      <path
         style="fill:none;stroke:context-stroke;stroke-width:1;stroke-linecap:butt"
         d="M 3,-3 0,0 3,3"
         id="path1012"
         transform="rotate(180,0.125,0)"
         sodipodi:nodetypes="ccc" />
    </marker>
    <marker
       style="overflow:visible"
       id="Arrow1"
       refX="0"
       refY="0"
       orient="auto-start-reverse"
       inkscape:stockid="Arrow1"
       markerWidth="4.0606604"
       markerHeight="6.7071066"
       viewBox="0 0 4.0606602 6.7071068"
       inkscape:isstock="true"
       inkscape:collect="always"
       preserveAspectRatio="xMidYMid">
      <path
         style="fill:none;stroke:context-stroke;stroke-width:1;stroke-linecap:butt"
         d="M 3,-3 0,0 3,3"
         id="path5057"
         transform="rotate(180,0.125,0)"
         sodipodi:nodetypes="ccc" />
    </marker>
  </defs>
  <sodipodi:namedview
     id="base"
     pagecolor="#ffffff"
     bordercolor="#666666"
     borderopacity="1.0"
     inkscape:pageopacity="0.0"
     inkscape:pageshadow="2"
     inkscape:zoom="1.406257"
     inkscape:cx="428.44231"
     inkscape:cy="212.26561"
     inkscape:document-units="mm"
     inkscape:current-layer="layer1"
     showgrid="false"
     showborder="true"
     width="200mm"
     showguides="true"
     inkscape:guide-bbox="true"
     inkscape:window-width="1920"
     inkscape:window-height="1200"
     inkscape:window-x="0"
     inkscape:window-y="0"
     inkscape:window-maximized="1"
     inkscape:showpageshadow="2"
     inkscape:pagecheckerboard="0"
     inkscape:deskcolor="#d1d1d1">
    <inkscape:grid
       type="xygrid"
       id="grid815"
       units="mm"
       spacingx="10"
       spacingy="10"
       empspacing="4"
       dotted="false" />
  </sodipodi:namedview>
  <metadata
     id="metadata5">
    <rdf:RDF>
      <cc:Work
         rdf:about="">
        <dc:format>image/svg+xml</dc:format>
        <dc:type
           rdf:resource="http://purl.org/dc/dcmitype/StillImage" />
        <dc:title />
      </cc:Work>
    </rdf:RDF>
  </metadata>
  <g
     inkscape:label="Layer 1"
     inkscape:groupmode="layer"
     id="layer1"
     transform="translate(0,-177)">
    <path
       style="fill:none;stroke:#000000;stroke-width:0.4;stroke-dasharray:none;marker-start:url(#Arrow1);marker-end:url(#marker1014)"
       d="M 26.87475,187.72727 V 286.8898 H 217.2049"
       id="path793" />
    <text
       xml:space="preserve"
       style="font-size:3.175px;fill:none;stroke:#000000;stroke-width:0.4;stroke-dasharray:none"
       x="11.71883"
       y="187.34442"
       id="text1120"><tspan
         sodipodi:role="line"
         id="tspan1118"
         style="stroke-width:0.4"
         x="11.71883"
         y="187.34442">$E_0(t)$</tspan></text>
    <text
       xml:space="preserve"
       style="font-size:3.175px;fill:none;stroke:#000000;stroke-width:0.4;stroke-dasharray:none"
       x="220.67265"
       y="290.6348"
       id="text1124"><tspan
         sodipodi:role="line"
         id="tspan1122"
         style="stroke-width:0.4"
         x="220.67265"
         y="290.6348">$t$</tspan></text>
    <path
       style="fill:none;stroke:#000000;stroke-width:0.157777;stroke-dasharray:none"
       d="m 205.12035,286.8898 0.0119,1.34014"
       id="path1126" />
    <text
       xml:space="preserve"
       style="font-size:3.175px;fill:none;stroke:#000000;stroke-width:0.4;stroke-dasharray:none"
       x="202.50285"
       y="292.13177"
       id="text1339"><tspan
         sodipodi:role="line"
         id="tspan1337"
         style="stroke-width:0.4"
         x="202.50285"
         y="292.13177">$T$</tspan></text>
    <path
       style="fill:none;stroke:#00b4ff;stroke-width:0.4;stroke-dasharray:none;stroke-opacity:1"
       d="m 26.87475,286.8898 c 0.383137,0.10241 0.763143,0.20399 1.207778,0.12626 0.444635,-0.0777 0.955958,-0.3334 2.106395,-0.94059 1.150437,-0.6072 2.940085,-1.56594 4.83628,-2.56729 1.896194,-1.00135 3.898893,-2.04532 5.198774,-2.67383 1.29988,-0.62852 1.896431,-0.84157 2.471509,-1.07593 0.575078,-0.23436 1.129014,-0.49002 2.184183,-0.7136 1.055169,-0.22357 2.610455,-0.41532 4.144365,-0.63907 1.53391,-0.22374 3.04659,-0.47941 5.571466,-0.68168 2.524877,-0.20227 6.06156,-0.35141 9.065851,-0.21261 3.004291,0.1388 5.475712,0.5649 7.489156,1.10861 2.013444,0.5437 3.568732,1.20416 4.921568,1.89688 1.352836,0.69272 2.503323,1.4171 3.675161,1.98125 1.171838,0.56416 2.364937,0.96896 3.110521,1.19234 0.745583,0.22338 1.043854,0.26599 1.523282,0.362 0.479429,0.096 1.139893,0.24515 1.81079,0.31937 0.670897,0.0742 1.352667,0.0742 2.449792,0.0209 1.097126,-0.0534 2.609806,-0.15987 4.047574,-0.40504 1.437768,-0.24518 2.801306,-0.62868 4.804044,-1.1613 2.002738,-0.53262 4.644601,-1.2144 6.530241,-1.66176 1.88564,-0.44737 3.01482,-0.66042 3.93086,-0.8522 0.91604,-0.19178 1.61911,-0.36222 2.79102,-0.58588 1.17192,-0.22366 2.81243,-0.50063 4.27183,-0.75631 1.45939,-0.25567 2.7377,-0.49003 4.1441,-0.62836 1.4064,-0.13833 2.94038,-0.18094 4.99632,-0.25553 2.05594,-0.0746 4.63389,-0.18111 7.2972,-0.12768 2.66332,0.0534 5.41171,0.26648 7.86194,0.59692 2.45023,0.33044 4.60206,0.77785 6.18937,1.23633 1.58731,0.45848 2.60996,0.92719 3.63262,1.36386 1.02266,0.43666 2.04531,0.84146 2.82295,1.16111 0.77765,0.31965 1.31028,0.55401 4.02652,0.84102 2.71624,0.28702 7.61646,0.62791 11.0144,0.68093 3.39794,0.053 5.29412,-0.18134 6.7535,-0.37311 1.45938,-0.19177 2.48203,-0.34091 3.1317,-0.44749 0.64967,-0.10659 0.92664,-0.1705 1.44886,-0.2343 0.52222,-0.0638 1.2892,-0.1277 1.92823,-0.20235 0.63903,-0.0747 1.15036,-0.15987 1.96019,-0.21297 0.80983,-0.0531 1.91771,-0.0744 3.36646,-0.10637 1.44876,-0.032 3.23841,-0.0746 5.35834,-0.0745 2.11994,5e-5 4.57005,0.0427 6.84879,0.42639 2.27875,0.38373 4.38564,1.10753 5.60935,1.61925 1.22371,0.51172 1.56459,0.80999 1.73363,1.16922 0.16904,0.35923 0.16904,0.77922 0.13711,1.03664 -0.0319,0.25742 -0.0954,0.35431 -0.15842,0.45054"
       id="path1538"
       inkscape:path-effect="#path-effect1540"
       inkscape:original-d="m 26.87475,286.8898 c 0.382654,0.10422 0.762662,0.20579 1.140024,0.30473 0.513974,-0.25303 1.025302,-0.50869 1.533982,-0.76701 1.792296,-0.95609 3.581943,-1.91483 5.368944,-2.87621 2.005346,-1.04132 4.008046,-2.08528 6.0081,-3.13189 0.599196,-0.2104 1.195747,-0.42345 1.789649,-0.63915 0.556586,-0.25302 1.110523,-0.50868 1.661816,-0.76699 1.557933,-0.18911 3.11322,-0.38085 4.665864,-0.57525 1.515324,-0.25301 3.028003,-0.50868 4.538035,-0.76699 3.539329,-0.14649 7.076012,-0.29563 10.610049,-0.44741 2.474063,0.42875 4.945483,0.85486 7.414257,1.27832 1.557933,0.66311 3.113222,1.32357 4.665863,1.98139 1.153134,0.72703 2.303622,1.45141 3.451463,2.17314 1.195745,0.40745 2.388844,0.81225 3.5793,1.2144 0.300921,0.0453 0.599194,0.0879 0.894823,0.12784 0.663109,0.15178 1.323573,0.30092 1.981391,0.44741 0.684416,0.003 1.366186,0.003 2.045308,0 1.515327,-0.10388 3.028008,-0.2104 4.538041,-0.31957 1.366186,-0.38086 2.729724,-0.76436 4.090617,-1.1505 2.644507,-0.67912 5.286374,-1.36089 7.925584,-2.04531 1.13183,-0.2104 2.26101,-0.42345 3.38755,-0.63915 0.70572,-0.1678 1.40879,-0.33824 2.10923,-0.51133 1.64315,-0.27432 3.28366,-0.55129 4.92153,-0.83091 1.28097,-0.23171 2.55928,-0.46607 3.83496,-0.70308 1.53663,-0.04 3.07061,-0.0826 4.60194,-0.12783 2.58059,-0.10388 5.15854,-0.21041 7.73384,-0.31958 2.75103,0.2157 5.49942,0.42875 8.24516,0.63916 2.15449,0.45006 4.30632,0.89747 6.45552,1.34224 1.0253,0.47136 2.04795,0.94008 3.06796,1.40615 1.0253,0.40745 2.04795,0.81225 3.06796,1.21441 0.53528,0.237 1.06791,0.47136 1.5979,0.70307 4.90287,0.34353 9.80309,0.68442 14.70067,1.02266 1.89883,-0.23172 3.79501,-0.46608 5.68854,-0.70309 1.0253,-0.14649 2.04795,-0.29563 3.06796,-0.44741 0.27961,-0.0613 0.55658,-0.12518 0.8309,-0.19174 0.76964,-0.0613 1.53663,-0.12519 2.30097,-0.19175 0.51398,-0.0826 1.02531,-0.1678 1.534,-0.25566 1.11052,-0.0187 2.2184,-0.04 3.32363,-0.0639 1.79229,-0.04 3.58194,-0.0826 5.36895,-0.12784 2.45275,0.0453 4.90286,0.0879 7.35032,0.12784 2.10955,0.72644 4.21644,1.45024 6.32069,2.1714 0.34353,0.30092 0.68442,0.59919 1.02266,0.89482 0.003,0.42264 0.003,0.84263 0,1.25997 -0.0608,0.0995 -0.12426,0.19639 -0.19035,0.29062" />
    <path
       style="fill:none;stroke:#00b4ff;stroke-width:0.4;stroke-dasharray:none;stroke-opacity:1"
       d="m 26.823103,263.63264 c 2.922003,-1.37724 5.842865,-2.75395 8.45408,-3.77251 2.611214,-1.01857 4.912187,-1.67904 7.213453,-2.13698 2.301266,-0.45795 4.602242,-0.71361 6.743559,-0.86264 2.141317,-0.14904 4.122709,-0.19165 5.997681,-0.15958 1.874971,0.0321 3.643313,0.1386 5.252025,0.37326 1.608711,0.23466 3.057475,0.59685 5.571501,1.21469 2.514026,0.61785 6.09332,1.49137 8.341026,2.03464 2.247706,0.54327 3.163837,0.75632 3.80304,0.92697 0.639203,0.17064 1.001391,0.29847 1.26744,0.36183 0.266048,0.0634 0.436493,0.0634 1.373958,0.0847 0.937465,0.0213 2.641894,0.0639 4.719071,0.0319 2.077176,-0.032 4.527289,-0.13857 7.009164,-0.40501 2.481874,-0.26644 4.995903,-0.69255 7.424584,-1.19327 2.428685,-0.50073 4.772265,-1.07597 6.700575,-1.47004 1.9283,-0.39408 3.44097,-0.60713 4.6979,-0.80957 1.25694,-0.20245 2.25829,-0.39419 3.69536,-0.45787 1.43707,-0.0637 3.3092,2.5e-4 5.23599,0.0962 1.9268,0.0959 3.90819,0.22375 5.27181,0.34105 1.36363,0.1173 2.10931,0.22383 3.19581,0.33025 1.08651,0.10642 2.51396,0.21294 3.99472,0.35149 1.48076,0.13854 3.01474,0.30898 4.22919,0.46886 1.21446,0.15988 2.10929,0.30902 3.78171,0.53265 1.67243,0.22363 4.12255,0.5219 5.56051,0.67086 1.43797,0.14896 1.86408,0.14896 3.05719,0.15962 1.19312,0.0107 3.15321,0.032 4.52735,0.0319 1.37415,-5e-5 2.16245,-0.0213 3.16365,-0.10667 1.00121,-0.0853 2.21561,-0.23446 4.03724,-0.43685 1.82164,-0.20238 4.25044,-0.45804 6.02933,-0.68181 1.77889,-0.22376 2.90807,-0.41551 4.25031,-0.63921 1.34225,-0.2237 2.89754,-0.47936 4.28245,-0.68173 1.38492,-0.20236 2.59933,-0.3515 3.62194,-0.49001 1.0226,-0.13852 1.85351,-0.26635 2.35441,-0.33009 0.5009,-0.0637 0.67134,-0.0637 0.84119,-0.096 0.16984,-0.0322 0.34028,-0.0961 0.80925,-0.21327 0.46898,-0.11713 1.23597,-0.28757 1.80082,-0.3833 0.56486,-0.0957 0.92704,-0.11703 1.50203,-0.21304 0.575,-0.096 1.3633,-0.26645 2.09862,-0.36214 0.73533,-0.0957 1.4171,-0.117 2.09886,-0.1383 0.68177,-0.0213 1.36355,-0.0426 2.05314,-0.0532 0.6896,-0.0106 1.38694,-0.0106 1.92262,0.074 0.53568,0.0846 0.90914,0.25243 1.27942,0.41881"
       id="path1582"
       inkscape:path-effect="#path-effect1584"
       inkscape:original-d="m 26.823103,263.63264 c 2.923503,-1.37406 5.844363,-2.75077 8.762574,-4.13011 2.303622,-0.65783 4.604597,-1.31829 6.902927,-1.98141 2.303621,-0.25301 4.604596,-0.50868 6.902926,-0.76698 1.984039,-0.04 3.965432,-0.0826 5.944179,-0.12784 1.770989,0.10918 3.539331,0.2157 5.305028,0.31959 1.451409,0.36483 2.900172,0.72702 4.346289,1.08656 3.58194,0.87617 7.161234,1.74969 10.737885,2.62056 0.918776,0.2157 1.834906,0.42876 2.748391,0.63917 0.364834,0.13047 0.727022,0.2583 1.086564,0.38349 0.17309,0.003 0.343535,0.003 0.511331,0 1.707071,0.0452 3.411498,0.0879 5.113277,0.12782 2.452759,-0.10388 4.902872,-0.2104 7.350339,-0.31957 2.516672,-0.42346 5.0307,-0.84957 7.542077,-1.27832 2.34624,-0.5726 4.68982,-1.14784 7.03077,-1.72573 1.51532,-0.21041 3.02799,-0.42346 4.53802,-0.63916 1.004,-0.1891 2.00535,-0.38085 3.00406,-0.57525 1.87476,0.0666 3.74689,0.13048 5.61637,0.19175 1.98404,0.13048 3.96543,0.25831 5.94418,0.3835 0.74834,0.10917 1.49402,0.2157 2.23706,0.31958 1.43011,0.10917 2.85756,0.2157 4.28237,0.31958 1.53663,0.17309 3.07061,0.34353 4.60195,0.51133 0.89747,0.15178 1.7923,0.30092 2.68447,0.44741 2.45276,0.30092 4.90288,0.59919 7.35034,0.89482 0.42875,0.003 0.85486,0.003 1.27832,0 1.96274,0.0239 3.92283,0.0453 5.88028,0.0639 0.79094,-0.0187 1.57924,-0.04 2.36488,-0.0639 1.21706,-0.14649 2.43146,-0.29563 3.64322,-0.44741 2.43145,-0.25302 4.86025,-0.50868 7.28641,-0.76699 1.13183,-0.1891 2.26101,-0.38085 3.38755,-0.57525 1.55793,-0.25301 3.11322,-0.50868 4.66587,-0.76698 1.21705,-0.1465 2.43146,-0.29563 3.64322,-0.44742 0.83355,-0.12518 1.66446,-0.25302 2.49272,-0.38349 0.17308,0.003 0.34352,0.003 0.51132,0 0.17308,-0.0613 0.34352,-0.12519 0.51132,-0.19175 0.76964,-0.1678 1.53663,-0.33824 2.30099,-0.51133 0.36483,-0.0187 0.72701,-0.04 1.08655,-0.0639 0.79095,-0.1678 1.57925,-0.33824 2.36491,-0.51132 0.68441,-0.0187 1.36618,-0.04 2.0453,-0.0639 0.68442,-0.0186 1.36619,-0.04 2.04532,-0.0639 0.69998,0.003 1.39732,0.003 2.09201,0 0.37612,0.17046 0.74958,0.33827 1.12041,0.50343" />
    <path
       style="fill:none;stroke:#00b4ff;stroke-width:0.4;stroke-dasharray:none;stroke-opacity:1"
       d="m 26.87475,237.30853 c 0.313256,-1.28295 0.626977,-2.5678 0.828002,-3.21116 0.201025,-0.64337 0.286243,-0.64337 0.371083,-0.65426 0.08484,-0.0109 0.170055,-0.0322 0.564261,-0.11737 0.394207,-0.0852 1.097282,-0.23434 2.386519,-0.35136 1.289236,-0.11703 3.1641,-0.20225 4.868643,-0.21279 1.704542,-0.0105 3.238526,0.0534 4.399843,0.18154 1.161316,0.12815 1.949614,0.3199 3.302519,0.68215 1.352906,0.36225 3.270382,0.89488 4.687207,1.38524 1.416825,0.49037 2.332952,0.93778 3.494097,1.49169 1.161145,0.55391 2.567295,1.21437 3.621904,1.66156 1.054609,0.4472 1.757686,0.68156 2.993378,1.04365 1.235691,0.3621 3.004034,0.85212 4.750929,1.17139 1.746894,0.31926 3.472625,0.4684 4.942676,0.58556 1.47005,0.11715 2.684449,0.20237 4.207708,0.25555 1.523258,0.0532 3.355516,0.0745 5.475393,0.0958 2.119878,0.0213 4.527383,0.0426 6.199839,0.0532 1.672457,0.0106 2.609889,0.0106 3.38769,0.0535 0.777802,0.0428 1.395652,0.12803 3.036039,0.20243 1.640386,0.0744 4.303551,0.13831 6.476662,0.17024 2.173111,0.0319 3.856228,0.0319 5.581958,0.0319 1.72573,0 3.49408,0 4.69769,-0.0321 1.20361,-0.0321 1.84277,-0.096 2.35424,-0.12783 0.51147,-0.0318 0.89497,-0.0318 2.4076,-0.0745 1.51263,-0.0427 4.15449,-0.12788 6.42351,-0.20245 2.26901,-0.0746 4.16518,-0.13848 5.64577,-0.23445 1.4806,-0.096 2.54586,-0.2238 4.09051,-0.40489 1.54464,-0.1811 3.56865,-0.41546 5.53931,-0.69247 1.97066,-0.27702 3.88814,-0.5966 5.53946,-0.7989 1.65133,-0.20229 3.03618,-0.28751 3.95211,-0.37285 0.91593,-0.0854 1.36333,-0.17056 1.73646,-0.21298 0.37313,-0.0424 0.67141,-0.0424 1.52354,-0.0851 0.85212,-0.0427 2.25828,-0.12791 3.68568,-0.24513 1.42739,-0.11723 2.87615,-0.26637 4.03722,-0.4049 1.16107,-0.13852 2.03459,-0.26635 4.18638,-0.63923 2.15178,-0.37287 5.58193,-0.99072 8.48998,-1.60862 2.90804,-0.61791 5.29423,-1.23575 7.02003,-1.66184 1.7258,-0.42609 2.79107,-0.66045 4.03733,-0.98006 1.24626,-0.31962 2.67371,-0.72442 3.77099,-1.02267 1.09728,-0.29826 1.86427,-0.49 2.7377,-0.73504 0.87342,-0.24503 1.85347,-0.5433 3.37702,-0.87347 1.52354,-0.33016 3.59015,-0.69236 4.80455,-0.90541 1.2144,-0.21306 1.5766,-0.27697 2.43975,-0.29807 0.86315,-0.0211 2.22669,2e-4 3.1749,0.043 0.9482,0.0428 1.48083,0.10668 2.43956,0.21319 0.95873,0.10651 2.34358,0.25565 3.69651,0.42616 1.35292,0.1705 2.67385,0.36224 3.65396,0.53283 0.9801,0.17059 1.61926,0.31973 2.19706,0.43482 0.5778,0.1151 1.09434,0.19639 1.60789,0.27722"
       id="path1598"
       inkscape:path-effect="#path-effect1600"
       inkscape:original-d="m 26.87475,237.30853 c 0.316365,-1.28219 0.630084,-2.56704 0.941157,-3.85453 0.08787,0.003 0.173088,0.003 0.255665,0 0.08787,-0.0187 0.173085,-0.04 0.255659,-0.0639 0.705723,-0.14649 1.4088,-0.29562 2.109231,-0.44741 1.877513,-0.0826 3.752379,-0.1678 5.624603,-0.25567 1.536628,0.0666 3.070614,0.13048 4.601951,0.19176 0.790942,0.19439 1.579239,0.38614 2.36489,0.57524 1.920127,0.53528 3.837604,1.06791 5.752439,1.5979 0.918773,0.45006 1.834901,0.89747 2.748386,1.34224 1.408797,0.66311 2.814949,1.32357 4.218458,1.98139 0.705721,0.237 1.408795,0.47137 2.109224,0.70308 1.770991,0.49267 3.539334,0.98269 5.305031,1.47006 1.728377,0.15179 3.454109,0.30092 5.177194,0.44741 1.217049,0.0879 2.43145,0.1731 3.643204,0.25567 1.834904,0.024 3.667162,0.0453 5.496772,0.0639 2.410153,0.0239 4.817657,0.0453 7.222516,0.0639 0.940078,0.003 1.87751,0.003 2.812296,0 0.620504,0.0879 1.238359,0.17309 1.853568,0.25567 2.665809,0.0666 5.328975,0.13047 7.989493,0.19174 1.685766,0.003 3.368883,0.003 5.049363,0 1.77098,0.003 3.53933,0.003 5.30503,0 0.6418,-0.0613 1.28097,-0.12518 1.91748,-0.19174 0.38614,0.003 0.76964,0.003 1.15048,0 2.64451,-0.0826 5.28637,-0.1678 7.92558,-0.25567 1.89882,-0.0613 3.79499,-0.12518 5.68853,-0.19174 1.06791,-0.12519 2.13317,-0.25302 3.1958,-0.3835 2.02665,-0.23171 4.05066,-0.46608 6.07202,-0.70308 1.92012,-0.31694 3.8376,-0.63652 5.75243,-0.95874 1.38749,-0.0826 2.77234,-0.1678 4.15454,-0.25566 0.45006,-0.0826 0.89747,-0.1678 1.34223,-0.25566 0.30092,0.003 0.5992,0.003 0.89482,0 1.4088,-0.0826 2.81496,-0.1678 4.21847,-0.25567 1.45141,-0.14649 2.90017,-0.29563 4.34629,-0.44742 0.87616,-0.12518 1.74968,-0.25301 2.62055,-0.38349 3.43281,-0.61521 6.86296,-1.23306 10.29047,-1.85357 2.38884,-0.6152 4.77503,-1.23305 7.15858,-1.85355 1.06792,-0.23172 2.13319,-0.46608 3.19581,-0.70309 1.43011,-0.40215 2.85756,-0.80695 4.28237,-1.2144 0.76964,-0.1891 1.53663,-0.38084 2.30097,-0.57523 0.98269,-0.29563 1.96274,-0.59391 2.94015,-0.89483 2.06925,-0.35955 4.13586,-0.72174 6.19983,-1.08658 0.36483,-0.0613 0.72703,-0.12518 1.08658,-0.19174 1.36618,0.024 2.72972,0.0453 4.09061,0.0639 0.53528,0.0666 1.06791,0.13048 1.5979,0.19175 1.3875,0.15179 2.77235,0.30092 4.15455,0.44742 1.32358,0.19439 2.64451,0.38614 3.96279,0.57524 0.6418,0.15179 1.28096,0.30092 1.91748,0.44742 0.51919,0.0839 1.03573,0.16524 1.54962,0.24389" />
    <path
       style="fill:none;stroke:#00b4ff;stroke-width:0.4;stroke-dasharray:none;stroke-opacity:1"
       d="m 26.680459,203.9326 c 3.74065,0 7.478656,0 10.402,-0.19194 2.923343,-0.19193 5.032569,-0.57543 6.555973,-0.83105 1.523405,-0.25563 2.460838,-0.38346 3.97366,-0.48989 1.512822,-0.10642 3.600744,-0.19164 6.626178,-0.20222 3.025435,-0.0106 6.988225,0.0533 10.546193,0.0853 3.557969,0.0319 6.711157,0.0319 11.206581,0.0319 4.495425,0 10.333083,0 15.105474,0 4.772391,0 8.479519,0 10.972072,-0.0747 2.49255,-0.0747 3.77087,-0.22384 4.91075,-0.34099 1.13989,-0.11714 2.14124,-0.20236 3.69626,-0.51142 1.55501,-0.30906 3.66424,-0.8417 5.01726,-1.16124 1.35301,-0.31953 1.94956,-0.42605 2.70581,-0.58588 0.75625,-0.15982 1.67237,-0.37287 2.88693,-0.58586 1.21455,-0.21299 2.72723,-0.42604 4.14403,-0.62844 1.4168,-0.20241 2.73772,-0.39415 3.99477,-0.56458 1.25704,-0.17042 2.45014,-0.31956 3.38737,-0.47945 0.93723,-0.15988 1.619,-0.33032 2.39666,-0.52207 0.77765,-0.19174 1.65117,-0.4048 2.18373,-0.52187 0.53256,-0.11708 0.72373,-0.13838 0.97728,-0.20185 0.25355,-0.0635 0.57021,-0.16882 1.06963,-0.29603 0.49941,-0.1272 1.18118,-0.27634 1.74573,-0.40418 0.56456,-0.12784 1.01197,-0.23437 1.54488,-0.30879 0.53291,-0.0744 1.15077,-0.11704 2.48241,-0.17026 1.33164,-0.0532 3.37694,-0.11713 5.67817,0.11758 2.30123,0.23472 4.85786,0.76735 6.72211,1.19357 1.86425,0.42622 3.03604,0.74579 4.1972,1.09743 1.16116,0.35164 2.31165,0.73514 3.32363,1.04396 1.01198,0.30882 1.8855,0.54317 2.89752,0.83084 1.01201,0.28767 2.1625,0.62856 3.18517,0.96958 1.02268,0.34103 1.9175,0.68191 2.97208,1.00127 1.05457,0.31935 2.26897,0.61763 3.43014,0.948 1.16117,0.33037 2.26905,0.69256 3.34493,0.99066 1.07587,0.2981 2.11983,0.53246 2.7484,0.69255 0.62857,0.16008 0.84162,0.2453 1.68311,0.43672 0.8415,0.19141 2.31156,0.48969 3.76033,0.78797 1.44877,0.29828 2.87623,0.59656 3.95201,0.76676 1.07578,0.17021 1.80016,0.21282 2.66303,0.26609 0.86287,0.0533 1.86422,0.11719 3.3129,0.14906 1.44869,0.0319 3.34486,0.0319 4.8746,0.0629 1.52973,0.031 2.69289,0.0929 3.32154,0.12374 0.62864,0.0309 0.72284,0.0309 0.84897,0.1044 0.12614,0.0735 0.28407,0.21808 0.45805,0.34027 0.17397,0.12218 0.3636,0.22286 0.55007,0.32186"
       id="path1614"
       inkscape:path-effect="#path-effect1616"
       inkscape:original-d="m 26.680459,203.9326 c 3.74065,0.003 7.478656,0.003 11.214017,0 2.111876,-0.38085 4.221102,-0.76434 6.327685,-1.15048 0.940078,-0.12519 1.87751,-0.25303 2.812299,-0.3835 2.090565,-0.0826 4.178488,-0.1678 6.263764,-0.25566 3.965438,0.0666 7.928229,0.13047 11.888375,0.19174 3.155833,0.003 6.309021,0.003 9.459566,0 5.840304,0.003 11.677962,0.003 17.512974,0 3.70977,0.003 7.416898,0.003 11.121381,0 1.28096,-0.14649 2.55928,-0.29563 3.83495,-0.44741 1.004,-0.0826 2.00535,-0.1678 3.00406,-0.25566 2.11187,-0.52999 4.2211,-1.06263 6.32769,-1.59791 0.59919,-0.10388 1.19574,-0.2104 1.78964,-0.31957 0.91878,-0.21041 1.8349,-0.42346 2.74838,-0.63916 1.51533,-0.21041 3.02801,-0.42346 4.53804,-0.63916 1.32358,-0.1891 2.6445,-0.38085 3.96279,-0.57524 1.19574,-0.1465 2.38884,-0.29563 3.57929,-0.44742 0.68442,-0.16779 1.36619,-0.33824 2.04531,-0.51133 0.87617,-0.2104 1.74969,-0.42346 2.62056,-0.63916 0.19381,-0.0187 0.38498,-0.04 0.5735,-0.0639 0.31932,-0.10272 0.63598,-0.20808 0.95001,-0.31609 0.68441,-0.14649 1.36618,-0.29563 2.0453,-0.44741 0.45006,-0.10388 0.89747,-0.21041 1.34224,-0.31958 0.6205,-0.04 1.23836,-0.0826 1.85357,-0.12783 2.04796,-0.0613 4.09327,-0.12519 6.13594,-0.19175 2.55928,0.53528 5.11591,1.06791 7.6699,1.5979 1.17444,0.32223 2.34623,0.6418 3.51538,0.95874 1.15313,0.38614 2.30362,0.76964 3.45146,1.15049 0.87617,0.237 1.74969,0.47136 2.62056,0.70307 1.15313,0.34353 2.30362,0.68442 3.45146,1.02266 0.89747,0.34353 1.7923,0.68441 2.68448,1.02265 1.21705,0.30092 2.43145,0.5992 3.64321,0.89483 1.11052,0.36483 2.2184,0.72702 3.32363,1.08657 1.0466,0.237 2.09056,0.47136 3.13188,0.70308 0.2157,0.0879 0.42876,0.17308 0.63917,0.25566 1.47272,0.30092 2.94278,0.59919 4.41021,0.89482 1.4301,0.30092 2.85756,0.5992 4.28237,0.89482 0.72702,0.0453 1.4514,0.0879 2.17313,0.12784 1.004,0.0666 2.00535,0.13047 3.00406,0.19175 1.89882,0.003 3.79499,0.003 5.68851,0 1.16582,0.0645 2.32898,0.12638 3.4895,0.18561 0.0969,0.003 0.1911,0.003 0.28268,0 0.16058,0.14719 0.31851,0.29174 0.47379,0.43364 0.19227,0.10332 0.3819,0.204 0.56888,0.30203" />
    <path
       style="fill:none;stroke:#00b4ff;stroke-width:0.4;stroke-dasharray:none;stroke-opacity:1"
       d="m 26.680459,220.0021 c 1.919197,0 3.835751,0 5.284133,0.032 1.448382,0.032 2.428425,0.096 3.621463,0.1385 1.193039,0.0425 2.599188,0.0638 3.994777,0.13852 1.395588,0.0747 2.780436,0.2025 5.006733,0.26629 2.226296,0.0638 5.294264,0.0638 10.034695,0.0531 4.74043,-0.0107 11.153335,-0.032 15.552888,-0.0426 4.399553,-0.0106 6.78575,-0.0106 10.269188,0.0213 3.483438,0.032 8.064081,0.0959 11.632289,-0.2133 3.568207,-0.30919 6.124846,-0.99096 8.095365,-1.60885 1.97052,-0.61789 3.35536,-1.17183 4.80435,-1.65117 1.44898,-0.47933 2.96166,-0.88413 4.26134,-1.21435 1.29968,-0.33021 2.38625,-0.58588 3.71705,-0.72415 1.33079,-0.13828 2.90512,-0.15958 4.26779,-0.0207 1.36267,0.13891 2.51316,0.43719 3.39735,0.68228 0.88419,0.2451 1.50205,0.43685 2.25839,0.68189 0.75635,0.24505 1.65117,0.54332 3.07858,0.90532 1.42741,0.362 3.3875,0.7881 5.23039,1.16089 1.84289,0.37279 3.56862,0.69237 5.21983,1.07603 1.65122,0.38367 3.22782,0.83108 4.53798,1.11844 1.31017,0.28735 2.35414,0.41519 3.74962,0.57496 1.39549,0.15976 3.14253,0.35151 4.23962,0.44723 1.0971,0.0957 1.54451,0.0957 2.24767,0.12776 0.70316,0.032 1.66189,0.096 3.0147,0.12784 1.35281,0.0319 3.09985,0.0319 4.36758,0.0532 1.26773,0.0214 2.05603,0.064 3.29168,0.0959 1.23566,0.0319 2.91878,0.0532 4.09998,0.0638 1.18119,0.0106 1.86049,0.0106 3.77648,-0.25587 1.91599,-0.2665 5.06918,-0.79913 7.77497,-1.24653 2.70579,-0.44741 4.96415,-0.8096 6.5835,-1.02256 1.61936,-0.21296 2.5994,-0.27688 4.24647,-0.31942 1.64707,-0.0425 3.96102,-0.0638 6.27233,-0.0851"
       id="path1630"
       inkscape:path-effect="#path-effect1632"
       inkscape:original-d="m 26.680459,220.0021 c 1.919197,0.003 3.835751,0.003 5.749657,0 0.982695,0.0666 1.96274,0.13048 2.94014,0.19175 1.408798,0.024 2.814947,0.0453 4.218453,0.0639 1.387491,0.13048 2.772339,0.25831 4.154541,0.38349 3.070611,0.003 6.138579,0.003 9.203899,0 6.41555,-0.0186 12.828455,-0.04 19.238711,-0.0639 2.388841,0.003 4.775038,0.003 7.158588,0 4.583289,0.0666 9.163933,0.13047 13.741934,0.19174 2.559283,-0.67913 5.115922,-1.3609 7.669918,-2.04531 1.38749,-0.55129 2.77233,-1.10523 4.15453,-1.66182 1.51533,-0.40215 3.02801,-0.80695 4.53804,-1.2144 1.08922,-0.25301 2.17579,-0.50868 3.25971,-0.76699 1.57698,-0.0187 3.15131,-0.04 4.723,-0.0639 1.15313,0.30092 2.30362,0.59919 3.45146,0.89482 0.6205,0.19439 1.23836,0.38614 1.85357,0.57524 0.89747,0.30092 1.79229,0.59919 2.68447,0.89482 1.96274,0.42875 3.92283,0.85486 5.88027,1.27832 1.72838,0.32223 3.45411,0.64181 5.17719,0.95874 1.57924,0.45006 3.15584,0.89747 4.72978,1.34224 1.04661,0.13048 2.09058,0.25831 3.13189,0.3835 1.74968,0.19439 3.49672,0.38614 5.24111,0.57524 0.45006,0.003 0.89747,0.003 1.34223,0 0.96139,0.0666 1.92013,0.13048 2.87623,0.19175 1.74968,0.003 3.49672,0.003 5.24111,0 0.79094,0.0452 1.57923,0.0879 2.36488,0.12783 1.68577,0.0239 3.36889,0.0453 5.04936,0.0639 0.68195,0.003 1.36125,0.003 2.0379,0 3.15584,-0.52999 6.30903,-1.06262 9.45957,-1.5979 2.26101,-0.35955 4.51937,-0.72174 6.77509,-1.08658 0.98269,-0.0613 1.96273,-0.12518 2.94012,-0.19174 2.31659,-0.0187 4.63054,-0.04 6.94183,-0.0639" />
    <path
       style="fill:#ff6600;stroke:#ff6600;stroke-width:0.4;stroke-dasharray:none;marker-start:url(#marker1650);marker-end:url(#marker1650)"
       d="M 132.78585,258.51209 V 277.9983"
       id="path1646" />
    <text
       xml:space="preserve"
       style="font-size:3.175px;fill:#ff6600;stroke:#ff6600;stroke-width:0.4;stroke-dasharray:none"
       x="138.85374"
       y="268.25519"
       id="text1762"><tspan
         sodipodi:role="line"
         id="tspan1760"
         style="stroke-width:0.4;fill:#ff6600;stroke:#ff6600"
         x="138.85374"
         y="268.25519">$\Delta$ </tspan></text>
    <text
       xml:space="preserve"
       style="font-size:3.175px;fill:none;stroke:#000000;stroke-width:0.4"
       x="206.88109"
       y="280.95306"
       id="text906"><tspan
         sodipodi:role="line"
         id="tspan904"
         style="stroke-width:0.4"
         x="206.88109"
         y="280.95306">$E_0(t)$</tspan></text>
    <text
       xml:space="preserve"
       style="font-size:3.175px;fill:none;stroke:#000000;stroke-width:0.4"
       x="196.08708"
       y="256.04324"
       id="text960"><tspan
         sodipodi:role="line"
         id="tspan958"
         style="stroke-width:0.4"
         x="196.08708"
         y="256.04324">$E_1(t)$</tspan></text>
    <text
       xml:space="preserve"
       style="font-size:3.175px;fill:none;stroke:#000000;stroke-width:0.4"
       x="215.85515"
       y="230.82146"
       id="text964"><tspan
         sodipodi:role="line"
         id="tspan962"
         style="stroke-width:0.4"
         x="215.85515"
         y="230.82146">$E_2(t)$</tspan></text>
    <text
       xml:space="preserve"
       style="font-size:3.175px;fill:none;stroke:#000000;stroke-width:0.4"
       x="201.93384"
       y="219.8282"
       id="text968"><tspan
         sodipodi:role="line"
         id="tspan966"
         style="stroke-width:0.4"
         x="201.93384"
         y="219.8282">$\dotsb$</tspan></text>
    <text
       xml:space="preserve"
       style="font-size:3.175px;fill:none;stroke:#000000;stroke-width:0.4"
       x="214.17244"
       y="207.39894"
       id="text972"><tspan
         sodipodi:role="line"
         id="tspan970"
         style="stroke-width:0.4"
         x="214.17244"
         y="207.39894">$E_n(t)$</tspan></text>
  </g>
</svg>
